<svg xmlns="http://www.w3.org/2000/svg" width="400" height="400" viewBox="0 0 400 400"><g fill="none" fill-rule="evenodd"><rect width="400" height="400" fill="#FFF"/><g transform="translate(49.5 85)"><polygon fill="#C7C7CC" points="300.5 250 300.5 280 .5 205 .5 175"/><line x1=".5" x2=".5" y2="300" stroke="#2C2C2E" stroke-linecap="round" stroke-linejoin="round"/><path fill="#2C2C2E" fill-rule="nonzero" d="M0.532121855,24.5009459 L0.621267813,24.5149287 L292.374,97.453 L293.214991,94.0936365 C293.278913,93.8379505 293.51632,93.6713579 293.770312,93.6879999 L293.86603,93.7030136 C293.946886,93.7232277 294.021926,93.7619896 294.085206,93.8162298 L294.085206,93.8162298 L300.813525,99.5833602 C301.038644,99.7763195 301.064715,100.115239 300.871755,100.340358 C300.796159,100.428554 300.693996,100.489852 300.580602,100.51505 L300.580602,100.51505 L291.929906,102.437427 C291.640467,102.501747 291.353689,102.319252 291.28937,102.029813 C291.271289,101.948452 291.272401,101.864 291.292615,101.783144 L291.292615,101.783144 L292.132,98.423 L0.378732187,25.4850713 C0.110834733,25.4180969 -0.0520456136,25.1466296 0.0149287499,24.8787322 C0.0670199215,24.6703675 0.242816663,24.5255317 0.444423919,24.5029618 L0.532121855,24.5009459 Z"/><path fill="#2C2C2E" fill-rule="nonzero" d="M300.985071,99.8787322 C301.044604,100.116863 300.922523,100.357815 300.706506,100.455458 L300.621268,100.485071 L8.867,173.423 L9.70741392,176.783258 C9.77133543,177.038944 9.64025483,177.297658 9.40831312,177.4025 L9.31679099,177.434296 C9.23593459,177.45451 9.15148226,177.455621 9.07012208,177.437541 L9.07012208,177.437541 L0.419426423,175.515164 C0.129987428,175.450845 -0.0525077556,175.164066 0.011812021,174.874627 C0.0370107682,174.761233 0.0983082924,174.659071 0.186503908,174.583474 L0.186503908,174.583474 L6.91482275,168.816344 C7.13994197,168.623385 7.4788616,168.649455 7.67182093,168.874574 C7.72606105,168.937855 7.76482301,169.012894 7.78503711,169.093751 L7.78503711,169.093751 L8.625,172.453 L300.378732,99.5149287 C300.64663,99.4479544 300.918097,99.6108347 300.985071,99.8787322 Z"/><path fill="#2C2C2E" fill-rule="nonzero" d="M.532121855 174.500946.621267813 174.514929 292.374 247.453 293.214991 244.093637C293.278913 243.83795 293.51632 243.671358 293.770312 243.688L293.86603 243.703014C293.946886 243.723228 294.021926 243.76199 294.085206 243.81623L294.085206 243.81623 300.813525 249.58336C301.038644 249.77632 301.064715 250.115239 300.871755 250.340358 300.796159 250.428554 300.693996 250.489852 300.580602 250.51505L300.580602 250.51505 291.929906 252.437427C291.640467 252.501747 291.353689 252.319252 291.28937 252.029813 291.271289 251.948452 291.272401 251.864 291.292615 251.783144L291.292615 251.783144 292.132 248.423.378732187 175.485071C.110834733 175.418097-.0520456136 175.14663.0149287499 174.878732.0670199215 174.670368.242816663 174.525532.444423919 174.502962L.532121855 174.500946ZM.532121855 204.500946.621267813 204.514929 292.374 277.453 293.214991 274.093637C293.278913 273.83795 293.51632 273.671358 293.770312 273.688L293.86603 273.703014C293.946886 273.723228 294.021926 273.76199 294.085206 273.81623L294.085206 273.81623 300.813525 279.58336C301.038644 279.77632 301.064715 280.115239 300.871755 280.340358 300.796159 280.428554 300.693996 280.489852 300.580602 280.51505L300.580602 280.51505 291.929906 282.437427C291.640467 282.501747 291.353689 282.319252 291.28937 282.029813 291.271289 281.948452 291.272401 281.864 291.292615 281.783144L291.292615 281.783144 292.132 278.423.378732187 205.485071C.110834733 205.418097-.0520456136 205.14663.0149287499 204.878732.0670199215 204.670368.242816663 204.525532.444423919 204.502962L.532121855 204.500946Z"/><line x1="300.5" x2="300.5" y2="300" stroke="#2C2C2E" stroke-linecap="round" stroke-linejoin="round"/><g fill="#2C2C2E" fill-rule="nonzero" transform="rotate(14 -76.698 449.709)"><path d="M5.256,-1.42108547e-14 C3.87,-1.42108547e-14 2.736,0.306 1.836,0.936 C0.864,1.584 0.396,2.484 0.396,3.618 C0.396,4.752 0.882,5.616 1.872,6.21 C2.25,6.426 3.24,6.786 4.824,7.29 C6.246,7.722 7.074,8.01 7.326,8.136 C8.118,8.532 8.532,9.072 8.532,9.756 C8.532,10.296 8.244,10.71 7.704,11.034 C7.164,11.34 6.408,11.502 5.472,11.502 C4.41,11.502 3.636,11.304 3.132,10.944 C2.574,10.53 2.232,9.828 2.088,8.856 L0,8.856 C0.09,10.494 0.684,11.682 1.764,12.438 C2.646,13.05 3.888,13.356 5.472,13.356 C7.11,13.356 8.388,13.014 9.288,12.366 C10.188,11.7 10.638,10.782 10.638,9.63 C10.638,8.442 10.08,7.524 8.964,6.858 C8.46,6.57 7.344,6.138 5.598,5.598 C4.41,5.22 3.672,4.95 3.402,4.806 C2.79,4.482 2.502,4.032 2.502,3.492 C2.502,2.88 2.754,2.43 3.294,2.16 C3.726,1.926 4.338,1.818 5.148,1.818 C6.084,1.818 6.804,1.98 7.272,2.34 C7.74,2.682 8.082,3.258 8.262,4.05 L10.35,4.05 C10.224,2.646 9.702,1.602 8.802,0.936 C7.956,0.306 6.768,-1.42108547e-14 5.256,-1.42108547e-14 Z"/><polygon points="11.268 .252 16.344 7.992 16.344 13.104 18.45 13.104 18.45 7.992 23.526 .252 20.988 .252 17.406 6.03 13.806 .252"/><polygon points="24.876 .252 24.876 13.104 26.982 13.104 26.982 3.708 27.054 3.708 33.48 13.104 35.532 13.104 35.532 .252 33.408 .252 33.408 9.522 33.336 9.522 26.982 .252"/><path d="M47.196 3.546C46.152 3.546 45.288 3.78 44.64 4.248 43.938 4.716 43.596 5.328 43.596 6.12 43.596 6.912 43.938 7.506 44.658 7.938 45.09 8.226 45.864 8.496 46.962 8.766 47.97 9.018 48.636 9.216 48.942 9.36 49.518 9.648 49.824 10.044 49.824 10.566 49.824 11.61 48.978 12.15 47.322 12.15 46.53 12.15 45.936 12.006 45.54 11.718 45.144 11.394 44.874 10.872 44.766 10.134L43.362 10.134C43.578 12.276 44.91 13.356 47.358 13.356 49.986 13.356 51.3 12.384 51.3 10.476 51.3 9.666 50.922 9.036 50.184 8.568 49.698 8.262 48.906 7.974 47.79 7.704 46.854 7.452 46.206 7.254 45.864 7.092 45.324 6.822 45.072 6.48 45.072 6.084 45.072 5.67 45.27 5.346 45.666 5.112 46.026 4.86 46.53 4.752 47.178 4.752 47.916 4.752 48.492 4.896 48.888 5.184 49.248 5.436 49.482 5.868 49.608 6.444L51.012 6.444C50.76 4.5 49.5 3.546 47.196 3.546ZM56.826 3.546C55.476 3.546 54.414 4.032 53.622 5.004 52.83 5.922 52.452 7.074 52.452 8.442 52.452 9.954 52.848 11.142 53.676 12.042 54.468 12.906 55.548 13.356 56.88 13.356 58.086 13.356 59.076 12.996 59.85 12.312 60.48 11.736 60.894 11.016 61.11 10.116L59.67 10.116C59.436 10.764 59.13 11.25 58.734 11.574 58.266 11.952 57.636 12.15 56.88 12.15 55.998 12.15 55.296 11.862 54.792 11.286 54.288 10.71 54.018 9.9 53.946 8.856L61.29 8.856C61.254 7.236 60.894 5.958 60.21 5.058 59.454 4.05 58.32 3.546 56.826 3.546ZM56.862 4.752C58.626 4.752 59.616 5.742 59.796 7.74L53.982 7.74C54.072 6.822 54.36 6.102 54.864 5.562 55.368 5.022 56.034 4.752 56.862 4.752ZM66.852 3.546C65.484 3.546 64.422 4.032 63.666 5.04 62.964 5.94 62.622 7.074 62.622 8.478 62.622 9.846 62.964 10.98 63.648 11.88 64.404 12.852 65.448 13.356 66.78 13.356 68.112 13.356 69.138 12.708 69.858 11.412L69.858 16.668 71.298 16.668 71.298 3.798 69.948 3.798 69.948 5.328C69.264 4.14 68.238 3.546 66.852 3.546ZM67.032 4.734C67.968 4.734 68.688 5.094 69.21 5.832 69.66 6.48 69.894 7.344 69.894 8.388L69.894 8.568C69.894 9.648 69.624 10.512 69.12 11.178 68.598 11.826 67.914 12.168 67.086 12.168 66.078 12.168 65.304 11.808 64.8 11.124 64.332 10.476 64.098 9.594 64.098 8.478 64.098 7.38 64.314 6.498 64.764 5.85 65.268 5.094 66.024 4.734 67.032 4.734ZM73.314 5.994 73.314 7.2 82.404 7.2 82.404 5.994 73.314 5.994ZM73.314 9.684 73.314 10.908 82.404 10.908 82.404 9.684 73.314 9.684Z"/><polygon points="83.79 3.798 87.084 8.172 83.394 13.104 85.104 13.104 87.894 9.234 90.666 13.104 92.376 13.104 88.686 8.172 91.98 3.798 90.288 3.798 87.894 7.11 85.482 3.798"/></g><g fill="#2C2C2E" fill-rule="nonzero" transform="rotate(14 -664.16 334.424)"><path d="M4.914.252 0 13.104 2.25 13.104 3.42 9.882 8.802 9.882 9.972 13.104 12.222 13.104 7.308.252 4.914.252ZM4.05 8.154 6.084 2.52 6.156 2.52 8.172 8.154 4.05 8.154ZM19.062 0C17.01 0 15.444.666 14.364 2.034 13.41 3.222 12.942 4.788 12.942 6.696 12.942 8.64 13.392 10.188 14.31 11.34 15.354 12.672 16.956 13.356 19.098 13.356 20.484 13.356 21.672 12.96 22.662 12.168 23.724 11.322 24.39 10.152 24.678 8.64L22.626 8.64C22.374 9.612 21.942 10.35 21.33 10.836 20.754 11.268 19.998 11.502 19.08 11.502 17.676 11.502 16.632 11.052 15.966 10.188 15.354 9.378 15.048 8.208 15.048 6.696 15.048 5.22 15.354 4.068 15.984 3.24 16.668 2.304 17.676 1.854 19.026 1.854 19.926 1.854 20.664 2.034 21.24 2.43 21.834 2.826 22.23 3.438 22.446 4.284L24.498 4.284C24.3 2.988 23.742 1.944 22.806 1.188 21.834.396 20.574 0 19.062 0Z"/><polygon points="34.74 .252 28.764 6.318 28.764 .252 26.658 .252 26.658 13.104 28.764 13.104 28.764 8.676 30.33 7.146 35.406 13.104 38.25 13.104 31.752 5.76 37.404 .252"/><path d="M49.41 3.546C48.294 3.546 47.412 3.762 46.728 4.194 45.972 4.662 45.486 5.4 45.288 6.372L46.71 6.48C46.854 5.886 47.16 5.436 47.646 5.148 48.078 4.86 48.636 4.734 49.32 4.734 50.94 4.734 51.75 5.508 51.75 7.074L51.75 7.56 49.518 7.596C48.114 7.614 47.034 7.884 46.278 8.388 45.414 8.928 45 9.72 45 10.782 45 11.538 45.288 12.168 45.864 12.654 46.422 13.122 47.16 13.356 48.096 13.356 48.96 13.356 49.734 13.158 50.418 12.78 50.994 12.456 51.48 12.042 51.84 11.538L51.84 13.104 53.19 13.104 53.19 7.128C53.19 6.048 52.902 5.202 52.362 4.59 51.714 3.888 50.742 3.546 49.41 3.546ZM51.75 8.64 51.75 9.432C51.75 10.152 51.408 10.8 50.742 11.358 50.058 11.934 49.284 12.222 48.402 12.222 47.826 12.222 47.358 12.078 46.998 11.808 46.638 11.52 46.476 11.178 46.476 10.746 46.476 9.396 47.52 8.712 49.608 8.676L51.75 8.64ZM59.436 3.546C58.05 3.546 56.952 4.032 56.16 5.022 55.422 5.922 55.062 7.074 55.062 8.496 55.062 9.918 55.422 11.07 56.16 11.952 56.934 12.888 58.014 13.356 59.418 13.356 60.57 13.356 61.488 13.05 62.19 12.456 62.91 11.844 63.36 10.926 63.576 9.738L62.136 9.738C61.92 11.34 61.002 12.15 59.418 12.15 58.482 12.15 57.762 11.808 57.276 11.16 56.772 10.512 56.538 9.612 56.538 8.478 56.538 7.344 56.79 6.444 57.294 5.778 57.816 5.094 58.536 4.752 59.436 4.752 60.174 4.752 60.768 4.914 61.236 5.274 61.686 5.634 61.974 6.174 62.1 6.894L63.522 6.894C63.36 5.76 62.928 4.914 62.208 4.356 61.506 3.816 60.588 3.546 59.436 3.546Z"/><polygon points="65.268 0 65.268 13.104 66.708 13.104 66.708 9.81 68.184 8.478 71.82 13.104 73.674 13.104 69.174 7.542 73.278 3.798 71.37 3.798 66.708 8.118 66.708 0"/><path d="M74.574,5.994 L74.574,7.2 L83.664,7.2 L83.664,5.994 L74.574,5.994 Z M74.574,9.684 L74.574,10.908 L83.664,10.908 L83.664,9.684 L74.574,9.684 Z"/><polygon points="84.654 3.798 88.344 12.888 86.742 16.668 88.308 16.668 93.402 3.798 91.818 3.798 89.064 11.142 86.22 3.798"/><polygon points="98.334 3.906 98.334 7.83 94.392 7.83 94.392 9.054 98.334 9.054 98.334 12.996 99.558 12.996 99.558 9.054 103.482 9.054 103.482 7.83 99.558 7.83 99.558 3.906"/><path d="M108.522.252C108.09.738 107.586 1.17 106.974 1.566 106.362 1.926 105.75 2.178 105.174 2.34L105.174 3.816C106.38 3.456 107.388 2.88 108.198 2.052L108.198 13.104 109.674 13.104 109.674.252 108.522.252ZM122.004 3.546C120.96 3.546 120.096 3.78 119.448 4.248 118.746 4.716 118.404 5.328 118.404 6.12 118.404 6.912 118.746 7.506 119.466 7.938 119.898 8.226 120.672 8.496 121.77 8.766 122.778 9.018 123.444 9.216 123.75 9.36 124.326 9.648 124.632 10.044 124.632 10.566 124.632 11.61 123.786 12.15 122.13 12.15 121.338 12.15 120.744 12.006 120.348 11.718 119.952 11.394 119.682 10.872 119.574 10.134L118.17 10.134C118.386 12.276 119.718 13.356 122.166 13.356 124.794 13.356 126.108 12.384 126.108 10.476 126.108 9.666 125.73 9.036 124.992 8.568 124.506 8.262 123.714 7.974 122.598 7.704 121.662 7.452 121.014 7.254 120.672 7.092 120.132 6.822 119.88 6.48 119.88 6.084 119.88 5.67 120.078 5.346 120.474 5.112 120.834 4.86 121.338 4.752 121.986 4.752 122.724 4.752 123.3 4.896 123.696 5.184 124.056 5.436 124.29 5.868 124.416 6.444L125.82 6.444C125.568 4.5 124.308 3.546 122.004 3.546ZM131.634 3.546C130.284 3.546 129.222 4.032 128.43 5.004 127.638 5.922 127.26 7.074 127.26 8.442 127.26 9.954 127.656 11.142 128.484 12.042 129.276 12.906 130.356 13.356 131.688 13.356 132.894 13.356 133.884 12.996 134.658 12.312 135.288 11.736 135.702 11.016 135.918 10.116L134.478 10.116C134.244 10.764 133.938 11.25 133.542 11.574 133.074 11.952 132.444 12.15 131.688 12.15 130.806 12.15 130.104 11.862 129.6 11.286 129.096 10.71 128.826 9.9 128.754 8.856L136.098 8.856C136.062 7.236 135.702 5.958 135.018 5.058 134.262 4.05 133.128 3.546 131.634 3.546ZM131.67 4.752C133.434 4.752 134.424 5.742 134.604 7.74L128.79 7.74C128.88 6.822 129.168 6.102 129.672 5.562 130.176 5.022 130.842 4.752 131.67 4.752ZM141.66 3.546C140.292 3.546 139.23 4.032 138.474 5.04 137.772 5.94 137.43 7.074 137.43 8.478 137.43 9.846 137.772 10.98 138.456 11.88 139.212 12.852 140.256 13.356 141.588 13.356 142.92 13.356 143.946 12.708 144.666 11.412L144.666 16.668 146.106 16.668 146.106 3.798 144.756 3.798 144.756 5.328C144.072 4.14 143.046 3.546 141.66 3.546ZM141.84 4.734C142.776 4.734 143.496 5.094 144.018 5.832 144.468 6.48 144.702 7.344 144.702 8.388L144.702 8.568C144.702 9.648 144.432 10.512 143.928 11.178 143.406 11.826 142.722 12.168 141.894 12.168 140.886 12.168 140.112 11.808 139.608 11.124 139.14 10.476 138.906 9.594 138.906 8.478 138.906 7.38 139.122 6.498 139.572 5.85 140.076 5.094 140.832 4.734 141.84 4.734ZM148.122 5.994 148.122 7.2 157.212 7.2 157.212 5.994 148.122 5.994ZM148.122 9.684 148.122 10.908 157.212 10.908 157.212 9.684 148.122 9.684Z"/><polygon points="158.598 3.798 161.892 8.172 158.202 13.104 159.912 13.104 162.702 9.234 165.474 13.104 167.184 13.104 163.494 8.172 166.788 3.798 165.096 3.798 162.702 7.11 160.29 3.798"/><polygon points="172.116 3.906 172.116 7.83 168.174 7.83 168.174 9.054 172.116 9.054 172.116 12.996 173.34 12.996 173.34 9.054 177.264 9.054 177.264 7.83 173.34 7.83 173.34 3.906"/><path d="M182.304,0.252 C181.872,0.738 181.368,1.17 180.756,1.566 C180.144,1.926 179.532,2.178 178.956,2.34 L178.956,3.816 C180.162,3.456 181.17,2.88 181.98,2.052 L181.98,13.104 L183.456,13.104 L183.456,0.252 L182.304,0.252 Z"/></g><g fill="#2C2C2E" fill-rule="nonzero" transform="rotate(14 -813.548 631.124)"><polygon points="0 0 0 16.812 4.41 16.812 4.41 15.606 1.332 15.606 1.332 1.206 4.41 1.206 4.41 0"/><path d="M13.194 1.782 13.194 7.29C12.474 5.976 11.448 5.328 10.116 5.328 8.784 5.328 7.758 5.814 7.002 6.822 6.3 7.722 5.958 8.838 5.958 10.206 5.958 11.61 6.3 12.762 7.002 13.662 7.758 14.634 8.82 15.138 10.188 15.138 11.592 15.138 12.636 14.544 13.284 13.356L13.284 14.886 14.634 14.886 14.634 1.782 13.194 1.782ZM10.422 6.516C11.25 6.516 11.934 6.84 12.456 7.524 12.96 8.19 13.23 9.072 13.23 10.152L13.23 10.332C13.23 11.376 12.996 12.222 12.546 12.87 12.024 13.59 11.304 13.95 10.368 13.95 9.36 13.95 8.604 13.572 8.1 12.852 7.65 12.204 7.434 11.322 7.434 10.206 7.434 9.09 7.65 8.226 8.118 7.596 8.622 6.876 9.396 6.516 10.422 6.516ZM20.916 5.328C19.8 5.328 18.918 5.544 18.234 5.976 17.478 6.444 16.992 7.182 16.794 8.154L18.216 8.262C18.36 7.668 18.666 7.218 19.152 6.93 19.584 6.642 20.142 6.516 20.826 6.516 22.446 6.516 23.256 7.29 23.256 8.856L23.256 9.342 21.024 9.378C19.62 9.396 18.54 9.666 17.784 10.17 16.92 10.71 16.506 11.502 16.506 12.564 16.506 13.32 16.794 13.95 17.37 14.436 17.928 14.904 18.666 15.138 19.602 15.138 20.466 15.138 21.24 14.94 21.924 14.562 22.5 14.238 22.986 13.824 23.346 13.32L23.346 14.886 24.696 14.886 24.696 8.91C24.696 7.83 24.408 6.984 23.868 6.372 23.22 5.67 22.248 5.328 20.916 5.328ZM23.256 10.422 23.256 11.214C23.256 11.934 22.914 12.582 22.248 13.14 21.564 13.716 20.79 14.004 19.908 14.004 19.332 14.004 18.864 13.86 18.504 13.59 18.144 13.302 17.982 12.96 17.982 12.528 17.982 11.178 19.026 10.494 21.114 10.458L23.256 10.422ZM29.412 2.574 27.99 3.168 27.99 5.58 26.118 5.58 26.118 6.786 27.99 6.786 27.99 12.708C27.99 13.41 28.134 13.932 28.44 14.292 28.764 14.688 29.322 14.886 30.078 14.886L31.482 14.886 31.482 13.68 30.294 13.68C29.97 13.68 29.736 13.59 29.61 13.446 29.466 13.302 29.412 13.05 29.412 12.708L29.412 6.786 31.716 6.786 31.716 5.58 29.412 5.58 29.412 2.574ZM37.368 5.328C36.252 5.328 35.37 5.544 34.686 5.976 33.93 6.444 33.444 7.182 33.246 8.154L34.668 8.262C34.812 7.668 35.118 7.218 35.604 6.93 36.036 6.642 36.594 6.516 37.278 6.516 38.898 6.516 39.708 7.29 39.708 8.856L39.708 9.342 37.476 9.378C36.072 9.396 34.992 9.666 34.236 10.17 33.372 10.71 32.958 11.502 32.958 12.564 32.958 13.32 33.246 13.95 33.822 14.436 34.38 14.904 35.118 15.138 36.054 15.138 36.918 15.138 37.692 14.94 38.376 14.562 38.952 14.238 39.438 13.824 39.798 13.32L39.798 14.886 41.148 14.886 41.148 8.91C41.148 7.83 40.86 6.984 40.32 6.372 39.672 5.67 38.7 5.328 37.368 5.328ZM39.708 10.422 39.708 11.214C39.708 11.934 39.366 12.582 38.7 13.14 38.016 13.716 37.242 14.004 36.36 14.004 35.784 14.004 35.316 13.86 34.956 13.59 34.596 13.302 34.434 12.96 34.434 12.528 34.434 11.178 35.478 10.494 37.566 10.458L39.708 10.422Z"/><polygon points="43.056 0 43.056 1.206 46.134 1.206 46.134 15.606 43.056 15.606 43.056 16.812 47.466 16.812 47.466 0"/></g><g fill="#2C2C2E" fill-rule="nonzero" transform="rotate(-14 609.197 -114.777)"><path d="M5.256,0 C3.87,0 2.736,0.306 1.836,0.936 C0.864,1.584 0.396,2.484 0.396,3.618 C0.396,4.752 0.882,5.616 1.872,6.21 C2.25,6.426 3.24,6.786 4.824,7.29 C6.246,7.722 7.074,8.01 7.326,8.136 C8.118,8.532 8.532,9.072 8.532,9.756 C8.532,10.296 8.244,10.71 7.704,11.034 C7.164,11.34 6.408,11.502 5.472,11.502 C4.41,11.502 3.636,11.304 3.132,10.944 C2.574,10.53 2.232,9.828 2.088,8.856 L7.10542736e-15,8.856 C0.09,10.494 0.684,11.682 1.764,12.438 C2.646,13.05 3.888,13.356 5.472,13.356 C7.11,13.356 8.388,13.014 9.288,12.366 C10.188,11.7 10.638,10.782 10.638,9.63 C10.638,8.442 10.08,7.524 8.964,6.858 C8.46,6.57 7.344,6.138 5.598,5.598 C4.41,5.22 3.672,4.95 3.402,4.806 C2.79,4.482 2.502,4.032 2.502,3.492 C2.502,2.88 2.754,2.43 3.294,2.16 C3.726,1.926 4.338,1.818 5.148,1.818 C6.084,1.818 6.804,1.98 7.272,2.34 C7.74,2.682 8.082,3.258 8.262,4.05 L10.35,4.05 C10.224,2.646 9.702,1.602 8.802,0.936 C7.956,0.306 6.768,0 5.256,0 Z"/><polygon points="11.268 .252 16.344 7.992 16.344 13.104 18.45 13.104 18.45 7.992 23.526 .252 20.988 .252 17.406 6.03 13.806 .252"/><polygon points="24.876 .252 24.876 13.104 26.982 13.104 26.982 3.708 27.054 3.708 33.48 13.104 35.532 13.104 35.532 .252 33.408 .252 33.408 9.522 33.336 9.522 26.982 .252"/><polygon points="37.692 7.596 37.692 9.288 46.782 9.288 46.782 7.596"/><path d="M52.596.252 47.682 13.104 49.932 13.104 51.102 9.882 56.484 9.882 57.654 13.104 59.904 13.104 54.99.252 52.596.252ZM51.732 8.154 53.766 2.52 53.838 2.52 55.854 8.154 51.732 8.154ZM66.744 2.84217094e-14C64.692 2.84217094e-14 63.126.666 62.046 2.034 61.092 3.222 60.624 4.788 60.624 6.696 60.624 8.64 61.074 10.188 61.992 11.34 63.036 12.672 64.638 13.356 66.78 13.356 68.166 13.356 69.354 12.96 70.344 12.168 71.406 11.322 72.072 10.152 72.36 8.64L70.308 8.64C70.056 9.612 69.624 10.35 69.012 10.836 68.436 11.268 67.68 11.502 66.762 11.502 65.358 11.502 64.314 11.052 63.648 10.188 63.036 9.378 62.73 8.208 62.73 6.696 62.73 5.22 63.036 4.068 63.666 3.24 64.35 2.304 65.358 1.854 66.708 1.854 67.608 1.854 68.346 2.034 68.922 2.43 69.516 2.826 69.912 3.438 70.128 4.284L72.18 4.284C71.982 2.988 71.424 1.944 70.488 1.188 69.516.396 68.256 2.84217094e-14 66.744 2.84217094e-14Z"/><polygon points="82.422 .252 76.446 6.318 76.446 .252 74.34 .252 74.34 13.104 76.446 13.104 76.446 8.676 78.012 7.146 83.088 13.104 85.932 13.104 79.434 5.76 85.086 .252"/><path d="M97.092 3.546C95.976 3.546 95.094 3.762 94.41 4.194 93.654 4.662 93.168 5.4 92.97 6.372L94.392 6.48C94.536 5.886 94.842 5.436 95.328 5.148 95.76 4.86 96.318 4.734 97.002 4.734 98.622 4.734 99.432 5.508 99.432 7.074L99.432 7.56 97.2 7.596C95.796 7.614 94.716 7.884 93.96 8.388 93.096 8.928 92.682 9.72 92.682 10.782 92.682 11.538 92.97 12.168 93.546 12.654 94.104 13.122 94.842 13.356 95.778 13.356 96.642 13.356 97.416 13.158 98.1 12.78 98.676 12.456 99.162 12.042 99.522 11.538L99.522 13.104 100.872 13.104 100.872 7.128C100.872 6.048 100.584 5.202 100.044 4.59 99.396 3.888 98.424 3.546 97.092 3.546ZM99.432 8.64 99.432 9.432C99.432 10.152 99.09 10.8 98.424 11.358 97.74 11.934 96.966 12.222 96.084 12.222 95.508 12.222 95.04 12.078 94.68 11.808 94.32 11.52 94.158 11.178 94.158 10.746 94.158 9.396 95.202 8.712 97.29 8.676L99.432 8.64ZM107.118 3.546C105.732 3.546 104.634 4.032 103.842 5.022 103.104 5.922 102.744 7.074 102.744 8.496 102.744 9.918 103.104 11.07 103.842 11.952 104.616 12.888 105.696 13.356 107.1 13.356 108.252 13.356 109.17 13.05 109.872 12.456 110.592 11.844 111.042 10.926 111.258 9.738L109.818 9.738C109.602 11.34 108.684 12.15 107.1 12.15 106.164 12.15 105.444 11.808 104.958 11.16 104.454 10.512 104.22 9.612 104.22 8.478 104.22 7.344 104.472 6.444 104.976 5.778 105.498 5.094 106.218 4.752 107.118 4.752 107.856 4.752 108.45 4.914 108.918 5.274 109.368 5.634 109.656 6.174 109.782 6.894L111.204 6.894C111.042 5.76 110.61 4.914 109.89 4.356 109.188 3.816 108.27 3.546 107.118 3.546Z"/><polygon points="112.95 0 112.95 13.104 114.39 13.104 114.39 9.81 115.866 8.478 119.502 13.104 121.356 13.104 116.856 7.542 120.96 3.798 119.052 3.798 114.39 8.118 114.39 0"/><path d="M122.256,5.994 L122.256,7.2 L131.346,7.2 L131.346,5.994 L122.256,5.994 Z M122.256,9.684 L122.256,10.908 L131.346,10.908 L131.346,9.684 L122.256,9.684 Z"/><polygon points="132.732 3.798 136.026 8.172 132.336 13.104 134.046 13.104 136.836 9.234 139.608 13.104 141.318 13.104 137.628 8.172 140.922 3.798 139.23 3.798 136.836 7.11 134.424 3.798"/><polygon points="146.25 3.906 146.25 7.83 142.308 7.83 142.308 9.054 146.25 9.054 146.25 12.996 147.474 12.996 147.474 9.054 151.398 9.054 151.398 7.83 147.474 7.83 147.474 3.906"/><path d="M156.438.252C156.006.738 155.502 1.17 154.89 1.566 154.278 1.926 153.666 2.178 153.09 2.34L153.09 3.816C154.296 3.456 155.304 2.88 156.114 2.052L156.114 13.104 157.59 13.104 157.59.252 156.438.252ZM169.92 3.546C168.876 3.546 168.012 3.78 167.364 4.248 166.662 4.716 166.32 5.328 166.32 6.12 166.32 6.912 166.662 7.506 167.382 7.938 167.814 8.226 168.588 8.496 169.686 8.766 170.694 9.018 171.36 9.216 171.666 9.36 172.242 9.648 172.548 10.044 172.548 10.566 172.548 11.61 171.702 12.15 170.046 12.15 169.254 12.15 168.66 12.006 168.264 11.718 167.868 11.394 167.598 10.872 167.49 10.134L166.086 10.134C166.302 12.276 167.634 13.356 170.082 13.356 172.71 13.356 174.024 12.384 174.024 10.476 174.024 9.666 173.646 9.036 172.908 8.568 172.422 8.262 171.63 7.974 170.514 7.704 169.578 7.452 168.93 7.254 168.588 7.092 168.048 6.822 167.796 6.48 167.796 6.084 167.796 5.67 167.994 5.346 168.39 5.112 168.75 4.86 169.254 4.752 169.902 4.752 170.64 4.752 171.216 4.896 171.612 5.184 171.972 5.436 172.206 5.868 172.332 6.444L173.736 6.444C173.484 4.5 172.224 3.546 169.92 3.546ZM179.55 3.546C178.2 3.546 177.138 4.032 176.346 5.004 175.554 5.922 175.176 7.074 175.176 8.442 175.176 9.954 175.572 11.142 176.4 12.042 177.192 12.906 178.272 13.356 179.604 13.356 180.81 13.356 181.8 12.996 182.574 12.312 183.204 11.736 183.618 11.016 183.834 10.116L182.394 10.116C182.16 10.764 181.854 11.25 181.458 11.574 180.99 11.952 180.36 12.15 179.604 12.15 178.722 12.15 178.02 11.862 177.516 11.286 177.012 10.71 176.742 9.9 176.67 8.856L184.014 8.856C183.978 7.236 183.618 5.958 182.934 5.058 182.178 4.05 181.044 3.546 179.55 3.546ZM179.586 4.752C181.35 4.752 182.34 5.742 182.52 7.74L176.706 7.74C176.796 6.822 177.084 6.102 177.588 5.562 178.092 5.022 178.758 4.752 179.586 4.752ZM189.576 3.546C188.208 3.546 187.146 4.032 186.39 5.04 185.688 5.94 185.346 7.074 185.346 8.478 185.346 9.846 185.688 10.98 186.372 11.88 187.128 12.852 188.172 13.356 189.504 13.356 190.836 13.356 191.862 12.708 192.582 11.412L192.582 16.668 194.022 16.668 194.022 3.798 192.672 3.798 192.672 5.328C191.988 4.14 190.962 3.546 189.576 3.546ZM189.756 4.734C190.692 4.734 191.412 5.094 191.934 5.832 192.384 6.48 192.618 7.344 192.618 8.388L192.618 8.568C192.618 9.648 192.348 10.512 191.844 11.178 191.322 11.826 190.638 12.168 189.81 12.168 188.802 12.168 188.028 11.808 187.524 11.124 187.056 10.476 186.822 9.594 186.822 8.478 186.822 7.38 187.038 6.498 187.488 5.85 187.992 5.094 188.748 4.734 189.756 4.734ZM196.038 5.994 196.038 7.2 205.128 7.2 205.128 5.994 196.038 5.994ZM196.038 9.684 196.038 10.908 205.128 10.908 205.128 9.684 196.038 9.684Z"/><polygon points="206.118 3.798 209.808 12.888 208.206 16.668 209.772 16.668 214.866 3.798 213.282 3.798 210.528 11.142 207.684 3.798"/></g></g><g fill="#2C2C2E" fill-rule="nonzero" transform="translate(26.314 12.59)"><path d="M39.9199219,12.6210938 L39.9199219,9.96679688 L1.58203125,9.96679688 L1.58203125,12.6210938 L39.9199219,12.6210938 Z M39.9199219,22.3945312 L39.9199219,19.7402344 L1.58203125,19.7402344 L1.58203125,22.3945312 L39.9199219,22.3945312 Z M5.51953125,32.3613281 L35.9296875,32.3613281 C37.78125,32.3613281 39.1640625,31.9072266 40.078125,30.9990234 C40.9921875,30.0908203 41.4492188,28.7285156 41.4492188,26.9121094 L41.4492188,5.44921875 C41.4492188,3.6328125 40.9921875,2.27050781 40.078125,1.36230469 C39.1640625,0.454101562 37.78125,0 35.9296875,0 L5.51953125,0 C3.6796875,0 2.29980469,0.454101562 1.37988281,1.36230469 C0.459960938,2.27050781 0,3.6328125 0,5.44921875 L0,26.9121094 C0,28.7285156 0.459960938,30.0908203 1.37988281,30.9990234 C2.29980469,31.9072266 3.6796875,32.3613281 5.51953125,32.3613281 Z M5.5546875,29.53125 C4.67578125,29.53125 4.00195312,29.2998047 3.53320312,28.8369141 C3.06445312,28.3740234 2.83007812,27.6855469 2.83007812,26.7714844 L2.83007812,5.58984375 C2.83007812,4.67578125 3.06445312,3.98730469 3.53320312,3.52441406 C4.00195312,3.06152344 4.67578125,2.83007812 5.5546875,2.83007812 L35.8945312,2.83007812 C36.7617188,2.83007812 37.4326172,3.06152344 37.9072266,3.52441406 C38.3818359,3.98730469 38.6191406,4.67578125 38.6191406,5.58984375 L38.6191406,26.7714844 C38.6191406,27.6855469 38.3818359,28.3740234 37.9072266,28.8369141 C37.4326172,29.2998047 36.7617188,29.53125 35.8945312,29.53125 L5.5546875,29.53125 Z M32.4492188,8.6484375 C33.046875,8.63671875 33.5654297,8.41113281 34.0048828,7.97167969 C34.4443359,7.53222656 34.6640625,7.0078125 34.6640625,6.3984375 C34.6640625,5.7890625 34.4443359,5.25878906 34.0048828,4.80761719 C33.5654297,4.35644531 33.046875,4.13085938 32.4492188,4.13085938 C31.8398438,4.13085938 31.3125,4.35644531 30.8671875,4.80761719 C30.421875,5.25878906 30.1992188,5.7890625 30.1992188,6.3984375 C30.1992188,7.0078125 30.421875,7.53808594 30.8671875,7.98925781 C31.3125,8.44042969 31.8398438,8.66015625 32.4492188,8.6484375 Z M32.4492188,18.3867188 C33.046875,18.375 33.5654297,18.1494141 34.0048828,17.7099609 C34.4443359,17.2705078 34.6640625,16.7460938 34.6640625,16.1367188 C34.6640625,15.5273438 34.4443359,14.9970703 34.0048828,14.5458984 C33.5654297,14.0947266 33.046875,13.8691406 32.4492188,13.8691406 C31.8398438,13.8691406 31.3125,14.0947266 30.8671875,14.5458984 C30.421875,14.9970703 30.1992188,15.5273438 30.1992188,16.1367188 C30.1992188,16.7460938 30.421875,17.2763672 30.8671875,17.7275391 C31.3125,18.1787109 31.8398438,18.3984375 32.4492188,18.3867188 Z M32.4492188,28.125 C33.046875,28.1132812 33.5654297,27.8876953 34.0048828,27.4482422 C34.4443359,27.0087891 34.6640625,26.484375 34.6640625,25.875 C34.6640625,25.265625 34.4443359,24.7353516 34.0048828,24.2841797 C33.5654297,23.8330078 33.046875,23.6074219 32.4492188,23.6074219 C31.8398438,23.6074219 31.3125,23.8330078 30.8671875,24.2841797 C30.421875,24.7353516 30.1992188,25.265625 30.1992188,25.875 C30.1992188,26.484375 30.421875,27.0146484 30.8671875,27.4658203 C31.3125,27.9169922 31.8398438,28.1367188 32.4492188,28.125 Z" transform="translate(303.277 1.564)"/><path d="M0,24.6621094 C0,26.1972656 0.377929688,27.3339844 1.13378906,28.0722656 C1.88964844,28.8105469 3.01757812,29.1796875 4.51757812,29.1796875 L37.3886719,29.1796875 C38.8886719,29.1796875 40.0166016,28.8105469 40.7724609,28.0722656 C41.5283203,27.3339844 41.90625,26.1972656 41.90625,24.6621094 L41.90625,4.51757812 C41.90625,2.98242188 41.5283203,1.84570312 40.7724609,1.10742188 C40.0166016,0.369140625 38.8886719,0 37.3886719,0 L4.51757812,0 C3.01757812,0 1.88964844,0.369140625 1.13378906,1.10742188 C0.377929688,1.84570312 0,2.98242188 0,4.51757812 L0,24.6621094 Z M2.83007812,24.6269531 L2.83007812,4.5703125 C2.83007812,3.94921875 2.96777344,3.50390625 3.24316406,3.234375 C3.51855469,2.96484375 3.9609375,2.83007812 4.5703125,2.83007812 L37.3359375,2.83007812 C37.9335938,2.83007812 38.3730469,2.96484375 38.6542969,3.234375 C38.9355469,3.50390625 39.0761719,3.94921875 39.0761719,4.5703125 L39.0761719,24.6269531 C39.0761719,25.2363281 38.9355469,25.6757812 38.6542969,25.9453125 C38.3730469,26.2148438 37.9335938,26.3496094 37.3359375,26.3496094 L4.5703125,26.3496094 C3.9609375,26.3496094 3.51855469,26.2148438 3.24316406,25.9453125 C2.96777344,25.6757812 2.83007812,25.2363281 2.83007812,24.6269531 Z M14.90625,33.3632812 L27,33.3632812 L26.3496094,28.9511719 L15.5566406,28.9511719 L14.90625,33.3632812 Z M13.0253906,35.4199219 L29.0390625,35.4199219 C29.4375,35.4199219 29.7744141,35.2822266 30.0498047,35.0068359 C30.3251953,34.7314453 30.4628906,34.4003906 30.4628906,34.0136719 C30.4628906,33.6152344 30.3251953,33.2753906 30.0498047,32.9941406 C29.7744141,32.7128906 29.4375,32.5722656 29.0390625,32.5722656 L13.0253906,32.5722656 C12.6386719,32.5722656 12.3076172,32.7128906 12.0322266,32.9941406 C11.7568359,33.2753906 11.6191406,33.6152344 11.6191406,34.0136719 C11.6191406,34.4003906 11.7568359,34.7314453 12.0322266,35.0068359 C12.3076172,35.2822266 12.6386719,35.4199219 13.0253906,35.4199219 Z" transform="translate(2.548)"/><g transform="translate(0 46.306)"><path d="M6.084,0 C4.104,0 2.556,0.666 1.476,2.034 C0.486,3.258 0,4.824 0,6.732 C0,8.64 0.468,10.188 1.44,11.376 C2.502,12.69 4.032,13.356 6.03,13.356 C7.398,13.356 8.586,12.96 9.576,12.186 C10.638,11.358 11.304,10.188 11.592,8.694 L10.17,8.694 C9.918,9.81 9.396,10.656 8.64,11.232 C7.92,11.772 7.056,12.042 6.03,12.042 C4.518,12.042 3.384,11.538 2.592,10.548 C1.836,9.612 1.476,8.334 1.476,6.732 C1.476,5.13 1.854,3.852 2.61,2.88 C3.42,1.836 4.572,1.314 6.066,1.314 C7.074,1.314 7.92,1.548 8.622,2.034 C9.342,2.538 9.81,3.258 9.99,4.194 L11.412,4.194 C11.232,2.916 10.656,1.89 9.684,1.134 C8.712,0.378 7.506,0 6.084,0 Z"/><polygon points="13.752 0 13.752 13.104 15.174 13.104 15.174 0"/><path d="M18.882.288C18.576.288 18.324.378 18.108.594 17.892.774 17.802 1.026 17.802 1.35 17.802 1.656 17.892 1.908 18.108 2.124 18.324 2.322 18.576 2.43 18.882 2.43 19.188 2.43 19.44 2.322 19.656 2.124 19.872 1.908 19.98 1.656 19.98 1.35 19.98 1.026 19.872.774 19.656.594 19.44.378 19.188.288 18.882.288ZM18.162 3.798 18.162 13.104 19.602 13.104 19.602 3.798 18.162 3.798ZM26.136 3.546C24.786 3.546 23.724 4.032 22.932 5.004 22.14 5.922 21.762 7.074 21.762 8.442 21.762 9.954 22.158 11.142 22.986 12.042 23.778 12.906 24.858 13.356 26.19 13.356 27.396 13.356 28.386 12.996 29.16 12.312 29.79 11.736 30.204 11.016 30.42 10.116L28.98 10.116C28.746 10.764 28.44 11.25 28.044 11.574 27.576 11.952 26.946 12.15 26.19 12.15 25.308 12.15 24.606 11.862 24.102 11.286 23.598 10.71 23.328 9.9 23.256 8.856L30.6 8.856C30.564 7.236 30.204 5.958 29.52 5.058 28.764 4.05 27.63 3.546 26.136 3.546ZM26.172 4.752C27.936 4.752 28.926 5.742 29.106 7.74L23.292 7.74C23.382 6.822 23.67 6.102 24.174 5.562 24.678 5.022 25.344 4.752 26.172 4.752ZM36.648 3.546C36.036 3.546 35.478 3.69 34.974 3.978 34.47 4.248 34.056 4.644 33.732 5.166L33.732 3.798 32.292 3.798 32.292 13.104 33.732 13.104 33.732 7.488C33.786 6.642 34.056 5.976 34.56 5.472 35.028 5.004 35.586 4.77 36.234 4.77 37.854 4.77 38.682 5.67 38.682 7.488L38.682 13.104 40.122 13.104 40.122 7.38C40.122 4.824 38.952 3.546 36.648 3.546ZM44.838.792 43.416 1.386 43.416 3.798 41.544 3.798 41.544 5.004 43.416 5.004 43.416 10.926C43.416 11.628 43.56 12.15 43.866 12.51 44.19 12.906 44.748 13.104 45.504 13.104L46.908 13.104 46.908 11.898 45.72 11.898C45.396 11.898 45.162 11.808 45.036 11.664 44.892 11.52 44.838 11.268 44.838 10.926L44.838 5.004 47.142 5.004 47.142 3.798 44.838 3.798 44.838.792Z"/></g><g transform="translate(296.926 46.306)"><path d="M5.04 0C3.708 0 2.61.288 1.764.864.81 1.476.342 2.358.342 3.474.342 4.554.828 5.382 1.818 5.958 2.232 6.174 3.222 6.534 4.77 7.002 6.21 7.416 7.128 7.722 7.488 7.938 8.334 8.388 8.766 9.018 8.766 9.828 8.766 10.512 8.442 11.052 7.794 11.448 7.146 11.844 6.282 12.042 5.238 12.042 4.086 12.042 3.222 11.79 2.628 11.322 1.98 10.8 1.584 9.972 1.458 8.856L0 8.856C.108 10.44.666 11.61 1.674 12.384 2.538 13.032 3.726 13.356 5.238 13.356 6.768 13.356 7.974 13.032 8.874 12.402 9.774 11.754 10.224 10.854 10.224 9.738 10.224 8.568 9.684 7.668 8.622 7.02 8.082 6.696 6.966 6.282 5.274 5.778 4.032 5.418 3.24 5.148 2.916 4.968 2.178 4.572 1.818 4.05 1.818 3.402 1.818 2.664 2.124 2.124 2.736 1.764 3.276 1.44 4.014 1.296 4.968 1.296 6.012 1.296 6.822 1.512 7.398 1.98 7.956 2.43 8.316 3.114 8.478 4.05L9.936 4.05C9.81 2.7 9.324 1.674 8.46.99 7.632.324 6.48 0 5.04 0ZM15.75 3.546C14.4 3.546 13.338 4.032 12.546 5.004 11.754 5.922 11.376 7.074 11.376 8.442 11.376 9.954 11.772 11.142 12.6 12.042 13.392 12.906 14.472 13.356 15.804 13.356 17.01 13.356 18 12.996 18.774 12.312 19.404 11.736 19.818 11.016 20.034 10.116L18.594 10.116C18.36 10.764 18.054 11.25 17.658 11.574 17.19 11.952 16.56 12.15 15.804 12.15 14.922 12.15 14.22 11.862 13.716 11.286 13.212 10.71 12.942 9.9 12.87 8.856L20.214 8.856C20.178 7.236 19.818 5.958 19.134 5.058 18.378 4.05 17.244 3.546 15.75 3.546ZM15.786 4.752C17.55 4.752 18.54 5.742 18.72 7.74L12.906 7.74C12.996 6.822 13.284 6.102 13.788 5.562 14.292 5.022 14.958 4.752 15.786 4.752ZM25.992 3.546C25.344 3.546 24.786 3.744 24.3 4.14 23.904 4.446 23.58 4.878 23.328 5.418L23.328 3.798 21.906 3.798 21.906 13.104 23.328 13.104 23.328 8.172C23.328 7.308 23.562 6.57 24.066 5.958 24.552 5.31 25.164 5.004 25.884 5.004 26.334 5.004 26.802 5.058 27.27 5.202L27.27 3.762C26.928 3.618 26.496 3.546 25.992 3.546Z"/><polygon points="27.45 3.798 30.96 13.104 32.418 13.104 35.946 3.798 34.362 3.798 31.698 11.304 29.034 3.798"/><path d="M40.986 3.546C39.636 3.546 38.574 4.032 37.782 5.004 36.99 5.922 36.612 7.074 36.612 8.442 36.612 9.954 37.008 11.142 37.836 12.042 38.628 12.906 39.708 13.356 41.04 13.356 42.246 13.356 43.236 12.996 44.01 12.312 44.64 11.736 45.054 11.016 45.27 10.116L43.83 10.116C43.596 10.764 43.29 11.25 42.894 11.574 42.426 11.952 41.796 12.15 41.04 12.15 40.158 12.15 39.456 11.862 38.952 11.286 38.448 10.71 38.178 9.9 38.106 8.856L45.45 8.856C45.414 7.236 45.054 5.958 44.37 5.058 43.614 4.05 42.48 3.546 40.986 3.546ZM41.022 4.752C42.786 4.752 43.776 5.742 43.956 7.74L38.142 7.74C38.232 6.822 38.52 6.102 39.024 5.562 39.528 5.022 40.194 4.752 41.022 4.752ZM51.228 3.546C50.58 3.546 50.022 3.744 49.536 4.14 49.14 4.446 48.816 4.878 48.564 5.418L48.564 3.798 47.142 3.798 47.142 13.104 48.564 13.104 48.564 8.172C48.564 7.308 48.798 6.57 49.302 5.958 49.788 5.31 50.4 5.004 51.12 5.004 51.57 5.004 52.038 5.058 52.506 5.202L52.506 3.762C52.164 3.618 51.732 3.546 51.228 3.546Z"/></g></g></g></svg>