<svg xmlns="http://www.w3.org/2000/svg" width="800" height="800" viewBox="0 0 800 800"><g fill="none" fill-rule="evenodd"><rect width="800" height="800" fill="#FFF"/><g transform="translate(99 170)"><polygon fill="#C7C7CC" points="601 500 601 560 1 410 1 350"/><line x1="1" x2="1" y2="600" stroke="#2C2C2E" stroke-linecap="square" stroke-width="2"/><path fill="#2C2C2E" fill-rule="nonzero" d="M0.272393125,48.7873219 L1.24253563,49.0298575 L587.66,195.634 L589.115754,189.813504 L601,200 L585.720256,203.395499 L587.175,197.574 L0.757464375,50.9701425 L-0.212678125,50.7276069 L0.272393125,48.7873219 Z"/><path fill="#2C2C2E" fill-rule="nonzero" d="M601.727607,198.787322 L602.212678,200.727607 L601.242536,200.970143 L14.824,347.574 L16.2797444,353.395499 L1,350 L12.8842456,339.813504 L14.339,345.634 L600.757464,199.029857 L601.727607,198.787322 Z"/><path fill="#2C2C2E" fill-rule="nonzero" d="M.272393125 348.787322 1.24253563 349.029857 587.66 495.634 589.115754 489.813504 601 500 585.720256 503.395499 587.175 497.574.757464375 350.970143-.212678125 350.727607.272393125 348.787322ZM.272393125 408.787322 1.24253563 409.029857 587.66 555.634 589.115754 549.813504 601 560 585.720256 563.395499 587.175 557.574.757464375 410.970143-.212678125 410.727607.272393125 408.787322Z"/><line x1="601" x2="601" y2="600" stroke="#2C2C2E" stroke-linecap="square" stroke-width="2"/><g fill="#2C2C2E" fill-rule="nonzero" transform="rotate(14 -153.397 899.417)"><path d="M10.512,0 C7.74,0 5.472,0.612 3.672,1.872 C1.728,3.168 0.792,4.968 0.792,7.236 C0.792,9.504 1.764,11.232 3.744,12.42 C4.5,12.852 6.48,13.572 9.648,14.58 C12.492,15.444 14.148,16.02 14.652,16.272 C16.236,17.064 17.064,18.144 17.064,19.512 C17.064,20.592 16.488,21.42 15.408,22.068 C14.328,22.68 12.816,23.004 10.944,23.004 C8.82,23.004 7.272,22.608 6.264,21.888 C5.148,21.06 4.464,19.656 4.176,17.712 L0,17.712 C0.18,20.988 1.368,23.364 3.528,24.876 C5.292,26.1 7.776,26.712 10.944,26.712 C14.22,26.712 16.776,26.028 18.576,24.732 C20.376,23.4 21.276,21.564 21.276,19.26 C21.276,16.884 20.16,15.048 17.928,13.716 C16.92,13.14 14.688,12.276 11.196,11.196 C8.82,10.44 7.344,9.9 6.804,9.612 C5.58,8.964 5.004,8.064 5.004,6.984 C5.004,5.76 5.508,4.86 6.588,4.32 C7.452,3.852 8.676,3.636 10.296,3.636 C12.168,3.636 13.608,3.96 14.544,4.68 C15.48,5.364 16.164,6.516 16.524,8.1 L20.7,8.1 C20.448,5.292 19.404,3.204 17.604,1.872 C15.912,0.612 13.536,0 10.512,0 Z"/><polygon points="22.536 .504 32.688 15.984 32.688 26.208 36.9 26.208 36.9 15.984 47.052 .504 41.976 .504 34.812 12.06 27.612 .504"/><polygon points="49.752 .504 49.752 26.208 53.964 26.208 53.964 7.416 54.108 7.416 66.96 26.208 71.064 26.208 71.064 .504 66.816 .504 66.816 19.044 66.672 19.044 53.964 .504"/><path d="M94.392 7.092C92.304 7.092 90.576 7.56 89.28 8.496 87.876 9.432 87.192 10.656 87.192 12.24 87.192 13.824 87.876 15.012 89.316 15.876 90.18 16.452 91.728 16.992 93.924 17.532 95.94 18.036 97.272 18.432 97.884 18.72 99.036 19.296 99.648 20.088 99.648 21.132 99.648 23.22 97.956 24.3 94.644 24.3 93.06 24.3 91.872 24.012 91.08 23.436 90.288 22.788 89.748 21.744 89.532 20.268L86.724 20.268C87.156 24.552 89.82 26.712 94.716 26.712 99.972 26.712 102.6 24.768 102.6 20.952 102.6 19.332 101.844 18.072 100.368 17.136 99.396 16.524 97.812 15.948 95.58 15.408 93.708 14.904 92.412 14.508 91.728 14.184 90.648 13.644 90.144 12.96 90.144 12.168 90.144 11.34 90.54 10.692 91.332 10.224 92.052 9.72 93.06 9.504 94.356 9.504 95.832 9.504 96.984 9.792 97.776 10.368 98.496 10.872 98.964 11.736 99.216 12.888L102.024 12.888C101.52 9 99 7.092 94.392 7.092ZM113.652 7.092C110.952 7.092 108.828 8.064 107.244 10.008 105.66 11.844 104.904 14.148 104.904 16.884 104.904 19.908 105.696 22.284 107.352 24.084 108.936 25.812 111.096 26.712 113.76 26.712 116.172 26.712 118.152 25.992 119.7 24.624 120.96 23.472 121.788 22.032 122.22 20.232L119.34 20.232C118.872 21.528 118.26 22.5 117.468 23.148 116.532 23.904 115.272 24.3 113.76 24.3 111.996 24.3 110.592 23.724 109.584 22.572 108.576 21.42 108.036 19.8 107.892 17.712L122.58 17.712C122.508 14.472 121.788 11.916 120.42 10.116 118.908 8.1 116.64 7.092 113.652 7.092ZM113.724 9.504C117.252 9.504 119.232 11.484 119.592 15.48L107.964 15.48C108.144 13.644 108.72 12.204 109.728 11.124 110.736 10.044 112.068 9.504 113.724 9.504ZM133.704 7.092C130.968 7.092 128.844 8.064 127.332 10.08 125.928 11.88 125.244 14.148 125.244 16.956 125.244 19.692 125.928 21.96 127.296 23.76 128.808 25.704 130.896 26.712 133.56 26.712 136.224 26.712 138.276 25.416 139.716 22.824L139.716 33.336 142.596 33.336 142.596 7.596 139.896 7.596 139.896 10.656C138.528 8.28 136.476 7.092 133.704 7.092ZM134.064 9.468C135.936 9.468 137.376 10.188 138.42 11.664 139.32 12.96 139.788 14.688 139.788 16.776L139.788 17.136C139.788 19.296 139.248 21.024 138.24 22.356 137.196 23.652 135.828 24.336 134.172 24.336 132.156 24.336 130.608 23.616 129.6 22.248 128.664 20.952 128.196 19.188 128.196 16.956 128.196 14.76 128.628 12.996 129.528 11.7 130.536 10.188 132.048 9.468 134.064 9.468ZM146.628 11.988 146.628 14.4 164.808 14.4 164.808 11.988 146.628 11.988ZM146.628 19.368 146.628 21.816 164.808 21.816 164.808 19.368 146.628 19.368Z"/><polygon points="167.58 7.596 174.168 16.344 166.788 26.208 170.208 26.208 175.788 18.468 181.332 26.208 184.752 26.208 177.372 16.344 183.96 7.596 180.576 7.596 175.788 14.22 170.964 7.596"/></g><g fill="#2C2C2E" fill-rule="nonzero" transform="rotate(14 -1328.32 668.848)"><path d="M9.828.504-5.68434189e-14 26.208 4.5 26.208 6.84 19.764 17.604 19.764 19.944 26.208 24.444 26.208 14.616.504 9.828.504ZM8.1 16.308 12.168 5.04 12.312 5.04 16.344 16.308 8.1 16.308ZM38.124-5.68434189e-14C34.02-5.68434189e-14 30.888 1.332 28.728 4.068 26.82 6.444 25.884 9.576 25.884 13.392 25.884 17.28 26.784 20.376 28.62 22.68 30.708 25.344 33.912 26.712 38.196 26.712 40.968 26.712 43.344 25.92 45.324 24.336 47.448 22.644 48.78 20.304 49.356 17.28L45.252 17.28C44.748 19.224 43.884 20.7 42.66 21.672 41.508 22.536 39.996 23.004 38.16 23.004 35.352 23.004 33.264 22.104 31.932 20.376 30.708 18.756 30.096 16.416 30.096 13.392 30.096 10.44 30.708 8.136 31.968 6.48 33.336 4.608 35.352 3.708 38.052 3.708 39.852 3.708 41.328 4.068 42.48 4.86 43.668 5.652 44.46 6.876 44.892 8.568L48.996 8.568C48.6 5.976 47.484 3.888 45.612 2.376 43.668.792 41.148-5.68434189e-14 38.124-5.68434189e-14Z"/><polygon points="69.48 .504 57.528 12.636 57.528 .504 53.316 .504 53.316 26.208 57.528 26.208 57.528 17.352 60.66 14.292 70.812 26.208 76.5 26.208 63.504 11.52 74.808 .504"/><path d="M98.82 7.092C96.588 7.092 94.824 7.524 93.456 8.388 91.944 9.324 90.972 10.8 90.576 12.744L93.42 12.96C93.708 11.772 94.32 10.872 95.292 10.296 96.156 9.72 97.272 9.468 98.64 9.468 101.88 9.468 103.5 11.016 103.5 14.148L103.5 15.12 99.036 15.192C96.228 15.228 94.068 15.768 92.556 16.776 90.828 17.856 90 19.44 90 21.564 90 23.076 90.576 24.336 91.728 25.308 92.844 26.244 94.32 26.712 96.192 26.712 97.92 26.712 99.468 26.316 100.836 25.56 101.988 24.912 102.96 24.084 103.68 23.076L103.68 26.208 106.38 26.208 106.38 14.256C106.38 12.096 105.804 10.404 104.724 9.18 103.428 7.776 101.484 7.092 98.82 7.092ZM103.5 17.28 103.5 18.864C103.5 20.304 102.816 21.6 101.484 22.716 100.116 23.868 98.568 24.444 96.804 24.444 95.652 24.444 94.716 24.156 93.996 23.616 93.276 23.04 92.952 22.356 92.952 21.492 92.952 18.792 95.04 17.424 99.216 17.352L103.5 17.28ZM118.872 7.092C116.1 7.092 113.904 8.064 112.32 10.044 110.844 11.844 110.124 14.148 110.124 16.992 110.124 19.836 110.844 22.14 112.32 23.904 113.868 25.776 116.028 26.712 118.836 26.712 121.14 26.712 122.976 26.1 124.38 24.912 125.82 23.688 126.72 21.852 127.152 19.476L124.272 19.476C123.84 22.68 122.004 24.3 118.836 24.3 116.964 24.3 115.524 23.616 114.552 22.32 113.544 21.024 113.076 19.224 113.076 16.956 113.076 14.688 113.58 12.888 114.588 11.556 115.632 10.188 117.072 9.504 118.872 9.504 120.348 9.504 121.536 9.828 122.472 10.548 123.372 11.268 123.948 12.348 124.2 13.788L127.044 13.788C126.72 11.52 125.856 9.828 124.416 8.712 123.012 7.632 121.176 7.092 118.872 7.092Z"/><polygon points="130.536 0 130.536 26.208 133.416 26.208 133.416 19.62 136.368 16.956 143.64 26.208 147.348 26.208 138.348 15.084 146.556 7.596 142.74 7.596 133.416 16.236 133.416 0"/><path d="M149.148,11.988 L149.148,14.4 L167.328,14.4 L167.328,11.988 L149.148,11.988 Z M149.148,19.368 L149.148,21.816 L167.328,21.816 L167.328,19.368 L149.148,19.368 Z"/><polygon points="169.308 7.596 176.688 25.776 173.484 33.336 176.616 33.336 186.804 7.596 183.636 7.596 178.128 22.284 172.44 7.596"/><polygon points="196.668 7.812 196.668 15.66 188.784 15.66 188.784 18.108 196.668 18.108 196.668 25.992 199.116 25.992 199.116 18.108 206.964 18.108 206.964 15.66 199.116 15.66 199.116 7.812"/><path d="M217.044.504C216.18 1.476 215.172 2.34 213.948 3.132 212.724 3.852 211.5 4.356 210.348 4.68L210.348 7.632C212.76 6.912 214.776 5.76 216.396 4.104L216.396 26.208 219.348 26.208 219.348.504 217.044.504ZM244.008 7.092C241.92 7.092 240.192 7.56 238.896 8.496 237.492 9.432 236.808 10.656 236.808 12.24 236.808 13.824 237.492 15.012 238.932 15.876 239.796 16.452 241.344 16.992 243.54 17.532 245.556 18.036 246.888 18.432 247.5 18.72 248.652 19.296 249.264 20.088 249.264 21.132 249.264 23.22 247.572 24.3 244.26 24.3 242.676 24.3 241.488 24.012 240.696 23.436 239.904 22.788 239.364 21.744 239.148 20.268L236.34 20.268C236.772 24.552 239.436 26.712 244.332 26.712 249.588 26.712 252.216 24.768 252.216 20.952 252.216 19.332 251.46 18.072 249.984 17.136 249.012 16.524 247.428 15.948 245.196 15.408 243.324 14.904 242.028 14.508 241.344 14.184 240.264 13.644 239.76 12.96 239.76 12.168 239.76 11.34 240.156 10.692 240.948 10.224 241.668 9.72 242.676 9.504 243.972 9.504 245.448 9.504 246.6 9.792 247.392 10.368 248.112 10.872 248.58 11.736 248.832 12.888L251.64 12.888C251.136 9 248.616 7.092 244.008 7.092ZM263.268 7.092C260.568 7.092 258.444 8.064 256.86 10.008 255.276 11.844 254.52 14.148 254.52 16.884 254.52 19.908 255.312 22.284 256.968 24.084 258.552 25.812 260.712 26.712 263.376 26.712 265.788 26.712 267.768 25.992 269.316 24.624 270.576 23.472 271.404 22.032 271.836 20.232L268.956 20.232C268.488 21.528 267.876 22.5 267.084 23.148 266.148 23.904 264.888 24.3 263.376 24.3 261.612 24.3 260.208 23.724 259.2 22.572 258.192 21.42 257.652 19.8 257.508 17.712L272.196 17.712C272.124 14.472 271.404 11.916 270.036 10.116 268.524 8.1 266.256 7.092 263.268 7.092ZM263.34 9.504C266.868 9.504 268.848 11.484 269.208 15.48L257.58 15.48C257.76 13.644 258.336 12.204 259.344 11.124 260.352 10.044 261.684 9.504 263.34 9.504ZM283.32 7.092C280.584 7.092 278.46 8.064 276.948 10.08 275.544 11.88 274.86 14.148 274.86 16.956 274.86 19.692 275.544 21.96 276.912 23.76 278.424 25.704 280.512 26.712 283.176 26.712 285.84 26.712 287.892 25.416 289.332 22.824L289.332 33.336 292.212 33.336 292.212 7.596 289.512 7.596 289.512 10.656C288.144 8.28 286.092 7.092 283.32 7.092ZM283.68 9.468C285.552 9.468 286.992 10.188 288.036 11.664 288.936 12.96 289.404 14.688 289.404 16.776L289.404 17.136C289.404 19.296 288.864 21.024 287.856 22.356 286.812 23.652 285.444 24.336 283.788 24.336 281.772 24.336 280.224 23.616 279.216 22.248 278.28 20.952 277.812 19.188 277.812 16.956 277.812 14.76 278.244 12.996 279.144 11.7 280.152 10.188 281.664 9.468 283.68 9.468ZM296.244 11.988 296.244 14.4 314.424 14.4 314.424 11.988 296.244 11.988ZM296.244 19.368 296.244 21.816 314.424 21.816 314.424 19.368 296.244 19.368Z"/><polygon points="317.196 7.596 323.784 16.344 316.404 26.208 319.824 26.208 325.404 18.468 330.948 26.208 334.368 26.208 326.988 16.344 333.576 7.596 330.192 7.596 325.404 14.22 320.58 7.596"/><polygon points="344.232 7.812 344.232 15.66 336.348 15.66 336.348 18.108 344.232 18.108 344.232 25.992 346.68 25.992 346.68 18.108 354.528 18.108 354.528 15.66 346.68 15.66 346.68 7.812"/><path d="M364.608,0.504 C363.744,1.476 362.736,2.34 361.512,3.132 C360.288,3.852 359.064,4.356 357.912,4.68 L357.912,7.632 C360.324,6.912 362.34,5.76 363.96,4.104 L363.96,26.208 L366.912,26.208 L366.912,0.504 L364.608,0.504 Z"/></g><g fill="#2C2C2E" fill-rule="nonzero" transform="rotate(14 -1627.096 1262.248)"><polygon points="0 0 0 33.624 8.82 33.624 8.82 31.212 2.664 31.212 2.664 2.412 8.82 2.412 8.82 0"/><path d="M26.388 3.564 26.388 14.58C24.948 11.952 22.896 10.656 20.232 10.656 17.568 10.656 15.516 11.628 14.004 13.644 12.6 15.444 11.916 17.676 11.916 20.412 11.916 23.22 12.6 25.524 14.004 27.324 15.516 29.268 17.64 30.276 20.376 30.276 23.184 30.276 25.272 29.088 26.568 26.712L26.568 29.772 29.268 29.772 29.268 3.564 26.388 3.564ZM20.844 13.032C22.5 13.032 23.868 13.68 24.912 15.048 25.92 16.38 26.46 18.144 26.46 20.304L26.46 20.664C26.46 22.752 25.992 24.444 25.092 25.74 24.048 27.18 22.608 27.9 20.736 27.9 18.72 27.9 17.208 27.144 16.2 25.704 15.3 24.408 14.868 22.644 14.868 20.412 14.868 18.18 15.3 16.452 16.236 15.192 17.244 13.752 18.792 13.032 20.844 13.032ZM41.832 10.656C39.6 10.656 37.836 11.088 36.468 11.952 34.956 12.888 33.984 14.364 33.588 16.308L36.432 16.524C36.72 15.336 37.332 14.436 38.304 13.86 39.168 13.284 40.284 13.032 41.652 13.032 44.892 13.032 46.512 14.58 46.512 17.712L46.512 18.684 42.048 18.756C39.24 18.792 37.08 19.332 35.568 20.34 33.84 21.42 33.012 23.004 33.012 25.128 33.012 26.64 33.588 27.9 34.74 28.872 35.856 29.808 37.332 30.276 39.204 30.276 40.932 30.276 42.48 29.88 43.848 29.124 45 28.476 45.972 27.648 46.692 26.64L46.692 29.772 49.392 29.772 49.392 17.82C49.392 15.66 48.816 13.968 47.736 12.744 46.44 11.34 44.496 10.656 41.832 10.656ZM46.512 20.844 46.512 22.428C46.512 23.868 45.828 25.164 44.496 26.28 43.128 27.432 41.58 28.008 39.816 28.008 38.664 28.008 37.728 27.72 37.008 27.18 36.288 26.604 35.964 25.92 35.964 25.056 35.964 22.356 38.052 20.988 42.228 20.916L46.512 20.844ZM58.824 5.148 55.98 6.336 55.98 11.16 52.236 11.16 52.236 13.572 55.98 13.572 55.98 25.416C55.98 26.82 56.268 27.864 56.88 28.584 57.528 29.376 58.644 29.772 60.156 29.772L62.964 29.772 62.964 27.36 60.588 27.36C59.94 27.36 59.472 27.18 59.22 26.892 58.932 26.604 58.824 26.1 58.824 25.416L58.824 13.572 63.432 13.572 63.432 11.16 58.824 11.16 58.824 5.148ZM74.736 10.656C72.504 10.656 70.74 11.088 69.372 11.952 67.86 12.888 66.888 14.364 66.492 16.308L69.336 16.524C69.624 15.336 70.236 14.436 71.208 13.86 72.072 13.284 73.188 13.032 74.556 13.032 77.796 13.032 79.416 14.58 79.416 17.712L79.416 18.684 74.952 18.756C72.144 18.792 69.984 19.332 68.472 20.34 66.744 21.42 65.916 23.004 65.916 25.128 65.916 26.64 66.492 27.9 67.644 28.872 68.76 29.808 70.236 30.276 72.108 30.276 73.836 30.276 75.384 29.88 76.752 29.124 77.904 28.476 78.876 27.648 79.596 26.64L79.596 29.772 82.296 29.772 82.296 17.82C82.296 15.66 81.72 13.968 80.64 12.744 79.344 11.34 77.4 10.656 74.736 10.656ZM79.416 20.844 79.416 22.428C79.416 23.868 78.732 25.164 77.4 26.28 76.032 27.432 74.484 28.008 72.72 28.008 71.568 28.008 70.632 27.72 69.912 27.18 69.192 26.604 68.868 25.92 68.868 25.056 68.868 22.356 70.956 20.988 75.132 20.916L79.416 20.844Z"/><polygon points="86.112 0 86.112 2.412 92.268 2.412 92.268 31.212 86.112 31.212 86.112 33.624 94.932 33.624 94.932 0"/></g><g fill="#2C2C2E" fill-rule="nonzero" transform="rotate(-14 1218.394 -229.553)"><path d="M10.512,0 C7.74,0 5.472,0.612 3.672,1.872 C1.728,3.168 0.792,4.968 0.792,7.236 C0.792,9.504 1.764,11.232 3.744,12.42 C4.5,12.852 6.48,13.572 9.648,14.58 C12.492,15.444 14.148,16.02 14.652,16.272 C16.236,17.064 17.064,18.144 17.064,19.512 C17.064,20.592 16.488,21.42 15.408,22.068 C14.328,22.68 12.816,23.004 10.944,23.004 C8.82,23.004 7.272,22.608 6.264,21.888 C5.148,21.06 4.464,19.656 4.176,17.712 L1.42108547e-14,17.712 C0.18,20.988 1.368,23.364 3.528,24.876 C5.292,26.1 7.776,26.712 10.944,26.712 C14.22,26.712 16.776,26.028 18.576,24.732 C20.376,23.4 21.276,21.564 21.276,19.26 C21.276,16.884 20.16,15.048 17.928,13.716 C16.92,13.14 14.688,12.276 11.196,11.196 C8.82,10.44 7.344,9.9 6.804,9.612 C5.58,8.964 5.004,8.064 5.004,6.984 C5.004,5.76 5.508,4.86 6.588,4.32 C7.452,3.852 8.676,3.636 10.296,3.636 C12.168,3.636 13.608,3.96 14.544,4.68 C15.48,5.364 16.164,6.516 16.524,8.1 L20.7,8.1 C20.448,5.292 19.404,3.204 17.604,1.872 C15.912,0.612 13.536,0 10.512,0 Z"/><polygon points="22.536 .504 32.688 15.984 32.688 26.208 36.9 26.208 36.9 15.984 47.052 .504 41.976 .504 34.812 12.06 27.612 .504"/><polygon points="49.752 .504 49.752 26.208 53.964 26.208 53.964 7.416 54.108 7.416 66.96 26.208 71.064 26.208 71.064 .504 66.816 .504 66.816 19.044 66.672 19.044 53.964 .504"/><polygon points="75.384 15.192 75.384 18.576 93.564 18.576 93.564 15.192"/><path d="M105.192.504 95.364 26.208 99.864 26.208 102.204 19.764 112.968 19.764 115.308 26.208 119.808 26.208 109.98.504 105.192.504ZM103.464 16.308 107.532 5.04 107.676 5.04 111.708 16.308 103.464 16.308ZM133.488 5.68434189e-14C129.384 5.68434189e-14 126.252 1.332 124.092 4.068 122.184 6.444 121.248 9.576 121.248 13.392 121.248 17.28 122.148 20.376 123.984 22.68 126.072 25.344 129.276 26.712 133.56 26.712 136.332 26.712 138.708 25.92 140.688 24.336 142.812 22.644 144.144 20.304 144.72 17.28L140.616 17.28C140.112 19.224 139.248 20.7 138.024 21.672 136.872 22.536 135.36 23.004 133.524 23.004 130.716 23.004 128.628 22.104 127.296 20.376 126.072 18.756 125.46 16.416 125.46 13.392 125.46 10.44 126.072 8.136 127.332 6.48 128.7 4.608 130.716 3.708 133.416 3.708 135.216 3.708 136.692 4.068 137.844 4.86 139.032 5.652 139.824 6.876 140.256 8.568L144.36 8.568C143.964 5.976 142.848 3.888 140.976 2.376 139.032.792 136.512 5.68434189e-14 133.488 5.68434189e-14Z"/><polygon points="164.844 .504 152.892 12.636 152.892 .504 148.68 .504 148.68 26.208 152.892 26.208 152.892 17.352 156.024 14.292 166.176 26.208 171.864 26.208 158.868 11.52 170.172 .504"/><path d="M194.184 7.092C191.952 7.092 190.188 7.524 188.82 8.388 187.308 9.324 186.336 10.8 185.94 12.744L188.784 12.96C189.072 11.772 189.684 10.872 190.656 10.296 191.52 9.72 192.636 9.468 194.004 9.468 197.244 9.468 198.864 11.016 198.864 14.148L198.864 15.12 194.4 15.192C191.592 15.228 189.432 15.768 187.92 16.776 186.192 17.856 185.364 19.44 185.364 21.564 185.364 23.076 185.94 24.336 187.092 25.308 188.208 26.244 189.684 26.712 191.556 26.712 193.284 26.712 194.832 26.316 196.2 25.56 197.352 24.912 198.324 24.084 199.044 23.076L199.044 26.208 201.744 26.208 201.744 14.256C201.744 12.096 201.168 10.404 200.088 9.18 198.792 7.776 196.848 7.092 194.184 7.092ZM198.864 17.28 198.864 18.864C198.864 20.304 198.18 21.6 196.848 22.716 195.48 23.868 193.932 24.444 192.168 24.444 191.016 24.444 190.08 24.156 189.36 23.616 188.64 23.04 188.316 22.356 188.316 21.492 188.316 18.792 190.404 17.424 194.58 17.352L198.864 17.28ZM214.236 7.092C211.464 7.092 209.268 8.064 207.684 10.044 206.208 11.844 205.488 14.148 205.488 16.992 205.488 19.836 206.208 22.14 207.684 23.904 209.232 25.776 211.392 26.712 214.2 26.712 216.504 26.712 218.34 26.1 219.744 24.912 221.184 23.688 222.084 21.852 222.516 19.476L219.636 19.476C219.204 22.68 217.368 24.3 214.2 24.3 212.328 24.3 210.888 23.616 209.916 22.32 208.908 21.024 208.44 19.224 208.44 16.956 208.44 14.688 208.944 12.888 209.952 11.556 210.996 10.188 212.436 9.504 214.236 9.504 215.712 9.504 216.9 9.828 217.836 10.548 218.736 11.268 219.312 12.348 219.564 13.788L222.408 13.788C222.084 11.52 221.22 9.828 219.78 8.712 218.376 7.632 216.54 7.092 214.236 7.092Z"/><polygon points="225.9 0 225.9 26.208 228.78 26.208 228.78 19.62 231.732 16.956 239.004 26.208 242.712 26.208 233.712 15.084 241.92 7.596 238.104 7.596 228.78 16.236 228.78 0"/><path d="M244.512,11.988 L244.512,14.4 L262.692,14.4 L262.692,11.988 L244.512,11.988 Z M244.512,19.368 L244.512,21.816 L262.692,21.816 L262.692,19.368 L244.512,19.368 Z"/><polygon points="265.464 7.596 272.052 16.344 264.672 26.208 268.092 26.208 273.672 18.468 279.216 26.208 282.636 26.208 275.256 16.344 281.844 7.596 278.46 7.596 273.672 14.22 268.848 7.596"/><polygon points="292.5 7.812 292.5 15.66 284.616 15.66 284.616 18.108 292.5 18.108 292.5 25.992 294.948 25.992 294.948 18.108 302.796 18.108 302.796 15.66 294.948 15.66 294.948 7.812"/><path d="M312.876.504C312.012 1.476 311.004 2.34 309.78 3.132 308.556 3.852 307.332 4.356 306.18 4.68L306.18 7.632C308.592 6.912 310.608 5.76 312.228 4.104L312.228 26.208 315.18 26.208 315.18.504 312.876.504ZM339.84 7.092C337.752 7.092 336.024 7.56 334.728 8.496 333.324 9.432 332.64 10.656 332.64 12.24 332.64 13.824 333.324 15.012 334.764 15.876 335.628 16.452 337.176 16.992 339.372 17.532 341.388 18.036 342.72 18.432 343.332 18.72 344.484 19.296 345.096 20.088 345.096 21.132 345.096 23.22 343.404 24.3 340.092 24.3 338.508 24.3 337.32 24.012 336.528 23.436 335.736 22.788 335.196 21.744 334.98 20.268L332.172 20.268C332.604 24.552 335.268 26.712 340.164 26.712 345.42 26.712 348.048 24.768 348.048 20.952 348.048 19.332 347.292 18.072 345.816 17.136 344.844 16.524 343.26 15.948 341.028 15.408 339.156 14.904 337.86 14.508 337.176 14.184 336.096 13.644 335.592 12.96 335.592 12.168 335.592 11.34 335.988 10.692 336.78 10.224 337.5 9.72 338.508 9.504 339.804 9.504 341.28 9.504 342.432 9.792 343.224 10.368 343.944 10.872 344.412 11.736 344.664 12.888L347.472 12.888C346.968 9 344.448 7.092 339.84 7.092ZM359.1 7.092C356.4 7.092 354.276 8.064 352.692 10.008 351.108 11.844 350.352 14.148 350.352 16.884 350.352 19.908 351.144 22.284 352.8 24.084 354.384 25.812 356.544 26.712 359.208 26.712 361.62 26.712 363.6 25.992 365.148 24.624 366.408 23.472 367.236 22.032 367.668 20.232L364.788 20.232C364.32 21.528 363.708 22.5 362.916 23.148 361.98 23.904 360.72 24.3 359.208 24.3 357.444 24.3 356.04 23.724 355.032 22.572 354.024 21.42 353.484 19.8 353.34 17.712L368.028 17.712C367.956 14.472 367.236 11.916 365.868 10.116 364.356 8.1 362.088 7.092 359.1 7.092ZM359.172 9.504C362.7 9.504 364.68 11.484 365.04 15.48L353.412 15.48C353.592 13.644 354.168 12.204 355.176 11.124 356.184 10.044 357.516 9.504 359.172 9.504ZM379.152 7.092C376.416 7.092 374.292 8.064 372.78 10.08 371.376 11.88 370.692 14.148 370.692 16.956 370.692 19.692 371.376 21.96 372.744 23.76 374.256 25.704 376.344 26.712 379.008 26.712 381.672 26.712 383.724 25.416 385.164 22.824L385.164 33.336 388.044 33.336 388.044 7.596 385.344 7.596 385.344 10.656C383.976 8.28 381.924 7.092 379.152 7.092ZM379.512 9.468C381.384 9.468 382.824 10.188 383.868 11.664 384.768 12.96 385.236 14.688 385.236 16.776L385.236 17.136C385.236 19.296 384.696 21.024 383.688 22.356 382.644 23.652 381.276 24.336 379.62 24.336 377.604 24.336 376.056 23.616 375.048 22.248 374.112 20.952 373.644 19.188 373.644 16.956 373.644 14.76 374.076 12.996 374.976 11.7 375.984 10.188 377.496 9.468 379.512 9.468ZM392.076 11.988 392.076 14.4 410.256 14.4 410.256 11.988 392.076 11.988ZM392.076 19.368 392.076 21.816 410.256 21.816 410.256 19.368 392.076 19.368Z"/><polygon points="412.236 7.596 419.616 25.776 416.412 33.336 419.544 33.336 429.732 7.596 426.564 7.596 421.056 22.284 415.368 7.596"/></g></g><g fill="#2C2C2E" fill-rule="nonzero" transform="translate(53.128 26.18)"><path d="M79.8398438,25.2421875 L79.8398438,19.9335938 L3.1640625,19.9335938 L3.1640625,25.2421875 L79.8398438,25.2421875 Z M79.8398438,44.7890625 L79.8398438,39.4804688 L3.1640625,39.4804688 L3.1640625,44.7890625 L79.8398438,44.7890625 Z M11.0390625,64.7226562 L71.859375,64.7226562 C75.5625,64.7226562 78.328125,63.8144531 80.15625,61.9980469 C81.984375,60.1816406 82.8984375,57.4570312 82.8984375,53.8242188 L82.8984375,10.8984375 C82.8984375,7.265625 81.984375,4.54101562 80.15625,2.72460938 C78.328125,0.908203125 75.5625,0 71.859375,0 L11.0390625,0 C7.359375,0 4.59960938,0.908203125 2.75976562,2.72460938 C0.919921875,4.54101562 0,7.265625 0,10.8984375 L0,53.8242188 C0,57.4570312 0.919921875,60.1816406 2.75976562,61.9980469 C4.59960938,63.8144531 7.359375,64.7226562 11.0390625,64.7226562 Z M11.109375,59.0625 C9.3515625,59.0625 8.00390625,58.5996094 7.06640625,57.6738281 C6.12890625,56.7480469 5.66015625,55.3710938 5.66015625,53.5429688 L5.66015625,11.1796875 C5.66015625,9.3515625 6.12890625,7.97460938 7.06640625,7.04882812 C8.00390625,6.12304688 9.3515625,5.66015625 11.109375,5.66015625 L71.7890625,5.66015625 C73.5234375,5.66015625 74.8652344,6.12304688 75.8144531,7.04882812 C76.7636719,7.97460938 77.2382812,9.3515625 77.2382812,11.1796875 L77.2382812,53.5429688 C77.2382812,55.3710938 76.7636719,56.7480469 75.8144531,57.6738281 C74.8652344,58.5996094 73.5234375,59.0625 71.7890625,59.0625 L11.109375,59.0625 Z M64.8984375,17.296875 C66.09375,17.2734375 67.1308594,16.8222656 68.0097656,15.9433594 C68.8886719,15.0644531 69.328125,14.015625 69.328125,12.796875 C69.328125,11.578125 68.8886719,10.5175781 68.0097656,9.61523438 C67.1308594,8.71289062 66.09375,8.26171875 64.8984375,8.26171875 C63.6796875,8.26171875 62.625,8.71289062 61.734375,9.61523438 C60.84375,10.5175781 60.3984375,11.578125 60.3984375,12.796875 C60.3984375,14.015625 60.84375,15.0761719 61.734375,15.9785156 C62.625,16.8808594 63.6796875,17.3203125 64.8984375,17.296875 Z M64.8984375,36.7734375 C66.09375,36.75 67.1308594,36.2988281 68.0097656,35.4199219 C68.8886719,34.5410156 69.328125,33.4921875 69.328125,32.2734375 C69.328125,31.0546875 68.8886719,29.9941406 68.0097656,29.0917969 C67.1308594,28.1894531 66.09375,27.7382812 64.8984375,27.7382812 C63.6796875,27.7382812 62.625,28.1894531 61.734375,29.0917969 C60.84375,29.9941406 60.3984375,31.0546875 60.3984375,32.2734375 C60.3984375,33.4921875 60.84375,34.5527344 61.734375,35.4550781 C62.625,36.3574219 63.6796875,36.796875 64.8984375,36.7734375 Z M64.8984375,56.25 C66.09375,56.2265625 67.1308594,55.7753906 68.0097656,54.8964844 C68.8886719,54.0175781 69.328125,52.96875 69.328125,51.75 C69.328125,50.53125 68.8886719,49.4707031 68.0097656,48.5683594 C67.1308594,47.6660156 66.09375,47.2148438 64.8984375,47.2148438 C63.6796875,47.2148438 62.625,47.6660156 61.734375,48.5683594 C60.84375,49.4707031 60.3984375,50.53125 60.3984375,51.75 C60.3984375,52.96875 60.84375,54.0292969 61.734375,54.9316406 C62.625,55.8339844 63.6796875,56.2734375 64.8984375,56.25 Z" transform="translate(606.37 3.129)"/><path d="M0,49.3242188 C0,52.3945312 0.755859375,54.6679688 2.26757812,56.1445312 C3.77929688,57.6210938 6.03515625,58.359375 9.03515625,58.359375 L74.7773438,58.359375 C77.7773438,58.359375 80.0332031,57.6210938 81.5449219,56.1445312 C83.0566406,54.6679688 83.8125,52.3945312 83.8125,49.3242188 L83.8125,9.03515625 C83.8125,5.96484375 83.0566406,3.69140625 81.5449219,2.21484375 C80.0332031,0.73828125 77.7773438,0 74.7773438,0 L9.03515625,0 C6.03515625,0 3.77929688,0.73828125 2.26757812,2.21484375 C0.755859375,3.69140625 0,5.96484375 0,9.03515625 L0,49.3242188 Z M5.66015625,49.2539062 L5.66015625,9.140625 C5.66015625,7.8984375 5.93554688,7.0078125 6.48632812,6.46875 C7.03710938,5.9296875 7.921875,5.66015625 9.140625,5.66015625 L74.671875,5.66015625 C75.8671875,5.66015625 76.7460938,5.9296875 77.3085938,6.46875 C77.8710938,7.0078125 78.1523438,7.8984375 78.1523438,9.140625 L78.1523438,49.2539062 C78.1523438,50.4726562 77.8710938,51.3515625 77.3085938,51.890625 C76.7460938,52.4296875 75.8671875,52.6992188 74.671875,52.6992188 L9.140625,52.6992188 C7.921875,52.6992188 7.03710938,52.4296875 6.48632812,51.890625 C5.93554688,51.3515625 5.66015625,50.4726562 5.66015625,49.2539062 Z M29.8125,66.7265625 L54,66.7265625 L52.6992188,57.9023438 L31.1132812,57.9023438 L29.8125,66.7265625 Z M26.0507812,70.8398438 L58.078125,70.8398438 C58.875,70.8398438 59.5488281,70.5644531 60.0996094,70.0136719 C60.6503906,69.4628906 60.9257812,68.8007812 60.9257812,68.0273438 C60.9257812,67.2304688 60.6503906,66.5507812 60.0996094,65.9882812 C59.5488281,65.4257812 58.875,65.1445312 58.078125,65.1445312 L26.0507812,65.1445312 C25.2773438,65.1445312 24.6152344,65.4257812 24.0644531,65.9882812 C23.5136719,66.5507812 23.2382812,67.2304688 23.2382812,68.0273438 C23.2382812,68.8007812 23.5136719,69.4628906 24.0644531,70.0136719 C24.6152344,70.5644531 25.2773438,70.8398438 26.0507812,70.8398438 Z" transform="translate(4.913)"/><g transform="translate(0 91.612)"><path d="M12.168,0 C8.208,0 5.112,1.332 2.952,4.068 C0.972,6.516 0,9.648 0,13.464 C0,17.28 0.936,20.376 2.88,22.752 C5.004,25.38 8.064,26.712 12.06,26.712 C14.796,26.712 17.172,25.92 19.152,24.372 C21.276,22.716 22.608,20.376 23.184,17.388 L20.34,17.388 C19.836,19.62 18.792,21.312 17.28,22.464 C15.84,23.544 14.112,24.084 12.06,24.084 C9.036,24.084 6.768,23.076 5.184,21.096 C3.672,19.224 2.952,16.668 2.952,13.464 C2.952,10.26 3.708,7.704 5.22,5.76 C6.84,3.672 9.144,2.628 12.132,2.628 C14.148,2.628 15.84,3.096 17.244,4.068 C18.684,5.076 19.62,6.516 19.98,8.388 L22.824,8.388 C22.464,5.832 21.312,3.78 19.368,2.268 C17.424,0.756 15.012,0 12.168,0 Z"/><polygon points="27.504 0 27.504 26.208 30.348 26.208 30.348 0"/><path d="M37.764.576C37.152.576 36.648.756 36.216 1.188 35.784 1.548 35.604 2.052 35.604 2.7 35.604 3.312 35.784 3.816 36.216 4.248 36.648 4.644 37.152 4.86 37.764 4.86 38.376 4.86 38.88 4.644 39.312 4.248 39.744 3.816 39.96 3.312 39.96 2.7 39.96 2.052 39.744 1.548 39.312 1.188 38.88.756 38.376.576 37.764.576ZM36.324 7.596 36.324 26.208 39.204 26.208 39.204 7.596 36.324 7.596ZM52.272 7.092C49.572 7.092 47.448 8.064 45.864 10.008 44.28 11.844 43.524 14.148 43.524 16.884 43.524 19.908 44.316 22.284 45.972 24.084 47.556 25.812 49.716 26.712 52.38 26.712 54.792 26.712 56.772 25.992 58.32 24.624 59.58 23.472 60.408 22.032 60.84 20.232L57.96 20.232C57.492 21.528 56.88 22.5 56.088 23.148 55.152 23.904 53.892 24.3 52.38 24.3 50.616 24.3 49.212 23.724 48.204 22.572 47.196 21.42 46.656 19.8 46.512 17.712L61.2 17.712C61.128 14.472 60.408 11.916 59.04 10.116 57.528 8.1 55.26 7.092 52.272 7.092ZM52.344 9.504C55.872 9.504 57.852 11.484 58.212 15.48L46.584 15.48C46.764 13.644 47.34 12.204 48.348 11.124 49.356 10.044 50.688 9.504 52.344 9.504ZM73.296 7.092C72.072 7.092 70.956 7.38 69.948 7.956 68.94 8.496 68.112 9.288 67.464 10.332L67.464 7.596 64.584 7.596 64.584 26.208 67.464 26.208 67.464 14.976C67.572 13.284 68.112 11.952 69.12 10.944 70.056 10.008 71.172 9.54 72.468 9.54 75.708 9.54 77.364 11.34 77.364 14.976L77.364 26.208 80.244 26.208 80.244 14.76C80.244 9.648 77.904 7.092 73.296 7.092ZM89.676 1.584 86.832 2.772 86.832 7.596 83.088 7.596 83.088 10.008 86.832 10.008 86.832 21.852C86.832 23.256 87.12 24.3 87.732 25.02 88.38 25.812 89.496 26.208 91.008 26.208L93.816 26.208 93.816 23.796 91.44 23.796C90.792 23.796 90.324 23.616 90.072 23.328 89.784 23.04 89.676 22.536 89.676 21.852L89.676 10.008 94.284 10.008 94.284 7.596 89.676 7.596 89.676 1.584Z"/></g><g transform="translate(593.852 91.612)"><path d="M10.08 0C7.416 0 5.22.576 3.528 1.728 1.62 2.952.684 4.716.684 6.948.684 9.108 1.656 10.764 3.636 11.916 4.464 12.348 6.444 13.068 9.54 14.004 12.42 14.832 14.256 15.444 14.976 15.876 16.668 16.776 17.532 18.036 17.532 19.656 17.532 21.024 16.884 22.104 15.588 22.896 14.292 23.688 12.564 24.084 10.476 24.084 8.172 24.084 6.444 23.58 5.256 22.644 3.96 21.6 3.168 19.944 2.916 17.712L0 17.712C.216 20.88 1.332 23.22 3.348 24.768 5.076 26.064 7.452 26.712 10.476 26.712 13.536 26.712 15.948 26.064 17.748 24.804 19.548 23.508 20.448 21.708 20.448 19.476 20.448 17.136 19.368 15.336 17.244 14.04 16.164 13.392 13.932 12.564 10.548 11.556 8.064 10.836 6.48 10.296 5.832 9.936 4.356 9.144 3.636 8.1 3.636 6.804 3.636 5.328 4.248 4.248 5.472 3.528 6.552 2.88 8.028 2.592 9.936 2.592 12.024 2.592 13.644 3.024 14.796 3.96 15.912 4.86 16.632 6.228 16.956 8.1L19.872 8.1C19.62 5.4 18.648 3.348 16.92 1.98 15.264.648 12.96 0 10.08 0ZM31.5 7.092C28.8 7.092 26.676 8.064 25.092 10.008 23.508 11.844 22.752 14.148 22.752 16.884 22.752 19.908 23.544 22.284 25.2 24.084 26.784 25.812 28.944 26.712 31.608 26.712 34.02 26.712 36 25.992 37.548 24.624 38.808 23.472 39.636 22.032 40.068 20.232L37.188 20.232C36.72 21.528 36.108 22.5 35.316 23.148 34.38 23.904 33.12 24.3 31.608 24.3 29.844 24.3 28.44 23.724 27.432 22.572 26.424 21.42 25.884 19.8 25.74 17.712L40.428 17.712C40.356 14.472 39.636 11.916 38.268 10.116 36.756 8.1 34.488 7.092 31.5 7.092ZM31.572 9.504C35.1 9.504 37.08 11.484 37.44 15.48L25.812 15.48C25.992 13.644 26.568 12.204 27.576 11.124 28.584 10.044 29.916 9.504 31.572 9.504ZM51.984 7.092C50.688 7.092 49.572 7.488 48.6 8.28 47.808 8.892 47.16 9.756 46.656 10.836L46.656 7.596 43.812 7.596 43.812 26.208 46.656 26.208 46.656 16.344C46.656 14.616 47.124 13.14 48.132 11.916 49.104 10.62 50.328 10.008 51.768 10.008 52.668 10.008 53.604 10.116 54.54 10.404L54.54 7.524C53.856 7.236 52.992 7.092 51.984 7.092Z"/><polygon points="54.9 7.596 61.92 26.208 64.836 26.208 71.892 7.596 68.724 7.596 63.396 22.608 58.068 7.596"/><path d="M81.972 7.092C79.272 7.092 77.148 8.064 75.564 10.008 73.98 11.844 73.224 14.148 73.224 16.884 73.224 19.908 74.016 22.284 75.672 24.084 77.256 25.812 79.416 26.712 82.08 26.712 84.492 26.712 86.472 25.992 88.02 24.624 89.28 23.472 90.108 22.032 90.54 20.232L87.66 20.232C87.192 21.528 86.58 22.5 85.788 23.148 84.852 23.904 83.592 24.3 82.08 24.3 80.316 24.3 78.912 23.724 77.904 22.572 76.896 21.42 76.356 19.8 76.212 17.712L90.9 17.712C90.828 14.472 90.108 11.916 88.74 10.116 87.228 8.1 84.96 7.092 81.972 7.092ZM82.044 9.504C85.572 9.504 87.552 11.484 87.912 15.48L76.284 15.48C76.464 13.644 77.04 12.204 78.048 11.124 79.056 10.044 80.388 9.504 82.044 9.504ZM102.456 7.092C101.16 7.092 100.044 7.488 99.072 8.28 98.28 8.892 97.632 9.756 97.128 10.836L97.128 7.596 94.284 7.596 94.284 26.208 97.128 26.208 97.128 16.344C97.128 14.616 97.596 13.14 98.604 11.916 99.576 10.62 100.8 10.008 102.24 10.008 103.14 10.008 104.076 10.116 105.012 10.404L105.012 7.524C104.328 7.236 103.464 7.092 102.456 7.092Z"/></g></g></g></svg>