<svg xmlns="http://www.w3.org/2000/svg" width="800" height="200" viewBox="0 0 800 200"><g fill="none" fill-rule="evenodd"><rect width="800" height="200" fill="#1C1C1E"/><g fill="#E5E5EA" fill-rule="nonzero" transform="translate(56.512 41.824)"><g transform="translate(595.06 5.484)"><path d="M79.8398438,25.2421875 L79.8398438,19.9335938 L3.1640625,19.9335938 L3.1640625,25.2421875 L79.8398438,25.2421875 Z M79.8398438,44.7890625 L79.8398438,39.4804688 L3.1640625,39.4804688 L3.1640625,44.7890625 L79.8398438,44.7890625 Z M11.0390625,64.7226562 L71.859375,64.7226562 C75.5625,64.7226562 78.328125,63.8144531 80.15625,61.9980469 C81.984375,60.1816406 82.8984375,57.4570312 82.8984375,53.8242188 L82.8984375,10.8984375 C82.8984375,7.265625 81.984375,4.54101562 80.15625,2.72460938 C78.328125,0.908203125 75.5625,0 71.859375,0 L11.0390625,0 C7.359375,0 4.59960938,0.908203125 2.75976562,2.72460938 C0.919921875,4.54101562 0,7.265625 0,10.8984375 L0,53.8242188 C0,57.4570312 0.919921875,60.1816406 2.75976562,61.9980469 C4.59960938,63.8144531 7.359375,64.7226562 11.0390625,64.7226562 Z M11.109375,59.0625 C9.3515625,59.0625 8.00390625,58.5996094 7.06640625,57.6738281 C6.12890625,56.7480469 5.66015625,55.3710938 5.66015625,53.5429688 L5.66015625,11.1796875 C5.66015625,9.3515625 6.12890625,7.97460938 7.06640625,7.04882812 C8.00390625,6.12304688 9.3515625,5.66015625 11.109375,5.66015625 L71.7890625,5.66015625 C73.5234375,5.66015625 74.8652344,6.12304688 75.8144531,7.04882812 C76.7636719,7.97460938 77.2382812,9.3515625 77.2382812,11.1796875 L77.2382812,53.5429688 C77.2382812,55.3710938 76.7636719,56.7480469 75.8144531,57.6738281 C74.8652344,58.5996094 73.5234375,59.0625 71.7890625,59.0625 L11.109375,59.0625 Z M64.8984375,17.296875 C66.09375,17.2734375 67.1308594,16.8222656 68.0097656,15.9433594 C68.8886719,15.0644531 69.328125,14.015625 69.328125,12.796875 C69.328125,11.578125 68.8886719,10.5175781 68.0097656,9.61523438 C67.1308594,8.71289062 66.09375,8.26171875 64.8984375,8.26171875 C63.6796875,8.26171875 62.625,8.71289062 61.734375,9.61523438 C60.84375,10.5175781 60.3984375,11.578125 60.3984375,12.796875 C60.3984375,14.015625 60.84375,15.0761719 61.734375,15.9785156 C62.625,16.8808594 63.6796875,17.3203125 64.8984375,17.296875 Z M64.8984375,36.7734375 C66.09375,36.75 67.1308594,36.2988281 68.0097656,35.4199219 C68.8886719,34.5410156 69.328125,33.4921875 69.328125,32.2734375 C69.328125,31.0546875 68.8886719,29.9941406 68.0097656,29.0917969 C67.1308594,28.1894531 66.09375,27.7382812 64.8984375,27.7382812 C63.6796875,27.7382812 62.625,28.1894531 61.734375,29.0917969 C60.84375,29.9941406 60.3984375,31.0546875 60.3984375,32.2734375 C60.3984375,33.4921875 60.84375,34.5527344 61.734375,35.4550781 C62.625,36.3574219 63.6796875,36.796875 64.8984375,36.7734375 Z M64.8984375,56.25 C66.09375,56.2265625 67.1308594,55.7753906 68.0097656,54.8964844 C68.8886719,54.0175781 69.328125,52.96875 69.328125,51.75 C69.328125,50.53125 68.8886719,49.4707031 68.0097656,48.5683594 C67.1308594,47.6660156 66.09375,47.2148438 64.8984375,47.2148438 C63.6796875,47.2148438 62.625,47.6660156 61.734375,48.5683594 C60.84375,49.4707031 60.3984375,50.53125 60.3984375,51.75 C60.3984375,52.96875 60.84375,54.0292969 61.734375,54.9316406 C62.625,55.8339844 63.6796875,56.2734375 64.8984375,56.25 Z" transform="translate(7.426)"/><g transform="translate(0 82.904)"><path d="M9.52734375 26.2089844C11.4609375 26.2089844 13.1279297 25.9101562 14.5283203 25.3125 15.9287109 24.7148438 17.0068359 23.8652344 17.7626953 22.7636719 18.5185547 21.6621094 18.8964844 20.3613281 18.8964844 18.8613281L18.8964844 18.84375C18.8964844 16.9101562 18.3164062 15.3837891 17.15625 14.2646484 15.9960938 13.1455078 14.1152344 12.2988281 11.5136719 11.7246094L8.70117188 11.109375C7.04882813 10.7460938 5.83007812 10.2304688 5.04492188 9.5625 4.25976562 8.89453125 3.8671875 8.04492188 3.8671875 7.01367187L3.8671875 6.99609375C3.8671875 6.17578125 4.09863281 5.4609375 4.56152344 4.8515625 5.02441406 4.2421875 5.67773437 3.76757812 6.52148438 3.42773438 7.36523438 3.08789062 8.34960938 2.91796875 9.47460938 2.91796875 10.5527344 2.91796875 11.4990234 3.08203125 12.3134766 3.41015625 13.1279297 3.73828125 13.7871094 4.20703125 14.2910156 4.81640625 14.7949219 5.42578125 15.1113281 6.1640625 15.2402344 7.03125L15.2753906 7.27734375 18.4394531 7.27734375 18.421875 7.01367187C18.328125 5.63085938 17.8916016 4.41210938 17.1123047 3.35742188 16.3330078 2.30273438 15.2929688 1.47949219 13.9921875.887695313 12.6914063.295898438 11.2148438 0 9.5625 0 7.828125 0 6.29003906.301757812 4.94824219.905273438 3.60644531 1.50878906 2.5546875 2.34082031 1.79296875 3.40136719 1.03125 4.46191406.64453125 5.68945312.6328125 7.08398437L.6328125 7.1015625C.6328125 8.953125 1.22753906 10.4501953 2.41699219 11.5927734 3.60644531 12.7353516 5.4375 13.5820312 7.91015625 14.1328125L10.7226562 14.7480469C12.46875 15.1347656 13.7285156 15.6621094 14.5019531 16.3300781 15.2753906 16.9980469 15.6621094 17.8886719 15.6621094 19.0019531L15.6621094 19.0195312C15.6621094 19.8867188 15.4189453 20.6425781 14.9326172 21.2871094 14.4462891 21.9316406 13.7578125 22.4267578 12.8671875 22.7724609 11.9765625 23.1181641 10.921875 23.2910156 9.703125 23.2910156 8.484375 23.2910156 7.40917969 23.1240234 6.47753906 22.7900391 5.54589844 22.4560547 4.79882812 21.9814453 4.23632812 21.3662109 3.67382812 20.7509766 3.328125 20.0214844 3.19921875 19.1777344L3.1640625 18.9316406 0 18.9316406.017578125 19.1777344C.123046875 20.6191406.583007812 21.8671875 1.39746094 22.921875 2.21191406 23.9765625 3.31347656 24.7880859 4.70214844 25.3564453 6.09082031 25.9248047 7.69921875 26.2089844 9.52734375 26.2089844ZM30.0058594 26.1386719C31.0019531 26.1386719 31.9277344 26.0009766 32.7832031 25.7255859 33.6386719 25.4501953 34.4003906 25.0634766 35.0683594 24.5654297 35.7363281 24.0673828 36.2841797 23.4902344 36.7119141 22.8339844 37.1396484 22.1777344 37.4296875 21.4746094 37.5820312 20.7246094L37.6171875 20.5488281 34.6113281 20.5488281 34.5585938 20.7070312C34.3828125 21.234375 34.0898438 21.703125 33.6796875 22.1132812 33.2695312 22.5234375 32.7597656 22.8457031 32.1503906 23.0800781 31.5410156 23.3144531 30.8496094 23.4316406 30.0761719 23.4316406 28.9746094 23.4316406 28.0195312 23.1884766 27.2109375 22.7021484 26.4023438 22.2158203 25.7783203 21.515625 25.3388672 20.6015625 24.8994141 19.6875 24.6796875 18.5859375 24.6796875 17.296875L24.6796875 16.1191406C24.6796875 14.7597656 24.9023438 13.6142578 25.3476562 12.6826172 25.7929688 11.7509766 26.4023438 11.0478516 27.1757812 10.5732422 27.9492188 10.0986328 28.8222656 9.86132812 29.7949219 9.86132812 30.7675781 9.86132812 31.6289062 10.0869141 32.3789062 10.5380859 33.1289062 10.9892578 33.7177734 11.6777344 34.1455078 12.6035156 34.5732422 13.5292969 34.7871094 14.7011719 34.7871094 16.1191406L34.7871094 17.296875 36.3339844 15.0820312 23.1152344 15.0820312 23.1152344 17.4726562 37.8457031 17.4726562 37.8457031 16.3476562C37.8457031 14.5195312 37.5234375 12.9140625 36.8789062 11.53125 36.234375 10.1484375 35.3115234 9.07324219 34.1103516 8.30566406 32.9091797 7.53808594 31.4765625 7.15429688 29.8125 7.15429688 28.1484375 7.15429688 26.7011719 7.55566406 25.4707031 8.35839844 24.2402344 9.16113281 23.2851562 10.2802734 22.6054688 11.7158203 21.9257812 13.1513672 21.5859375 14.8125 21.5859375 16.6992188L21.5859375 16.7167969C21.5859375 18.6269531 21.9228516 20.2880859 22.5966797 21.7001953 23.2705078 23.1123047 24.2373047 24.2050781 25.4970703 24.9785156 26.7568359 25.7519531 28.2597656 26.1386719 30.0058594 26.1386719ZM41.2910156 25.7871094 44.3496094 25.7871094 44.3496094 14.3613281C44.3496094 13.4941406 44.5107422 12.7412109 44.8330078 12.1025391 45.1552734 11.4638672 45.6123047 10.9658203 46.2041016 10.6083984 46.7958984 10.2509766 47.484375 10.0722656 48.2695312 10.0722656 48.6445312 10.0722656 48.9814453 10.0898438 49.2802734 10.125 49.5791016 10.1601562 49.7871094 10.2011719 49.9042969 10.2480469L49.9042969 7.27734375C49.7871094 7.25390625 49.6201172 7.22753906 49.4033203 7.19824219 49.1865234 7.16894531 48.9433594 7.15429688 48.6738281 7.15429688 47.6074219 7.15429688 46.6787109 7.453125 45.8876953 8.05078125 45.0966797 8.6484375 44.5488281 9.45117188 44.2441406 10.4589844L44.1738281 10.4589844 44.1738281 7.50585938 41.2910156 7.50585938 41.2910156 25.7871094Z"/><polygon points="57.902 25.787 61.031 25.787 67.746 7.506 64.564 7.506 59.502 22.535 59.432 22.535 54.387 7.506 51.17 7.506"/><path d="M77.3261719 26.1386719C78.3222656 26.1386719 79.2480469 26.0009766 80.1035156 25.7255859 80.9589844 25.4501953 81.7207031 25.0634766 82.3886719 24.5654297 83.0566406 24.0673828 83.6044922 23.4902344 84.0322266 22.8339844 84.4599609 22.1777344 84.75 21.4746094 84.9023438 20.7246094L84.9375 20.5488281 81.9316406 20.5488281 81.8789062 20.7070312C81.703125 21.234375 81.4101562 21.703125 81 22.1132812 80.5898438 22.5234375 80.0800781 22.8457031 79.4707031 23.0800781 78.8613281 23.3144531 78.1699219 23.4316406 77.3964844 23.4316406 76.2949219 23.4316406 75.3398438 23.1884766 74.53125 22.7021484 73.7226562 22.2158203 73.0986328 21.515625 72.6591797 20.6015625 72.2197266 19.6875 72 18.5859375 72 17.296875L72 16.1191406C72 14.7597656 72.2226562 13.6142578 72.6679688 12.6826172 73.1132812 11.7509766 73.7226562 11.0478516 74.4960938 10.5732422 75.2695312 10.0986328 76.1425781 9.86132812 77.1152344 9.86132812 78.0878906 9.86132812 78.9492188 10.0869141 79.6992188 10.5380859 80.4492188 10.9892578 81.0380859 11.6777344 81.4658203 12.6035156 81.8935547 13.5292969 82.1074219 14.7011719 82.1074219 16.1191406L82.1074219 17.296875 83.6542969 15.0820312 70.4355469 15.0820312 70.4355469 17.4726562 85.1660156 17.4726562 85.1660156 16.3476562C85.1660156 14.5195312 84.84375 12.9140625 84.1992188 11.53125 83.5546875 10.1484375 82.6318359 9.07324219 81.4306641 8.30566406 80.2294922 7.53808594 78.796875 7.15429688 77.1328125 7.15429688 75.46875 7.15429688 74.0214844 7.55566406 72.7910156 8.35839844 71.5605469 9.16113281 70.6054688 10.2802734 69.9257812 11.7158203 69.2460938 13.1513672 68.90625 14.8125 68.90625 16.6992188L68.90625 16.7167969C68.90625 18.6269531 69.2431641 20.2880859 69.9169922 21.7001953 70.5908203 23.1123047 71.5576172 24.2050781 72.8173828 24.9785156 74.0771484 25.7519531 75.5800781 26.1386719 77.3261719 26.1386719ZM88.6113281 25.7871094 91.6699219 25.7871094 91.6699219 14.3613281C91.6699219 13.4941406 91.8310547 12.7412109 92.1533203 12.1025391 92.4755859 11.4638672 92.9326172 10.9658203 93.5244141 10.6083984 94.1162109 10.2509766 94.8046875 10.0722656 95.5898438 10.0722656 95.9648438 10.0722656 96.3017578 10.0898438 96.6005859 10.125 96.8994141 10.1601562 97.1074219 10.2011719 97.2246094 10.2480469L97.2246094 7.27734375C97.1074219 7.25390625 96.9404297 7.22753906 96.7236328 7.19824219 96.5068359 7.16894531 96.2636719 7.15429688 95.9941406 7.15429688 94.9277344 7.15429688 93.9990234 7.453125 93.2080078 8.05078125 92.4169922 8.6484375 91.8691406 9.45117188 91.5644531 10.4589844L91.4941406 10.4589844 91.4941406 7.50585938 88.6113281 7.50585938 88.6113281 25.7871094Z"/></g></g><g transform="translate(0 2.355)"><path d="M0,49.3242188 C0,52.3945312 0.755859375,54.6679688 2.26757812,56.1445312 C3.77929688,57.6210938 6.03515625,58.359375 9.03515625,58.359375 L74.7773438,58.359375 C77.7773438,58.359375 80.0332031,57.6210938 81.5449219,56.1445312 C83.0566406,54.6679688 83.8125,52.3945312 83.8125,49.3242188 L83.8125,9.03515625 C83.8125,5.96484375 83.0566406,3.69140625 81.5449219,2.21484375 C80.0332031,0.73828125 77.7773438,0 74.7773438,0 L9.03515625,0 C6.03515625,0 3.77929688,0.73828125 2.26757812,2.21484375 C0.755859375,3.69140625 0,5.96484375 0,9.03515625 L0,49.3242188 Z M5.66015625,49.2539062 L5.66015625,9.140625 C5.66015625,7.8984375 5.93554688,7.0078125 6.48632812,6.46875 C7.03710938,5.9296875 7.921875,5.66015625 9.140625,5.66015625 L74.671875,5.66015625 C75.8671875,5.66015625 76.7460938,5.9296875 77.3085938,6.46875 C77.8710938,7.0078125 78.1523438,7.8984375 78.1523438,9.140625 L78.1523438,49.2539062 C78.1523438,50.4726562 77.8710938,51.3515625 77.3085938,51.890625 C76.7460938,52.4296875 75.8671875,52.6992188 74.671875,52.6992188 L9.140625,52.6992188 C7.921875,52.6992188 7.03710938,52.4296875 6.48632812,51.890625 C5.93554688,51.3515625 5.66015625,50.4726562 5.66015625,49.2539062 Z M29.8125,66.7265625 L54,66.7265625 L52.6992188,57.9023438 L31.1132812,57.9023438 L29.8125,66.7265625 Z M26.0507812,70.8398438 L58.078125,70.8398438 C58.875,70.8398438 59.5488281,70.5644531 60.0996094,70.0136719 C60.6503906,69.4628906 60.9257812,68.8007812 60.9257812,68.0273438 C60.9257812,67.2304688 60.6503906,66.5507812 60.0996094,65.9882812 C59.5488281,65.4257812 58.875,65.1445312 58.078125,65.1445312 L26.0507812,65.1445312 C25.2773438,65.1445312 24.6152344,65.4257812 24.0644531,65.9882812 C23.5136719,66.5507812 23.2382812,67.2304688 23.2382812,68.0273438 C23.2382812,68.8007812 23.5136719,69.4628906 24.0644531,70.0136719 C24.6152344,70.5644531 25.2773438,70.8398438 26.0507812,70.8398438 Z" transform="translate(1.53)"/><g transform="translate(0 86.033)"><path d="M11.5839844,26.2089844 C13.3535156,26.2089844 14.9589844,25.8808594 16.4003906,25.2246094 C17.8417969,24.5683594 19.0429688,23.6396484 20.0039062,22.4384766 C20.9648438,21.2373047 21.6035156,19.828125 21.9199219,18.2109375 L21.9550781,18.0351562 L18.7558594,18.0351562 L18.703125,18.1933594 C18.3398438,19.3066406 17.8242188,20.2412109 17.15625,20.9970703 C16.4882812,21.7529297 15.6884766,22.3242188 14.7568359,22.7109375 C13.8251953,23.0976562 12.7675781,23.2910156 11.5839844,23.2910156 C9.90820312,23.2910156 8.44335938,22.8691406 7.18945312,22.0253906 C5.93554688,21.1816406 4.96582031,19.9951172 4.28027344,18.4658203 C3.59472656,16.9365234 3.25195312,15.1464844 3.25195312,13.0957031 L3.25195312,13.078125 C3.25195312,11.015625 3.59472656,9.22558594 4.28027344,7.70800781 C4.96582031,6.19042969 5.93261719,5.01269531 7.18066406,4.17480469 C8.42871094,3.33691406 9.89648438,2.91796875 11.5839844,2.91796875 C12.7792969,2.91796875 13.8457031,3.11132812 14.7832031,3.49804688 C15.7207031,3.88476562 16.5146484,4.43847656 17.1650391,5.15917969 C17.8154297,5.87988281 18.3046875,6.75585938 18.6328125,7.78710938 L18.7558594,8.17382812 L21.9550781,8.17382812 L21.9199219,7.99804688 C21.6035156,6.39257812 20.9619141,4.9921875 19.9951172,3.796875 C19.0283203,2.6015625 17.8242188,1.66992188 16.3828125,1.00195312 C14.9414063,0.333984375 13.3417969,0 11.5839844,0 C9.22851562,0 7.18359375,0.536132812 5.44921875,1.60839844 C3.71484375,2.68066406 2.37304688,4.1953125 1.42382812,6.15234375 C0.474609375,8.109375 0,10.4179688 0,13.078125 L0,13.0957031 C0,15.7558594 0.474609375,18.0673828 1.42382812,20.0302734 C2.37304688,21.9931641 3.71777344,23.5136719 5.45800781,24.5917969 C7.19824219,25.6699219 9.24023438,26.2089844 11.5839844,26.2089844 Z"/><polygon points="25.734 25.787 28.793 25.787 28.793 .422 25.734 .422"/><path d="M33.4863281 25.7871094 36.5449219 25.7871094 36.5449219 7.50585938 33.4863281 7.50585938 33.4863281 25.7871094ZM35.015625 4.41210938C35.5546875 4.41210938 36.0087891 4.22460938 36.3779297 3.84960938 36.7470703 3.47460938 36.9316406 3.0234375 36.9316406 2.49609375 36.9316406 1.95703125 36.7470703 1.50292969 36.3779297 1.13378906 36.0087891.764648438 35.5546875.580078125 35.015625.580078125 34.4882812.580078125 34.0371094.764648438 33.6621094 1.13378906 33.2871094 1.50292969 33.0996094 1.95703125 33.0996094 2.49609375 33.0996094 3.0234375 33.2871094 3.47460938 33.6621094 3.84960938 34.0371094 4.22460938 34.4882812 4.41210938 35.015625 4.41210938ZM48.6035156 26.1386719C49.5996094 26.1386719 50.5253906 26.0009766 51.3808594 25.7255859 52.2363281 25.4501953 52.9980469 25.0634766 53.6660156 24.5654297 54.3339844 24.0673828 54.8818359 23.4902344 55.3095703 22.8339844 55.7373047 22.1777344 56.0273438 21.4746094 56.1796875 20.7246094L56.2148438 20.5488281 53.2089844 20.5488281 53.15625 20.7070312C52.9804688 21.234375 52.6875 21.703125 52.2773438 22.1132812 51.8671875 22.5234375 51.3574219 22.8457031 50.7480469 23.0800781 50.1386719 23.3144531 49.4472656 23.4316406 48.6738281 23.4316406 47.5722656 23.4316406 46.6171875 23.1884766 45.8085938 22.7021484 45 22.2158203 44.3759766 21.515625 43.9365234 20.6015625 43.4970703 19.6875 43.2773438 18.5859375 43.2773438 17.296875L43.2773438 16.1191406C43.2773438 14.7597656 43.5 13.6142578 43.9453125 12.6826172 44.390625 11.7509766 45 11.0478516 45.7734375 10.5732422 46.546875 10.0986328 47.4199219 9.86132812 48.3925781 9.86132812 49.3652344 9.86132812 50.2265625 10.0869141 50.9765625 10.5380859 51.7265625 10.9892578 52.3154297 11.6777344 52.7431641 12.6035156 53.1708984 13.5292969 53.3847656 14.7011719 53.3847656 16.1191406L53.3847656 17.296875 54.9316406 15.0820312 41.7128906 15.0820312 41.7128906 17.4726562 56.4433594 17.4726562 56.4433594 16.3476562C56.4433594 14.5195312 56.1210938 12.9140625 55.4765625 11.53125 54.8320312 10.1484375 53.9091797 9.07324219 52.7080078 8.30566406 51.5068359 7.53808594 50.0742188 7.15429688 48.4101562 7.15429688 46.7460938 7.15429688 45.2988281 7.55566406 44.0683594 8.35839844 42.8378906 9.16113281 41.8828125 10.2802734 41.203125 11.7158203 40.5234375 13.1513672 40.1835938 14.8125 40.1835938 16.6992188L40.1835938 16.7167969C40.1835938 18.6269531 40.5205078 20.2880859 41.1943359 21.7001953 41.8681641 23.1123047 42.8349609 24.2050781 44.0947266 24.9785156 45.3544922 25.7519531 46.8574219 26.1386719 48.6035156 26.1386719ZM59.8886719 25.7871094 62.9472656 25.7871094 62.9472656 15.0292969C62.9472656 13.9863281 63.1435547 13.078125 63.5361328 12.3046875 63.9287109 11.53125 64.4824219 10.9306641 65.1972656 10.5029297 65.9121094 10.0751953 66.75 9.86132812 67.7109375 9.86132812 69.1171875 9.86132812 70.1689453 10.2568359 70.8662109 11.0478516 71.5634766 11.8388672 71.9121094 12.9785156 71.9121094 14.4667969L71.9121094 25.7871094 74.9707031 25.7871094 74.9707031 13.921875C74.9707031 11.8359375 74.4169922 10.1865234 73.3095703 8.97363281 72.2021484 7.76074219 70.6464844 7.15429688 68.6425781 7.15429688 67.2597656 7.15429688 66.0996094 7.43261719 65.1621094 7.98925781 64.2246094 8.54589844 63.5097656 9.25195312 63.0175781 10.1074219L62.9472656 10.1074219 62.9472656 7.50585938 59.8886719 7.50585938 59.8886719 25.7871094ZM85.1660156 26.1386719C85.4707031 26.1386719 85.7724609 26.1240234 86.0712891 26.0947266 86.3701172 26.0654297 86.6132812 26.0390625 86.8007812 26.015625L86.8007812 23.5371094C86.671875 23.5488281 86.5224609 23.5634766 86.3525391 23.5810547 86.1826172 23.5986328 86.0039062 23.6074219 85.8164062 23.6074219 84.9960938 23.6074219 84.375 23.4345703 83.953125 23.0888672 83.53125 22.7431641 83.3203125 22.0839844 83.3203125 21.1113281L83.3203125 10.0371094 86.8007812 10.0371094 86.8007812 7.50585938 83.3203125 7.50585938 83.3203125 2.56640625 80.15625 2.56640625 80.15625 7.50585938 77.484375 7.50585938 77.484375 10.0371094 80.15625 10.0371094 80.15625 21.1289062C80.15625 22.875 80.5722656 24.1464844 81.4042969 24.9433594 82.2363281 25.7402344 83.4902344 26.1386719 85.1660156 26.1386719Z"/></g></g><g transform="translate(203.401)"><path d="M33.8203125,70.2773438 L39.4804688,70.2773438 L39.4804688,50.484375 L33.8203125,50.484375 L33.8203125,70.2773438 Z M7.41796875,73.0898438 L65.8828125,73.0898438 C66.65625,73.0898438 67.3242188,72.8144531 67.8867188,72.2636719 C68.4492188,71.7128906 68.7304688,71.0507812 68.7304688,70.2773438 C68.7304688,69.4804688 68.4492188,68.8066406 67.8867188,68.2558594 C67.3242188,67.7050781 66.65625,67.4296875 65.8828125,67.4296875 L7.41796875,67.4296875 C6.64453125,67.4296875 5.98242188,67.7050781 5.43164062,68.2558594 C4.88085938,68.8066406 4.60546875,69.4804688 4.60546875,70.2773438 C4.60546875,71.0507812 4.88085938,71.7128906 5.43164062,72.2636719 C5.98242188,72.8144531 6.64453125,73.0898438 7.41796875,73.0898438 Z M36.6679688,78.2578125 C38.1210938,78.2578125 39.4453125,77.8945312 40.640625,77.1679688 C41.8359375,76.4414062 42.796875,75.4804688 43.5234375,74.2851562 C44.25,73.0898438 44.6132812,71.765625 44.6132812,70.3125 C44.6132812,68.859375 44.25,67.5292969 43.5234375,66.3222656 C42.796875,65.1152344 41.8359375,64.1542969 40.640625,63.4394531 C39.4453125,62.7246094 38.1210938,62.3671875 36.6679688,62.3671875 C35.2148438,62.3671875 33.8847656,62.7246094 32.6777344,63.4394531 C31.4707031,64.1542969 30.5097656,65.1152344 29.7949219,66.3222656 C29.0800781,67.5292969 28.7226562,68.859375 28.7226562,70.3125 C28.7226562,71.765625 29.0800781,73.0898438 29.7949219,74.2851562 C30.5097656,75.4804688 31.4707031,76.4414062 32.6777344,77.1679688 C33.8847656,77.8945312 35.2148438,78.2578125 36.6679688,78.2578125 Z M0,39.6210938 C0,42.3867188 0.65625,44.859375 1.96875,47.0390625 C3.28125,49.21875 5.0859375,50.9355469 7.3828125,52.1894531 C9.6796875,53.4433594 12.28125,54.0703125 15.1875,54.0703125 L59.34375,54.0703125 C62.2734375,54.0703125 64.8808594,53.4433594 67.1660156,52.1894531 C69.4511719,50.9355469 71.25,49.21875 72.5625,47.0390625 C73.875,44.859375 74.53125,42.3867188 74.53125,39.6210938 C74.53125,38.4257812 74.3847656,37.2890625 74.0917969,36.2109375 C73.7988281,35.1328125 73.453125,34.0898438 73.0546875,33.0820312 L62.4726562,7.76953125 C61.4414062,5.23828125 59.8828125,3.31054688 57.796875,1.98632812 C55.7109375,0.662109375 53.203125,0 50.2734375,0 L24.2578125,0 C18.2578125,0 14.1796875,2.58984375 12.0234375,7.76953125 L1.4765625,33.0820312 C1.0546875,34.1132812 0.703125,35.1738281 0.421875,36.2636719 C0.140625,37.3535156 0,38.4726562 0,39.6210938 Z M5.58984375,39.6210938 C5.58984375,37.9101562 6,36.3925781 6.8203125,35.0683594 C7.640625,33.7441406 8.77148438,32.7011719 10.2128906,31.9394531 C11.6542969,31.1777344 13.3125,30.796875 15.1875,30.796875 L59.34375,30.796875 C61.21875,30.796875 62.8769531,31.1777344 64.3183594,31.9394531 C65.7597656,32.7011719 66.890625,33.7441406 67.7109375,35.0683594 C68.53125,36.3925781 68.9414062,37.9101562 68.9414062,39.6210938 C68.9414062,41.4726562 68.5605469,43.0546875 67.7988281,44.3671875 C67.0371094,45.6796875 65.9414062,46.6875 64.5117188,47.390625 C63.0820312,48.09375 61.359375,48.4453125 59.34375,48.4453125 L15.1875,48.4453125 C13.3125,48.4453125 11.6542969,48.0703125 10.2128906,47.3203125 C8.77148438,46.5703125 7.640625,45.5332031 6.8203125,44.2089844 C6,42.8847656 5.58984375,41.3554688 5.58984375,39.6210938 Z M10.8984375,25.875 L17.4726562,9.28125 C18.6210938,6.3984375 20.9765625,4.95703125 24.5390625,4.95703125 L50.0273438,4.95703125 C53.5898438,4.95703125 55.9453125,6.3984375 57.09375,9.28125 L63.6679688,25.875 C62.9882812,25.640625 62.2910156,25.4707031 61.5761719,25.3652344 C60.8613281,25.2597656 60.1171875,25.2070312 59.34375,25.2070312 L15.1875,25.2070312 C14.4375,25.2070312 13.7050781,25.2597656 12.9902344,25.3652344 C12.2753906,25.4707031 11.578125,25.640625 10.8984375,25.875 Z M55.125,39.6210938 C55.125,40.7929688 55.5292969,41.7832031 56.3378906,42.5917969 C57.1464844,43.4003906 58.1367188,43.8046875 59.3085938,43.8046875 C60.4335938,43.78125 61.40625,43.3652344 62.2265625,42.5566406 C63.046875,41.7480469 63.4570312,40.7695312 63.4570312,39.6210938 C63.4570312,38.5195312 63.046875,37.5527344 62.2265625,36.7207031 C61.40625,35.8886719 60.4335938,35.4726562 59.3085938,35.4726562 C58.1835938,35.4726562 57.2050781,35.8886719 56.3730469,36.7207031 C55.5410156,37.5527344 55.125,38.5195312 55.125,39.6210938 Z" transform="translate(3.269)"/><g transform="translate(0 88.81)"><path d="M1.58203125 16.3125 9.03515625 16.3125C10.6289062 16.3125 12.0351562 15.9667969 13.2539062 15.2753906 14.4726562 14.5839844 15.4306641 13.6230469 16.1279297 12.3925781 16.8251953 11.1621094 17.1738281 9.74414062 17.1738281 8.13867188L17.1738281 8.10351562C17.1738281 6.49804688 16.8251953 5.0859375 16.1279297 3.8671875 15.4306641 2.6484375 14.4726562 1.69921875 13.2539062 1.01953125 12.0351562.33984375 10.6289062 0 9.03515625 0L1.58203125 0 1.58203125 2.8125 8.2265625 2.8125C10.0429688 2.8125 11.4492188 3.28125 12.4453125 4.21875 13.4414062 5.15625 13.9394531 6.46289062 13.9394531 8.13867188L13.9394531 8.17382812C13.9394531 9.83789062 13.4414062 11.1416016 12.4453125 12.0849609 11.4492188 13.0283203 10.0429688 13.5 8.2265625 13.5L1.58203125 13.5 1.58203125 16.3125ZM0 25.3652344 3.1640625 25.3652344 3.1640625 0 0 0 0 25.3652344ZM20.6894531 25.3652344 23.7480469 25.3652344 23.7480469 13.9394531C23.7480469 13.0722656 23.9091797 12.3193359 24.2314453 11.6806641 24.5537109 11.0419922 25.0107422 10.5439453 25.6025391 10.1865234 26.1943359 9.82910156 26.8828125 9.65039062 27.6679688 9.65039062 28.0429688 9.65039062 28.3798828 9.66796875 28.6787109 9.703125 28.9775391 9.73828125 29.1855469 9.77929688 29.3027344 9.82617188L29.3027344 6.85546875C29.1855469 6.83203125 29.0185547 6.80566406 28.8017578 6.77636719 28.5849609 6.74707031 28.3417969 6.73242188 28.0722656 6.73242188 27.0058594 6.73242188 26.0771484 7.03125 25.2861328 7.62890625 24.4951172 8.2265625 23.9472656 9.02929688 23.6425781 10.0371094L23.5722656 10.0371094 23.5722656 7.08398438 20.6894531 7.08398438 20.6894531 25.3652344ZM38.8476562 25.7167969C40.5351562 25.7167969 42.0117188 25.3300781 43.2773438 24.5566406 44.5429688 23.7832031 45.5302734 22.6875 46.2392578 21.2695312 46.9482422 19.8515625 47.3027344 18.1699219 47.3027344 16.2246094L47.3027344 16.1894531C47.3027344 14.2441406 46.9482422 12.5654297 46.2392578 11.1533203 45.5302734 9.74121094 44.5400391 8.65136719 43.2685547 7.88378906 41.9970703 7.11621094 40.5175781 6.73242188 38.8300781 6.73242188 37.1542969 6.73242188 35.6806641 7.11621094 34.4091797 7.88378906 33.1376953 8.65136719 32.1474609 9.74121094 31.4384766 11.1533203 30.7294922 12.5654297 30.375 14.2441406 30.375 16.1894531L30.375 16.2246094C30.375 18.1582031 30.7294922 19.8369141 31.4384766 21.2607422 32.1474609 22.6845703 33.1376953 23.7832031 34.4091797 24.5566406 35.6806641 25.3300781 37.1601562 25.7167969 38.8476562 25.7167969ZM38.8652344 23.0097656C37.7871094 23.0097656 36.8466797 22.7431641 36.0439453 22.2099609 35.2412109 21.6767578 34.6171875 20.9033203 34.171875 19.8896484 33.7265625 18.8759766 33.5039062 17.6542969 33.5039062 16.2246094L33.5039062 16.1894531C33.5039062 14.7597656 33.7265625 13.5439453 34.171875 12.5419922 34.6171875 11.5400391 35.2412109 10.7724609 36.0439453 10.2392578 36.8466797 9.70605469 37.7753906 9.43945312 38.8300781 9.43945312 39.9082031 9.43945312 40.8486328 9.703125 41.6513672 10.2304688 42.4541016 10.7578125 43.0751953 11.5253906 43.5146484 12.5332031 43.9541016 13.5410156 44.1738281 14.7597656 44.1738281 16.1894531L44.1738281 16.2246094C44.1738281 17.6542969 43.9541016 18.8759766 43.5146484 19.8896484 43.0751953 20.9033203 42.4599609 21.6767578 41.6689453 22.2099609 40.8779297 22.7431641 39.9433594 23.0097656 38.8652344 23.0097656Z"/><polygon points="48.094 25.365 51.486 25.365 55.898 18.404 55.969 18.404 60.346 25.365 63.738 25.365 57.656 16.102 63.826 7.084 60.416 7.084 56.074 13.939 56.004 13.939 51.609 7.084 48.199 7.084 54.316 16.225"/><path d="M68.5019531,31.5175781 C69.6035156,31.5175781 70.5351562,31.3417969 71.296875,30.9902344 C72.0585938,30.6386719 72.7089844,30.09375 73.2480469,29.3554688 C73.7871094,28.6171875 74.2734375,27.6679688 74.7070312,26.5078125 L81.84375,7.08398438 L78.6269531,7.08398438 L73.3359375,23.0097656 L73.9863281,22.3066406 L73.0722656,22.3066406 L73.7226562,23.0097656 L68.4492188,7.08398438 L65.1796875,7.08398438 L71.9648438,25.3828125 L71.5957031,26.4199219 C71.2324219,27.4511719 70.7607422,28.1367188 70.1806641,28.4765625 C69.6005859,28.8164062 68.8242188,28.9863281 67.8515625,28.9863281 C67.6640625,28.9863281 67.4853516,28.9746094 67.3154297,28.9511719 C67.1455078,28.9277344 66.9960938,28.9042969 66.8671875,28.8808594 L66.8671875,31.3769531 C67.0664062,31.4121094 67.3154297,31.4443359 67.6142578,31.4736328 C67.9130859,31.5029297 68.2089844,31.5175781 68.5019531,31.5175781 Z"/></g></g><g transform="translate(403.401)"><path d="M33.8203125,70.2773438 L39.4804688,70.2773438 L39.4804688,50.484375 L33.8203125,50.484375 L33.8203125,70.2773438 Z M7.41796875,73.0898438 L65.8828125,73.0898438 C66.65625,73.0898438 67.3242188,72.8144531 67.8867188,72.2636719 C68.4492188,71.7128906 68.7304688,71.0507812 68.7304688,70.2773438 C68.7304688,69.4804688 68.4492188,68.8066406 67.8867188,68.2558594 C67.3242188,67.7050781 66.65625,67.4296875 65.8828125,67.4296875 L7.41796875,67.4296875 C6.64453125,67.4296875 5.98242188,67.7050781 5.43164062,68.2558594 C4.88085938,68.8066406 4.60546875,69.4804688 4.60546875,70.2773438 C4.60546875,71.0507812 4.88085938,71.7128906 5.43164062,72.2636719 C5.98242188,72.8144531 6.64453125,73.0898438 7.41796875,73.0898438 Z M36.6679688,78.2578125 C38.1210938,78.2578125 39.4453125,77.8945312 40.640625,77.1679688 C41.8359375,76.4414062 42.796875,75.4804688 43.5234375,74.2851562 C44.25,73.0898438 44.6132812,71.765625 44.6132812,70.3125 C44.6132812,68.859375 44.25,67.5292969 43.5234375,66.3222656 C42.796875,65.1152344 41.8359375,64.1542969 40.640625,63.4394531 C39.4453125,62.7246094 38.1210938,62.3671875 36.6679688,62.3671875 C35.2148438,62.3671875 33.8847656,62.7246094 32.6777344,63.4394531 C31.4707031,64.1542969 30.5097656,65.1152344 29.7949219,66.3222656 C29.0800781,67.5292969 28.7226562,68.859375 28.7226562,70.3125 C28.7226562,71.765625 29.0800781,73.0898438 29.7949219,74.2851562 C30.5097656,75.4804688 31.4707031,76.4414062 32.6777344,77.1679688 C33.8847656,77.8945312 35.2148438,78.2578125 36.6679688,78.2578125 Z M0,39.6210938 C0,42.3867188 0.65625,44.859375 1.96875,47.0390625 C3.28125,49.21875 5.0859375,50.9355469 7.3828125,52.1894531 C9.6796875,53.4433594 12.28125,54.0703125 15.1875,54.0703125 L59.34375,54.0703125 C62.2734375,54.0703125 64.8808594,53.4433594 67.1660156,52.1894531 C69.4511719,50.9355469 71.25,49.21875 72.5625,47.0390625 C73.875,44.859375 74.53125,42.3867188 74.53125,39.6210938 C74.53125,38.4257812 74.3847656,37.2890625 74.0917969,36.2109375 C73.7988281,35.1328125 73.453125,34.0898438 73.0546875,33.0820312 L62.4726562,7.76953125 C61.4414062,5.23828125 59.8828125,3.31054688 57.796875,1.98632812 C55.7109375,0.662109375 53.203125,0 50.2734375,0 L24.2578125,0 C18.2578125,0 14.1796875,2.58984375 12.0234375,7.76953125 L1.4765625,33.0820312 C1.0546875,34.1132812 0.703125,35.1738281 0.421875,36.2636719 C0.140625,37.3535156 0,38.4726562 0,39.6210938 Z M5.58984375,39.6210938 C5.58984375,37.9101562 6,36.3925781 6.8203125,35.0683594 C7.640625,33.7441406 8.77148438,32.7011719 10.2128906,31.9394531 C11.6542969,31.1777344 13.3125,30.796875 15.1875,30.796875 L59.34375,30.796875 C61.21875,30.796875 62.8769531,31.1777344 64.3183594,31.9394531 C65.7597656,32.7011719 66.890625,33.7441406 67.7109375,35.0683594 C68.53125,36.3925781 68.9414062,37.9101562 68.9414062,39.6210938 C68.9414062,41.4726562 68.5605469,43.0546875 67.7988281,44.3671875 C67.0371094,45.6796875 65.9414062,46.6875 64.5117188,47.390625 C63.0820312,48.09375 61.359375,48.4453125 59.34375,48.4453125 L15.1875,48.4453125 C13.3125,48.4453125 11.6542969,48.0703125 10.2128906,47.3203125 C8.77148438,46.5703125 7.640625,45.5332031 6.8203125,44.2089844 C6,42.8847656 5.58984375,41.3554688 5.58984375,39.6210938 Z M10.8984375,25.875 L17.4726562,9.28125 C18.6210938,6.3984375 20.9765625,4.95703125 24.5390625,4.95703125 L50.0273438,4.95703125 C53.5898438,4.95703125 55.9453125,6.3984375 57.09375,9.28125 L63.6679688,25.875 C62.9882812,25.640625 62.2910156,25.4707031 61.5761719,25.3652344 C60.8613281,25.2597656 60.1171875,25.2070312 59.34375,25.2070312 L15.1875,25.2070312 C14.4375,25.2070312 13.7050781,25.2597656 12.9902344,25.3652344 C12.2753906,25.4707031 11.578125,25.640625 10.8984375,25.875 Z M55.125,39.6210938 C55.125,40.7929688 55.5292969,41.7832031 56.3378906,42.5917969 C57.1464844,43.4003906 58.1367188,43.8046875 59.3085938,43.8046875 C60.4335938,43.78125 61.40625,43.3652344 62.2265625,42.5566406 C63.046875,41.7480469 63.4570312,40.7695312 63.4570312,39.6210938 C63.4570312,38.5195312 63.046875,37.5527344 62.2265625,36.7207031 C61.40625,35.8886719 60.4335938,35.4726562 59.3085938,35.4726562 C58.1835938,35.4726562 57.2050781,35.8886719 56.3730469,36.7207031 C55.5410156,37.5527344 55.125,38.5195312 55.125,39.6210938 Z" transform="translate(3.269)"/><g transform="translate(0 88.81)"><path d="M1.58203125 16.3125 9.03515625 16.3125C10.6289062 16.3125 12.0351562 15.9667969 13.2539062 15.2753906 14.4726562 14.5839844 15.4306641 13.6230469 16.1279297 12.3925781 16.8251953 11.1621094 17.1738281 9.74414062 17.1738281 8.13867188L17.1738281 8.10351562C17.1738281 6.49804688 16.8251953 5.0859375 16.1279297 3.8671875 15.4306641 2.6484375 14.4726562 1.69921875 13.2539062 1.01953125 12.0351562.33984375 10.6289062 0 9.03515625 0L1.58203125 0 1.58203125 2.8125 8.2265625 2.8125C10.0429688 2.8125 11.4492188 3.28125 12.4453125 4.21875 13.4414062 5.15625 13.9394531 6.46289062 13.9394531 8.13867188L13.9394531 8.17382812C13.9394531 9.83789062 13.4414062 11.1416016 12.4453125 12.0849609 11.4492188 13.0283203 10.0429688 13.5 8.2265625 13.5L1.58203125 13.5 1.58203125 16.3125ZM0 25.3652344 3.1640625 25.3652344 3.1640625 0 0 0 0 25.3652344ZM20.6894531 25.3652344 23.7480469 25.3652344 23.7480469 13.9394531C23.7480469 13.0722656 23.9091797 12.3193359 24.2314453 11.6806641 24.5537109 11.0419922 25.0107422 10.5439453 25.6025391 10.1865234 26.1943359 9.82910156 26.8828125 9.65039062 27.6679688 9.65039062 28.0429688 9.65039062 28.3798828 9.66796875 28.6787109 9.703125 28.9775391 9.73828125 29.1855469 9.77929688 29.3027344 9.82617188L29.3027344 6.85546875C29.1855469 6.83203125 29.0185547 6.80566406 28.8017578 6.77636719 28.5849609 6.74707031 28.3417969 6.73242188 28.0722656 6.73242188 27.0058594 6.73242188 26.0771484 7.03125 25.2861328 7.62890625 24.4951172 8.2265625 23.9472656 9.02929688 23.6425781 10.0371094L23.5722656 10.0371094 23.5722656 7.08398438 20.6894531 7.08398438 20.6894531 25.3652344ZM38.8476562 25.7167969C40.5351562 25.7167969 42.0117188 25.3300781 43.2773438 24.5566406 44.5429688 23.7832031 45.5302734 22.6875 46.2392578 21.2695312 46.9482422 19.8515625 47.3027344 18.1699219 47.3027344 16.2246094L47.3027344 16.1894531C47.3027344 14.2441406 46.9482422 12.5654297 46.2392578 11.1533203 45.5302734 9.74121094 44.5400391 8.65136719 43.2685547 7.88378906 41.9970703 7.11621094 40.5175781 6.73242188 38.8300781 6.73242188 37.1542969 6.73242188 35.6806641 7.11621094 34.4091797 7.88378906 33.1376953 8.65136719 32.1474609 9.74121094 31.4384766 11.1533203 30.7294922 12.5654297 30.375 14.2441406 30.375 16.1894531L30.375 16.2246094C30.375 18.1582031 30.7294922 19.8369141 31.4384766 21.2607422 32.1474609 22.6845703 33.1376953 23.7832031 34.4091797 24.5566406 35.6806641 25.3300781 37.1601562 25.7167969 38.8476562 25.7167969ZM38.8652344 23.0097656C37.7871094 23.0097656 36.8466797 22.7431641 36.0439453 22.2099609 35.2412109 21.6767578 34.6171875 20.9033203 34.171875 19.8896484 33.7265625 18.8759766 33.5039062 17.6542969 33.5039062 16.2246094L33.5039062 16.1894531C33.5039062 14.7597656 33.7265625 13.5439453 34.171875 12.5419922 34.6171875 11.5400391 35.2412109 10.7724609 36.0439453 10.2392578 36.8466797 9.70605469 37.7753906 9.43945312 38.8300781 9.43945312 39.9082031 9.43945312 40.8486328 9.703125 41.6513672 10.2304688 42.4541016 10.7578125 43.0751953 11.5253906 43.5146484 12.5332031 43.9541016 13.5410156 44.1738281 14.7597656 44.1738281 16.1894531L44.1738281 16.2246094C44.1738281 17.6542969 43.9541016 18.8759766 43.5146484 19.8896484 43.0751953 20.9033203 42.4599609 21.6767578 41.6689453 22.2099609 40.8779297 22.7431641 39.9433594 23.0097656 38.8652344 23.0097656Z"/><polygon points="48.094 25.365 51.486 25.365 55.898 18.404 55.969 18.404 60.346 25.365 63.738 25.365 57.656 16.102 63.826 7.084 60.416 7.084 56.074 13.939 56.004 13.939 51.609 7.084 48.199 7.084 54.316 16.225"/><path d="M68.5019531,31.5175781 C69.6035156,31.5175781 70.5351562,31.3417969 71.296875,30.9902344 C72.0585938,30.6386719 72.7089844,30.09375 73.2480469,29.3554688 C73.7871094,28.6171875 74.2734375,27.6679688 74.7070312,26.5078125 L81.84375,7.08398438 L78.6269531,7.08398438 L73.3359375,23.0097656 L73.9863281,22.3066406 L73.0722656,22.3066406 L73.7226562,23.0097656 L68.4492188,7.08398438 L65.1796875,7.08398438 L71.9648438,25.3828125 L71.5957031,26.4199219 C71.2324219,27.4511719 70.7607422,28.1367188 70.1806641,28.4765625 C69.6005859,28.8164062 68.8242188,28.9863281 67.8515625,28.9863281 C67.6640625,28.9863281 67.4853516,28.9746094 67.3154297,28.9511719 C67.1455078,28.9277344 66.9960938,28.9042969 66.8671875,28.8808594 L66.8671875,31.3769531 C67.0664062,31.4121094 67.3154297,31.4443359 67.6142578,31.4736328 C67.9130859,31.5029297 68.2089844,31.5175781 68.5019531,31.5175781 Z"/></g></g><path d="M87.6128931-6C87.7425407-6 87.8704078-5.96981468 87.9863681-5.91183453L87.9863681-5.91183453 100.315954.252958649C100.728483.459223163 100.895694.960854444 100.689429 1.37338347 100.608621 1.53500118 100.477572 1.66604956 100.315954 1.74685841L100.315954 1.74685841 87.9863681 7.91165159C87.573839 8.1179161 87.0722078 7.95070568 86.8659433 7.53817665 86.8079631 7.42221634 86.7777778 7.29434927 86.7777778 7.16470171L86.7777778 7.16470171 86.777 2 0 2C-.55228475 2-1 1.55228475-1 1-1 .487164161-.61395981.0644928393-.116621125.00672773133L0 0 86.777 0 86.7777778-5.16488464C86.7777778-5.59062754 87.0963619-5.94196113 87.508138-5.99349327ZM12.3871069 34C12.8483283 34 13.2222222 34.3738939 13.2222222 34.8351154L13.2222222 34.8351154 13.222 40 100 40C100.552285 40 101 40.4477153 101 41 101 41.5128358 100.61396 41.9355072 100.116621 41.9932723L100 42 13.222 42 13.2222222 47.1647017C13.2222222 47.2511334 13.2088065 47.3367738 13.1826834 47.4186225L13.1340567 47.5381766C12.9277922 47.9507057 12.426161 48.1179161 12.0136319 47.9116516L12.0136319 47.9116516-.315954425 41.7468584C-.477572131 41.6660496-.608620514 41.5350012-.689429366 41.3733835-.895693881 40.9608544-.728483454 40.4592232-.315954425 40.2529586L-.315954425 40.2529586 12.0136319 34.0881655C12.1295922 34.0301853 12.2574593 34 12.3871069 34ZM287.612893-6C287.742541-6 287.870408-5.96981468 287.986368-5.91183453L287.986368-5.91183453 300.315954.252958649C300.728483.459223163 300.895694.960854444 300.689429 1.37338347 300.608621 1.53500118 300.477572 1.66604956 300.315954 1.74685841L300.315954 1.74685841 287.986368 7.91165159C287.573839 8.1179161 287.072208 7.95070568 286.865943 7.53817665 286.807963 7.42221634 286.777778 7.29434927 286.777778 7.16470171L286.777778 7.16470171 286.777 2 200 2C199.447715 2 199 1.55228475 199 1 199 .487164161 199.38604.0644928393 199.883379.00672773133L200 0 286.777 0 286.777778-5.16488464C286.777778-5.59062754 287.096362-5.94196113 287.508138-5.99349327ZM212.387107 34C212.848328 34 213.222222 34.3738939 213.222222 34.8351154L213.222222 34.8351154 213.222 40 300 40C300.552285 40 301 40.4477153 301 41 301 41.5128358 300.61396 41.9355072 300.116621 41.9932723L300 42 213.222 42 213.222222 47.1647017C213.222222 47.2511334 213.208807 47.3367738 213.182683 47.4186225L213.134057 47.5381766C212.927792 47.9507057 212.426161 48.1179161 212.013632 47.9116516L212.013632 47.9116516 199.684046 41.7468584C199.522428 41.6660496 199.391379 41.5350012 199.310571 41.3733835 199.104306 40.9608544 199.271517 40.4592232 199.684046 40.2529586L199.684046 40.2529586 212.013632 34.0881655C212.129592 34.0301853 212.257459 34 212.387107 34ZM487.612893-6C487.742541-6 487.870408-5.96981468 487.986368-5.91183453L487.986368-5.91183453 500.315954.252958649C500.728483.459223163 500.895694.960854444 500.689429 1.37338347 500.608621 1.53500118 500.477572 1.66604956 500.315954 1.74685841L500.315954 1.74685841 487.986368 7.91165159C487.573839 8.1179161 487.072208 7.95070568 486.865943 7.53817665 486.807963 7.42221634 486.777778 7.29434927 486.777778 7.16470171L486.777778 7.16470171 486.777 2 400 2C399.447715 2 399 1.55228475 399 1 399 .487164161 399.38604.0644928393 399.883379.00672773133L400 0 486.777 0 486.777778-5.16488464C486.777778-5.59062754 487.096362-5.94196113 487.508138-5.99349327ZM412.387107 34C412.848328 34 413.222222 34.3738939 413.222222 34.8351154L413.222222 34.8351154 413.222 40 500 40C500.552285 40 501 40.4477153 501 41 501 41.5128358 500.61396 41.9355072 500.116621 41.9932723L500 42 413.222 42 413.222222 47.1647017C413.222222 47.2511334 413.208807 47.3367738 413.182683 47.4186225L413.134057 47.5381766C412.927792 47.9507057 412.426161 48.1179161 412.013632 47.9116516L412.013632 47.9116516 399.684046 41.7468584C399.522428 41.6660496 399.391379 41.5350012 399.310571 41.3733835 399.104306 40.9608544 399.271517 40.4592232 399.684046 40.2529586L399.684046 40.2529586 412.013632 34.0881655C412.129592 34.0301853 412.257459 34 412.387107 34Z" transform="translate(93.488 17.176)"/></g></g></svg>