<svg xmlns="http://www.w3.org/2000/svg" width="800" height="450" viewBox="0 0 800 450"><g fill="none" fill-rule="evenodd"><rect width="800" height="450" fill="#FFF"/><rect width="199" height="199" x=".5" y=".5" fill="#FC0" fill-opacity=".25" stroke="#2C2C2E"/><rect width="199" height="199" x="200.5" y=".5" fill="#FF9500" fill-opacity=".25" stroke="#2C2C2E"/><rect width="199" height="99" x="400.5" y=".5" fill="#FF3B30" fill-opacity=".25" stroke="#2C2C2E"/><rect width="599" height="99" x=".5" y="200.5" fill="#FFF" stroke="#2C2C2E"/><rect width="399" height="99" x="200.5" y="300.5" fill="#BFDEFF" stroke="#2C2C2E"/><rect width="199" height="99" x="400.5" y="100.5" fill="#FF2D55" fill-opacity=".25" stroke="#2C2C2E"/><rect width="199" height="49" x=".5" y="300.5" fill="#BFDEFF" stroke="#2C2C2E"/><rect width="199" height="49" x=".5" y="350.5" fill="#BFDEFF" stroke="#2C2C2E"/><rect width="599" height="49" x=".5" y="400.5" fill="#BFDEFF" stroke="#2C2C2E"/><rect width="199" height="449" x="600.5" y=".5" fill="#E5E5EA" stroke="#2C2C2E"/><path fill="#2C2C2E" fill-rule="nonzero" d="M635.689544,4.58609829 L635.747041,4.68404557 L641.911835,17.0136319 C641.969815,17.1295922 642,17.2574593 642,17.3871069 C642,17.8128498 641.681416,18.1641834 641.26964,18.2157155 L641.164885,18.2222222 L636,18.222 L636,281.777 L641.164885,281.777778 C641.590628,281.777778 641.941961,282.096362 641.993493,282.508138 L642,282.612893 C642,282.742541 641.969815,282.870408 641.911835,282.986368 L641.911835,282.986368 L635.747041,295.315954 C635.540777,295.728483 635.039146,295.895694 634.626617,295.689429 C634.464999,295.608621 634.33395,295.477572 634.253142,295.315954 L634.253142,295.315954 L628.088348,282.986368 C627.882084,282.573839 628.049294,282.072208 628.461823,281.865943 C628.577784,281.807963 628.705651,281.777778 628.835298,281.777778 L628.835298,281.777778 L634,281.777 L634,18.222 L628.835298,18.2222222 C628.748867,18.2222222 628.663226,18.2088065 628.581378,18.1826834 L628.461823,18.1340567 C628.083672,17.9449809 627.911656,17.507715 628.044489,17.118398 L628.088348,17.0136319 L634.253142,4.68404557 C634.33395,4.52242787 634.464999,4.39137949 634.626617,4.31057063 C635.004768,4.12149483 635.45779,4.24624172 635.689544,4.58609829 Z"/><g fill="#2C2C2E" fill-rule="nonzero" transform="translate(69.567 92.09)"><polygon points="0 16.91 2.109 16.91 2.109 9.211 11.391 9.211 11.391 16.91 13.5 16.91 13.5 0 11.391 0 11.391 7.313 2.109 7.313 2.109 0 0 0"/><polygon points="21.338 16.91 23.447 16.91 23.447 1.898 28.8 1.898 28.8 0 15.984 0 15.984 1.898 21.338 1.898"/><polygon points="31.285 16.91 33.254 16.91 33.254 3.871 34.227 3.871 31.929 .469 38.726 16.91 40.507 16.91 47.307 .469 45.006 3.871 45.98 3.871 45.98 16.91 47.949 16.91 47.949 0 45.509 0 39.663 14.224 39.571 14.224 33.725 0 31.285 0"/><polygon points="51.488 16.91 61.754 16.91 61.754 15.012 53.597 15.012 53.597 0 51.488 0"/></g><path fill="#2C2C2E" fill-rule="nonzero" d="M7.67578125 17.5151367C8.85974121 17.5151367 9.93182373 17.297821 10.8920288 16.8631897 11.8522339 16.4285583 12.6512451 15.8143921 13.2890625 15.0206909 13.9268799 14.2269897 14.3491211 13.2953491 14.5557861 12.225769L14.5750122 12.1256104 12.4421997 12.1256104 12.4090576 12.2162476C12.1796875 12.9413452 11.8430481 13.553009 11.3991394 14.051239 10.9552307 14.549469 10.4209595 14.927124 9.79632568 15.1842041 9.17169189 15.4412842 8.46484375 15.5698242 7.67578125 15.5698242 6.56433105 15.5698242 5.59454346 15.2885742 4.76641846 14.7260742 3.93829346 14.1635742 3.29818726 13.3714905 2.84609985 12.349823 2.39401245 11.3281555 2.16796875 10.130188 2.16796875 8.75592041L2.16796875 8.7421875C2.16796875 7.35998535 2.39401245 6.16125488 2.84609985 5.14599609 3.29818726 4.1307373 3.93667603 3.34347534 4.76156616 2.78421021 5.5864563 2.22494507 6.55712891 1.9453125 7.67358398 1.9453125 8.46765137 1.9453125 9.17825317 2.07705688 9.8053894 2.34054565 10.4325256 2.60403442 10.9639587 2.98025513 11.3996887 3.46920776 11.8354187 3.9581604 12.15979 4.54998779 12.3728027 5.24468994L12.4421997 5.45983887 14.5728149 5.45983887 14.5557861 5.35968018C14.3533936 4.28790283 13.9309998 3.35110474 13.2886047 2.54928589 12.6462097 1.74746704 11.8434753 1.12213135 10.8804016.673278809 9.91732788.22442627 8.84838867 0 7.67358398 0 6.11047363 0 4.75469971.357757568 3.60626221 1.07327271 2.45782471 1.78878784 1.56967163 2.80032349.941802979 4.10787964.313934326 5.41543579 0 6.96020508 0 8.7421875L0 8.75592041C0 10.536438.313934326 12.0820618.941802979 13.3927917 1.56967163 14.7035217 2.45977783 15.7182617 3.61212158 16.4370117 4.76446533 17.1557617 6.11901855 17.5151367 7.67578125 17.5151367ZM22.8548291 17.5151367C24.1381543 17.5151367 25.24698 17.3141479 26.1813061 16.9121704 27.1156323 16.5101929 27.8358166 15.9391785 28.3418591 15.1991272 28.8479016 14.4590759 29.1009228 13.5841064 29.1009228 12.5742188L29.1009228 12.5625C29.1009228 11.2861328 28.7156079 10.2752686 27.944978 9.52990723 27.1743481 8.7845459 25.9190381 8.21972656 24.1790478 7.83544922L22.3040478 7.42327881C21.1939404 7.17962646 20.3793042 6.83374023 19.8601391 6.38562012 19.3409741 5.9375 19.0813916 5.37109375 19.0813916 4.68640137L19.0813916 4.67468262C19.0813916 4.1192627 19.2377942 3.63806152 19.5505993 3.2310791 19.8634045 2.82409668 20.3010571 2.50805664 20.8635571 2.28295898 21.4260571 2.05786133 22.0780957 1.9453125 22.8196728 1.9453125 23.5412304 1.94384766 24.1738598 2.05319214 24.717561 2.27334595 25.2612622 2.49349976 25.7003491 2.80493164 26.0348217 3.2076416 26.3692944 3.61035156 26.5788281 4.09368896 26.6634228 4.65765381L26.6868603 4.81951904 28.7962353 4.81951904 28.7845166 4.64593506C28.7233593 3.73822021 28.4337475 2.93493652 27.9156811 2.23608398 27.3976147 1.53723145 26.7049878.989837646 25.8378003.593902588 24.9706128.197967529 23.9841015 0 22.8782666 0 21.7205517 0 20.6944287.201507568 19.7998974.604522705 18.9053662 1.00753784 18.2045605 1.56362915 17.6974804 2.27279663 17.1904004 2.98196411 16.9329541 3.80212402 16.9251416 4.73327637L16.9251416 4.74499512C16.9251416 5.97790527 17.3194897 6.97735596 18.108186 7.74334717 18.8968823 8.50933838 20.1197217 9.07666016 21.7767041 9.4453125L23.6517041 9.85546875C24.8157666 10.1132812 25.6556103 10.4680176 26.1712353 10.9196777 26.6868603 11.3713379 26.9446728 11.9647217 26.9446728 12.6998291L26.9446728 12.7115479C26.9446728 13.2883301 26.7807629 13.7922668 26.4529431 14.2233582 26.1251233 14.6544495 25.6640027 14.9866333 25.0695813 15.2199097 24.4751599 15.453186 23.7759717 15.5698242 22.9720166 15.5698242 22.1595166 15.5698242 21.4412854 15.4581604 20.817323 15.2348328 20.1933606 15.0115051 19.6935132 14.6947632 19.3177807 14.2846069 18.9420483 13.8744507 18.714082 13.3881226 18.6338818 12.8256226L18.6126416 12.6679688 16.5032666 12.6679688 16.5149853 12.8256226C16.5881054 13.7780151 16.895448 14.6061401 17.4370129 15.3099976 17.9785779 16.013855 18.7115185 16.5573425 19.6358349 16.9404602 20.5601513 17.3235779 21.6331494 17.5151367 22.8548291 17.5151367ZM37.35519 17.5151367C38.6385152 17.5151367 39.7473409 17.3141479 40.6816671 16.9121704 41.6159933 16.5101929 42.3361776 15.9391785 42.8422201 15.1991272 43.3482625 14.4590759 43.6012838 13.5841064 43.6012838 12.5742188L43.6012838 12.5625C43.6012838 11.2861328 43.2159688 10.2752686 42.445339 9.52990723 41.6747091 8.7845459 40.419399 8.21972656 38.6794088 7.83544922L36.8044088 7.42327881C35.6943014 7.17962646 34.8796651 6.83374023 34.3605001 6.38562012 33.8413351 5.9375 33.5817525 5.37109375 33.5817525 4.68640137L33.5817525 4.67468262C33.5817525 4.1192627 33.7381551 3.63806152 34.0509603 3.2310791 34.3637655 2.82409668 34.8014181 2.50805664 35.3639181 2.28295898 35.9264181 2.05786133 36.5784566 1.9453125 37.3200338 1.9453125 38.0415914 1.94384766 38.6742208 2.05319214 39.217922 2.27334595 39.7616231 2.49349976 40.2007101 2.80493164 40.5351827 3.2076416 40.8696554 3.61035156 41.0791891 4.09368896 41.1637838 4.65765381L41.1872213 4.81951904 43.2965963 4.81951904 43.2848775 4.64593506C43.2237203 3.73822021 42.9341085 2.93493652 42.4160421 2.23608398 41.8979757 1.53723145 41.2053487.989837646 40.3381612.593902588 39.4709737.197967529 38.4844625 0 37.3786275 0 36.2209127 0 35.1947896.201507568 34.3002584.604522705 33.4057271 1.00753784 32.7049215 1.56362915 32.1978414 2.27279663 31.6907613 2.98196411 31.433315 3.80212402 31.4255025 4.73327637L31.4255025 4.74499512C31.4255025 5.97790527 31.8198507 6.97735596 32.608547 7.74334717 33.3972433 8.50933838 34.6200826 9.07666016 36.277065 9.4453125L38.152065 9.85546875C39.3161275 10.1132812 40.1559713 10.4680176 40.6715963 10.9196777 41.1872213 11.3713379 41.4450338 11.9647217 41.4450338 12.6998291L41.4450338 12.7115479C41.4450338 13.2883301 41.2811239 13.7922668 40.9533041 14.2233582 40.6254842 14.6544495 40.1643636 14.9866333 39.5699422 15.2199097 38.9755208 15.453186 38.2763326 15.5698242 37.4723775 15.5698242 36.6598775 15.5698242 35.9416463 15.4581604 35.3176839 15.2348328 34.6937215 15.0115051 34.1938741 14.6947632 33.8181417 14.2846069 33.4424093 13.8744507 33.214443 13.3881226 33.1342428 12.8256226L33.1130025 12.6679688 31.0036275 12.6679688 31.0153463 12.8256226C31.0884664 13.7780151 31.3958089 14.6061401 31.9373739 15.3099976 32.4789388 16.013855 33.2118795 16.5573425 34.1361959 16.9404602 35.0605123 17.3235779 36.1335104 17.5151367 37.35519 17.5151367Z" transform="translate(278.245 91.787)"/><g fill="#2C2C2E" fill-rule="nonzero" transform="translate(451.35 41.956)"><polygon points="4.605 17.044 6.598 17.044 10.527 3.534 10.59 3.534 14.52 17.044 16.512 17.044 21.117 .134 18.914 .134 15.512 13.995 15.448 13.995 11.625 .134 9.492 .134 5.669 13.995 5.605 13.995 2.203 .134 0 .134"/><path d="M27.0127573 17.2765503C27.69098 17.2765503 28.31775 17.1840515 28.8930674 16.999054 29.4683847 16.8140564 29.9779673 16.5562439 30.4218149 16.2256165 30.8656626 15.894989 31.2294626 15.5141296 31.5132151 15.0830383 31.7969675 14.651947 31.9903574 14.1928101 32.0933847 13.7056274L32.1168222 13.5926514 30.1065073 13.5926514 30.0691538 13.6981201C29.9534311 14.03125 29.7588511 14.3316956 29.4854136 14.5994568 29.2119761 14.867218 28.870698 15.0792236 28.4615793 15.2354736 28.0524607 15.3917236 27.585145 15.4698486 27.0596323 15.4698486 26.31952 15.4698486 25.6777964 15.3063049 25.1344614 14.9792175 24.5911264 14.6521301 24.171937 14.181427 23.876893 13.5671082 23.5818491 12.9527893 23.4343271 12.2124023 23.4343271 11.3459473L23.4343271 10.5563965C23.4343271 9.64306641 23.5841684 8.87338257 23.8838511 8.24734497 24.1835337 7.62130737 24.5929575 7.14865112 25.1121225 6.82937622 25.6312876 6.51010132 26.2179575 6.35046387 26.8721323 6.35046387 27.526185 6.35046387 28.1053476 6.50228882 28.6096201 6.80593872 29.1138926 7.10958862 29.509675 7.57211304 29.7969675 8.19351196 30.08426 8.81491089 30.2279062 9.60253906 30.2279062 10.5563965L30.2279062 11.3459473 31.2549448 9.8671875 22.3933725 9.8671875 22.3933725 11.4673462 32.269166 11.4673462 32.269166 10.7087402C32.269166 9.48291016 32.0532541 8.40658569 31.6214304 7.47976685 31.1896067 6.552948 30.5711679 5.83187866 29.7661142 5.31655884 28.9610605 4.80123901 28.0003061 4.5435791 26.8838511 4.5435791 25.7687387 4.5435791 24.7981882 4.81295776 23.9721994 5.35171509 23.1462107 5.89047241 22.5055857 6.64083862 22.0503244 7.60281372 21.5950632 8.56478882 21.3674326 9.67895508 21.3674326 10.9453125L21.3674326 10.9570312C21.3674326 12.2390137 21.5934763 13.3535461 22.0455637 14.3006287 22.4976511 15.2477112 23.1457529 15.9804688 23.9898691 16.4989014 24.8339853 17.017334 25.8416147 17.2765503 27.0127573 17.2765503ZM40.6916592 17.2765503C41.736459 17.2765503 42.6489346 17.0150146 43.429086 16.4919434 44.2092373 15.9688721 44.8148892 15.2298889 45.2460415 14.2749939 45.6771939 13.3200989 45.8927701 12.1992188 45.8927701 10.9123535L45.8927701 10.8984375C45.8927701 9.61010742 45.675607 8.490448 45.2412808 7.53945923 44.8069546 6.58847046 44.2028897 5.85140991 43.429086 5.32827759 42.6552823 4.80514526 41.7523892 4.5435791 40.7204068 4.5435791 39.859689 4.5435791 39.0869839 4.74636841 38.4022915 5.15194702 37.7175992 5.55752563 37.1873868 6.10900879 36.8116543 6.80639648L36.7393277 6.80639648 36.7393277 0 34.7002652 0 34.7002652 17.0443726 36.7393277 17.0443726 36.7393277 14.9904785 36.8116543 14.9904785C37.1959317 15.6999512 37.7199185 16.2583313 38.3836148 16.6656189 39.0473111 17.0729065 39.8166592 17.2765503 40.6916592 17.2765503ZM40.2804043 15.4718628C39.5787442 15.4718628 38.9601529 15.2836609 38.4246304 14.9072571 37.8891079 14.5308533 37.4713223 14.0003357 37.1712735 13.3157043 36.8712246 12.631073 36.7212002 11.8299561 36.7212002 10.9123535L36.7212002 10.8984375C36.7212002 9.97937012 36.8728421 9.17947388 37.1761258 8.49874878 37.4794095 7.81802368 37.8971951 7.28942871 38.4294827 6.91296387 38.9617703 6.53649902 39.5787442 6.3482666 40.2804043 6.3482666 41.0091641 6.3482666 41.637399 6.53292847 42.1651089 6.9022522 42.6928189 7.27157593 43.098367 7.79501343 43.3817532 8.4725647 43.6651394 9.15011597 43.8068326 9.95874023 43.8068326 10.8984375L43.8068326 10.9123535C43.8068326 11.8504639 43.6651394 12.6618652 43.3817532 13.3465576 43.098367 14.03125 42.6928189 14.5566406 42.1651089 14.9227295 41.637399 15.2888184 41.0091641 15.4718628 40.2804043 15.4718628ZM52.4989007 17.0443726 54.7137444 17.0443726 59.7879632 2.70172119 60.3504632 2.70172119 60.3504632.134216309 58.7812493.134216309 52.4989007 17.0443726ZM55.371093 12.2045288 64.2857659 12.2045288 63.5912468 10.4115601 56.0656121 10.4115601 55.371093 12.2045288ZM64.9249871 17.0443726 67.1398308 17.0443726 60.8671868.134216309 59.8604729.134216309 59.8604729 2.70172119 64.9249871 17.0443726ZM70.3859797 11.0092163 75.4186335 11.0092163C76.4811335 11.0092163 77.4186335 10.7787476 78.2311335 10.3178101 79.0436335 9.85687256 79.6823053 9.21624756 80.1471491 8.39593506 80.6119928 7.57562256 80.8444147 6.63031006 80.8444147 5.55999756L80.8444147 5.53656006C80.8444147 4.46624756 80.6119928 3.52484131 80.1471491 2.71234131 79.6823053 1.89984131 79.0436335 1.26702881 78.2311335.813903809 77.4186335.360778809 76.4811335.134216309 75.4186335.134216309L70.3859797.134216309 70.3859797 2.00921631 74.879571 2.00921631C76.0905085 2.00921631 77.0280085 2.32171631 77.692071 2.94671631 78.3561335 3.57171631 78.6881647 4.44281006 78.6881647 5.55999756L78.6881647 5.58343506C78.6881647 6.69281006 78.3561335 7.56195068 77.692071 8.19085693 77.0280085 8.81976318 76.0905085 9.13421631 74.879571 9.13421631L70.3859797 9.13421631 70.3859797 11.0092163ZM69.3312922 17.0443726 71.4406672 17.0443726 71.4406672.134216309 69.3312922.134216309 69.3312922 17.0443726Z"/><polygon points="83.516 17.044 85.626 17.044 85.626 .134 83.516 .134"/><path d="M93.1853871,17.2765503 C94.1015248,17.2765503 94.921288,17.1211853 95.6446767,16.8104553 C96.3680654,16.4997253 96.9380422,16.0684509 97.3546071,15.5166321 C97.771172,14.9648132 97.9794545,14.329895 97.9794545,13.6118774 L97.9794545,13.5979614 C97.9794545,12.7236938 97.7219777,12.0250244 97.2070241,11.5019531 C96.6920705,10.9788818 95.8216786,10.5695801 94.5958486,10.2740479 L92.6600575,9.80529785 C91.9754872,9.63842773 91.481194,9.41116333 91.1771779,9.12350464 C90.8731618,8.83584595 90.7211537,8.48358154 90.7211537,8.06671143 L90.7211537,8.05297852 C90.7211537,7.69067383 90.8200612,7.37368774 91.0178761,7.10202026 C91.2156911,6.83035278 91.4971242,6.61923218 91.8621755,6.46865845 C92.2272267,6.31808472 92.6565785,6.24279785 93.1502309,6.24279785 C93.9093862,6.24279785 94.5128713,6.41824341 94.9606862,6.76913452 C95.4085011,7.12002563 95.676476,7.58380127 95.7646108,8.16046143 L95.7741323,8.22766113 L97.7300649,8.22766113 L97.7205434,8.10296631 C97.6651235,7.42181396 97.4444203,6.81295776 97.058434,6.27639771 C96.6724477,5.73983765 96.1472402,5.31689453 95.4828115,5.00756836 C94.8183827,4.69824219 94.0415273,4.5435791 93.152245,4.5435791 C92.2744374,4.5435791 91.4944386,4.69735718 90.8122487,5.00491333 C90.1300588,5.31246948 89.5966725,5.73721313 89.21209,6.27914429 C88.8275075,6.82107544 88.6352162,7.44360352 88.6352162,8.14672852 L88.6352162,8.15844727 C88.6352162,9.0390625 88.9157643,9.75405884 89.4768605,10.3034363 C90.0379567,10.8528137 90.8955922,11.2648926 92.049767,11.5396729 L93.9875722,12.0084229 C94.6985097,12.1832275 95.1939015,12.4066162 95.4737477,12.6785889 C95.7535939,12.9505615 95.893517,13.3046265 95.893517,13.7407837 L95.893517,13.7545166 C95.893517,14.1246338 95.7844777,14.4465942 95.5663991,14.7203979 C95.3483205,14.9942017 95.0400624,15.2054749 94.6416249,15.3542175 C94.2431874,15.5029602 93.7652211,15.5773315 93.207726,15.5773315 C92.3838735,15.5773315 91.7379384,15.4092102 91.2699208,15.0729675 C90.8019032,14.7367249 90.501122,14.2717285 90.3675771,13.6779785 L90.348351,13.5820312 L88.3006825,13.5820312 L88.3103871,13.6682739 C88.3948598,14.3892212 88.6411061,15.0202942 89.0491261,15.5614929 C89.4571462,16.1026917 90.0109487,16.5238342 90.7105336,16.8249207 C91.4101186,17.1260071 92.2350698,17.2765503 93.1853871,17.2765503 Z"/></g><g fill="#2C2C2E" fill-rule="nonzero" transform="translate(446.54 141.787)"><path d="M4.76953125 17.5151367C6.33203125 17.5151367 7.55273438 17.065918 8.43164062 16.1674805 9.31054688 15.269043 9.75 14.019043 9.75 12.4174805L9.75.302490234 7.640625.302490234 7.640625 12.394043C7.640625 13.425293 7.39453125 14.2124023 6.90234375 14.7553711 6.41015625 15.2983398 5.6953125 15.5698242 4.7578125 15.5698242 4.203125 15.5698242 3.73828125 15.4624023 3.36328125 15.2475586 2.98828125 15.0327148 2.69921875 14.7475586 2.49609375 14.3920898 2.29296875 14.0366211 2.16796875 13.6479492 2.12109375 13.2260742L2.109375 13.1088867 0 13.1088867.01171875 13.2729492C.07421875 14.0776367.294921875 14.800293.673828125 15.440918 1.05273438 16.081543 1.5859375 16.5874023 2.2734375 16.9584961 2.9609375 17.3295898 3.79296875 17.5151367 4.76953125 17.5151367ZM16.3369932 17.4448242C16.8881407 17.4448242 17.4067869 17.3551636 17.8929319 17.1758423 18.379077 16.996521 18.8163939 16.7426147 19.2048826 16.4141235 19.5933714 16.0856323 19.9076719 15.6987305 20.1477842 15.253418L20.2201109 15.253418 20.2201109 17.2126465 22.2591734 17.2126465 22.2591734 8.74639893C22.2591734 7.92254639 22.0688353 7.20895386 21.688159 6.60562134 21.3074827 6.00228882 20.7661314 5.53582764 20.064105 5.20623779 19.3620787 4.87664795 18.524188 4.71185303 17.5504332 4.71185303 16.6071959 4.71185303 15.787219 4.86972046 15.0905027 5.18545532 14.3937864 5.50119019 13.8439207 5.92788696 13.4409056 6.46554565 13.0378904 7.00320435 12.8008604 7.60723877 12.7298155 8.27764893L12.7180967 8.39593506 14.6996641 8.39593506 14.7209044 8.30328369C14.8466368 7.76629639 15.1500731 7.33425903 15.6312132 7.00717163 16.1123533 6.68008423 16.7414122 6.51654053 17.5183897 6.51654053 18.387042 6.51654053 19.054492 6.72802734 19.5207396 7.15100098 19.9869871 7.57397461 20.2201109 8.16009521 20.2201109 8.90936279L20.2201109 12.5689087C20.2201109 13.1576538 20.0690184 13.6871033 19.7668333 14.1572571 19.4646482 14.6274109 19.0552244 14.9979553 18.5385618 15.2688904 18.0218992 15.5398254 17.4382505 15.675293 16.7876158 15.675293 16.0532408 15.675293 15.4614439 15.5023499 15.0122252 15.1564636 14.5630064 14.8105774 14.338397 14.3397217 14.338397 13.7438965L14.338397 13.720459C14.338397 13.1402588 14.5623045 12.6782837 15.0101194 12.3345337 15.4579344 11.9907837 16.1015806 11.7947388 16.9410582 11.7463989L21.2396421 11.484375 21.2396421 9.89373779 16.7044859 10.1557617C15.2933531 10.2353516 14.1985655 10.5871277 13.4201231 11.2110901 12.6416807 11.8350525 12.2524595 12.6743774 12.2524595 13.7290649L12.2524595 13.7525024C12.2524595 14.4924927 12.4252195 15.1405334 12.7707396 15.6966248 13.1162596 16.2527161 13.5962095 16.6831055 14.2105894 16.987793 14.8249693 17.2924805 15.5337706 17.4448242 16.3369932 17.4448242Z"/><polygon points="28.5 17.213 30.582 17.213 35.094 4.944 32.967 4.944 29.577 15.034 29.505 15.034 26.124 4.944 23.978 4.944"/><path d="M40.2272737 17.4448242C40.7784212 17.4448242 41.2970674 17.3551636 41.7832124 17.1758423 42.2693574 16.996521 42.7066743 16.7426147 43.0951631 16.4141235 43.4836519 16.0856323 43.7979524 15.6987305 44.0380647 15.253418L44.1103914 15.253418 44.1103914 17.2126465 46.1494539 17.2126465 46.1494539 8.74639893C46.1494539 7.92254639 45.9591157 7.20895386 45.5784395 6.60562134 45.1977632 6.00228882 44.6564119 5.53582764 43.9543855 5.20623779 43.2523592 4.87664795 42.4144685 4.71185303 41.4407136 4.71185303 40.4974763 4.71185303 39.6774995 4.86972046 38.9807832 5.18545532 38.2840669 5.50119019 37.7342012 5.92788696 37.3311861 6.46554565 36.9281709 7.00320435 36.6911409 7.60723877 36.620096 8.27764893L36.6083772 8.39593506 38.5899446 8.39593506 38.6111848 8.30328369C38.7369173 7.76629639 39.0403535 7.33425903 39.5214937 7.00717163 40.0026338 6.68008423 40.6316926 6.51654053 41.4086702 6.51654053 42.2773225 6.51654053 42.9447725 6.72802734 43.41102 7.15100098 43.8772676 7.57397461 44.1103914 8.16009521 44.1103914 8.90936279L44.1103914 12.5689087C44.1103914 13.1576538 43.9592988 13.6871033 43.6571138 14.1572571 43.3549287 14.6274109 42.9455049 14.9979553 42.4288423 15.2688904 41.9121797 15.5398254 41.328531 15.675293 40.6778963 15.675293 39.9435213 15.675293 39.3517244 15.5023499 38.9025056 15.1564636 38.4532869 14.8105774 38.2286775 14.3397217 38.2286775 13.7438965L38.2286775 13.720459C38.2286775 13.1402588 38.452585 12.6782837 38.9003999 12.3345337 39.3482149 11.9907837 39.9918611 11.7947388 40.8313386 11.7463989L45.1299226 11.484375 45.1299226 9.89373779 40.5947664 10.1557617C39.1836336 10.2353516 38.088846 10.5871277 37.3104036 11.2110901 36.5319612 11.8350525 36.14274 12.6743774 36.14274 13.7290649L36.14274 13.7525024C36.14274 14.4924927 36.3155 15.1405334 36.66102 15.6966248 37.0065401 16.2527161 37.48649 16.6831055 38.1008699 16.987793 38.7152498 17.2924805 39.424051 17.4448242 40.2272737 17.4448242ZM54.8555596 17.5151367C56.1388848 17.5151367 57.2477105 17.3141479 58.1820366 16.9121704 59.1163628 16.5101929 59.8365471 15.9391785 60.3425896 15.1991272 60.8486321 14.4590759 61.1016533 13.5841064 61.1016533 12.5742188L61.1016533 12.5625C61.1016533 11.2861328 60.7163384 10.2752686 59.9457085 9.52990723 59.1750786 8.7845459 57.9197686 8.21972656 56.1797783 7.83544922L54.3047783 7.42327881C53.1946709 7.17962646 52.3800347 6.83374023 51.8608696 6.38562012 51.3417046 5.9375 51.0821221 5.37109375 51.0821221 4.68640137L51.0821221 4.67468262C51.0821221 4.1192627 51.2385247 3.63806152 51.5513299 3.2310791 51.864135 2.82409668 52.3017876 2.50805664 52.8642876 2.28295898 53.4267876 2.05786133 54.0788262 1.9453125 54.8204033 1.9453125 55.541961 1.94384766 56.1745903 2.05319214 56.7182915 2.27334595 57.2619927 2.49349976 57.7010796 2.80493164 58.0355523 3.2076416 58.3700249 3.61035156 58.5795586 4.09368896 58.6641533 4.65765381L58.6875908 4.81951904 60.7969658 4.81951904 60.7852471 4.64593506C60.7240899 3.73822021 60.434478 2.93493652 59.9164116 2.23608398 59.3983452 1.53723145 58.7057183.989837646 57.8385308.593902588 56.9713433.197967529 55.984832 0 54.8789971 0 53.7212822 0 52.6951592.201507568 51.8006279.604522705 50.9060967 1.00753784 50.205291 1.56362915 49.698211 2.27279663 49.1911309 2.98196411 48.9336846 3.80212402 48.9258721 4.73327637L48.9258721 4.74499512C48.9258721 5.97790527 49.3202202 6.97735596 50.1089165 7.74334717 50.8976128 8.50933838 52.1204522 9.07666016 53.7774346 9.4453125L55.6524346 9.85546875C56.8164971 10.1132812 57.6563408 10.4680176 58.1719658 10.9196777 58.6875908 11.3713379 58.9454033 11.9647217 58.9454033 12.6998291L58.9454033 12.7115479C58.9454033 13.2883301 58.7814934 13.7922668 58.4536736 14.2233582 58.1258538 14.6544495 57.6647332 14.9866333 57.0703118 15.2199097 56.4758904 15.453186 55.7767022 15.5698242 54.9727471 15.5698242 54.1602471 15.5698242 53.4420159 15.4581604 52.8180535 15.2348328 52.1940911 15.0115051 51.6942437 14.6947632 51.3185112 14.2846069 50.9427788 13.8744507 50.7148125 13.3881226 50.6346123 12.8256226L50.6133721 12.6679688 48.5039971 12.6679688 48.5157158 12.8256226C48.588836 13.7780151 48.8961785 14.6061401 49.4377434 15.3099976 49.9793084 16.013855 50.712249 16.5573425 51.6365654 16.9404602 52.5608819 17.3235779 53.6338799 17.5151367 54.8555596 17.5151367ZM68.5888917 17.4448242C69.5277345 17.4448242 70.3581483 17.265686 71.0801332 16.9074097 71.8021181 16.5491333 72.3898256 16.0622864 72.8432558 15.4468689 73.2966859 14.8314514 73.5837648 14.1384277 73.7044923 13.3677979L73.7184083 13.2773438 71.7123048 13.2793579 71.6888673 13.3688965C71.5056398 14.0528564 71.1524904 14.6023865 70.6294191 15.0174866 70.1063478 15.4325867 69.4254396 15.6401367 68.5866945 15.6401367 67.8750246 15.6401367 67.2498415 15.4576111 66.7111452 15.0925598 66.1724489 14.7275085 65.7523439 14.2051392 65.4508302 13.5254517 65.1493165 12.8457642 64.9985597 12.0311279 64.9985597 11.081543L64.9985597 11.0678101C64.9985597 10.1401978 65.1473634 9.33636475 65.4449708 8.65631104 65.7425783 7.97625732 66.1591432 7.44961548 66.6946657 7.0763855 67.2301881 6.70315552 67.8544557 6.51654053 68.5674684 6.51654053 69.4673707 6.51654053 70.1738832 6.74490356 70.6870058 7.20162964 71.2001283 7.65835571 71.5316408 8.19281006 71.6815431 8.80499268L71.7027833 8.88812256 73.7013795 8.88812256 73.6896608 8.79858398C73.5966432 8.09338379 73.3386476 7.43005371 72.915674 6.80859375 72.4927003 6.18713379 71.9165285 5.68231201 71.1871583 5.29412842 70.4577882 4.90594482 69.5845582 4.71185303 68.5674684 4.71185303 67.4325807 4.71185303 66.4411256 4.97146606 65.5931032 5.49069214 64.7450807 6.00991821 64.0863283 6.74429321 63.6168458 7.69381714 63.1473634 8.64334106 62.9126222 9.76159668 62.9126222 11.048584L62.9126222 11.0625C62.9126222 12.3599854 63.1445253 13.4865417 63.6083314 14.4421692 64.0721376 15.3977966 64.7296388 16.137146 65.5808351 16.6602173 66.4320314 17.1832886 67.4347169 17.4448242 68.5888917 17.4448242ZM75.8661268 17.2126465 77.9051893 17.2126465 77.9051893 9.55718994C77.9051893 8.97186279 78.0190198 8.46313477 78.246681 8.03100586 78.4743421 7.59887695 78.7950208 7.26187134 79.2087171 7.01998901 79.6224134 6.77810669 80.1023328 6.65716553 80.6484754 6.65716553 80.8942029 6.65716553 81.1166761 6.66854858 81.3158948 6.6913147 81.5151136 6.71408081 81.6658704 6.74176025 81.7681653 6.77435303L81.7681653 4.79388428C81.6857679 4.77825928 81.5680311 4.76068115 81.4149549 4.7411499 81.2618787 4.72161865 81.0940931 4.71185303 80.911598 4.71185303 80.1751478 4.71185303 79.5386121 4.90823364 79.001991 5.30099487 78.4653699 5.6937561 78.0919569 6.22540283 77.8817518 6.89593506L77.8094251 6.89593506 77.8094251 4.94421387 75.8661268 4.94421387 75.8661268 17.2126465ZM83.7625265 17.2126465 85.801589 17.2126465 85.801589 4.94421387 83.7625265 4.94421387 83.7625265 17.2126465ZM84.7840719 2.81341553C85.1491842 2.81341553 85.4572592 2.6859436 85.7082968 2.43099976 85.9593344 2.17605591 86.0848532 1.86993408 86.0848532 1.51263428 86.0848532 1.14764404 85.9593344.839599609 85.7082968.588500977 85.4572592.337402344 85.1491842.211853027 84.7840719.211853027 84.4268942.211853027 84.1208029.337402344 83.865798.588500977 83.6107931.839599609 83.4832907 1.14764404 83.4832907 1.51263428 83.4832907 1.86993408 83.6107931 2.17605591 83.865798 2.43099976 84.1208029 2.6859436 84.4268942 2.81341553 84.7840719 2.81341553ZM88.8430595 21.3354492 90.882122 21.3354492 90.882122 15.1821899 90.9546318 15.1821899C91.2081718 15.6480103 91.5290031 16.0497742 91.9171257 16.3874817 92.3052483 16.7251892 92.7503777 16.9858398 93.2525139 17.1694336 93.7546501 17.3530273 94.2916069 17.4448242 94.8633842 17.4448242 95.8953667 17.4448242 96.7982292 17.1832886 97.5719719 16.6602173 98.3457146 16.137146 98.949749 15.400116 99.3840752 14.4491272 99.8184013 13.4981384 100.035564 12.378479 100.035564 11.0901489L100.035564 11.0762329C100.035564 9.78936768 99.8200188 8.66882324 99.3889275 7.71459961 98.9578362 6.76037598 98.3521843 6.0213623 97.5719719 5.49755859 96.7917595 4.97375488 95.8793144 4.71185303 94.8346367 4.71185303 94.2550468 4.71185303 93.7184563 4.80490112 93.224865 4.99099731 92.7312737 5.17709351 92.2939568 5.43936157 91.9129143 5.77780151 91.5318718 6.11624146 91.2124443 6.52301025 90.9546318 6.99810791L90.882122 6.99810791 90.882122 4.94421387 88.8430595 4.94421387 88.8430595 21.3354492ZM94.4233818 15.6401367C93.7215996 15.6401367 93.1045647 15.4519348 92.5722771 15.075531 92.0399895 14.6991272 91.6222038 14.1701965 91.3189201 13.488739 91.0156364 12.8072815 90.8639946 12.0077515 90.8639946 11.0901489L90.8639946 11.0762329C90.8639946 10.1508179 91.0140495 9.3477478 91.3141594 8.66702271 91.6142693 7.98629761 92.0320549 7.45770264 92.5675163 7.08123779 93.1029778 6.70477295 93.7215996 6.51654053 94.4233818 6.51654053 95.1520195 6.51654053 95.7801933 6.69961548 96.3079033 7.06576538 96.8356133 7.43191528 97.2411613 7.95535278 97.5245476 8.63607788 97.8079338 9.31680298 97.9496269 10.130188 97.9496269 11.0762329L97.9496269 11.0901489C97.9496269 12.0219116 97.8079338 12.8285217 97.5245476 13.5099792 97.2411613 14.1914368 96.8356133 14.7168274 96.3079033 15.0861511 95.7801933 15.4554749 95.1520195 15.6401367 94.4233818 15.6401367ZM106.420194 17.4213867C106.623319 17.4213867 106.824125 17.4112854 107.022611 17.3910828 107.221097 17.3708801 107.389249 17.3515015 107.527066 17.3329468L107.527066 15.6657715C107.422696 15.6750488 107.312436 15.6851807 107.196286 15.696167 107.080137 15.7071533 106.954618 15.7126465 106.81973 15.7126465 106.252958 15.7126465 105.828946 15.5888977 105.547696 15.3414001 105.266446 15.0939026 105.125821 14.6373901 105.125821 13.9718628L105.125821 6.63171387 107.527066 6.63171387 107.527066 4.94421387 105.125821 4.94421387 105.125821 1.65545654 103.016446 1.65545654 103.016446 4.94421387 101.196744 4.94421387 101.196744 6.63171387 103.016446 6.63171387 103.016446 14.0751343C103.016446 15.2463989 103.296262 16.0969238 103.855893 16.626709 104.415525 17.1564941 105.270292 17.4213867 106.420194 17.4213867Z"/></g><g fill="#2C2C2E" fill-rule="nonzero" transform="translate(671.767 141.956)"><polygon points="5.353 17.044 7.463 17.044 7.463 2.033 12.816 2.033 12.816 .134 0 .134 0 2.033 5.353 2.033"/><path d="M15.102313 17.0443726 17.1413755 17.0443726 17.1413755 9.86499023C17.1413755 9.16113281 17.2729368 8.54678345 17.5360594 8.02194214 17.7991819 7.49710083 18.1688414 7.08694458 18.6450377 6.79147339 19.1212339 6.4960022 19.6761045 6.3482666 20.3096495 6.3482666 21.2727842 6.3482666 22.0153379 6.65084839 22.5373106 7.25601196 23.0592833 7.86117554 23.3202696 8.71807861 23.3202696 9.82672119L23.3202696 17.0443726 25.3593321 17.0443726 25.3593321 9.44952393C25.3593321 8.46234131 25.1778746 7.60192871 24.8149595 6.86828613 24.4520445 6.13464355 23.9440489 5.56378174 23.2909727 5.15570068 22.6378965 4.74761963 21.8706846 4.5435791 20.989337 4.5435791 20.0788145 4.5435791 19.303607 4.73394775 18.6637144 5.11468506 18.0238218 5.49542236 17.5404844 6.02807617 17.2137022 6.71264648L17.1413755 6.71264648 17.1413755 0 15.102313 0 15.102313 17.0443726ZM33.2589247 17.2765503C33.9371474 17.2765503 34.5639174 17.1840515 35.1392348 16.999054 35.7145522 16.8140564 36.2241347 16.5562439 36.6679823 16.2256165 37.11183 15.894989 37.47563 15.5141296 37.7593825 15.0830383 38.0431349 14.651947 38.2365248 14.1928101 38.3395522 13.7056274L38.3629897 13.5926514 36.3526747 13.5926514 36.3153212 13.6981201C36.1995986 14.03125 36.0050185 14.3316956 35.731581 14.5994568 35.4581435 14.867218 35.1168654 15.0792236 34.7077467 15.2354736 34.2986281 15.3917236 33.8313124 15.4698486 33.3057997 15.4698486 32.5656874 15.4698486 31.9239638 15.3063049 31.3806288 14.9792175 30.8372939 14.6521301 30.4181044 14.181427 30.1230605 13.5671082 29.8280165 12.9527893 29.6804945 12.2124023 29.6804945 11.3459473L29.6804945 10.5563965C29.6804945 9.64306641 29.8303359 8.87338257 30.1300185 8.24734497 30.4297011 7.62130737 30.8391249 7.14865112 31.35829 6.82937622 31.877455 6.51010132 32.4641249 6.35046387 33.1182997 6.35046387 33.7723525 6.35046387 34.3515151 6.50228882 34.8557875 6.80593872 35.36006 7.10958862 35.7558424 7.57211304 36.0431349 8.19351196 36.3304274 8.81491089 36.4740736 9.60253906 36.4740736 10.5563965L36.4740736 11.3459473 37.5011122 9.8671875 28.63954 9.8671875 28.63954 11.4673462 38.5153334 11.4673462 38.5153334 10.7087402C38.5153334 9.48291016 38.2994215 8.40658569 37.8675978 7.47976685 37.4357741 6.552948 36.8173354 5.83187866 36.0122817 5.31655884 35.2072279 4.80123901 34.2464736 4.5435791 33.1300185 4.5435791 32.0149062 4.5435791 31.0443556 4.81295776 30.2183669 5.35171509 29.3923781 5.89047241 28.7517531 6.64083862 28.2964919 7.60281372 27.8412306 8.56478882 27.6136 9.67895508 27.6136 10.9453125L27.6136 10.9570312C27.6136 12.2390137 27.8396437 13.3535461 28.2917311 14.3006287 28.7438185 15.2477112 29.3919203 15.9804688 30.2360365 16.4989014 31.0801528 17.017334 32.0877821 17.2765503 33.2589247 17.2765503Z"/><polygon points="49.964 17.044 51.956 17.044 55.885 3.534 55.949 3.534 59.878 17.044 61.87 17.044 66.475 .134 64.272 .134 60.87 13.995 60.806 13.995 56.983 .134 54.85 .134 51.027 13.995 50.963 13.995 47.561 .134 45.358 .134"/><path d="M72.37081 17.2765503C73.0490327 17.2765503 73.6758027 17.1840515 74.2511201 16.999054 74.8264375 16.8140564 75.33602 16.5562439 75.7798676 16.2256165 76.2237153 15.894989 76.5875154 15.5141296 76.8712678 15.0830383 77.1550202 14.651947 77.3484101 14.1928101 77.4514375 13.7056274L77.474875 13.5926514 75.46456 13.5926514 75.4272065 13.6981201C75.3114839 14.03125 75.1169038 14.3316956 74.8434663 14.5994568 74.5700288 14.867218 74.2287507 15.0792236 73.8196321 15.2354736 73.4105134 15.3917236 72.9431977 15.4698486 72.417685 15.4698486 71.6775727 15.4698486 71.0358491 15.3063049 70.4925141 14.9792175 69.9491792 14.6521301 69.5299897 14.181427 69.2349458 13.5671082 68.9399018 12.9527893 68.7923799 12.2124023 68.7923799 11.3459473L68.7923799 10.5563965C68.7923799 9.64306641 68.9422212 8.87338257 69.2419038 8.24734497 69.5415864 7.62130737 69.9510102 7.14865112 70.4701753 6.82937622 70.9893403 6.51010132 71.5760102 6.35046387 72.230185 6.35046387 72.8842378 6.35046387 73.4634004 6.50228882 73.9676728 6.80593872 74.4719453 7.10958862 74.8677278 7.57211304 75.1550202 8.19351196 75.4423127 8.81491089 75.585959 9.60253906 75.585959 10.5563965L75.585959 11.3459473 76.6129975 9.8671875 67.7514253 9.8671875 67.7514253 11.4673462 77.6272187 11.4673462 77.6272187 10.7087402C77.6272187 9.48291016 77.4113069 8.40658569 76.9794831 7.47976685 76.5476594 6.552948 75.9292207 5.83187866 75.124167 5.31655884 74.3191133 4.80123901 73.3583589 4.5435791 72.2419038 4.5435791 71.1267915 4.5435791 70.1562409 4.81295776 69.3302522 5.35171509 68.5042634 5.89047241 67.8636384 6.64083862 67.4083772 7.60281372 66.9531159 8.56478882 66.7254853 9.67895508 66.7254853 10.9453125L66.7254853 10.9570312C66.7254853 12.2390137 66.951529 13.3535461 67.4036164 14.3006287 67.8557038 15.2477112 68.5038056 15.9804688 69.3479218 16.4989014 70.1920381 17.017334 71.1996675 17.2765503 72.37081 17.2765503ZM86.0497119 17.2765503C87.0945117 17.2765503 88.0069873 17.0150146 88.7871387 16.4919434 89.5672901 15.9688721 90.1729419 15.2298889 90.6040943 14.2749939 91.0352466 13.3200989 91.2508228 12.1992188 91.2508228 10.9123535L91.2508228 10.8984375C91.2508228 9.61010742 91.0336597 8.490448 90.5993335 7.53945923 90.1650074 6.58847046 89.5609424 5.85140991 88.7871387 5.32827759 88.013335 4.80514526 87.1104419 4.5435791 86.0784595 4.5435791 85.2177417 4.5435791 84.4450366 4.74636841 83.7603443 5.15194702 83.0756519 5.55752563 82.5454395 6.10900879 82.1697071 6.80639648L82.0973804 6.80639648 82.0973804 0 80.0583179 0 80.0583179 17.0443726 82.0973804 17.0443726 82.0973804 14.9904785 82.1697071 14.9904785C82.5539844 15.6999512 83.0779712 16.2583313 83.7416675 16.6656189 84.4053638 17.0729065 85.1747119 17.2765503 86.0497119 17.2765503ZM85.6384571 15.4718628C84.9367969 15.4718628 84.3182056 15.2836609 83.7826831 14.9072571 83.2471607 14.5308533 82.829375 14.0003357 82.5293262 13.3157043 82.2292774 12.631073 82.079253 11.8299561 82.079253 10.9123535L82.079253 10.8984375C82.079253 9.97937012 82.2308948 9.17947388 82.5341785 8.49874878 82.8374622 7.81802368 83.2552478 7.28942871 83.7875354 6.91296387 84.319823 6.53649902 84.9367969 6.3482666 85.6384571 6.3482666 86.3672168 6.3482666 86.9954517 6.53292847 87.5231616 6.9022522 88.0508716 7.27157593 88.4564197 7.79501343 88.7398059 8.4725647 89.0231922 9.15011597 89.1648853 9.95874023 89.1648853 10.8984375L89.1648853 10.9123535C89.1648853 11.8504639 89.0231922 12.6618652 88.7398059 13.3465576 88.4564197 14.03125 88.0508716 14.5566406 87.5231616 14.9227295 86.9954517 15.2888184 86.3672168 15.4718628 85.6384571 15.4718628Z"/></g><g fill="#2C2C2E" fill-rule="nonzero" transform="translate(270.787 242.09)"><polygon points="0 16.91 3.539 16.91 3.539 9.79 11.156 9.79 11.156 16.91 14.695 16.91 14.695 0 11.156 0 11.156 6.872 3.539 6.872 3.539 0 0 0"/><polygon points="21.866 16.91 25.405 16.91 25.405 2.918 30.331 2.918 30.331 0 16.941 0 16.941 2.918 21.866 2.918"/><polygon points="36.63 16.91 40.169 16.91 40.169 2.918 45.094 2.918 45.094 0 31.704 0 31.704 2.918 36.63 2.918"/><path d="M49.1138034,11.5839844 L54.1625705,11.5839844 C55.3539767,11.5839844 56.3940158,11.3447266 57.2826877,10.8662109 C58.1713595,10.3876953 58.8637424,9.71484375 59.3598361,8.84765625 C59.8559299,7.98046875 60.1039767,6.96679688 60.1039767,5.80664062 L60.1039767,5.78320312 C60.1039767,4.62304688 59.8559299,3.609375 59.3598361,2.7421875 C58.8637424,1.875 58.1713595,1.20117188 57.2826877,0.720703125 C56.3940158,0.240234375 55.3539767,0 54.1625705,0 L49.1138034,0 L49.1138034,2.80664062 L53.3012424,2.80664062 C54.3168674,2.80664062 55.1069064,3.06347656 55.6713595,3.57714844 C56.2358127,4.09082031 56.5180392,4.83007812 56.5180392,5.79492188 L56.5180392,5.81835938 C56.5180392,6.77539062 56.2358127,7.51367187 55.6713595,8.03320312 C55.1069064,8.55273438 54.3168674,8.8125 53.3012424,8.8125 L49.1138034,8.8125 L49.1138034,11.5839844 Z M47.3395114,16.9101562 L50.8785739,16.9101562 L50.8785739,0 L47.3395114,0 L47.3395114,16.9101562 Z"/></g><g fill="#2C2C2E" fill-rule="nonzero" transform="translate(480.384 316.787)"><polygon points="5.353 17.213 7.463 17.213 7.463 2.201 12.816 2.201 12.816 .302 0 .302 0 2.201 5.353 2.201"/><polygon points="15.3 17.213 25.566 17.213 25.566 15.314 17.41 15.314 17.41 .302 15.3 .302"/><path d="M33.6797669,17.5151367 C34.9630921,17.5151367 36.0719178,17.3141479 37.0062439,16.9121704 C37.9405701,16.5101929 38.6607544,15.9391785 39.1667969,15.1991272 C39.6728394,14.4590759 39.9258606,13.5841064 39.9258606,12.5742188 L39.9258606,12.5625 C39.9258606,11.2861328 39.5405457,10.2752686 38.7699158,9.52990723 C37.9992859,8.7845459 36.7439759,8.21972656 35.0039856,7.83544922 L33.1289856,7.42327881 C32.0188782,7.17962646 31.204242,6.83374023 30.685077,6.38562012 C30.1659119,5.9375 29.9063294,5.37109375 29.9063294,4.68640137 L29.9063294,4.67468262 C29.9063294,4.1192627 30.062732,3.63806152 30.3755372,3.2310791 C30.6883423,2.82409668 31.1259949,2.50805664 31.6884949,2.28295898 C32.2509949,2.05786133 32.9030335,1.9453125 33.6446106,1.9453125 C34.3661683,1.94384766 34.9987977,2.05319214 35.5424988,2.27334595 C36.0862,2.49349976 36.5252869,2.80493164 36.8597596,3.2076416 C37.1942322,3.61035156 37.4037659,4.09368896 37.4883606,4.65765381 L37.5117981,4.81951904 L39.6211731,4.81951904 L39.6094544,4.64593506 C39.5482972,3.73822021 39.2586854,2.93493652 38.7406189,2.23608398 C38.2225525,1.53723145 37.5299256,0.989837646 36.6627381,0.593902588 C35.7955506,0.197967529 34.8090394,0 33.7032044,0 C32.5454895,0 31.5193665,0.201507568 30.6248353,0.604522705 C29.730304,1.00753784 29.0294983,1.56362915 28.5224183,2.27279663 C28.0153382,2.98196411 27.7578919,3.80212402 27.7500794,4.73327637 L27.7500794,4.74499512 C27.7500794,5.97790527 28.1444275,6.97735596 28.9331238,7.74334717 C29.7218201,8.50933838 30.9446595,9.07666016 32.6016419,9.4453125 L34.4766419,9.85546875 C35.6407044,10.1132812 36.4805481,10.4680176 36.9961731,10.9196777 C37.5117981,11.3713379 37.7696106,11.9647217 37.7696106,12.6998291 L37.7696106,12.7115479 C37.7696106,13.2883301 37.6057007,13.7922668 37.2778809,14.2233582 C36.9500611,14.6544495 36.4889405,14.9866333 35.8945191,15.2199097 C35.3000977,15.453186 34.6009095,15.5698242 33.7969544,15.5698242 C32.9844544,15.5698242 32.2662232,15.4581604 31.6422608,15.2348328 C31.0182984,15.0115051 30.518451,14.6947632 30.1427186,14.2846069 C29.7669861,13.8744507 29.5390198,13.3881226 29.4588196,12.8256226 L29.4375794,12.6679688 L27.3282044,12.6679688 L27.3399231,12.8256226 C27.4130433,13.7780151 27.7203858,14.6061401 28.2619507,15.3099976 C28.8035157,16.013855 29.5364563,16.5573425 30.4607728,16.9404602 C31.3850892,17.3235779 32.4580872,17.5151367 33.6797669,17.5151367 Z"/></g><g fill="#2C2C2E" fill-rule="nonzero" transform="translate(379.127 356.787)"><polygon points="5.353 17.213 7.463 17.213 7.463 2.201 12.816 2.201 12.816 .302 0 .302 0 2.201 5.353 2.201"/><path d="M21.3291993 17.5151367C22.5131593 17.5151367 23.5852418 17.297821 24.5454469 16.8631897 25.505652 16.4285583 26.3046632 15.8143921 26.9424806 15.0206909 27.5802979 14.2269897 28.0025392 13.2953491 28.2092042 12.225769L28.2284303 12.1256104 26.0956178 12.1256104 26.0624757 12.2162476C25.8331056 12.9413452 25.4964662 13.553009 25.0525575 14.051239 24.6086488 14.549469 24.0743775 14.927124 23.4497437 15.1842041 22.82511 15.4412842 22.1182618 15.5698242 21.3291993 15.5698242 20.2177491 15.5698242 19.2479615 15.2885742 18.4198365 14.7260742 17.5917115 14.1635742 16.9516053 13.3714905 16.4995179 12.349823 16.0474305 11.3281555 15.8213868 10.130188 15.8213868 8.75592041L15.8213868 8.7421875C15.8213868 7.35998535 16.0474305 6.16125488 16.4995179 5.14599609 16.9516053 4.1307373 17.5900941 3.34347534 18.4149842 2.78421021 19.2398744 2.22494507 20.210547 1.9453125 21.327002 1.9453125 22.1210694 1.9453125 22.8316712 2.07705688 23.4588075 2.34054565 24.0859437 2.60403442 24.6173768 2.98025513 25.0531068 3.46920776 25.4888368 3.9581604 25.8132081 4.54998779 26.0262208 5.24468994L26.0956178 5.45983887 28.226233 5.45983887 28.2092042 5.35968018C28.0068116 4.28790283 27.5844178 3.35110474 26.9420228 2.54928589 26.2996278 1.74746704 25.4968934 1.12213135 24.5338197.673278809 23.5707459.22442627 22.5018067 0 21.327002 0 19.7638917 0 18.4081178.357757568 17.2596803 1.07327271 16.1112428 1.78878784 15.2230897 2.80032349 14.595221 4.10787964 13.9673524 5.41543579 13.6534181 6.96020508 13.6534181 8.7421875L13.6534181 8.75592041C13.6534181 10.536438 13.9673524 12.0820618 14.595221 13.3927917 15.2230897 14.7035217 16.1131959 15.7182617 17.2655396 16.4370117 18.4178834 17.1557617 19.7724366 17.5151367 21.3291993 17.5151367ZM32.0294874 11.1774902 37.0621412 11.1774902C38.1246412 11.1774902 39.0621412 10.9470215 39.8746412 10.486084 40.6871412 10.0251465 41.3258131 9.38452148 41.7906568 8.56420898 42.2555006 7.74389648 42.4879224 6.79858398 42.4879224 5.72827148L42.4879224 5.70483398C42.4879224 4.63452148 42.2555006 3.69311523 41.7906568 2.88061523 41.3258131 2.06811523 40.6871412 1.43530273 39.8746412.982177734 39.0621412.529052734 38.1246412.302490234 37.0621412.302490234L32.0294874.302490234 32.0294874 2.17749023 36.5230787 2.17749023C37.7340162 2.17749023 38.6715162 2.48999023 39.3355787 3.11499023 39.9996412 3.73999023 40.3316724 4.61108398 40.3316724 5.72827148L40.3316724 5.75170898C40.3316724 6.86108398 39.9996412 7.73022461 39.3355787 8.35913086 38.6715162 8.98803711 37.7340162 9.30249023 36.5230787 9.30249023L32.0294874 9.30249023 32.0294874 11.1774902ZM30.9747999 17.2126465 33.0841749 17.2126465 33.0841749.302490234 30.9747999.302490234 30.9747999 17.2126465Z"/></g><g fill="#2C2C2E" fill-rule="nonzero" transform="translate(78.18 316.787)"><path d="M0,17.2126465 L5.70483398,17.2126465 C7.38452148,17.2126465 8.81811523,16.8786621 10.0056152,16.2106934 C11.1931152,15.5427246 12.1032715,14.5762939 12.736084,13.3114014 C13.3688965,12.0465088 13.6853027,10.5273438 13.6853027,8.75390625 L13.6853027,8.73046875 C13.6853027,6.95703125 13.3673096,5.44299316 12.7313232,4.18835449 C12.0953369,2.93371582 11.1832275,1.97241211 9.99499512,1.30444336 C8.8067627,0.636474609 7.37670898,0.302490234 5.70483398,0.302490234 L0,0.302490234 L0,17.2126465 Z M2.109375,15.314209 L2.109375,2.20092773 L5.56420898,2.20092773 C6.83984375,2.20092773 7.9213562,2.45431519 8.80874634,2.96109009 C9.69613647,3.46786499 10.3713684,4.20986938 10.8344421,5.18710327 C11.2975159,6.16433716 11.5290527,7.35327148 11.5290527,8.75390625 L11.5290527,8.77734375 C11.5290527,10.1700439 11.2978821,11.3530884 10.8355408,12.3264771 C10.3731995,13.2998657 9.69830322,14.0411682 8.81085205,14.5503845 C7.92340088,15.0596008 6.84118652,15.314209 5.56420898,15.314209 L2.109375,15.314209 Z"/><polygon points="16.568 17.213 18.654 17.213 18.654 3.908 19.617 3.908 17.175 1.664 28.017 17.213 30.068 17.213 30.068 .302 27.982 .302 27.982 13.616 27.019 13.616 29.461 15.86 18.619 .302 16.568 .302"/><path d="M39.1407037,17.5151367 C40.4240289,17.5151367 41.5328546,17.3141479 42.4671807,16.9121704 C43.4015069,16.5101929 44.1216912,15.9391785 44.6277337,15.1991272 C45.1337762,14.4590759 45.3867974,13.5841064 45.3867974,12.5742188 L45.3867974,12.5625 C45.3867974,11.2861328 45.0014825,10.2752686 44.2308526,9.52990723 C43.4602227,8.7845459 42.2049127,8.21972656 40.4649224,7.83544922 L38.5899224,7.42327881 C37.479815,7.17962646 36.6651788,6.83374023 36.1460137,6.38562012 C35.6268487,5.9375 35.3672662,5.37109375 35.3672662,4.68640137 L35.3672662,4.67468262 C35.3672662,4.1192627 35.5236688,3.63806152 35.8364739,3.2310791 C36.1492791,2.82409668 36.5869317,2.50805664 37.1494317,2.28295898 C37.7119317,2.05786133 38.3639703,1.9453125 39.1055474,1.9453125 C39.827105,1.94384766 40.4597344,2.05319214 41.0034356,2.27334595 C41.5471368,2.49349976 41.9862237,2.80493164 42.3206964,3.2076416 C42.655169,3.61035156 42.8647027,4.09368896 42.9492974,4.65765381 L42.9727349,4.81951904 L45.0821099,4.81951904 L45.0703912,4.64593506 C45.009234,3.73822021 44.7196221,2.93493652 44.2015557,2.23608398 C43.6834893,1.53723145 42.9908624,0.989837646 42.1236749,0.593902588 C41.2564874,0.197967529 40.2699761,0 39.1641412,0 C38.0064263,0 36.9803033,0.201507568 36.085772,0.604522705 C35.1912408,1.00753784 34.4904351,1.56362915 33.983355,2.27279663 C33.476275,2.98196411 33.2188287,3.80212402 33.2110162,4.73327637 L33.2110162,4.74499512 C33.2110162,5.97790527 33.6053643,6.97735596 34.3940606,7.74334717 C35.1827569,8.50933838 36.4055963,9.07666016 38.0625787,9.4453125 L39.9375787,9.85546875 C41.1016412,10.1132812 41.9414849,10.4680176 42.4571099,10.9196777 C42.9727349,11.3713379 43.2305474,11.9647217 43.2305474,12.6998291 L43.2305474,12.7115479 C43.2305474,13.2883301 43.0666375,13.7922668 42.7388177,14.2233582 C42.4109979,14.6544495 41.9498773,14.9866333 41.3554559,15.2199097 C40.7610345,15.453186 40.0618463,15.5698242 39.2578912,15.5698242 C38.4453912,15.5698242 37.72716,15.4581604 37.1031976,15.2348328 C36.4792352,15.0115051 35.9793878,14.6947632 35.6036553,14.2846069 C35.2279229,13.8744507 34.9999566,13.3881226 34.9197564,12.8256226 L34.8985162,12.6679688 L32.7891412,12.6679688 L32.8008599,12.8256226 C32.87398,13.7780151 33.1813226,14.6061401 33.7228875,15.3099976 C34.2644525,16.013855 34.9973931,16.5573425 35.9217095,16.9404602 C36.8460259,17.3235779 37.919024,17.5151367 39.1407037,17.5151367 Z"/></g><path fill="#2C2C2E" fill-rule="nonzero" d="M6.7265625 17.2126465C8.125 17.2126465 9.32421875 16.9509277 10.3242188 16.4274902 11.3242188 15.9040527 12.0917969 15.1755371 12.6269531 14.2419434 13.1621094 13.3083496 13.4296875 12.2282715 13.4296875 11.001709L13.4296875 0 11.3203125 0 11.3203125 10.861084C11.3203125 12.157959 10.921875 13.2165527 10.125 14.0368652 9.328125 14.8571777 8.1953125 15.267334 6.7265625 15.267334 5.265625 15.267334 4.13085938 14.8571777 3.32226562 14.0368652 2.51367188 13.2165527 2.109375 12.157959 2.109375 10.861084L2.109375 0 0 0 0 11.001709C0 12.2282715.26953125 13.3083496.80859375 14.2419434 1.34765625 15.1755371 2.11914062 15.9040527 3.12304688 16.4274902 4.12695312 16.9509277 5.328125 17.2126465 6.7265625 17.2126465ZM16.9644442 16.9101562 22.6692781 16.9101562C24.3489656 16.9101562 25.7825594 16.5761719 26.9700594 15.9082031 28.1575594 15.2402344 29.0677156 14.2738037 29.7005281 13.0089111 30.3333406 11.7440186 30.6497469 10.2248535 30.6497469 8.45141602L30.6497469 8.42797852C30.6497469 6.65454102 30.3317537 5.14050293 29.6957674 3.88586426 29.0597811 2.63122559 28.1476717 1.66992188 26.9594393 1.00195312 25.7712069.333984375 24.3411531 0 22.6692781 0L16.9644442 0 16.9644442 16.9101562ZM19.0738192 15.0117188 19.0738192 1.8984375 22.5286531 1.8984375C23.8042879 1.8984375 24.8858004 2.15182495 25.7731905 2.65859985 26.6605806 3.16537476 27.3358126 3.90737915 27.7988863 4.88461304 28.26196 5.86184692 28.4934969 7.05078125 28.4934969 8.45141602L28.4934969 8.47485352C28.4934969 9.86755371 28.2623262 11.0505981 27.7999849 12.0239868 27.3376436 12.9973755 26.6627474 13.738678 25.7752962 14.2478943 24.887845 14.7571106 23.8056307 15.0117188 22.5286531 15.0117188L19.0738192 15.0117188ZM34.5873199 10.875 39.6199737 10.875C40.6824737 10.875 41.6199737 10.6445312 42.4324737 10.1835938 43.2449737 9.72265625 43.8836455 9.08203125 44.3484893 8.26171875 44.813333 7.44140625 45.0457549 6.49609375 45.0457549 5.42578125L45.0457549 5.40234375C45.0457549 4.33203125 44.813333 3.390625 44.3484893 2.578125 43.8836455 1.765625 43.2449737 1.1328125 42.4324737.6796875 41.6199737.2265625 40.6824737 0 39.6199737 0L34.5873199 0 34.5873199 1.875 39.0809112 1.875C40.2918487 1.875 41.2293487 2.1875 41.8934112 2.8125 42.5574737 3.4375 42.8895049 4.30859375 42.8895049 5.42578125L42.8895049 5.44921875C42.8895049 6.55859375 42.5574737 7.42773438 41.8934112 8.05664062 41.2293487 8.68554688 40.2918487 9 39.0809112 9L34.5873199 9 34.5873199 10.875ZM33.5326324 16.9101562 35.6420074 16.9101562 35.6420074 0 33.5326324 0 33.5326324 16.9101562Z" transform="translate(78.373 367.09)"/><g fill="#2C2C2E" fill-rule="nonzero" transform="translate(291.818 417.09)"><polygon points="0 16.91 2.109 16.91 2.109 0 0 0"/><path d="M6.70313072,10.875 L11.7357845,10.875 C12.7982845,10.875 13.7357845,10.6445312 14.5482845,10.1835938 C15.3607845,9.72265625 15.9994564,9.08203125 16.4643002,8.26171875 C16.9291439,7.44140625 17.1615658,6.49609375 17.1615658,5.42578125 L17.1615658,5.40234375 C17.1615658,4.33203125 16.9291439,3.390625 16.4643002,2.578125 C15.9994564,1.765625 15.3607845,1.1328125 14.5482845,0.6796875 C13.7357845,0.2265625 12.7982845,0 11.7357845,0 L6.70313072,0 L6.70313072,1.875 L11.196722,1.875 C12.4076595,1.875 13.3451595,2.1875 14.009222,2.8125 C14.6732845,3.4375 15.0053158,4.30859375 15.0053158,5.42578125 L15.0053158,5.44921875 C15.0053158,6.55859375 14.6732845,7.42773438 14.009222,8.05664062 C13.3451595,8.68554688 12.4076595,9 11.196722,9 L6.70313072,9 L6.70313072,10.875 Z M5.64844322,16.9101562 L7.75781822,16.9101562 L7.75781822,0 L5.64844322,0 L5.64844322,16.9101562 Z"/></g><rect width="798" height="448" x="1" y="1" stroke="#2C2C2E" stroke-width="2"/><rect width="200" height="50" x="400" y="300" stroke="#2C2C2E" stroke-width="2"/></g></svg>