<svg xmlns="http://www.w3.org/2000/svg" xmlns:xlink="http://www.w3.org/1999/xlink" width="800" height="200" viewBox="0 0 800 200"><defs><linearGradient id="c" x1="100%" x2="0%" y1="50%" y2="50%"><stop offset="0%" stop-color="#1C1C1E"/><stop offset="100%" stop-color="#1C1C1E" stop-opacity="0"/></linearGradient><rect id="a" width="800" height="200" x="0" y="0"/></defs><g fill="none" fill-rule="evenodd"><rect width="800" height="200" fill="#1C1C1E"/><g transform="translate(110 10)"><path fill="#BF5AF2" d="M7.6916556,74 C5.01709938,74 4.04724067,73.7215232 3.06946289,73.1986019 C2.09168511,72.6756806 1.32431939,71.9083149 0.801398111,70.9305371 C0.278476833,69.9527593 1.2037061e-16,68.9829006 -2.07168062e-16,66.3083444 L2.07168062e-16,7.6916556 C-1.2037061e-16,5.01709938 0.278476833,4.04724067 0.801398111,3.06946289 C1.32431939,2.09168511 2.09168511,1.32431939 3.06946289,0.801398111 C4.04724067,0.278476833 5.01709938,1.80555915e-16 7.6916556,-3.10752092e-16 L601.308344,3.10752092e-16 C603.982901,-1.80555915e-16 604.952759,0.278476833 605.930537,0.801398111 C606.908315,1.32431939 607.675681,2.09168511 608.198602,3.06946289 C608.721523,4.04724067 609,5.01709938 609,7.6916556 L609,66.3083444 C609,68.9829006 608.721523,69.9527593 608.198602,70.9305371 C607.675681,71.9083149 606.908315,72.6756806 605.930537,73.1986019 C604.952759,73.7215232 603.982901,74 601.308344,74 L16,74 L16,116 L31.999,116 L32,104 L56,119 L32,134 L31.999,122 L10,122 L10,74 L7.6916556,74 Z" opacity=".5"/><path fill="#E5E5EA" fill-rule="nonzero" d="M23.04.3 23.04 4.38 17.88 4.38 17.88.3 16.53.3 16.53 4.38 12.6 4.38 12.6 5.76 16.53 5.76 16.53 10.17 17.88 10.17 17.88 5.76 23.04 5.76 23.04 10.17 24.42 10.17 24.42 5.76 28.11 5.76 28.11 4.38 24.42 4.38 24.42.3 23.04.3ZM19.8 12.75 19.8 17.82 14.88 17.82 14.88 12.75 19.8 12.75ZM21.15 12.75 25.77 12.75 25.77 17.82 21.15 17.82 21.15 12.75ZM14.88 19.14 19.8 19.14 19.8 24.42 14.88 24.42 14.88 19.14ZM25.77 19.14 25.77 24.42 21.15 24.42 21.15 19.14 25.77 19.14ZM13.53 11.37 13.53 27.3 14.88 27.3 14.88 25.74 25.77 25.74 25.77 27 27.18 27 27.18 11.37 13.53 11.37ZM5.55.09C4.59 2.97 2.91 5.73 1.08 7.59 1.32 7.86 1.77 8.55 1.89 8.85 2.85 7.8 3.81 6.54 4.65 5.13L11.43 5.13 11.43 3.75 5.43 3.75C6 2.67 6.51 1.56 6.9.45L5.55.09ZM1.68 15.03 1.68 16.41 6.12 16.41 6.12 23.19C6.12 24.57 5.07 25.5 4.59 25.86 4.89 26.13 5.28 26.67 5.46 26.97 5.88 26.52 6.63 26.07 12.12 23.04 12 22.77 11.85 22.23 11.79 21.84L7.47 24.09 7.47 16.41 11.46 16.41 11.46 15.03 7.47 15.03 7.47 10.32 10.59 10.32 10.59 8.97 3.03 8.97 3.03 10.32 6.12 10.32 6.12 15.03 1.68 15.03ZM36.33 10.74 53.13 10.74 53.13 17.01 36.33 17.01 36.33 10.74ZM40.32 21.21C40.71 23.1 40.95 25.53 40.95 26.97L42.45 26.76C42.45 25.38 42.12 22.98 41.7 21.12L40.32 21.21ZM46.53 21.24C47.46 23.04 48.36 25.5 48.69 26.97L50.1 26.58C49.74 25.14 48.78 22.74 47.85 20.97L46.53 21.24ZM52.68 20.97C54.24 22.8 55.92 25.41 56.64 27L57.99 26.4C57.27 24.78 55.53 22.29 53.97 20.43L52.68 20.97ZM35.49 20.58C34.5 22.83 32.91 25.26 31.23 26.67L32.52 27.3C34.2 25.74 35.79 23.22 36.84 20.94L35.49 20.58ZM34.95 9.33 34.95 18.39 54.57 18.39 54.57 9.33 45.21 9.33 45.21 4.92 56.97 4.92 56.97 3.54 45.21 3.54 45.21 0 43.77 0 43.77 9.33 34.95 9.33ZM0 61.05 1.8 61.05 4.29 53.73 12.78 53.73 15.24 61.05 17.16 61.05 9.48 39.18 7.62 39.18 0 61.05ZM4.77 52.26 6.12 48.3C6.99 45.72 7.74 43.44 8.49 40.77L8.61 40.77C9.39 43.44 10.11 45.72 10.98 48.3L12.3 52.26 4.77 52.26ZM20.4 61.05 22.14 61.05 22.14 49.08C24 47.16 25.32 46.2 27.15 46.2 29.64 46.2 30.69 47.76 30.69 51.06L30.69 61.05 32.43 61.05 32.43 50.82C32.43 46.71 30.9 44.64 27.57 44.64 25.38 44.64 23.7 45.9 22.11 47.49L22.05 47.49 21.84 45.03 20.4 45.03 20.4 61.05ZM44.13 61.44C46.14 61.44 47.91 60.57 49.29 59.37L48.42 58.14C47.34 59.13 45.9 59.91 44.28 59.91 40.92 59.91 38.67 57.15 38.67 53.07 38.67 48.96 41.1 46.17 44.31 46.17 45.78 46.17 46.95 46.86 47.94 47.79L48.93 46.59C47.85 45.6 46.38 44.64 44.25 44.64 40.29 44.64 36.84 47.73 36.84 53.07 36.84 58.38 39.99 61.44 44.13 61.44ZM53.13 61.05 54.87 61.05 54.87 49.08C56.73 47.16 58.05 46.2 59.88 46.2 62.37 46.2 63.42 47.76 63.42 51.06L63.42 61.05 65.16 61.05 65.16 50.82C65.16 46.71 63.63 44.64 60.3 44.64 58.11 44.64 56.46 45.9 54.84 47.52L54.87 44.01 54.87 37.2 53.13 37.2 53.13 61.05ZM76.68 61.44C80.55 61.44 83.91 58.38 83.91 53.07 83.91 47.73 80.55 44.64 76.68 44.64 72.81 44.64 69.45 47.73 69.45 53.07 69.45 58.38 72.81 61.44 76.68 61.44ZM76.68 59.91C73.53 59.91 71.28 57.15 71.28 53.07 71.28 48.96 73.53 46.17 76.68 46.17 79.83 46.17 82.11 48.96 82.11 53.07 82.11 57.15 79.83 59.91 76.68 59.91ZM88.59 61.05 90.33 61.05 90.33 50.31C91.53 47.34 93.21 46.26 94.62 46.26 95.25 46.26 95.58 46.35 96.09 46.53L96.45 44.97C95.94 44.73 95.46 44.64 94.83 44.64 92.97 44.64 91.41 46.02 90.3 48L90.24 48 90.03 45.03 88.59 45.03 88.59 61.05Z" transform="translate(61.24 105.95)"/></g><mask id="b" fill="#fff"><use xlink:href="#a"/></mask><g fill-rule="nonzero" mask="url(#b)"><g transform="translate(5.256 27.672)"><path fill="#48484A" d="M14.652 31.856C12.3933333 31.856 10.6553333 31.2033333 9.438 29.898 8.22066667 28.5926667 7.612 26.6786667 7.612 24.156L7.612 2.948 0 2.948 0 0 11.22 0 11.22 24.42C11.22 25.9746667 11.6086667 27.104 12.386 27.808 13.1633333 28.512 14.1826667 28.864 15.444 28.864 16.7053333 28.864 18.04 28.5413333 19.448 27.896L20.372 30.58C19.3746667 30.9906667 18.4653333 31.306 17.644 31.526 16.8226667 31.746 15.8253333 31.856 14.652 31.856ZM33.968 31.856C31.416 31.856 29.5386667 31.1226667 28.336 29.656 27.1333333 28.1893333 26.532 26.048 26.532 23.232L26.532 9.944 30.184 9.944 30.184 22.748C30.184 24.772 30.558 26.2753333 31.306 27.258 32.054 28.2406667 33.3226667 28.732 35.112 28.732 36.344 28.732 37.466 28.4166667 38.478 27.786 39.49 27.1553333 40.5826667 26.1506667 41.756 24.772L41.756 9.944 45.364 9.944 45.364 31.328 42.416 31.328 42.108 27.588 41.932 27.588C40.8466667 28.8493333 39.6586667 29.876 38.368 30.668 37.0773333 31.46 35.6106667 31.856 33.968 31.856ZM63.536 12.276C61.776 12.276 60.2066667 12.8406667 58.828 13.97 57.4493333 15.0993333 56.5986667 16.72 56.276 18.832L69.916 18.832C69.7693333 16.632 69.124 14.9893333 67.98 13.904 66.836 12.8186667 65.3546667 12.276 63.536 12.276ZM64.064 31.856C61.9226667 31.856 59.9793333 31.416 58.234 30.536 56.4886667 29.656 55.1026667 28.3726667 54.076 26.686 53.0493333 24.9993333 52.536 22.968 52.536 20.592 52.536 18.2746667 53.0493333 16.28 54.076 14.608 55.1026667 12.936 56.4446667 11.6526667 58.102 10.758 59.7593333 9.86333333 61.5413333 9.416 63.448 9.416 66.528 9.416 68.926 10.3326667 70.642 12.166 72.358 13.9993333 73.216 16.4266667 73.216 19.448 73.216 19.8586667 73.2013333 20.2546667 73.172 20.636 73.1426667 21.0173333 73.0986667 21.3546667 73.04 21.648L56.188 21.648C56.4226667 24.0533333 57.31 25.872 58.85 27.104 60.39 28.336 62.2746667 28.952 64.504 28.952 65.7946667 28.952 66.9606667 28.7686667 68.002 28.402 69.0433333 28.0353333 70.048 27.544 71.016 26.928L72.336 29.304C71.28 30.008 70.07 30.6093333 68.706 31.108 67.342 31.6066667 65.7946667 31.856 64.064 31.856ZM79.156 31.328 79.156 29.172C82.324 26.356 85.008 23.892 87.208 21.78 89.408 19.668 91.0726667 17.7613333 92.202 16.06 93.3313333 14.3586667 93.896 12.7306667 93.896 11.176 93.896 9.56266667 93.3973333 8.24266667 92.4 7.216 91.4026667 6.18933333 89.8626667 5.676 87.78 5.676 86.46 5.676 85.2353333 6.006 84.106 6.666 82.9766667 7.326 81.9573333 8.12533333 81.048 9.064L78.98 6.996C80.2413333 5.70533333 81.6053333 4.67133333 83.072 3.894 84.5386667 3.11666667 86.2546667 2.728 88.22 2.728 91.036 2.728 93.2653333 3.48333333 94.908 4.994 96.5506667 6.50466667 97.372 8.50666667 97.372 11 97.372 12.76 96.8293333 14.542 95.744 16.346 94.6586667 18.15 93.1406667 20.042 91.19 22.022 89.2393333 24.002 86.988 26.1506667 84.436 28.468 85.316 28.4093333 86.2033333 28.3506667 87.098 28.292 87.9926667 28.2333333 88.8506667 28.204 89.672 28.204L98.912 28.204 98.912 31.328 79.156 31.328Z"/><path fill="#E5E5EA" d="M112.376 19.844 118.184 19.844 118.976 13.332 113.168 13.332 112.376 19.844ZM108.592 31.328 109.692 22.352 106.172 22.352 106.172 19.844 110 19.844 110.792 13.332 107.052 13.332 107.052 10.78 111.1 10.78 112.112 2.728 114.444 2.728 113.476 10.78 119.284 10.78 120.296 2.728 122.628 2.728 121.66 10.78 125.18 10.78 125.18 13.332 121.352 13.332 120.56 19.844 124.3 19.844 124.3 22.352 120.252 22.352 119.152 31.328 116.776 31.328 117.876 22.352 112.068 22.352 110.968 31.328 108.592 31.328ZM142.164 31.856C140.052 31.856 138.101333 31.4673333 136.312 30.69 134.522667 29.9126667 132.982667 28.8786667 131.692 27.588L133.892 25.036C134.977333 26.1213333 136.246 26.994 137.698 27.654 139.15 28.314 140.697333 28.644 142.34 28.644 144.334667 28.644 145.882 28.2186667 146.982 27.368 148.082 26.5173333 148.632 25.4173333 148.632 24.068 148.632 23.0413333 148.404667 22.22 147.95 21.604 147.495333 20.988 146.879333 20.4746667 146.102 20.064 145.324667 19.6533333 144.437333 19.2426667 143.44 18.832L139.304 17.028C138.336 16.6466667 137.375333 16.148 136.422 15.532 135.468667 14.916 134.669333 14.124 134.024 13.156 133.378667 12.188 133.056 11 133.056 9.592 133.056 8.12533333 133.459333 6.81266667 134.266 5.654 135.072667 4.49533333 136.187333 3.586 137.61 2.926 139.032667 2.266 140.668 1.936 142.516 1.936 144.334667 1.936 146.006667 2.266 147.532 2.926 149.057333 3.586 150.348 4.444 151.404 5.5L149.468 7.876C148.529333 7.02533333 147.488 6.358 146.344 5.874 145.2 5.39 143.88 5.148 142.384 5.148 140.712 5.148 139.362667 5.52933333 138.336 6.292 137.309333 7.05466667 136.796 8.08133333 136.796 9.372 136.796 10.2813333 137.052667 11.0293333 137.566 11.616 138.079333 12.2026667 138.732 12.6866667 139.524 13.068 140.316 13.4493333 141.122667 13.816 141.944 14.168L145.992 15.928C147.194667 16.3973333 148.272667 16.962 149.226 17.622 150.179333 18.282 150.942 19.0886667 151.514 20.042 152.086 20.9953333 152.372 22.1906667 152.372 23.628 152.372 25.1533333 151.961333 26.5393333 151.14 27.786 150.318667 29.0326667 149.145333 30.0226667 147.62 30.756 146.094667 31.4893333 144.276 31.856 142.164 31.856ZM168.344 31.856C166.466667 31.856 164.728667 31.416 163.13 30.536 161.531333 29.656 160.240667 28.38 159.258 26.708 158.275333 25.036 157.784 23.0266667 157.784 20.68 157.784 18.2746667 158.275333 16.236 159.258 14.564 160.240667 12.892 161.531333 11.616 163.13 10.736 164.728667 9.856 166.466667 9.416 168.344 9.416 170.221333 9.416 171.959333 9.856 173.558 10.736 175.156667 11.616 176.447333 12.892 177.43 14.564 178.412667 16.236 178.904 18.2746667 178.904 20.68 178.904 23.0266667 178.412667 25.036 177.43 26.708 176.447333 28.38 175.156667 29.656 173.558 30.536 171.959333 31.416 170.221333 31.856 168.344 31.856ZM168.344 28.864C170.397333 28.864 172.047333 28.1086667 173.294 26.598 174.540667 25.0873333 175.164 23.1146667 175.164 20.68 175.164 18.216 174.540667 16.2213333 173.294 14.696 172.047333 13.1706667 170.397333 12.408 168.344 12.408 166.290667 12.408 164.640667 13.1706667 163.394 14.696 162.147333 16.2213333 161.524 18.216 161.524 20.68 161.524 23.1146667 162.147333 25.0873333 163.394 26.598 164.640667 28.1086667 166.290667 28.864 168.344 28.864ZM184.096 31.328 184.096 9.944 187 9.944 187.308 12.76 187.396 12.76C187.953333 11.7626667 188.598667 10.956 189.332 10.34 190.065333 9.724 191.048 9.416 192.28 9.416 194.362667 9.416 195.712 10.648 196.328 13.112 196.944 11.968 197.626 11.066 198.374 10.406 199.122 9.746 200.112 9.416 201.344 9.416 202.84 9.416 204.006 9.98066667 204.842 11.11 205.678 12.2393333 206.096 13.8746667 206.096 16.016L206.096 31.328 202.488 31.328 202.488 16.28C202.488 13.7866667 201.725333 12.54 200.2 12.54 199.466667 12.54 198.858 12.8113333 198.374 13.354 197.89 13.8966667 197.354667 14.7253333 196.768 15.84L196.768 31.328 193.424 31.328 193.424 16.28C193.424 15.048 193.255333 14.1166667 192.918 13.486 192.580667 12.8553333 192.016 12.54 191.224 12.54 190.490667 12.54 189.852667 12.8113333 189.31 13.354 188.767333 13.8966667 188.232 14.7253333 187.704 15.84L187.704 31.328 184.096 31.328ZM221.936 12.276C220.176 12.276 218.606667 12.8406667 217.228 13.97 215.849333 15.0993333 214.998667 16.72 214.676 18.832L228.316 18.832C228.169333 16.632 227.524 14.9893333 226.38 13.904 225.236 12.8186667 223.754667 12.276 221.936 12.276ZM222.464 31.856C220.322667 31.856 218.379333 31.416 216.634 30.536 214.888667 29.656 213.502667 28.3726667 212.476 26.686 211.449333 24.9993333 210.936 22.968 210.936 20.592 210.936 18.2746667 211.449333 16.28 212.476 14.608 213.502667 12.936 214.844667 11.6526667 216.502 10.758 218.159333 9.86333333 219.941333 9.416 221.848 9.416 224.928 9.416 227.326 10.3326667 229.042 12.166 230.758 13.9993333 231.616 16.4266667 231.616 19.448 231.616 19.8586667 231.601333 20.2546667 231.572 20.636 231.542667 21.0173333 231.498667 21.3546667 231.44 21.648L214.588 21.648C214.822667 24.0533333 215.71 25.872 217.25 27.104 218.79 28.336 220.674667 28.952 222.904 28.952 224.194667 28.952 225.360667 28.7686667 226.402 28.402 227.443333 28.0353333 228.448 27.544 229.416 26.928L230.736 29.304C229.68 30.008 228.47 30.6093333 227.106 31.108 225.742 31.6066667 224.194667 31.856 222.464 31.856ZM239.36 31.328 234.696 9.944 238.304 9.944 240.856 22.352C241.061333 23.3493333 241.244667 24.3246667 241.406 25.278 241.567333 26.2313333 241.706667 27.2213333 241.824 28.248L242 28.248C242.146667 27.2213333 242.33 26.2313333 242.55 25.278 242.77 24.3246667 242.997333 23.3493333 243.232 22.352L245.872 11.264 249.48 11.264 252.032 22.352C252.266667 23.3493333 252.516 24.3246667 252.78 25.278 253.044 26.2313333 253.234667 27.2213333 253.352 28.248L253.528 28.248C253.704 27.2213333 253.858 26.2313333 253.99 25.278 254.122 24.3246667 254.290667 23.3493333 254.496 22.352L257.048 9.944 260.392 9.944 255.816 31.328 251.152 31.328 248.688 21.12C248.336 19.624 247.984 17.512 247.632 14.784L247.456 14.784C247.104 17.512 246.752 19.624 246.4 21.12L244.024 31.328 239.36 31.328ZM264.836 31.328 264.836 0 268.444 0 268.444 8.536 268.224 13.596 268.356 13.596C269.470667 12.3933333 270.666 11.396 271.942 10.604 273.218 9.812 274.692 9.416 276.364 9.416 278.886667 9.416 280.749333 10.1493333 281.952 11.616 283.154667 13.0826667 283.756 15.224 283.756 18.04L283.756 31.328 280.148 31.328 280.148 18.524C280.148 16.5 279.766667 14.9966667 279.004 14.014 278.241333 13.0313333 276.98 12.54 275.22 12.54 273.958667 12.54 272.829333 12.8626667 271.832 13.508 270.834667 14.1533333 269.705333 15.1213333 268.444 16.412L268.444 31.328 264.836 31.328ZM301.136 12.276C299.376 12.276 297.806667 12.8406667 296.428 13.97 295.049333 15.0993333 294.198667 16.72 293.876 18.832L307.516 18.832C307.369333 16.632 306.724 14.9893333 305.58 13.904 304.436 12.8186667 302.954667 12.276 301.136 12.276ZM301.664 31.856C299.522667 31.856 297.579333 31.416 295.834 30.536 294.088667 29.656 292.702667 28.3726667 291.676 26.686 290.649333 24.9993333 290.136 22.968 290.136 20.592 290.136 18.2746667 290.649333 16.28 291.676 14.608 292.702667 12.936 294.044667 11.6526667 295.702 10.758 297.359333 9.86333333 299.141333 9.416 301.048 9.416 304.128 9.416 306.526 10.3326667 308.242 12.166 309.958 13.9993333 310.816 16.4266667 310.816 19.448 310.816 19.8586667 310.801333 20.2546667 310.772 20.636 310.742667 21.0173333 310.698667 21.3546667 310.64 21.648L293.788 21.648C294.022667 24.0533333 294.91 25.872 296.45 27.104 297.99 28.336 299.874667 28.952 302.104 28.952 303.394667 28.952 304.560667 28.7686667 305.602 28.402 306.643333 28.0353333 307.648 27.544 308.616 26.928L309.936 29.304C308.88 30.008 307.67 30.6093333 306.306 31.108 304.942 31.6066667 303.394667 31.856 301.664 31.856ZM319.968 31.328 319.968 9.944 322.96 9.944 323.268 15.004 323.4 15.004C324.514667 13.2733333 325.893333 11.9093333 327.536 10.912 329.178667 9.91466667 330.982667 9.416 332.948 9.416 333.74 9.416 334.480667 9.482 335.17 9.614 335.859333 9.746 336.526667 9.97333333 337.172 10.296L336.336 13.42C335.602667 13.156 334.972 12.9653333 334.444 12.848 333.916 12.7306667 333.226667 12.672 332.376 12.672 330.762667 12.672 329.215333 13.134 327.734 14.058 326.252667 14.982 324.866667 16.5586667 323.576 18.788L323.576 31.328 319.968 31.328ZM353.936 12.276C352.176 12.276 350.606667 12.8406667 349.228 13.97 347.849333 15.0993333 346.998667 16.72 346.676 18.832L360.316 18.832C360.169333 16.632 359.524 14.9893333 358.38 13.904 357.236 12.8186667 355.754667 12.276 353.936 12.276ZM354.464 31.856C352.322667 31.856 350.379333 31.416 348.634 30.536 346.888667 29.656 345.502667 28.3726667 344.476 26.686 343.449333 24.9993333 342.936 22.968 342.936 20.592 342.936 18.2746667 343.449333 16.28 344.476 14.608 345.502667 12.936 346.844667 11.6526667 348.502 10.758 350.159333 9.86333333 351.941333 9.416 353.848 9.416 356.928 9.416 359.326 10.3326667 361.042 12.166 362.758 13.9993333 363.616 16.4266667 363.616 19.448 363.616 19.8586667 363.601333 20.2546667 363.572 20.636 363.542667 21.0173333 363.498667 21.3546667 363.44 21.648L346.588 21.648C346.822667 24.0533333 347.71 25.872 349.25 27.104 350.79 28.336 352.674667 28.952 354.904 28.952 356.194667 28.952 357.360667 28.7686667 358.402 28.402 359.443333 28.0353333 360.448 27.544 361.416 26.928L362.736 29.304C361.68 30.008 360.47 30.6093333 359.106 31.108 357.742 31.6066667 356.194667 31.856 354.464 31.856Z"/><polygon fill="#E5E5EA" points="370.524 31.328 370.524 28.204 377.696 28.204 377.696 5.544 370.524 5.544 370.524 2.464 388.564 2.464 388.564 5.544 381.392 5.544 381.392 28.204 388.564 28.204 388.564 31.328"/><path fill="#E5E5EA" d="M396.836,31.328 L396.836,9.944 L399.828,9.944 L400.136,13.596 L400.312,13.596 C401.426667,12.3933333 402.629333,11.396 403.92,10.604 C405.210667,9.812 406.692,9.416 408.364,9.416 C410.886667,9.416 412.749333,10.1493333 413.952,11.616 C415.154667,13.0826667 415.756,15.224 415.756,18.04 L415.756,31.328 L412.148,31.328 L412.148,18.524 C412.148,16.5 411.766667,14.9966667 411.004,14.014 C410.241333,13.0313333 408.98,12.54 407.22,12.54 C405.958667,12.54 404.829333,12.8626667 403.832,13.508 C402.834667,14.1533333 401.705333,15.1213333 400.444,16.412 L400.444,31.328 L396.836,31.328 Z"/><polygon fill="#E5E5EA" points="430.496 31.328 430.496 5.544 420.992 5.544 420.992 2.464 443.696 2.464 443.696 5.544 434.192 5.544 434.192 31.328"/><path fill="#E5E5EA" d="M449.636 31.328 449.636 0 453.244 0 453.244 8.536 453.024 13.596 453.156 13.596C454.270667 12.3933333 455.466 11.396 456.742 10.604 458.018 9.812 459.492 9.416 461.164 9.416 463.686667 9.416 465.549333 10.1493333 466.752 11.616 467.954667 13.0826667 468.556 15.224 468.556 18.04L468.556 31.328 464.948 31.328 464.948 18.524C464.948 16.5 464.566667 14.9966667 463.804 14.014 463.041333 13.0313333 461.78 12.54 460.02 12.54 458.758667 12.54 457.629333 12.8626667 456.632 13.508 455.634667 14.1533333 454.505333 15.1213333 453.244 16.412L453.244 31.328 449.636 31.328ZM485.936 12.276C484.176 12.276 482.606667 12.8406667 481.228 13.97 479.849333 15.0993333 478.998667 16.72 478.676 18.832L492.316 18.832C492.169333 16.632 491.524 14.9893333 490.38 13.904 489.236 12.8186667 487.754667 12.276 485.936 12.276ZM486.464 31.856C484.322667 31.856 482.379333 31.416 480.634 30.536 478.888667 29.656 477.502667 28.3726667 476.476 26.686 475.449333 24.9993333 474.936 22.968 474.936 20.592 474.936 18.2746667 475.449333 16.28 476.476 14.608 477.502667 12.936 478.844667 11.6526667 480.502 10.758 482.159333 9.86333333 483.941333 9.416 485.848 9.416 488.928 9.416 491.326 10.3326667 493.042 12.166 494.758 13.9993333 495.616 16.4266667 495.616 19.448 495.616 19.8586667 495.601333 20.2546667 495.572 20.636 495.542667 21.0173333 495.498667 21.3546667 495.44 21.648L478.588 21.648C478.822667 24.0533333 479.71 25.872 481.25 27.104 482.79 28.336 484.674667 28.952 486.904 28.952 488.194667 28.952 489.360667 28.7686667 490.402 28.402 491.443333 28.0353333 492.448 27.544 493.416 26.928L494.736 29.304C493.68 30.008 492.47 30.6093333 491.106 31.108 489.742 31.6066667 488.194667 31.856 486.464 31.856ZM502.172 31.328 502.172 2.464 509.3 2.464C513.641333 2.464 516.956 3.70333333 519.244 6.182 521.532 8.66066667 522.676 12.188 522.676 16.764 522.676 21.3693333 521.539333 24.948 519.266 27.5 516.992667 30.052 513.729333 31.328 509.476 31.328L502.172 31.328ZM505.824 28.336 509.036 28.336C512.350667 28.336 514.822 27.3166667 516.45 25.278 518.078 23.2393333 518.892 20.4013333 518.892 16.764 518.892 13.1266667 518.078 10.3326667 516.45 8.382 514.822 6.43133333 512.350667 5.456 509.036 5.456L505.824 5.456 505.824 28.336ZM537.944 31.856C536.066667 31.856 534.328667 31.416 532.73 30.536 531.131333 29.656 529.840667 28.38 528.858 26.708 527.875333 25.036 527.384 23.0266667 527.384 20.68 527.384 18.2746667 527.875333 16.236 528.858 14.564 529.840667 12.892 531.131333 11.616 532.73 10.736 534.328667 9.856 536.066667 9.416 537.944 9.416 539.821333 9.416 541.559333 9.856 543.158 10.736 544.756667 11.616 546.047333 12.892 547.03 14.564 548.012667 16.236 548.504 18.2746667 548.504 20.68 548.504 23.0266667 548.012667 25.036 547.03 26.708 546.047333 28.38 544.756667 29.656 543.158 30.536 541.559333 31.416 539.821333 31.856 537.944 31.856ZM537.944 28.864C539.997333 28.864 541.647333 28.1086667 542.894 26.598 544.140667 25.0873333 544.764 23.1146667 544.764 20.68 544.764 18.216 544.140667 16.2213333 542.894 14.696 541.647333 13.1706667 539.997333 12.408 537.944 12.408 535.890667 12.408 534.240667 13.1706667 532.994 14.696 531.747333 16.2213333 531.124 18.216 531.124 20.68 531.124 23.1146667 531.747333 25.0873333 532.994 26.598 534.240667 28.1086667 535.890667 28.864 537.944 28.864ZM566.368 31.856C564.138667 31.856 562.144 31.416 560.384 30.536 558.624 29.656 557.230667 28.38 556.204 26.708 555.177333 25.036 554.664 23.0266667 554.664 20.68 554.664 18.2746667 555.206667 16.236 556.292 14.564 557.377333 12.892 558.829333 11.616 560.648 10.736 562.466667 9.856 564.446667 9.416 566.588 9.416 568.318667 9.416 569.829333 9.724 571.12 10.34 572.410667 10.956 573.496 11.6893333 574.376 12.54L572.572 14.872C571.692 14.1093333 570.775333 13.508 569.822 13.068 568.868667 12.628 567.834667 12.408 566.72 12.408 565.077333 12.408 563.632667 12.7526667 562.386 13.442 561.139333 14.1313333 560.164 15.0993333 559.46 16.346 558.756 17.5926667 558.404 19.0373333 558.404 20.68 558.404 22.2933333 558.748667 23.716 559.438 24.948 560.127333 26.18 561.088 27.1406667 562.32 27.83 563.552 28.5193333 564.989333 28.864 566.632 28.864 567.952 28.864 569.162 28.6 570.262 28.072 571.362 27.544 572.352 26.9133333 573.232 26.18L574.86 28.512C573.686667 29.568 572.374 30.3893333 570.922 30.976 569.47 31.5626667 567.952 31.856 566.368 31.856ZM588.368 31.856C585.816 31.856 583.938667 31.1226667 582.736 29.656 581.533333 28.1893333 580.932 26.048 580.932 23.232L580.932 9.944 584.584 9.944 584.584 22.748C584.584 24.772 584.958 26.2753333 585.706 27.258 586.454 28.2406667 587.722667 28.732 589.512 28.732 590.744 28.732 591.866 28.4166667 592.878 27.786 593.89 27.1553333 594.982667 26.1506667 596.156 24.772L596.156 9.944 599.764 9.944 599.764 31.328 596.816 31.328 596.508 27.588 596.332 27.588C595.246667 28.8493333 594.058667 29.876 592.768 30.668 591.477333 31.46 590.010667 31.856 588.368 31.856ZM606.496 31.328 606.496 9.944 609.4 9.944 609.708 12.76 609.796 12.76C610.353333 11.7626667 610.998667 10.956 611.732 10.34 612.465333 9.724 613.448 9.416 614.68 9.416 616.762667 9.416 618.112 10.648 618.728 13.112 619.344 11.968 620.026 11.066 620.774 10.406 621.522 9.746 622.512 9.416 623.744 9.416 625.24 9.416 626.406 9.98066667 627.242 11.11 628.078 12.2393333 628.496 13.8746667 628.496 16.016L628.496 31.328 624.888 31.328 624.888 16.28C624.888 13.7866667 624.125333 12.54 622.6 12.54 621.866667 12.54 621.258 12.8113333 620.774 13.354 620.29 13.8966667 619.754667 14.7253333 619.168 15.84L619.168 31.328 615.824 31.328 615.824 16.28C615.824 15.048 615.655333 14.1166667 615.318 13.486 614.980667 12.8553333 614.416 12.54 613.624 12.54 612.890667 12.54 612.252667 12.8113333 611.71 13.354 611.167333 13.8966667 610.632 14.7253333 610.104 15.84L610.104 31.328 606.496 31.328ZM644.336 12.276C642.576 12.276 641.006667 12.8406667 639.628 13.97 638.249333 15.0993333 637.398667 16.72 637.076 18.832L650.716 18.832C650.569333 16.632 649.924 14.9893333 648.78 13.904 647.636 12.8186667 646.154667 12.276 644.336 12.276ZM644.864 31.856C642.722667 31.856 640.779333 31.416 639.034 30.536 637.288667 29.656 635.902667 28.3726667 634.876 26.686 633.849333 24.9993333 633.336 22.968 633.336 20.592 633.336 18.2746667 633.849333 16.28 634.876 14.608 635.902667 12.936 637.244667 11.6526667 638.902 10.758 640.559333 9.86333333 642.341333 9.416 644.248 9.416 647.328 9.416 649.726 10.3326667 651.442 12.166 653.158 13.9993333 654.016 16.4266667 654.016 19.448 654.016 19.8586667 654.001333 20.2546667 653.972 20.636 653.942667 21.0173333 653.898667 21.3546667 653.84 21.648L636.988 21.648C637.222667 24.0533333 638.11 25.872 639.65 27.104 641.19 28.336 643.074667 28.952 645.304 28.952 646.594667 28.952 647.760667 28.7686667 648.802 28.402 649.843333 28.0353333 650.848 27.544 651.816 26.928L653.136 29.304C652.08 30.008 650.87 30.6093333 649.506 31.108 648.142 31.6066667 646.594667 31.856 644.864 31.856ZM660.836 31.328 660.836 9.944 663.828 9.944 664.136 13.596 664.312 13.596C665.426667 12.3933333 666.629333 11.396 667.92 10.604 669.210667 9.812 670.692 9.416 672.364 9.416 674.886667 9.416 676.749333 10.1493333 677.952 11.616 679.154667 13.0826667 679.756 15.224 679.756 18.04L679.756 31.328 676.148 31.328 676.148 18.524C676.148 16.5 675.766667 14.9966667 675.004 14.014 674.241333 13.0313333 672.98 12.54 671.22 12.54 669.958667 12.54 668.829333 12.8626667 667.832 13.508 666.834667 14.1533333 665.705333 15.1213333 664.444 16.412L664.444 31.328 660.836 31.328ZM700.48 31.856C698.397333 31.856 696.754667 31.482 695.552 30.734 694.349333 29.986 693.491333 28.952 692.978 27.632 692.464667 26.312 692.208 24.772 692.208 23.012L692.208 12.892 686.18 12.892 686.18 10.164 692.34 9.944 692.824 3.08 695.816 3.08 695.816 9.944 706.332 9.944 706.332 12.892 695.816 12.892 695.816 23.056C695.816 24.9626667 696.204667 26.4146667 696.982 27.412 697.759333 28.4093333 699.174667 28.908 701.228 28.908 702.254667 28.908 703.178667 28.82 704 28.644 704.821333 28.468 705.613333 28.2333333 706.376 27.94L707.168 30.58C706.2 30.932 705.180667 31.2326667 704.11 31.482 703.039333 31.7313333 701.829333 31.856 700.48 31.856Z"/></g></g><rect width="100" height="200" fill="url(#c)" transform="matrix(-1 0 0 1 100 0)"/></g></svg>