<svg xmlns="http://www.w3.org/2000/svg" xmlns:xlink="http://www.w3.org/1999/xlink" width="800" height="200" viewBox="0 0 800 200"><defs><linearGradient id="c" x1="100%" x2="0%" y1="50%" y2="50%"><stop offset="0%" stop-color="#FFF"/><stop offset="100%" stop-color="#FFF" stop-opacity="0"/></linearGradient><rect id="a" width="800" height="200" x="0" y="0"/></defs><g fill="none" fill-rule="evenodd"><rect width="800" height="200" fill="#FFF"/><g transform="translate(110 10)"><path fill="#AF52DE" d="M7.6916556,74 C5.01709938,74 4.04724067,73.7215232 3.06946289,73.1986019 C2.09168511,72.6756806 1.32431939,71.9083149 0.801398111,70.9305371 C0.278476833,69.9527593 1.2037061e-16,68.9829006 -2.07168062e-16,66.3083444 L2.07168062e-16,7.6916556 C-1.2037061e-16,5.01709938 0.278476833,4.04724067 0.801398111,3.06946289 C1.32431939,2.09168511 2.09168511,1.32431939 3.06946289,0.801398111 C4.04724067,0.278476833 5.01709938,1.80555915e-16 7.6916556,-3.10752092e-16 L601.308344,3.10752092e-16 C603.982901,-1.80555915e-16 604.952759,0.278476833 605.930537,0.801398111 C606.908315,1.32431939 607.675681,2.09168511 608.198602,3.06946289 C608.721523,4.04724067 609,5.01709938 609,7.6916556 L609,66.3083444 C609,68.9829006 608.721523,69.9527593 608.198602,70.9305371 C607.675681,71.9083149 606.908315,72.6756806 605.930537,73.1986019 C604.952759,73.7215232 603.982901,74 601.308344,74 L16,74 L16,116 L31.999,116 L32,104 L56,119 L32,134 L31.999,122 L10,122 L10,74 L7.6916556,74 Z" opacity=".5"/><path fill="#2C2C2E" fill-rule="nonzero" d="M27.3 10.5 13.74 10.5 13.74 27.03 15.27 27.03 15.27 25.68 25.74 25.68 25.74 27.03 27.3 27.03 27.3 10.5ZM15.27 24.18 15.27 18.81 19.74 18.81 19.74 24.18 15.27 24.18ZM21.24 24.18 21.24 18.81 25.74 18.81 25.74 24.18 21.24 24.18ZM15.27 17.34 15.27 12.03 19.74 12.03 19.74 17.34 15.27 17.34ZM21.24 12.03 25.74 12.03 25.74 17.34 21.24 17.34 21.24 12.03ZM16.35.42 16.35 3.84 12.45 3.84 12.45 5.4 16.35 5.4 16.35 8.7 17.88 8.7 17.88 5.4 22.86 5.4 22.86 8.73 24.42 8.73 24.42 5.4 28.59 5.4 28.59 3.84 24.42 3.84 24.42.42 22.86.42 22.86 3.84 17.88 3.84 17.88.42 16.35.42ZM5.31.09C4.53 3.75 3.36 7.05 1.77 9.99L3.09 10.83C3.99 9.21 4.77 7.41 5.46 5.46L11.43 5.46 11.43 3.9 5.97 3.9C6.27 2.82 6.57 1.65 6.87.42L5.31.09ZM4.59 9.57 4.59 11.07 6.51 11.07 6.51 15.27 2.43 15.27 2.43 16.83 6.51 16.83 6.51 24.33C6.51 24.69 6.27 24.93 5.82 25.11L6.48 26.52C8.7 25.8 10.65 24.9 12.33 23.76L12.06 22.32C10.71 23.22 9.39 23.97 8.1 24.51L8.1 16.83 12.06 16.83 12.06 15.27 8.1 15.27 8.1 11.07 11.31 11.07 11.31 9.57 4.59 9.57ZM43.71 0 43.71 9 35.52 9 35.52 18.21 54.87 18.21 54.87 9 45.3 9 45.3 4.68 57.12 4.68 57.12 3.15 45.3 3.15 45.3 0 43.71 0ZM53.28 16.68 37.14 16.68 37.14 10.53 53.28 10.53 53.28 16.68ZM35.43 19.74C34.35 22.29 33.03 24.48 31.5 26.34L32.82 27.27C34.35 25.35 35.67 23.07 36.81 20.43L35.43 19.74ZM41.49 20.58 39.96 20.91C40.59 22.8 41.1 24.99 41.49 27.51L43.14 27.12C42.66 24.78 42.09 22.59 41.49 20.58ZM47.79 20.31 46.29 20.64C47.19 22.59 47.94 24.87 48.57 27.45L50.19 27.06C49.5 24.63 48.69 22.38 47.79 20.31ZM54.09 19.77 52.77 20.61C54.6 23.1 56.07 25.35 57.15 27.39L58.47 26.46C57.45 24.54 56.01 22.32 54.09 19.77ZM8.58 39.06 0 60.48 2.01 60.48 4.5 54.09 14.82 54.09 17.31 60.48 19.32 60.48 10.74 39.06 8.58 39.06ZM5.1 52.53 9.63 41.04 9.72 41.04 14.22 52.53 5.1 52.53ZM28.05 44.55C26.97 44.55 25.98 44.79 25.11 45.33 24.24 45.87 23.55 46.59 23.01 47.52L23.01 44.97 21.21 44.97 21.21 60.48 23.01 60.48 23.01 51.12C23.1 49.59 23.58 48.36 24.48 47.46 25.32 46.56 26.34 46.11 27.6 46.11 30.54 46.11 32.01 47.76 32.01 51.06L32.01 60.48 33.81 60.48 33.81 50.94C33.81 46.68 31.89 44.55 28.05 44.55ZM44.13 44.55C41.88 44.55 40.11 45.36 38.82 47.01 37.59 48.54 36.99 50.49 36.99 52.83 36.99 55.2 37.56 57.12 38.76 58.56 40.02 60.12 41.82 60.9 44.1 60.9 45.96 60.9 47.49 60.39 48.63 59.4 49.8 58.38 50.55 56.88 50.85 54.93L49.08 54.93C48.63 57.87 46.98 59.34 44.1 59.34 42.39 59.34 41.07 58.74 40.17 57.57 39.27 56.4 38.82 54.81 38.82 52.83 38.82 50.82 39.27 49.2 40.23 48 41.19 46.74 42.51 46.11 44.13 46.11 45.48 46.11 46.59 46.44 47.43 47.1 48.27 47.76 48.78 48.72 48.99 50.04L50.79 50.04C50.55 48.18 49.83 46.8 48.66 45.9 47.49 45 45.99 44.55 44.13 44.55ZM53.73 38.64 53.73 60.48 55.56 60.48 55.56 51.51C55.56 49.98 55.98 48.69 56.88 47.67 57.78 46.62 58.86 46.11 60.15 46.11 61.53 46.11 62.58 46.5 63.36 47.31 64.11 48.15 64.5 49.32 64.5 50.82L64.5 60.48 66.3 60.48 66.3 50.58C66.3 48.66 65.79 47.16 64.8 46.11 63.81 45.06 62.43 44.55 60.66 44.55 59.58 44.55 58.59 44.82 57.72 45.36 56.82 45.93 56.1 46.74 55.56 47.79L55.56 38.64 53.73 38.64ZM76.86 44.55C74.58 44.55 72.75 45.36 71.4 47.01 70.11 48.54 69.48 50.46 69.48 52.74 69.48 55.02 70.11 56.91 71.37 58.44 72.75 60.06 74.58 60.9 76.86 60.9 79.14 60.9 80.97 60.06 82.35 58.44 83.61 56.91 84.24 55.02 84.24 52.74 84.24 50.46 83.61 48.54 82.35 47.01 80.97 45.36 79.14 44.55 76.86 44.55ZM76.86 46.11C78.63 46.11 80.04 46.77 81.06 48.15 81.96 49.35 82.44 50.88 82.44 52.74 82.44 54.54 81.96 56.07 81.06 57.3 80.04 58.65 78.63 59.34 76.86 59.34 75.09 59.34 73.71 58.65 72.69 57.3 71.76 56.1 71.31 54.57 71.31 52.74 71.31 50.88 71.76 49.35 72.69 48.15 73.71 46.77 75.09 46.11 76.86 46.11ZM93.93 44.55C92.79 44.55 91.77 44.91 90.93 45.63 90.21 46.2 89.64 46.98 89.22 47.94L89.22 44.97 87.42 44.97 87.42 60.48 89.22 60.48 89.22 52.29C89.22 50.73 89.61 49.38 90.45 48.24 91.29 46.98 92.43 46.38 93.81 46.38 94.59 46.38 95.37 46.47 96.18 46.71L96.18 44.88C95.58 44.64 94.83 44.55 93.93 44.55Z" transform="translate(61 106.52)"/></g><mask id="b" fill="#fff"><use xlink:href="#a"/></mask><g fill-rule="nonzero" mask="url(#b)"><g transform="translate(6.872 27.46)"><polygon fill="#C7C7CC" points="18.766 31.541 18.766 28.597 11.293 28.597 11.293 0 .063 0 .063 2.943 7.744 2.943 7.744 28.597 0 28.597 0 31.541"/><path fill="#C7C7CC" d="M44.56604 8.89233398 41.0174561 8.89233398 41.0174561 22.230835C41.0174561 26.0925293 38.5125732 28.7017822 34.776123 28.7017822 31.2484131 28.7017822 29.5784912 26.7813721 29.5784912 22.6900635L29.5784912 8.89233398 26.0299072 8.89233398 26.0299072 23.5876465C26.0299072 29.0148926 28.7017822 31.9581299 33.6280518 31.9581299 37.0722656 31.9581299 39.6606445 30.3717041 40.8713379 27.5537109L41.1635742 27.5537109 41.1635742 31.5406494 44.56604 31.5406494 44.56604 8.89233398ZM67.8405762 25.6959229C67.2143555 27.6789551 65.1060791 28.8896484 62.2463379 28.8896484 58.3846436 28.8896484 55.9215088 26.2177734 55.9215088 22.0638428L55.9215088 21.1453857 71.3474121 21.1453857 71.3474121 18.9327393C71.3474121 12.3782959 67.8823242 8.47485352 61.9958496 8.47485352 56.2346191 8.47485352 52.4146729 12.3991699 52.4146729 18.3691406L52.4146729 21.7716064C52.4146729 28.2216797 56.0258789 31.9581299 62.2463379 31.9581299 67.0056152 31.9581299 70.5959473 29.432373 71.28479 25.6959229L67.8405762 25.6959229ZM61.9749756 11.5224609C65.6279297 11.5224609 67.8405762 14.1317139 67.8405762 18.4526367L55.9215088 18.4526367C55.9215088 14.1108398 58.1967773 11.5224609 61.9749756 11.5224609ZM78.5489502 9.89428711 78.5489502 10.0195312 82.0975342 10.0195312 82.0975342 9.89428711C82.0975342 6.34570312 84.3936768 4.02868652 87.8587646 4.02868652 91.3656006 4.02868652 93.6408691 6.15783691 93.6408691 9.39331055 93.6408691 11.7729492 92.7224121 13.380249 88.9024658 17.6594238L78.7159424 28.9940186 78.7159424 31.5406494 97.7739258 31.5406494 97.7739258 28.2008057 83.9761963 28.2008057 83.9761963 27.8459473 91.0733643 20.1225586C95.8743896 14.8831787 97.2938232 12.3782959 97.2938232 9.24719238 97.2938232 4.21655273 93.494751.793212891 87.9631348.793212891 82.4732666.793212891 78.5489502 4.59228516 78.5489502 9.89428711Z"/><path fill="#2C2C2E" d="M125.682495 12.7749023 126.308716 9.7064209 121.925171 9.7064209 123.595093 1.41943359 120.610107 1.41943359 118.940186 9.7064209 112.782349 9.7064209 114.431396 1.41943359 111.446411 1.41943359 109.797363 9.7064209 105.413818 9.7064209 104.808472 12.7749023 109.192017 12.7749023 107.814331 19.8511963 103.430786 19.8511963 102.783691 22.9614258 107.167236 22.9614258 105.455566 31.5406494 108.440552 31.5406494 110.131348 22.9614258 116.310059 22.9614258 114.598389 31.5406494 117.583374 31.5406494 119.295044 22.9614258 123.678589 22.9614258 124.283936 19.8511963 119.900391 19.8511963 121.29895 12.7749023 125.682495 12.7749023ZM112.11438 12.7122803 118.376587 12.7122803 116.957153 19.9346924 110.71582 19.9346924 112.11438 12.7122803ZM130.692261 23.5250244C131.005371 28.8687744 135.075806 32.1668701 141.296265 32.1668701 147.60022 32.1668701 151.670654 28.7226562 151.670654 23.3162842 151.670654 18.7866211 149.20752 16.2399902 143.362793 14.7996826L140.732666 14.1317139C136.80835 13.1506348 135.138428 11.6477051 135.138428 9.03845215 135.138428 5.9699707 137.455444 4.13305664 141.317139 4.13305664 144.865723 4.13305664 147.161865 5.9699707 147.537598 9.0802002L151.12793 9.0802002C150.877441 4.07043457 146.973999.793212891 141.296265.793212891 135.284546.793212891 131.422852 4.11218262 131.422852 9.24719238 131.422852 13.6098633 133.948608 16.2608643 139.542847 17.6802979L142.131226 18.3273926C146.20166 19.3293457 147.955078 20.8948975 147.955078 23.5041504 147.955078 26.739624 145.324951 28.8270264 141.317139 28.8270264 137.309326 28.8270264 134.658325 26.8231201 134.282593 23.5250244L130.692261 23.5250244ZM167.430542 31.9581299C173.421387 31.9581299 177.241333 28.0546875 177.241333 21.9385986L177.241333 18.5152588C177.241333 12.3991699 173.421387 8.49572754 167.430542 8.49572754 161.439697 8.49572754 157.619751 12.3991699 157.619751 18.5152588L157.619751 21.9385986C157.619751 28.0546875 161.439697 31.9581299 167.430542 31.9581299ZM167.430542 11.6268311C171.31311 11.6268311 173.734497 14.3822021 173.734497 18.8283691L173.734497 21.6046143C173.734497 26.0716553 171.31311 28.8061523 167.430542 28.8061523 163.547974 28.8061523 161.126587 26.0716553 161.126587 21.6046143L161.126587 18.8283691C161.126587 14.3822021 163.547974 11.6268311 167.430542 11.6268311ZM204.77417 14.8623047C204.77417 10.666626 203.125122 8.47485352 199.973145 8.47485352 197.697876 8.47485352 195.881836 9.85253906 195.297363 12.0234375L194.921631 12.0234375C194.441528 9.78991699 192.938599 8.47485352 190.809448 8.47485352 188.680298 8.47485352 187.052124 9.81079102 186.488525 12.0860596L186.112793 12.0860596 186.112793 8.89233398 182.939941 8.89233398 182.939941 31.5406494 186.133667 31.5406494 186.133667 16.2608643C186.133667 13.4428711 187.386108 11.7103271 189.390015 11.7103271 191.310425 11.7103271 192.312378 13.1506348 192.312378 15.8851318L192.312378 31.5406494 195.485229 31.5406494 195.485229 16.2608643C195.485229 13.4428711 196.695923 11.7103271 198.678955 11.7103271 200.578491 11.7103271 201.580444 13.1506348 201.580444 15.9060059L201.580444 31.5406494 204.77417 31.5406494 204.77417 14.8623047ZM226.399658 25.6959229C225.773438 27.6789551 223.665161 28.8896484 220.80542 28.8896484 216.943726 28.8896484 214.480591 26.2177734 214.480591 22.0638428L214.480591 21.1453857 229.906494 21.1453857 229.906494 18.9327393C229.906494 12.3782959 226.441406 8.47485352 220.554932 8.47485352 214.793701 8.47485352 210.973755 12.3991699 210.973755 18.3691406L210.973755 21.7716064C210.973755 28.2216797 214.584961 31.9581299 220.80542 31.9581299 225.564697 31.9581299 229.155029 29.432373 229.843872 25.6959229L226.399658 25.6959229ZM220.534058 11.5224609C224.187012 11.5224609 226.399658 14.1317139 226.399658 18.4526367L214.480591 18.4526367C214.480591 14.1108398 216.755859 11.5224609 220.534058 11.5224609Z"/><polygon fill="#2C2C2E" points="258.942 8.892 255.477 8.892 252.409 27.053 252.033 27.053 248.38 8.913 245.04 8.913 241.387 27.053 241.011 27.053 237.943 8.892 234.478 8.892 239.342 31.541 242.744 31.541 246.585 13.881 246.835 13.881 250.676 31.541 254.079 31.541"/><path fill="#2C2C2E" d="M263.847656 31.5406494 267.39624 31.5406494 267.39624 18.2230225C267.39624 14.3613281 269.921997 11.7520752 273.658447 11.7520752 277.207031 11.7520752 278.876953 13.6933594 278.876953 17.7637939L278.876953 31.5406494 282.425537 31.5406494 282.425537 16.8662109C282.425537 11.4598389 279.753662 8.49572754 274.827393 8.49572754 271.362305 8.49572754 268.753052 10.0821533 267.563232 12.9001465L267.270996 12.9001465 267.270996 0 263.847656 0 263.847656 31.5406494ZM305.679199 25.6959229C305.052979 27.6789551 302.944702 28.8896484 300.084961 28.8896484 296.223267 28.8896484 293.760132 26.2177734 293.760132 22.0638428L293.760132 21.1453857 309.186035 21.1453857 309.186035 18.9327393C309.186035 12.3782959 305.720947 8.47485352 299.834473 8.47485352 294.073242 8.47485352 290.253296 12.3991699 290.253296 18.3691406L290.253296 21.7716064C290.253296 28.2216797 293.864502 31.9581299 300.084961 31.9581299 304.844238 31.9581299 308.43457 29.432373 309.123413 25.6959229L305.679199 25.6959229ZM299.813599 11.5224609C303.466553 11.5224609 305.679199 14.1317139 305.679199 18.4526367L293.760132 18.4526367C293.760132 14.1108398 296.0354 11.5224609 299.813599 11.5224609ZM325.092041 21.395874C325.092041 15.6346436 328.056152 12.1695557 333.065918 12.1695557 334.297485 12.1695557 335.758667 12.4200439 336.802368 12.7957764L336.802368 8.80883789C336.050903 8.49572754 334.819336 8.30786133 333.525146 8.30786133 329.162476 8.30786133 326.344482 10.4787598 325.509521 14.6744385L325.050293 14.6744385 325.050293 8.89233398 316.596313 8.89233398 316.596313 11.7312012 321.626953 11.7312012 321.626953 28.7017822 317.055542 28.7017822 317.055542 31.5406494 332.105713 31.5406494 332.105713 28.7017822 325.092041 28.7017822 325.092041 21.395874ZM358.532227 25.6959229C357.906006 27.6789551 355.797729 28.8896484 352.937988 28.8896484 349.076294 28.8896484 346.613159 26.2177734 346.613159 22.0638428L346.613159 21.1453857 362.039062 21.1453857 362.039062 18.9327393C362.039062 12.3782959 358.573975 8.47485352 352.6875 8.47485352 346.92627 8.47485352 343.106323 12.3991699 343.106323 18.3691406L343.106323 21.7716064C343.106323 28.2216797 346.717529 31.9581299 352.937988 31.9581299 357.697266 31.9581299 361.287598 29.432373 361.97644 25.6959229L358.532227 25.6959229ZM352.666626 11.5224609C356.31958 11.5224609 358.532227 14.1317139 358.532227 18.4526367L346.613159 18.4526367C346.613159 14.1108398 348.888428 11.5224609 352.666626 11.5224609Z"/><polygon fill="#2C2C2E" points="386.775 31.541 386.775 28.263 380.68 28.263 380.68 4.697 386.775 4.697 386.775 1.419 370.911 1.419 370.911 4.697 377.006 4.697 377.006 28.263 370.911 28.263 370.911 31.541"/><path fill="#2C2C2E" d="M396.001099,31.5406494 L399.549683,31.5406494 L399.549683,18.2021484 C399.549683,14.3404541 402.054565,11.7312012 405.791016,11.7312012 C409.318726,11.7312012 410.988647,13.6516113 410.988647,17.7429199 L410.988647,31.5406494 L414.537231,31.5406494 L414.537231,16.8453369 C414.537231,11.4180908 411.865356,8.47485352 406.939087,8.47485352 C403.494873,8.47485352 400.906494,10.0612793 399.695801,12.8792725 L399.403564,12.8792725 L399.403564,8.89233398 L396.001099,8.89233398 L396.001099,31.5406494 Z"/><polygon fill="#2C2C2E" points="433.533 31.541 433.533 4.801 442.634 4.801 442.634 1.419 420.758 1.419 420.758 4.801 429.859 4.801 429.859 31.541"/><path fill="#2C2C2E" d="M448.833252 31.5406494 452.381836 31.5406494 452.381836 18.2230225C452.381836 14.3613281 454.907593 11.7520752 458.644043 11.7520752 462.192627 11.7520752 463.862549 13.6933594 463.862549 17.7637939L463.862549 31.5406494 467.411133 31.5406494 467.411133 16.8662109C467.411133 11.4598389 464.739258 8.49572754 459.812988 8.49572754 456.3479 8.49572754 453.738647 10.0821533 452.548828 12.9001465L452.256592 12.9001465 452.256592 0 448.833252 0 448.833252 31.5406494ZM490.664795 25.6959229C490.038574 27.6789551 487.930298 28.8896484 485.070557 28.8896484 481.208862 28.8896484 478.745728 26.2177734 478.745728 22.0638428L478.745728 21.1453857 494.171631 21.1453857 494.171631 18.9327393C494.171631 12.3782959 490.706543 8.47485352 484.820068 8.47485352 479.058838 8.47485352 475.238892 12.3991699 475.238892 18.3691406L475.238892 21.7716064C475.238892 28.2216797 478.850098 31.9581299 485.070557 31.9581299 489.829834 31.9581299 493.420166 29.432373 494.109009 25.6959229L490.664795 25.6959229ZM484.799194 11.5224609C488.452148 11.5224609 490.664795 14.1317139 490.664795 18.4526367L478.745728 18.4526367C478.745728 14.1108398 481.020996 11.5224609 484.799194 11.5224609ZM501.101807 1.41943359 501.101807 31.5406494 509.534912 31.5406494C518.072388 31.5406494 522.372437 26.4891357 522.372437 16.4278564 522.372437 6.45007324 518.072388 1.41943359 509.534912 1.41943359L501.101807 1.41943359ZM504.796509 4.80102539 509.200928 4.80102539C515.567505 4.80102539 518.615112 8.55834961 518.615112 16.4487305 518.615112 24.4226074 515.588379 28.1590576 509.200928 28.1590576L504.796509 28.1590576 504.796509 4.80102539ZM537.401733 31.9581299C543.392578 31.9581299 547.212524 28.0546875 547.212524 21.9385986L547.212524 18.5152588C547.212524 12.3991699 543.392578 8.49572754 537.401733 8.49572754 531.410889 8.49572754 527.590942 12.3991699 527.590942 18.5152588L527.590942 21.9385986C527.590942 28.0546875 531.410889 31.9581299 537.401733 31.9581299ZM537.401733 11.6268311C541.284302 11.6268311 543.705688 14.3822021 543.705688 18.8283691L543.705688 21.6046143C543.705688 26.0716553 541.284302 28.8061523 537.401733 28.8061523 533.519165 28.8061523 531.097778 26.0716553 531.097778 21.6046143L531.097778 18.8283691C531.097778 14.3822021 533.519165 11.6268311 537.401733 11.6268311ZM573.263306 15.9477539C572.678833 11.2928467 569.255493 8.45397949 564.245728 8.45397949 558.087891 8.45397949 554.497559 12.2321777 554.497559 18.723999L554.497559 21.6881104C554.497559 28.1799316 558.087891 31.9581299 564.245728 31.9581299 569.255493 31.9581299 572.699707 29.1401367 573.263306 24.5269775L569.75647 24.5269775C569.318115 27.1153564 567.105469 28.7644043 564.183105 28.7644043 560.237915 28.7644043 558.046143 26.0925293 558.046143 21.2288818L558.046143 19.1832275C558.046143 14.3195801 560.237915 11.6268311 564.183105 11.6268311 567.105469 11.6268311 569.318115 13.2967529 569.75647 15.9477539L573.263306 15.9477539ZM599.522827 8.89233398 595.974243 8.89233398 595.974243 22.230835C595.974243 26.0925293 593.46936 28.7017822 589.73291 28.7017822 586.2052 28.7017822 584.535278 26.7813721 584.535278 22.6900635L584.535278 8.89233398 580.986694 8.89233398 580.986694 23.5876465C580.986694 29.0148926 583.658569 31.9581299 588.584839 31.9581299 592.029053 31.9581299 594.617432 30.3717041 595.828125 27.5537109L596.120361 27.5537109 596.120361 31.5406494 599.522827 31.5406494 599.522827 8.89233398ZM627.598389 14.8623047C627.598389 10.666626 625.949341 8.47485352 622.797363 8.47485352 620.522095 8.47485352 618.706055 9.85253906 618.121582 12.0234375L617.74585 12.0234375C617.265747 9.78991699 615.762817 8.47485352 613.633667 8.47485352 611.504517 8.47485352 609.876343 9.81079102 609.312744 12.0860596L608.937012 12.0860596 608.937012 8.89233398 605.76416 8.89233398 605.76416 31.5406494 608.957886 31.5406494 608.957886 16.2608643C608.957886 13.4428711 610.210327 11.7103271 612.214233 11.7103271 614.134644 11.7103271 615.136597 13.1506348 615.136597 15.8851318L615.136597 31.5406494 618.309448 31.5406494 618.309448 16.2608643C618.309448 13.4428711 619.520142 11.7103271 621.503174 11.7103271 623.40271 11.7103271 624.404663 13.1506348 624.404663 15.9060059L624.404663 31.5406494 627.598389 31.5406494 627.598389 14.8623047ZM649.223877 25.6959229C648.597656 27.6789551 646.48938 28.8896484 643.629639 28.8896484 639.767944 28.8896484 637.30481 26.2177734 637.30481 22.0638428L637.30481 21.1453857 652.730713 21.1453857 652.730713 18.9327393C652.730713 12.3782959 649.265625 8.47485352 643.37915 8.47485352 637.61792 8.47485352 633.797974 12.3991699 633.797974 18.3691406L633.797974 21.7716064C633.797974 28.2216797 637.40918 31.9581299 643.629639 31.9581299 648.388916 31.9581299 651.979248 29.432373 652.668091 25.6959229L649.223877 25.6959229ZM643.358276 11.5224609C647.01123 11.5224609 649.223877 14.1317139 649.223877 18.4526367L637.30481 18.4526367C637.30481 14.1108398 639.580078 11.5224609 643.358276 11.5224609ZM660.266235 31.5406494 663.814819 31.5406494 663.814819 18.2021484C663.814819 14.3404541 666.319702 11.7312012 670.056152 11.7312012 673.583862 11.7312012 675.253784 13.6516113 675.253784 17.7429199L675.253784 31.5406494 678.802368 31.5406494 678.802368 16.8453369C678.802368 11.4180908 676.130493 8.47485352 671.204224 8.47485352 667.76001 8.47485352 665.171631 10.0612793 663.960938 12.8792725L663.668701 12.8792725 663.668701 8.89233398 660.266235 8.89233398 660.266235 31.5406494ZM692.099121 2.81799316 692.099121 8.95495605 686.066528 8.95495605 686.066528 11.9816895 692.099121 11.9816895 692.099121 24.7983398C692.099121 29.5158691 694.708374 31.6450195 700.323486 31.6450195 701.408936 31.6450195 704.164307 31.5406494 704.727905 31.4362793L704.727905 28.4304199C704.122559 28.493042 701.84729 28.5556641 700.573975 28.5556641 697.380249 28.5556641 695.647705 27.2197266 695.647705 24.7565918L695.647705 11.9816895 704.790527 11.9816895 704.790527 8.95495605 695.605957 8.95495605 695.605957 2.81799316 692.099121 2.81799316Z"/></g></g><rect width="100" height="200" fill="url(#c)" transform="matrix(-1 0 0 1 100 0)"/></g></svg>