<svg xmlns="http://www.w3.org/2000/svg" width="800" height="200" viewBox="0 0 800 200"><defs><linearGradient id="a" x1="100%" x2="0%" y1="50%" y2="50%"><stop offset="0%" stop-color="#FFF"/><stop offset="100%" stop-color="#FFF" stop-opacity="0"/></linearGradient></defs><g fill="none" fill-rule="evenodd"><rect width="800" height="200" fill="#FFF"/><g transform="translate(-68.907)"><rect width="800" height="200" x="68.907" fill="#FFF" fill-rule="nonzero"/><path fill="#000" fill-rule="nonzero" d="M676.9452,115.57 L678.3582,115.57 L678.3582,122.323 L663.7462,122.323 L663.7462,115.57 L665.0942,115.57 L665.0942,120.997 L670.0742,120.997 L670.0742,114.068 L671.4592,114.068 L671.4592,120.997 L676.9452,120.997 L676.9452,115.57 Z M657.0302,114.339 C657.8652,115.753 658.7952,117.577 659.1832,118.778 L657.8942,119.291 C657.4772,118.06 656.5762,116.17 655.7702,114.757 L657.0302,114.339 Z M685.1042,140.348 L685.1042,117.247 L706.8272,117.247 L706.8272,140.172 L705.3262,140.172 L705.3262,137.74 L686.5762,137.74 L686.5762,140.348 L685.1042,140.348 Z M686.5762,118.69 L686.5762,136.268 L705.3262,136.268 L705.3262,118.69 L686.5762,118.69 Z M652.6142,119.891 L662.6042,119.891 L662.6042,121.239 L652.6142,121.239 L652.6142,119.891 Z M661.4982,122.828 C660.9562,126.549 660.1142,131.617 659.3082,134.891 L662.7582,134.02 L662.9042,135.367 C659.3372,136.327 655.6462,137.323 652.9142,138.041 L652.5262,136.598 C654.0272,136.239 655.9752,135.792 658.1072,135.221 C658.8902,131.917 659.7552,126.336 660.1792,122.528 L661.4982,122.828 Z M654.8992,122.857 C655.6752,126.432 656.3342,130.958 656.4592,134.049 L655.2282,134.261 C655.1042,131.2 654.4452,126.607 653.6982,123.07 L654.8992,122.857 Z M679.4642,124.93 L679.4642,126.278 L671.6052,126.278 C671.3052,127.362 671.0052,128.563 670.7702,129.522 L678.7172,129.522 L678.7172,139.718 C678.7172,140.443 678.6002,140.772 678.0872,140.978 C677.5742,141.219 676.7982,141.249 675.4502,141.249 C675.3552,140.89 675.1142,140.414 674.9382,140.047 C675.9562,140.077 676.7982,140.077 677.0402,140.047 C677.3032,140.047 677.3992,139.959 677.3992,139.688 L677.3992,130.841 L673.9202,130.841 L673.9202,140.772 L672.6892,140.772 L672.6892,130.841 L669.2692,130.841 L669.2692,140.86 L668.0382,140.86 L668.0382,130.841 L664.7352,130.841 L664.7352,141.19 L663.3872,141.19 L663.3872,129.522 L669.3862,129.522 C669.6282,128.563 669.8402,127.333 669.9872,126.278 L662.3032,126.278 L662.3032,124.93 L679.4642,124.93 Z M655.8872,175 L654.0862,175 L654.0862,153.13 L659.7552,153.13 C664.7062,153.13 667.7382,154.749 667.7382,159.282 C667.7382,163.662 664.7352,165.757 659.8792,165.757 L655.8872,165.757 L655.8872,175 Z M707.1902,174.788 C706.2602,175.117 705.2352,175.388 704.5172,175.388 C701.3682,175.388 700.4082,173.411 700.4082,170.437 L700.4082,160.483 L697.9182,160.483 L697.9182,159.158 L700.4672,159.011 L700.6792,154.39 L702.1442,154.39 L702.1442,159.011 L706.7362,159.011 L706.7362,160.483 L702.1442,160.483 L702.1442,170.562 C702.1442,172.568 702.6862,173.887 704.8172,173.887 C705.4182,173.887 706.1942,173.682 706.7662,173.44 L707.1902,174.788 Z M655.8872,154.631 L655.8872,164.263 L659.5202,164.263 C663.8342,164.263 665.9072,162.791 665.9072,159.282 C665.9072,155.737 663.7462,154.631 659.3962,154.631 L655.8872,154.631 Z M684.5702,167.017 C684.5702,172.327 681.2082,175.388 677.3412,175.388 C673.4662,175.388 670.1042,172.327 670.1042,167.017 C670.1042,161.677 673.4662,158.586 677.3412,158.586 C681.2082,158.586 684.5702,161.677 684.5702,167.017 Z M690.9862,175 L689.2502,175 L689.2502,159.011 L690.6852,159.011 L690.8982,161.978 L690.9562,161.978 C692.0402,159.971 693.6302,158.586 695.4902,158.586 C696.1202,158.586 696.5962,158.682 697.1092,158.953 L696.7502,160.513 C696.2082,160.3 695.9082,160.242 695.2782,160.242 C693.8642,160.242 692.1582,161.289 690.9862,164.263 L690.9862,175 Z M671.9352,167.017 C671.9352,171.104 674.2202,173.887 677.3412,173.887 C680.4532,173.887 682.7682,171.104 682.7682,167.017 C682.7682,162.937 680.4532,160.117 677.3412,160.117 C674.2202,160.117 671.9352,162.937 671.9352,167.017 Z"/><path fill="#FBDA7F" d="M615.9072,126 L615.9072,84 L609.9072,84 L609.9072,132 L621.9072,132 L621.9072,144 L645.9072,129 L621.9072,114 L621.9072,126 L615.9072,126 Z M643.0272,10 C648.5672,10 651.3372,10 653.0832,11.6913 C653.1282,11.735 653.1722,11.7794 653.2162,11.8245 C654.9072,13.5697 654.9072,16.3398 654.9072,21.88 L654.9072,72.12 C654.9072,77.66 654.9072,80.4301 653.2162,82.1755 C653.1722,82.2206 653.1282,82.265 653.0832,82.3087 C651.3382,84 648.5672,84 643.0272,84 L611.7872,84 C606.2472,84 603.4772,84 601.7312,82.3087 C601.6862,82.265 601.6422,82.2206 601.5982,82.1755 C599.9072,80.4301 599.9072,77.66 599.9072,72.12 L599.9072,21.88 C599.9072,16.3398 599.9072,13.5697 601.5982,11.8245 C601.6422,11.7794 601.6862,11.735 601.7312,11.6913 C603.4772,10 606.2472,10 611.7872,10 L643.0272,10 Z"/><path fill="#A1EBDA" d="M214.9072,84 L214.9072,132 L208.9072,132 L208.9072,84 L214.9072,84 Z M230.9072,126 L230.9072,132 L214.9072,132 L214.9072,126 L230.9072,126 Z M254.9072,129 L230.9072,144 L230.9072,114 L254.9072,129 Z M569.0272,10 C574.5672,10 577.3372,10 579.0832,11.6913 C579.1282,11.735 579.1722,11.7794 579.2162,11.8246 C580.9072,13.5696 580.9072,16.3397 580.9072,21.88 L580.9072,72.12 C580.9072,77.6602 580.9072,80.4302 579.2162,82.1755 C579.1722,82.2206 579.1282,82.265 579.0832,82.3087 C577.3372,84 574.5672,84 569.0272,84 L190.7872,84 C185.2472,84 182.4772,84 180.7322,82.3087 C180.6862,82.265 180.6422,82.2206 180.5982,82.1755 C178.9072,80.4301 178.9072,77.66 178.9072,72.12 L178.9072,21.88 C178.9072,16.3398 178.9072,13.5697 180.5982,11.8245 C180.6422,11.7794 180.6862,11.735 180.7322,11.6913 C182.4772,10 185.2472,10 190.7872,10 L569.0272,10 Z"/><path fill="#000" fill-rule="nonzero" d="M301.7282 129.193 315.1972 129.193 315.1972 141.19 313.7252 141.19 313.7252 139.447 299.1792 139.447 299.1792 141.19 297.7372 141.19 297.7372 130.87C295.9352 131.5 294.1702 132.042 292.4562 132.43 292.3392 132.042 291.9802 131.412 291.7092 131.112 295.5172 130.299 299.7142 128.827 303.4642 126.732 302.0872 125.472 300.0442 123.817 298.3372 122.652L299.4142 121.839C301.2452 123.011 303.3762 124.688 304.7602 125.948 308.0862 123.912 310.9932 121.363 312.8542 118.39L300.8862 118.39C298.9082 120.396 296.4182 122.293 293.4452 123.854 293.2392 123.517 292.7562 123.041 292.4562 122.77 297.2902 120.367 300.7982 116.859 302.5712 113.951L304.2182 114.281C303.6182 115.182 302.9002 116.141 302.1162 117.042L313.8212 117.042 314.0842 116.983 314.9852 117.577C312.2902 122.682 307.2142 126.578 301.7282 129.193ZM282.4952 132.042C284.0262 129.493 285.2272 126.578 286.1282 123.341L287.5052 123.612C286.3692 127.567 284.8392 131.017 282.8542 133.961 283.6672 137.682 284.7432 139.776 286.0982 139.776 286.7872 139.776 287.0582 138.517 287.2042 135.133 287.5342 135.433 287.9882 135.733 288.3472 135.851 288.0762 139.813 287.6002 141.19 285.9452 141.19 284.0552 141.19 282.7072 139.059 281.8062 135.462 280.1882 137.557 278.2692 139.388 276.1372 140.89 275.9252 140.619 275.3542 140.143 275.0242 139.901 277.5442 138.282 279.6462 136.209 281.4182 133.719 280.7302 130.086 280.3052 125.377 280.1002 119.979L269.6852 119.979 269.6852 118.631 280.1002 118.631C280.0342 117.13 280.0342 115.599 280.0052 114.039L281.4482 114.039C281.4482 115.628 281.4482 117.159 281.4772 118.631L288.1052 118.631 288.1052 119.979 281.5062 119.979C281.6232 124.747 281.9902 128.827 282.4952 132.042ZM283.8792 114.127C285.2272 115.028 286.9042 116.412 287.7462 117.313L286.8162 118.207C286.0112 117.284 284.3852 115.841 282.9782 114.911L283.8792 114.127ZM266.1772 133.302C267.2242 132.818 268.3372 132.342 269.4142 131.83L269.7802 133.119C266.9242 134.437 264.0452 135.851 261.7382 136.898L261.1962 135.462C262.2142 135.067 263.4452 134.532 264.8292 133.932L264.8292 122.799 261.3502 122.799 261.3502 121.422 264.8292 121.422 264.8292 114.31 266.1772 114.31 266.1772 121.422 269.1792 121.422 269.1792 122.799 266.1772 122.799 266.1772 133.302ZM270.6152 131.712 270.6152 123.312 277.9392 123.312 277.9392 131.712 270.6152 131.712ZM271.8452 130.453 276.6792 130.453 276.6792 124.571 271.8452 124.571 271.8452 130.453ZM299.1792 130.541 299.1792 138.099 313.7252 138.099 313.7252 130.541 299.1792 130.541ZM268.6672 136.422C271.3402 135.697 275.4782 134.532 279.4332 133.39L279.5872 134.649C275.8662 135.763 271.9992 136.927 269.1142 137.799L268.6672 136.422ZM346.7862 153.877C346.7862 154.69 346.0972 155.261 345.3132 155.261 344.5082 155.261 343.8492 154.69 343.8492 153.877 343.8492 152.983 344.5082 152.441 345.3132 152.441 346.0972 152.441 346.7862 152.983 346.7862 153.877ZM268.2792 175 263.0862 175 263.0862 153.13 268.2492 153.13C274.9662 153.13 278.2692 157.297 278.2692 163.992 278.2692 170.679 274.9662 175 268.2792 175ZM264.8872 154.631 264.8872 173.469 268.0662 173.469C273.8302 173.469 276.3792 169.661 276.3792 163.992 276.3792 158.323 273.8302 154.631 268.0662 154.631L264.8872 154.631ZM296.2102 167.017C296.2102 172.327 292.8482 175.388 288.9812 175.388 285.1062 175.388 281.7442 172.327 281.7442 167.017 281.7442 161.677 285.1062 158.586 288.9812 158.586 292.8482 158.586 296.2102 161.677 296.2102 167.017ZM302.6262 175 300.8902 175 300.8902 159.011 302.3252 159.011 302.5382 161.443 302.5962 161.443C304.0392 159.854 305.8342 158.586 307.6362 158.586 310.1842 158.586 311.4732 159.883 312.0452 161.831 313.8462 159.883 315.5902 158.586 317.4502 158.586 320.6582 158.586 322.2472 160.659 322.2472 164.768L322.2472 175 320.5042 175 320.5042 165.01C320.5042 161.677 319.3982 160.146 317.0542 160.146 315.6192 160.146 314.1472 161.113 312.4402 163.032L312.4402 175 310.6972 175 310.6972 165.01C310.6972 161.677 309.6202 160.146 307.2472 160.146 305.8342 160.146 304.3102 161.113 302.6262 163.032L302.6262 175ZM337.1292 172.957C335.5102 174.282 333.5842 175.388 331.5472 175.388 328.9692 175.388 326.8972 173.953 326.8972 170.979 326.8972 167.441 330.0462 165.757 337.0992 164.951 337.1582 162.578 336.4692 160.117 333.4372 160.117 331.3352 160.117 329.5042 161.113 328.3982 161.948L327.6142 160.688C328.8452 159.854 331.0642 158.586 333.6792 158.586 337.4872 158.586 338.8352 161.318 338.8352 164.863L338.8352 175 337.3702 175 337.1872 172.957 337.1292 172.957ZM353.8662 175 352.1302 175 352.1302 159.011 353.5652 159.011 353.7782 161.443 353.8362 161.443C355.4552 159.854 357.1102 158.586 359.3002 158.586 362.6252 158.586 364.1562 160.659 364.1562 164.768L364.1562 175 362.4202 175 362.4202 165.01C362.4202 161.677 361.3662 160.146 358.9052 160.146 357.0442 160.146 355.7262 161.113 353.8662 163.032L353.8662 175ZM378.3162 175 376.5802 175 376.5802 159.011 378.0152 159.011 378.2282 161.443 378.2862 161.443C379.9052 159.854 381.5602 158.586 383.7502 158.586 387.0752 158.586 388.6062 160.659 388.6062 164.768L388.6062 175 386.8702 175 386.8702 165.01C386.8702 161.677 385.8162 160.146 383.3552 160.146 381.4942 160.146 380.1762 161.113 378.3162 163.032L378.3162 175ZM403.4882 172.957C401.8702 174.282 399.9442 175.388 397.9072 175.388 395.3292 175.388 393.2572 173.953 393.2572 170.979 393.2572 167.441 396.4062 165.757 403.4592 164.951 403.5182 162.578 402.8292 160.117 399.7972 160.117 397.6952 160.117 395.8642 161.113 394.7582 161.948L393.9742 160.688C395.2052 159.854 397.4242 158.586 400.0392 158.586 403.8472 158.586 405.1952 161.318 405.1952 164.863L405.1952 175 403.7302 175 403.5472 172.957 403.4882 172.957ZM412.5162 175 410.7802 175 410.7802 159.011 412.2152 159.011 412.4282 161.443 412.4862 161.443C413.9292 159.854 415.7242 158.586 417.5252 158.586 420.0742 158.586 421.3632 159.883 421.9352 161.831 423.7362 159.883 425.4802 158.586 427.3402 158.586 430.5482 158.586 432.1372 160.659 432.1372 164.768L432.1372 175 430.3942 175 430.3942 165.01C430.3942 161.677 429.2882 160.146 426.9442 160.146 425.5092 160.146 424.0372 161.113 422.3302 163.032L422.3302 175 420.5872 175 420.5872 165.01C420.5872 161.677 419.5102 160.146 417.1372 160.146 415.7242 160.146 414.2002 161.113 412.5162 163.032L412.5162 175ZM449.1202 173.828C447.8242 174.641 446.3302 175.388 444.0152 175.388 439.9072 175.388 436.5742 172.268 436.5742 167.017 436.5742 161.831 439.9652 158.586 443.5982 158.586 447.4652 158.586 449.7802 161.348 449.7802 166.028 449.7802 166.482 449.7502 166.899 449.6842 167.288L438.3472 167.288C438.4342 171.191 440.7492 173.923 444.1992 173.923 445.9052 173.923 447.2602 173.381 448.4542 172.539L449.1202 173.828ZM346.1562 175 344.4202 175 344.4202 159.011 346.1562 159.011 346.1562 175ZM443.6272 160.088C441.0202 160.088 438.6762 162.249 438.3472 165.911L448.1902 165.911C448.1902 162.043 446.4182 160.088 443.6272 160.088ZM283.5752 167.017C283.5752 171.104 285.8602 173.887 288.9812 173.887 292.0932 173.887 294.4082 171.104 294.4082 167.017 294.4082 162.937 292.0932 160.117 288.9812 160.117 285.8602 160.117 283.5752 162.937 283.5752 167.017ZM328.6402 170.891C328.6402 173.081 330.1342 173.923 331.9062 173.923 333.6792 173.923 335.2102 173.081 337.0992 171.433L337.0992 166.24C330.8002 166.958 328.6402 168.43 328.6402 170.891ZM395.0002 170.891C395.0002 173.081 396.4942 173.923 398.2662 173.923 400.0392 173.923 401.5702 173.081 403.4592 171.433L403.4592 166.24C397.1602 166.958 395.0002 168.43 395.0002 170.891ZM431.0032 57.5713C432.2212 58.8747 433.957867 59.5264 436.2132 59.5264 437.387867 59.5264 438.383533 59.4154 439.2002 59.1934 440.023533 58.9785333 440.936533 58.6634 441.9392 58.248L441.0152 55.5732C439.604533 56.2177333 438.268867 56.54 437.0082 56.54 435.7482 56.54 434.727867 56.1891 433.9472 55.4873 433.173867 54.7783 432.7872 53.6468 432.7872 52.0928L432.7872 27.6758 421.5612 27.6758 421.5612 30.6191 429.1772 30.6191 429.1772 51.8242C429.1772 54.3522 429.785867 56.2679 431.0032 57.5713ZM610.9162 58.5381C612.455533 59.1969667 614.281533 59.5264 616.3942 59.5264 618.535533 59.5264 620.354533 59.1969667 621.8512 58.5381 623.347867 57.8792333 624.4902 56.9769 625.2782 55.8311 626.072867 54.6852333 626.4702 53.4248 626.4702 52.0498 626.4702 50.6962667 626.226867 49.5826667 625.7402 48.709 625.2602 47.8281333 624.6012 47.0726 623.7632 46.4424 622.9252 45.8122 621.9942 45.2464333 620.9702 44.7451L620.9702 44.5732C622.144867 43.7496667 623.147533 42.7578333 623.9782 41.5977 624.8162 40.4375 625.2352 39.1985667 625.2352 37.8809 625.2352 35.7109667 624.472533 33.9241667 622.9472 32.5205 621.421867 31.1097 619.280533 30.4043 616.5232 30.4043 614.854533 30.4043 613.364867 30.7050667 612.0542 31.3066 610.750867 31.9082 609.7232 32.7532667 608.9712 33.8418 608.226533 34.9232 607.8542 36.1800333 607.8542 37.6123 607.8542 39.0804333 608.2732 40.3587667 609.1112 41.4473 609.9492 42.5286333 610.9552 43.4381333 612.1292 44.1758L612.1292 44.3477C611.1272 44.8203 610.1642 45.3932 609.2402 46.0664 608.3162 46.7396 607.560533 47.5452667 606.9732 48.4834 606.3932 49.4215333 606.1032 50.5351333 606.1032 51.8242 606.1032 53.2923333 606.518533 54.6136333 607.3492 55.7881 608.1872 56.9625667 609.3762 57.8792333 610.9162 58.5381ZM635.3392 55.7021C637.143867 58.2516333 639.6002 59.5264 642.7082 59.5264 645.844867 59.5264 648.308533 58.2516333 650.0992 55.7021 651.8892 53.1455 652.7842 49.5361333 652.7842 44.874 652.7842 40.1546 651.8892 36.5631333 650.0992 34.0996 648.308533 31.6360667 645.844867 30.4043 642.7082 30.4043 639.6002 30.4043 637.143867 31.6360667 635.3392 34.0996 633.534533 36.5631333 632.6322 40.1546 632.6322 44.874 632.6322 49.5361333 633.534533 53.1455 635.3392 55.7021ZM622.1092 38.0527C622.1092 40.1080333 620.9382 41.9879333 618.5962 43.6924 617.2142 43.2484 615.957533 42.7721667 614.8262 42.2637 613.701533 41.7480333 612.809867 41.1249667 612.1512 40.3945 611.492533 39.6569 611.1632 38.7295 611.1632 37.6123 611.1632 36.2373 611.653533 35.1380333 612.6342 34.3145 613.615533 33.4909 614.8832 33.0791 616.4372 33.0791 618.2852 33.0791 619.692533 33.5660667 620.6592 34.54 621.625867 35.5068 622.1092 36.6777 622.1092 38.0527ZM647.5212 53.7686C646.274533 55.6735333 644.6702 56.626 642.7082 56.626 640.738867 56.626 639.1312 55.6735333 637.8852 53.7686 636.6392 51.8564667 636.0162 48.8916 636.0162 44.874 636.0162 40.8278 636.6392 37.8880333 637.8852 36.0547 639.1312 34.2213667 640.738867 33.3047 642.7082 33.3047 644.6702 33.3047 646.274533 34.2213667 647.5212 36.0547 648.7672 37.8880333 649.3902 40.8278 649.3902 44.874 649.3902 48.8916 648.7672 51.8564667 647.5212 53.7686ZM587.3732 42.7471C588.067867 43.4345667 588.912867 43.7783 589.9082 43.7783 590.903533 43.7783 591.7452 43.4345667 592.4332 42.7471 593.127867 42.0595667 593.4752 41.1715333 593.4752 40.083 593.4752 38.9658 593.127867 38.0634667 592.4332 37.376 591.7452 36.6884667 590.903533 36.3447 589.9082 36.3447 588.912867 36.3447 588.067867 36.6884667 587.3732 37.376 586.685867 38.0634667 586.3422 38.9658 586.3422 40.083 586.3422 41.1715333 586.685867 42.0595667 587.3732 42.7471ZM294.9972 58.2051C296.744533 59.0859667 298.688867 59.5264 300.8302 59.5264 302.5562 59.5264 304.099533 59.2793333 305.4602 58.7852 306.827533 58.2838667 308.0412 57.6823 309.1012 56.9805L307.7802 54.5957C306.813533 55.2115667 305.8072 55.7057 304.7612 56.0781 303.7232 56.4433667 302.559533 56.626 301.2702 56.626 299.0362 56.626 297.1492 56.0101 295.6092 54.7783 294.069867 53.5465667 293.181867 51.7275667 292.9452 49.3213L309.8002 49.3213C309.857533 49.0277 309.9002 48.6911 309.9282 48.3115 309.9642 47.9247667 309.9822 47.5273 309.9822 47.1191 309.9822 44.0969667 309.122867 41.6692333 307.4042 39.8359 305.685533 38.0025667 303.286533 37.0859 300.2072 37.0859 298.301867 37.0859 296.518533 37.5335 294.8572 38.4287 293.2032 39.3239 291.8642 40.6094 290.8402 42.2852 289.815533 43.9538 289.3032 45.9482667 289.3032 48.2686 289.3032 50.639 289.815533 52.6692667 290.8402 54.3594 291.8642 56.0423333 293.249867 57.3242333 294.9972 58.2051ZM346.2932 58.8066C347.395867 59.2864667 348.609533 59.5264 349.9342 59.5264 351.4602 59.5264 352.953533 59.1826333 354.4142 58.4951 355.8822 57.8076333 357.203533 57.0091333 358.3782 56.0996L358.5072 56.0996 358.8182 59 361.7622 59 361.7622 45.8838C361.7622 43.2197333 361.049533 41.0892 359.6242 39.4922 358.2062 37.888 356.032533 37.0859 353.1032 37.0859 351.219867 37.0859 349.4332 37.4260667 347.7432 38.1064 346.060533 38.7796 344.678533 39.4671 343.5972 40.1689L345.0042 42.6289C345.999533 42.0130333 347.148867 41.4365333 348.4522 40.8994 349.762867 40.3551333 351.105533 40.083 352.4802 40.083 353.862867 40.083 354.9622 40.3336667 355.7782 40.835 356.6022 41.3291333 357.196533 41.9808 357.5612 42.79 357.926533 43.5921333 358.1272 44.4766 358.1632 45.4434 354.496533 45.737 351.5172 46.2096333 349.2252 46.8613 346.9412 47.5058333 345.2762 48.3652333 344.2302 49.4395 343.1922 50.5065 342.6732 51.8456667 342.6732 53.457 342.6732 54.7174667 343.002533 55.8024333 343.6612 56.7119 344.319867 57.6214333 345.1972 58.3196667 346.2932 58.8066ZM368.0632 37.6123 368.0632 59 371.6622 59 371.6622 43.5098C372.191533 42.3997333 372.728533 41.5725667 373.2732 41.0283 373.8172 40.4840333 374.454533 40.2119 375.1852 40.2119 375.979867 40.2119 376.545533 40.527 376.8822 41.1572 377.218867 41.7874 377.3872 42.7184 377.3872 43.9502L377.3872 59 380.7282 59 380.7282 43.5098C381.315533 42.3997333 381.8492 41.5725667 382.3292 41.0283 382.815867 40.4840333 383.427867 40.2119 384.1652 40.2119 385.6912 40.2119 386.4542 41.458 386.4542 43.9502L386.4542 59 390.0632 59 390.0632 43.6924C390.0632 41.5511333 389.6442 39.9147333 388.8062 38.7832 387.9682 37.6516667 386.800867 37.0859 385.3042 37.0859 384.0722 37.0859 383.080533 37.4189333 382.3292 38.085 381.583867 38.7438 380.903533 39.6425333 380.2882 40.7812 379.6722 38.3176667 378.3222 37.0859 376.2382 37.0859 375.0062 37.0859 374.024867 37.3938667 373.2942 38.0098 372.5642 38.6256667 371.919867 39.4313333 371.3612 40.4268L371.2752 40.4268 370.9632 37.6123 368.0632 37.6123ZM395.9992 37.6123 395.9992 68.0234 399.6082 68.0234 399.6082 60.8047 399.4262 56.7549 399.5652 56.7549C400.503867 57.6357667 401.549533 58.3196667 402.7022 58.8066 403.8622 59.2864667 404.943533 59.5264 405.9462 59.5264 407.6722 59.5264 409.2692 59.0716333 410.7372 58.1621 412.2052 57.2526333 413.3942 55.9349333 414.3042 54.209 415.213533 52.4759333 415.6682 50.4062667 415.6682 48 415.6682 44.6842667 414.912533 42.0381 413.4012 40.0615 411.890533 38.0777667 409.6992 37.0859 406.8272 37.0859 405.502533 37.0859 404.188533 37.3938667 402.8852 38.0098 401.581867 38.6256667 400.428867 39.4026667 399.4262 40.3408L399.2972 40.3408 398.9852 37.6123 395.9992 37.6123ZM453.3972 58.2051C455.144533 59.0859667 457.088867 59.5264 459.2302 59.5264 460.955533 59.5264 462.498867 59.2793333 463.8602 58.7852 465.227533 58.2838667 466.4412 57.6823 467.5012 56.9805L466.1802 54.5957C465.213533 55.2115667 464.2072 55.7057 463.1612 56.0781 462.1232 56.4433667 460.959533 56.626 459.6702 56.626 457.435533 56.626 455.548533 56.0101 454.0092 54.7783 452.4692 53.5465667 451.5812 51.7275667 451.3452 49.3213L468.1992 49.3213C468.256533 49.0277 468.299533 48.6911 468.3282 48.3115 468.3642 47.9247667 468.3822 47.5273 468.3822 47.1191 468.3822 44.0969667 467.522867 41.6692333 465.8042 39.8359 464.085533 38.0025667 461.686533 37.0859 458.6072 37.0859 456.701867 37.0859 454.918533 37.5335 453.2572 38.4287 451.6032 39.3239 450.263867 40.6094 449.2392 42.2852 448.2152 43.9538 447.7032 45.9482667 447.7032 48.2686 447.7032 50.639 448.2152 52.6692667 449.2392 54.3594 450.263867 56.0423333 451.649867 57.3242333 453.3972 58.2051ZM506.7442 58.2051C508.5062 59.0859667 510.500867 59.5264 512.7282 59.5264 514.310867 59.5264 515.828867 59.2327667 517.2822 58.6455 518.7362 58.0582333 520.050533 57.2382333 521.2252 56.1855L519.5922 53.8545C518.711533 54.5849667 517.719533 55.2151667 516.6162 55.7451 515.520867 56.2750333 514.3142 56.54 512.9962 56.54 511.349533 56.54 509.9102 56.1962667 508.6782 55.5088 507.4462 54.8141333 506.486533 53.8509 505.7992 52.6191 505.111867 51.3873667 504.7682 49.9658333 504.7682 48.3545 504.7682 46.7073667 505.1192 45.2607333 505.8212 44.0146 506.522533 42.7685333 507.4962 41.8017667 508.7422 41.1143 509.995533 40.4267667 511.4422 40.083 513.0822 40.083 514.199533 40.083 515.234533 40.305 516.1872 40.749 517.1392 41.1858667 518.055867 41.7838667 518.9372 42.543L520.7412 40.2119C519.860533 39.3597 518.7722 38.6256667 517.4762 38.0098 516.186867 37.3938667 514.6792 37.0859 512.9532 37.0859 510.811867 37.0859 508.831867 37.5263333 507.0132 38.4072 505.193867 39.2880667 503.7402 40.5664 502.6522 42.2422 501.570867 43.9108 501.0302 45.9482333 501.0302 48.3545 501.0302 50.6963 501.5422 52.7051 502.5662 54.3809 503.5902 56.0495 504.982867 57.3242333 506.7442 58.2051ZM531.8882 58.2051C533.4922 59.0859667 535.2322 59.5264 537.1082 59.5264 538.984867 59.5264 540.721533 59.0859667 542.3182 58.2051 543.915533 57.3242333 545.204533 56.0495 546.1852 54.3809 547.173867 52.7051 547.6682 50.6963 547.6682 48.3545 547.6682 45.9482333 547.173867 43.9108 546.1852 42.2422 545.204533 40.5664 543.915533 39.2880667 542.3182 38.4072 540.721533 37.5263333 538.984867 37.0859 537.1082 37.0859 535.2322 37.0859 533.4922 37.5263333 531.8882 38.4072 530.290867 39.2880667 529.001533 40.5664 528.0202 42.2422 527.039533 43.9108 526.5492 45.9482333 526.5492 48.3545 526.5492 50.6963 527.039533 52.7051 528.0202 54.3809 529.001533 56.0495 530.290867 57.3242333 531.8882 58.2051ZM552.8632 37.6123 552.8632 59 556.4612 59 556.4612 43.5098C556.9912 42.3997333 557.528533 41.5725667 558.0732 41.0283 558.6172 40.4840333 559.254533 40.2119 559.9852 40.2119 560.779867 40.2119 561.345533 40.527 561.6822 41.1572 562.018867 41.7874 562.1872 42.7184 562.1872 43.9502L562.1872 59 565.5282 59 565.5282 43.5098C566.115533 42.3997333 566.648867 41.5725667 567.1282 41.0283 567.615533 40.4840333 568.227867 40.2119 568.9652 40.2119 570.490533 40.2119 571.2532 41.458 571.2532 43.9502L571.2532 59 574.8632 59 574.8632 43.6924C574.8632 41.5511333 574.4442 39.9147333 573.6062 38.7832 572.7682 37.6516667 571.600867 37.0859 570.1042 37.0859 568.8722 37.0859 567.8802 37.4189333 567.1282 38.085 566.383533 38.7438 565.7032 39.6425333 565.0872 40.7812 564.4712 38.3176667 563.1212 37.0859 561.0372 37.0859 559.805867 37.0859 558.824867 37.3938667 558.0942 38.0098 557.363533 38.6256667 556.7192 39.4313333 556.1612 40.4268L556.0752 40.4268 555.7632 37.6123 552.8632 37.6123ZM181.0612 37.6123 185.7232 59 190.3852 59 192.7592 48.7949C193.110533 47.2981667 193.4652 45.1855333 193.8232 42.457L193.9952 42.457C194.345867 45.1855333 194.696533 47.2981667 195.0472 48.7949L197.5182 59 202.1802 59 206.7562 37.6123 203.4162 37.6123 200.8592 50.0195C200.6512 51.0221 200.4792 51.9996333 200.3432 52.9521 200.214533 53.9046333 200.0642 54.8929333 199.8922 55.917L199.7102 55.917C199.595533 54.8929333 199.405533 53.9046333 199.1402 52.9521 198.875533 51.9996333 198.628533 51.0221 198.3992 50.0195L195.8422 38.9336 192.2332 38.9336 189.5902 50.0195C189.361533 51.0221 189.1362 51.9996333 188.9142 52.9521 188.6922 53.9046333 188.509533 54.8929333 188.3662 55.917L188.1832 55.917C188.068533 54.8929333 187.928867 53.9046333 187.7642 52.9521 187.606867 51.9996333 187.4242 51.0221 187.2162 50.0195L184.6712 37.6123 181.0612 37.6123ZM207.4612 37.6123 212.1232 59 216.7852 59 219.1592 48.7949C219.510533 47.2981667 219.8652 45.1855333 220.2232 42.457L220.3952 42.457C220.745867 45.1855333 221.096533 47.2981667 221.4472 48.7949L223.9182 59 228.5802 59 233.1562 37.6123 229.8162 37.6123 227.2592 50.0195C227.0512 51.0221 226.8792 51.9996333 226.7432 52.9521 226.614533 53.9046333 226.4642 54.8929333 226.2922 55.917L226.1102 55.917C225.995533 54.8929333 225.805533 53.9046333 225.5402 52.9521 225.275533 51.9996333 225.028533 51.0221 224.7992 50.0195L222.2422 38.9336 218.6332 38.9336 215.9902 50.0195C215.761533 51.0221 215.5362 51.9996333 215.3142 52.9521 215.0922 53.9046333 214.909533 54.8929333 214.7662 55.917L214.5832 55.917C214.468533 54.8929333 214.328867 53.9046333 214.1642 52.9521 214.006867 51.9996333 213.8242 51.0221 213.6162 50.0195L211.0702 37.6123 207.4612 37.6123ZM233.8612 37.6123 238.5232 59 243.1852 59 245.5592 48.7949C245.910533 47.2981667 246.2652 45.1855333 246.6232 42.457L246.7952 42.457C247.145867 45.1855333 247.496533 47.2981667 247.8472 48.7949L250.3182 59 254.9802 59 259.5562 37.6123 256.2162 37.6123 253.6592 50.0195C253.4512 51.0221 253.2792 51.9996333 253.1432 52.9521 253.014533 53.9046333 252.8642 54.8929333 252.6922 55.917L252.5092 55.917C252.3952 54.8929333 252.205533 53.9046333 251.9402 52.9521 251.675533 51.9996333 251.428533 51.0221 251.1992 50.0195L248.6422 38.9336 245.0332 38.9336 242.3902 50.0195C242.161533 51.0221 241.9362 51.9996333 241.7142 52.9521 241.4922 53.9046333 241.309533 54.8929333 241.1662 55.917L240.9832 55.917C240.868533 54.8929333 240.728867 53.9046333 240.5642 52.9521 240.406867 51.9996333 240.2242 51.0221 240.0162 50.0195L237.4702 37.6123 233.8612 37.6123ZM323.6632 47.9141 315.5212 59 319.3992 59 322.9112 54.0693C323.3552 53.3961667 323.795867 52.7445 324.2332 52.1143 324.6772 51.4840333 325.117533 50.8466333 325.5542 50.2021L325.7262 50.2021C326.198867 50.8180333 326.6752 51.4625667 327.1552 52.1357 327.641867 52.8089 328.1072 53.4534333 328.5512 54.0693L332.2892 59 336.2432 59 328.0682 48.2148 335.6732 37.6123 331.8492 37.6123 328.6372 42.2314C328.257867 42.8186667 327.860533 43.4381333 327.4452 44.0898 327.036533 44.7343333 326.624533 45.3466667 326.2092 45.9268L326.0372 45.9268C325.600533 45.3466667 325.167533 44.7415 324.7382 44.1113 324.315533 43.4739667 323.914533 42.8795667 323.5352 42.3281L320.1402 37.6123 316.1332 37.6123 323.6632 47.9141ZM295.5882 41.6406C296.9702 40.5091333 298.541867 39.9434 300.3032 39.9434 302.1152 39.9434 303.5942 40.4876667 304.7402 41.5762 305.8862 42.6647333 306.530867 44.3082667 306.6742 46.5068L293.0422 46.5068C293.3642 44.3942 294.212867 42.7721333 295.5882 41.6406ZM453.9872 41.6406C455.369867 40.5091333 456.941867 39.9434 458.7032 39.9434 460.5152 39.9434 461.9942 40.4876667 463.1402 41.5762 464.2862 42.6647333 464.930533 44.3082667 465.0732 46.5068L451.4422 46.5068C451.7642 44.3942 452.612533 42.7721333 453.9872 41.6406ZM542.0602 54.2734C540.8142 55.7844667 539.163533 56.54 537.1082 56.54 535.052867 56.54 533.4022 55.7844667 532.1562 54.2734 530.9102 52.7623333 530.2872 50.7893667 530.2872 48.3545 530.2872 45.8909667 530.9102 43.8965 532.1562 42.3711 533.4022 40.8457 535.052867 40.083 537.1082 40.083 539.163533 40.083 540.8142 40.8457 542.0602 42.3711 543.306867 43.8965 543.9302 45.8909667 543.9302 48.3545 543.9302 50.7893667 543.306867 52.7623333 542.0602 54.2734ZM410.0612 54.2305C408.814533 55.7415667 407.2352 56.4971 405.3232 56.4971 404.5932 56.4971 403.712533 56.3073 402.6812 55.9277 401.6572 55.5410333 400.632867 54.8929333 399.6082 53.9834L399.6082 43.3379C400.7182 42.2207 401.806867 41.4078667 402.8742 40.8994 403.9482 40.3838 404.957867 40.126 405.9032 40.126 408.044533 40.126 409.5842 40.8528667 410.5222 42.3066 411.460867 43.7532667 411.9302 45.6510667 411.9302 48 411.9302 50.6426 411.3072 52.7194333 410.0612 54.2305ZM640.7852 46.7217C641.329867 47.2516333 641.970867 47.5166 642.7082 47.5166 643.438867 47.5166 644.0762 47.2516333 644.6202 46.7217 645.164867 46.1917667 645.4372 45.4756 645.4372 44.5732 645.4372 43.6637333 645.164867 42.9511667 644.6202 42.4355 644.0762 41.9199 643.438867 41.6621 642.7082 41.6621 641.970867 41.6621 641.329867 41.9199 640.7852 42.4355 640.248533 42.9511667 639.9802 43.6637333 639.9802 44.5732 639.9802 45.4756 640.248533 46.1917667 640.7852 46.7217ZM621.2922 55.4551C620.1682 56.3789 618.5642 56.8408 616.4802 56.8408 614.338867 56.8408 612.623533 56.3359333 611.3342 55.3262 610.045533 54.3164 609.4012 53.0345 609.4012 51.4805 609.4012 50.0697 609.8632 48.8809 610.7872 47.9141 611.710533 46.9473 612.845533 46.0950667 614.1922 45.3574 615.839533 45.916 617.3292 46.4459667 618.6612 46.9473 619.9932 47.4414333 621.045867 48.0644667 621.8192 48.8164 622.599867 49.5612 622.9902 50.5960333 622.9902 51.9209 622.9902 53.3531667 622.4242 54.5312333 621.2922 55.4551ZM354.5322 55.7881C353.314867 56.3467 352.104533 56.626 350.9012 56.626 349.669867 56.626 348.5742 56.3538667 347.6142 55.8096 346.661533 55.2653333 346.1852 54.3916333 346.1852 53.1885 346.1852 52.2503 346.543533 51.4231333 347.2602 50.707 347.983533 49.9908667 349.218867 49.3893 350.9662 48.9023 352.713533 48.4153667 355.112533 48.0573 358.1632 47.8281L358.1632 53.457C356.959867 54.4524667 355.749533 55.2295 354.5322 55.7881ZM270.5732 58.4951C271.267867 59.1826333 272.1132 59.5264 273.1092 59.5264 274.104533 59.5264 274.945867 59.1826333 275.6332 58.4951 276.327867 57.8076333 276.6752 56.9196333 276.6752 55.8311 276.6752 54.7139 276.327867 53.8115333 275.6332 53.124 274.945867 52.4365333 274.104533 52.0928 273.1092 52.0928 272.1132 52.0928 271.267867 52.4365333 270.5732 53.124 269.885867 53.8115333 269.5422 54.7139 269.5422 55.8311 269.5422 56.9196333 269.885867 57.8076333 270.5732 58.4951ZM481.7732 58.4951C482.467867 59.1826333 483.312867 59.5264 484.3082 59.5264 485.303533 59.5264 486.1452 59.1826333 486.8332 58.4951 487.527867 57.8076333 487.8752 56.9196333 487.8752 55.8311 487.8752 54.7139 487.527867 53.8115333 486.8332 53.124 486.1452 52.4365333 485.303533 52.0928 484.3082 52.0928 483.312867 52.0928 482.467867 52.4365333 481.7732 53.124 481.085867 53.8115333 480.7422 54.7139 480.7422 55.8311 480.7422 56.9196333 481.085867 57.8076333 481.7732 58.4951ZM587.3732 58.4951C588.067867 59.1826333 588.912867 59.5264 589.9082 59.5264 590.903533 59.5264 591.7452 59.1826333 592.4332 58.4951 593.127867 57.8076333 593.4752 56.9196333 593.4752 55.8311 593.4752 54.7139 593.127867 53.8115333 592.4332 53.124 591.7452 52.4365333 590.903533 52.0928 589.9082 52.0928 588.912867 52.0928 588.067867 52.4365333 587.3732 53.124 586.685867 53.8115333 586.3422 54.7139 586.3422 55.8311 586.3422 56.9196333 586.685867 57.8076333 587.3732 58.4951Z"/><path fill="#CCC" fill-rule="nonzero" d="M956.9512,40.5664 L956.9512,59 L960.5172,59 L960.5172,40.5664 L969.4982,40.5664 L969.4982,37.6123 L960.5172,37.6123 L960.5172,35.6787 C960.5172,33.9456333 960.943533,32.5813667 961.7962,31.5859 C962.6482,30.5905 964.026533,30.0928 965.9312,30.0928 C966.869867,30.0928 967.711533,30.1608333 968.4562,30.2969 C969.2082,30.4257667 970.024533,30.6943 970.9052,31.1025 L971.7322,28.374 C969.741533,27.5576 967.689867,27.1494 965.5772,27.1494 C962.6412,27.1494 960.467533,27.9407333 959.0562,29.5234 C957.652867,31.1061333 956.9512,33.2008667 956.9512,35.8076 L956.9512,37.6123 L950.8392,37.8379 L950.8392,40.5664 L956.9512,40.5664 Z M985.9512,32.3594 C986.5092,32.875 987.2002,33.1328 988.0242,33.1328 C988.8402,33.1328 989.527533,32.875 990.0862,32.3594 C990.644867,31.8437333 990.9242,31.1598 990.9242,30.3076 C990.9242,29.4625333 990.644867,28.7822 990.0862,28.2666 C989.527533,27.751 988.8402,27.4932 988.0242,27.4932 C987.2002,27.4932 986.5092,27.751 985.9512,28.2666 C985.392533,28.7822 985.1132,29.4625333 985.1132,30.3076 C985.1132,31.1598 985.392533,31.8437333 985.9512,32.3594 Z M-1.42108547e-14,27.6758 L-1.42108547e-14,59 L3.6093,59 L3.6093,44.0791 C4.86976667,42.7900333 5.9977,41.8232333 6.9931,41.1787 C7.98856667,40.5341667 9.1201,40.2119 10.3877,40.2119 C12.1422333,40.2119 13.3990667,40.7024667 14.1582,41.6836 C14.9244667,42.6647333 15.3076,44.1686333 15.3076,46.1953 L15.3076,59 L18.917,59 L18.917,45.7119 C18.917,42.8974333 18.3154333,40.7561667 17.1123,39.2881 C15.9091667,37.8199667 14.0471667,37.0859 11.5263,37.0859 C9.8577,37.0859 8.38246667,37.4833667 7.1006,38.2783 C5.8258,39.0661 4.6334,40.0615333 3.5234,41.2646 L3.3838,41.2646 L3.6093,36.2051 L3.6093,27.6758 L-1.42108547e-14,27.6758 Z M765.5992,27.6758 L765.5992,59 L769.2082,59 L769.2082,44.0791 C770.468867,42.7900333 771.596867,41.8232333 772.5922,41.1787 C773.587533,40.5341667 774.718867,40.2119 775.9862,40.2119 C777.740867,40.2119 778.997867,40.7024667 779.7572,41.6836 C780.5232,42.6647333 780.9062,44.1686333 780.9062,46.1953 L780.9062,59 L784.5162,59 L784.5162,45.7119 C784.5162,42.8974333 783.914533,40.7561667 782.7112,39.2881 C781.507867,37.8199667 779.645867,37.0859 777.1252,37.0859 C775.456533,37.0859 773.9812,37.4833667 772.6992,38.2783 C771.424533,39.0661 770.2322,40.0615333 769.1222,41.2646 L768.9822,41.2646 L769.2082,36.2051 L769.2082,27.6758 L765.5992,27.6758 Z M1011.8032,57.5713 C1013.02053,58.8747 1014.7572,59.5264 1017.0132,59.5264 C1018.1872,59.5264 1019.18253,59.4154 1019.9992,59.1934 C1020.82253,58.9785333 1021.73553,58.6634 1022.7382,58.248 L1021.8142,55.5732 C1020.40353,56.2177333 1019.0682,56.54 1017.8082,56.54 C1016.54753,56.54 1015.52687,56.1891 1014.7462,55.4873 C1013.97287,54.7783 1013.5862,53.6468 1013.5862,52.0928 L1013.5862,27.6758 L1002.3602,27.6758 L1002.3602,30.6191 L1009.9772,30.6191 L1009.9772,51.8242 C1009.9772,54.3522 1010.58587,56.2679 1011.8032,57.5713 Z M1086.0072,27.6758 L1082.3972,27.6758 L1082.3972,59 L1086.0072,59 L1086.0072,44.0791 C1087.2672,42.7900333 1088.39387,41.8232333 1089.3872,41.1787 C1090.3872,40.5341667 1091.52053,40.2119 1092.7872,40.2119 C1094.54053,40.2119 1095.7972,40.7024667 1096.5572,41.6836 C1097.32387,42.6647333 1097.7072,44.1686333 1097.7072,46.1953 L1097.7072,59 L1101.3172,59 L1101.3172,45.7119 C1101.3172,42.8974333 1100.71387,40.7561667 1099.5072,39.2881 C1098.3072,37.8199667 1096.4472,37.0859 1093.9272,37.0859 C1092.25387,37.0859 1090.7772,37.4833667 1089.4972,38.2783 C1088.22387,39.0661 1087.03053,40.0615333 1085.9172,41.2646 L1085.7772,41.2646 L1086.0072,36.2051 L1086.0072,27.6758 Z M1170.2072,57.5713 C1171.42053,58.8747 1173.1572,59.5264 1175.4172,59.5264 C1176.59053,59.5264 1177.58387,59.4154 1178.3972,59.1934 C1179.22387,58.9785333 1180.1372,58.6634 1181.1372,58.248 L1180.2172,55.5732 C1178.80387,56.2177333 1177.4672,56.54 1176.2072,56.54 C1174.9472,56.54 1173.9272,56.1891 1173.1472,55.4873 C1172.37387,54.7783 1171.9872,53.6468 1171.9872,52.0928 L1171.9872,27.6758 L1160.7572,27.6758 L1160.7572,30.6191 L1168.3772,30.6191 L1168.3772,51.8242 C1168.3772,54.3522 1168.9872,56.2679 1170.2072,57.5713 Z M146.695,27.7617 L132.2683,66.0361 L135.5232,66.0361 L149.9499,27.7617 L146.695,27.7617 Z M173.0952,27.7617 L158.6682,66.0361 L161.9231,66.0361 L176.3502,27.7617 L173.0952,27.7617 Z M674.6942,27.7617 L660.2672,66.0361 L663.5222,66.0361 L677.9492,27.7617 L674.6942,27.7617 Z M806.6942,27.7617 L792.2672,66.0361 L795.5222,66.0361 L809.9492,27.7617 L806.6942,27.7617 Z M885.8942,27.7617 L871.4672,66.0361 L874.7222,66.0361 L889.1492,27.7617 L885.8942,27.7617 Z M34.7144,58.4092 C35.9175333,59.154 37.5610667,59.5264 39.645,59.5264 C40.9914,59.5264 42.1981333,59.4010667 43.2652,59.1504 C44.3394,58.9069333 45.3599,58.6061333 46.3267,58.248 L45.5425,55.6162 C44.7762333,55.9098 43.9813,56.1461333 43.1577,56.3252 C42.3413,56.4970667 41.4174667,56.583 40.3862,56.583 C38.3380667,56.583 36.9237,56.0852667 36.1431,55.0898 C35.3696333,54.0872 34.9829,52.6334333 34.9829,50.7285 L34.9829,40.5664 L45.4995,40.5664 L45.4995,37.6123 L34.9829,37.6123 L34.9829,30.748 L31.9859,30.748 L31.5025,37.6123 L25.3472,37.8379 L25.3472,40.5664 L31.3736,40.5664 L31.3736,50.6855 C31.3736,52.4472333 31.6278,53.9869667 32.1362,55.3047 C32.6518667,56.6223667 33.5112667,57.6572 34.7144,58.4092 Z M61.11432,58.4092 C62.3174467,59.154 63.9610033,59.5264 66.04499,59.5264 C67.391342,59.5264 68.5980467,59.4010667 69.665104,59.1504 C70.7393213,58.9069333 71.75983,58.6061333 72.72663,58.248 L71.94245,55.6162 C71.17617,55.9098 70.3812473,56.1461333 69.557682,56.3252 C68.741276,56.4970667 67.8174487,56.583 66.7862,56.583 C64.73802,56.583 63.32363,56.0852667 62.54303,55.0898 C61.7695967,54.0872 61.38288,52.6334333 61.38288,50.7285 L61.38288,40.5664 L71.89948,40.5664 L71.89948,37.6123 L61.38288,37.6123 L61.38288,30.748 L58.3858,30.748 L57.9024,37.6123 L51.7471,37.8379 L51.7471,40.5664 L57.7735,40.5664 L57.7735,50.6855 C57.7735,52.4472333 58.0277333,53.9869667 58.5362,55.3047 C59.0518267,56.6223667 59.9112,57.6572 61.11432,58.4092 Z M747.5132,58.4092 C748.716533,59.154 750.3602,59.5264 752.4442,59.5264 C753.7902,59.5264 754.996867,59.4010667 756.0642,59.1504 C757.1382,58.9069333 758.158533,58.6061333 759.1252,58.248 L758.3412,55.6162 C757.5752,55.9098 756.7802,56.1461333 755.9562,56.3252 C755.1402,56.4970667 754.216533,56.583 753.1852,56.583 C751.1372,56.583 749.722867,56.0852667 748.9422,55.0898 C748.168867,54.0872 747.7822,52.6334333 747.7822,50.7285 L747.7822,40.5664 L758.2982,40.5664 L758.2982,37.6123 L747.7822,37.6123 L747.7822,30.748 L744.7852,30.748 L744.3012,37.6123 L738.1462,37.8379 L738.1462,40.5664 L744.1722,40.5664 L744.1722,50.6855 C744.1722,52.4472333 744.426533,53.9869667 744.9352,55.3047 C745.450533,56.6223667 746.309867,57.6572 747.5132,58.4092 Z M826.7132,58.4092 C827.916533,59.154 829.5602,59.5264 831.6442,59.5264 C832.9902,59.5264 834.196867,59.4010667 835.2642,59.1504 C836.3382,58.9069333 837.358533,58.6061333 838.3252,58.248 L837.5412,55.6162 C836.7752,55.9098 835.9802,56.1461333 835.1562,56.3252 C834.3402,56.4970667 833.416533,56.583 832.3852,56.583 C830.3372,56.583 828.922867,56.0852667 828.1422,55.0898 C827.3682,54.0872 826.9812,52.6334333 826.9812,50.7285 L826.9812,40.5664 L837.4982,40.5664 L837.4982,37.6123 L826.9812,37.6123 L826.9812,30.748 L823.9842,30.748 L823.5012,37.6123 L817.3462,37.8379 L817.3462,40.5664 L823.3722,40.5664 L823.3722,50.6855 C823.3722,52.4472333 823.626533,53.9869667 824.1352,55.3047 C824.650533,56.6223667 825.509867,57.6572 826.7132,58.4092 Z M1117.1172,58.4092 C1118.3172,59.154 1119.96053,59.5264 1122.0472,59.5264 C1123.39387,59.5264 1124.60053,59.4010667 1125.6672,59.1504 C1126.74053,58.9069333 1127.76053,58.6061333 1128.7272,58.248 L1127.9372,55.6162 C1127.17053,55.9098 1126.3772,56.1461333 1125.5572,56.3252 C1124.7372,56.4970667 1123.81387,56.583 1122.7872,56.583 C1120.73387,56.583 1119.3172,56.0852667 1118.5372,55.0898 C1117.76387,54.0872 1117.3772,52.6334333 1117.3772,50.7285 L1117.3772,40.5664 L1127.8972,40.5664 L1127.8972,37.6123 L1117.3772,37.6123 L1117.3772,30.748 L1114.3872,30.748 L1113.8972,37.6123 L1107.7472,37.8379 L1107.7472,40.5664 L1113.7672,40.5664 L1113.7672,50.6855 C1113.7672,52.4472333 1114.02387,53.9869667 1114.5372,55.3047 C1115.05053,56.6223667 1115.91053,57.6572 1117.1172,58.4092 Z M112.174,42.7471 C112.868667,43.4345667 113.7137,43.7783 114.7091,43.7783 C115.704567,43.7783 116.546067,43.4345667 117.2336,42.7471 C117.9282,42.0595667 118.2755,41.1715333 118.2755,40.083 C118.2755,38.9658 117.9282,38.0634667 117.2336,37.376 C116.546067,36.6884667 115.704567,36.3447 114.7091,36.3447 C113.7137,36.3447 112.868667,36.6884667 112.174,37.376 C111.486467,38.0634667 111.1427,38.9658 111.1427,40.083 C111.1427,41.1715333 111.486467,42.0595667 112.174,42.7471 Z M79.1998,37.6123 L79.1998,68.0234 L82.8092,68.0234 L82.8092,60.8047 L82.6266,56.7549 L82.7662,56.7549 C83.7044,57.6357667 84.7499667,58.3196667 85.9029,58.8066 C87.0631,59.2864667 88.1445,59.5264 89.1471,59.5264 C90.8730333,59.5264 92.4700333,59.0716333 93.9381,58.1621 C95.4061667,57.2526333 96.5949667,55.9349333 97.5045,54.209 C98.4140333,52.4759333 98.8688,50.4062667 98.8688,48 C98.8688,44.6842667 98.1132667,42.0381 96.6022,40.0615 C95.0911333,38.0777667 92.8997,37.0859 90.0279,37.0859 C88.7030333,37.0859 87.3889333,37.3938667 86.0856,38.0098 C84.7822,38.6256667 83.6292,39.4026667 82.6266,40.3408 L82.4977,40.3408 L82.1861,37.6123 L79.1998,37.6123 Z M686.3992,37.6123 L686.3992,68.0234 L690.0082,68.0234 L690.0082,60.8047 L689.8252,56.7549 L689.9652,56.7549 C690.9032,57.6357667 691.948867,58.3196667 693.1022,58.8066 C694.2622,59.2864667 695.343533,59.5264 696.3462,59.5264 C698.0722,59.5264 699.6692,59.0716333 701.1372,58.1621 C702.6052,57.2526333 703.793867,55.9349333 704.7032,54.209 C705.6132,52.4759333 706.0682,50.4062667 706.0682,48 C706.0682,44.6842667 705.312533,42.0381 703.8012,40.0615 C702.289867,38.0777667 700.098533,37.0859 697.2272,37.0859 C695.901867,37.0859 694.587533,37.3938667 693.2842,38.0098 C691.980867,38.6256667 690.827867,39.4026667 689.8252,40.3408 L689.6962,40.3408 L689.3852,37.6123 L686.3992,37.6123 Z M715.8922,58.8066 C716.995533,59.2864667 718.209533,59.5264 719.5342,59.5264 C721.059533,59.5264 722.552533,59.1826333 724.0132,58.4951 C725.481867,57.8076333 726.8032,57.0091333 727.9772,56.0996 L728.1062,56.0996 L728.4182,59 L731.3612,59 L731.3612,45.8838 C731.3612,43.2197333 730.648533,41.0892 729.2232,39.4922 C727.8052,37.888 725.631867,37.0859 722.7032,37.0859 C720.819867,37.0859 719.0332,37.4260667 717.3432,38.1064 C715.659867,38.7796 714.277533,39.4671 713.1962,40.1689 L714.6032,42.6289 C715.598533,42.0130333 716.7482,41.4365333 718.0522,40.8994 C719.3622,40.3551333 720.704867,40.083 722.0802,40.083 C723.4622,40.083 724.561533,40.3336667 725.3782,40.835 C726.201533,41.3291333 726.795867,41.9808 727.1612,42.79 C727.526533,43.5921333 727.726867,44.4766 727.7622,45.4434 C724.095533,45.737 721.116533,46.2096333 718.8252,46.8613 C716.540533,47.5058333 714.875533,48.3652333 713.8302,49.4395 C712.791533,50.5065 712.2722,51.8456667 712.2722,53.457 C712.2722,54.7174667 712.601867,55.8024333 713.2612,56.7119 C713.919867,57.6214333 714.796867,58.3196667 715.8922,58.8066 Z M848.6872,58.2051 C850.2912,59.0859667 852.031533,59.5264 853.9082,59.5264 C855.7842,59.5264 857.520867,59.0859667 859.1182,58.2051 C860.714867,57.3242333 862.003867,56.0495 862.9852,54.3809 C863.9732,52.7051 864.4672,50.6963 864.4672,48.3545 C864.4672,45.9482333 863.9732,43.9108 862.9852,42.2422 C862.003867,40.5664 860.714867,39.2880667 859.1182,38.4072 C857.520867,37.5263333 855.7842,37.0859 853.9082,37.0859 C852.031533,37.0859 850.2912,37.5263333 848.6872,38.4072 C847.090533,39.2880667 845.801533,40.5664 844.8202,42.2422 C843.838867,43.9108 843.3482,45.9482333 843.3482,48.3545 C843.3482,50.6963 843.838867,52.7051 844.8202,54.3809 C845.801533,56.0495 847.090533,57.3242333 848.6872,58.2051 Z M896.0622,37.6123 L896.0622,59 L899.6612,59 L899.6612,43.5098 C900.1912,42.3997333 900.7282,41.5725667 901.2722,41.0283 C901.816867,40.4840333 902.4542,40.2119 903.1842,40.2119 C903.979533,40.2119 904.545533,40.527 904.8822,41.1572 C905.2182,41.7874 905.3862,42.7184 905.3862,43.9502 L905.3862,59 L908.7272,59 L908.7272,43.5098 C909.314533,42.3997333 909.8482,41.5725667 910.3282,41.0283 C910.814867,40.4840333 911.4272,40.2119 912.1652,40.2119 C913.690533,40.2119 914.4532,41.458 914.4532,43.9502 L914.4532,59 L918.0622,59 L918.0622,43.6924 C918.0622,41.5511333 917.6432,39.9147333 916.8052,38.7832 C915.967867,37.6516667 914.800533,37.0859 913.3032,37.0859 C912.071867,37.0859 911.0802,37.4189333 910.3282,38.085 C909.583533,38.7438 908.9032,39.6425333 908.2872,40.7812 C907.6712,38.3176667 906.3212,37.0859 904.2372,37.0859 C903.0052,37.0859 902.0242,37.3938667 901.2942,38.0098 C900.563533,38.6256667 899.918867,39.4313333 899.3602,40.4268 L899.2742,40.4268 L898.9632,37.6123 L896.0622,37.6123 Z M1034.1962,58.2051 C1035.94353,59.0859667 1037.88787,59.5264 1040.0292,59.5264 C1041.7552,59.5264 1043.29853,59.2793333 1044.6592,58.7852 C1046.02653,58.2838667 1047.2402,57.6823 1048.3002,56.9805 L1046.9792,54.5957 C1046.01253,55.2115667 1045.0062,55.7057 1043.9602,56.0781 C1042.9222,56.4433667 1041.75853,56.626 1040.4692,56.626 C1038.2352,56.626 1036.3482,56.0101 1034.8082,54.7783 C1033.26887,53.5465667 1032.38087,51.7275667 1032.1442,49.3213 L1048.9992,49.3213 C1049.05587,49.0277 1049.09853,48.6911 1049.1272,48.3115 C1049.1632,47.9247667 1049.1812,47.5273 1049.1812,47.1191 C1049.1812,44.0969667 1048.32187,41.6692333 1046.6032,39.8359 C1044.88453,38.0025667 1042.48553,37.0859 1039.4062,37.0859 C1037.50087,37.0859 1035.71753,37.5335 1034.0562,38.4287 C1032.4022,39.3239 1031.0632,40.6094 1030.0392,42.2852 C1029.01453,43.9538 1028.5022,45.9482667 1028.5022,48.2686 C1028.5022,50.639 1029.01453,52.6692667 1030.0392,54.3594 C1031.0632,56.0423333 1032.44887,57.3242333 1034.1962,58.2051 Z M1133.6572,37.6123 L1133.6572,59 L1137.2572,59 L1137.2572,43.5098 C1137.79053,42.3997333 1138.3272,41.5725667 1138.8672,41.0283 C1139.41387,40.4840333 1140.05387,40.2119 1140.7872,40.2119 C1141.58053,40.2119 1142.14387,40.527 1142.4772,41.1572 C1142.8172,41.7874 1142.9872,42.7184 1142.9872,43.9502 L1142.9872,59 L1146.3272,59 L1146.3272,43.5098 C1146.91387,42.3997333 1147.4472,41.5725667 1147.9272,41.0283 C1148.41387,40.4840333 1149.0272,40.2119 1149.7672,40.2119 C1151.29387,40.2119 1152.0572,41.458 1152.0572,43.9502 L1152.0572,59 L1155.6572,59 L1155.6572,43.6924 C1155.6572,41.5511333 1155.24053,39.9147333 1154.4072,38.7832 C1153.5672,37.6516667 1152.40053,37.0859 1150.9072,37.0859 C1149.67387,37.0859 1148.68053,37.4189333 1147.9272,38.085 C1147.18053,38.7438 1146.50053,39.6425333 1145.8872,40.7812 C1145.27387,38.3176667 1143.92387,37.0859 1141.8372,37.0859 C1140.60387,37.0859 1139.62387,37.3938667 1138.8972,38.0098 C1138.16387,38.6256667 1137.5172,39.4313333 1136.9572,40.4268 L1136.8772,40.4268 L1136.5672,37.6123 L1133.6572,37.6123 Z M922.8492,67.7549 C923.672533,68.0485 924.6142,68.1953 925.6742,68.1953 C927.285533,68.1953 928.667867,67.8658667 929.8212,67.207 C930.9812,66.5482 931.958533,65.6602 932.7532,64.543 C933.548533,63.4258 934.207533,62.1653667 934.7302,60.7617 L944.1512,37.6123 L940.7132,37.6123 L936.0512,49.4502 C935.700533,50.417 935.324533,51.4375 934.9232,52.5117 C934.5292,53.5787667 934.142533,54.6279333 933.7632,55.6592 L933.5912,55.6592 C933.1472,54.6279333 932.6962,53.5716 932.2382,52.4902 C931.786867,51.4016667 931.3572,50.3883333 930.9492,49.4502 L925.7172,37.6123 L922.0652,37.6123 L932.0442,59.043 L931.3892,60.6328 C930.8592,61.9505333 930.1252,63.0426667 929.1872,63.9092 C928.2492,64.7757333 927.031533,65.209 925.5342,65.209 C925.2122,65.209 924.882867,65.1767667 924.5462,65.1123 C924.209533,65.0550333 923.894533,64.9834333 923.6012,64.8975 L922.8492,67.7549 Z M986.6062,40.5664 L986.6062,59 L990.2152,59 L990.2152,37.6123 L976.6692,37.6123 L976.6692,40.5664 L986.6062,40.5664 Z M1034.7872,41.6406 C1036.1692,40.5091333 1037.74087,39.9434 1039.5022,39.9434 C1041.3142,39.9434 1042.7932,40.4876667 1043.9392,41.5762 C1045.0852,42.6647333 1045.72987,44.3082667 1045.8732,46.5068 L1032.2412,46.5068 C1032.5632,44.3942 1033.41187,42.7721333 1034.7872,41.6406 Z M858.8602,54.2734 C857.6142,55.7844667 855.963533,56.54 853.9082,56.54 C851.852867,56.54 850.2022,55.7844667 848.9562,54.2734 C847.7102,52.7623333 847.0872,50.7893667 847.0872,48.3545 C847.0872,45.8909667 847.7102,43.8965 848.9562,42.3711 C850.2022,40.8457 851.852867,40.083 853.9082,40.083 C855.963533,40.083 857.6142,40.8457 858.8602,42.3711 C860.1062,43.8965 860.7292,45.8909667 860.7292,48.3545 C860.7292,50.7893667 860.1062,52.7623333 858.8602,54.2734 Z M93.2613,54.2305 C92.0152333,55.7415667 90.4361333,56.4971 88.524,56.4971 C87.7935333,56.4971 86.9127,56.3073 85.8815,55.9277 C84.8573667,55.5410333 83.8332667,54.8929333 82.8092,53.9834 L82.8092,43.3379 C83.9192,42.2207 85.0077333,41.4078667 86.0748,40.8994 C87.149,40.3838 88.1587667,40.126 89.1041,40.126 C91.2453667,40.126 92.7851,40.8528667 93.7233,42.3066 C94.6614333,43.7532667 95.1305,45.6510667 95.1305,48 C95.1305,50.6426 94.5074333,52.7194333 93.2613,54.2305 Z M700.4602,54.2305 C699.2142,55.7415667 697.6352,56.4971 695.7232,56.4971 C694.992533,56.4971 694.111533,56.3073 693.0802,55.9277 C692.0562,55.5410333 691.0322,54.8929333 690.0082,53.9834 L690.0082,43.3379 C691.1182,42.2207 692.206867,41.4078667 693.2742,40.8994 C694.3482,40.3838 695.357867,40.126 696.3032,40.126 C698.444533,40.126 699.9842,40.8528667 700.9222,42.3066 C701.8602,43.7532667 702.3292,45.6510667 702.3292,48 C702.3292,50.6426 701.7062,52.7194333 700.4602,54.2305 Z M724.1322,55.7881 C722.9142,56.3467 721.703867,56.626 720.5012,56.626 C719.2692,56.626 718.173533,56.3538667 717.2142,55.8096 C716.261533,55.2653333 715.7852,54.3916333 715.7852,53.1885 C715.7852,52.2503 716.1432,51.4231333 716.8592,50.707 C717.582533,49.9908667 718.817867,49.3893 720.5652,48.9023 C722.312533,48.4153667 724.711533,48.0573 727.7622,47.8281 L727.7622,53.457 C726.559533,54.4524667 725.349533,55.2295 724.1322,55.7881 Z M112.174,58.4951 C112.868667,59.1826333 113.7137,59.5264 114.7091,59.5264 C115.704567,59.5264 116.546067,59.1826333 117.2336,58.4951 C117.9282,57.8076333 118.2755,56.9196333 118.2755,55.8311 C118.2755,54.7139 117.9282,53.8115333 117.2336,53.124 C116.546067,52.4365333 115.704567,52.0928 114.7091,52.0928 C113.7137,52.0928 112.868667,52.4365333 112.174,53.124 C111.486467,53.8115333 111.1427,54.7139 111.1427,55.8311 C111.1427,56.9196333 111.486467,57.8076333 112.174,58.4951 Z M1062.5722,58.4951 C1063.26687,59.1826333 1064.11187,59.5264 1065.1072,59.5264 C1066.1032,59.5264 1066.94487,59.1826333 1067.6322,58.4951 C1068.32687,57.8076333 1068.6742,56.9196333 1068.6742,55.8311 C1068.6742,54.7139 1068.32687,53.8115333 1067.6322,53.124 C1066.94487,52.4365333 1066.1032,52.0928 1065.1072,52.0928 C1064.11187,52.0928 1063.26687,52.4365333 1062.5722,53.124 C1061.88487,53.8115333 1061.5412,54.7139 1061.5412,55.8311 C1061.5412,56.9196333 1061.88487,57.8076333 1062.5722,58.4951 Z"/><rect width="100" height="200" x="768.907" fill="url(#a)" fill-rule="nonzero"/><rect width="100" height="200" x="68.907" fill="url(#a)" fill-rule="nonzero" transform="matrix(-1 0 0 1 237.814 0)"/></g></g></svg>