<svg xmlns="http://www.w3.org/2000/svg" xmlns:xlink="http://www.w3.org/1999/xlink" width="800" height="200" viewBox="0 0 800 200"><defs><linearGradient id="c" x1="100%" x2="0%" y1="50%" y2="50%"><stop offset="0%" stop-color="#FFF"/><stop offset="100%" stop-color="#FFF" stop-opacity="0"/></linearGradient><rect id="a" width="800" height="200" x="0" y="0"/></defs><g fill="none" fill-rule="evenodd"><rect width="800" height="200" fill="#FFF"/><g transform="translate(110 10)"><path fill="#FF9500" d="M7.6916556,74 C5.01709938,74 4.04724067,73.7215232 3.06946289,73.1986019 C2.09168511,72.6756806 1.32431939,71.9083149 0.801398111,70.9305371 C0.278476833,69.9527593 1.2037061e-16,68.9829006 -2.07168062e-16,66.3083444 L2.07168062e-16,7.6916556 C-1.2037061e-16,5.01709938 0.278476833,4.04724067 0.801398111,3.06946289 C1.32431939,2.09168511 2.09168511,1.32431939 3.06946289,0.801398111 C4.04724067,0.278476833 5.01709938,1.80555915e-16 7.6916556,-3.10752092e-16 L521.308344,3.10752092e-16 C523.982901,-1.80555915e-16 524.952759,0.278476833 525.930537,0.801398111 C526.908315,1.32431939 527.675681,2.09168511 528.198602,3.06946289 C528.721523,4.04724067 529,5.01709938 529,7.6916556 L529,66.3083444 C529,68.9829006 528.721523,69.9527593 528.198602,70.9305371 C527.675681,71.9083149 526.908315,72.6756806 525.930537,73.1986019 C524.952759,73.7215232 523.982901,74 521.308344,74 L66,74 L66,116 L81.999,116 L82,104 L106,119 L82,134 L81.999,122 L60,122 L60,74 L7.6916556,74 Z" opacity=".5"/><path fill="#2C2C2E" fill-rule="nonzero" d="M1.2 2.34C3.48 3.15 6.21 4.5 7.62 5.58L8.37 4.38C6.96 3.33 4.2 2.04 1.95 1.32L1.2 2.34ZM0 10.56.42 11.91C2.76 11.13 5.85 10.17 8.82 9.24L8.61 7.92C5.37 8.94 2.16 9.93 0 10.56ZM4.2 13.95 4.2 22.38 5.64 22.38 5.64 15.33 21.45 15.33 21.45 22.23 22.92 22.23 22.92 13.95 4.2 13.95ZM13.08 16.29C12.24 21.99 9.72 24.93.18 26.16.42 26.46.75 27 .84 27.33 10.71 25.95 13.56 22.71 14.55 16.29L13.08 16.29ZM14.04 22.35C17.94 23.64 22.89 25.74 25.47 27.15L26.25 25.89C23.64 24.48 18.69 22.47 14.82 21.24L14.04 22.35ZM13.32.06C12.48 2.13 10.83 4.74 8.31 6.63 8.67 6.81 9.12 7.2 9.36 7.53 10.62 6.51 11.67 5.34 12.54 4.14L16.83 4.14C15.87 7.56 13.62 10.59 8.07 12.03 8.37 12.24 8.73 12.75 8.91 13.08 13.14 11.88 15.6 9.84 17.04 7.29 18.99 9.93 22.26 11.97 25.8 12.93 26.01 12.54 26.4 12.06 26.7 11.79 22.92 10.92 19.38 8.79 17.64 6.12 17.91 5.49 18.15 4.83 18.33 4.14L23.85 4.14C23.25 5.25 22.56 6.36 22.02 7.14L23.28 7.56C24.09 6.45 25.02 4.74 25.89 3.18L24.87 2.85 24.6 2.91 13.35 2.91C13.89 2.01 14.34 1.11 14.7.24L13.32.06ZM43.62 12.39 54.09 12.39 54.09 15.63 43.62 15.63 43.62 12.39ZM43.62 8.01 54.09 8.01 54.09 11.19 43.62 11.19 43.62 8.01ZM43.65 18.81C42.69 20.94 41.25 23.04 39.78 24.57 40.11 24.75 40.74 25.14 40.98 25.38 42.42 23.82 43.95 21.42 45 19.2L43.65 18.81ZM52.14 19.17C53.46 21.06 55.05 23.58 55.8 25.08L57.15 24.42C56.31 23.01 54.72 20.52 53.4 18.66L52.14 19.17ZM31.2 1.38C32.91 2.46 35.16 3.99 36.27 4.95L37.14 3.78C36 2.91 33.78 1.44 32.1.42L31.2 1.38ZM29.73 9.48C31.47 10.44 33.72 11.88 34.89 12.75L35.76 11.58C34.56 10.74 32.28 9.39 30.57 8.46L29.73 9.48ZM30.48 25.95 31.77 26.82C33.24 24.12 35.1 20.25 36.42 17.1L35.28 16.26C33.87 19.59 31.89 23.64 30.48 25.95ZM38.7 1.41 38.7 9.63C38.7 14.61 38.34 21.39 34.92 26.31 35.25 26.46 35.85 26.82 36.12 27.09 39.66 22.02 40.14 14.79 40.14 9.63L40.14 2.79 56.79 2.79 56.79 1.41 38.7 1.41ZM48.06 3.51C47.88 4.44 47.49 5.73 47.16 6.75L42.27 6.75 42.27 16.86 48.03 16.86 48.03 25.53C48.03 25.89 47.91 25.98 47.52 26.01 47.1 26.01 45.78 26.04 44.13 25.98 44.31 26.37 44.49 26.91 44.58 27.27 46.65 27.3 47.88 27.3 48.57 27.03 49.26 26.82 49.44 26.4 49.44 25.56L49.44 16.86 55.47 16.86 55.47 6.75 48.51 6.75C48.9 5.91 49.26 4.86 49.62 3.9L48.06 3.51ZM62.64 2.67 69.3 2.67 69.3 8.82 62.64 8.82 62.64 2.67ZM59.73 24.18 60.03 25.62C63.06 24.87 67.23 23.85 71.28 22.83L71.13 21.51 66.93 22.53 66.93 16.32 70.92 16.32 70.92 14.97 66.93 14.97 66.93 10.14 70.65 10.14 70.65 9.81C71.01 10.05 71.55 10.47 71.73 10.71 72.93 9.51 74.04 8.04 75.03 6.39 75.84 8.01 76.95 9.78 78.33 11.46 75.93 14.01 72.99 15.93 70.2 17.04 70.5 17.31 70.92 17.85 71.1 18.18 71.91 17.82 72.75 17.43 73.56 16.95L73.56 27.24 74.91 27.24 74.91 26.07 83.58 26.07 83.58 27.15 84.99 27.15 84.99 17.1C85.47 17.37 85.95 17.61 86.46 17.85 86.67 17.46 87.09 16.92 87.39 16.65 84.51 15.45 82.08 13.62 80.13 11.55 82.05 9.3 83.67 6.63 84.69 3.54L83.76 3.15 83.46 3.21 76.68 3.21C77.1 2.28 77.46 1.32 77.79.33L76.41 0C75.18 3.78 73.14 7.35 70.65 9.66L70.65 1.35 61.29 1.35 61.29 10.14 65.55 10.14 65.55 22.86 62.7 23.52 62.7 13.38 61.41 13.38 61.41 23.82 59.73 24.18ZM74.91 24.75 74.91 17.88 83.58 17.88 83.58 24.75 74.91 24.75ZM82.83 4.53C81.96 6.75 80.7 8.76 79.2 10.5 77.73 8.73 76.56 6.87 75.78 5.1L76.05 4.53 82.83 4.53ZM74.16 16.59C75.96 15.51 77.67 14.13 79.26 12.51 80.64 14.01 82.26 15.42 84.12 16.59L74.16 16.59ZM96.45.12C95.16 2.28 92.58 4.8 90.27 6.45 90.54 6.72 90.93 7.26 91.11 7.59 93.6 5.82 96.24 3.12 97.83.63L96.45.12ZM99.78 1.68 99.78 3.06 112.08 3.06C109.02 7.47 103.02 11.07 97.89 12.84 98.19 13.11 98.58 13.65 98.76 13.98 101.64 12.93 104.76 11.4 107.55 9.45 110.58 10.71 114.24 12.54 116.13 13.77L116.94 12.51C115.11 11.37 111.69 9.75 108.78 8.52 111.09 6.72 113.07 4.62 114.39 2.22L113.34 1.62 113.04 1.68 99.78 1.68ZM99.75 15.18 99.75 16.56 106.71 16.56 106.71 24.99 97.8 24.99 97.8 26.37 117 26.37 117 24.99 108.18 24.99 108.18 16.56 115.11 16.56 115.11 15.18 99.75 15.18ZM96.81 6.72C95.16 9.96 92.43 13.11 89.76 15.15 90.06 15.48 90.54 16.14 90.72 16.44 91.89 15.42 93.12 14.19 94.26 12.84L94.26 27.27 95.7 27.27 95.7 11.04C96.6 9.81 97.44 8.52 98.13 7.23L96.81 6.72ZM1.59 61.05 3.39 61.05 3.39 51.81 7.38 51.81C12.24 51.81 15.24 49.71 15.24 45.33 15.24 40.8 12.21 39.18 7.26 39.18L1.59 39.18 1.59 61.05ZM3.39 50.28 3.39 40.68 6.9 40.68C11.25 40.68 13.41 41.76 13.41 45.33 13.41 48.84 11.34 50.28 7.02 50.28L3.39 50.28ZM21.75 61.44C23.82 61.44 25.71 60.33 27.3 59.01L27.42 59.01 27.6 61.05 29.04 61.05 29.04 50.91C29.04 47.37 27.69 44.64 23.85 44.64 21.27 44.64 19.05 45.9 17.85 46.71L18.6 48C19.74 47.19 21.54 46.17 23.64 46.17 26.67 46.17 27.33 48.63 27.27 51 20.25 51.78 17.1 53.49 17.1 57 17.1 60 19.17 61.44 21.75 61.44ZM22.11 59.94C20.31 59.94 18.84 59.13 18.84 56.91 18.84 54.48 20.97 52.98 27.27 52.29L27.27 57.48C25.41 59.1 23.88 59.94 22.11 59.94ZM38.73 61.44C39.45 61.44 40.47 61.17 41.4 60.84L40.98 59.46C40.44 59.73 39.63 59.94 39.03 59.94 36.9 59.94 36.36 58.65 36.36 56.64L36.36 46.53 40.95 46.53 40.95 45.03 36.36 45.03 36.36 40.44 34.89 40.44 34.68 45.03 32.16 45.21 32.16 46.53 34.62 46.53 34.62 56.52C34.62 59.46 35.58 61.44 38.73 61.44ZM44.79 61.05 46.53 61.05 46.53 49.08C48.39 47.16 49.71 46.2 51.54 46.2 54.03 46.2 55.08 47.76 55.08 51.06L55.08 61.05 56.82 61.05 56.82 50.82C56.82 46.71 55.29 44.64 51.96 44.64 49.77 44.64 48.12 45.9 46.5 47.52L46.53 44.01 46.53 37.2 44.79 37.2 44.79 61.05ZM73.56 61.44C74.28 61.44 75.3 61.17 76.23 60.84L75.81 59.46C75.27 59.73 74.46 59.94 73.86 59.94 71.73 59.94 71.19 58.65 71.19 56.64L71.19 46.53 75.78 46.53 75.78 45.03 71.19 45.03 71.19 40.44 69.72 40.44 69.51 45.03 66.99 45.21 66.99 46.53 69.45 46.53 69.45 56.52C69.45 59.46 70.41 61.44 73.56 61.44ZM85.14 61.44C89.01 61.44 92.37 58.38 92.37 53.07 92.37 47.73 89.01 44.64 85.14 44.64 81.27 44.64 77.91 47.73 77.91 53.07 77.91 58.38 81.27 61.44 85.14 61.44ZM85.14 59.91C81.99 59.91 79.74 57.15 79.74 53.07 79.74 48.96 81.99 46.17 85.14 46.17 88.29 46.17 90.57 48.96 90.57 53.07 90.57 57.15 88.29 59.91 85.14 59.91ZM103.68 61.05 105.42 61.05 105.42 50.31C106.62 47.34 108.3 46.26 109.71 46.26 110.34 46.26 110.67 46.35 111.18 46.53L111.54 44.97C111.03 44.73 110.55 44.64 109.92 44.64 108.06 44.64 106.5 46.02 105.39 48L105.33 48 105.12 45.03 103.68 45.03 103.68 61.05ZM120.27 61.44C122.55 61.44 124.05 60.69 125.34 59.88L124.65 58.59C123.45 59.43 122.13 59.97 120.42 59.97 116.97 59.97 114.66 57.24 114.57 53.37L125.91 53.37C125.97 52.95 126 52.5 126 52.08 126 47.4 123.69 44.64 119.82 44.64 116.22 44.64 112.8 47.85 112.8 53.07 112.8 58.32 116.13 61.44 120.27 61.44ZM114.57 51.96C114.9 48.3 117.24 46.14 119.82 46.14 122.64 46.14 124.38 48.09 124.38 51.96L114.57 51.96ZM134.19 61.44C137.73 61.44 139.65 59.34 139.65 56.88 139.65 53.79 136.98 52.92 134.52 51.99 132.66 51.3 130.92 50.61 130.92 48.87 130.92 47.43 132.03 46.11 134.4 46.11 135.96 46.11 137.1 46.74 138.18 47.55L139.08 46.35C137.91 45.36 136.2 44.64 134.43 44.64 131.04 44.64 129.18 46.62 129.18 48.96 129.18 51.72 131.73 52.68 134.07 53.55 135.9 54.21 137.94 55.08 137.94 56.97 137.94 58.62 136.71 59.97 134.25 59.97 132.09 59.97 130.62 59.13 129.27 57.99L128.31 59.25C129.78 60.45 131.85 61.44 134.19 61.44ZM149.73 61.44C153.6 61.44 156.96 58.38 156.96 53.07 156.96 47.73 153.6 44.64 149.73 44.64 145.86 44.64 142.5 47.73 142.5 53.07 142.5 58.38 145.86 61.44 149.73 61.44ZM149.73 59.91C146.58 59.91 144.33 57.15 144.33 53.07 144.33 48.96 146.58 46.17 149.73 46.17 152.88 46.17 155.16 48.96 155.16 53.07 155.16 57.15 152.88 59.91 149.73 59.91ZM166.23 61.44C168.45 61.44 170.1 60.21 171.66 58.41L171.72 58.41 171.87 61.05 173.37 61.05 173.37 45.03 171.6 45.03 171.6 56.76C169.8 58.92 168.45 59.88 166.62 59.88 164.16 59.88 163.14 58.35 163.14 55.05L163.14 45.03 161.37 45.03 161.37 55.26C161.37 59.4 162.93 61.44 166.23 61.44ZM179.31 61.05 181.05 61.05 181.05 50.31C182.25 47.34 183.93 46.26 185.34 46.26 185.97 46.26 186.3 46.35 186.81 46.53L187.17 44.97C186.66 44.73 186.18 44.64 185.55 44.64 183.69 44.64 182.13 46.02 181.02 48L180.96 48 180.75 45.03 179.31 45.03 179.31 61.05ZM195.72 61.44C197.73 61.44 199.5 60.57 200.88 59.37L200.01 58.14C198.93 59.13 197.49 59.91 195.87 59.91 192.51 59.91 190.26 57.15 190.26 53.07 190.26 48.96 192.69 46.17 195.9 46.17 197.37 46.17 198.54 46.86 199.53 47.79L200.52 46.59C199.44 45.6 197.97 44.64 195.84 44.64 191.88 44.64 188.43 47.73 188.43 53.07 188.43 58.38 191.58 61.44 195.72 61.44ZM210.24 61.44C212.52 61.44 214.02 60.69 215.31 59.88L214.62 58.59C213.42 59.43 212.1 59.97 210.39 59.97 206.94 59.97 204.63 57.24 204.54 53.37L215.88 53.37C215.94 52.95 215.97 52.5 215.97 52.08 215.97 47.4 213.66 44.64 209.79 44.64 206.19 44.64 202.77 47.85 202.77 53.07 202.77 58.32 206.1 61.44 210.24 61.44ZM204.54 51.96C204.87 48.3 207.21 46.14 209.79 46.14 212.61 46.14 214.35 48.09 214.35 51.96L204.54 51.96Z" transform="translate(112.59 105.95)"/></g><mask id="b" fill="#fff"><use xlink:href="#a"/></mask><g fill-rule="nonzero" mask="url(#b)"><g transform="translate(3.952 27.144)"><path fill="#C7C7CC" d="M0 31.856 0 10.472 2.904 10.472 3.212 13.288 3.3 13.288C3.85733333 12.2906667 4.50266667 11.484 5.236 10.868 5.96933333 10.252 6.952 9.944 8.184 9.944 10.2666667 9.944 11.616 11.176 12.232 13.64 12.848 12.496 13.53 11.594 14.278 10.934 15.026 10.274 16.016 9.944 17.248 9.944 18.744 9.944 19.91 10.5086667 20.746 11.638 21.582 12.7673333 22 14.4026667 22 16.544L22 31.856 18.392 31.856 18.392 16.808C18.392 14.3146667 17.6293333 13.068 16.104 13.068 15.3706667 13.068 14.762 13.3393333 14.278 13.882 13.794 14.4246667 13.2586667 15.2533333 12.672 16.368L12.672 31.856 9.328 31.856 9.328 16.808C9.328 15.576 9.15933333 14.6446667 8.822 14.014 8.48466667 13.3833333 7.92 13.068 7.128 13.068 6.39466667 13.068 5.75666667 13.3393333 5.214 13.882 4.67133333 14.4246667 4.136 15.2533333 3.608 16.368L3.608 31.856 0 31.856ZM37.048 16.632C36.0506667 16.632 35.2073333 16.2873333 34.518 15.598 33.8286667 14.9086667 33.484 14.0213333 33.484 12.936 33.484 11.8213333 33.8286667 10.9193333 34.518 10.23 35.2073333 9.54066667 36.0506667 9.196 37.048 9.196 38.0453333 9.196 38.8886667 9.54066667 39.578 10.23 40.2673333 10.9193333 40.612 11.8213333 40.612 12.936 40.612 14.0213333 40.2673333 14.9086667 39.578 15.598 38.8886667 16.2873333 38.0453333 16.632 37.048 16.632ZM37.048 32.384C36.0506667 32.384 35.2073333 32.0393333 34.518 31.35 33.8286667 30.6606667 33.484 29.7733333 33.484 28.688 33.484 27.5733333 33.8286667 26.6713333 34.518 25.982 35.2073333 25.2926667 36.0506667 24.948 37.048 24.948 38.0453333 24.948 38.8886667 25.2926667 39.578 25.982 40.2673333 26.6713333 40.612 27.5733333 40.612 28.688 40.612 29.7733333 40.2673333 30.6606667 39.578 31.35 38.8886667 32.0393333 38.0453333 32.384 37.048 32.384ZM63.536 32.384C61.424 32.384 59.598 32.054 58.058 31.394 56.518 30.734 55.33 29.8173333 54.494 28.644 53.658 27.4706667 53.24 26.1506667 53.24 24.684 53.24 23.3933333 53.5333333 22.2786667 54.12 21.34 54.7066667 20.4013333 55.462 19.5946667 56.386 18.92 57.31 18.2453333 58.2706667 17.6733333 59.268 17.204L59.268 17.028C58.0946667 16.2946667 57.09 15.3853333 56.254 14.3 55.418 13.2146667 55 11.9386667 55 10.472 55 9.03466667 55.374 7.77333333 56.122 6.688 56.87 5.60266667 57.8966667 4.75933333 59.202 4.158 60.5073333 3.55666667 61.996 3.256 63.668 3.256 66.4253333 3.256 68.5666667 3.96 70.092 5.368 71.6173333 6.776 72.38 8.56533333 72.38 10.736 72.38 12.056 71.962 13.2953333 71.126 14.454 70.29 15.6126667 69.2853333 16.6026667 68.112 17.424L68.112 17.6C69.1386667 18.0986667 70.07 18.6633333 70.906 19.294 71.742 19.9246667 72.402 20.68 72.886 21.56 73.37 22.44 73.612 23.5546667 73.612 24.904 73.612 26.2826667 73.216 27.544 72.424 28.688 71.632 29.832 70.488 30.734 68.992 31.394 67.496 32.054 65.6773333 32.384 63.536 32.384ZM65.736 16.544C68.0826667 14.8426667 69.256 12.9653333 69.256 10.912 69.256 9.53333333 68.772 8.36 67.804 7.392 66.836 6.424 65.428 5.94 63.58 5.94 62.0253333 5.94 60.7566667 6.35066667 59.774 7.172 58.7913333 7.99333333 58.3 9.09333333 58.3 10.472 58.3 11.5866667 58.63 12.5106667 59.29 13.244 59.95 13.9773333 60.8446667 14.6006667 61.974 15.114 63.1033333 15.6273333 64.3573333 16.104 65.736 16.544ZM63.624 29.7C65.7066667 29.7 67.3126667 29.238 68.442 28.314 69.5713333 27.39 70.136 26.2093333 70.136 24.772 70.136 23.452 69.7473333 22.418 68.97 21.67 68.1926667 20.922 67.1366667 20.2986667 65.802 19.8 64.4673333 19.3013333 62.9786667 18.7733333 61.336 18.216 59.9866667 18.9493333 58.85 19.8 57.926 20.768 57.002 21.736 56.54 22.924 56.54 24.332 56.54 25.8866667 57.1853333 27.17 58.476 28.182 59.7666667 29.194 61.4826667 29.7 63.624 29.7ZM89.848 32.384C86.7386667 32.384 84.282 31.108 82.478 28.556 80.674 26.004 79.772 22.396 79.772 17.732 79.772 13.0093333 80.674 9.416 82.478 6.952 84.282 4.488 86.7386667 3.256 89.848 3.256 92.9866667 3.256 95.4506667 4.488 97.24 6.952 99.0293333 9.416 99.924 13.0093333 99.924 17.732 99.924 22.396 99.0293333 26.004 97.24 28.556 95.4506667 31.108 92.9866667 32.384 89.848 32.384ZM89.848 29.48C91.8133333 29.48 93.4193333 28.5266667 94.666 26.62 95.9126667 24.7133333 96.536 21.7506667 96.536 17.732 96.536 13.684 95.9126667 10.7433333 94.666 8.91 93.4193333 7.07666667 91.8133333 6.16 89.848 6.16 87.8826667 6.16 86.2766667 7.07666667 85.03 8.91 83.7833333 10.7433333 83.16 13.684 83.16 17.732 83.16 21.7506667 83.7833333 24.7133333 85.03 26.62 86.2766667 28.5266667 87.8826667 29.48 89.848 29.48ZM89.848 20.372C89.1146667 20.372 88.4766667 20.108 87.934 19.58 87.3913333 19.052 87.12 18.3333333 87.12 17.424 87.12 16.5146667 87.3913333 15.8033333 87.934 15.29 88.4766667 14.7766667 89.1146667 14.52 89.848 14.52 90.5813333 14.52 91.2193333 14.7766667 91.762 15.29 92.3046667 15.8033333 92.576 16.5146667 92.576 17.424 92.576 18.3333333 92.3046667 19.052 91.762 19.58 91.2193333 20.108 90.5813333 20.372 89.848 20.372Z"/><polygon fill="#2C2C2E" points="107.404 38.896 121.836 .616 125.092 .616 110.66 38.896"/><path fill="#2C2C2E" d="M133.54 40.876 133.54 10.472 136.532 10.472 136.84 13.2 136.972 13.2C137.969333 12.2613333 139.120667 11.484 140.426 10.868 141.731333 10.252 143.044 9.944 144.364 9.944 147.238667 9.944 149.431333 10.934 150.942 12.914 152.452667 14.894 153.208 17.5413333 153.208 20.856 153.208 23.2613333 152.753333 25.3293333 151.844 27.06 150.934667 28.7906667 149.746667 30.1106667 148.28 31.02 146.813333 31.9293333 145.214667 32.384 143.484 32.384 142.486667 32.384 141.408667 32.142 140.25 31.658 139.091333 31.174 138.042667 30.492 137.104 29.612L136.972 29.612 137.148 33.66 137.148 40.876 133.54 40.876ZM142.868 29.348C144.774667 29.348 146.351333 28.5926667 147.598 27.082 148.844667 25.5713333 149.468 23.496 149.468 20.856 149.468 18.5093333 148.998667 16.61 148.06 15.158 147.121333 13.706 145.581333 12.98 143.44 12.98 142.501333 12.98 141.496667 13.2366667 140.426 13.75 139.355333 14.2633333 138.262667 15.0773333 137.148 16.192L137.148 26.84C138.174667 27.7493333 139.201333 28.3946667 140.228 28.776 141.254667 29.1573333 142.134667 29.348 142.868 29.348ZM166.672 32.384C165.352 32.384 164.142 32.142 163.042 31.658 161.942 31.174 161.062 30.4773333 160.402 29.568 159.742 28.6586667 159.412 27.5733333 159.412 26.312 159.412 24.6986667 159.932667 23.3566667 160.974 22.286 162.015333 21.2153333 163.68 20.3573333 165.968 19.712 168.256 19.0666667 171.233333 18.5973333 174.9 18.304 174.870667 17.336 174.672667 16.4486667 174.306 15.642 173.939333 14.8353333 173.345333 14.1826667 172.524 13.684 171.702667 13.1853333 170.602667 12.936 169.224 12.936 167.845333 12.936 166.503333 13.2073333 165.198 13.75 163.892667 14.2926667 162.741333 14.872 161.744 15.488L160.336 13.024C161.421333 12.32 162.807333 11.6306667 164.494 10.956 166.180667 10.2813333 167.962667 9.944 169.84 9.944 172.773333 9.944 174.951333 10.7433333 176.374 12.342 177.796667 13.9406667 178.508 16.0746667 178.508 18.744L178.508 31.856 175.56 31.856 175.252 28.952 175.12 28.952C173.946667 29.8613333 172.626667 30.6606667 171.16 31.35 169.693333 32.0393333 168.197333 32.384 166.672 32.384ZM167.64 29.48C168.842667 29.48 170.052667 29.2013333 171.27 28.644 172.487333 28.0866667 173.697333 27.3093333 174.9 26.312L174.9 20.68C171.849333 20.9146667 169.451333 21.274 167.706 21.758 165.960667 22.242 164.728667 22.8433333 164.01 23.562 163.291333 24.2806667 162.932 25.1093333 162.932 26.048 162.932 27.2506667 163.408667 28.1233333 164.362 28.666 165.315333 29.2086667 166.408 29.48 167.64 29.48ZM199.584 32.384C197.501333 32.384 195.858667 32.01 194.656 31.262 193.453333 30.514 192.595333 29.48 192.082 28.16 191.568667 26.84 191.312 25.3 191.312 23.54L191.312 13.42 185.284 13.42 185.284 10.692 191.444 10.472 191.928 3.608 194.92 3.608 194.92 10.472 205.436 10.472 205.436 13.42 194.92 13.42 194.92 23.584C194.92 25.4906667 195.308667 26.9426667 196.086 27.94 196.863333 28.9373333 198.278667 29.436 200.332 29.436 201.358667 29.436 202.282667 29.348 203.104 29.172 203.925333 28.996 204.717333 28.7613333 205.48 28.468L206.272 31.108C205.304 31.46 204.284667 31.7606667 203.214 32.01 202.143333 32.2593333 200.933333 32.384 199.584 32.384ZM212.74 31.856 212.74.528 216.348.528 216.348 9.064 216.128 14.124 216.26 14.124C217.374667 12.9213333 218.57 11.924 219.846 11.132 221.122 10.34 222.596 9.944 224.268 9.944 226.790667 9.944 228.653333 10.6773333 229.856 12.144 231.058667 13.6106667 231.66 15.752 231.66 18.568L231.66 31.856 228.052 31.856 228.052 19.052C228.052 17.028 227.670667 15.5246667 226.908 14.542 226.145333 13.5593333 224.884 13.068 223.124 13.068 221.862667 13.068 220.733333 13.3906667 219.736 14.036 218.738667 14.6813333 217.609333 15.6493333 216.348 16.94L216.348 31.856 212.74 31.856Z"/><polygon fill="#2C2C2E" points="239.404 38.896 253.836 .616 257.092 .616 242.66 38.896"/><path fill="#2C2C2E" d="M278.784 32.384C276.701333 32.384 275.058667 32.01 273.856 31.262 272.653333 30.514 271.795333 29.48 271.282 28.16 270.768667 26.84 270.512 25.3 270.512 23.54L270.512 13.42 264.484 13.42 264.484 10.692 270.644 10.472 271.128 3.608 274.12 3.608 274.12 10.472 284.636 10.472 284.636 13.42 274.12 13.42 274.12 23.584C274.12 25.4906667 274.508667 26.9426667 275.286 27.94 276.063333 28.9373333 277.478667 29.436 279.532 29.436 280.558667 29.436 281.482667 29.348 282.304 29.172 283.125333 28.996 283.917333 28.7613333 284.68 28.468L285.472 31.108C284.504 31.46 283.484667 31.7606667 282.414 32.01 281.343333 32.2593333 280.133333 32.384 278.784 32.384ZM301.048 32.384C299.170667 32.384 297.432667 31.944 295.834 31.064 294.235333 30.184 292.944667 28.908 291.962 27.236 290.979333 25.564 290.488 23.5546667 290.488 21.208 290.488 18.8026667 290.979333 16.764 291.962 15.092 292.944667 13.42 294.235333 12.144 295.834 11.264 297.432667 10.384 299.170667 9.944 301.048 9.944 302.925333 9.944 304.663333 10.384 306.262 11.264 307.860667 12.144 309.151333 13.42 310.134 15.092 311.116667 16.764 311.608 18.8026667 311.608 21.208 311.608 23.5546667 311.116667 25.564 310.134 27.236 309.151333 28.908 307.860667 30.184 306.262 31.064 304.663333 31.944 302.925333 32.384 301.048 32.384ZM301.048 29.392C303.101333 29.392 304.751333 28.6366667 305.998 27.126 307.244667 25.6153333 307.868 23.6426667 307.868 21.208 307.868 18.744 307.244667 16.7493333 305.998 15.224 304.751333 13.6986667 303.101333 12.936 301.048 12.936 298.994667 12.936 297.344667 13.6986667 296.098 15.224 294.851333 16.7493333 294.228 18.744 294.228 21.208 294.228 23.6426667 294.851333 25.6153333 296.098 27.126 297.344667 28.6366667 298.994667 29.392 301.048 29.392Z"/><polygon fill="#2C2C2E" points="318.604 38.896 333.036 .616 336.292 .616 321.86 38.896"/><path fill="#2C2C2E" d="M343.2 31.856 343.2 10.472 346.104 10.472 346.412 13.288 346.5 13.288C347.057333 12.2906667 347.702667 11.484 348.436 10.868 349.169333 10.252 350.152 9.944 351.384 9.944 353.466667 9.944 354.816 11.176 355.432 13.64 356.048 12.496 356.73 11.594 357.478 10.934 358.226 10.274 359.216 9.944 360.448 9.944 361.944 9.944 363.11 10.5086667 363.946 11.638 364.782 12.7673333 365.2 14.4026667 365.2 16.544L365.2 31.856 361.592 31.856 361.592 16.808C361.592 14.3146667 360.829333 13.068 359.304 13.068 358.570667 13.068 357.962 13.3393333 357.478 13.882 356.994 14.4246667 356.458667 15.2533333 355.872 16.368L355.872 31.856 352.528 31.856 352.528 16.808C352.528 15.576 352.359333 14.6446667 352.022 14.014 351.684667 13.3833333 351.12 13.068 350.328 13.068 349.594667 13.068 348.956667 13.3393333 348.414 13.882 347.871333 14.4246667 347.336 15.2533333 346.808 16.368L346.808 31.856 343.2 31.856ZM372.812 41.052C371.756 41.052 370.817333 40.9053333 369.996 40.612L370.744 37.752C371.037333 37.84 371.352667 37.9133333 371.69 37.972 372.027333 38.0306667 372.357333 38.06 372.68 38.06 374.176 38.06 375.393333 37.6273333 376.332 36.762 377.270667 35.8966667 378.004 34.804 378.532 33.484L379.192 31.9 369.204 10.472 372.856 10.472 378.092 22.308C378.502667 23.2466667 378.935333 24.2586667 379.39 25.344 379.844667 26.4293333 380.292 27.4853333 380.732 28.512L380.908 28.512C381.289333 27.4853333 381.678 26.4366667 382.074 25.366 382.47 24.2953333 382.844 23.276 383.196 22.308L387.86 10.472 391.292 10.472 381.876 33.616C381.348 35.024 380.688 36.2853333 379.896 37.4 379.104 38.5146667 378.128667 39.402 376.97 40.062 375.811333 40.722 374.425333 41.052 372.812 41.052ZM404.096 31.856 404.096 13.42 397.98 13.42 397.98 10.692 404.096 10.472 404.096 8.668C404.096 6.05733333 404.8 3.96 406.208 2.376 407.616.792 409.786667 0 412.72 0 414.832 0 416.885333.410666667 418.88 1.232L418.044 3.96C417.164 3.54933333 416.35 3.278 415.602 3.146 414.854 3.014 414.010667 2.948 413.072 2.948 411.165333 2.948 409.786667 3.44666667 408.936 4.444 408.085333 5.44133333 407.66 6.80533333 407.66 8.536L407.66 10.472 416.636 10.472 416.636 13.42 407.66 13.42 407.66 31.856 404.096 31.856ZM433.752 31.856 433.752 13.42 423.808 13.42 423.808 10.472 437.36 10.472 437.36 31.856 433.752 31.856ZM435.16 5.984C434.338667 5.984 433.649333 5.72733333 433.092 5.214 432.534667 4.70066667 432.256 4.01866667 432.256 3.168 432.256 2.31733333 432.534667 1.63533333 433.092 1.122 433.649333.608666667 434.338667.352 435.16.352 435.981333.352 436.670667.608666667 437.228 1.122 437.785333 1.63533333 438.064 2.31733333 438.064 3.168 438.064 4.01866667 437.785333 4.70066667 437.228 5.214 436.670667 5.72733333 435.981333 5.984 435.16 5.984ZM464.156 32.384C461.897333 32.384 460.159333 31.7313333 458.942 30.426 457.724667 29.1206667 457.116 27.2066667 457.116 24.684L457.116 3.476 449.504 3.476 449.504.528 460.724.528 460.724 24.948C460.724 26.5026667 461.112667 27.632 461.89 28.336 462.667333 29.04 463.686667 29.392 464.948 29.392 466.209333 29.392 467.544 29.0693333 468.952 28.424L469.876 31.108C468.878667 31.5186667 467.969333 31.834 467.148 32.054 466.326667 32.274 465.329333 32.384 464.156 32.384ZM486.64 12.804C484.88 12.804 483.310667 13.3686667 481.932 14.498 480.553333 15.6273333 479.702667 17.248 479.38 19.36L493.02 19.36C492.873333 17.16 492.228 15.5173333 491.084 14.432 489.94 13.3466667 488.458667 12.804 486.64 12.804ZM487.168 32.384C485.026667 32.384 483.083333 31.944 481.338 31.064 479.592667 30.184 478.206667 28.9006667 477.18 27.214 476.153333 25.5273333 475.64 23.496 475.64 21.12 475.64 18.8026667 476.153333 16.808 477.18 15.136 478.206667 13.464 479.548667 12.1806667 481.206 11.286 482.863333 10.3913333 484.645333 9.944 486.552 9.944 489.632 9.944 492.03 10.8606667 493.746 12.694 495.462 14.5273333 496.32 16.9546667 496.32 19.976 496.32 20.3866667 496.305333 20.7826667 496.276 21.164 496.246667 21.5453333 496.202667 21.8826667 496.144 22.176L479.292 22.176C479.526667 24.5813333 480.414 26.4 481.954 27.632 483.494 28.864 485.378667 29.48 487.608 29.48 488.898667 29.48 490.064667 29.2966667 491.106 28.93 492.147333 28.5633333 493.152 28.072 494.12 27.456L495.44 29.832C494.384 30.536 493.174 31.1373333 491.81 31.636 490.446 32.1346667 488.898667 32.384 487.168 32.384ZM512.248 32.384C511.250667 32.384 510.407333 32.0393333 509.718 31.35 509.028667 30.6606667 508.684 29.7733333 508.684 28.688 508.684 27.5733333 509.028667 26.6713333 509.718 25.982 510.407333 25.2926667 511.250667 24.948 512.248 24.948 513.245333 24.948 514.088667 25.2926667 514.778 25.982 515.467333 26.6713333 515.812 27.5733333 515.812 28.688 515.812 29.7733333 515.467333 30.6606667 514.778 31.35 514.088667 32.0393333 513.245333 32.384 512.248 32.384ZM529.54 31.856 529.54.528 533.148.528 533.148 9.064 532.928 14.124 533.06 14.124C534.174667 12.9213333 535.37 11.924 536.646 11.132 537.922 10.34 539.396 9.944 541.068 9.944 543.590667 9.944 545.453333 10.6773333 546.656 12.144 547.858667 13.6106667 548.46 15.752 548.46 18.568L548.46 31.856 544.852 31.856 544.852 19.052C544.852 17.028 544.470667 15.5246667 543.708 14.542 542.945333 13.5593333 541.684 13.068 539.924 13.068 538.662667 13.068 537.533333 13.3906667 536.536 14.036 535.538667 14.6813333 534.409333 15.6493333 533.148 16.94L533.148 31.856 529.54 31.856ZM569.184 32.384C567.101333 32.384 565.458667 32.01 564.256 31.262 563.053333 30.514 562.195333 29.48 561.682 28.16 561.168667 26.84 560.912 25.3 560.912 23.54L560.912 13.42 554.884 13.42 554.884 10.692 561.044 10.472 561.528 3.608 564.52 3.608 564.52 10.472 575.036 10.472 575.036 13.42 564.52 13.42 564.52 23.584C564.52 25.4906667 564.908667 26.9426667 565.686 27.94 566.463333 28.9373333 567.878667 29.436 569.932 29.436 570.958667 29.436 571.882667 29.348 572.704 29.172 573.525333 28.996 574.317333 28.7613333 575.08 28.468L575.872 31.108C574.904 31.46 573.884667 31.7606667 572.814 32.01 571.743333 32.2593333 570.533333 32.384 569.184 32.384ZM580.8 31.856 580.8 10.472 583.704 10.472 584.012 13.288 584.1 13.288C584.657333 12.2906667 585.302667 11.484 586.036 10.868 586.769333 10.252 587.752 9.944 588.984 9.944 591.066667 9.944 592.416 11.176 593.032 13.64 593.648 12.496 594.33 11.594 595.078 10.934 595.826 10.274 596.816 9.944 598.048 9.944 599.544 9.944 600.71 10.5086667 601.546 11.638 602.382 12.7673333 602.8 14.4026667 602.8 16.544L602.8 31.856 599.192 31.856 599.192 16.808C599.192 14.3146667 598.429333 13.068 596.904 13.068 596.170667 13.068 595.562 13.3393333 595.078 13.882 594.594 14.4246667 594.058667 15.2533333 593.472 16.368L593.472 31.856 590.128 31.856 590.128 16.808C590.128 15.576 589.959333 14.6446667 589.622 14.014 589.284667 13.3833333 588.72 13.068 587.928 13.068 587.194667 13.068 586.556667 13.3393333 586.014 13.882 585.471333 14.4246667 584.936 15.2533333 584.408 16.368L584.408 31.856 580.8 31.856ZM622.556 32.384C620.297333 32.384 618.559333 31.7313333 617.342 30.426 616.124667 29.1206667 615.516 27.2066667 615.516 24.684L615.516 3.476 607.904 3.476 607.904.528 619.124.528 619.124 24.948C619.124 26.5026667 619.512667 27.632 620.29 28.336 621.067333 29.04 622.086667 29.392 623.348 29.392 624.609333 29.392 625.944 29.0693333 627.352 28.424L628.276 31.108C627.278667 31.5186667 626.369333 31.834 625.548 32.054 624.726667 32.274 623.729333 32.384 622.556 32.384Z"/></g></g><rect width="100" height="200" fill="url(#c)" transform="matrix(-1 0 0 1 100 0)"/></g></svg>