<svg xmlns="http://www.w3.org/2000/svg" width="800" height="200" viewBox="0 0 800 200"><defs><linearGradient id="a" x1="100%" x2="0%" y1="50%" y2="50%"><stop offset="0%" stop-color="#FFF"/><stop offset="100%" stop-color="#FFF" stop-opacity="0"/></linearGradient></defs><g fill="none" fill-rule="evenodd"><rect width="800" height="200" fill="#FFF"/><g transform="translate(110 10)"><path fill="#FF9500" d="M7.6916556,74 C5.01709938,74 4.04724067,73.7215232 3.06946289,73.1986019 C2.09168511,72.6756806 1.32431939,71.9083149 0.801398111,70.9305371 C0.278476833,69.9527593 1.2037061e-16,68.9829006 -2.07168062e-16,66.3083444 L2.07168062e-16,7.6916556 C-1.2037061e-16,5.01709938 0.278476833,4.04724067 0.801398111,3.06946289 C1.32431939,2.09168511 2.09168511,1.32431939 3.06946289,0.801398111 C4.04724067,0.278476833 5.01709938,1.80555915e-16 7.6916556,-3.10752092e-16 L521.308344,3.10752092e-16 C523.982901,-1.80555915e-16 524.952759,0.278476833 525.930537,0.801398111 C526.908315,1.32431939 527.675681,2.09168511 528.198602,3.06946289 C528.721523,4.04724067 529,5.01709938 529,7.6916556 L529,66.3083444 C529,68.9829006 528.721523,69.9527593 528.198602,70.9305371 C527.675681,71.9083149 526.908315,72.6756806 525.930537,73.1986019 C524.952759,73.7215232 523.982901,74 521.308344,74 L66,74 L66,116 L81.999,116 L82,104 L106,119 L82,134 L81.999,122 L60,122 L60,74 L7.6916556,74 Z" opacity=".5"/><path fill="#2C2C2E" fill-rule="nonzero" d="M1.2 2.34C3.48 3.15 6.21 4.5 7.62 5.58L8.37 4.38C6.96 3.33 4.2 2.04 1.95 1.32L1.2 2.34ZM0 10.56.42 11.91C2.76 11.13 5.85 10.17 8.82 9.24L8.61 7.92C5.37 8.94 2.16 9.93 0 10.56ZM4.2 13.95 4.2 22.38 5.64 22.38 5.64 15.33 21.45 15.33 21.45 22.23 22.92 22.23 22.92 13.95 4.2 13.95ZM13.08 16.29C12.24 21.99 9.72 24.93.18 26.16.42 26.46.75 27 .84 27.33 10.71 25.95 13.56 22.71 14.55 16.29L13.08 16.29ZM14.04 22.35C17.94 23.64 22.89 25.74 25.47 27.15L26.25 25.89C23.64 24.48 18.69 22.47 14.82 21.24L14.04 22.35ZM13.32.06C12.48 2.13 10.83 4.74 8.31 6.63 8.67 6.81 9.12 7.2 9.36 7.53 10.62 6.51 11.67 5.34 12.54 4.14L16.83 4.14C15.87 7.56 13.62 10.59 8.07 12.03 8.37 12.24 8.73 12.75 8.91 13.08 13.14 11.88 15.6 9.84 17.04 7.29 18.99 9.93 22.26 11.97 25.8 12.93 26.01 12.54 26.4 12.06 26.7 11.79 22.92 10.92 19.38 8.79 17.64 6.12 17.91 5.49 18.15 4.83 18.33 4.14L23.85 4.14C23.25 5.25 22.56 6.36 22.02 7.14L23.28 7.56C24.09 6.45 25.02 4.74 25.89 3.18L24.87 2.85 24.6 2.91 13.35 2.91C13.89 2.01 14.34 1.11 14.7.24L13.32.06ZM43.62 12.39 54.09 12.39 54.09 15.63 43.62 15.63 43.62 12.39ZM43.62 8.01 54.09 8.01 54.09 11.19 43.62 11.19 43.62 8.01ZM43.65 18.81C42.69 20.94 41.25 23.04 39.78 24.57 40.11 24.75 40.74 25.14 40.98 25.38 42.42 23.82 43.95 21.42 45 19.2L43.65 18.81ZM52.14 19.17C53.46 21.06 55.05 23.58 55.8 25.08L57.15 24.42C56.31 23.01 54.72 20.52 53.4 18.66L52.14 19.17ZM31.2 1.38C32.91 2.46 35.16 3.99 36.27 4.95L37.14 3.78C36 2.91 33.78 1.44 32.1.42L31.2 1.38ZM29.73 9.48C31.47 10.44 33.72 11.88 34.89 12.75L35.76 11.58C34.56 10.74 32.28 9.39 30.57 8.46L29.73 9.48ZM30.48 25.95 31.77 26.82C33.24 24.12 35.1 20.25 36.42 17.1L35.28 16.26C33.87 19.59 31.89 23.64 30.48 25.95ZM38.7 1.41 38.7 9.63C38.7 14.61 38.34 21.39 34.92 26.31 35.25 26.46 35.85 26.82 36.12 27.09 39.66 22.02 40.14 14.79 40.14 9.63L40.14 2.79 56.79 2.79 56.79 1.41 38.7 1.41ZM48.06 3.51C47.88 4.44 47.49 5.73 47.16 6.75L42.27 6.75 42.27 16.86 48.03 16.86 48.03 25.53C48.03 25.89 47.91 25.98 47.52 26.01 47.1 26.01 45.78 26.04 44.13 25.98 44.31 26.37 44.49 26.91 44.58 27.27 46.65 27.3 47.88 27.3 48.57 27.03 49.26 26.82 49.44 26.4 49.44 25.56L49.44 16.86 55.47 16.86 55.47 6.75 48.51 6.75C48.9 5.91 49.26 4.86 49.62 3.9L48.06 3.51ZM62.64 2.67 69.3 2.67 69.3 8.82 62.64 8.82 62.64 2.67ZM59.73 24.18 60.03 25.62C63.06 24.87 67.23 23.85 71.28 22.83L71.13 21.51 66.93 22.53 66.93 16.32 70.92 16.32 70.92 14.97 66.93 14.97 66.93 10.14 70.65 10.14 70.65 9.81C71.01 10.05 71.55 10.47 71.73 10.71 72.93 9.51 74.04 8.04 75.03 6.39 75.84 8.01 76.95 9.78 78.33 11.46 75.93 14.01 72.99 15.93 70.2 17.04 70.5 17.31 70.92 17.85 71.1 18.18 71.91 17.82 72.75 17.43 73.56 16.95L73.56 27.24 74.91 27.24 74.91 26.07 83.58 26.07 83.58 27.15 84.99 27.15 84.99 17.1C85.47 17.37 85.95 17.61 86.46 17.85 86.67 17.46 87.09 16.92 87.39 16.65 84.51 15.45 82.08 13.62 80.13 11.55 82.05 9.3 83.67 6.63 84.69 3.54L83.76 3.15 83.46 3.21 76.68 3.21C77.1 2.28 77.46 1.32 77.79.33L76.41 0C75.18 3.78 73.14 7.35 70.65 9.66L70.65 1.35 61.29 1.35 61.29 10.14 65.55 10.14 65.55 22.86 62.7 23.52 62.7 13.38 61.41 13.38 61.41 23.82 59.73 24.18ZM74.91 24.75 74.91 17.88 83.58 17.88 83.58 24.75 74.91 24.75ZM82.83 4.53C81.96 6.75 80.7 8.76 79.2 10.5 77.73 8.73 76.56 6.87 75.78 5.1L76.05 4.53 82.83 4.53ZM74.16 16.59C75.96 15.51 77.67 14.13 79.26 12.51 80.64 14.01 82.26 15.42 84.12 16.59L74.16 16.59ZM96.45.12C95.16 2.28 92.58 4.8 90.27 6.45 90.54 6.72 90.93 7.26 91.11 7.59 93.6 5.82 96.24 3.12 97.83.63L96.45.12ZM99.78 1.68 99.78 3.06 112.08 3.06C109.02 7.47 103.02 11.07 97.89 12.84 98.19 13.11 98.58 13.65 98.76 13.98 101.64 12.93 104.76 11.4 107.55 9.45 110.58 10.71 114.24 12.54 116.13 13.77L116.94 12.51C115.11 11.37 111.69 9.75 108.78 8.52 111.09 6.72 113.07 4.62 114.39 2.22L113.34 1.62 113.04 1.68 99.78 1.68ZM99.75 15.18 99.75 16.56 106.71 16.56 106.71 24.99 97.8 24.99 97.8 26.37 117 26.37 117 24.99 108.18 24.99 108.18 16.56 115.11 16.56 115.11 15.18 99.75 15.18ZM96.81 6.72C95.16 9.96 92.43 13.11 89.76 15.15 90.06 15.48 90.54 16.14 90.72 16.44 91.89 15.42 93.12 14.19 94.26 12.84L94.26 27.27 95.7 27.27 95.7 11.04C96.6 9.81 97.44 8.52 98.13 7.23L96.81 6.72ZM1.59 61.05 3.39 61.05 3.39 51.81 7.38 51.81C12.24 51.81 15.24 49.71 15.24 45.33 15.24 40.8 12.21 39.18 7.26 39.18L1.59 39.18 1.59 61.05ZM3.39 50.28 3.39 40.68 6.9 40.68C11.25 40.68 13.41 41.76 13.41 45.33 13.41 48.84 11.34 50.28 7.02 50.28L3.39 50.28ZM21.75 61.44C23.82 61.44 25.71 60.33 27.3 59.01L27.42 59.01 27.6 61.05 29.04 61.05 29.04 50.91C29.04 47.37 27.69 44.64 23.85 44.64 21.27 44.64 19.05 45.9 17.85 46.71L18.6 48C19.74 47.19 21.54 46.17 23.64 46.17 26.67 46.17 27.33 48.63 27.27 51 20.25 51.78 17.1 53.49 17.1 57 17.1 60 19.17 61.44 21.75 61.44ZM22.11 59.94C20.31 59.94 18.84 59.13 18.84 56.91 18.84 54.48 20.97 52.98 27.27 52.29L27.27 57.48C25.41 59.1 23.88 59.94 22.11 59.94ZM38.73 61.44C39.45 61.44 40.47 61.17 41.4 60.84L40.98 59.46C40.44 59.73 39.63 59.94 39.03 59.94 36.9 59.94 36.36 58.65 36.36 56.64L36.36 46.53 40.95 46.53 40.95 45.03 36.36 45.03 36.36 40.44 34.89 40.44 34.68 45.03 32.16 45.21 32.16 46.53 34.62 46.53 34.62 56.52C34.62 59.46 35.58 61.44 38.73 61.44ZM44.79 61.05 46.53 61.05 46.53 49.08C48.39 47.16 49.71 46.2 51.54 46.2 54.03 46.2 55.08 47.76 55.08 51.06L55.08 61.05 56.82 61.05 56.82 50.82C56.82 46.71 55.29 44.64 51.96 44.64 49.77 44.64 48.12 45.9 46.5 47.52L46.53 44.01 46.53 37.2 44.79 37.2 44.79 61.05ZM73.56 61.44C74.28 61.44 75.3 61.17 76.23 60.84L75.81 59.46C75.27 59.73 74.46 59.94 73.86 59.94 71.73 59.94 71.19 58.65 71.19 56.64L71.19 46.53 75.78 46.53 75.78 45.03 71.19 45.03 71.19 40.44 69.72 40.44 69.51 45.03 66.99 45.21 66.99 46.53 69.45 46.53 69.45 56.52C69.45 59.46 70.41 61.44 73.56 61.44ZM85.14 61.44C89.01 61.44 92.37 58.38 92.37 53.07 92.37 47.73 89.01 44.64 85.14 44.64 81.27 44.64 77.91 47.73 77.91 53.07 77.91 58.38 81.27 61.44 85.14 61.44ZM85.14 59.91C81.99 59.91 79.74 57.15 79.74 53.07 79.74 48.96 81.99 46.17 85.14 46.17 88.29 46.17 90.57 48.96 90.57 53.07 90.57 57.15 88.29 59.91 85.14 59.91ZM103.68 61.05 105.42 61.05 105.42 50.31C106.62 47.34 108.3 46.26 109.71 46.26 110.34 46.26 110.67 46.35 111.18 46.53L111.54 44.97C111.03 44.73 110.55 44.64 109.92 44.64 108.06 44.64 106.5 46.02 105.39 48L105.33 48 105.12 45.03 103.68 45.03 103.68 61.05ZM120.27 61.44C122.55 61.44 124.05 60.69 125.34 59.88L124.65 58.59C123.45 59.43 122.13 59.97 120.42 59.97 116.97 59.97 114.66 57.24 114.57 53.37L125.91 53.37C125.97 52.95 126 52.5 126 52.08 126 47.4 123.69 44.64 119.82 44.64 116.22 44.64 112.8 47.85 112.8 53.07 112.8 58.32 116.13 61.44 120.27 61.44ZM114.57 51.96C114.9 48.3 117.24 46.14 119.82 46.14 122.64 46.14 124.38 48.09 124.38 51.96L114.57 51.96ZM134.19 61.44C137.73 61.44 139.65 59.34 139.65 56.88 139.65 53.79 136.98 52.92 134.52 51.99 132.66 51.3 130.92 50.61 130.92 48.87 130.92 47.43 132.03 46.11 134.4 46.11 135.96 46.11 137.1 46.74 138.18 47.55L139.08 46.35C137.91 45.36 136.2 44.64 134.43 44.64 131.04 44.64 129.18 46.62 129.18 48.96 129.18 51.72 131.73 52.68 134.07 53.55 135.9 54.21 137.94 55.08 137.94 56.97 137.94 58.62 136.71 59.97 134.25 59.97 132.09 59.97 130.62 59.13 129.27 57.99L128.31 59.25C129.78 60.45 131.85 61.44 134.19 61.44ZM149.73 61.44C153.6 61.44 156.96 58.38 156.96 53.07 156.96 47.73 153.6 44.64 149.73 44.64 145.86 44.64 142.5 47.73 142.5 53.07 142.5 58.38 145.86 61.44 149.73 61.44ZM149.73 59.91C146.58 59.91 144.33 57.15 144.33 53.07 144.33 48.96 146.58 46.17 149.73 46.17 152.88 46.17 155.16 48.96 155.16 53.07 155.16 57.15 152.88 59.91 149.73 59.91ZM166.23 61.44C168.45 61.44 170.1 60.21 171.66 58.41L171.72 58.41 171.87 61.05 173.37 61.05 173.37 45.03 171.6 45.03 171.6 56.76C169.8 58.92 168.45 59.88 166.62 59.88 164.16 59.88 163.14 58.35 163.14 55.05L163.14 45.03 161.37 45.03 161.37 55.26C161.37 59.4 162.93 61.44 166.23 61.44ZM179.31 61.05 181.05 61.05 181.05 50.31C182.25 47.34 183.93 46.26 185.34 46.26 185.97 46.26 186.3 46.35 186.81 46.53L187.17 44.97C186.66 44.73 186.18 44.64 185.55 44.64 183.69 44.64 182.13 46.02 181.02 48L180.96 48 180.75 45.03 179.31 45.03 179.31 61.05ZM195.72 61.44C197.73 61.44 199.5 60.57 200.88 59.37L200.01 58.14C198.93 59.13 197.49 59.91 195.87 59.91 192.51 59.91 190.26 57.15 190.26 53.07 190.26 48.96 192.69 46.17 195.9 46.17 197.37 46.17 198.54 46.86 199.53 47.79L200.52 46.59C199.44 45.6 197.97 44.64 195.84 44.64 191.88 44.64 188.43 47.73 188.43 53.07 188.43 58.38 191.58 61.44 195.72 61.44ZM210.24 61.44C212.52 61.44 214.02 60.69 215.31 59.88L214.62 58.59C213.42 59.43 212.1 59.97 210.39 59.97 206.94 59.97 204.63 57.24 204.54 53.37L215.88 53.37C215.94 52.95 215.97 52.5 215.97 52.08 215.97 47.4 213.66 44.64 209.79 44.64 206.19 44.64 202.77 47.85 202.77 53.07 202.77 58.32 206.1 61.44 210.24 61.44ZM204.54 51.96C204.87 48.3 207.21 46.14 209.79 46.14 212.61 46.14 214.35 48.09 214.35 51.96L204.54 51.96Z" transform="translate(112.59 105.95)"/></g><g fill-rule="nonzero" transform="translate(-548.908 27.144)"><path fill="#C7C7CC" d="M552.86 31.856 552.86 10.472 555.764 10.472 556.072 13.288 556.16 13.288C556.717333 12.2906667 557.362667 11.484 558.096 10.868 558.829333 10.252 559.812 9.944 561.044 9.944 563.126667 9.944 564.476 11.176 565.092 13.64 565.708 12.496 566.39 11.594 567.138 10.934 567.886 10.274 568.876 9.944 570.108 9.944 571.604 9.944 572.77 10.5086667 573.606 11.638 574.442 12.7673333 574.86 14.4026667 574.86 16.544L574.86 31.856 571.252 31.856 571.252 16.808C571.252 14.3146667 570.489333 13.068 568.964 13.068 568.230667 13.068 567.622 13.3393333 567.138 13.882 566.654 14.4246667 566.118667 15.2533333 565.532 16.368L565.532 31.856 562.188 31.856 562.188 16.808C562.188 15.576 562.019333 14.6446667 561.682 14.014 561.344667 13.3833333 560.78 13.068 559.988 13.068 559.254667 13.068 558.616667 13.3393333 558.074 13.882 557.531333 14.4246667 556.996 15.2533333 556.468 16.368L556.468 31.856 552.86 31.856ZM589.908 16.632C588.910667 16.632 588.067333 16.2873333 587.378 15.598 586.688667 14.9086667 586.344 14.0213333 586.344 12.936 586.344 11.8213333 586.688667 10.9193333 587.378 10.23 588.067333 9.54066667 588.910667 9.196 589.908 9.196 590.905333 9.196 591.748667 9.54066667 592.438 10.23 593.127333 10.9193333 593.472 11.8213333 593.472 12.936 593.472 14.0213333 593.127333 14.9086667 592.438 15.598 591.748667 16.2873333 590.905333 16.632 589.908 16.632ZM589.908 32.384C588.910667 32.384 588.067333 32.0393333 587.378 31.35 586.688667 30.6606667 586.344 29.7733333 586.344 28.688 586.344 27.5733333 586.688667 26.6713333 587.378 25.982 588.067333 25.2926667 588.910667 24.948 589.908 24.948 590.905333 24.948 591.748667 25.2926667 592.438 25.982 593.127333 26.6713333 593.472 27.5733333 593.472 28.688 593.472 29.7733333 593.127333 30.6606667 592.438 31.35 591.748667 32.0393333 590.905333 32.384 589.908 32.384ZM616.396 32.384C614.284 32.384 612.458 32.054 610.918 31.394 609.378 30.734 608.19 29.8173333 607.354 28.644 606.518 27.4706667 606.1 26.1506667 606.1 24.684 606.1 23.3933333 606.393333 22.2786667 606.98 21.34 607.566667 20.4013333 608.322 19.5946667 609.246 18.92 610.17 18.2453333 611.130667 17.6733333 612.128 17.204L612.128 17.028C610.954667 16.2946667 609.95 15.3853333 609.114 14.3 608.278 13.2146667 607.86 11.9386667 607.86 10.472 607.86 9.03466667 608.234 7.77333333 608.982 6.688 609.73 5.60266667 610.756667 4.75933333 612.062 4.158 613.367333 3.55666667 614.856 3.256 616.528 3.256 619.285333 3.256 621.426667 3.96 622.952 5.368 624.477333 6.776 625.24 8.56533333 625.24 10.736 625.24 12.056 624.822 13.2953333 623.986 14.454 623.15 15.6126667 622.145333 16.6026667 620.972 17.424L620.972 17.6C621.998667 18.0986667 622.93 18.6633333 623.766 19.294 624.602 19.9246667 625.262 20.68 625.746 21.56 626.23 22.44 626.472 23.5546667 626.472 24.904 626.472 26.2826667 626.076 27.544 625.284 28.688 624.492 29.832 623.348 30.734 621.852 31.394 620.356 32.054 618.537333 32.384 616.396 32.384ZM618.596 16.544C620.942667 14.8426667 622.116 12.9653333 622.116 10.912 622.116 9.53333333 621.632 8.36 620.664 7.392 619.696 6.424 618.288 5.94 616.44 5.94 614.885333 5.94 613.616667 6.35066667 612.634 7.172 611.651333 7.99333333 611.16 9.09333333 611.16 10.472 611.16 11.5866667 611.49 12.5106667 612.15 13.244 612.81 13.9773333 613.704667 14.6006667 614.834 15.114 615.963333 15.6273333 617.217333 16.104 618.596 16.544ZM616.484 29.7C618.566667 29.7 620.172667 29.238 621.302 28.314 622.431333 27.39 622.996 26.2093333 622.996 24.772 622.996 23.452 622.607333 22.418 621.83 21.67 621.052667 20.922 619.996667 20.2986667 618.662 19.8 617.327333 19.3013333 615.838667 18.7733333 614.196 18.216 612.846667 18.9493333 611.71 19.8 610.786 20.768 609.862 21.736 609.4 22.924 609.4 24.332 609.4 25.8866667 610.045333 27.17 611.336 28.182 612.626667 29.194 614.342667 29.7 616.484 29.7ZM642.708 32.384C639.598667 32.384 637.142 31.108 635.338 28.556 633.534 26.004 632.632 22.396 632.632 17.732 632.632 13.0093333 633.534 9.416 635.338 6.952 637.142 4.488 639.598667 3.256 642.708 3.256 645.846667 3.256 648.310667 4.488 650.1 6.952 651.889333 9.416 652.784 13.0093333 652.784 17.732 652.784 22.396 651.889333 26.004 650.1 28.556 648.310667 31.108 645.846667 32.384 642.708 32.384ZM642.708 29.48C644.673333 29.48 646.279333 28.5266667 647.526 26.62 648.772667 24.7133333 649.396 21.7506667 649.396 17.732 649.396 13.684 648.772667 10.7433333 647.526 8.91 646.279333 7.07666667 644.673333 6.16 642.708 6.16 640.742667 6.16 639.136667 7.07666667 637.89 8.91 636.643333 10.7433333 636.02 13.684 636.02 17.732 636.02 21.7506667 636.643333 24.7133333 637.89 26.62 639.136667 28.5266667 640.742667 29.48 642.708 29.48ZM642.708 20.372C641.974667 20.372 641.336667 20.108 640.794 19.58 640.251333 19.052 639.98 18.3333333 639.98 17.424 639.98 16.5146667 640.251333 15.8033333 640.794 15.29 641.336667 14.7766667 641.974667 14.52 642.708 14.52 643.441333 14.52 644.079333 14.7766667 644.622 15.29 645.164667 15.8033333 645.436 16.5146667 645.436 17.424 645.436 18.3333333 645.164667 19.052 644.622 19.58 644.079333 20.108 643.441333 20.372 642.708 20.372Z"/><polygon fill="#2C2C2E" points="660.264 38.896 674.696 .616 677.952 .616 663.52 38.896"/><path fill="#2C2C2E" d="M686.4 40.876 686.4 10.472 689.392 10.472 689.7 13.2 689.832 13.2C690.829333 12.2613333 691.980667 11.484 693.286 10.868 694.591333 10.252 695.904 9.944 697.224 9.944 700.098667 9.944 702.291333 10.934 703.802 12.914 705.312667 14.894 706.068 17.5413333 706.068 20.856 706.068 23.2613333 705.613333 25.3293333 704.704 27.06 703.794667 28.7906667 702.606667 30.1106667 701.14 31.02 699.673333 31.9293333 698.074667 32.384 696.344 32.384 695.346667 32.384 694.268667 32.142 693.11 31.658 691.951333 31.174 690.902667 30.492 689.964 29.612L689.832 29.612 690.008 33.66 690.008 40.876 686.4 40.876ZM695.728 29.348C697.634667 29.348 699.211333 28.5926667 700.458 27.082 701.704667 25.5713333 702.328 23.496 702.328 20.856 702.328 18.5093333 701.858667 16.61 700.92 15.158 699.981333 13.706 698.441333 12.98 696.3 12.98 695.361333 12.98 694.356667 13.2366667 693.286 13.75 692.215333 14.2633333 691.122667 15.0773333 690.008 16.192L690.008 26.84C691.034667 27.7493333 692.061333 28.3946667 693.088 28.776 694.114667 29.1573333 694.994667 29.348 695.728 29.348ZM719.532 32.384C718.212 32.384 717.002 32.142 715.902 31.658 714.802 31.174 713.922 30.4773333 713.262 29.568 712.602 28.6586667 712.272 27.5733333 712.272 26.312 712.272 24.6986667 712.792667 23.3566667 713.834 22.286 714.875333 21.2153333 716.54 20.3573333 718.828 19.712 721.116 19.0666667 724.093333 18.5973333 727.76 18.304 727.730667 17.336 727.532667 16.4486667 727.166 15.642 726.799333 14.8353333 726.205333 14.1826667 725.384 13.684 724.562667 13.1853333 723.462667 12.936 722.084 12.936 720.705333 12.936 719.363333 13.2073333 718.058 13.75 716.752667 14.2926667 715.601333 14.872 714.604 15.488L713.196 13.024C714.281333 12.32 715.667333 11.6306667 717.354 10.956 719.040667 10.2813333 720.822667 9.944 722.7 9.944 725.633333 9.944 727.811333 10.7433333 729.234 12.342 730.656667 13.9406667 731.368 16.0746667 731.368 18.744L731.368 31.856 728.42 31.856 728.112 28.952 727.98 28.952C726.806667 29.8613333 725.486667 30.6606667 724.02 31.35 722.553333 32.0393333 721.057333 32.384 719.532 32.384ZM720.5 29.48C721.702667 29.48 722.912667 29.2013333 724.13 28.644 725.347333 28.0866667 726.557333 27.3093333 727.76 26.312L727.76 20.68C724.709333 20.9146667 722.311333 21.274 720.566 21.758 718.820667 22.242 717.588667 22.8433333 716.87 23.562 716.151333 24.2806667 715.792 25.1093333 715.792 26.048 715.792 27.2506667 716.268667 28.1233333 717.222 28.666 718.175333 29.2086667 719.268 29.48 720.5 29.48ZM752.444 32.384C750.361333 32.384 748.718667 32.01 747.516 31.262 746.313333 30.514 745.455333 29.48 744.942 28.16 744.428667 26.84 744.172 25.3 744.172 23.54L744.172 13.42 738.144 13.42 738.144 10.692 744.304 10.472 744.788 3.608 747.78 3.608 747.78 10.472 758.296 10.472 758.296 13.42 747.78 13.42 747.78 23.584C747.78 25.4906667 748.168667 26.9426667 748.946 27.94 749.723333 28.9373333 751.138667 29.436 753.192 29.436 754.218667 29.436 755.142667 29.348 755.964 29.172 756.785333 28.996 757.577333 28.7613333 758.34 28.468L759.132 31.108C758.164 31.46 757.144667 31.7606667 756.074 32.01 755.003333 32.2593333 753.793333 32.384 752.444 32.384ZM765.6 31.856 765.6.528 769.208.528 769.208 9.064 768.988 14.124 769.12 14.124C770.234667 12.9213333 771.43 11.924 772.706 11.132 773.982 10.34 775.456 9.944 777.128 9.944 779.650667 9.944 781.513333 10.6773333 782.716 12.144 783.918667 13.6106667 784.52 15.752 784.52 18.568L784.52 31.856 780.912 31.856 780.912 19.052C780.912 17.028 780.530667 15.5246667 779.768 14.542 779.005333 13.5593333 777.744 13.068 775.984 13.068 774.722667 13.068 773.593333 13.3906667 772.596 14.036 771.598667 14.6813333 770.469333 15.6493333 769.208 16.94L769.208 31.856 765.6 31.856Z"/><polygon fill="#2C2C2E" points="792.264 38.896 806.696 .616 809.952 .616 795.52 38.896"/><path fill="#2C2C2E" d="M831.644 32.384C829.561333 32.384 827.918667 32.01 826.716 31.262 825.513333 30.514 824.655333 29.48 824.142 28.16 823.628667 26.84 823.372 25.3 823.372 23.54L823.372 13.42 817.344 13.42 817.344 10.692 823.504 10.472 823.988 3.608 826.98 3.608 826.98 10.472 837.496 10.472 837.496 13.42 826.98 13.42 826.98 23.584C826.98 25.4906667 827.368667 26.9426667 828.146 27.94 828.923333 28.9373333 830.338667 29.436 832.392 29.436 833.418667 29.436 834.342667 29.348 835.164 29.172 835.985333 28.996 836.777333 28.7613333 837.54 28.468L838.332 31.108C837.364 31.46 836.344667 31.7606667 835.274 32.01 834.203333 32.2593333 832.993333 32.384 831.644 32.384ZM853.908 32.384C852.030667 32.384 850.292667 31.944 848.694 31.064 847.095333 30.184 845.804667 28.908 844.822 27.236 843.839333 25.564 843.348 23.5546667 843.348 21.208 843.348 18.8026667 843.839333 16.764 844.822 15.092 845.804667 13.42 847.095333 12.144 848.694 11.264 850.292667 10.384 852.030667 9.944 853.908 9.944 855.785333 9.944 857.523333 10.384 859.122 11.264 860.720667 12.144 862.011333 13.42 862.994 15.092 863.976667 16.764 864.468 18.8026667 864.468 21.208 864.468 23.5546667 863.976667 25.564 862.994 27.236 862.011333 28.908 860.720667 30.184 859.122 31.064 857.523333 31.944 855.785333 32.384 853.908 32.384ZM853.908 29.392C855.961333 29.392 857.611333 28.6366667 858.858 27.126 860.104667 25.6153333 860.728 23.6426667 860.728 21.208 860.728 18.744 860.104667 16.7493333 858.858 15.224 857.611333 13.6986667 855.961333 12.936 853.908 12.936 851.854667 12.936 850.204667 13.6986667 848.958 15.224 847.711333 16.7493333 847.088 18.744 847.088 21.208 847.088 23.6426667 847.711333 25.6153333 848.958 27.126 850.204667 28.6366667 851.854667 29.392 853.908 29.392Z"/><polygon fill="#2C2C2E" points="871.464 38.896 885.896 .616 889.152 .616 874.72 38.896"/><path fill="#2C2C2E" d="M896.06 31.856 896.06 10.472 898.964 10.472 899.272 13.288 899.36 13.288C899.917333 12.2906667 900.562667 11.484 901.296 10.868 902.029333 10.252 903.012 9.944 904.244 9.944 906.326667 9.944 907.676 11.176 908.292 13.64 908.908 12.496 909.59 11.594 910.338 10.934 911.086 10.274 912.076 9.944 913.308 9.944 914.804 9.944 915.97 10.5086667 916.806 11.638 917.642 12.7673333 918.06 14.4026667 918.06 16.544L918.06 31.856 914.452 31.856 914.452 16.808C914.452 14.3146667 913.689333 13.068 912.164 13.068 911.430667 13.068 910.822 13.3393333 910.338 13.882 909.854 14.4246667 909.318667 15.2533333 908.732 16.368L908.732 31.856 905.388 31.856 905.388 16.808C905.388 15.576 905.219333 14.6446667 904.882 14.014 904.544667 13.3833333 903.98 13.068 903.188 13.068 902.454667 13.068 901.816667 13.3393333 901.274 13.882 900.731333 14.4246667 900.196 15.2533333 899.668 16.368L899.668 31.856 896.06 31.856ZM925.672 41.052C924.616 41.052 923.677333 40.9053333 922.856 40.612L923.604 37.752C923.897333 37.84 924.212667 37.9133333 924.55 37.972 924.887333 38.0306667 925.217333 38.06 925.54 38.06 927.036 38.06 928.253333 37.6273333 929.192 36.762 930.130667 35.8966667 930.864 34.804 931.392 33.484L932.052 31.9 922.064 10.472 925.716 10.472 930.952 22.308C931.362667 23.2466667 931.795333 24.2586667 932.25 25.344 932.704667 26.4293333 933.152 27.4853333 933.592 28.512L933.768 28.512C934.149333 27.4853333 934.538 26.4366667 934.934 25.366 935.33 24.2953333 935.704 23.276 936.056 22.308L940.72 10.472 944.152 10.472 934.736 33.616C934.208 35.024 933.548 36.2853333 932.756 37.4 931.964 38.5146667 930.988667 39.402 929.83 40.062 928.671333 40.722 927.285333 41.052 925.672 41.052ZM956.956 31.856 956.956 13.42 950.84 13.42 950.84 10.692 956.956 10.472 956.956 8.668C956.956 6.05733333 957.66 3.96 959.068 2.376 960.476.792 962.646667 0 965.58 0 967.692 0 969.745333.410666667 971.74 1.232L970.904 3.96C970.024 3.54933333 969.21 3.278 968.462 3.146 967.714 3.014 966.870667 2.948 965.932 2.948 964.025333 2.948 962.646667 3.44666667 961.796 4.444 960.945333 5.44133333 960.52 6.80533333 960.52 8.536L960.52 10.472 969.496 10.472 969.496 13.42 960.52 13.42 960.52 31.856 956.956 31.856ZM986.612 31.856 986.612 13.42 976.668 13.42 976.668 10.472 990.22 10.472 990.22 31.856 986.612 31.856ZM988.02 5.984C987.198667 5.984 986.509333 5.72733333 985.952 5.214 985.394667 4.70066667 985.116 4.01866667 985.116 3.168 985.116 2.31733333 985.394667 1.63533333 985.952 1.122 986.509333.608666667 987.198667.352 988.02.352 988.841333.352 989.530667.608666667 990.088 1.122 990.645333 1.63533333 990.924 2.31733333 990.924 3.168 990.924 4.01866667 990.645333 4.70066667 990.088 5.214 989.530667 5.72733333 988.841333 5.984 988.02 5.984ZM1017.016 32.384C1014.75733 32.384 1013.01933 31.7313333 1011.802 30.426 1010.58467 29.1206667 1009.976 27.2066667 1009.976 24.684L1009.976 3.476 1002.364 3.476 1002.364.528 1013.584.528 1013.584 24.948C1013.584 26.5026667 1013.97267 27.632 1014.75 28.336 1015.52733 29.04 1016.54667 29.392 1017.808 29.392 1019.06933 29.392 1020.404 29.0693333 1021.812 28.424L1022.736 31.108C1021.73867 31.5186667 1020.82933 31.834 1020.008 32.054 1019.18667 32.274 1018.18933 32.384 1017.016 32.384ZM1039.5 12.804C1037.74 12.804 1036.17067 13.3686667 1034.792 14.498 1033.41333 15.6273333 1032.56267 17.248 1032.24 19.36L1045.88 19.36C1045.73333 17.16 1045.088 15.5173333 1043.944 14.432 1042.8 13.3466667 1041.31867 12.804 1039.5 12.804ZM1040.028 32.384C1037.88667 32.384 1035.94333 31.944 1034.198 31.064 1032.45267 30.184 1031.06667 28.9006667 1030.04 27.214 1029.01333 25.5273333 1028.5 23.496 1028.5 21.12 1028.5 18.8026667 1029.01333 16.808 1030.04 15.136 1031.06667 13.464 1032.40867 12.1806667 1034.066 11.286 1035.72333 10.3913333 1037.50533 9.944 1039.412 9.944 1042.492 9.944 1044.89 10.8606667 1046.606 12.694 1048.322 14.5273333 1049.18 16.9546667 1049.18 19.976 1049.18 20.3866667 1049.16533 20.7826667 1049.136 21.164 1049.10667 21.5453333 1049.06267 21.8826667 1049.004 22.176L1032.152 22.176C1032.38667 24.5813333 1033.274 26.4 1034.814 27.632 1036.354 28.864 1038.23867 29.48 1040.468 29.48 1041.75867 29.48 1042.92467 29.2966667 1043.966 28.93 1045.00733 28.5633333 1046.012 28.072 1046.98 27.456L1048.3 29.832C1047.244 30.536 1046.034 31.1373333 1044.67 31.636 1043.306 32.1346667 1041.75867 32.384 1040.028 32.384ZM1065.108 32.384C1064.11067 32.384 1063.26733 32.0393333 1062.578 31.35 1061.88867 30.6606667 1061.544 29.7733333 1061.544 28.688 1061.544 27.5733333 1061.88867 26.6713333 1062.578 25.982 1063.26733 25.2926667 1064.11067 24.948 1065.108 24.948 1066.10533 24.948 1066.94867 25.2926667 1067.638 25.982 1068.32733 26.6713333 1068.672 27.5733333 1068.672 28.688 1068.672 29.7733333 1068.32733 30.6606667 1067.638 31.35 1066.94867 32.0393333 1066.10533 32.384 1065.108 32.384ZM1082.4 31.856 1082.4.528 1086.008.528 1086.008 9.064 1085.788 14.124 1085.92 14.124C1087.03467 12.9213333 1088.23 11.924 1089.506 11.132 1090.782 10.34 1092.256 9.944 1093.928 9.944 1096.45067 9.944 1098.31333 10.6773333 1099.516 12.144 1100.71867 13.6106667 1101.32 15.752 1101.32 18.568L1101.32 31.856 1097.712 31.856 1097.712 19.052C1097.712 17.028 1097.33067 15.5246667 1096.568 14.542 1095.80533 13.5593333 1094.544 13.068 1092.784 13.068 1091.52267 13.068 1090.39333 13.3906667 1089.396 14.036 1088.39867 14.6813333 1087.26933 15.6493333 1086.008 16.94L1086.008 31.856 1082.4 31.856ZM1122.044 32.384C1119.96133 32.384 1118.31867 32.01 1117.116 31.262 1115.91333 30.514 1115.05533 29.48 1114.542 28.16 1114.02867 26.84 1113.772 25.3 1113.772 23.54L1113.772 13.42 1107.744 13.42 1107.744 10.692 1113.904 10.472 1114.388 3.608 1117.38 3.608 1117.38 10.472 1127.896 10.472 1127.896 13.42 1117.38 13.42 1117.38 23.584C1117.38 25.4906667 1117.76867 26.9426667 1118.546 27.94 1119.32333 28.9373333 1120.73867 29.436 1122.792 29.436 1123.81867 29.436 1124.74267 29.348 1125.564 29.172 1126.38533 28.996 1127.17733 28.7613333 1127.94 28.468L1128.732 31.108C1127.764 31.46 1126.74467 31.7606667 1125.674 32.01 1124.60333 32.2593333 1123.39333 32.384 1122.044 32.384ZM1133.66 31.856 1133.66 10.472 1136.564 10.472 1136.872 13.288 1136.96 13.288C1137.51733 12.2906667 1138.16267 11.484 1138.896 10.868 1139.62933 10.252 1140.612 9.944 1141.844 9.944 1143.92667 9.944 1145.276 11.176 1145.892 13.64 1146.508 12.496 1147.19 11.594 1147.938 10.934 1148.686 10.274 1149.676 9.944 1150.908 9.944 1152.404 9.944 1153.57 10.5086667 1154.406 11.638 1155.242 12.7673333 1155.66 14.4026667 1155.66 16.544L1155.66 31.856 1152.052 31.856 1152.052 16.808C1152.052 14.3146667 1151.28933 13.068 1149.764 13.068 1149.03067 13.068 1148.422 13.3393333 1147.938 13.882 1147.454 14.4246667 1146.91867 15.2533333 1146.332 16.368L1146.332 31.856 1142.988 31.856 1142.988 16.808C1142.988 15.576 1142.81933 14.6446667 1142.482 14.014 1142.14467 13.3833333 1141.58 13.068 1140.788 13.068 1140.05467 13.068 1139.41667 13.3393333 1138.874 13.882 1138.33133 14.4246667 1137.796 15.2533333 1137.268 16.368L1137.268 31.856 1133.66 31.856ZM1175.416 32.384C1173.15733 32.384 1171.41933 31.7313333 1170.202 30.426 1168.98467 29.1206667 1168.376 27.2066667 1168.376 24.684L1168.376 3.476 1160.764 3.476 1160.764.528 1171.984.528 1171.984 24.948C1171.984 26.5026667 1172.37267 27.632 1173.15 28.336 1173.92733 29.04 1174.94667 29.392 1176.208 29.392 1177.46933 29.392 1178.804 29.0693333 1180.212 28.424L1181.136 31.108C1180.13867 31.5186667 1179.22933 31.834 1178.408 32.054 1177.58667 32.274 1176.58933 32.384 1175.416 32.384Z"/></g><rect width="100" height="200" fill="url(#a)" transform="matrix(-1 0 0 1 100 0)"/><rect width="800" height="200"/></g></svg>