<svg xmlns="http://www.w3.org/2000/svg" xmlns:xlink="http://www.w3.org/1999/xlink" width="800" height="200" viewBox="0 0 800 200"><defs><linearGradient id="c" x1="100%" x2="0%" y1="50%" y2="50%"><stop offset="0%" stop-color="#1C1C1E"/><stop offset="100%" stop-color="#1C1C1E" stop-opacity="0"/></linearGradient><rect id="a" width="800" height="200" x="0" y="0"/></defs><g fill="none" fill-rule="evenodd"><rect width="800" height="200" fill="#1C1C1E"/><g transform="translate(10 10)"><path fill="#5E5CE6" d="M7.6916556,74 C5.01709938,74 4.04724067,73.7215232 3.06946289,73.1986019 C2.09168511,72.6756806 1.32431939,71.9083149 0.801398111,70.9305371 C0.278476833,69.9527593 1.2037061e-16,68.9829006 -2.07168062e-16,66.3083444 L2.07168062e-16,7.6916556 C-1.2037061e-16,5.01709938 0.278476833,4.04724067 0.801398111,3.06946289 C1.32431939,2.09168511 2.09168511,1.32431939 3.06946289,0.801398111 C4.04724067,0.278476833 5.01709938,1.80555915e-16 7.6916556,-3.10752092e-16 L626.308344,3.10752092e-16 C628.982901,-1.80555915e-16 629.952759,0.278476833 630.930537,0.801398111 C631.908315,1.32431939 632.675681,2.09168511 633.198602,3.06946289 C633.721523,4.04724067 634,5.01709938 634,7.6916556 L634,66.3083444 C634,68.9829006 633.721523,69.9527593 633.198602,70.9305371 C632.675681,71.9083149 631.908315,72.6756806 630.930537,73.1986019 C629.952759,73.7215232 628.982901,74 626.308344,74 L16,74 L16,116 L31.999,116 L32,104 L56,119 L32,134 L31.999,122 L10,122 L10,74 L7.6916556,74 Z" opacity=".5"/><path fill="#E5E5EA" fill-rule="nonzero" d="M.57 9.27.57 10.77 9.39 10.77C7.29 12.9 4.14 14.61 0 15.87L.72 17.31C5.46 15.66 9.03 13.47 11.37 10.77L16.83 10.77C18.72 13.41 21.99 15.51 26.61 17.13L27.33 15.63C23.34 14.46 20.4 12.84 18.54 10.77L26.43 10.77 26.43 9.27 12.48 9.27C13.05 8.37 13.53 7.41 13.89 6.39 16.35 6.27 18.72 6.12 20.97 5.97 21.75 6.75 22.47 7.5 23.13 8.25L24.48 7.35C22.89 5.55 20.61 3.48 17.64 1.11L16.38 1.92C17.52 2.85 18.57 3.78 19.59 4.68 15.63 4.98 11.34 5.19 6.72 5.34 8.64 4.2 10.56 2.64 12.51.6L10.92.06C8.1 2.94 5.61 4.68 3.48 5.34L3.75 6.78C6.69 6.69 9.51 6.6 12.21 6.48 11.85 7.44 11.34 8.37 10.68 9.27L.57 9.27ZM13.89 12.21C12.03 14.46 9.12 16.26 5.13 17.61L5.88 18.93C10.08 17.46 13.17 15.48 15.21 12.99L13.89 12.21ZM21.66 16.8C19.17 21.3 13.38 24.51 4.26 26.49L5.22 27.78C14.4 25.83 20.34 22.38 23.07 17.46L21.66 16.8ZM17.73 14.67C14.64 18.42 10.32 20.76 4.77 21.66L5.7 22.95C11.13 21.96 15.57 19.47 19.02 15.51L17.73 14.67ZM48.18 6.45 53.04 6.45C52.95 10.83 52.23 14.64 50.88 17.91 49.56 15.21 48.51 11.97 47.7 8.25 47.85 7.68 48 7.08 48.18 6.45ZM50.13 19.53C48.72 22.17 46.8 24.33 44.4 26.04L45.27 27.39C47.61 25.71 49.5 23.58 50.97 21.06 52.53 23.76 54.39 25.89 56.61 27.45L57.54 26.13C55.32 24.6 53.37 22.41 51.75 19.56 53.49 15.96 54.42 11.61 54.54 6.45L56.7 6.45 56.7 4.86 48.54 4.86C48.81 3.42 49.05 1.92 49.26.3L47.64 0C46.98 5.79 45.75 10.38 43.92 13.8L44.94 15.06C45.66 13.8 46.32 12.39 46.92 10.77 47.76 14.07 48.81 17.01 50.13 19.53ZM35.88 14.04C35.64 14.7 35.4 15.39 35.1 16.11L30.63 16.11 30.63 17.52 34.47 17.52C33.87 18.75 33.15 20.04 32.31 21.42 33.84 21.99 35.31 22.59 36.69 23.19 34.86 24.33 32.61 25.29 29.97 26.04L30.75 27.39C33.75 26.52 36.27 25.35 38.28 23.88 40.08 24.69 41.73 25.53 43.17 26.37L44.04 25.08C42.6 24.3 41.07 23.55 39.51 22.86 41.19 21.36 42.42 19.53 43.14 17.43L43.14 16.11 36.72 16.11C36.96 15.51 37.2 14.88 37.44 14.22L35.88 14.04ZM38.01 22.23C36.81 21.72 35.55 21.24 34.26 20.79 34.92 19.77 35.55 18.66 36.09 17.52L41.64 17.52C40.89 19.32 39.69 20.88 38.01 22.23ZM32.67.78 31.35 1.2C32.13 2.34 32.82 3.66 33.45 5.13L34.68 4.59C34.08 3.21 33.42 1.95 32.67.78ZM42.21.6C41.64 1.89 40.86 3.21 39.9 4.53L41.1 5.16C42.03 3.84 42.81 2.52 43.41 1.17L42.21.6ZM30.72 6 30.72 7.47 35.34 7.47C34.44 9.33 32.73 10.98 30.18 12.42L31.02 13.77C33.78 11.97 35.61 9.87 36.57 7.47L36.66 7.47 36.66 13.38 38.19 13.38 38.19 9.06C39.36 9.84 40.8 10.92 42.48 12.3L43.35 11.01C41.61 9.81 39.87 8.76 38.19 7.83L38.19 7.47 43.86 7.47 43.86 6 38.19 6 38.19.15 36.66.15 36.66 6 30.72 6ZM.81 39.12.81 60.54 2.64 60.54 2.64 51.45 9.48 51.45C14.25 51.45 16.65 49.38 16.65 45.27 16.65 41.16 14.25 39.12 9.51 39.12L.81 39.12ZM2.64 40.74 9.39 40.74C11.22 40.74 12.6 41.13 13.5 41.91 14.34 42.63 14.79 43.74 14.79 45.27 14.79 46.8 14.34 47.94 13.5 48.69 12.6 49.44 11.25 49.83 9.39 49.83L2.64 49.83 2.64 40.74ZM26.1 44.61C24.33 44.61 22.89 44.97 21.78 45.72 20.52 46.5 19.74 47.7 19.44 49.26L21.21 49.38C21.45 48.3 22.02 47.49 22.92 46.92 23.73 46.38 24.75 46.14 26.01 46.14 29.01 46.14 30.51 47.61 30.51 50.55L30.51 51.48 26.55 51.54C24.21 51.54 22.38 51.96 21.12 52.77 19.65 53.61 18.93 54.93 18.93 56.73 18.93 57.99 19.41 59.04 20.4 59.82 21.3 60.57 22.53 60.96 24.03 60.96 25.5 60.96 26.85 60.57 28.11 59.85 29.13 59.25 29.97 58.47 30.6 57.57L30.6 60.54 32.31 60.54 32.31 50.55C32.31 48.75 31.83 47.37 30.93 46.38 29.88 45.18 28.26 44.61 26.1 44.61ZM30.51 52.89 30.51 54.51C30.51 55.71 29.88 56.85 28.65 57.87 27.39 58.95 25.95 59.49 24.39 59.49 23.31 59.49 22.41 59.22 21.75 58.71 21.09 58.2 20.76 57.54 20.76 56.7 20.76 54.24 22.71 52.98 26.64 52.95L30.51 52.89ZM42.6 44.61C41.46 44.61 40.44 44.97 39.6 45.69 38.88 46.26 38.31 47.04 37.89 48L37.89 45.03 36.09 45.03 36.09 60.54 37.89 60.54 37.89 52.35C37.89 50.79 38.28 49.44 39.12 48.3 39.96 47.04 41.1 46.44 42.48 46.44 43.26 46.44 44.04 46.53 44.85 46.77L44.85 44.94C44.25 44.7 43.5 44.61 42.6 44.61ZM53.46 44.61C51.69 44.61 50.25 44.97 49.14 45.72 47.88 46.5 47.1 47.7 46.8 49.26L48.57 49.38C48.81 48.3 49.38 47.49 50.28 46.92 51.09 46.38 52.11 46.14 53.37 46.14 56.37 46.14 57.87 47.61 57.87 50.55L57.87 51.48 53.91 51.54C51.57 51.54 49.74 51.96 48.48 52.77 47.01 53.61 46.29 54.93 46.29 56.73 46.29 57.99 46.77 59.04 47.76 59.82 48.66 60.57 49.89 60.96 51.39 60.96 52.86 60.96 54.21 60.57 55.47 59.85 56.49 59.25 57.33 58.47 57.96 57.57L57.96 60.54 59.67 60.54 59.67 50.55C59.67 48.75 59.19 47.37 58.29 46.38 57.24 45.18 55.62 44.61 53.46 44.61ZM57.87 52.89 57.87 54.51C57.87 55.71 57.24 56.85 56.01 57.87 54.75 58.95 53.31 59.49 51.75 59.49 50.67 59.49 49.77 59.22 49.11 58.71 48.45 58.2 48.12 57.54 48.12 56.7 48.12 54.24 50.07 52.98 54 52.95L57.87 52.89ZM69.75 44.61C67.86 44.61 66.36 45.51 65.25 47.37L65.25 45.03 63.45 45.03 63.45 60.54 65.25 60.54 65.25 51C65.25 49.65 65.64 48.51 66.45 47.58 67.23 46.62 68.19 46.17 69.36 46.17 71.94 46.17 73.23 47.64 73.23 50.64L73.23 60.54 75.06 60.54 75.06 50.67C75.06 49.35 75.42 48.3 76.2 47.46 76.95 46.59 77.88 46.17 79.02 46.17 80.4 46.17 81.45 46.56 82.11 47.34 82.71 48.06 83.01 49.17 83.01 50.64L83.01 60.54 84.81 60.54 84.81 50.4C84.81 48.57 84.33 47.16 83.4 46.14 82.44 45.12 81.12 44.61 79.5 44.61 78.42 44.61 77.46 44.88 76.68 45.42 75.84 45.96 75.15 46.74 74.61 47.79 73.83 45.66 72.21 44.61 69.75 44.61ZM94.86 44.61C92.67 44.61 90.93 45.42 89.61 47.04 88.32 48.6 87.69 50.49 87.69 52.77 87.69 55.23 88.35 57.24 89.7 58.74 90.99 60.21 92.73 60.96 94.92 60.96 96.9 60.96 98.49 60.39 99.75 59.25 100.77 58.29 101.46 57.06 101.82 55.56L99.99 55.56C99.6 56.76 99.06 57.66 98.34 58.29 97.47 59.01 96.33 59.4 94.92 59.4 93.3 59.4 92.04 58.86 91.08 57.78 90.15 56.7 89.64 55.2 89.55 53.31L102.15 53.31C102.06 50.64 101.46 48.57 100.38 47.1 99.15 45.42 97.32 44.61 94.86 44.61ZM94.89 46.17C98.16 46.17 99.96 48.06 100.26 51.84L89.58 51.84C89.73 50.16 90.27 48.81 91.2 47.76 92.13 46.68 93.36 46.17 94.89 46.17ZM108.78 40.02 106.98 40.77 106.98 45.03 103.68 45.03 103.68 46.59 106.98 46.59 106.98 57.09C106.98 58.23 107.19 59.07 107.67 59.61 108.18 60.21 109.05 60.54 110.25 60.54L112.44 60.54 112.44 58.98 110.49 58.98C109.83 58.98 109.38 58.83 109.14 58.56 108.9 58.26 108.78 57.75 108.78 57.09L108.78 46.59 112.83 46.59 112.83 45.03 108.78 45.03 108.78 40.02ZM121.83 44.61C119.64 44.61 117.9 45.42 116.58 47.04 115.29 48.6 114.66 50.49 114.66 52.77 114.66 55.23 115.32 57.24 116.67 58.74 117.96 60.21 119.7 60.96 121.89 60.96 123.87 60.96 125.46 60.39 126.72 59.25 127.74 58.29 128.43 57.06 128.79 55.56L126.96 55.56C126.57 56.76 126.03 57.66 125.31 58.29 124.44 59.01 123.3 59.4 121.89 59.4 120.27 59.4 119.01 58.86 118.05 57.78 117.12 56.7 116.61 55.2 116.52 53.31L129.12 53.31C129.03 50.64 128.43 48.57 127.35 47.1 126.12 45.42 124.29 44.61 121.83 44.61ZM121.86 46.17C125.13 46.17 126.93 48.06 127.23 51.84L116.55 51.84C116.7 50.16 117.24 48.81 118.17 47.76 119.1 46.68 120.33 46.17 121.86 46.17ZM138.51 44.61C137.37 44.61 136.35 44.97 135.51 45.69 134.79 46.26 134.22 47.04 133.8 48L133.8 45.03 132 45.03 132 60.54 133.8 60.54 133.8 52.35C133.8 50.79 134.19 49.44 135.03 48.3 135.87 47.04 137.01 46.44 138.39 46.44 139.17 46.44 139.95 46.53 140.76 46.77L140.76 44.94C140.16 44.7 139.41 44.61 138.51 44.61ZM148.08 44.61C146.46 44.61 145.08 44.97 144 45.72 142.86 46.5 142.32 47.49 142.32 48.75 142.32 50.01 142.89 51 144.09 51.72 144.81 52.17 146.07 52.62 147.87 53.1 149.64 53.55 150.78 53.91 151.32 54.18 152.34 54.69 152.85 55.41 152.85 56.34 152.85 58.38 151.35 59.4 148.35 59.4 146.91 59.4 145.83 59.13 145.11 58.59 144.33 57.99 143.85 57 143.67 55.65L141.9 55.65C142.26 59.19 144.42 60.96 148.41 60.96 152.61 60.96 154.71 59.37 154.71 56.25 154.71 54.93 154.08 53.88 152.85 53.13 152.07 52.65 150.72 52.17 148.83 51.69 147.24 51.27 146.16 50.91 145.56 50.61 144.63 50.13 144.18 49.5 144.18 48.72 144.18 47.94 144.54 47.34 145.26 46.86 145.98 46.38 146.91 46.17 148.05 46.17 149.43 46.17 150.48 46.44 151.2 47.01 151.86 47.52 152.28 48.3 152.49 49.38L154.26 49.38C153.81 46.2 151.74 44.61 148.08 44.61Z" transform="translate(62.38 106.46)"/></g><mask id="b" fill="#fff"><use xlink:href="#a"/></mask><g fill-rule="nonzero" mask="url(#b)"><g transform="translate(16.446 27.46)"><path fill="#E5E5EA" d="M0,9.26806641 L3.52770996,9.26806641 C3.77819824,6.28308105 5.71948242,4.46704102 8.74621582,4.46704102 C11.6685791,4.46704102 13.6724854,6.26220703 13.6724854,8.89233398 C13.6724854,11.0841064 12.7957764,12.3991699 10.3952637,13.9020996 C7.57727051,15.6346436 6.30395508,17.4924316 6.34570312,20.2686768 L6.34570312,22.1682129 L9.9777832,22.1682129 L9.9777832,20.8114014 C9.9777832,18.5987549 10.7501221,17.4506836 13.2967529,15.8851318 C16.1356201,14.1525879 17.5550537,11.7520752 17.5550537,8.70446777 C17.5550537,4.2791748 13.9438477,1.12719727 8.89233398,1.12719727 C3.67382812,1.12719727 0.250488281,4.23742676 0,9.26806641 Z M8.30786133,31.9372559 C9.89428711,31.9372559 11.1676025,30.6221924 11.1676025,28.9731445 C11.1676025,27.3240967 9.89428711,26.0090332 8.30786133,26.0090332 C6.72143555,26.0090332 5.44812012,27.3240967 5.44812012,28.9731445 C5.44812012,30.6221924 6.72143555,31.9372559 8.30786133,31.9372559 Z"/><polygon fill="#E5E5EA" points="31.415 19.058 31.144 19.058 31.144 0 27.595 0 27.595 31.541 31.144 31.541 31.144 23.295 34.275 20.29 41.999 31.541 46.215 31.541 36.801 17.868 45.589 8.892 41.289 8.892"/><path fill="#E5E5EA" d="M67.7362061 25.6959229C67.1099854 27.6789551 65.001709 28.8896484 62.1419678 28.8896484 58.2802734 28.8896484 55.8171387 26.2177734 55.8171387 22.0638428L55.8171387 21.1453857 71.243042 21.1453857 71.243042 18.9327393C71.243042 12.3782959 67.7779541 8.47485352 61.8914795 8.47485352 56.130249 8.47485352 52.3103027 12.3991699 52.3103027 18.3691406L52.3103027 21.7716064C52.3103027 28.2216797 55.9215088 31.9581299 62.1419678 31.9581299 66.9012451 31.9581299 70.4915771 29.432373 71.1804199 25.6959229L67.7362061 25.6959229ZM61.8706055 11.5224609C65.5235596 11.5224609 67.7362061 14.1317139 67.7362061 18.4526367L55.8171387 18.4526367C55.8171387 14.1108398 58.0924072 11.5224609 61.8706055 11.5224609ZM81.7009277 39.5980225C85.8966064 39.5980225 87.7961426 37.9489746 89.7791748 32.3756104L98.3166504 8.89233398 94.5384521 8.89233398 88.213623 27.8459473 87.9422607 27.8459473 81.5965576 8.89233398 77.7348633 8.89233398 86.0635986 31.6867676 85.6669922 32.918335C84.7276611 35.5484619 83.5587158 36.508667 81.4295654 36.508667 81.0955811 36.508667 80.4484863 36.487793 80.177124 36.4251709L80.177124 39.5354004C80.4902344 39.5771484 81.1790771 39.5980225 81.7009277 39.5980225Z"/><polygon fill="#E5E5EA" points="125.849 31.541 125.849 28.305 117.375 28.305 117.375 1.419 113.763 1.419 104.788 7.243 104.788 11.168 113.409 5.594 113.743 5.594 113.743 28.305 104.85 28.305 104.85 31.541"/><path fill="#E5E5EA" d="M151.942017,15.154541 L151.942017,11.7103271 L129.8573,11.7103271 L129.8573,15.154541 L151.942017,15.154541 Z M151.942017,24.6730957 L151.942017,21.2288818 L129.8573,21.2288818 L129.8573,24.6730957 L151.942017,24.6730957 Z"/><polygon fill="#E5E5EA" points="157.098 8.892 165.385 31.541 169.288 31.541 177.554 8.892 173.776 8.892 167.493 27.742 167.222 27.742 160.897 8.892"/><path fill="#E5E5EA" d="M191.456543,31.9372559 C194.754639,31.9372559 197.217773,30.5804443 198.303223,28.1590576 L198.658081,28.1590576 L198.658081,31.5615234 L202.039673,31.5615234 L202.039673,16.052124 C202.039673,11.3345947 198.992065,8.62097168 193.669189,8.62097168 C189.035156,8.62097168 185.52832,11.1049805 185.11084,14.7370605 L188.596802,14.7370605 C189.181274,12.7957764 191.018188,11.6894531 193.627441,11.6894531 C196.779419,11.6894531 198.511963,13.2550049 198.511963,16.0938721 L198.511963,18.1395264 L192.291504,18.4526367 C187.13562,18.723999 184.255005,21.1036377 184.255005,25.1114502 C184.255005,29.2236328 187.13562,31.9372559 191.456543,31.9372559 Z M192.47937,28.8270264 C189.619629,28.8270264 187.845337,27.3658447 187.845337,24.9862061 C187.845337,22.6274414 189.515259,21.2706299 192.68811,21.1245117 L198.511963,20.8531494 L198.511963,23.5250244 C198.511963,26.5517578 195.90271,28.8270264 192.47937,28.8270264 Z"/><polygon fill="#E5E5EA" points="230.073 31.541 230.073 28.597 222.601 28.597 222.601 0 211.37 0 211.37 2.943 219.052 2.943 219.052 28.597 211.308 28.597 211.308 31.541"/><path fill="#E5E5EA" d="M255.873779 8.89233398 252.325195 8.89233398 252.325195 22.230835C252.325195 26.0925293 249.820312 28.7017822 246.083862 28.7017822 242.556152 28.7017822 240.88623 26.7813721 240.88623 22.6900635L240.88623 8.89233398 237.337646 8.89233398 237.337646 23.5876465C237.337646 29.0148926 240.009521 31.9581299 244.935791 31.9581299 248.380005 31.9581299 250.968384 30.3717041 252.179077 27.5537109L252.471313 27.5537109 252.471313 31.5406494 255.873779 31.5406494 255.873779 8.89233398ZM279.148315 25.6959229C278.522095 27.6789551 276.413818 28.8896484 273.554077 28.8896484 269.692383 28.8896484 267.229248 26.2177734 267.229248 22.0638428L267.229248 21.1453857 282.655151 21.1453857 282.655151 18.9327393C282.655151 12.3782959 279.190063 8.47485352 273.303589 8.47485352 267.542358 8.47485352 263.722412 12.3991699 263.722412 18.3691406L263.722412 21.7716064C263.722412 28.2216797 267.333618 31.9581299 273.554077 31.9581299 278.313354 31.9581299 281.903687 29.432373 282.592529 25.6959229L279.148315 25.6959229ZM273.282715 11.5224609C276.935669 11.5224609 279.148315 14.1317139 279.148315 18.4526367L267.229248 18.4526367C267.229248 14.1108398 269.504517 11.5224609 273.282715 11.5224609Z"/><polygon fill="#E5E5EA" points="310.835 31.541 310.835 28.305 302.36 28.305 302.36 1.419 298.749 1.419 289.773 7.243 289.773 11.168 298.394 5.594 298.728 5.594 298.728 28.305 289.836 28.305 289.836 31.541"/><path fill="#E5E5EA" d="M333.984375,31.5406494 L338.117432,31.5406494 L333.462524,25.8837891 C334.881958,23.3997803 335.612549,20.3521729 335.737793,16.6574707 L335.737793,16.3443604 L332.71106,16.3443604 L332.71106,16.5322266 C332.627563,19.3293457 332.230957,21.4793701 331.458618,23.2954102 L324.966797,15.133667 C329.099854,12.4200439 330.581909,10.2700195 330.581909,7.24328613 C330.581909,3.42333984 327.847412,0.793212891 323.923096,0.793212891 C319.957031,0.793212891 317.180786,3.42333984 317.180786,7.24328613 C317.180786,9.41418457 318.266235,11.7938232 320.562378,14.5909424 L319.602173,15.2380371 C315.928345,17.6385498 314.133179,20.4356689 314.133179,23.7337646 C314.133179,28.6391602 317.827881,32.083374 323.109009,32.083374 C326.365356,32.083374 329.204224,30.8518066 331.583862,28.4512939 L333.984375,31.5406494 Z M323.902222,3.71557617 C325.947876,3.71557617 327.492554,5.23937988 327.492554,7.28503418 C327.492554,9.49768066 326.448853,10.9379883 323.192505,13.0880127 C321.105103,10.5831299 320.31189,8.97583008 320.31189,7.28503418 C320.31189,5.23937988 321.856567,3.71557617 323.902222,3.71557617 Z M321.501709,17.4298096 L322.33667,16.887085 L329.767822,26.1760254 C328.244019,27.9920654 325.927002,28.9731445 323.234253,28.9731445 C319.790039,28.9731445 317.473022,26.8022461 317.473022,23.5667725 C317.473022,21.1036377 318.746338,19.1414795 321.501709,17.4298096 Z"/><polygon fill="#E5E5EA" points="348.534 19.058 348.262 19.058 348.262 0 344.714 0 344.714 31.541 348.262 31.541 348.262 23.295 351.393 20.29 359.117 31.541 363.333 31.541 353.919 17.868 362.707 8.892 358.407 8.892"/><path fill="#E5E5EA" d="M384.85437 25.6959229C384.228149 27.6789551 382.119873 28.8896484 379.260132 28.8896484 375.398438 28.8896484 372.935303 26.2177734 372.935303 22.0638428L372.935303 21.1453857 388.361206 21.1453857 388.361206 18.9327393C388.361206 12.3782959 384.896118 8.47485352 379.009644 8.47485352 373.248413 8.47485352 369.428467 12.3991699 369.428467 18.3691406L369.428467 21.7716064C369.428467 28.2216797 373.039673 31.9581299 379.260132 31.9581299 384.019409 31.9581299 387.609741 29.432373 388.298584 25.6959229L384.85437 25.6959229ZM378.98877 11.5224609C382.641724 11.5224609 384.85437 14.1317139 384.85437 18.4526367L372.935303 18.4526367C372.935303 14.1108398 375.210571 11.5224609 378.98877 11.5224609ZM398.819092 39.5980225C403.014771 39.5980225 404.914307 37.9489746 406.897339 32.3756104L415.434814 8.89233398 411.656616 8.89233398 405.331787 27.8459473 405.060425 27.8459473 398.714722 8.89233398 394.853027 8.89233398 403.181763 31.6867676 402.785156 32.918335C401.845825 35.5484619 400.67688 36.508667 398.547729 36.508667 398.213745 36.508667 397.56665 36.487793 397.295288 36.4251709L397.295288 39.5354004C397.608398 39.5771484 398.297241 39.5980225 398.819092 39.5980225ZM421.989258 9.89428711 421.989258 10.0195312 425.537842 10.0195312 425.537842 9.89428711C425.537842 6.34570312 427.833984 4.02868652 431.299072 4.02868652 434.805908 4.02868652 437.081177 6.15783691 437.081177 9.39331055 437.081177 11.7729492 436.16272 13.380249 432.342773 17.6594238L422.15625 28.9940186 422.15625 31.5406494 441.214233 31.5406494 441.214233 28.2008057 427.416504 28.2008057 427.416504 27.8459473 434.513672 20.1225586C439.314697 14.8831787 440.734131 12.3782959 440.734131 9.24719238 440.734131 4.21655273 436.935059.793212891 431.403442.793212891 425.913574.793212891 421.989258 4.59228516 421.989258 9.89428711ZM469.060181 15.154541 469.060181 11.7103271 446.975464 11.7103271 446.975464 15.154541 469.060181 15.154541ZM469.060181 24.6730957 469.060181 21.2288818 446.975464 21.2288818 446.975464 24.6730957 469.060181 24.6730957Z"/><polygon fill="#E5E5EA" points="474.216 8.892 482.503 31.541 486.406 31.541 494.673 8.892 490.894 8.892 484.611 27.742 484.34 27.742 478.015 8.892"/><path fill="#E5E5EA" d="M508.574707,31.9372559 C511.872803,31.9372559 514.335938,30.5804443 515.421387,28.1590576 L515.776245,28.1590576 L515.776245,31.5615234 L519.157837,31.5615234 L519.157837,16.052124 C519.157837,11.3345947 516.110229,8.62097168 510.787354,8.62097168 C506.15332,8.62097168 502.646484,11.1049805 502.229004,14.7370605 L505.714966,14.7370605 C506.299438,12.7957764 508.136353,11.6894531 510.745605,11.6894531 C513.897583,11.6894531 515.630127,13.2550049 515.630127,16.0938721 L515.630127,18.1395264 L509.409668,18.4526367 C504.253784,18.723999 501.373169,21.1036377 501.373169,25.1114502 C501.373169,29.2236328 504.253784,31.9372559 508.574707,31.9372559 Z M509.597534,28.8270264 C506.737793,28.8270264 504.963501,27.3658447 504.963501,24.9862061 C504.963501,22.6274414 506.633423,21.2706299 509.806274,21.1245117 L515.630127,20.8531494 L515.630127,23.5250244 C515.630127,26.5517578 513.020874,28.8270264 509.597534,28.8270264 Z"/><polygon fill="#E5E5EA" points="547.192 31.541 547.192 28.597 539.719 28.597 539.719 0 528.489 0 528.489 2.943 536.17 2.943 536.17 28.597 528.426 28.597 528.426 31.541"/><path fill="#E5E5EA" d="M572.991943 8.89233398 569.443359 8.89233398 569.443359 22.230835C569.443359 26.0925293 566.938477 28.7017822 563.202026 28.7017822 559.674316 28.7017822 558.004395 26.7813721 558.004395 22.6900635L558.004395 8.89233398 554.455811 8.89233398 554.455811 23.5876465C554.455811 29.0148926 557.127686 31.9581299 562.053955 31.9581299 565.498169 31.9581299 568.086548 30.3717041 569.297241 27.5537109L569.589478 27.5537109 569.589478 31.5406494 572.991943 31.5406494 572.991943 8.89233398ZM596.266479 25.6959229C595.640259 27.6789551 593.531982 28.8896484 590.672241 28.8896484 586.810547 28.8896484 584.347412 26.2177734 584.347412 22.0638428L584.347412 21.1453857 599.773315 21.1453857 599.773315 18.9327393C599.773315 12.3782959 596.308228 8.47485352 590.421753 8.47485352 584.660522 8.47485352 580.840576 12.3991699 580.840576 18.3691406L580.840576 21.7716064C580.840576 28.2216797 584.451782 31.9581299 590.672241 31.9581299 595.431519 31.9581299 599.021851 29.432373 599.710693 25.6959229L596.266479 25.6959229ZM590.400879 11.5224609C594.053833 11.5224609 596.266479 14.1317139 596.266479 18.4526367L584.347412 18.4526367C584.347412 14.1108398 586.622681 11.5224609 590.400879 11.5224609ZM606.974854 9.89428711 606.974854 10.0195312 610.523438 10.0195312 610.523438 9.89428711C610.523438 6.34570312 612.81958 4.02868652 616.284668 4.02868652 619.791504 4.02868652 622.066772 6.15783691 622.066772 9.39331055 622.066772 11.7729492 621.148315 13.380249 617.328369 17.6594238L607.141846 28.9940186 607.141846 31.5406494 626.199829 31.5406494 626.199829 28.2008057 612.4021 28.2008057 612.4021 27.8459473 619.499268 20.1225586C624.300293 14.8831787 625.719727 12.3782959 625.719727 9.24719238 625.719727 4.21655273 621.920654.793212891 616.389038.793212891 610.89917.793212891 606.974854 4.59228516 606.974854 9.89428711Z"/><path fill="#48484A" d="M654.108398 12.7749023 654.734619 9.7064209 650.351074 9.7064209 652.020996 1.41943359 649.036011 1.41943359 647.366089 9.7064209 641.208252 9.7064209 642.8573 1.41943359 639.872314 1.41943359 638.223267 9.7064209 633.839722 9.7064209 633.234375 12.7749023 637.61792 12.7749023 636.240234 19.8511963 631.856689 19.8511963 631.209595 22.9614258 635.59314 22.9614258 633.88147 31.5406494 636.866455 31.5406494 638.557251 22.9614258 644.735962 22.9614258 643.024292 31.5406494 646.009277 31.5406494 647.720947 22.9614258 652.104492 22.9614258 652.709839 19.8511963 648.326294 19.8511963 649.724854 12.7749023 654.108398 12.7749023ZM640.540283 12.7122803 646.80249 12.7122803 645.383057 19.9346924 639.141724 19.9346924 640.540283 12.7122803ZM659.118164 23.5250244C659.431274 28.8687744 663.501709 32.1668701 669.722168 32.1668701 676.026123 32.1668701 680.096558 28.7226562 680.096558 23.3162842 680.096558 18.7866211 677.633423 16.2399902 671.788696 14.7996826L669.158569 14.1317139C665.234253 13.1506348 663.564331 11.6477051 663.564331 9.03845215 663.564331 5.9699707 665.881348 4.13305664 669.743042 4.13305664 673.291626 4.13305664 675.587769 5.9699707 675.963501 9.0802002L679.553833 9.0802002C679.303345 4.07043457 675.399902.793212891 669.722168.793212891 663.710449.793212891 659.848755 4.11218262 659.848755 9.24719238 659.848755 13.6098633 662.374512 16.2608643 667.96875 17.6802979L670.557129 18.3273926C674.627563 19.3293457 676.380981 20.8948975 676.380981 23.5041504 676.380981 26.739624 673.750854 28.8270264 669.743042 28.8270264 665.735229 28.8270264 663.084229 26.8231201 662.708496 23.5250244L659.118164 23.5250244ZM695.856445 31.9581299C701.84729 31.9581299 705.667236 28.0546875 705.667236 21.9385986L705.667236 18.5152588C705.667236 12.3991699 701.84729 8.49572754 695.856445 8.49572754 689.865601 8.49572754 686.045654 12.3991699 686.045654 18.5152588L686.045654 21.9385986C686.045654 28.0546875 689.865601 31.9581299 695.856445 31.9581299ZM695.856445 11.6268311C699.739014 11.6268311 702.1604 14.3822021 702.1604 18.8283691L702.1604 21.6046143C702.1604 26.0716553 699.739014 28.8061523 695.856445 28.8061523 691.973877 28.8061523 689.55249 26.0716553 689.55249 21.6046143L689.55249 18.8283691C689.55249 14.3822021 691.973877 11.6268311 695.856445 11.6268311ZM733.200073 14.8623047C733.200073 10.666626 731.551025 8.47485352 728.399048 8.47485352 726.123779 8.47485352 724.307739 9.85253906 723.723267 12.0234375L723.347534 12.0234375C722.867432 9.78991699 721.364502 8.47485352 719.235352 8.47485352 717.106201 8.47485352 715.478027 9.81079102 714.914429 12.0860596L714.538696 12.0860596 714.538696 8.89233398 711.365845 8.89233398 711.365845 31.5406494 714.55957 31.5406494 714.55957 16.2608643C714.55957 13.4428711 715.812012 11.7103271 717.815918 11.7103271 719.736328 11.7103271 720.738281 13.1506348 720.738281 15.8851318L720.738281 31.5406494 723.911133 31.5406494 723.911133 16.2608643C723.911133 13.4428711 725.121826 11.7103271 727.104858 11.7103271 729.004395 11.7103271 730.006348 13.1506348 730.006348 15.9060059L730.006348 31.5406494 733.200073 31.5406494 733.200073 14.8623047ZM754.825562 25.6959229C754.199341 27.6789551 752.091064 28.8896484 749.231323 28.8896484 745.369629 28.8896484 742.906494 26.2177734 742.906494 22.0638428L742.906494 21.1453857 758.332397 21.1453857 758.332397 18.9327393C758.332397 12.3782959 754.86731 8.47485352 748.980835 8.47485352 743.219604 8.47485352 739.399658 12.3991699 739.399658 18.3691406L739.399658 21.7716064C739.399658 28.2216797 743.010864 31.9581299 749.231323 31.9581299 753.990601 31.9581299 757.580933 29.432373 758.269775 25.6959229L754.825562 25.6959229ZM748.959961 11.5224609C752.612915 11.5224609 754.825562 14.1317139 754.825562 18.4526367L742.906494 18.4526367C742.906494 14.1108398 745.181763 11.5224609 748.959961 11.5224609Z"/></g></g><rect width="100" height="200" x="700" fill="url(#c)"/></g></svg>