<svg xmlns="http://www.w3.org/2000/svg" width="1300" height="480" viewBox="0 0 1300 480"><g fill="none" fill-rule="evenodd"><rect width="1300" height="480" fill="#1C1C1E"/><g transform="translate(26 90)"><g transform="translate(606)"><path fill="#E5E5EA" fill-rule="nonzero" d="M.09 5.13.09 6.69 9.42 6.69 9.42 5.13 5.76 5.13C5.34 3.33 4.86 1.74 4.38.33L2.76.6C3.3 1.98 3.78 3.48 4.2 5.13L.09 5.13ZM2.16 8.76.78 9.21C1.56 12.99 2.19 16.92 2.73 21L4.05 20.67C3.51 16.2 2.88 12.24 2.16 8.76ZM9.45 21.09C8.55 21.45 7.62 21.78 6.72 22.08 7.5 17.94 8.1 13.41 8.49 8.49L7.02 8.28C6.66 13.32 6.09 18.09 5.28 22.53 3.57 23.01 1.8 23.43 0 23.79L.42 25.38C3.66 24.66 6.66 23.73 9.45 22.65L9.45 21.09ZM24 5.94 19.38 5.94 19.38 0 17.76 0 17.76 5.94 13.2 5.94 13.2 1.2 11.61 1.2 11.61 7.41 25.59 7.41 25.59 1.2 24 1.2 24 5.94ZM10.2 10.32 10.2 11.88 17.52 11.88C17.31 13.02 16.98 14.1 16.53 15.15L11.19 15.15 11.19 27.21 12.69 27.21 12.69 16.65 15.84 16.65 15.84 26.79 17.25 26.79 17.25 16.65 20.13 16.65 20.13 26.79 21.51 26.79 21.51 16.65 24.75 16.65 24.75 24.81C24.75 25.47 24.51 25.8 24.03 25.8L22.74 25.74 23.16 27.21 24.51 27.21C25.62 27.21 26.19 26.49 26.19 25.11L26.19 15.15 18.09 15.15C18.51 14.13 18.87 13.02 19.11 11.88L27.21 11.88 27.21 10.32 10.2 10.32ZM54.39 3.69 33.06 3.69 33.06 26.82 34.71 26.82 34.71 24.78 52.74 24.78 52.74 26.82 54.39 26.82 54.39 3.69ZM34.71 23.19 34.71 5.28 52.74 5.28 52.74 23.19 34.71 23.19ZM.9 38.97.9 60.39 2.73 60.39 2.73 51.3 9.57 51.3C14.34 51.3 16.74 49.23 16.74 45.12 16.74 41.01 14.34 38.97 9.6 38.97L.9 38.97ZM2.73 40.59 9.48 40.59C11.31 40.59 12.69 40.98 13.59 41.76 14.43 42.48 14.88 43.59 14.88 45.12 14.88 46.65 14.43 47.79 13.59 48.54 12.69 49.29 11.34 49.68 9.48 49.68L2.73 49.68 2.73 40.59ZM26.4 44.46C24.12 44.46 22.29 45.27 20.94 46.92 19.65 48.45 19.02 50.37 19.02 52.65 19.02 54.93 19.65 56.82 20.91 58.35 22.29 59.97 24.12 60.81 26.4 60.81 28.68 60.81 30.51 59.97 31.89 58.35 33.15 56.82 33.78 54.93 33.78 52.65 33.78 50.37 33.15 48.45 31.89 46.92 30.51 45.27 28.68 44.46 26.4 44.46ZM26.4 46.02C28.17 46.02 29.58 46.68 30.6 48.06 31.5 49.26 31.98 50.79 31.98 52.65 31.98 54.45 31.5 55.98 30.6 57.21 29.58 58.56 28.17 59.25 26.4 59.25 24.63 59.25 23.25 58.56 22.23 57.21 21.3 56.01 20.85 54.48 20.85 52.65 20.85 50.79 21.3 49.26 22.23 48.06 23.25 46.68 24.63 46.02 26.4 46.02ZM43.47 44.46C42.33 44.46 41.31 44.82 40.47 45.54 39.75 46.11 39.18 46.89 38.76 47.85L38.76 44.88 36.96 44.88 36.96 60.39 38.76 60.39 38.76 52.2C38.76 50.64 39.15 49.29 39.99 48.15 40.83 46.89 41.97 46.29 43.35 46.29 44.13 46.29 44.91 46.38 45.72 46.62L45.72 44.79C45.12 44.55 44.37 44.46 43.47 44.46ZM51.51 39.87 49.71 40.62 49.71 44.88 46.41 44.88 46.41 46.44 49.71 46.44 49.71 56.94C49.71 58.08 49.92 58.92 50.4 59.46 50.91 60.06 51.78 60.39 52.98 60.39L55.17 60.39 55.17 58.83 53.22 58.83C52.56 58.83 52.11 58.68 51.87 58.41 51.63 58.11 51.51 57.6 51.51 56.94L51.51 46.44 55.56 46.44 55.56 44.88 51.51 44.88 51.51 39.87Z" transform="translate(52.29 106.61)"/><path fill="#FFD60A" d="M7.6916556,74 C5.01709938,74 4.04724067,73.7215232 3.06946289,73.1986019 C2.09168511,72.6756806 1.32431939,71.9083149 0.801398111,70.9305371 C0.278476833,69.9527593 1.2037061e-16,68.9829006 -2.07168062e-16,66.3083444 L2.07168062e-16,7.6916556 C-1.2037061e-16,5.01709938 0.278476833,4.04724067 0.801398111,3.06946289 C1.32431939,2.09168511 2.09168511,1.32431939 3.06946289,0.801398111 C4.04724067,0.278476833 5.01709938,1.80555915e-16 7.6916556,-3.10752092e-16 L47.3083444,3.10752092e-16 C49.9829006,-1.80555915e-16 50.9527593,0.278476833 51.9305371,0.801398111 C52.9083149,1.32431939 53.6756806,2.09168511 54.1986019,3.06946289 C54.7215232,4.04724067 55,5.01709938 55,7.6916556 L55,66.3083444 C55,68.9829006 54.7215232,69.9527593 54.1986019,70.9305371 C53.6756806,71.9083149 52.9083149,72.6756806 51.9305371,73.1986019 C50.9527593,73.7215232 49.9829006,74 47.3083444,74 L16,74 L16,116 L21.999,116 L22,104 L46,119 L22,134 L21.999,122 L10,122 L10,74 L7.6916556,74 Z" opacity=".5"/></g><path fill="#E5E5EA" fill-rule="nonzero" d="M1.14 4.68 1.14 6.27 9.63 6.27C9.6 7.29 9.54 8.85 9.45 10.98 9.27 13.86 8.7 16.47 7.68 18.81 6.57 21.15 4.41 23.67 1.23 26.37L2.43 27.51C5.01 25.38 7.08 23.07 8.58 20.55 9.66 18.48 10.38 16.2 10.74 13.71L21.78 13.71C21.78 17.88 21.69 20.67 21.51 22.11 21.15 24.45 20.1 25.68 18.36 25.77 17.34 25.77 16.08 25.71 14.58 25.65L15.06 27.15C16.41 27.21 17.58 27.24 18.54 27.24 20.91 27.15 22.35 25.77 22.86 23.07 23.19 21.33 23.37 17.7 23.43 12.15L10.92 12.15C10.92 12.03 10.95 11.94 10.95 11.85 11.1 9.36 11.19 7.5 11.25 6.27L27.18 6.27 27.18 4.68 15.9 4.68C15.18 2.88 14.37 1.32 13.5.03L11.94.6C12.84 1.86 13.62 3.24 14.25 4.68L1.14 4.68ZM42.03 4.83C41.37 5.73 40.71 6.66 40.02 7.62L32.16 7.62 32.16 8.97 38.97 8.97C38.25 9.87 37.47 10.77 36.69 11.67 38.88 12.09 41.07 12.57 43.26 13.14 40.5 14.19 36.72 14.73 31.95 14.73L32.85 16.05C38.01 15.99 42.18 15.21 45.36 13.68 48.42 14.49 51.51 15.45 54.57 16.56L55.5 15.3C52.59 14.31 49.77 13.47 47.01 12.75 48.36 11.82 49.62 10.56 50.79 8.97L55.92 8.97 55.92 7.62 41.82 7.62C42.36 6.93 42.93 6.15 43.53 5.31L42.03 4.83ZM45.12 12.27C43.08 11.73 41.07 11.31 39.09 10.95 39.6 10.38 40.17 9.72 40.77 8.97L49.05 8.97C48.06 10.23 46.74 11.31 45.12 12.27ZM55.95 2.64 45.03 2.64C44.64 1.65 44.25.78 43.83 5.68434189e-14L42.12.3C42.6.99 43.02 1.77 43.44 2.64L32.07 2.64 32.07 6.63 33.6 6.63 33.6 4.02 54.42 4.02 54.42 6.63 55.95 6.63 55.95 2.64ZM31.23 18.12 31.23 19.56 41.67 19.56C39.87 21.66 36.3 23.55 30.96 25.2L31.83 26.64C37.44 24.66 41.22 22.32 43.14 19.56L43.26 19.56 43.26 27.45 44.88 27.45 44.88 19.56 44.97 19.56C47.16 22.41 51 24.69 56.46 26.43L57.15 25.02C52.23 23.7 48.69 21.87 46.47 19.56L56.82 19.56 56.82 18.12 44.88 18.12 44.88 15.63 43.26 15.63 43.26 18.12 31.23 18.12ZM8.19 38.7C6.03 38.7 4.23 39.15 2.85 40.08 1.29 41.07.54 42.48.54 44.34.54 46.08 1.35 47.43 3 48.36 3.72 48.78 5.37 49.35 7.92 50.07 10.35 50.73 11.91 51.3 12.63 51.72 14.07 52.53 14.82 53.67 14.82 55.14 14.82 56.4 14.22 57.42 13.08 58.17 11.91 58.89 10.38 59.28 8.49 59.28 6.51 59.28 4.98 58.83 3.9 57.96 2.7 56.97 2.01 55.47 1.8 53.46L0 53.46C.18 56.04 1.08 57.99 2.7 59.28 4.11 60.39 6.06 60.96 8.52 60.96 10.95 60.96 12.9 60.45 14.37 59.43 15.9 58.35 16.68 56.88 16.68 55.05 16.68 53.1 15.78 51.6 14.01 50.55 13.05 49.95 11.22 49.29 8.49 48.51 6.39 47.91 5.01 47.43 4.38 47.13 3.03 46.41 2.37 45.48 2.37 44.28 2.37 42.93 2.91 41.91 4.05 41.25 5.04 40.65 6.39 40.35 8.13 40.35 9.99 40.35 11.43 40.77 12.45 41.64 13.47 42.51 14.1 43.77 14.34 45.45L16.17 45.45C15.99 43.23 15.18 41.55 13.77 40.41 12.39 39.27 10.53 38.7 8.19 38.7ZM26.1 44.61C23.85 44.61 22.08 45.42 20.79 47.07 19.56 48.6 18.96 50.55 18.96 52.89 18.96 55.26 19.53 57.18 20.73 58.62 21.99 60.18 23.79 60.96 26.07 60.96 27.93 60.96 29.46 60.45 30.6 59.46 31.77 58.44 32.52 56.94 32.82 54.99L31.05 54.99C30.6 57.93 28.95 59.4 26.07 59.4 24.36 59.4 23.04 58.8 22.14 57.63 21.24 56.46 20.79 54.87 20.79 52.89 20.79 50.88 21.24 49.26 22.2 48.06 23.16 46.8 24.48 46.17 26.1 46.17 27.45 46.17 28.56 46.5 29.4 47.16 30.24 47.82 30.75 48.78 30.96 50.1L32.76 50.1C32.52 48.24 31.8 46.86 30.63 45.96 29.46 45.06 27.96 44.61 26.1 44.61ZM35.7 38.7 35.7 60.54 37.53 60.54 37.53 51.57C37.53 50.04 37.95 48.75 38.85 47.73 39.75 46.68 40.83 46.17 42.12 46.17 43.5 46.17 44.55 46.56 45.33 47.37 46.08 48.21 46.47 49.38 46.47 50.88L46.47 60.54 48.27 60.54 48.27 50.64C48.27 48.72 47.76 47.22 46.77 46.17 45.78 45.12 44.4 44.61 42.63 44.61 41.55 44.61 40.56 44.88 39.69 45.42 38.79 45.99 38.07 46.8 37.53 47.85L37.53 38.7 35.7 38.7ZM58.32 44.61C56.13 44.61 54.39 45.42 53.07 47.04 51.78 48.6 51.15 50.49 51.15 52.77 51.15 55.23 51.81 57.24 53.16 58.74 54.45 60.21 56.19 60.96 58.38 60.96 60.36 60.96 61.95 60.39 63.21 59.25 64.23 58.29 64.92 57.06 65.28 55.56L63.45 55.56C63.06 56.76 62.52 57.66 61.8 58.29 60.93 59.01 59.79 59.4 58.38 59.4 56.76 59.4 55.5 58.86 54.54 57.78 53.61 56.7 53.1 55.2 53.01 53.31L65.61 53.31C65.52 50.64 64.92 48.57 63.84 47.1 62.61 45.42 60.78 44.61 58.32 44.61ZM58.35 46.17C61.62 46.17 63.42 48.06 63.72 51.84L53.04 51.84C53.19 50.16 53.73 48.81 54.66 47.76 55.59 46.68 56.82 46.17 58.35 46.17ZM74.79 44.61C72.9 44.61 71.4 45.51 70.29 47.37L70.29 45.03 68.49 45.03 68.49 60.54 70.29 60.54 70.29 51C70.29 49.65 70.68 48.51 71.49 47.58 72.27 46.62 73.23 46.17 74.4 46.17 76.98 46.17 78.27 47.64 78.27 50.64L78.27 60.54 80.1 60.54 80.1 50.67C80.1 49.35 80.46 48.3 81.24 47.46 81.99 46.59 82.92 46.17 84.06 46.17 85.44 46.17 86.49 46.56 87.15 47.34 87.75 48.06 88.05 49.17 88.05 50.64L88.05 60.54 89.85 60.54 89.85 50.4C89.85 48.57 89.37 47.16 88.44 46.14 87.48 45.12 86.16 44.61 84.54 44.61 83.46 44.61 82.5 44.88 81.72 45.42 80.88 45.96 80.19 46.74 79.65 47.79 78.87 45.66 77.25 44.61 74.79 44.61ZM99.9 44.61C97.71 44.61 95.97 45.42 94.65 47.04 93.36 48.6 92.73 50.49 92.73 52.77 92.73 55.23 93.39 57.24 94.74 58.74 96.03 60.21 97.77 60.96 99.96 60.96 101.94 60.96 103.53 60.39 104.79 59.25 105.81 58.29 106.5 57.06 106.86 55.56L105.03 55.56C104.64 56.76 104.1 57.66 103.38 58.29 102.51 59.01 101.37 59.4 99.96 59.4 98.34 59.4 97.08 58.86 96.12 57.78 95.19 56.7 94.68 55.2 94.59 53.31L107.19 53.31C107.1 50.64 106.5 48.57 105.42 47.1 104.19 45.42 102.36 44.61 99.9 44.61ZM99.93 46.17C103.2 46.17 105 48.06 105.3 51.84L94.62 51.84C94.77 50.16 95.31 48.81 96.24 47.76 97.17 46.68 98.4 46.17 99.93 46.17Z" transform="translate(60.99 106.46)"/><path fill="#30D158" d="M7.6916556,74 C5.01709938,74 4.04724067,73.7215232 3.06946289,73.1986019 C2.09168511,72.6756806 1.32431939,71.9083149 0.801398111,70.9305371 C0.278476833,69.9527593 1.2037061e-16,68.9829006 -2.07168062e-16,66.3083444 L2.07168062e-16,7.6916556 C-1.2037061e-16,5.01709938 0.278476833,4.04724067 0.801398111,3.06946289 C1.32431939,2.09168511 2.09168511,1.32431939 3.06946289,0.801398111 C4.04724067,0.278476833 5.01709938,1.80555915e-16 7.6916556,-3.10752092e-16 L103.308344,3.10752092e-16 C105.982901,-1.80555915e-16 106.952759,0.278476833 107.930537,0.801398111 C108.908315,1.32431939 109.675681,2.09168511 110.198602,3.06946289 C110.721523,4.04724067 111,5.01709938 111,7.6916556 L111,66.3083444 C111,68.9829006 110.721523,69.9527593 110.198602,70.9305371 C109.675681,71.9083149 108.908315,72.6756806 107.930537,73.1986019 C106.952759,73.7215232 105.982901,74 103.308344,74 L16,74 L16,116 L31.999,116 L32,104 L56,119 L32,134 L31.999,122 L10,122 L10,74 L7.6916556,74 Z" opacity=".5"/><g transform="translate(665)"><path fill="#FF9F0A" d="M7.6916556,74 C5.01709938,74 4.04724067,73.7215232 3.06946289,73.1986019 C2.09168511,72.6756806 1.32431939,71.9083149 0.801398111,70.9305371 C0.278476833,69.9527593 1.2037061e-16,68.9829006 -2.07168062e-16,66.3083444 L2.07168062e-16,7.6916556 C-1.2037061e-16,5.01709938 0.278476833,4.04724067 0.801398111,3.06946289 C1.32431939,2.09168511 2.09168511,1.32431939 3.06946289,0.801398111 C4.04724067,0.278476833 5.01709938,1.80555915e-16 7.6916556,-3.10752092e-16 L521.308344,3.10752092e-16 C523.982901,-1.80555915e-16 524.952759,0.278476833 525.930537,0.801398111 C526.908315,1.32431939 527.675681,2.09168511 528.198602,3.06946289 C528.721523,4.04724067 529,5.01709938 529,7.6916556 L529,66.3083444 C529,68.9829006 528.721523,69.9527593 528.198602,70.9305371 C527.675681,71.9083149 526.908315,72.6756806 525.930537,73.1986019 C524.952759,73.7215232 523.982901,74 521.308344,74 L66,74 L66,116 L81.999,116 L82,104 L106,119 L82,134 L81.999,122 L60,122 L60,74 L7.6916556,74 Z" opacity=".5"/><path fill="#E5E5EA" fill-rule="nonzero" d="M1.32.87.48 2.1C2.16 2.61 3.81 3.33 5.4 4.29L6.27 2.94C4.77 2.13 3.12 1.44 1.32.87ZM11.31 0C10.59 2.16 9.21 4.02 7.14 5.52L8.13 6.81C9.33 5.91 10.32 4.89 11.13 3.75L15.51 3.75C15.12 5.61 14.34 7.08 13.14 8.16 11.79 9.36 9.6 10.26 6.57 10.92L7.2 12.39C10.5 11.61 12.9 10.53 14.37 9.15 14.91 8.61 15.39 7.98 15.81 7.32 17.61 9.84 20.79 11.55 25.29 12.45L25.86 11.04C21.18 10.14 18.06 8.43 16.44 5.94 16.68 5.28 16.89 4.53 17.04 3.75L22.68 3.75C22.32 5.01 21.87 6.18 21.3 7.2L22.86 7.65C23.49 6.24 24 4.8 24.36 3.3L24.36 2.28 12.03 2.28C12.36 1.62 12.66.93 12.9.18L11.31 0ZM22.32 13.44 3.3 13.44 3.3 22.53 4.95 22.53 4.95 14.97 20.67 14.97 20.67 22.35 22.32 22.35 22.32 13.44ZM12.21 16.38C11.97 19.62 11.13 21.9 9.75 23.28 8.19 24.75 5.01 25.62.21 25.89L.87 27.36C6.12 26.94 9.54 25.89 11.1 24.24 12.54 22.89 13.44 20.31 13.86 16.53L12.21 16.38ZM5.7 6.45C4.17 8.01 2.28 9.45 0 10.8L1.08 12.03C3.3 10.65 5.16 9.15 6.66 7.56L5.7 6.45ZM14.64 22.35 13.8 23.58C17.43 24.54 20.97 25.86 24.42 27.54L25.29 26.19C22.08 24.66 18.54 23.37 14.64 22.35ZM31.14.78 30.03 1.83C32.31 3.48 34.11 5.04 35.43 6.51L36.54 5.4C35.1 3.84 33.3 2.31 31.14.78ZM30.6 8.13 29.49 9.18C31.62 10.77 33.3 12.27 34.53 13.68L35.64 12.57C34.29 11.07 32.61 9.6 30.6 8.13ZM34.53 16.11C33.21 19.71 31.62 23.25 29.82 26.67L31.35 27.33C33.03 24.03 34.56 20.46 35.94 16.68L34.53 16.11ZM42.33 6.12 42.33 16.32 47.67 16.32 47.67 24.84C47.67 25.59 47.28 25.98 46.56 25.98 45.81 25.98 45.03 25.92 44.25 25.86L44.58 27.36 47.1 27.36C48.48 27.36 49.2 26.64 49.2 25.2L49.2 16.32 54.36 16.32 54.36 6.12 48.27 6.12C48.69 5.1 48.99 4.02 49.23 2.91L56.01 2.91 56.01 1.44 38.28 1.44 38.28 12.33C38.19 18.27 37.17 22.95 35.22 26.31L36.45 27.39C38.61 23.61 39.72 18.57 39.84 12.33L39.84 2.91 47.7 2.91C47.52 4.02 47.19 5.1 46.77 6.12L42.33 6.12ZM52.89 14.97 43.8 14.97 43.8 11.88 52.89 11.88 52.89 14.97ZM43.8 10.59 43.8 7.44 52.89 7.44 52.89 10.59 43.8 10.59ZM43.29 18.69C42.6 21.06 41.52 23.19 40.08 25.05L41.4 25.89C42.87 23.97 44.01 21.66 44.79 18.99L43.29 18.69ZM52.98 18.57 51.6 19.02C52.8 21 53.94 23.28 54.96 25.86L56.34 25.26C55.38 22.89 54.27 20.67 52.98 18.57ZM60.81 1.41 60.81 10.41 65.04 10.41 65.04 23.97C64.2 24.21 63.33 24.42 62.43 24.66L62.43 13.83 60.93 13.83 60.93 25.05C60.36 25.17 59.79 25.32 59.25 25.44L59.67 27.03C63.87 26.01 67.53 24.9 70.65 23.73L70.65 22.11C69.33 22.59 67.98 23.07 66.57 23.52L66.57 17.25 69.93 17.25 69.93 15.69 66.57 15.69 66.57 10.41 69.63 10.41 69.63 1.41 60.81 1.41ZM68.07 8.85 62.37 8.85 62.37 2.97 68.07 2.97 68.07 8.85ZM84.06 16.44 72.6 16.44 72.6 27.33 74.16 27.33 74.16 25.92 82.5 25.92 82.5 27.33 84.06 27.33 84.06 16.44ZM74.16 24.42 74.16 17.94 82.5 17.94 82.5 24.42 74.16 24.42ZM75.69 0C74.73 3.12 72.9 5.79 70.2 7.95L71.19 9.21C72.21 8.37 73.14 7.44 73.98 6.45 74.82 8.01 75.84 9.45 77.07 10.74 75.06 12.36 72.63 13.77 69.78 14.97L70.8 16.29C73.68 15.06 76.14 13.59 78.21 11.85 80.28 13.74 82.86 15.18 85.92 16.17L86.85 14.85C83.91 13.92 81.39 12.57 79.35 10.83 81.39 8.82 82.98 6.51 84.09 3.93L84.09 2.7 76.35 2.7C76.71 1.92 77.01 1.11 77.28.27L75.69 0ZM74.94 5.16C75.15 4.86 75.36 4.56 75.57 4.2L82.32 4.2C81.3 6.24 79.92 8.1 78.18 9.75 76.89 8.43 75.81 6.9 74.94 5.16ZM106.41 17.61 106.41 25.05 98.19 25.05 98.19 26.58 116.07 26.58 116.07 25.05 108 25.05 108 17.61 114.33 17.61 114.33 16.08 99.87 16.08 99.87 17.61 106.41 17.61ZM108.18 9C111.12 10.86 113.46 12.63 115.26 14.31L116.4 13.14C114.45 11.4 112.05 9.66 109.23 7.92 110.61 6.42 111.75 4.77 112.59 2.91L112.59 1.62 99.66 1.62 99.66 3.18 110.7 3.18C108.42 7.5 104.28 10.8 98.31 13.11L99.3 14.4C102.9 12.96 105.84 11.16 108.18 9ZM95.73.09C94.38 3 92.19 5.64 89.16 7.98L89.64 9.57C93.06 7.05 95.55 4.11 97.17.75L95.73.09ZM96.6 7.83C95.1 10.95 92.7 13.77 89.4 16.26L89.88 17.85C91.2 16.89 92.4 15.87 93.51 14.76L93.51 27.45 95.13 27.45 95.13 12.96C96.27 11.58 97.23 10.08 98.01 8.46L96.6 7.83ZM.06 39.09.06 60.51 1.89 60.51 1.89 51.42 8.73 51.42C13.5 51.42 15.9 49.35 15.9 45.24 15.9 41.13 13.5 39.09 8.76 39.09L.06 39.09ZM1.89 40.71 8.64 40.71C10.47 40.71 11.85 41.1 12.75 41.88 13.59 42.6 14.04 43.71 14.04 45.24 14.04 46.77 13.59 47.91 12.75 48.66 11.85 49.41 10.5 49.8 8.64 49.8L1.89 49.8 1.89 40.71ZM25.35 44.58C23.58 44.58 22.14 44.94 21.03 45.69 19.77 46.47 18.99 47.67 18.69 49.23L20.46 49.35C20.7 48.27 21.27 47.46 22.17 46.89 22.98 46.35 24 46.11 25.26 46.11 28.26 46.11 29.76 47.58 29.76 50.52L29.76 51.45 25.8 51.51C23.46 51.51 21.63 51.93 20.37 52.74 18.9 53.58 18.18 54.9 18.18 56.7 18.18 57.96 18.66 59.01 19.65 59.79 20.55 60.54 21.78 60.93 23.28 60.93 24.75 60.93 26.1 60.54 27.36 59.82 28.38 59.22 29.22 58.44 29.85 57.54L29.85 60.51 31.56 60.51 31.56 50.52C31.56 48.72 31.08 47.34 30.18 46.35 29.13 45.15 27.51 44.58 25.35 44.58ZM29.76 52.86 29.76 54.48C29.76 55.68 29.13 56.82 27.9 57.84 26.64 58.92 25.2 59.46 23.64 59.46 22.56 59.46 21.66 59.19 21 58.68 20.34 58.17 20.01 57.51 20.01 56.67 20.01 54.21 21.96 52.95 25.89 52.92L29.76 52.86ZM39.09 39.99 37.29 40.74 37.29 45 33.99 45 33.99 46.56 37.29 46.56 37.29 57.06C37.29 58.2 37.5 59.04 37.98 59.58 38.49 60.18 39.36 60.51 40.56 60.51L42.75 60.51 42.75 58.95 40.8 58.95C40.14 58.95 39.69 58.8 39.45 58.53 39.21 58.23 39.09 57.72 39.09 57.06L39.09 46.56 43.14 46.56 43.14 45 39.09 45 39.09 39.99ZM45.87 38.67 45.87 60.51 47.7 60.51 47.7 51.54C47.7 50.01 48.12 48.72 49.02 47.7 49.92 46.65 51 46.14 52.29 46.14 53.67 46.14 54.72 46.53 55.5 47.34 56.25 48.18 56.64 49.35 56.64 50.85L56.64 60.51 58.44 60.51 58.44 50.61C58.44 48.69 57.93 47.19 56.94 46.14 55.95 45.09 54.57 44.58 52.8 44.58 51.72 44.58 50.73 44.85 49.86 45.39 48.96 45.96 48.24 46.77 47.7 47.82L47.7 38.67 45.87 38.67ZM75.96 39.99 74.16 40.74 74.16 45 70.86 45 70.86 46.56 74.16 46.56 74.16 57.06C74.16 58.2 74.37 59.04 74.85 59.58 75.36 60.18 76.23 60.51 77.43 60.51L79.62 60.51 79.62 58.95 77.67 58.95C77.01 58.95 76.56 58.8 76.32 58.53 76.08 58.23 75.96 57.72 75.96 57.06L75.96 46.56 80.01 46.56 80.01 45 75.96 45 75.96 39.99ZM89.52 44.58C87.24 44.58 85.41 45.39 84.06 47.04 82.77 48.57 82.14 50.49 82.14 52.77 82.14 55.05 82.77 56.94 84.03 58.47 85.41 60.09 87.24 60.93 89.52 60.93 91.8 60.93 93.63 60.09 95.01 58.47 96.27 56.94 96.9 55.05 96.9 52.77 96.9 50.49 96.27 48.57 95.01 47.04 93.63 45.39 91.8 44.58 89.52 44.58ZM89.52 46.14C91.29 46.14 92.7 46.8 93.72 48.18 94.62 49.38 95.1 50.91 95.1 52.77 95.1 54.57 94.62 56.1 93.72 57.33 92.7 58.68 91.29 59.37 89.52 59.37 87.75 59.37 86.37 58.68 85.35 57.33 84.42 56.13 83.97 54.6 83.97 52.77 83.97 50.91 84.42 49.38 85.35 48.18 86.37 46.8 87.75 46.14 89.52 46.14ZM116.58 44.58C115.44 44.58 114.42 44.94 113.58 45.66 112.86 46.23 112.29 47.01 111.87 47.97L111.87 45 110.07 45 110.07 60.51 111.87 60.51 111.87 52.32C111.87 50.76 112.26 49.41 113.1 48.27 113.94 47.01 115.08 46.41 116.46 46.41 117.24 46.41 118.02 46.5 118.83 46.74L118.83 44.91C118.23 44.67 117.48 44.58 116.58 44.58ZM127.14 44.58C124.95 44.58 123.21 45.39 121.89 47.01 120.6 48.57 119.97 50.46 119.97 52.74 119.97 55.2 120.63 57.21 121.98 58.71 123.27 60.18 125.01 60.93 127.2 60.93 129.18 60.93 130.77 60.36 132.03 59.22 133.05 58.26 133.74 57.03 134.1 55.53L132.27 55.53C131.88 56.73 131.34 57.63 130.62 58.26 129.75 58.98 128.61 59.37 127.2 59.37 125.58 59.37 124.32 58.83 123.36 57.75 122.43 56.67 121.92 55.17 121.83 53.28L134.43 53.28C134.34 50.61 133.74 48.54 132.66 47.07 131.43 45.39 129.6 44.58 127.14 44.58ZM127.17 46.14C130.44 46.14 132.24 48.03 132.54 51.81L121.86 51.81C122.01 50.13 122.55 48.78 123.48 47.73 124.41 46.65 125.64 46.14 127.17 46.14ZM142.59 44.58C140.97 44.58 139.59 44.94 138.51 45.69 137.37 46.47 136.83 47.46 136.83 48.72 136.83 49.98 137.4 50.97 138.6 51.69 139.32 52.14 140.58 52.59 142.38 53.07 144.15 53.52 145.29 53.88 145.83 54.15 146.85 54.66 147.36 55.38 147.36 56.31 147.36 58.35 145.86 59.37 142.86 59.37 141.42 59.37 140.34 59.1 139.62 58.56 138.84 57.96 138.36 56.97 138.18 55.62L136.41 55.62C136.77 59.16 138.93 60.93 142.92 60.93 147.12 60.93 149.22 59.34 149.22 56.22 149.22 54.9 148.59 53.85 147.36 53.1 146.58 52.62 145.23 52.14 143.34 51.66 141.75 51.24 140.67 50.88 140.07 50.58 139.14 50.1 138.69 49.47 138.69 48.69 138.69 47.91 139.05 47.31 139.77 46.83 140.49 46.35 141.42 46.14 142.56 46.14 143.94 46.14 144.99 46.41 145.71 46.98 146.37 47.49 146.79 48.27 147 49.35L148.77 49.35C148.32 46.17 146.25 44.58 142.59 44.58ZM158.88 44.58C156.6 44.58 154.77 45.39 153.42 47.04 152.13 48.57 151.5 50.49 151.5 52.77 151.5 55.05 152.13 56.94 153.39 58.47 154.77 60.09 156.6 60.93 158.88 60.93 161.16 60.93 162.99 60.09 164.37 58.47 165.63 56.94 166.26 55.05 166.26 52.77 166.26 50.49 165.63 48.57 164.37 47.04 162.99 45.39 161.16 44.58 158.88 44.58ZM158.88 46.14C160.65 46.14 162.06 46.8 163.08 48.18 163.98 49.38 164.46 50.91 164.46 52.77 164.46 54.57 163.98 56.1 163.08 57.33 162.06 58.68 160.65 59.37 158.88 59.37 157.11 59.37 155.73 58.68 154.71 57.33 153.78 56.13 153.33 54.6 153.33 52.77 153.33 50.91 153.78 49.38 154.71 48.18 155.73 46.8 157.11 46.14 158.88 46.14ZM169.44 45 169.44 54.57C169.44 58.8 171.33 60.93 175.11 60.93 177.33 60.93 179.07 59.91 180.27 57.9L180.27 60.51 182.07 60.51 182.07 45 180.27 45 180.27 54.42C180.15 55.89 179.64 57.09 178.74 57.99 177.84 58.89 176.79 59.37 175.59 59.37 174.09 59.37 172.98 58.95 172.26 58.11 171.57 57.3 171.24 56.1 171.24 54.48L171.24 45 169.44 45ZM192.36 44.58C191.22 44.58 190.2 44.94 189.36 45.66 188.64 46.23 188.07 47.01 187.65 47.97L187.65 45 185.85 45 185.85 60.51 187.65 60.51 187.65 52.32C187.65 50.76 188.04 49.41 188.88 48.27 189.72 47.01 190.86 46.41 192.24 46.41 193.02 46.41 193.8 46.5 194.61 46.74L194.61 44.91C194.01 44.67 193.26 44.58 192.36 44.58ZM203.19 44.58C200.94 44.58 199.17 45.39 197.88 47.04 196.65 48.57 196.05 50.52 196.05 52.86 196.05 55.23 196.62 57.15 197.82 58.59 199.08 60.15 200.88 60.93 203.16 60.93 205.02 60.93 206.55 60.42 207.69 59.43 208.86 58.41 209.61 56.91 209.91 54.96L208.14 54.96C207.69 57.9 206.04 59.37 203.16 59.37 201.45 59.37 200.13 58.77 199.23 57.6 198.33 56.43 197.88 54.84 197.88 52.86 197.88 50.85 198.33 49.23 199.29 48.03 200.25 46.77 201.57 46.14 203.19 46.14 204.54 46.14 205.65 46.47 206.49 47.13 207.33 47.79 207.84 48.75 208.05 50.07L209.85 50.07C209.61 48.21 208.89 46.83 207.72 45.93 206.55 45.03 205.05 44.58 203.19 44.58ZM219.06 44.58C216.87 44.58 215.13 45.39 213.81 47.01 212.52 48.57 211.89 50.46 211.89 52.74 211.89 55.2 212.55 57.21 213.9 58.71 215.19 60.18 216.93 60.93 219.12 60.93 221.1 60.93 222.69 60.36 223.95 59.22 224.97 58.26 225.66 57.03 226.02 55.53L224.19 55.53C223.8 56.73 223.26 57.63 222.54 58.26 221.67 58.98 220.53 59.37 219.12 59.37 217.5 59.37 216.24 58.83 215.28 57.75 214.35 56.67 213.84 55.17 213.75 53.28L226.35 53.28C226.26 50.61 225.66 48.54 224.58 47.07 223.35 45.39 221.52 44.58 219.06 44.58ZM219.09 46.14C222.36 46.14 224.16 48.03 224.46 51.81L213.78 51.81C213.93 50.13 214.47 48.78 215.4 47.73 216.33 46.65 217.56 46.14 219.09 46.14Z" transform="translate(113.13 106.49)"/></g><g transform="translate(185)"><path fill="#63E6E2" d="M7.6916556,74 C5.01709938,74 4.04724067,73.7215232 3.06946289,73.1986019 C2.09168511,72.6756806 1.32431939,71.9083149 0.801398111,70.9305371 C0.278476833,69.9527593 -1.43077765e-16,68.9829006 2.46249008e-16,66.3083444 L6.60585131e-16,7.6916556 C-3.83818985e-16,5.01709938 0.278476833,4.04724067 0.801398111,3.06946289 C1.32431939,2.09168511 2.09168511,1.32431939 3.06946289,0.801398111 C4.04724067,0.278476833 5.01709938,-8.28924603e-17 7.6916556,1.42664977e-16 L394.308344,-1.57632428e-14 C396.982901,9.15889802e-15 397.952759,0.278476833 398.930537,0.801398111 C399.908315,1.32431939 400.675681,2.09168511 401.198602,3.06946289 C401.721523,4.04724067 402,5.01709938 402,7.6916556 L402,66.3083444 C402,68.9829006 401.721523,69.9527593 401.198602,70.9305371 C400.675681,71.9083149 399.908315,72.6756806 398.930537,73.1986019 C397.952759,73.7215232 396.982901,74 394.308344,74 L36,74 L36,116 L51.999,116 L52,104 L76,119 L52,134 L51.999,122 L30,122 L30,74 L7.6916556,74 Z" opacity=".5"/><path fill="#E5E5EA" fill-rule="nonzero" d="M8.19 4.29 8.19 5.85 18.99 5.85C19.08 10.59 19.32 14.49 19.71 17.55 19.83 18.51 19.95 19.44 20.13 20.34 18.54 22.8 16.59 24.72 14.28 26.04L15.27 27.3C17.28 26.1 19.05 24.48 20.61 22.38 20.85 23.34 21.15 24.18 21.51 24.93 22.26 26.49 23.1 27.27 24.06 27.27 25.32 27.27 26.37 25.47 27.24 21.87L26.01 20.88C25.38 23.94 24.72 25.5 24.06 25.62 23.16 25.53 22.38 23.88 21.72 20.67 23.52 17.67 24.93 13.86 25.92 9.3L24.48 8.67C23.76 12.36 22.71 15.54 21.33 18.24 20.94 15.21 20.7 11.07 20.61 5.85L27.06 5.85 27.06 4.29 25.53 4.29C25.08 2.97 24.6 1.77 24.09.75L22.65.99C23.19 1.98 23.67 3.09 24.15 4.29L20.58 4.29C20.55 2.94 20.55 1.53 20.55.03L18.93.03C18.93 1.5 18.93 2.91 18.96 4.29L8.19 4.29ZM9.45 9.18 9.45 17.43 16.77 17.43 16.77 9.18 9.45 9.18ZM15.33 16.05 10.89 16.05 10.89 10.56 15.33 10.56 15.33 16.05ZM17.22 19.62C14.04 20.85 10.71 21.78 7.2 22.44L7.62 23.97C11.07 23.22 14.28 22.26 17.22 21.12L17.22 19.62ZM.21 8.22.21 9.78 3.36 9.78 3.36 20.16C2.28 20.55 1.14 20.88 0 21.18L.39 22.8C3.12 21.99 5.67 20.97 8.01 19.71L8.01 18.06C7.02 18.57 6 19.05 4.95 19.53L4.95 9.78 7.98 9.78 7.98 8.22 4.95 8.22 4.95.06 3.36.06 3.36 8.22.21 8.22ZM38.85 25.44 52.86 25.44 52.86 27.3 54.51 27.3 54.51 14.97 41.19 14.97C47.22 12.3 51.39 8.79 53.73 4.44L53.73 2.97 41.64 2.97C42.36 2.07 42.96 1.17 43.47.21L41.73 0C39.9 3.24 36.42 6 31.26 8.25L32.31 9.66C35.55 8.16 38.16 6.45 40.17 4.53L51.87 4.53C50.37 7.17 47.97 9.51 44.67 11.49 43.35 10.32 41.49 9 39.03 7.53L37.62 8.4C40.02 9.78 41.94 11.07 43.32 12.27 39.84 14.13 35.43 15.63 30.09 16.8L30.9 18.33C33.12 17.79 35.25 17.16 37.23 16.5L37.23 27.3 38.85 27.3 38.85 25.44ZM52.86 23.85 38.85 23.85 38.85 16.5 52.86 16.5 52.86 23.85ZM.69 39.06.69 60.48 7.92 60.48C11.22 60.48 13.77 59.49 15.57 57.51 17.28 55.62 18.15 53.04 18.15 49.77 18.15 46.44 17.37 43.86 15.84 42.06 14.16 40.05 11.64 39.06 8.31 39.06L.69 39.06ZM2.52 40.68 8.04 40.68C10.92 40.68 13.08 41.46 14.46 43.08 15.72 44.55 16.35 46.77 16.35 49.77 16.35 52.65 15.63 54.87 14.19 56.43 12.69 58.05 10.5 58.86 7.65 58.86L2.52 58.86 2.52 40.68ZM28.11 44.55C25.83 44.55 24 45.36 22.65 47.01 21.36 48.54 20.73 50.46 20.73 52.74 20.73 55.02 21.36 56.91 22.62 58.44 24 60.06 25.83 60.9 28.11 60.9 30.39 60.9 32.22 60.06 33.6 58.44 34.86 56.91 35.49 55.02 35.49 52.74 35.49 50.46 34.86 48.54 33.6 47.01 32.22 45.36 30.39 44.55 28.11 44.55ZM28.11 46.11C29.88 46.11 31.29 46.77 32.31 48.15 33.21 49.35 33.69 50.88 33.69 52.74 33.69 54.54 33.21 56.07 32.31 57.3 31.29 58.65 29.88 59.34 28.11 59.34 26.34 59.34 24.96 58.65 23.94 57.3 23.01 56.1 22.56 54.57 22.56 52.74 22.56 50.88 23.01 49.35 23.94 48.15 24.96 46.77 26.34 46.11 28.11 46.11ZM44.97 44.55C43.08 44.55 41.58 45.45 40.47 47.31L40.47 44.97 38.67 44.97 38.67 60.48 40.47 60.48 40.47 50.94C40.47 49.59 40.86 48.45 41.67 47.52 42.45 46.56 43.41 46.11 44.58 46.11 47.16 46.11 48.45 47.58 48.45 50.58L48.45 60.48 50.28 60.48 50.28 50.61C50.28 49.29 50.64 48.24 51.42 47.4 52.17 46.53 53.1 46.11 54.24 46.11 55.62 46.11 56.67 46.5 57.33 47.28 57.93 48 58.23 49.11 58.23 50.58L58.23 60.48 60.03 60.48 60.03 50.34C60.03 48.51 59.55 47.1 58.62 46.08 57.66 45.06 56.34 44.55 54.72 44.55 53.64 44.55 52.68 44.82 51.9 45.36 51.06 45.9 50.37 46.68 49.83 47.73 49.05 45.6 47.43 44.55 44.97 44.55ZM70.38 44.55C68.61 44.55 67.17 44.91 66.06 45.66 64.8 46.44 64.02 47.64 63.72 49.2L65.49 49.32C65.73 48.24 66.3 47.43 67.2 46.86 68.01 46.32 69.03 46.08 70.29 46.08 73.29 46.08 74.79 47.55 74.79 50.49L74.79 51.42 70.83 51.48C68.49 51.48 66.66 51.9 65.4 52.71 63.93 53.55 63.21 54.87 63.21 56.67 63.21 57.93 63.69 58.98 64.68 59.76 65.58 60.51 66.81 60.9 68.31 60.9 69.78 60.9 71.13 60.51 72.39 59.79 73.41 59.19 74.25 58.41 74.88 57.51L74.88 60.48 76.59 60.48 76.59 50.49C76.59 48.69 76.11 47.31 75.21 46.32 74.16 45.12 72.54 44.55 70.38 44.55ZM74.79 52.83 74.79 54.45C74.79 55.65 74.16 56.79 72.93 57.81 71.67 58.89 70.23 59.43 68.67 59.43 67.59 59.43 66.69 59.16 66.03 58.65 65.37 58.14 65.04 57.48 65.04 56.64 65.04 54.18 66.99 52.92 70.92 52.89L74.79 52.83ZM82.17 39.39C81.72 39.39 81.36 39.54 81.09 39.84 80.79 40.08 80.64 40.44 80.64 40.89 80.64 41.31 80.79 41.67 81.09 41.97 81.36 42.24 81.72 42.39 82.17 42.39 82.59 42.39 82.92 42.24 83.22 41.97 83.52 41.67 83.7 41.31 83.7 40.89 83.7 40.44 83.55 40.08 83.25 39.84 82.95 39.54 82.59 39.39 82.17 39.39ZM81.27 44.97 81.27 60.48 83.07 60.48 83.07 44.97 81.27 44.97ZM94.59 44.55C93.51 44.55 92.52 44.79 91.65 45.33 90.78 45.87 90.09 46.59 89.55 47.52L89.55 44.97 87.75 44.97 87.75 60.48 89.55 60.48 89.55 51.12C89.64 49.59 90.12 48.36 91.02 47.46 91.86 46.56 92.88 46.11 94.14 46.11 97.08 46.11 98.55 47.76 98.55 51.06L98.55 60.48 100.35 60.48 100.35 50.94C100.35 46.68 98.43 44.55 94.59 44.55ZM120.96 44.55C119.88 44.55 118.89 44.79 118.02 45.33 117.15 45.87 116.46 46.59 115.92 47.52L115.92 44.97 114.12 44.97 114.12 60.48 115.92 60.48 115.92 51.12C116.01 49.59 116.49 48.36 117.39 47.46 118.23 46.56 119.25 46.11 120.51 46.11 123.45 46.11 124.92 47.76 124.92 51.06L124.92 60.48 126.72 60.48 126.72 50.94C126.72 46.68 124.8 44.55 120.96 44.55ZM137.07 44.55C135.3 44.55 133.86 44.91 132.75 45.66 131.49 46.44 130.71 47.64 130.41 49.2L132.18 49.32C132.42 48.24 132.99 47.43 133.89 46.86 134.7 46.32 135.72 46.08 136.98 46.08 139.98 46.08 141.48 47.55 141.48 50.49L141.48 51.42 137.52 51.48C135.18 51.48 133.35 51.9 132.09 52.71 130.62 53.55 129.9 54.87 129.9 56.67 129.9 57.93 130.38 58.98 131.37 59.76 132.27 60.51 133.5 60.9 135 60.9 136.47 60.9 137.82 60.51 139.08 59.79 140.1 59.19 140.94 58.41 141.57 57.51L141.57 60.48 143.28 60.48 143.28 50.49C143.28 48.69 142.8 47.31 141.9 46.32 140.85 45.12 139.23 44.55 137.07 44.55ZM141.48 52.83 141.48 54.45C141.48 55.65 140.85 56.79 139.62 57.81 138.36 58.89 136.92 59.43 135.36 59.43 134.28 59.43 133.38 59.16 132.72 58.65 132.06 58.14 131.73 57.48 131.73 56.64 131.73 54.18 133.68 52.92 137.61 52.89L141.48 52.83ZM153.36 44.55C151.47 44.55 149.97 45.45 148.86 47.31L148.86 44.97 147.06 44.97 147.06 60.48 148.86 60.48 148.86 50.94C148.86 49.59 149.25 48.45 150.06 47.52 150.84 46.56 151.8 46.11 152.97 46.11 155.55 46.11 156.84 47.58 156.84 50.58L156.84 60.48 158.67 60.48 158.67 50.61C158.67 49.29 159.03 48.24 159.81 47.4 160.56 46.53 161.49 46.11 162.63 46.11 164.01 46.11 165.06 46.5 165.72 47.28 166.32 48 166.62 49.11 166.62 50.58L166.62 60.48 168.42 60.48 168.42 50.34C168.42 48.51 167.94 47.1 167.01 46.08 166.05 45.06 164.73 44.55 163.11 44.55 162.03 44.55 161.07 44.82 160.29 45.36 159.45 45.9 158.76 46.68 158.22 47.73 157.44 45.6 155.82 44.55 153.36 44.55ZM178.47 44.55C176.28 44.55 174.54 45.36 173.22 46.98 171.93 48.54 171.3 50.43 171.3 52.71 171.3 55.17 171.96 57.18 173.31 58.68 174.6 60.15 176.34 60.9 178.53 60.9 180.51 60.9 182.1 60.33 183.36 59.19 184.38 58.23 185.07 57 185.43 55.5L183.6 55.5C183.21 56.7 182.67 57.6 181.95 58.23 181.08 58.95 179.94 59.34 178.53 59.34 176.91 59.34 175.65 58.8 174.69 57.72 173.76 56.64 173.25 55.14 173.16 53.25L185.76 53.25C185.67 50.58 185.07 48.51 183.99 47.04 182.76 45.36 180.93 44.55 178.47 44.55ZM178.5 46.11C181.77 46.11 183.57 48 183.87 51.78L173.19 51.78C173.34 50.1 173.88 48.75 174.81 47.7 175.74 46.62 176.97 46.11 178.5 46.11Z" transform="translate(82.5 106.52)"/></g></g><g transform="translate(26 300)"><path fill="#5E5CE6" d="M7.6916556,74 C5.01709938,74 4.04724067,73.7215232 3.06946289,73.1986019 C2.09168511,72.6756806 1.32431939,71.9083149 0.801398111,70.9305371 C0.278476833,69.9527593 1.2037061e-16,68.9829006 -2.07168062e-16,66.3083444 L2.07168062e-16,7.6916556 C-1.2037061e-16,5.01709938 0.278476833,4.04724067 0.801398111,3.06946289 C1.32431939,2.09168511 2.09168511,1.32431939 3.06946289,0.801398111 C4.04724067,0.278476833 5.01709938,1.80555915e-16 7.6916556,-3.10752092e-16 L626.308344,3.10752092e-16 C628.982901,-1.80555915e-16 629.952759,0.278476833 630.930537,0.801398111 C631.908315,1.32431939 632.675681,2.09168511 633.198602,3.06946289 C633.721523,4.04724067 634,5.01709938 634,7.6916556 L634,66.3083444 C634,68.9829006 633.721523,69.9527593 633.198602,70.9305371 C632.675681,71.9083149 631.908315,72.6756806 630.930537,73.1986019 C629.952759,73.7215232 628.982901,74 626.308344,74 L16,74 L16,116 L31.999,116 L32,104 L56,119 L32,134 L31.999,122 L10,122 L10,74 L7.6916556,74 Z" opacity=".5"/><path fill="#E5E5EA" fill-rule="nonzero" d="M.57 9.27.57 10.77 9.39 10.77C7.29 12.9 4.14 14.61 0 15.87L.72 17.31C5.46 15.66 9.03 13.47 11.37 10.77L16.83 10.77C18.72 13.41 21.99 15.51 26.61 17.13L27.33 15.63C23.34 14.46 20.4 12.84 18.54 10.77L26.43 10.77 26.43 9.27 12.48 9.27C13.05 8.37 13.53 7.41 13.89 6.39 16.35 6.27 18.72 6.12 20.97 5.97 21.75 6.75 22.47 7.5 23.13 8.25L24.48 7.35C22.89 5.55 20.61 3.48 17.64 1.11L16.38 1.92C17.52 2.85 18.57 3.78 19.59 4.68 15.63 4.98 11.34 5.19 6.72 5.34 8.64 4.2 10.56 2.64 12.51.6L10.92.06C8.1 2.94 5.61 4.68 3.48 5.34L3.75 6.78C6.69 6.69 9.51 6.6 12.21 6.48 11.85 7.44 11.34 8.37 10.68 9.27L.57 9.27ZM13.89 12.21C12.03 14.46 9.12 16.26 5.13 17.61L5.88 18.93C10.08 17.46 13.17 15.48 15.21 12.99L13.89 12.21ZM21.66 16.8C19.17 21.3 13.38 24.51 4.26 26.49L5.22 27.78C14.4 25.83 20.34 22.38 23.07 17.46L21.66 16.8ZM17.73 14.67C14.64 18.42 10.32 20.76 4.77 21.66L5.7 22.95C11.13 21.96 15.57 19.47 19.02 15.51L17.73 14.67ZM48.18 6.45 53.04 6.45C52.95 10.83 52.23 14.64 50.88 17.91 49.56 15.21 48.51 11.97 47.7 8.25 47.85 7.68 48 7.08 48.18 6.45ZM50.13 19.53C48.72 22.17 46.8 24.33 44.4 26.04L45.27 27.39C47.61 25.71 49.5 23.58 50.97 21.06 52.53 23.76 54.39 25.89 56.61 27.45L57.54 26.13C55.32 24.6 53.37 22.41 51.75 19.56 53.49 15.96 54.42 11.61 54.54 6.45L56.7 6.45 56.7 4.86 48.54 4.86C48.81 3.42 49.05 1.92 49.26.3L47.64 0C46.98 5.79 45.75 10.38 43.92 13.8L44.94 15.06C45.66 13.8 46.32 12.39 46.92 10.77 47.76 14.07 48.81 17.01 50.13 19.53ZM35.88 14.04C35.64 14.7 35.4 15.39 35.1 16.11L30.63 16.11 30.63 17.52 34.47 17.52C33.87 18.75 33.15 20.04 32.31 21.42 33.84 21.99 35.31 22.59 36.69 23.19 34.86 24.33 32.61 25.29 29.97 26.04L30.75 27.39C33.75 26.52 36.27 25.35 38.28 23.88 40.08 24.69 41.73 25.53 43.17 26.37L44.04 25.08C42.6 24.3 41.07 23.55 39.51 22.86 41.19 21.36 42.42 19.53 43.14 17.43L43.14 16.11 36.72 16.11C36.96 15.51 37.2 14.88 37.44 14.22L35.88 14.04ZM38.01 22.23C36.81 21.72 35.55 21.24 34.26 20.79 34.92 19.77 35.55 18.66 36.09 17.52L41.64 17.52C40.89 19.32 39.69 20.88 38.01 22.23ZM32.67.78 31.35 1.2C32.13 2.34 32.82 3.66 33.45 5.13L34.68 4.59C34.08 3.21 33.42 1.95 32.67.78ZM42.21.6C41.64 1.89 40.86 3.21 39.9 4.53L41.1 5.16C42.03 3.84 42.81 2.52 43.41 1.17L42.21.6ZM30.72 6 30.72 7.47 35.34 7.47C34.44 9.33 32.73 10.98 30.18 12.42L31.02 13.77C33.78 11.97 35.61 9.87 36.57 7.47L36.66 7.47 36.66 13.38 38.19 13.38 38.19 9.06C39.36 9.84 40.8 10.92 42.48 12.3L43.35 11.01C41.61 9.81 39.87 8.76 38.19 7.83L38.19 7.47 43.86 7.47 43.86 6 38.19 6 38.19.15 36.66.15 36.66 6 30.72 6ZM.81 39.12.81 60.54 2.64 60.54 2.64 51.45 9.48 51.45C14.25 51.45 16.65 49.38 16.65 45.27 16.65 41.16 14.25 39.12 9.51 39.12L.81 39.12ZM2.64 40.74 9.39 40.74C11.22 40.74 12.6 41.13 13.5 41.91 14.34 42.63 14.79 43.74 14.79 45.27 14.79 46.8 14.34 47.94 13.5 48.69 12.6 49.44 11.25 49.83 9.39 49.83L2.64 49.83 2.64 40.74ZM26.1 44.61C24.33 44.61 22.89 44.97 21.78 45.72 20.52 46.5 19.74 47.7 19.44 49.26L21.21 49.38C21.45 48.3 22.02 47.49 22.92 46.92 23.73 46.38 24.75 46.14 26.01 46.14 29.01 46.14 30.51 47.61 30.51 50.55L30.51 51.48 26.55 51.54C24.21 51.54 22.38 51.96 21.12 52.77 19.65 53.61 18.93 54.93 18.93 56.73 18.93 57.99 19.41 59.04 20.4 59.82 21.3 60.57 22.53 60.96 24.03 60.96 25.5 60.96 26.85 60.57 28.11 59.85 29.13 59.25 29.97 58.47 30.6 57.57L30.6 60.54 32.31 60.54 32.31 50.55C32.31 48.75 31.83 47.37 30.93 46.38 29.88 45.18 28.26 44.61 26.1 44.61ZM30.51 52.89 30.51 54.51C30.51 55.71 29.88 56.85 28.65 57.87 27.39 58.95 25.95 59.49 24.39 59.49 23.31 59.49 22.41 59.22 21.75 58.71 21.09 58.2 20.76 57.54 20.76 56.7 20.76 54.24 22.71 52.98 26.64 52.95L30.51 52.89ZM42.6 44.61C41.46 44.61 40.44 44.97 39.6 45.69 38.88 46.26 38.31 47.04 37.89 48L37.89 45.03 36.09 45.03 36.09 60.54 37.89 60.54 37.89 52.35C37.89 50.79 38.28 49.44 39.12 48.3 39.96 47.04 41.1 46.44 42.48 46.44 43.26 46.44 44.04 46.53 44.85 46.77L44.85 44.94C44.25 44.7 43.5 44.61 42.6 44.61ZM53.46 44.61C51.69 44.61 50.25 44.97 49.14 45.72 47.88 46.5 47.1 47.7 46.8 49.26L48.57 49.38C48.81 48.3 49.38 47.49 50.28 46.92 51.09 46.38 52.11 46.14 53.37 46.14 56.37 46.14 57.87 47.61 57.87 50.55L57.87 51.48 53.91 51.54C51.57 51.54 49.74 51.96 48.48 52.77 47.01 53.61 46.29 54.93 46.29 56.73 46.29 57.99 46.77 59.04 47.76 59.82 48.66 60.57 49.89 60.96 51.39 60.96 52.86 60.96 54.21 60.57 55.47 59.85 56.49 59.25 57.33 58.47 57.96 57.57L57.96 60.54 59.67 60.54 59.67 50.55C59.67 48.75 59.19 47.37 58.29 46.38 57.24 45.18 55.62 44.61 53.46 44.61ZM57.87 52.89 57.87 54.51C57.87 55.71 57.24 56.85 56.01 57.87 54.75 58.95 53.31 59.49 51.75 59.49 50.67 59.49 49.77 59.22 49.11 58.71 48.45 58.2 48.12 57.54 48.12 56.7 48.12 54.24 50.07 52.98 54 52.95L57.87 52.89ZM69.75 44.61C67.86 44.61 66.36 45.51 65.25 47.37L65.25 45.03 63.45 45.03 63.45 60.54 65.25 60.54 65.25 51C65.25 49.65 65.64 48.51 66.45 47.58 67.23 46.62 68.19 46.17 69.36 46.17 71.94 46.17 73.23 47.64 73.23 50.64L73.23 60.54 75.06 60.54 75.06 50.67C75.06 49.35 75.42 48.3 76.2 47.46 76.95 46.59 77.88 46.17 79.02 46.17 80.4 46.17 81.45 46.56 82.11 47.34 82.71 48.06 83.01 49.17 83.01 50.64L83.01 60.54 84.81 60.54 84.81 50.4C84.81 48.57 84.33 47.16 83.4 46.14 82.44 45.12 81.12 44.61 79.5 44.61 78.42 44.61 77.46 44.88 76.68 45.42 75.84 45.96 75.15 46.74 74.61 47.79 73.83 45.66 72.21 44.61 69.75 44.61ZM94.86 44.61C92.67 44.61 90.93 45.42 89.61 47.04 88.32 48.6 87.69 50.49 87.69 52.77 87.69 55.23 88.35 57.24 89.7 58.74 90.99 60.21 92.73 60.96 94.92 60.96 96.9 60.96 98.49 60.39 99.75 59.25 100.77 58.29 101.46 57.06 101.82 55.56L99.99 55.56C99.6 56.76 99.06 57.66 98.34 58.29 97.47 59.01 96.33 59.4 94.92 59.4 93.3 59.4 92.04 58.86 91.08 57.78 90.15 56.7 89.64 55.2 89.55 53.31L102.15 53.31C102.06 50.64 101.46 48.57 100.38 47.1 99.15 45.42 97.32 44.61 94.86 44.61ZM94.89 46.17C98.16 46.17 99.96 48.06 100.26 51.84L89.58 51.84C89.73 50.16 90.27 48.81 91.2 47.76 92.13 46.68 93.36 46.17 94.89 46.17ZM108.78 40.02 106.98 40.77 106.98 45.03 103.68 45.03 103.68 46.59 106.98 46.59 106.98 57.09C106.98 58.23 107.19 59.07 107.67 59.61 108.18 60.21 109.05 60.54 110.25 60.54L112.44 60.54 112.44 58.98 110.49 58.98C109.83 58.98 109.38 58.83 109.14 58.56 108.9 58.26 108.78 57.75 108.78 57.09L108.78 46.59 112.83 46.59 112.83 45.03 108.78 45.03 108.78 40.02ZM121.83 44.61C119.64 44.61 117.9 45.42 116.58 47.04 115.29 48.6 114.66 50.49 114.66 52.77 114.66 55.23 115.32 57.24 116.67 58.74 117.96 60.21 119.7 60.96 121.89 60.96 123.87 60.96 125.46 60.39 126.72 59.25 127.74 58.29 128.43 57.06 128.79 55.56L126.96 55.56C126.57 56.76 126.03 57.66 125.31 58.29 124.44 59.01 123.3 59.4 121.89 59.4 120.27 59.4 119.01 58.86 118.05 57.78 117.12 56.7 116.61 55.2 116.52 53.31L129.12 53.31C129.03 50.64 128.43 48.57 127.35 47.1 126.12 45.42 124.29 44.61 121.83 44.61ZM121.86 46.17C125.13 46.17 126.93 48.06 127.23 51.84L116.55 51.84C116.7 50.16 117.24 48.81 118.17 47.76 119.1 46.68 120.33 46.17 121.86 46.17ZM138.51 44.61C137.37 44.61 136.35 44.97 135.51 45.69 134.79 46.26 134.22 47.04 133.8 48L133.8 45.03 132 45.03 132 60.54 133.8 60.54 133.8 52.35C133.8 50.79 134.19 49.44 135.03 48.3 135.87 47.04 137.01 46.44 138.39 46.44 139.17 46.44 139.95 46.53 140.76 46.77L140.76 44.94C140.16 44.7 139.41 44.61 138.51 44.61ZM148.08 44.61C146.46 44.61 145.08 44.97 144 45.72 142.86 46.5 142.32 47.49 142.32 48.75 142.32 50.01 142.89 51 144.09 51.72 144.81 52.17 146.07 52.62 147.87 53.1 149.64 53.55 150.78 53.91 151.32 54.18 152.34 54.69 152.85 55.41 152.85 56.34 152.85 58.38 151.35 59.4 148.35 59.4 146.91 59.4 145.83 59.13 145.11 58.59 144.33 57.99 143.85 57 143.67 55.65L141.9 55.65C142.26 59.19 144.42 60.96 148.41 60.96 152.61 60.96 154.71 59.37 154.71 56.25 154.71 54.93 154.08 53.88 152.85 53.13 152.07 52.65 150.72 52.17 148.83 51.69 147.24 51.27 146.16 50.91 145.56 50.61 144.63 50.13 144.18 49.5 144.18 48.72 144.18 47.94 144.54 47.34 145.26 46.86 145.98 46.38 146.91 46.17 148.05 46.17 149.43 46.17 150.48 46.44 151.2 47.01 151.86 47.52 152.28 48.3 152.49 49.38L154.26 49.38C153.81 46.2 151.74 44.61 148.08 44.61Z" transform="translate(62.38 106.46)"/><g transform="translate(638)"><path fill="#BF5AF2" d="M7.6916556,74 C5.01709938,74 4.04724067,73.7215232 3.06946289,73.1986019 C2.09168511,72.6756806 1.32431939,71.9083149 0.801398111,70.9305371 C0.278476833,69.9527593 1.2037061e-16,68.9829006 -2.07168062e-16,66.3083444 L2.07168062e-16,7.6916556 C-1.2037061e-16,5.01709938 0.278476833,4.04724067 0.801398111,3.06946289 C1.32431939,2.09168511 2.09168511,1.32431939 3.06946289,0.801398111 C4.04724067,0.278476833 5.01709938,1.80555915e-16 7.6916556,-3.10752092e-16 L601.308344,3.10752092e-16 C603.982901,-1.80555915e-16 604.952759,0.278476833 605.930537,0.801398111 C606.908315,1.32431939 607.675681,2.09168511 608.198602,3.06946289 C608.721523,4.04724067 609,5.01709938 609,7.6916556 L609,66.3083444 C609,68.9829006 608.721523,69.9527593 608.198602,70.9305371 C607.675681,71.9083149 606.908315,72.6756806 605.930537,73.1986019 C604.952759,73.7215232 603.982901,74 601.308344,74 L16,74 L16,116 L31.999,116 L32,104 L56,119 L32,134 L31.999,122 L10,122 L10,74 L7.6916556,74 Z" opacity=".5"/><path fill="#E5E5EA" fill-rule="nonzero" d="M27.3 10.5 13.74 10.5 13.74 27.03 15.27 27.03 15.27 25.68 25.74 25.68 25.74 27.03 27.3 27.03 27.3 10.5ZM15.27 24.18 15.27 18.81 19.74 18.81 19.74 24.18 15.27 24.18ZM21.24 24.18 21.24 18.81 25.74 18.81 25.74 24.18 21.24 24.18ZM15.27 17.34 15.27 12.03 19.74 12.03 19.74 17.34 15.27 17.34ZM21.24 12.03 25.74 12.03 25.74 17.34 21.24 17.34 21.24 12.03ZM16.35.42 16.35 3.84 12.45 3.84 12.45 5.4 16.35 5.4 16.35 8.7 17.88 8.7 17.88 5.4 22.86 5.4 22.86 8.73 24.42 8.73 24.42 5.4 28.59 5.4 28.59 3.84 24.42 3.84 24.42.42 22.86.42 22.86 3.84 17.88 3.84 17.88.42 16.35.42ZM5.31.09C4.53 3.75 3.36 7.05 1.77 9.99L3.09 10.83C3.99 9.21 4.77 7.41 5.46 5.46L11.43 5.46 11.43 3.9 5.97 3.9C6.27 2.82 6.57 1.65 6.87.42L5.31.09ZM4.59 9.57 4.59 11.07 6.51 11.07 6.51 15.27 2.43 15.27 2.43 16.83 6.51 16.83 6.51 24.33C6.51 24.69 6.27 24.93 5.82 25.11L6.48 26.52C8.7 25.8 10.65 24.9 12.33 23.76L12.06 22.32C10.71 23.22 9.39 23.97 8.1 24.51L8.1 16.83 12.06 16.83 12.06 15.27 8.1 15.27 8.1 11.07 11.31 11.07 11.31 9.57 4.59 9.57ZM43.71 0 43.71 9 35.52 9 35.52 18.21 54.87 18.21 54.87 9 45.3 9 45.3 4.68 57.12 4.68 57.12 3.15 45.3 3.15 45.3 0 43.71 0ZM53.28 16.68 37.14 16.68 37.14 10.53 53.28 10.53 53.28 16.68ZM35.43 19.74C34.35 22.29 33.03 24.48 31.5 26.34L32.82 27.27C34.35 25.35 35.67 23.07 36.81 20.43L35.43 19.74ZM41.49 20.58 39.96 20.91C40.59 22.8 41.1 24.99 41.49 27.51L43.14 27.12C42.66 24.78 42.09 22.59 41.49 20.58ZM47.79 20.31 46.29 20.64C47.19 22.59 47.94 24.87 48.57 27.45L50.19 27.06C49.5 24.63 48.69 22.38 47.79 20.31ZM54.09 19.77 52.77 20.61C54.6 23.1 56.07 25.35 57.15 27.39L58.47 26.46C57.45 24.54 56.01 22.32 54.09 19.77ZM8.58 39.06 0 60.48 2.01 60.48 4.5 54.09 14.82 54.09 17.31 60.48 19.32 60.48 10.74 39.06 8.58 39.06ZM5.1 52.53 9.63 41.04 9.72 41.04 14.22 52.53 5.1 52.53ZM28.05 44.55C26.97 44.55 25.98 44.79 25.11 45.33 24.24 45.87 23.55 46.59 23.01 47.52L23.01 44.97 21.21 44.97 21.21 60.48 23.01 60.48 23.01 51.12C23.1 49.59 23.58 48.36 24.48 47.46 25.32 46.56 26.34 46.11 27.6 46.11 30.54 46.11 32.01 47.76 32.01 51.06L32.01 60.48 33.81 60.48 33.81 50.94C33.81 46.68 31.89 44.55 28.05 44.55ZM44.13 44.55C41.88 44.55 40.11 45.36 38.82 47.01 37.59 48.54 36.99 50.49 36.99 52.83 36.99 55.2 37.56 57.12 38.76 58.56 40.02 60.12 41.82 60.9 44.1 60.9 45.96 60.9 47.49 60.39 48.63 59.4 49.8 58.38 50.55 56.88 50.85 54.93L49.08 54.93C48.63 57.87 46.98 59.34 44.1 59.34 42.39 59.34 41.07 58.74 40.17 57.57 39.27 56.4 38.82 54.81 38.82 52.83 38.82 50.82 39.27 49.2 40.23 48 41.19 46.74 42.51 46.11 44.13 46.11 45.48 46.11 46.59 46.44 47.43 47.1 48.27 47.76 48.78 48.72 48.99 50.04L50.79 50.04C50.55 48.18 49.83 46.8 48.66 45.9 47.49 45 45.99 44.55 44.13 44.55ZM53.73 38.64 53.73 60.48 55.56 60.48 55.56 51.51C55.56 49.98 55.98 48.69 56.88 47.67 57.78 46.62 58.86 46.11 60.15 46.11 61.53 46.11 62.58 46.5 63.36 47.31 64.11 48.15 64.5 49.32 64.5 50.82L64.5 60.48 66.3 60.48 66.3 50.58C66.3 48.66 65.79 47.16 64.8 46.11 63.81 45.06 62.43 44.55 60.66 44.55 59.58 44.55 58.59 44.82 57.72 45.36 56.82 45.93 56.1 46.74 55.56 47.79L55.56 38.64 53.73 38.64ZM76.86 44.55C74.58 44.55 72.75 45.36 71.4 47.01 70.11 48.54 69.48 50.46 69.48 52.74 69.48 55.02 70.11 56.91 71.37 58.44 72.75 60.06 74.58 60.9 76.86 60.9 79.14 60.9 80.97 60.06 82.35 58.44 83.61 56.91 84.24 55.02 84.24 52.74 84.24 50.46 83.61 48.54 82.35 47.01 80.97 45.36 79.14 44.55 76.86 44.55ZM76.86 46.11C78.63 46.11 80.04 46.77 81.06 48.15 81.96 49.35 82.44 50.88 82.44 52.74 82.44 54.54 81.96 56.07 81.06 57.3 80.04 58.65 78.63 59.34 76.86 59.34 75.09 59.34 73.71 58.65 72.69 57.3 71.76 56.1 71.31 54.57 71.31 52.74 71.31 50.88 71.76 49.35 72.69 48.15 73.71 46.77 75.09 46.11 76.86 46.11ZM93.93 44.55C92.79 44.55 91.77 44.91 90.93 45.63 90.21 46.2 89.64 46.98 89.22 47.94L89.22 44.97 87.42 44.97 87.42 60.48 89.22 60.48 89.22 52.29C89.22 50.73 89.61 49.38 90.45 48.24 91.29 46.98 92.43 46.38 93.81 46.38 94.59 46.38 95.37 46.47 96.18 46.71L96.18 44.88C95.58 44.64 94.83 44.55 93.93 44.55Z" transform="translate(61 106.52)"/></g></g><g fill="#E5E5EA" transform="translate(211 14.58)"><path d="M4,40.42 L0,40.42 L0,19.42 L4,19.42 L4,28.42 L164,28.42 L164,32.42 L4,32.42 L4,40.42 Z M476,20.42 L476,41.42 L472,41.42 L472,32.42 L312,32.42 L312,28.42 L472,28.42 L472,20.42 L476,20.42 Z"/><g fill-rule="nonzero" transform="translate(177)"><path d="M39.84 11.22C40.86 12.42 42.12 14.04 43.59 16.08L44.55 14.67C42.96 12.75 41.4 11.04 39.84 9.51L39.84 7.62 44.01 7.62 44.01 6.03 39.84 6.03 39.84 0 38.22 0 38.22 6.03 33.33 6.03 33.33 7.62 38.19 7.62C37.11 11.58 35.28 15.09 32.7 18.21L33.42 19.98C35.46 17.25 37.08 14.16 38.22 10.68L38.22 27.24 39.84 27.24 39.84 11.22ZM56.58 3.57C55.83 8.64 54.27 13.08 51.9 16.86 49.47 12.93 48.06 8.49 47.7 3.57L56.58 3.57ZM50.97 18.24C48.87 21.21 46.2 23.76 42.93 25.92L43.98 27.21C47.13 25.17 49.8 22.68 51.96 19.68 53.88 22.38 56.31 24.9 59.25 27.18L60.33 25.89C57.3 23.64 54.81 21.12 52.89 18.33 55.53 14.22 57.27 9.3 58.17 3.54L58.17 1.98 44.85 1.98 44.85 3.57 46.14 3.57C46.56 8.97 48.15 13.86 50.97 18.24ZM64.23 1.35 64.23 27.36 65.85 27.36 65.85 2.88 71.4 2.88C70.62 5.46 69.51 8.37 68.07 11.58 70.2 14.13 71.28 16.44 71.28 18.51 71.28 19.23 71.04 19.74 70.56 20.04 70.11 20.34 69.21 20.52 67.86 20.58 67.62 20.58 67.32 20.55 66.99 20.49L67.5 22.17C69.6 22.14 71.07 21.78 71.91 21.12 72.54 20.58 72.87 19.71 72.9 18.51 72.75 16.29 71.7 13.89 69.75 11.34 71.01 8.34 72.12 5.46 73.08 2.64L73.08 1.35 64.23 1.35ZM76.35 8.4 85.89 8.4 85.89 12.3 76.35 12.3 76.35 8.4ZM85.89 6.93 76.35 6.93 76.35 2.94 85.89 2.94 85.89 6.93ZM80.31 13.8C81.39 19.47 84.42 23.91 89.46 27.09L90.36 25.68C87.96 24.24 86.01 22.5 84.57 20.4 86.4 19.5 88.02 18.18 89.43 16.44L88.38 15.39C86.94 17.13 85.41 18.39 83.79 19.2 82.86 17.58 82.2 15.78 81.81 13.8L87.51 13.8 87.51 1.38 74.73 1.38 74.73 24.81C74.73 25.11 74.55 25.29 74.19 25.41L74.55 26.82C77.79 25.95 80.46 25.05 82.56 24.09L82.17 22.53C80.25 23.46 78.33 24.21 76.35 24.75L76.35 13.8 80.31 13.8ZM8.58 39 0 60.42 2.01 60.42 4.5 54.03 14.82 54.03 17.31 60.42 19.32 60.42 10.74 39 8.58 39ZM5.1 52.47 9.63 40.98 9.72 40.98 14.22 52.47 5.1 52.47ZM21.21 44.91 21.21 54.48C21.21 58.71 23.1 60.84 26.88 60.84 29.1 60.84 30.84 59.82 32.04 57.81L32.04 60.42 33.84 60.42 33.84 44.91 32.04 44.91 32.04 54.33C31.92 55.8 31.41 57 30.51 57.9 29.61 58.8 28.56 59.28 27.36 59.28 25.86 59.28 24.75 58.86 24.03 58.02 23.34 57.21 23.01 56.01 23.01 54.39L23.01 44.91 21.21 44.91ZM41.37 39.9 39.57 40.65 39.57 44.91 36.27 44.91 36.27 46.47 39.57 46.47 39.57 56.97C39.57 58.11 39.78 58.95 40.26 59.49 40.77 60.09 41.64 60.42 42.84 60.42L45.03 60.42 45.03 58.86 43.08 58.86C42.42 58.86 41.97 58.71 41.73 58.44 41.49 58.14 41.37 57.63 41.37 56.97L41.37 46.47 45.42 46.47 45.42 44.91 41.37 44.91 41.37 39.9ZM48.15 38.58 48.15 60.42 49.98 60.42 49.98 51.45C49.98 49.92 50.4 48.63 51.3 47.61 52.2 46.56 53.28 46.05 54.57 46.05 55.95 46.05 57 46.44 57.78 47.25 58.53 48.09 58.92 49.26 58.92 50.76L58.92 60.42 60.72 60.42 60.72 50.52C60.72 48.6 60.21 47.1 59.22 46.05 58.23 45 56.85 44.49 55.08 44.49 54 44.49 53.01 44.76 52.14 45.3 51.24 45.87 50.52 46.68 49.98 47.73L49.98 38.58 48.15 38.58ZM71.28 44.49C69 44.49 67.17 45.3 65.82 46.95 64.53 48.48 63.9 50.4 63.9 52.68 63.9 54.96 64.53 56.85 65.79 58.38 67.17 60 69 60.84 71.28 60.84 73.56 60.84 75.39 60 76.77 58.38 78.03 56.85 78.66 54.96 78.66 52.68 78.66 50.4 78.03 48.48 76.77 46.95 75.39 45.3 73.56 44.49 71.28 44.49ZM71.28 46.05C73.05 46.05 74.46 46.71 75.48 48.09 76.38 49.29 76.86 50.82 76.86 52.68 76.86 54.48 76.38 56.01 75.48 57.24 74.46 58.59 73.05 59.28 71.28 59.28 69.51 59.28 68.13 58.59 67.11 57.24 66.18 56.04 65.73 54.51 65.73 52.68 65.73 50.82 66.18 49.29 67.11 48.09 68.13 46.71 69.51 46.05 71.28 46.05ZM88.35 44.49C87.21 44.49 86.19 44.85 85.35 45.57 84.63 46.14 84.06 46.92 83.64 47.88L83.64 44.91 81.84 44.91 81.84 60.42 83.64 60.42 83.64 52.23C83.64 50.67 84.03 49.32 84.87 48.18 85.71 46.92 86.85 46.32 88.23 46.32 89.01 46.32 89.79 46.41 90.6 46.65L90.6 44.82C90 44.58 89.25 44.49 88.35 44.49ZM94.44 39.33C93.99 39.33 93.63 39.48 93.36 39.78 93.06 40.02 92.91 40.38 92.91 40.83 92.91 41.25 93.06 41.61 93.36 41.91 93.63 42.18 93.99 42.33 94.44 42.33 94.86 42.33 95.19 42.18 95.49 41.91 95.79 41.61 95.97 41.25 95.97 40.83 95.97 40.38 95.82 40.02 95.52 39.78 95.22 39.48 94.86 39.33 94.44 39.33ZM93.54 44.91 93.54 60.42 95.34 60.42 95.34 44.91 93.54 44.91ZM103.77 39.9 101.97 40.65 101.97 44.91 98.67 44.91 98.67 46.47 101.97 46.47 101.97 56.97C101.97 58.11 102.18 58.95 102.66 59.49 103.17 60.09 104.04 60.42 105.24 60.42L107.43 60.42 107.43 58.86 105.48 58.86C104.82 58.86 104.37 58.71 104.13 58.44 103.89 58.14 103.77 57.63 103.77 56.97L103.77 46.47 107.82 46.47 107.82 44.91 103.77 44.91 103.77 39.9Z"/><polygon points="108.81 44.91 114.96 60.03 112.35 66.36 114.3 66.36 122.85 44.91 120.87 44.91 115.86 57.84 110.79 44.91"/></g></g><g fill="#E5E5EA" fill-rule="nonzero" transform="translate(31.924 104.975)"><path d="M0 34.0246582 3.54858398 34.0246582 3.54858398 20.7070312C3.54858398 16.8453369 6.07434082 14.236084 9.81079102 14.236084 13.359375 14.236084 15.0292969 16.1773682 15.0292969 20.2478027L15.0292969 34.0246582 18.5778809 34.0246582 18.5778809 19.3502197C18.5778809 13.9438477 15.9060059 10.9797363 10.9797363 10.9797363 7.51464844 10.9797363 4.90539551 12.5661621 3.71557617 15.3841553L3.42333984 15.3841553 3.42333984 2.48400879 0 2.48400879 0 34.0246582ZM31.8537598 5.30200195 31.8537598 11.4389648 25.821167 11.4389648 25.821167 14.4656982 31.8537598 14.4656982 31.8537598 27.2823486C31.8537598 31.9998779 34.4630127 34.1290283 40.078125 34.1290283 41.1635742 34.1290283 43.9189453 34.0246582 44.4825439 33.9202881L44.4825439 30.9144287C43.8771973 30.9770508 41.6019287 31.0396729 40.3286133 31.0396729 37.1348877 31.0396729 35.4023438 29.7037354 35.4023438 27.2406006L35.4023438 14.4656982 44.545166 14.4656982 44.545166 11.4389648 35.3605957 11.4389648 35.3605957 5.30200195 31.8537598 5.30200195ZM58.2802734 5.30200195 58.2802734 11.4389648 52.2476807 11.4389648 52.2476807 14.4656982 58.2802734 14.4656982 58.2802734 27.2823486C58.2802734 31.9998779 60.8895264 34.1290283 66.5046387 34.1290283 67.5900879 34.1290283 70.345459 34.0246582 70.9090576 33.9202881L70.9090576 30.9144287C70.3037109 30.9770508 68.0284424 31.0396729 66.755127 31.0396729 63.5614014 31.0396729 61.8288574 29.7037354 61.8288574 27.2406006L61.8288574 14.4656982 70.9716797 14.4656982 70.9716797 11.4389648 61.7871094 11.4389648 61.7871094 5.30200195 58.2802734 5.30200195ZM89.987915 11.0006104C86.7524414 11.0006104 84.3936768 12.3365479 83.2038574 14.8414307L82.828125 14.8414307 82.828125 11.3763428 79.3212891 11.3763428 79.3212891 41.6645508 82.9324951 41.6645508 82.9324951 30.5178223 83.3291016 30.5178223C84.3101807 33.0018311 86.7106934 34.4003906 89.987915 34.4003906 95.2272949 34.4003906 98.6506348 30.6221924 98.6506348 24.8192139L98.6506348 20.6026611C98.6506348 14.7788086 95.2272949 11.0006104 89.987915 11.0006104ZM88.9650879 14.256958C92.7015381 14.256958 95.0811768 16.928833 95.0811768 21.1036377L95.0811768 24.3599854C95.0811768 28.53479 92.7015381 31.2275391 88.9650879 31.2275391 85.2286377 31.2275391 82.848999 28.5556641 82.848999 24.3599854L82.848999 21.1036377C82.848999 16.928833 85.2286377 14.256958 88.9650879 14.256958ZM114.994995 18.1186523C117.061523 18.1186523 118.773193 16.3652344 118.773193 14.256958 118.773193 12.1486816 117.061523 10.3952637 114.994995 10.3952637 112.928467 10.3952637 111.216797 12.1486816 111.216797 14.256958 111.216797 16.3652344 112.928467 18.1186523 114.994995 18.1186523ZM114.994995 34.1499023C117.061523 34.1499023 118.773193 32.4173584 118.773193 30.288208 118.773193 28.1799316 117.061523 26.4473877 114.994995 26.4473877 112.928467 26.4473877 111.216797 28.1799316 111.216797 30.288208 111.216797 32.4173584 112.928467 34.1499023 114.994995 34.1499023Z"/><polygon points="135.806 36.884 150.502 1.044 147.016 1.044 132.341 36.884"/><polygon points="162.233 36.884 176.928 1.044 173.442 1.044 158.768 36.884"/><polygon points="206.507 11.376 203.042 11.376 199.973 29.537 199.597 29.537 195.944 11.397 192.605 11.397 188.952 29.537 188.576 29.537 185.507 11.376 182.042 11.376 186.906 34.025 190.308 34.025 194.149 16.365 194.4 16.365 198.241 34.025 201.643 34.025"/><polygon points="232.933 11.376 229.468 11.376 226.4 29.537 226.024 29.537 222.371 11.397 219.031 11.397 215.378 29.537 215.002 29.537 211.934 11.376 208.469 11.376 213.333 34.025 216.735 34.025 220.576 16.365 220.826 16.365 224.667 34.025 228.07 34.025"/><polygon points="259.36 11.376 255.895 11.376 252.826 29.537 252.45 29.537 248.797 11.397 245.458 11.397 241.805 29.537 241.429 29.537 238.36 11.376 234.895 11.376 239.759 34.025 243.161 34.025 247.002 16.365 247.253 16.365 251.094 34.025 254.496 34.025"/><path d="M273.554077 34.1499023C275.620605 34.1499023 277.332275 32.4173584 277.332275 30.288208 277.332275 28.1799316 275.620605 26.4473877 273.554077 26.4473877 271.487549 26.4473877 269.775879 28.1799316 269.775879 30.288208 269.775879 32.4173584 271.487549 34.1499023 273.554077 34.1499023ZM306.09668 28.1799316C305.470459 30.1629639 303.362183 31.3736572 300.502441 31.3736572 296.640747 31.3736572 294.177612 28.7017822 294.177612 24.5478516L294.177612 23.6293945 309.603516 23.6293945 309.603516 21.416748C309.603516 14.8623047 306.138428 10.9588623 300.251953 10.9588623 294.490723 10.9588623 290.670776 14.8831787 290.670776 20.8531494L290.670776 24.2556152C290.670776 30.7056885 294.281982 34.4421387 300.502441 34.4421387 305.261719 34.4421387 308.852051 31.9163818 309.540894 28.1799316L306.09668 28.1799316ZM300.231079 14.0064697C303.884033 14.0064697 306.09668 16.6157227 306.09668 20.9366455L294.177612 20.9366455C294.177612 16.5948486 296.452881 14.0064697 300.231079 14.0064697Z"/><polygon points="326.491 25.299 332.189 34.025 336.301 34.025 328.495 22.544 336.239 11.376 332.252 11.376 326.637 19.956 326.344 19.956 320.708 11.376 316.513 11.376 324.341 22.69 316.575 34.025 320.5 34.025 326.219 25.299"/><path d="M350.537476 34.4212646C353.835571 34.4212646 356.298706 33.0644531 357.384155 30.6430664L357.739014 30.6430664 357.739014 34.0455322 361.120605 34.0455322 361.120605 18.5361328C361.120605 13.8186035 358.072998 11.1049805 352.750122 11.1049805 348.116089 11.1049805 344.609253 13.5889893 344.191772 17.2210693L347.677734 17.2210693C348.262207 15.2797852 350.099121 14.1734619 352.708374 14.1734619 355.860352 14.1734619 357.592896 15.7390137 357.592896 18.5778809L357.592896 20.6235352 351.372437 20.9366455C346.216553 21.2080078 343.335938 23.5876465 343.335938 27.595459 343.335938 31.7076416 346.216553 34.4212646 350.537476 34.4212646ZM351.560303 31.3110352C348.700562 31.3110352 346.92627 29.8498535 346.92627 27.4702148 346.92627 25.1114502 348.596191 23.7546387 351.769043 23.6085205L357.592896 23.3371582 357.592896 26.0090332C357.592896 29.0357666 354.983643 31.3110352 351.560303 31.3110352ZM390.177246 17.3463135C390.177246 13.1506348 388.528198 10.9588623 385.376221 10.9588623 383.100952 10.9588623 381.284912 12.3365479 380.700439 14.5074463L380.324707 14.5074463C379.844604 12.2739258 378.341675 10.9588623 376.212524 10.9588623 374.083374 10.9588623 372.4552 12.2947998 371.891602 14.5700684L371.515869 14.5700684 371.515869 11.3763428 368.343018 11.3763428 368.343018 34.0246582 371.536743 34.0246582 371.536743 18.744873C371.536743 15.9268799 372.789185 14.1943359 374.793091 14.1943359 376.713501 14.1943359 377.715454 15.6346436 377.715454 18.3691406L377.715454 34.0246582 380.888306 34.0246582 380.888306 18.744873C380.888306 15.9268799 382.098999 14.1943359 384.082031 14.1943359 385.981567 14.1943359 386.983521 15.6346436 386.983521 18.3900146L386.983521 34.0246582 390.177246 34.0246582 390.177246 17.3463135ZM407.106079 11.0006104C403.870605 11.0006104 401.511841 12.3365479 400.322021 14.8414307L399.946289 14.8414307 399.946289 11.3763428 396.439453 11.3763428 396.439453 41.6645508 400.050659 41.6645508 400.050659 30.5178223 400.447266 30.5178223C401.428345 33.0018311 403.828857 34.4003906 407.106079 34.4003906 412.345459 34.4003906 415.768799 30.6221924 415.768799 24.8192139L415.768799 20.6026611C415.768799 14.7788086 412.345459 11.0006104 407.106079 11.0006104ZM406.083252 14.256958C409.819702 14.256958 412.199341 16.928833 412.199341 21.1036377L412.199341 24.3599854C412.199341 28.53479 409.819702 31.2275391 406.083252 31.2275391 402.346802 31.2275391 399.967163 28.5556641 399.967163 24.3599854L399.967163 21.1036377C399.967163 16.928833 402.346802 14.256958 406.083252 14.256958Z"/><polygon points="442.007 34.025 442.007 31.081 434.535 31.081 434.535 2.484 423.304 2.484 423.304 5.427 430.986 5.427 430.986 31.081 423.242 31.081 423.242 34.025"/><path d="M464.655762 28.1799316C464.029541 30.1629639 461.921265 31.3736572 459.061523 31.3736572 455.199829 31.3736572 452.736694 28.7017822 452.736694 24.5478516L452.736694 23.6293945 468.162598 23.6293945 468.162598 21.416748C468.162598 14.8623047 464.69751 10.9588623 458.811035 10.9588623 453.049805 10.9588623 449.229858 14.8831787 449.229858 20.8531494L449.229858 24.2556152C449.229858 30.7056885 452.841064 34.4421387 459.061523 34.4421387 463.820801 34.4421387 467.411133 31.9163818 468.099976 28.1799316L464.655762 28.1799316ZM458.790161 14.0064697C462.443115 14.0064697 464.655762 16.6157227 464.655762 20.9366455L452.736694 20.9366455C452.736694 16.5948486 455.011963 14.0064697 458.790161 14.0064697ZM484.966187 34.1499023C487.032715 34.1499023 488.744385 32.4173584 488.744385 30.288208 488.744385 28.1799316 487.032715 26.4473877 484.966187 26.4473877 482.899658 26.4473877 481.187988 28.1799316 481.187988 30.288208 481.187988 32.4173584 482.899658 34.1499023 484.966187 34.1499023ZM520.827759 18.4317627C520.243286 13.7768555 516.819946 10.9379883 511.810181 10.9379883 505.652344 10.9379883 502.062012 14.7161865 502.062012 21.2080078L502.062012 24.1721191C502.062012 30.6639404 505.652344 34.4421387 511.810181 34.4421387 516.819946 34.4421387 520.26416 31.6241455 520.827759 27.0109863L517.320923 27.0109863C516.882568 29.5993652 514.669922 31.2484131 511.747559 31.2484131 507.802368 31.2484131 505.610596 28.5765381 505.610596 23.7128906L505.610596 21.6672363C505.610596 16.8035889 507.802368 14.1108398 511.747559 14.1108398 514.669922 14.1108398 516.882568 15.7807617 517.320923 18.4317627L520.827759 18.4317627ZM537.819214 34.4421387C543.810059 34.4421387 547.630005 30.5386963 547.630005 24.4226074L547.630005 20.9992676C547.630005 14.8831787 543.810059 10.9797363 537.819214 10.9797363 531.828369 10.9797363 528.008423 14.8831787 528.008423 20.9992676L528.008423 24.4226074C528.008423 30.5386963 531.828369 34.4421387 537.819214 34.4421387ZM537.819214 14.1108398C541.701782 14.1108398 544.123169 16.8662109 544.123169 21.3123779L544.123169 24.088623C544.123169 28.5556641 541.701782 31.2901611 537.819214 31.2901611 533.936646 31.2901611 531.515259 28.5556641 531.515259 24.088623L531.515259 21.3123779C531.515259 16.8662109 533.936646 14.1108398 537.819214 14.1108398ZM575.162842 17.3463135C575.162842 13.1506348 573.513794 10.9588623 570.361816 10.9588623 568.086548 10.9588623 566.270508 12.3365479 565.686035 14.5074463L565.310303 14.5074463C564.8302 12.2739258 563.327271 10.9588623 561.19812 10.9588623 559.06897 10.9588623 557.440796 12.2947998 556.877197 14.5700684L556.501465 14.5700684 556.501465 11.3763428 553.328613 11.3763428 553.328613 34.0246582 556.522339 34.0246582 556.522339 18.744873C556.522339 15.9268799 557.77478 14.1943359 559.778687 14.1943359 561.699097 14.1943359 562.70105 15.6346436 562.70105 18.3691406L562.70105 34.0246582 565.873901 34.0246582 565.873901 18.744873C565.873901 15.9268799 567.084595 14.1943359 569.067627 14.1943359 570.967163 14.1943359 571.969116 15.6346436 571.969116 18.3900146L571.969116 34.0246582 575.162842 34.0246582 575.162842 17.3463135ZM590.672241 18.1186523C592.73877 18.1186523 594.450439 16.3652344 594.450439 14.256958 594.450439 12.1486816 592.73877 10.3952637 590.672241 10.3952637 588.605713 10.3952637 586.894043 12.1486816 586.894043 14.256958 586.894043 16.3652344 588.605713 18.1186523 590.672241 18.1186523ZM590.672241 34.1499023C592.73877 34.1499023 594.450439 32.4173584 594.450439 30.288208 594.450439 28.1799316 592.73877 26.4473877 590.672241 26.4473877 588.605713 26.4473877 586.894043 28.1799316 586.894043 30.288208 586.894043 32.4173584 588.605713 34.1499023 590.672241 34.1499023ZM617.203125 34.692627C623.465332 34.692627 627.807129 31.1022949 627.807129 25.9672852 627.807129 22.1682129 625.32312 19.0579834 621.670166 18.2856445L621.670166 17.9516602C624.738647 17.0958252 626.596436 14.5283203 626.596436 11.2510986 626.596436 6.55444336 622.692993 3.23547363 617.203125 3.23547363 611.713257 3.23547363 607.78894 6.55444336 607.78894 11.2510986 607.78894 14.5283203 609.688477 17.1166992 612.71521 17.9516602L612.71521 18.2856445C608.999634 19.1832275 606.578247 22.230835 606.578247 25.9672852 606.578247 31.1022949 610.940918 34.692627 617.203125 34.692627ZM617.203125 16.6992188C613.717163 16.6992188 611.400146 14.6535645 611.400146 11.564209 611.400146 8.49572754 613.717163 6.45007324 617.203125 6.45007324 620.689087 6.45007324 622.985229 8.49572754 622.985229 11.564209 622.985229 14.6535645 620.689087 16.6992188 617.203125 16.6992188ZM617.203125 31.4989014C613.111816 31.4989014 610.293823 29.1192627 610.293823 25.6750488 610.293823 22.230835 613.111816 19.8511963 617.203125 19.8511963 621.294434 19.8511963 624.112427 22.230835 624.112427 25.6750488 624.112427 29.1192627 621.294434 31.4989014 617.203125 31.4989014ZM643.546143 34.713501C650.079712 34.713501 653.711792 29.1192627 653.711792 18.9744873 653.711792 8.82971191 650.079712 3.23547363 643.546143 3.23547363 636.991699 3.23547363 633.380493 8.82971191 633.380493 18.9744873 633.380493 29.1192627 636.991699 34.713501 643.546143 34.713501ZM637.033447 18.9744873C637.033447 10.7918701 639.287842 6.49182129 643.546143 6.49182129 646.38501 6.49182129 648.347168 8.41223145 649.328247 12.1486816L637.179565 22.293457C637.096069 21.2706299 637.033447 20.1643066 637.033447 18.9744873ZM643.546143 31.4571533C640.707275 31.4571533 638.765991 29.5367432 637.784912 25.842041L649.891846 15.6137695C649.996216 16.6574707 650.037964 17.7637939 650.037964 18.9744873 650.037964 27.1362305 647.804443 31.4571533 643.546143 31.4571533Z"/><polygon points="664.337 36.884 679.032 1.044 675.546 1.044 660.872 36.884"/><path d="M697.797729 11.0006104C694.562256 11.0006104 692.203491 12.3365479 691.013672 14.8414307L690.637939 14.8414307 690.637939 11.3763428 687.131104 11.3763428 687.131104 41.6645508 690.74231 41.6645508 690.74231 30.5178223 691.138916 30.5178223C692.119995 33.0018311 694.520508 34.4003906 697.797729 34.4003906 703.037109 34.4003906 706.460449 30.6221924 706.460449 24.8192139L706.460449 20.6026611C706.460449 14.7788086 703.037109 11.0006104 697.797729 11.0006104ZM696.774902 14.256958C700.511353 14.256958 702.890991 16.928833 702.890991 21.1036377L702.890991 24.3599854C702.890991 28.53479 700.511353 31.2275391 696.774902 31.2275391 693.038452 31.2275391 690.658813 28.5556641 690.658813 24.3599854L690.658813 21.1036377C690.658813 16.928833 693.038452 14.256958 696.774902 14.256958ZM720.508667 34.4212646C723.806763 34.4212646 726.269897 33.0644531 727.355347 30.6430664L727.710205 30.6430664 727.710205 34.0455322 731.091797 34.0455322 731.091797 18.5361328C731.091797 13.8186035 728.044189 11.1049805 722.721313 11.1049805 718.08728 11.1049805 714.580444 13.5889893 714.162964 17.2210693L717.648926 17.2210693C718.233398 15.2797852 720.070312 14.1734619 722.679565 14.1734619 725.831543 14.1734619 727.564087 15.7390137 727.564087 18.5778809L727.564087 20.6235352 721.343628 20.9366455C716.187744 21.2080078 713.307129 23.5876465 713.307129 27.595459 713.307129 31.7076416 716.187744 34.4212646 720.508667 34.4212646ZM721.531494 31.3110352C718.671753 31.3110352 716.897461 29.8498535 716.897461 27.4702148 716.897461 25.1114502 718.567383 23.7546387 721.740234 23.6085205L727.564087 23.3371582 727.564087 26.0090332C727.564087 29.0357666 724.954834 31.3110352 721.531494 31.3110352ZM745.369629 5.30200195 745.369629 11.4389648 739.337036 11.4389648 739.337036 14.4656982 745.369629 14.4656982 745.369629 27.2823486C745.369629 31.9998779 747.978882 34.1290283 753.593994 34.1290283 754.679443 34.1290283 757.434814 34.0246582 757.998413 33.9202881L757.998413 30.9144287C757.393066 30.9770508 755.117798 31.0396729 753.844482 31.0396729 750.650757 31.0396729 748.918213 29.7037354 748.918213 27.2406006L748.918213 14.4656982 758.061035 14.4656982 758.061035 11.4389648 748.876465 11.4389648 748.876465 5.30200195 745.369629 5.30200195ZM766.368896 34.0246582 769.91748 34.0246582 769.91748 20.7070312C769.91748 16.8453369 772.443237 14.236084 776.179688 14.236084 779.728271 14.236084 781.398193 16.1773682 781.398193 20.2478027L781.398193 34.0246582 784.946777 34.0246582 784.946777 19.3502197C784.946777 13.9438477 782.274902 10.9797363 777.348633 10.9797363 773.883545 10.9797363 771.274292 12.5661621 770.084473 15.3841553L769.792236 15.3841553 769.792236 2.48400879 766.368896 2.48400879 766.368896 34.0246582Z"/><polygon points="796.469 36.884 811.165 1.044 807.679 1.044 793.004 36.884"/><path d="M824.64917 5.30200195 824.64917 11.4389648 818.616577 11.4389648 818.616577 14.4656982 824.64917 14.4656982 824.64917 27.2823486C824.64917 31.9998779 827.258423 34.1290283 832.873535 34.1290283 833.958984 34.1290283 836.714355 34.0246582 837.277954 33.9202881L837.277954 30.9144287C836.672607 30.9770508 834.397339 31.0396729 833.124023 31.0396729 829.930298 31.0396729 828.197754 29.7037354 828.197754 27.2406006L828.197754 14.4656982 837.340576 14.4656982 837.340576 11.4389648 828.156006 11.4389648 828.156006 5.30200195 824.64917 5.30200195ZM854.937378 34.4421387C860.928223 34.4421387 864.748169 30.5386963 864.748169 24.4226074L864.748169 20.9992676C864.748169 14.8831787 860.928223 10.9797363 854.937378 10.9797363 848.946533 10.9797363 845.126587 14.8831787 845.126587 20.9992676L845.126587 24.4226074C845.126587 30.5386963 848.946533 34.4421387 854.937378 34.4421387ZM854.937378 14.1108398C858.819946 14.1108398 861.241333 16.8662109 861.241333 21.3123779L861.241333 24.088623C861.241333 28.5556641 858.819946 31.2901611 854.937378 31.2901611 851.05481 31.2901611 848.633423 28.5556641 848.633423 24.088623L848.633423 21.3123779C848.633423 16.8662109 851.05481 14.1108398 854.937378 14.1108398Z"/><polygon points="875.749 36.884 890.444 1.044 886.958 1.044 872.284 36.884"/><path d="M918.70752 17.3463135C918.70752 13.1506348 917.058472 10.9588623 913.906494 10.9588623 911.631226 10.9588623 909.815186 12.3365479 909.230713 14.5074463L908.85498 14.5074463C908.374878 12.2739258 906.871948 10.9588623 904.742798 10.9588623 902.613647 10.9588623 900.985474 12.2947998 900.421875 14.5700684L900.046143 14.5700684 900.046143 11.3763428 896.873291 11.3763428 896.873291 34.0246582 900.067017 34.0246582 900.067017 18.744873C900.067017 15.9268799 901.319458 14.1943359 903.323364 14.1943359 905.243774 14.1943359 906.245728 15.6346436 906.245728 18.3691406L906.245728 34.0246582 909.418579 34.0246582 909.418579 18.744873C909.418579 15.9268799 910.629272 14.1943359 912.612305 14.1943359 914.511841 14.1943359 915.513794 15.6346436 915.513794 18.3900146L915.513794 34.0246582 918.70752 34.0246582 918.70752 17.3463135ZM927.871216 42.0820312C932.066895 42.0820312 933.966431 40.4329834 935.949463 34.8596191L944.486938 11.3763428 940.70874 11.3763428 934.383911 30.3299561 934.112549 30.3299561 927.766846 11.3763428 923.905151 11.3763428 932.233887 34.1707764 931.83728 35.4023438C930.897949 38.0324707 929.729004 38.9926758 927.599854 38.9926758 927.265869 38.9926758 926.618774 38.9718018 926.347412 38.9091797L926.347412 42.0194092C926.660522 42.0611572 927.349365 42.0820312 927.871216 42.0820312ZM957.303589 34.0246582 960.852173 34.0246582 960.852173 14.4656982 970.809082 14.4656982 970.809082 11.4389648 960.810425 11.4389648 960.810425 9.10107422C960.810425 6.82580566 962.480347 5.65686035 965.632324 5.65686035 966.90564 5.65686035 969.828003 5.74035645 970.809082 5.84472656L970.809082 2.9432373C970.057617 2.83886719 966.90564 2.73449707 965.590576 2.73449707 960.017212 2.73449707 957.303589 4.78015137 957.303589 9.16369629L957.303589 11.4389648 951.229248 11.4389648 951.229248 14.4656982 957.303589 14.4656982 957.303589 34.0246582ZM987.466553 5.82385254C989.136475 5.82385254 990.40979 4.57141113 990.40979 2.90148926 990.40979 1.25244141 989.136475 0 987.466553 0 985.796631 0 984.523315 1.25244141 984.523315 2.90148926 984.523315 4.57141113 985.796631 5.82385254 987.466553 5.82385254ZM996.964233 34.0246582 996.964233 31.0814209 989.470459 31.0814209 989.470459 11.3763428 978.261108 11.3763428 978.261108 14.3195801 985.963623 14.3195801 985.963623 31.0814209 978.198486 31.0814209 978.198486 34.0246582 996.964233 34.0246582Z"/><polygon points="1023.391 34.025 1023.391 31.081 1015.918 31.081 1015.918 2.484 1004.688 2.484 1004.688 5.427 1012.369 5.427 1012.369 31.081 1004.625 31.081 1004.625 34.025"/><path d="M1046.03906 28.1799316C1045.41284 30.1629639 1043.30457 31.3736572 1040.44482 31.3736572 1036.58313 31.3736572 1034.12 28.7017822 1034.12 24.5478516L1034.12 23.6293945 1049.5459 23.6293945 1049.5459 21.416748C1049.5459 14.8623047 1046.08081 10.9588623 1040.19434 10.9588623 1034.43311 10.9588623 1030.61316 14.8831787 1030.61316 20.8531494L1030.61316 24.2556152C1030.61316 30.7056885 1034.22437 34.4421387 1040.44482 34.4421387 1045.2041 34.4421387 1048.79443 31.9163818 1049.48328 28.1799316L1046.03906 28.1799316ZM1040.17346 14.0064697C1043.82642 14.0064697 1046.03906 16.6157227 1046.03906 20.9366455L1034.12 20.9366455C1034.12 16.5948486 1036.39526 14.0064697 1040.17346 14.0064697ZM1066.34949 34.1499023C1068.41602 34.1499023 1070.12769 32.4173584 1070.12769 30.288208 1070.12769 28.1799316 1068.41602 26.4473877 1066.34949 26.4473877 1064.28296 26.4473877 1062.57129 28.1799316 1062.57129 30.288208 1062.57129 32.4173584 1064.28296 34.1499023 1066.34949 34.1499023ZM1083.48706 34.0246582 1087.03564 34.0246582 1087.03564 20.7070312C1087.03564 16.8453369 1089.5614 14.236084 1093.29785 14.236084 1096.84644 14.236084 1098.51636 16.1773682 1098.51636 20.2478027L1098.51636 34.0246582 1102.06494 34.0246582 1102.06494 19.3502197C1102.06494 13.9438477 1099.39307 10.9797363 1094.4668 10.9797363 1091.00171 10.9797363 1088.39246 12.5661621 1087.20264 15.3841553L1086.9104 15.3841553 1086.9104 2.48400879 1083.48706 2.48400879 1083.48706 34.0246582ZM1115.34082 5.30200195 1115.34082 11.4389648 1109.30823 11.4389648 1109.30823 14.4656982 1115.34082 14.4656982 1115.34082 27.2823486C1115.34082 31.9998779 1117.95007 34.1290283 1123.56519 34.1290283 1124.65063 34.1290283 1127.40601 34.0246582 1127.9696 33.9202881L1127.9696 30.9144287C1127.36426 30.9770508 1125.08899 31.0396729 1123.81567 31.0396729 1120.62195 31.0396729 1118.8894 29.7037354 1118.8894 27.2406006L1118.8894 14.4656982 1128.03223 14.4656982 1128.03223 11.4389648 1118.84766 11.4389648 1118.84766 5.30200195 1115.34082 5.30200195ZM1156.54614 17.3463135C1156.54614 13.1506348 1154.89709 10.9588623 1151.74512 10.9588623 1149.46985 10.9588623 1147.65381 12.3365479 1147.06934 14.5074463L1146.6936 14.5074463C1146.2135 12.2739258 1144.71057 10.9588623 1142.58142 10.9588623 1140.45227 10.9588623 1138.8241 12.2947998 1138.2605 14.5700684L1137.88477 14.5700684 1137.88477 11.3763428 1134.71191 11.3763428 1134.71191 34.0246582 1137.90564 34.0246582 1137.90564 18.744873C1137.90564 15.9268799 1139.15808 14.1943359 1141.16199 14.1943359 1143.0824 14.1943359 1144.08435 15.6346436 1144.08435 18.3691406L1144.08435 34.0246582 1147.2572 34.0246582 1147.2572 18.744873C1147.2572 15.9268799 1148.4679 14.1943359 1150.45093 14.1943359 1152.35046 14.1943359 1153.35242 15.6346436 1153.35242 18.3900146L1153.35242 34.0246582 1156.54614 34.0246582 1156.54614 17.3463135Z"/><polygon points="1181.95 34.025 1181.95 31.081 1174.477 31.081 1174.477 2.484 1163.247 2.484 1163.247 5.427 1170.928 5.427 1170.928 31.081 1163.184 31.081 1163.184 34.025"/></g><g fill="#E5E5EA" fill-rule="nonzero" transform="translate(32.446 317.46)"><path d="M0,9.26806641 L3.52770996,9.26806641 C3.77819824,6.28308105 5.71948242,4.46704102 8.74621582,4.46704102 C11.6685791,4.46704102 13.6724854,6.26220703 13.6724854,8.89233398 C13.6724854,11.0841064 12.7957764,12.3991699 10.3952637,13.9020996 C7.57727051,15.6346436 6.30395508,17.4924316 6.34570312,20.2686768 L6.34570312,22.1682129 L9.9777832,22.1682129 L9.9777832,20.8114014 C9.9777832,18.5987549 10.7501221,17.4506836 13.2967529,15.8851318 C16.1356201,14.1525879 17.5550537,11.7520752 17.5550537,8.70446777 C17.5550537,4.2791748 13.9438477,1.12719727 8.89233398,1.12719727 C3.67382812,1.12719727 0.250488281,4.23742676 0,9.26806641 Z M8.30786133,31.9372559 C9.89428711,31.9372559 11.1676025,30.6221924 11.1676025,28.9731445 C11.1676025,27.3240967 9.89428711,26.0090332 8.30786133,26.0090332 C6.72143555,26.0090332 5.44812012,27.3240967 5.44812012,28.9731445 C5.44812012,30.6221924 6.72143555,31.9372559 8.30786133,31.9372559 Z"/><polygon points="31.415 19.058 31.144 19.058 31.144 0 27.595 0 27.595 31.541 31.144 31.541 31.144 23.295 34.275 20.29 41.999 31.541 46.215 31.541 36.801 17.868 45.589 8.892 41.289 8.892"/><path d="M67.7362061 25.6959229C67.1099854 27.6789551 65.001709 28.8896484 62.1419678 28.8896484 58.2802734 28.8896484 55.8171387 26.2177734 55.8171387 22.0638428L55.8171387 21.1453857 71.243042 21.1453857 71.243042 18.9327393C71.243042 12.3782959 67.7779541 8.47485352 61.8914795 8.47485352 56.130249 8.47485352 52.3103027 12.3991699 52.3103027 18.3691406L52.3103027 21.7716064C52.3103027 28.2216797 55.9215088 31.9581299 62.1419678 31.9581299 66.9012451 31.9581299 70.4915771 29.432373 71.1804199 25.6959229L67.7362061 25.6959229ZM61.8706055 11.5224609C65.5235596 11.5224609 67.7362061 14.1317139 67.7362061 18.4526367L55.8171387 18.4526367C55.8171387 14.1108398 58.0924072 11.5224609 61.8706055 11.5224609ZM81.7009277 39.5980225C85.8966064 39.5980225 87.7961426 37.9489746 89.7791748 32.3756104L98.3166504 8.89233398 94.5384521 8.89233398 88.213623 27.8459473 87.9422607 27.8459473 81.5965576 8.89233398 77.7348633 8.89233398 86.0635986 31.6867676 85.6669922 32.918335C84.7276611 35.5484619 83.5587158 36.508667 81.4295654 36.508667 81.0955811 36.508667 80.4484863 36.487793 80.177124 36.4251709L80.177124 39.5354004C80.4902344 39.5771484 81.1790771 39.5980225 81.7009277 39.5980225Z"/><polygon points="125.849 31.541 125.849 28.305 117.375 28.305 117.375 1.419 113.763 1.419 104.788 7.243 104.788 11.168 113.409 5.594 113.743 5.594 113.743 28.305 104.85 28.305 104.85 31.541"/><path d="M151.942017,15.154541 L151.942017,11.7103271 L129.8573,11.7103271 L129.8573,15.154541 L151.942017,15.154541 Z M151.942017,24.6730957 L151.942017,21.2288818 L129.8573,21.2288818 L129.8573,24.6730957 L151.942017,24.6730957 Z"/><polygon points="157.098 8.892 165.385 31.541 169.288 31.541 177.554 8.892 173.776 8.892 167.493 27.742 167.222 27.742 160.897 8.892"/><path d="M191.456543,31.9372559 C194.754639,31.9372559 197.217773,30.5804443 198.303223,28.1590576 L198.658081,28.1590576 L198.658081,31.5615234 L202.039673,31.5615234 L202.039673,16.052124 C202.039673,11.3345947 198.992065,8.62097168 193.669189,8.62097168 C189.035156,8.62097168 185.52832,11.1049805 185.11084,14.7370605 L188.596802,14.7370605 C189.181274,12.7957764 191.018188,11.6894531 193.627441,11.6894531 C196.779419,11.6894531 198.511963,13.2550049 198.511963,16.0938721 L198.511963,18.1395264 L192.291504,18.4526367 C187.13562,18.723999 184.255005,21.1036377 184.255005,25.1114502 C184.255005,29.2236328 187.13562,31.9372559 191.456543,31.9372559 Z M192.47937,28.8270264 C189.619629,28.8270264 187.845337,27.3658447 187.845337,24.9862061 C187.845337,22.6274414 189.515259,21.2706299 192.68811,21.1245117 L198.511963,20.8531494 L198.511963,23.5250244 C198.511963,26.5517578 195.90271,28.8270264 192.47937,28.8270264 Z"/><polygon points="230.073 31.541 230.073 28.597 222.601 28.597 222.601 0 211.37 0 211.37 2.943 219.052 2.943 219.052 28.597 211.308 28.597 211.308 31.541"/><path d="M255.873779 8.89233398 252.325195 8.89233398 252.325195 22.230835C252.325195 26.0925293 249.820312 28.7017822 246.083862 28.7017822 242.556152 28.7017822 240.88623 26.7813721 240.88623 22.6900635L240.88623 8.89233398 237.337646 8.89233398 237.337646 23.5876465C237.337646 29.0148926 240.009521 31.9581299 244.935791 31.9581299 248.380005 31.9581299 250.968384 30.3717041 252.179077 27.5537109L252.471313 27.5537109 252.471313 31.5406494 255.873779 31.5406494 255.873779 8.89233398ZM279.148315 25.6959229C278.522095 27.6789551 276.413818 28.8896484 273.554077 28.8896484 269.692383 28.8896484 267.229248 26.2177734 267.229248 22.0638428L267.229248 21.1453857 282.655151 21.1453857 282.655151 18.9327393C282.655151 12.3782959 279.190063 8.47485352 273.303589 8.47485352 267.542358 8.47485352 263.722412 12.3991699 263.722412 18.3691406L263.722412 21.7716064C263.722412 28.2216797 267.333618 31.9581299 273.554077 31.9581299 278.313354 31.9581299 281.903687 29.432373 282.592529 25.6959229L279.148315 25.6959229ZM273.282715 11.5224609C276.935669 11.5224609 279.148315 14.1317139 279.148315 18.4526367L267.229248 18.4526367C267.229248 14.1108398 269.504517 11.5224609 273.282715 11.5224609Z"/><polygon points="310.835 31.541 310.835 28.305 302.36 28.305 302.36 1.419 298.749 1.419 289.773 7.243 289.773 11.168 298.394 5.594 298.728 5.594 298.728 28.305 289.836 28.305 289.836 31.541"/><path d="M333.984375,31.5406494 L338.117432,31.5406494 L333.462524,25.8837891 C334.881958,23.3997803 335.612549,20.3521729 335.737793,16.6574707 L335.737793,16.3443604 L332.71106,16.3443604 L332.71106,16.5322266 C332.627563,19.3293457 332.230957,21.4793701 331.458618,23.2954102 L324.966797,15.133667 C329.099854,12.4200439 330.581909,10.2700195 330.581909,7.24328613 C330.581909,3.42333984 327.847412,0.793212891 323.923096,0.793212891 C319.957031,0.793212891 317.180786,3.42333984 317.180786,7.24328613 C317.180786,9.41418457 318.266235,11.7938232 320.562378,14.5909424 L319.602173,15.2380371 C315.928345,17.6385498 314.133179,20.4356689 314.133179,23.7337646 C314.133179,28.6391602 317.827881,32.083374 323.109009,32.083374 C326.365356,32.083374 329.204224,30.8518066 331.583862,28.4512939 L333.984375,31.5406494 Z M323.902222,3.71557617 C325.947876,3.71557617 327.492554,5.23937988 327.492554,7.28503418 C327.492554,9.49768066 326.448853,10.9379883 323.192505,13.0880127 C321.105103,10.5831299 320.31189,8.97583008 320.31189,7.28503418 C320.31189,5.23937988 321.856567,3.71557617 323.902222,3.71557617 Z M321.501709,17.4298096 L322.33667,16.887085 L329.767822,26.1760254 C328.244019,27.9920654 325.927002,28.9731445 323.234253,28.9731445 C319.790039,28.9731445 317.473022,26.8022461 317.473022,23.5667725 C317.473022,21.1036377 318.746338,19.1414795 321.501709,17.4298096 Z"/><polygon points="348.534 19.058 348.262 19.058 348.262 0 344.714 0 344.714 31.541 348.262 31.541 348.262 23.295 351.393 20.29 359.117 31.541 363.333 31.541 353.919 17.868 362.707 8.892 358.407 8.892"/><path d="M384.85437 25.6959229C384.228149 27.6789551 382.119873 28.8896484 379.260132 28.8896484 375.398438 28.8896484 372.935303 26.2177734 372.935303 22.0638428L372.935303 21.1453857 388.361206 21.1453857 388.361206 18.9327393C388.361206 12.3782959 384.896118 8.47485352 379.009644 8.47485352 373.248413 8.47485352 369.428467 12.3991699 369.428467 18.3691406L369.428467 21.7716064C369.428467 28.2216797 373.039673 31.9581299 379.260132 31.9581299 384.019409 31.9581299 387.609741 29.432373 388.298584 25.6959229L384.85437 25.6959229ZM378.98877 11.5224609C382.641724 11.5224609 384.85437 14.1317139 384.85437 18.4526367L372.935303 18.4526367C372.935303 14.1108398 375.210571 11.5224609 378.98877 11.5224609ZM398.819092 39.5980225C403.014771 39.5980225 404.914307 37.9489746 406.897339 32.3756104L415.434814 8.89233398 411.656616 8.89233398 405.331787 27.8459473 405.060425 27.8459473 398.714722 8.89233398 394.853027 8.89233398 403.181763 31.6867676 402.785156 32.918335C401.845825 35.5484619 400.67688 36.508667 398.547729 36.508667 398.213745 36.508667 397.56665 36.487793 397.295288 36.4251709L397.295288 39.5354004C397.608398 39.5771484 398.297241 39.5980225 398.819092 39.5980225ZM421.989258 9.89428711 421.989258 10.0195312 425.537842 10.0195312 425.537842 9.89428711C425.537842 6.34570312 427.833984 4.02868652 431.299072 4.02868652 434.805908 4.02868652 437.081177 6.15783691 437.081177 9.39331055 437.081177 11.7729492 436.16272 13.380249 432.342773 17.6594238L422.15625 28.9940186 422.15625 31.5406494 441.214233 31.5406494 441.214233 28.2008057 427.416504 28.2008057 427.416504 27.8459473 434.513672 20.1225586C439.314697 14.8831787 440.734131 12.3782959 440.734131 9.24719238 440.734131 4.21655273 436.935059.793212891 431.403442.793212891 425.913574.793212891 421.989258 4.59228516 421.989258 9.89428711ZM469.060181 15.154541 469.060181 11.7103271 446.975464 11.7103271 446.975464 15.154541 469.060181 15.154541ZM469.060181 24.6730957 469.060181 21.2288818 446.975464 21.2288818 446.975464 24.6730957 469.060181 24.6730957Z"/><polygon points="474.216 8.892 482.503 31.541 486.406 31.541 494.673 8.892 490.894 8.892 484.611 27.742 484.34 27.742 478.015 8.892"/><path d="M508.574707,31.9372559 C511.872803,31.9372559 514.335938,30.5804443 515.421387,28.1590576 L515.776245,28.1590576 L515.776245,31.5615234 L519.157837,31.5615234 L519.157837,16.052124 C519.157837,11.3345947 516.110229,8.62097168 510.787354,8.62097168 C506.15332,8.62097168 502.646484,11.1049805 502.229004,14.7370605 L505.714966,14.7370605 C506.299438,12.7957764 508.136353,11.6894531 510.745605,11.6894531 C513.897583,11.6894531 515.630127,13.2550049 515.630127,16.0938721 L515.630127,18.1395264 L509.409668,18.4526367 C504.253784,18.723999 501.373169,21.1036377 501.373169,25.1114502 C501.373169,29.2236328 504.253784,31.9372559 508.574707,31.9372559 Z M509.597534,28.8270264 C506.737793,28.8270264 504.963501,27.3658447 504.963501,24.9862061 C504.963501,22.6274414 506.633423,21.2706299 509.806274,21.1245117 L515.630127,20.8531494 L515.630127,23.5250244 C515.630127,26.5517578 513.020874,28.8270264 509.597534,28.8270264 Z"/><polygon points="547.192 31.541 547.192 28.597 539.719 28.597 539.719 0 528.489 0 528.489 2.943 536.17 2.943 536.17 28.597 528.426 28.597 528.426 31.541"/><path d="M572.991943 8.89233398 569.443359 8.89233398 569.443359 22.230835C569.443359 26.0925293 566.938477 28.7017822 563.202026 28.7017822 559.674316 28.7017822 558.004395 26.7813721 558.004395 22.6900635L558.004395 8.89233398 554.455811 8.89233398 554.455811 23.5876465C554.455811 29.0148926 557.127686 31.9581299 562.053955 31.9581299 565.498169 31.9581299 568.086548 30.3717041 569.297241 27.5537109L569.589478 27.5537109 569.589478 31.5406494 572.991943 31.5406494 572.991943 8.89233398ZM596.266479 25.6959229C595.640259 27.6789551 593.531982 28.8896484 590.672241 28.8896484 586.810547 28.8896484 584.347412 26.2177734 584.347412 22.0638428L584.347412 21.1453857 599.773315 21.1453857 599.773315 18.9327393C599.773315 12.3782959 596.308228 8.47485352 590.421753 8.47485352 584.660522 8.47485352 580.840576 12.3991699 580.840576 18.3691406L580.840576 21.7716064C580.840576 28.2216797 584.451782 31.9581299 590.672241 31.9581299 595.431519 31.9581299 599.021851 29.432373 599.710693 25.6959229L596.266479 25.6959229ZM590.400879 11.5224609C594.053833 11.5224609 596.266479 14.1317139 596.266479 18.4526367L584.347412 18.4526367C584.347412 14.1108398 586.622681 11.5224609 590.400879 11.5224609ZM606.974854 9.89428711 606.974854 10.0195312 610.523438 10.0195312 610.523438 9.89428711C610.523438 6.34570312 612.81958 4.02868652 616.284668 4.02868652 619.791504 4.02868652 622.066772 6.15783691 622.066772 9.39331055 622.066772 11.7729492 621.148315 13.380249 617.328369 17.6594238L607.141846 28.9940186 607.141846 31.5406494 626.199829 31.5406494 626.199829 28.2008057 612.4021 28.2008057 612.4021 27.8459473 619.499268 20.1225586C624.300293 14.8831787 625.719727 12.3782959 625.719727 9.24719238 625.719727 4.21655273 621.920654.793212891 616.389038.793212891 610.89917.793212891 606.974854 4.59228516 606.974854 9.89428711ZM654.108398 12.7749023 654.734619 9.7064209 650.351074 9.7064209 652.020996 1.41943359 649.036011 1.41943359 647.366089 9.7064209 641.208252 9.7064209 642.8573 1.41943359 639.872314 1.41943359 638.223267 9.7064209 633.839722 9.7064209 633.234375 12.7749023 637.61792 12.7749023 636.240234 19.8511963 631.856689 19.8511963 631.209595 22.9614258 635.59314 22.9614258 633.88147 31.5406494 636.866455 31.5406494 638.557251 22.9614258 644.735962 22.9614258 643.024292 31.5406494 646.009277 31.5406494 647.720947 22.9614258 652.104492 22.9614258 652.709839 19.8511963 648.326294 19.8511963 649.724854 12.7749023 654.108398 12.7749023ZM640.540283 12.7122803 646.80249 12.7122803 645.383057 19.9346924 639.141724 19.9346924 640.540283 12.7122803ZM659.118164 23.5250244C659.431274 28.8687744 663.501709 32.1668701 669.722168 32.1668701 676.026123 32.1668701 680.096558 28.7226562 680.096558 23.3162842 680.096558 18.7866211 677.633423 16.2399902 671.788696 14.7996826L669.158569 14.1317139C665.234253 13.1506348 663.564331 11.6477051 663.564331 9.03845215 663.564331 5.9699707 665.881348 4.13305664 669.743042 4.13305664 673.291626 4.13305664 675.587769 5.9699707 675.963501 9.0802002L679.553833 9.0802002C679.303345 4.07043457 675.399902.793212891 669.722168.793212891 663.710449.793212891 659.848755 4.11218262 659.848755 9.24719238 659.848755 13.6098633 662.374512 16.2608643 667.96875 17.6802979L670.557129 18.3273926C674.627563 19.3293457 676.380981 20.8948975 676.380981 23.5041504 676.380981 26.739624 673.750854 28.8270264 669.743042 28.8270264 665.735229 28.8270264 663.084229 26.8231201 662.708496 23.5250244L659.118164 23.5250244ZM695.856445 31.9581299C701.84729 31.9581299 705.667236 28.0546875 705.667236 21.9385986L705.667236 18.5152588C705.667236 12.3991699 701.84729 8.49572754 695.856445 8.49572754 689.865601 8.49572754 686.045654 12.3991699 686.045654 18.5152588L686.045654 21.9385986C686.045654 28.0546875 689.865601 31.9581299 695.856445 31.9581299ZM695.856445 11.6268311C699.739014 11.6268311 702.1604 14.3822021 702.1604 18.8283691L702.1604 21.6046143C702.1604 26.0716553 699.739014 28.8061523 695.856445 28.8061523 691.973877 28.8061523 689.55249 26.0716553 689.55249 21.6046143L689.55249 18.8283691C689.55249 14.3822021 691.973877 11.6268311 695.856445 11.6268311ZM733.200073 14.8623047C733.200073 10.666626 731.551025 8.47485352 728.399048 8.47485352 726.123779 8.47485352 724.307739 9.85253906 723.723267 12.0234375L723.347534 12.0234375C722.867432 9.78991699 721.364502 8.47485352 719.235352 8.47485352 717.106201 8.47485352 715.478027 9.81079102 714.914429 12.0860596L714.538696 12.0860596 714.538696 8.89233398 711.365845 8.89233398 711.365845 31.5406494 714.55957 31.5406494 714.55957 16.2608643C714.55957 13.4428711 715.812012 11.7103271 717.815918 11.7103271 719.736328 11.7103271 720.738281 13.1506348 720.738281 15.8851318L720.738281 31.5406494 723.911133 31.5406494 723.911133 16.2608643C723.911133 13.4428711 725.121826 11.7103271 727.104858 11.7103271 729.004395 11.7103271 730.006348 13.1506348 730.006348 15.9060059L730.006348 31.5406494 733.200073 31.5406494 733.200073 14.8623047ZM754.825562 25.6959229C754.199341 27.6789551 752.091064 28.8896484 749.231323 28.8896484 745.369629 28.8896484 742.906494 26.2177734 742.906494 22.0638428L742.906494 21.1453857 758.332397 21.1453857 758.332397 18.9327393C758.332397 12.3782959 754.86731 8.47485352 748.980835 8.47485352 743.219604 8.47485352 739.399658 12.3991699 739.399658 18.3691406L739.399658 21.7716064C739.399658 28.2216797 743.010864 31.9581299 749.231323 31.9581299 753.990601 31.9581299 757.580933 29.432373 758.269775 25.6959229L754.825562 25.6959229ZM748.959961 11.5224609C752.612915 11.5224609 754.825562 14.1317139 754.825562 18.4526367L742.906494 18.4526367C742.906494 14.1108398 745.181763 11.5224609 748.959961 11.5224609Z"/><polygon points="787.368 8.892 783.903 8.892 780.835 27.053 780.459 27.053 776.806 8.913 773.466 8.913 769.813 27.053 769.437 27.053 766.369 8.892 762.904 8.892 767.767 31.541 771.17 31.541 775.011 13.881 775.261 13.881 779.102 31.541 782.505 31.541"/><path d="M792.27356 31.5406494 795.822144 31.5406494 795.822144 18.2230225C795.822144 14.3613281 798.3479 11.7520752 802.084351 11.7520752 805.632935 11.7520752 807.302856 13.6933594 807.302856 17.7637939L807.302856 31.5406494 810.85144 31.5406494 810.85144 16.8662109C810.85144 11.4598389 808.179565 8.49572754 803.253296 8.49572754 799.788208 8.49572754 797.178955 10.0821533 795.989136 12.9001465L795.696899 12.9001465 795.696899 0 792.27356 0 792.27356 31.5406494ZM834.105103 25.6959229C833.478882 27.6789551 831.370605 28.8896484 828.510864 28.8896484 824.64917 28.8896484 822.186035 26.2177734 822.186035 22.0638428L822.186035 21.1453857 837.611938 21.1453857 837.611938 18.9327393C837.611938 12.3782959 834.146851 8.47485352 828.260376 8.47485352 822.499146 8.47485352 818.679199 12.3991699 818.679199 18.3691406L818.679199 21.7716064C818.679199 28.2216797 822.290405 31.9581299 828.510864 31.9581299 833.270142 31.9581299 836.860474 29.432373 837.549316 25.6959229L834.105103 25.6959229ZM828.239502 11.5224609C831.892456 11.5224609 834.105103 14.1317139 834.105103 18.4526367L822.186035 18.4526367C822.186035 14.1108398 824.461304 11.5224609 828.239502 11.5224609ZM853.517944 21.395874C853.517944 15.6346436 856.482056 12.1695557 861.491821 12.1695557 862.723389 12.1695557 864.18457 12.4200439 865.228271 12.7957764L865.228271 8.80883789C864.476807 8.49572754 863.245239 8.30786133 861.95105 8.30786133 857.588379 8.30786133 854.770386 10.4787598 853.935425 14.6744385L853.476196 14.6744385 853.476196 8.89233398 845.022217 8.89233398 845.022217 11.7312012 850.052856 11.7312012 850.052856 28.7017822 845.481445 28.7017822 845.481445 31.5406494 860.531616 31.5406494 860.531616 28.7017822 853.517944 28.7017822 853.517944 21.395874ZM886.95813 25.6959229C886.331909 27.6789551 884.223633 28.8896484 881.363892 28.8896484 877.502197 28.8896484 875.039062 26.2177734 875.039062 22.0638428L875.039062 21.1453857 890.464966 21.1453857 890.464966 18.9327393C890.464966 12.3782959 886.999878 8.47485352 881.113403 8.47485352 875.352173 8.47485352 871.532227 12.3991699 871.532227 18.3691406L871.532227 21.7716064C871.532227 28.2216797 875.143433 31.9581299 881.363892 31.9581299 886.123169 31.9581299 889.713501 29.432373 890.402344 25.6959229L886.95813 25.6959229ZM881.092529 11.5224609C884.745483 11.5224609 886.95813 14.1317139 886.95813 18.4526367L875.039062 18.4526367C875.039062 14.1108398 877.314331 11.5224609 881.092529 11.5224609Z"/><polygon points="915.201 31.541 915.201 28.263 909.105 28.263 909.105 4.697 915.201 4.697 915.201 1.419 899.336 1.419 899.336 4.697 905.432 4.697 905.432 28.263 899.336 28.263 899.336 31.541"/><path d="M924.427002,31.5406494 L927.975586,31.5406494 L927.975586,18.2021484 C927.975586,14.3404541 930.480469,11.7312012 934.216919,11.7312012 C937.744629,11.7312012 939.414551,13.6516113 939.414551,17.7429199 L939.414551,31.5406494 L942.963135,31.5406494 L942.963135,16.8453369 C942.963135,11.4180908 940.29126,8.47485352 935.36499,8.47485352 C931.920776,8.47485352 929.332397,10.0612793 928.121704,12.8792725 L927.829468,12.8792725 L927.829468,8.89233398 L924.427002,8.89233398 L924.427002,31.5406494 Z"/><polygon points="961.958 31.541 961.958 4.801 971.06 4.801 971.06 1.419 949.184 1.419 949.184 4.801 958.285 4.801 958.285 31.541"/><path d="M977.259155 31.5406494 980.807739 31.5406494 980.807739 18.2230225C980.807739 14.3613281 983.333496 11.7520752 987.069946 11.7520752 990.61853 11.7520752 992.288452 13.6933594 992.288452 17.7637939L992.288452 31.5406494 995.837036 31.5406494 995.837036 16.8662109C995.837036 11.4598389 993.165161 8.49572754 988.238892 8.49572754 984.773804 8.49572754 982.164551 10.0821533 980.974731 12.9001465L980.682495 12.9001465 980.682495 0 977.259155 0 977.259155 31.5406494ZM1019.0907 25.6959229C1018.46448 27.6789551 1016.3562 28.8896484 1013.49646 28.8896484 1009.63477 28.8896484 1007.17163 26.2177734 1007.17163 22.0638428L1007.17163 21.1453857 1022.59753 21.1453857 1022.59753 18.9327393C1022.59753 12.3782959 1019.13245 8.47485352 1013.24597 8.47485352 1007.48474 8.47485352 1003.66479 12.3991699 1003.66479 18.3691406L1003.66479 21.7716064C1003.66479 28.2216797 1007.276 31.9581299 1013.49646 31.9581299 1018.25574 31.9581299 1021.84607 29.432373 1022.53491 25.6959229L1019.0907 25.6959229ZM1013.2251 11.5224609C1016.87805 11.5224609 1019.0907 14.1317139 1019.0907 18.4526367L1007.17163 18.4526367C1007.17163 14.1108398 1009.4469 11.5224609 1013.2251 11.5224609ZM1029.52771 1.41943359 1029.52771 31.5406494 1037.96082 31.5406494C1046.49829 31.5406494 1050.79834 26.4891357 1050.79834 16.4278564 1050.79834 6.45007324 1046.49829 1.41943359 1037.96082 1.41943359L1029.52771 1.41943359ZM1033.22241 4.80102539 1037.62683 4.80102539C1043.99341 4.80102539 1047.04102 8.55834961 1047.04102 16.4487305 1047.04102 24.4226074 1044.01428 28.1590576 1037.62683 28.1590576L1033.22241 28.1590576 1033.22241 4.80102539ZM1065.82764 31.9581299C1071.81848 31.9581299 1075.63843 28.0546875 1075.63843 21.9385986L1075.63843 18.5152588C1075.63843 12.3991699 1071.81848 8.49572754 1065.82764 8.49572754 1059.83679 8.49572754 1056.01685 12.3991699 1056.01685 18.5152588L1056.01685 21.9385986C1056.01685 28.0546875 1059.83679 31.9581299 1065.82764 31.9581299ZM1065.82764 11.6268311C1069.71021 11.6268311 1072.13159 14.3822021 1072.13159 18.8283691L1072.13159 21.6046143C1072.13159 26.0716553 1069.71021 28.8061523 1065.82764 28.8061523 1061.94507 28.8061523 1059.52368 26.0716553 1059.52368 21.6046143L1059.52368 18.8283691C1059.52368 14.3822021 1061.94507 11.6268311 1065.82764 11.6268311ZM1101.68921 15.9477539C1101.10474 11.2928467 1097.6814 8.45397949 1092.67163 8.45397949 1086.51379 8.45397949 1082.92346 12.2321777 1082.92346 18.723999L1082.92346 21.6881104C1082.92346 28.1799316 1086.51379 31.9581299 1092.67163 31.9581299 1097.6814 31.9581299 1101.12561 29.1401367 1101.68921 24.5269775L1098.18237 24.5269775C1097.74402 27.1153564 1095.53137 28.7644043 1092.60901 28.7644043 1088.66382 28.7644043 1086.47205 26.0925293 1086.47205 21.2288818L1086.47205 19.1832275C1086.47205 14.3195801 1088.66382 11.6268311 1092.60901 11.6268311 1095.53137 11.6268311 1097.74402 13.2967529 1098.18237 15.9477539L1101.68921 15.9477539ZM1127.94873 8.89233398 1124.40015 8.89233398 1124.40015 22.230835C1124.40015 26.0925293 1121.89526 28.7017822 1118.15881 28.7017822 1114.6311 28.7017822 1112.96118 26.7813721 1112.96118 22.6900635L1112.96118 8.89233398 1109.4126 8.89233398 1109.4126 23.5876465C1109.4126 29.0148926 1112.08447 31.9581299 1117.01074 31.9581299 1120.45496 31.9581299 1123.04333 30.3717041 1124.25403 27.5537109L1124.54626 27.5537109 1124.54626 31.5406494 1127.94873 31.5406494 1127.94873 8.89233398ZM1156.02429 14.8623047C1156.02429 10.666626 1154.37524 8.47485352 1151.22327 8.47485352 1148.948 8.47485352 1147.13196 9.85253906 1146.54749 12.0234375L1146.17175 12.0234375C1145.69165 9.78991699 1144.18872 8.47485352 1142.05957 8.47485352 1139.93042 8.47485352 1138.30225 9.81079102 1137.73865 12.0860596L1137.36292 12.0860596 1137.36292 8.89233398 1134.19006 8.89233398 1134.19006 31.5406494 1137.38379 31.5406494 1137.38379 16.2608643C1137.38379 13.4428711 1138.63623 11.7103271 1140.64014 11.7103271 1142.56055 11.7103271 1143.5625 13.1506348 1143.5625 15.8851318L1143.5625 31.5406494 1146.73535 31.5406494 1146.73535 16.2608643C1146.73535 13.4428711 1147.94604 11.7103271 1149.92908 11.7103271 1151.82861 11.7103271 1152.83057 13.1506348 1152.83057 15.9060059L1152.83057 31.5406494 1156.02429 31.5406494 1156.02429 14.8623047ZM1177.64978 25.6959229C1177.02356 27.6789551 1174.91528 28.8896484 1172.05554 28.8896484 1168.19385 28.8896484 1165.73071 26.2177734 1165.73071 22.0638428L1165.73071 21.1453857 1181.15662 21.1453857 1181.15662 18.9327393C1181.15662 12.3782959 1177.69153 8.47485352 1171.80505 8.47485352 1166.04382 8.47485352 1162.22388 12.3991699 1162.22388 18.3691406L1162.22388 21.7716064C1162.22388 28.2216797 1165.83508 31.9581299 1172.05554 31.9581299 1176.81482 31.9581299 1180.40515 29.432373 1181.09399 25.6959229L1177.64978 25.6959229ZM1171.78418 11.5224609C1175.43713 11.5224609 1177.64978 14.1317139 1177.64978 18.4526367L1165.73071 18.4526367C1165.73071 14.1108398 1168.00598 11.5224609 1171.78418 11.5224609ZM1188.69214 31.5406494 1192.24072 31.5406494 1192.24072 18.2021484C1192.24072 14.3404541 1194.74561 11.7312012 1198.48206 11.7312012 1202.00977 11.7312012 1203.67969 13.6516113 1203.67969 17.7429199L1203.67969 31.5406494 1207.22827 31.5406494 1207.22827 16.8453369C1207.22827 11.4180908 1204.5564 8.47485352 1199.63013 8.47485352 1196.18591 8.47485352 1193.59753 10.0612793 1192.38684 12.8792725L1192.0946 12.8792725 1192.0946 8.89233398 1188.69214 8.89233398 1188.69214 31.5406494ZM1220.52502 2.81799316 1220.52502 8.95495605 1214.49243 8.95495605 1214.49243 11.9816895 1220.52502 11.9816895 1220.52502 24.7983398C1220.52502 29.5158691 1223.13428 31.6450195 1228.74939 31.6450195 1229.83484 31.6450195 1232.59021 31.5406494 1233.15381 31.4362793L1233.15381 28.4304199C1232.54846 28.493042 1230.27319 28.5556641 1228.99988 28.5556641 1225.80615 28.5556641 1224.07361 27.2197266 1224.07361 24.7565918L1224.07361 11.9816895 1233.21643 11.9816895 1233.21643 8.95495605 1224.03186 8.95495605 1224.03186 2.81799316 1220.52502 2.81799316Z"/></g></g></svg>