<svg xmlns="http://www.w3.org/2000/svg" width="800" height="150" viewBox="0 0 800 150"><defs><linearGradient id="a" x1="100%" x2="0%" y1="50%" y2="50%"><stop offset="0%" stop-color="#FFF"/><stop offset="100%" stop-color="#FFF" stop-opacity="0"/></linearGradient></defs><g fill="none" fill-rule="evenodd"><rect width="800" height="150" fill="#FFF"/><g transform="translate(-85 -41)"><g transform="translate(607 49.05)"><path fill="#000" fill-rule="nonzero" d="M.09 5.85.09 7.2 10.17 7.2 10.17 5.85.09 5.85ZM1.2 9.03C1.98 12.57 2.61 17.16 2.76 20.22L3.96 20.04C3.84 16.95 3.18 12.39 2.4 8.82L1.2 9.03ZM3.27.69C4.05 2.1 4.98 3.99 5.37 5.22L6.69 4.71C6.3 3.51 5.37 1.65 4.5.27L3.27.69ZM10.92 15.51 10.92 27.21 12.27 27.21 12.27 16.83 15.54 16.83 15.54 26.91 16.8 26.91 16.8 16.83 20.25 16.83 20.25 26.79 21.51 26.79 21.51 16.83 24.96 16.83 24.96 25.71C24.96 25.98 24.87 26.07 24.63 26.07 24.36 26.07 23.52 26.07 22.53 26.04 22.71 26.4 22.92 26.91 23.01 27.24 24.39 27.24 25.14 27.24 25.68 27 26.19 26.82 26.31 26.43 26.31 25.71L26.31 15.51 18.3 15.51 19.17 12.24 27.03 12.24 27.03 10.89 9.81 10.89 9.81 12.24 17.55 12.24C17.37 13.29 17.13 14.52 16.89 15.51L10.92 15.51ZM11.25 1.5 11.25 8.28 25.95 8.28 25.95 1.5 24.54 1.5 24.54 6.93 19.02 6.93 19.02 0 17.61 0 17.61 6.93 12.63 6.93 12.63 1.5 11.25 1.5ZM7.68 8.52C7.26 12.3 6.42 17.88 5.61 21.21 3.48 21.75 1.5 22.26 0 22.59L.39 24.06C3.18 23.31 6.87 22.35 10.47 21.39L10.29 20.01 6.84 20.88C7.65 17.55 8.46 12.51 9.03 8.79L7.68 8.52ZM32.61 3.21 32.61 26.4 34.11 26.4 34.11 23.76 52.86 23.76 52.86 26.19 54.39 26.19 54.39 3.21 32.61 3.21ZM34.11 22.26 34.11 4.65 52.86 4.65 52.86 22.26 34.11 22.26Z" transform="translate(52.56 106.01)"/><path fill="#F7B500" d="M7.6916556,74 C5.01709938,74 4.04724067,73.7215232 3.06946289,73.1986019 C2.09168511,72.6756806 1.32431939,71.9083149 0.801398111,70.9305371 C0.278476833,69.9527593 1.2037061e-16,68.9829006 -2.07168062e-16,66.3083444 L2.07168062e-16,7.6916556 C-1.2037061e-16,5.01709938 0.278476833,4.04724067 0.801398111,3.06946289 C1.32431939,2.09168511 2.09168511,1.32431939 3.06946289,0.801398111 C4.04724067,0.278476833 5.01709938,1.80555915e-16 7.6916556,-3.10752092e-16 L46.3083444,3.10752092e-16 C48.9829006,-1.80555915e-16 49.9527593,0.278476833 50.9305371,0.801398111 C51.9083149,1.32431939 52.6756806,2.09168511 53.1986019,3.06946289 C53.7215232,4.04724067 54,5.01709938 54,7.6916556 L54,66.3083444 C54,68.9829006 53.7215232,69.9527593 53.1986019,70.9305371 C52.6756806,71.9083149 51.9083149,72.6756806 50.9305371,73.1986019 C49.9527593,73.7215232 48.9829006,74 46.3083444,74 L16,74 L16,116 L21.999,116 L22,104 L46,119 L22,134 L21.999,122 L10,122 L10,74 L7.6916556,74 Z" opacity=".5"/></g><g fill="#000" fill-rule="nonzero" opacity=".2" transform="translate(7.048 63.53)"><path d="M79.244 44.44 79.244 12.32 83.204 12.32 83.204 16.94 83.996 16.94 83.204 17.864C83.204 16.016 83.8126667 14.5566667 85.03 13.486 86.2473333 12.4153333 87.8533333 11.88 89.848 11.88 92.2826667 11.88 94.226 12.6793333 95.678 14.278 97.13 15.8766667 97.856 18.0693333 97.856 20.856L97.856 27.94C97.856 29.788 97.526 31.3866667 96.866 32.736 96.206 34.0853333 95.282 35.1266667 94.094 35.86 92.906 36.5933333 91.4906667 36.96 89.848 36.96 87.8826667 36.96 86.284 36.4173333 85.052 35.332 83.82 34.2466667 83.204 32.7946667 83.204 30.976L83.996 31.9 83.116 31.9 83.204 37.4 83.204 44.44 79.244 44.44ZM88.528 33.528C90.2 33.528 91.5126667 33.0293333 92.466 32.032 93.4193333 31.0346667 93.896 29.5973333 93.896 27.72L93.896 21.12C93.896 19.2426667 93.4193333 17.8053333 92.466 16.808 91.5126667 15.8106667 90.2 15.312 88.528 15.312 86.9146667 15.312 85.624 15.8253333 84.656 16.852 83.688 17.8786667 83.204 19.3013333 83.204 21.12L83.204 27.72C83.204 29.5386667 83.688 30.9613333 84.656 31.988 85.624 33.0146667 86.9146667 33.528 88.528 33.528ZM114.752 18.48C113.666667 18.48 112.786667 18.1793333 112.112 17.578 111.437333 16.9766667 111.1 16.1773333 111.1 15.18 111.1 14.1826667 111.437333 13.3833333 112.112 12.782 112.786667 12.1806667 113.666667 11.88 114.752 11.88 115.866667 11.88 116.754 12.1806667 117.414 12.782 118.074 13.3833333 118.404 14.1826667 118.404 15.18 118.404 16.1773333 118.074 16.9766667 117.414 17.578 116.754 18.1793333 115.866667 18.48 114.752 18.48ZM114.752 36.96C113.666667 36.96 112.786667 36.6593333 112.112 36.058 111.437333 35.4566667 111.1 34.6573333 111.1 33.66 111.1 32.6626667 111.437333 31.8633333 112.112 31.262 112.786667 30.6606667 113.666667 30.36 114.752 30.36 115.866667 30.36 116.754 30.6606667 117.414 31.262 118.074 31.8633333 118.404 32.6626667 118.404 33.66 118.404 34.6573333 118.074 35.4566667 117.414 36.058 116.754 36.6593333 115.866667 36.96 114.752 36.96ZM154.352 41.36 169.972 0 174.152 0 158.532 41.36 154.352 41.36ZM134.552 41.36 150.172 0 154.352 0 138.732 41.36 134.552 41.36Z"/><g transform="translate(659.252)"><polygon points="0 41.36 15.62 0 19.8 0 4.18 41.36"/><path d="M27.192 44.44 27.192 12.32 31.152 12.32 31.152 16.94 31.944 16.94 31.152 17.864C31.152 16.016 31.7606667 14.5566667 32.978 13.486 34.1953333 12.4153333 35.8013333 11.88 37.796 11.88 40.2306667 11.88 42.174 12.6793333 43.626 14.278 45.078 15.8766667 45.804 18.0693333 45.804 20.856L45.804 27.94C45.804 29.788 45.474 31.3866667 44.814 32.736 44.154 34.0853333 43.23 35.1266667 42.042 35.86 40.854 36.5933333 39.4386667 36.96 37.796 36.96 35.8306667 36.96 34.232 36.4173333 33 35.332 31.768 34.2466667 31.152 32.7946667 31.152 30.976L31.944 31.9 31.064 31.9 31.152 37.4 31.152 44.44 27.192 44.44ZM36.476 33.528C38.148 33.528 39.4606667 33.0293333 40.414 32.032 41.3673333 31.0346667 41.844 29.5973333 41.844 27.72L41.844 21.12C41.844 19.2426667 41.3673333 17.8053333 40.414 16.808 39.4606667 15.8106667 38.148 15.312 36.476 15.312 34.8626667 15.312 33.572 15.8253333 32.604 16.852 31.636 17.8786667 31.152 19.3013333 31.152 21.12L31.152 27.72C31.152 29.5386667 31.636 30.9613333 32.604 31.988 33.572 33.0146667 34.8626667 33.528 36.476 33.528ZM60.588 36.96C58.036 36.96 56.0266667 36.3073333 54.56 35.002 53.0933333 33.6966667 52.36 31.9293333 52.36 29.7 52.36 27.4413333 53.0933333 25.6666667 54.56 24.376 56.0266667 23.0853333 58.0066667 22.44 60.5 22.44L67.98 22.44 67.98 20.02C67.98 18.5533333 67.5326667 17.4093333 66.638 16.588 65.7433333 15.7666667 64.504 15.356 62.92 15.356 61.512 15.356 60.324 15.664 59.356 16.28 58.388 16.896 57.7866667 17.7026667 57.552 18.7L53.592 18.7C53.7386667 17.3506667 54.23 16.1626667 55.066 15.136 55.902 14.1093333 57.002 13.31 58.366 12.738 59.73 12.166 61.248 11.88 62.92 11.88 65.7066667 11.88 67.9066667 12.5986667 69.52 14.036 71.1333333 15.4733333 71.94 17.424 71.94 19.888L71.94 36.52 68.068 36.52 68.068 31.9 67.408 31.9 68.068 31.24C68.068 33 67.386 34.3933333 66.022 35.42 64.658 36.4466667 62.8466667 36.96 60.588 36.96ZM61.556 33.836C63.4333333 33.836 64.9733333 33.3666667 66.176 32.428 67.3786667 31.4893333 67.98 30.2866667 67.98 28.82L67.98 25.388 60.588 25.388C59.268 25.388 58.2266667 25.7546667 57.464 26.488 56.7013333 27.2213333 56.32 28.2186667 56.32 29.48 56.32 30.8293333 56.782 31.8926667 57.706 32.67 58.63 33.4473333 59.9133333 33.836 61.556 33.836ZM91.74 36.52C89.7453333 36.52 88.1466667 35.9406667 86.944 34.782 85.7413333 33.6233333 85.14 32.076 85.14 30.14L85.14 15.928 78.32 15.928 78.32 12.32 85.14 12.32 85.14 5.5 89.1 5.5 89.1 12.32 98.78 12.32 98.78 15.928 89.1 15.928 89.1 30.14C89.1 30.9613333 89.342 31.6286667 89.826 32.142 90.31 32.6553333 90.948 32.912 91.74 32.912L98.34 32.912 98.34 36.52 91.74 36.52ZM106.348 36.52 106.348 4.4 110.308 4.4 110.308 12.32 110.308 16.94 111.144 16.94 110.308 17.864C110.308 15.9573333 110.88 14.4833333 112.024 13.442 113.168 12.4006667 114.752 11.88 116.776 11.88 119.210667 11.88 121.146667 12.628 122.584 14.124 124.021333 15.62 124.74 17.6586667 124.74 20.24L124.74 36.52 120.78 36.52 120.78 20.68C120.78 18.9493333 120.318 17.6073333 119.394 16.654 118.47 15.7006667 117.216 15.224 115.632 15.224 113.989333 15.224 112.691333 15.7373333 111.738 16.764 110.784667 17.7906667 110.308 19.2426667 110.308 21.12L110.308 36.52 106.348 36.52Z"/><polygon points="132 41.36 147.62 0 151.8 0 136.18 41.36"/><path d="M170.94 36.52C168.945333 36.52 167.346667 35.9406667 166.144 34.782 164.941333 33.6233333 164.34 32.076 164.34 30.14L164.34 15.928 157.52 15.928 157.52 12.32 164.34 12.32 164.34 5.5 168.3 5.5 168.3 12.32 177.98 12.32 177.98 15.928 168.3 15.928 168.3 30.14C168.3 30.9613333 168.542 31.6286667 169.026 32.142 169.51 32.6553333 170.148 32.912 170.94 32.912L177.54 32.912 177.54 36.52 170.94 36.52ZM194.7 36.872C192.764 36.872 191.084667 36.498 189.662 35.75 188.239333 35.002 187.146667 33.9386667 186.384 32.56 185.621333 31.1813333 185.24 29.5386667 185.24 27.632L185.24 21.208C185.24 19.3013333 185.621333 17.6586667 186.384 16.28 187.146667 14.9013333 188.239333 13.838 189.662 13.09 191.084667 12.342 192.764 11.968 194.7 11.968 196.665333 11.968 198.352 12.342 199.76 13.09 201.168 13.838 202.253333 14.894 203.016 16.258 203.778667 17.622 204.16 19.2573333 204.16 21.164L204.16 27.632C204.16 29.5386667 203.778667 31.1813333 203.016 32.56 202.253333 33.9386667 201.168 35.002 199.76 35.75 198.352 36.498 196.665333 36.872 194.7 36.872ZM194.7 33.352C196.430667 33.352 197.78 32.868 198.748 31.9 199.716 30.932 200.2 29.5093333 200.2 27.632L200.2 21.208C200.2 19.3306667 199.716 17.908 198.748 16.94 197.78 15.972 196.430667 15.488 194.7 15.488 192.998667 15.488 191.656667 15.972 190.674 16.94 189.691333 17.908 189.2 19.3306667 189.2 21.208L189.2 27.632C189.2 29.5093333 189.691333 30.932 190.674 31.9 191.656667 32.868 192.998667 33.352 194.7 33.352Z"/><polygon points="211.2 41.36 226.82 0 231 0 215.38 41.36"/></g></g></g><rect width="120" height="150" x="680" fill="url(#a)"/><rect width="120" height="150" fill="url(#a)" transform="matrix(-1 0 0 1 120 0)"/><g transform="translate(100 8.05)"><path fill="#44D7B6" d="M7.6916556,74 C5.01709938,74 4.04724067,73.7215232 3.06946289,73.1986019 C2.09168511,72.6756806 1.32431939,71.9083149 0.801398111,70.9305371 C0.278476833,69.9527593 -1.43077765e-16,68.9829006 2.46249008e-16,66.3083444 L6.60585131e-16,7.6916556 C-3.83818985e-16,5.01709938 0.278476833,4.04724067 0.801398111,3.06946289 C1.32431939,2.09168511 2.09168511,1.32431939 3.06946289,0.801398111 C4.04724067,0.278476833 5.01709938,-8.28924603e-17 7.6916556,1.42664977e-16 L394.308344,-1.57632428e-14 C396.982901,9.15889802e-15 397.952759,0.278476833 398.930537,0.801398111 C399.908315,1.32431939 400.675681,2.09168511 401.198602,3.06946289 C401.721523,4.04724067 402,5.01709938 402,7.6916556 L402,66.3083444 C402,68.9829006 401.721523,69.9527593 401.198602,70.9305371 C400.675681,71.9083149 399.908315,72.6756806 398.930537,73.1986019 C397.952759,73.7215232 396.982901,74 394.308344,74 L36,74 L36,116 L51.999,116 L52,104 L76,119 L52,134 L51.999,122 L30,122 L30,74 L7.6916556,74 Z" opacity=".5"/><path fill="#000" fill-rule="nonzero" d="M7.53 22.5 7.95 23.91C10.86 23.04 14.73 21.87 18.48 20.76L18.3 19.5C14.34 20.64 10.2 21.81 7.53 22.5ZM21.87.93C23.28 1.89 24.9 3.3 25.71 4.26L26.64 3.33C25.83 2.4 24.15 1.08 22.74.15L21.87.93ZM10.68 10.62 15.54 10.62 15.54 16.53 10.68 16.53 10.68 10.62ZM9.45 9.36 9.45 17.79 16.83 17.79 16.83 9.36 9.45 9.36ZM0 21.57.57 23.01C2.88 21.96 5.79 20.55 8.61 19.23L8.25 17.91 5.01 19.41 5.01 8.85 8.01 8.85 8.01 7.47 5.01 7.47 5.01.36 3.63.36 3.63 7.47.18 7.47.18 8.85 3.63 8.85 3.63 20.04C2.25 20.64 1.02 21.18 0 21.57ZM25.02 9.36C24.15 12.6 22.95 15.54 21.42 18.09 20.91 14.91 20.55 10.8 20.4 6.03L27.03 6.03 27.03 4.68 20.37 4.68 20.31.06 18.87.06 18.96 4.68 8.55 4.68 8.55 6.03 18.99 6.03C19.2 11.43 19.59 16.2 20.31 19.8 18.57 22.29 16.44 24.39 13.92 25.98 14.25 26.22 14.82 26.73 15 27 17.19 25.5 19.08 23.67 20.7 21.54 21.63 25.14 22.95 27.27 24.84 27.27 26.49 27.27 26.97 25.92 27.24 21.93 26.91 21.81 26.4 21.51 26.1 21.21 25.98 24.6 25.68 25.86 24.96 25.86 23.64 25.86 22.56 23.76 21.78 20.04 23.76 17.1 25.29 13.65 26.4 9.66L25.02 9.36ZM37.17 8.73C38.91 9.9 40.95 11.52 42.3 12.81 38.55 14.91 34.35 16.38 30.51 17.19 30.81 17.52 31.17 18.15 31.29 18.51 33 18.12 34.8 17.61 36.57 16.95L36.57 27.3 38.01 27.3 38.01 25.59 52.62 25.59 52.62 27.27 54.09 27.27 54.09 15.24 40.65 15.24C46.14 12.6 51.18 8.7 53.88 3.6L52.98 3 52.71 3.09 40.98 3.09C41.79 2.16 42.48 1.23 43.08.33L41.4 0C39.63 2.91 36.12 6.39 31.26 8.85 31.59 9.09 32.07 9.57 32.28 9.9 35.25 8.34 37.71 6.45 39.69 4.47L51.75 4.47C49.86 7.44 46.98 9.99 43.65 12.03 42.27 10.74 40.05 9.09 38.25 7.89L37.17 8.73ZM52.62 24.18 38.01 24.18 38.01 16.65 52.62 16.65 52.62 24.18Z" transform="translate(82.23 105.92)"/></g><path fill="#000" fill-rule="nonzero" d="M3.872 32.604 0 8.404 3.432 8.404 5.852 25.564C5.94 26.2093333 6.028 26.906 6.116 27.654 6.204 28.402 6.26266667 29.0253333 6.292 29.524L6.468 29.524C6.52666667 29.0253333 6.6 28.402 6.688 27.654 6.776 26.906 6.87866667 26.2093333 6.996 25.564L9.68 8.404 13.64 8.404 16.324 25.564C16.4413333 26.2093333 16.5513333 26.906 16.654 27.654 16.7566667 28.402 16.8226667 29.0253333 16.852 29.524L17.028 29.524C17.0866667 29.0253333 17.1673333 28.402 17.27 27.654 17.3726667 26.906 17.468 26.2093333 17.556 25.564L20.064 8.404 23.32 8.404 19.272 32.604 14.916 32.604 12.32 15.884C12.2026667 15.0626667 12.0853333 14.2413333 11.968 13.42 11.8506667 12.5986667 11.7626667 11.9533333 11.704 11.484L11.528 11.484C11.4986667 11.9533333 11.4326667 12.5986667 11.33 13.42 11.2273333 14.2413333 11.1026667 15.0626667 10.956 15.884L8.228 32.604 3.872 32.604ZM30.272 32.604 26.4 8.404 29.832 8.404 32.252 25.564C32.34 26.2093333 32.428 26.906 32.516 27.654 32.604 28.402 32.6626667 29.0253333 32.692 29.524L32.868 29.524C32.9266667 29.0253333 33 28.402 33.088 27.654 33.176 26.906 33.2786667 26.2093333 33.396 25.564L36.08 8.404 40.04 8.404 42.724 25.564C42.8413333 26.2093333 42.9513333 26.906 43.054 27.654 43.1566667 28.402 43.2226667 29.0253333 43.252 29.524L43.428 29.524C43.4866667 29.0253333 43.5673333 28.402 43.67 27.654 43.7726667 26.906 43.868 26.2093333 43.956 25.564L46.464 8.404 49.72 8.404 45.672 32.604 41.316 32.604 38.72 15.884C38.6026667 15.0626667 38.4853333 14.2413333 38.368 13.42 38.2506667 12.5986667 38.1626667 11.9533333 38.104 11.484L37.928 11.484C37.8986667 11.9533333 37.8326667 12.5986667 37.73 13.42 37.6273333 14.2413333 37.5026667 15.0626667 37.356 15.884L34.628 32.604 30.272 32.604ZM56.672 32.604 52.8 8.404 56.232 8.404 58.652 25.564C58.74 26.2093333 58.828 26.906 58.916 27.654 59.004 28.402 59.0626667 29.0253333 59.092 29.524L59.268 29.524C59.3266667 29.0253333 59.4 28.402 59.488 27.654 59.576 26.906 59.6786667 26.2093333 59.796 25.564L62.48 8.404 66.44 8.404 69.124 25.564C69.2413333 26.2093333 69.3513333 26.906 69.454 27.654 69.5566667 28.402 69.6226667 29.0253333 69.652 29.524L69.828 29.524C69.8866667 29.0253333 69.9673333 28.402 70.07 27.654 70.1726667 26.906 70.268 26.2093333 70.356 25.564L72.864 8.404 76.12 8.404 72.072 32.604 67.716 32.604 65.12 15.884C65.0026667 15.0626667 64.8853333 14.2413333 64.768 13.42 64.6506667 12.5986667 64.5626667 11.9533333 64.504 11.484L64.328 11.484C64.2986667 11.9533333 64.2326667 12.5986667 64.13 13.42 64.0273333 14.2413333 63.9026667 15.0626667 63.756 15.884L61.028 32.604 56.672 32.604ZM90.86 33.044C89.7453333 33.044 88.858 32.7213333 88.198 32.076 87.538 31.4306667 87.208 30.5653333 87.208 29.48 87.208 28.336 87.538 27.4266667 88.198 26.752 88.858 26.0773333 89.7453333 25.74 90.86 25.74 91.9746667 25.74 92.862 26.0773333 93.522 26.752 94.182 27.4266667 94.512 28.336 94.512 29.48 94.512 30.5653333 94.182 31.4306667 93.522 32.076 92.862 32.7213333 91.9746667 33.044 90.86 33.044ZM117.26 33.044C115.353333 33.044 113.688667 32.6626667 112.266 31.9 110.843333 31.1373333 109.743333 30.0593333 108.966 28.666 108.188667 27.2726667 107.8 25.652 107.8 23.804L107.8 17.204C107.8 15.3266667 108.188667 13.6986667 108.966 12.32 109.743333 10.9413333 110.843333 9.87066667 112.266 9.108 113.688667 8.34533333 115.353333 7.964 117.26 7.964 119.166667 7.964 120.831333 8.34533333 122.254 9.108 123.676667 9.87066667 124.776667 10.9413333 125.554 12.32 126.331333 13.6986667 126.72 15.3266667 126.72 17.204L126.72 21.472 111.672 21.472 111.672 23.804C111.672 25.7106667 112.156 27.17 113.124 28.182 114.092 29.194 115.470667 29.7 117.26 29.7 118.785333 29.7 120.017333 29.4286667 120.956 28.886 121.894667 28.3433333 122.466667 27.5293333 122.672 26.444L126.632 26.444C126.368 28.468 125.378 30.074 123.662 31.262 121.946 32.45 119.812 33.044 117.26 33.044ZM122.848 18.832 122.848 17.204C122.848 15.2973333 122.371333 13.8306667 121.418 12.804 120.464667 11.7773333 119.078667 11.264 117.26 11.264 115.470667 11.264 114.092 11.7773333 113.124 12.804 112.156 13.8306667 111.672 15.2973333 111.672 17.204L111.672 18.48 123.156 18.48 122.848 18.832ZM132.66 32.604 141.24 20.152 133.188 8.404 137.852 8.404 142.648 15.884C142.853333 16.2066667 143.051333 16.5586667 143.242 16.94 143.432667 17.3213333 143.586667 17.6293333 143.704 17.864 143.792 17.6293333 143.931333 17.3213333 144.122 16.94 144.312667 16.5586667 144.510667 16.2066667 144.716 15.884L149.556 8.404 154.176 8.404 146.124 20.196 154.66 32.604 149.996 32.604 144.804 24.684C144.598667 24.3613333 144.400667 23.9873333 144.21 23.562 144.019333 23.1366667 143.850667 22.792 143.704 22.528 143.586667 22.792 143.418 23.1366667 143.198 23.562 142.978 23.9873333 142.750667 24.3613333 142.516 24.684L137.28 32.604 132.66 32.604ZM167.948 33.044C165.396 33.044 163.386667 32.3913333 161.92 31.086 160.453333 29.7806667 159.72 28.0133333 159.72 25.784 159.72 23.5253333 160.453333 21.7506667 161.92 20.46 163.386667 19.1693333 165.366667 18.524 167.86 18.524L175.34 18.524 175.34 16.104C175.34 14.6373333 174.892667 13.4933333 173.998 12.672 173.103333 11.8506667 171.864 11.44 170.28 11.44 168.872 11.44 167.684 11.748 166.716 12.364 165.748 12.98 165.146667 13.7866667 164.912 14.784L160.952 14.784C161.098667 13.4346667 161.59 12.2466667 162.426 11.22 163.262 10.1933333 164.362 9.394 165.726 8.822 167.09 8.25 168.608 7.964 170.28 7.964 173.066667 7.964 175.266667 8.68266667 176.88 10.12 178.493333 11.5573333 179.3 13.508 179.3 15.972L179.3 32.604 175.428 32.604 175.428 27.984 174.768 27.984 175.428 27.324C175.428 29.084 174.746 30.4773333 173.382 31.504 172.018 32.5306667 170.206667 33.044 167.948 33.044ZM168.916 29.92C170.793333 29.92 172.333333 29.4506667 173.536 28.512 174.738667 27.5733333 175.34 26.3706667 175.34 24.904L175.34 21.472 167.948 21.472C166.628 21.472 165.586667 21.8386667 164.824 22.572 164.061333 23.3053333 163.68 24.3026667 163.68 25.564 163.68 26.9133333 164.142 27.9766667 165.066 28.754 165.99 29.5313333 167.273333 29.92 168.916 29.92ZM185.9 32.604 185.9 8.404 189.376 8.404 189.376 11.308 190.168 11.308 189.552 12.364C189.552 11.0733333 189.933333 10.0173333 190.696 9.196 191.458667 8.37466667 192.456 7.964 193.688 7.964 194.978667 7.964 196.027333 8.492 196.834 9.548 197.640667 10.604 198.044 11.9826667 198.044 13.684L196.856 11.308 198.704 11.308 197.868 12.364C197.868 11.0733333 198.256667 10.0173333 199.034 9.196 199.811333 8.37466667 200.830667 7.964 202.092 7.964 203.558667 7.964 204.746667 8.54333333 205.656 9.702 206.565333 10.8606667 207.02 12.364 207.02 14.212L207.02 32.604 203.368 32.604 203.368 14.168C203.368 13.1413333 203.140667 12.3566667 202.686 11.814 202.231333 11.2713333 201.578667 11 200.728 11 199.877333 11 199.217333 11.2713333 198.748 11.814 198.278667 12.3566667 198.044 13.1266667 198.044 14.124L198.044 32.604 194.876 32.604 194.876 14.168C194.876 13.1413333 194.634 12.3566667 194.15 11.814 193.666 11.2713333 192.998667 11 192.148 11 191.326667 11 190.688667 11.2713333 190.234 11.814 189.779333 12.3566667 189.552 13.1266667 189.552 14.124L189.552 32.604 185.9 32.604ZM213.752 40.524 213.752 8.404 217.712 8.404 217.712 13.024 218.504 13.024 217.712 13.948C217.712 12.1 218.320667 10.6406667 219.538 9.57 220.755333 8.49933333 222.361333 7.964 224.356 7.964 226.790667 7.964 228.734 8.76333333 230.186 10.362 231.638 11.9606667 232.364 14.1533333 232.364 16.94L232.364 24.024C232.364 25.872 232.034 27.4706667 231.374 28.82 230.714 30.1693333 229.79 31.2106667 228.602 31.944 227.414 32.6773333 225.998667 33.044 224.356 33.044 222.390667 33.044 220.792 32.5013333 219.56 31.416 218.328 30.3306667 217.712 28.8786667 217.712 27.06L218.504 27.984 217.624 27.984 217.712 33.484 217.712 40.524 213.752 40.524ZM223.036 29.612C224.708 29.612 226.020667 29.1133333 226.974 28.116 227.927333 27.1186667 228.404 25.6813333 228.404 23.804L228.404 17.204C228.404 15.3266667 227.927333 13.8893333 226.974 12.892 226.020667 11.8946667 224.708 11.396 223.036 11.396 221.422667 11.396 220.132 11.9093333 219.164 12.936 218.196 13.9626667 217.712 15.3853333 217.712 17.204L217.712 23.804C217.712 25.6226667 218.196 27.0453333 219.164 28.072 220.132 29.0986667 221.422667 29.612 223.036 29.612ZM252.78 32.604C251.372 32.604 250.14 32.3253333 249.084 31.768 248.028 31.2106667 247.206667 30.4186667 246.62 29.392 246.033333 28.3653333 245.74 27.1626667 245.74 25.784L245.74 4.092 237.38 4.092 237.38.484 249.7.484 249.7 25.784C249.7 26.7813333 249.978667 27.566 250.536 28.138 251.093333 28.71 251.841333 28.996 252.78 28.996L260.26 28.996 260.26 32.604 252.78 32.604ZM275.66 33.044C273.753333 33.044 272.088667 32.6626667 270.666 31.9 269.243333 31.1373333 268.143333 30.0593333 267.366 28.666 266.588667 27.2726667 266.2 25.652 266.2 23.804L266.2 17.204C266.2 15.3266667 266.588667 13.6986667 267.366 12.32 268.143333 10.9413333 269.243333 9.87066667 270.666 9.108 272.088667 8.34533333 273.753333 7.964 275.66 7.964 277.566667 7.964 279.231333 8.34533333 280.654 9.108 282.076667 9.87066667 283.176667 10.9413333 283.954 12.32 284.731333 13.6986667 285.12 15.3266667 285.12 17.204L285.12 21.472 270.072 21.472 270.072 23.804C270.072 25.7106667 270.556 27.17 271.524 28.182 272.492 29.194 273.870667 29.7 275.66 29.7 277.185333 29.7 278.417333 29.4286667 279.356 28.886 280.294667 28.3433333 280.866667 27.5293333 281.072 26.444L285.032 26.444C284.768 28.468 283.778 30.074 282.062 31.262 280.346 32.45 278.212 33.044 275.66 33.044ZM281.248 18.832 281.248 17.204C281.248 15.2973333 280.771333 13.8306667 279.818 12.804 278.864667 11.7773333 277.478667 11.264 275.66 11.264 273.870667 11.264 272.492 11.7773333 271.524 12.804 270.556 13.8306667 270.072 15.2973333 270.072 17.204L270.072 18.48 281.556 18.48 281.248 18.832ZM302.06 33.044C300.945333 33.044 300.058 32.7213333 299.398 32.076 298.738 31.4306667 298.408 30.5653333 298.408 29.48 298.408 28.336 298.738 27.4266667 299.398 26.752 300.058 26.0773333 300.945333 25.74 302.06 25.74 303.174667 25.74 304.062 26.0773333 304.722 26.752 305.382 27.4266667 305.712 28.336 305.712 29.48 305.712 30.5653333 305.382 31.4306667 304.722 32.076 304.062 32.7213333 303.174667 33.044 302.06 33.044ZM328.636 33.044C326.7 33.044 325.006 32.6773333 323.554 31.944 322.102 31.2106667 320.98 30.1473333 320.188 28.754 319.396 27.3606667 319 25.7106667 319 23.804L319 17.204C319 15.268 319.396 13.6106667 320.188 12.232 320.98 10.8533333 322.102 9.79733333 323.554 9.064 325.006 8.33066667 326.7 7.964 328.636 7.964 331.422667 7.964 333.666667 8.712 335.368 10.208 337.069333 11.704 337.964 13.7426667 338.052 16.324L334.092 16.324C334.004 14.7693333 333.483333 13.574 332.53 12.738 331.576667 11.902 330.278667 11.484 328.636 11.484 326.905333 11.484 325.526667 11.9753333 324.5 12.958 323.473333 13.9406667 322.96 15.3413333 322.96 17.16L322.96 23.804C322.96 25.6226667 323.473333 27.0306667 324.5 28.028 325.526667 29.0253333 326.905333 29.524 328.636 29.524 330.278667 29.524 331.576667 29.0986667 332.53 28.248 333.483333 27.3973333 334.004 26.2093333 334.092 24.684L338.052 24.684C337.964 27.2653333 337.069333 29.304 335.368 30.8 333.666667 32.296 331.422667 33.044 328.636 33.044ZM354.86 32.956C352.924 32.956 351.244667 32.582 349.822 31.834 348.399333 31.086 347.306667 30.0226667 346.544 28.644 345.781333 27.2653333 345.4 25.6226667 345.4 23.716L345.4 17.292C345.4 15.3853333 345.781333 13.7426667 346.544 12.364 347.306667 10.9853333 348.399333 9.922 349.822 9.174 351.244667 8.426 352.924 8.052 354.86 8.052 356.825333 8.052 358.512 8.426 359.92 9.174 361.328 9.922 362.413333 10.978 363.176 12.342 363.938667 13.706 364.32 15.3413333 364.32 17.248L364.32 23.716C364.32 25.6226667 363.938667 27.2653333 363.176 28.644 362.413333 30.0226667 361.328 31.086 359.92 31.834 358.512 32.582 356.825333 32.956 354.86 32.956ZM354.86 29.436C356.590667 29.436 357.94 28.952 358.908 27.984 359.876 27.016 360.36 25.5933333 360.36 23.716L360.36 17.292C360.36 15.4146667 359.876 13.992 358.908 13.024 357.94 12.056 356.590667 11.572 354.86 11.572 353.158667 11.572 351.816667 12.056 350.834 13.024 349.851333 13.992 349.36 15.4146667 349.36 17.292L349.36 23.716C349.36 25.5933333 349.851333 27.016 350.834 27.984 351.816667 28.952 353.158667 29.436 354.86 29.436ZM370.7 32.604 370.7 8.404 374.176 8.404 374.176 11.308 374.968 11.308 374.352 12.364C374.352 11.0733333 374.733333 10.0173333 375.496 9.196 376.258667 8.37466667 377.256 7.964 378.488 7.964 379.778667 7.964 380.827333 8.492 381.634 9.548 382.440667 10.604 382.844 11.9826667 382.844 13.684L381.656 11.308 383.504 11.308 382.668 12.364C382.668 11.0733333 383.056667 10.0173333 383.834 9.196 384.611333 8.37466667 385.630667 7.964 386.892 7.964 388.358667 7.964 389.546667 8.54333333 390.456 9.702 391.365333 10.8606667 391.82 12.364 391.82 14.212L391.82 32.604 388.168 32.604 388.168 14.168C388.168 13.1413333 387.940667 12.3566667 387.486 11.814 387.031333 11.2713333 386.378667 11 385.528 11 384.677333 11 384.017333 11.2713333 383.548 11.814 383.078667 12.3566667 382.844 13.1266667 382.844 14.124L382.844 32.604 379.676 32.604 379.676 14.168C379.676 13.1413333 379.434 12.3566667 378.95 11.814 378.466 11.2713333 377.798667 11 376.948 11 376.126667 11 375.488667 11.2713333 375.034 11.814 374.579333 12.3566667 374.352 13.1266667 374.352 14.124L374.352 32.604 370.7 32.604ZM407.66 14.564C406.574667 14.564 405.694667 14.2633333 405.02 13.662 404.345333 13.0606667 404.008 12.2613333 404.008 11.264 404.008 10.2666667 404.345333 9.46733333 405.02 8.866 405.694667 8.26466667 406.574667 7.964 407.66 7.964 408.774667 7.964 409.662 8.26466667 410.322 8.866 410.982 9.46733333 411.312 10.2666667 411.312 11.264 411.312 12.2613333 410.982 13.0606667 410.322 13.662 409.662 14.2633333 408.774667 14.564 407.66 14.564ZM407.66 33.044C406.574667 33.044 405.694667 32.7433333 405.02 32.142 404.345333 31.5406667 404.008 30.7413333 404.008 29.744 404.008 28.7466667 404.345333 27.9473333 405.02 27.346 405.694667 26.7446667 406.574667 26.444 407.66 26.444 408.774667 26.444 409.662 26.7446667 410.322 27.346 410.982 27.9473333 411.312 28.7466667 411.312 29.744 411.312 30.7413333 410.982 31.5406667 410.322 32.142 409.662 32.7433333 408.774667 33.044 407.66 33.044ZM434.06 33.044C432.006667 33.044 430.202667 32.6846667 428.648 31.966 427.093333 31.2473333 425.890667 30.25 425.04 28.974 424.189333 27.698 423.764 26.224 423.764 24.552 423.764 22.616 424.416667 20.8266667 425.722 19.184 427.027333 17.5413333 428.750667 16.3093333 430.892 15.488L435.16 13.86C436.538667 13.332 437.653333 12.5766667 438.504 11.594 439.354667 10.6113333 439.78 9.53333333 439.78 8.36 439.78 6.92266667 439.252 5.75666667 438.196 4.862 437.14 3.96733333 435.761333 3.52 434.06 3.52 432.358667 3.52 430.98 3.97466667 429.924 4.884 428.868 5.79333333 428.34 6.952 428.34 8.36 428.34 9.56266667 428.750667 10.648 429.572 11.616 430.393333 12.584 431.464 13.3173333 432.784 13.816L437.052 15.4C439.252 16.2213333 441.019333 17.4606667 442.354 19.118 443.688667 20.7753333 444.356 22.5866667 444.356 24.552 444.356 26.224 443.930667 27.698 443.08 28.974 442.229333 30.25 441.034 31.2473333 439.494 31.966 437.954 32.6846667 436.142667 33.044 434.06 33.044ZM434.06 29.524C435.996 29.524 437.550667 29.018 438.724 28.006 439.897333 26.994 440.484 25.6666667 440.484 24.024 440.484 22.7333333 440.088 21.5673333 439.296 20.526 438.504 19.4846667 437.389333 18.6853333 435.952 18.128L431.728 16.5C429.322667 15.5613333 427.511333 14.3733333 426.294 12.936 425.076667 11.4986667 424.468 9.92933333 424.468 8.228 424.468 6.61466667 424.886 5.192 425.722 3.96 426.558 2.728 427.694667 1.76 429.132 1.056 430.569333.352 432.212 0 434.06 0 435.908 0 437.558.352 439.01 1.056 440.462 1.76 441.598667 2.728 442.42 3.96 443.241333 5.192 443.652 6.61466667 443.652 8.228 443.652 9.9 443.036 11.4693333 441.804 12.936 440.572 14.4026667 438.724 15.6053333 436.26 16.544L432.036 18.172C430.628 18.7293333 429.542667 19.5286667 428.78 20.57 428.017333 21.6113333 427.636 22.7626667 427.636 24.024 427.636 25.6666667 428.222667 26.994 429.396 28.006 430.569333 29.018 432.124 29.524 434.06 29.524ZM460.46 33.044C458.494667 33.044 456.786 32.6553333 455.334 31.878 453.882 31.1006667 452.76 30.0006667 451.968 28.578 451.176 27.1553333 450.78 25.4906667 450.78 23.584L450.78 9.504C450.78 7.568 451.176 5.896 451.968 4.488 452.76 3.08 453.882 1.98733333 455.334 1.21 456.786.432666667 458.494667.044 460.46.044 462.454667.044 464.170667.432666667 465.608 1.21 467.045333 1.98733333 468.16 3.08 468.952 4.488 469.744 5.896 470.14 7.568 470.14 9.504L470.14 23.584C470.14 25.4906667 469.744 27.1553333 468.952 28.578 468.16 30.0006667 467.038 31.1006667 465.586 31.878 464.134 32.6553333 462.425333 33.044 460.46 33.044ZM460.46 29.656C462.22 29.656 463.635333 29.0913333 464.706 27.962 465.776667 26.8326667 466.312 25.3733333 466.312 23.584L466.312 9.504C466.312 7.71466667 465.776667 6.25533333 464.706 5.126 463.635333 3.99666667 462.22 3.432 460.46 3.432 458.7 3.432 457.284667 3.99666667 456.214 5.126 455.143333 6.25533333 454.608 7.71466667 454.608 9.504L454.608 23.584C454.608 25.3733333 455.143333 26.8326667 456.214 27.962 457.284667 29.0913333 458.7 29.656 460.46 29.656ZM460.46 19.14C459.668 19.14 459.03 18.8906667 458.546 18.392 458.062 17.8933333 457.82 17.2333333 457.82 16.412 457.82 15.62 458.062 14.982 458.546 14.498 459.03 14.014 459.668 13.772 460.46 13.772 461.252 13.772 461.89 14.014 462.374 14.498 462.858 14.982 463.1 15.62 463.1 16.412 463.1 17.2333333 462.858 17.8933333 462.374 18.392 461.89 18.8906667 461.252 19.14 460.46 19.14Z" transform="translate(104.34 26.446)"/></g></svg>