<svg xmlns="http://www.w3.org/2000/svg" xmlns:xlink="http://www.w3.org/1999/xlink" width="800" height="200" viewBox="0 0 800 200"><defs><linearGradient id="c" x1="100%" x2="0%" y1="50%" y2="50%"><stop offset="0%" stop-color="#1C1C1E"/><stop offset="100%" stop-color="#1C1C1E" stop-opacity="0"/></linearGradient><rect id="a" width="800" height="200" x="0" y="0"/></defs><g fill="none" fill-rule="evenodd"><rect width="800" height="200" fill="#1C1C1E"/><g transform="translate(110 10)"><path fill="#BF5AF2" d="M7.6916556,74 C5.01709938,74 4.04724067,73.7215232 3.06946289,73.1986019 C2.09168511,72.6756806 1.32431939,71.9083149 0.801398111,70.9305371 C0.278476833,69.9527593 1.2037061e-16,68.9829006 -2.07168062e-16,66.3083444 L2.07168062e-16,7.6916556 C-1.2037061e-16,5.01709938 0.278476833,4.04724067 0.801398111,3.06946289 C1.32431939,2.09168511 2.09168511,1.32431939 3.06946289,0.801398111 C4.04724067,0.278476833 5.01709938,1.80555915e-16 7.6916556,-3.10752092e-16 L601.308344,3.10752092e-16 C603.982901,-1.80555915e-16 604.952759,0.278476833 605.930537,0.801398111 C606.908315,1.32431939 607.675681,2.09168511 608.198602,3.06946289 C608.721523,4.04724067 609,5.01709938 609,7.6916556 L609,66.3083444 C609,68.9829006 608.721523,69.9527593 608.198602,70.9305371 C607.675681,71.9083149 606.908315,72.6756806 605.930537,73.1986019 C604.952759,73.7215232 603.982901,74 601.308344,74 L16,74 L16,116 L31.999,116 L32,104 L56,119 L32,134 L31.999,122 L10,122 L10,74 L7.6916556,74 Z" opacity=".5"/><path fill="#E5E5EA" fill-rule="nonzero" d="M23.04.3 23.04 4.38 17.88 4.38 17.88.3 16.53.3 16.53 4.38 12.6 4.38 12.6 5.76 16.53 5.76 16.53 10.17 17.88 10.17 17.88 5.76 23.04 5.76 23.04 10.17 24.42 10.17 24.42 5.76 28.11 5.76 28.11 4.38 24.42 4.38 24.42.3 23.04.3ZM19.8 12.75 19.8 17.82 14.88 17.82 14.88 12.75 19.8 12.75ZM21.15 12.75 25.77 12.75 25.77 17.82 21.15 17.82 21.15 12.75ZM14.88 19.14 19.8 19.14 19.8 24.42 14.88 24.42 14.88 19.14ZM25.77 19.14 25.77 24.42 21.15 24.42 21.15 19.14 25.77 19.14ZM13.53 11.37 13.53 27.3 14.88 27.3 14.88 25.74 25.77 25.74 25.77 27 27.18 27 27.18 11.37 13.53 11.37ZM5.55.09C4.59 2.97 2.91 5.73 1.08 7.59 1.32 7.86 1.77 8.55 1.89 8.85 2.85 7.8 3.81 6.54 4.65 5.13L11.43 5.13 11.43 3.75 5.43 3.75C6 2.67 6.51 1.56 6.9.45L5.55.09ZM1.68 15.03 1.68 16.41 6.12 16.41 6.12 23.19C6.12 24.57 5.07 25.5 4.59 25.86 4.89 26.13 5.28 26.67 5.46 26.97 5.88 26.52 6.63 26.07 12.12 23.04 12 22.77 11.85 22.23 11.79 21.84L7.47 24.09 7.47 16.41 11.46 16.41 11.46 15.03 7.47 15.03 7.47 10.32 10.59 10.32 10.59 8.97 3.03 8.97 3.03 10.32 6.12 10.32 6.12 15.03 1.68 15.03ZM36.33 10.74 53.13 10.74 53.13 17.01 36.33 17.01 36.33 10.74ZM40.32 21.21C40.71 23.1 40.95 25.53 40.95 26.97L42.45 26.76C42.45 25.38 42.12 22.98 41.7 21.12L40.32 21.21ZM46.53 21.24C47.46 23.04 48.36 25.5 48.69 26.97L50.1 26.58C49.74 25.14 48.78 22.74 47.85 20.97L46.53 21.24ZM52.68 20.97C54.24 22.8 55.92 25.41 56.64 27L57.99 26.4C57.27 24.78 55.53 22.29 53.97 20.43L52.68 20.97ZM35.49 20.58C34.5 22.83 32.91 25.26 31.23 26.67L32.52 27.3C34.2 25.74 35.79 23.22 36.84 20.94L35.49 20.58ZM34.95 9.33 34.95 18.39 54.57 18.39 54.57 9.33 45.21 9.33 45.21 4.92 56.97 4.92 56.97 3.54 45.21 3.54 45.21 0 43.77 0 43.77 9.33 34.95 9.33ZM0 61.05 1.8 61.05 4.29 53.73 12.78 53.73 15.24 61.05 17.16 61.05 9.48 39.18 7.62 39.18 0 61.05ZM4.77 52.26 6.12 48.3C6.99 45.72 7.74 43.44 8.49 40.77L8.61 40.77C9.39 43.44 10.11 45.72 10.98 48.3L12.3 52.26 4.77 52.26ZM20.4 61.05 22.14 61.05 22.14 49.08C24 47.16 25.32 46.2 27.15 46.2 29.64 46.2 30.69 47.76 30.69 51.06L30.69 61.05 32.43 61.05 32.43 50.82C32.43 46.71 30.9 44.64 27.57 44.64 25.38 44.64 23.7 45.9 22.11 47.49L22.05 47.49 21.84 45.03 20.4 45.03 20.4 61.05ZM44.13 61.44C46.14 61.44 47.91 60.57 49.29 59.37L48.42 58.14C47.34 59.13 45.9 59.91 44.28 59.91 40.92 59.91 38.67 57.15 38.67 53.07 38.67 48.96 41.1 46.17 44.31 46.17 45.78 46.17 46.95 46.86 47.94 47.79L48.93 46.59C47.85 45.6 46.38 44.64 44.25 44.64 40.29 44.64 36.84 47.73 36.84 53.07 36.84 58.38 39.99 61.44 44.13 61.44ZM53.13 61.05 54.87 61.05 54.87 49.08C56.73 47.16 58.05 46.2 59.88 46.2 62.37 46.2 63.42 47.76 63.42 51.06L63.42 61.05 65.16 61.05 65.16 50.82C65.16 46.71 63.63 44.64 60.3 44.64 58.11 44.64 56.46 45.9 54.84 47.52L54.87 44.01 54.87 37.2 53.13 37.2 53.13 61.05ZM76.68 61.44C80.55 61.44 83.91 58.38 83.91 53.07 83.91 47.73 80.55 44.64 76.68 44.64 72.81 44.64 69.45 47.73 69.45 53.07 69.45 58.38 72.81 61.44 76.68 61.44ZM76.68 59.91C73.53 59.91 71.28 57.15 71.28 53.07 71.28 48.96 73.53 46.17 76.68 46.17 79.83 46.17 82.11 48.96 82.11 53.07 82.11 57.15 79.83 59.91 76.68 59.91ZM88.59 61.05 90.33 61.05 90.33 50.31C91.53 47.34 93.21 46.26 94.62 46.26 95.25 46.26 95.58 46.35 96.09 46.53L96.45 44.97C95.94 44.73 95.46 44.64 94.83 44.64 92.97 44.64 91.41 46.02 90.3 48L90.24 48 90.03 45.03 88.59 45.03 88.59 61.05Z" transform="translate(61.24 105.95)"/></g><mask id="b" fill="#fff"><use xlink:href="#a"/></mask><g fill-rule="nonzero" mask="url(#b)"><g transform="translate(-521.204 27.672)"><path fill="#48484A" d="M541.112 31.856C538.853333 31.856 537.115333 31.2033333 535.898 29.898 534.680667 28.5926667 534.072 26.6786667 534.072 24.156L534.072 2.948 526.46 2.948 526.46 0 537.68 0 537.68 24.42C537.68 25.9746667 538.068667 27.104 538.846 27.808 539.623333 28.512 540.642667 28.864 541.904 28.864 543.165333 28.864 544.5 28.5413333 545.908 27.896L546.832 30.58C545.834667 30.9906667 544.925333 31.306 544.104 31.526 543.282667 31.746 542.285333 31.856 541.112 31.856ZM560.428 31.856C557.876 31.856 555.998667 31.1226667 554.796 29.656 553.593333 28.1893333 552.992 26.048 552.992 23.232L552.992 9.944 556.644 9.944 556.644 22.748C556.644 24.772 557.018 26.2753333 557.766 27.258 558.514 28.2406667 559.782667 28.732 561.572 28.732 562.804 28.732 563.926 28.4166667 564.938 27.786 565.95 27.1553333 567.042667 26.1506667 568.216 24.772L568.216 9.944 571.824 9.944 571.824 31.328 568.876 31.328 568.568 27.588 568.392 27.588C567.306667 28.8493333 566.118667 29.876 564.828 30.668 563.537333 31.46 562.070667 31.856 560.428 31.856ZM589.996 12.276C588.236 12.276 586.666667 12.8406667 585.288 13.97 583.909333 15.0993333 583.058667 16.72 582.736 18.832L596.376 18.832C596.229333 16.632 595.584 14.9893333 594.44 13.904 593.296 12.8186667 591.814667 12.276 589.996 12.276ZM590.524 31.856C588.382667 31.856 586.439333 31.416 584.694 30.536 582.948667 29.656 581.562667 28.3726667 580.536 26.686 579.509333 24.9993333 578.996 22.968 578.996 20.592 578.996 18.2746667 579.509333 16.28 580.536 14.608 581.562667 12.936 582.904667 11.6526667 584.562 10.758 586.219333 9.86333333 588.001333 9.416 589.908 9.416 592.988 9.416 595.386 10.3326667 597.102 12.166 598.818 13.9993333 599.676 16.4266667 599.676 19.448 599.676 19.8586667 599.661333 20.2546667 599.632 20.636 599.602667 21.0173333 599.558667 21.3546667 599.5 21.648L582.648 21.648C582.882667 24.0533333 583.77 25.872 585.31 27.104 586.85 28.336 588.734667 28.952 590.964 28.952 592.254667 28.952 593.420667 28.7686667 594.462 28.402 595.503333 28.0353333 596.508 27.544 597.476 26.928L598.796 29.304C597.74 30.008 596.53 30.6093333 595.166 31.108 593.802 31.6066667 592.254667 31.856 590.524 31.856ZM605.616 31.328 605.616 29.172C608.784 26.356 611.468 23.892 613.668 21.78 615.868 19.668 617.532667 17.7613333 618.662 16.06 619.791333 14.3586667 620.356 12.7306667 620.356 11.176 620.356 9.56266667 619.857333 8.24266667 618.86 7.216 617.862667 6.18933333 616.322667 5.676 614.24 5.676 612.92 5.676 611.695333 6.006 610.566 6.666 609.436667 7.326 608.417333 8.12533333 607.508 9.064L605.44 6.996C606.701333 5.70533333 608.065333 4.67133333 609.532 3.894 610.998667 3.11666667 612.714667 2.728 614.68 2.728 617.496 2.728 619.725333 3.48333333 621.368 4.994 623.010667 6.50466667 623.832 8.50666667 623.832 11 623.832 12.76 623.289333 14.542 622.204 16.346 621.118667 18.15 619.600667 20.042 617.65 22.022 615.699333 24.002 613.448 26.1506667 610.896 28.468 611.776 28.4093333 612.663333 28.3506667 613.558 28.292 614.452667 28.2333333 615.310667 28.204 616.132 28.204L625.372 28.204 625.372 31.328 605.616 31.328Z"/><path fill="#E5E5EA" d="M638.836 19.844 644.644 19.844 645.436 13.332 639.628 13.332 638.836 19.844ZM635.052 31.328 636.152 22.352 632.632 22.352 632.632 19.844 636.46 19.844 637.252 13.332 633.512 13.332 633.512 10.78 637.56 10.78 638.572 2.728 640.904 2.728 639.936 10.78 645.744 10.78 646.756 2.728 649.088 2.728 648.12 10.78 651.64 10.78 651.64 13.332 647.812 13.332 647.02 19.844 650.76 19.844 650.76 22.352 646.712 22.352 645.612 31.328 643.236 31.328 644.336 22.352 638.528 22.352 637.428 31.328 635.052 31.328ZM668.624 31.856C666.512 31.856 664.561333 31.4673333 662.772 30.69 660.982667 29.9126667 659.442667 28.8786667 658.152 27.588L660.352 25.036C661.437333 26.1213333 662.706 26.994 664.158 27.654 665.61 28.314 667.157333 28.644 668.8 28.644 670.794667 28.644 672.342 28.2186667 673.442 27.368 674.542 26.5173333 675.092 25.4173333 675.092 24.068 675.092 23.0413333 674.864667 22.22 674.41 21.604 673.955333 20.988 673.339333 20.4746667 672.562 20.064 671.784667 19.6533333 670.897333 19.2426667 669.9 18.832L665.764 17.028C664.796 16.6466667 663.835333 16.148 662.882 15.532 661.928667 14.916 661.129333 14.124 660.484 13.156 659.838667 12.188 659.516 11 659.516 9.592 659.516 8.12533333 659.919333 6.81266667 660.726 5.654 661.532667 4.49533333 662.647333 3.586 664.07 2.926 665.492667 2.266 667.128 1.936 668.976 1.936 670.794667 1.936 672.466667 2.266 673.992 2.926 675.517333 3.586 676.808 4.444 677.864 5.5L675.928 7.876C674.989333 7.02533333 673.948 6.358 672.804 5.874 671.66 5.39 670.34 5.148 668.844 5.148 667.172 5.148 665.822667 5.52933333 664.796 6.292 663.769333 7.05466667 663.256 8.08133333 663.256 9.372 663.256 10.2813333 663.512667 11.0293333 664.026 11.616 664.539333 12.2026667 665.192 12.6866667 665.984 13.068 666.776 13.4493333 667.582667 13.816 668.404 14.168L672.452 15.928C673.654667 16.3973333 674.732667 16.962 675.686 17.622 676.639333 18.282 677.402 19.0886667 677.974 20.042 678.546 20.9953333 678.832 22.1906667 678.832 23.628 678.832 25.1533333 678.421333 26.5393333 677.6 27.786 676.778667 29.0326667 675.605333 30.0226667 674.08 30.756 672.554667 31.4893333 670.736 31.856 668.624 31.856ZM694.804 31.856C692.926667 31.856 691.188667 31.416 689.59 30.536 687.991333 29.656 686.700667 28.38 685.718 26.708 684.735333 25.036 684.244 23.0266667 684.244 20.68 684.244 18.2746667 684.735333 16.236 685.718 14.564 686.700667 12.892 687.991333 11.616 689.59 10.736 691.188667 9.856 692.926667 9.416 694.804 9.416 696.681333 9.416 698.419333 9.856 700.018 10.736 701.616667 11.616 702.907333 12.892 703.89 14.564 704.872667 16.236 705.364 18.2746667 705.364 20.68 705.364 23.0266667 704.872667 25.036 703.89 26.708 702.907333 28.38 701.616667 29.656 700.018 30.536 698.419333 31.416 696.681333 31.856 694.804 31.856ZM694.804 28.864C696.857333 28.864 698.507333 28.1086667 699.754 26.598 701.000667 25.0873333 701.624 23.1146667 701.624 20.68 701.624 18.216 701.000667 16.2213333 699.754 14.696 698.507333 13.1706667 696.857333 12.408 694.804 12.408 692.750667 12.408 691.100667 13.1706667 689.854 14.696 688.607333 16.2213333 687.984 18.216 687.984 20.68 687.984 23.1146667 688.607333 25.0873333 689.854 26.598 691.100667 28.1086667 692.750667 28.864 694.804 28.864ZM710.556 31.328 710.556 9.944 713.46 9.944 713.768 12.76 713.856 12.76C714.413333 11.7626667 715.058667 10.956 715.792 10.34 716.525333 9.724 717.508 9.416 718.74 9.416 720.822667 9.416 722.172 10.648 722.788 13.112 723.404 11.968 724.086 11.066 724.834 10.406 725.582 9.746 726.572 9.416 727.804 9.416 729.3 9.416 730.466 9.98066667 731.302 11.11 732.138 12.2393333 732.556 13.8746667 732.556 16.016L732.556 31.328 728.948 31.328 728.948 16.28C728.948 13.7866667 728.185333 12.54 726.66 12.54 725.926667 12.54 725.318 12.8113333 724.834 13.354 724.35 13.8966667 723.814667 14.7253333 723.228 15.84L723.228 31.328 719.884 31.328 719.884 16.28C719.884 15.048 719.715333 14.1166667 719.378 13.486 719.040667 12.8553333 718.476 12.54 717.684 12.54 716.950667 12.54 716.312667 12.8113333 715.77 13.354 715.227333 13.8966667 714.692 14.7253333 714.164 15.84L714.164 31.328 710.556 31.328ZM748.396 12.276C746.636 12.276 745.066667 12.8406667 743.688 13.97 742.309333 15.0993333 741.458667 16.72 741.136 18.832L754.776 18.832C754.629333 16.632 753.984 14.9893333 752.84 13.904 751.696 12.8186667 750.214667 12.276 748.396 12.276ZM748.924 31.856C746.782667 31.856 744.839333 31.416 743.094 30.536 741.348667 29.656 739.962667 28.3726667 738.936 26.686 737.909333 24.9993333 737.396 22.968 737.396 20.592 737.396 18.2746667 737.909333 16.28 738.936 14.608 739.962667 12.936 741.304667 11.6526667 742.962 10.758 744.619333 9.86333333 746.401333 9.416 748.308 9.416 751.388 9.416 753.786 10.3326667 755.502 12.166 757.218 13.9993333 758.076 16.4266667 758.076 19.448 758.076 19.8586667 758.061333 20.2546667 758.032 20.636 758.002667 21.0173333 757.958667 21.3546667 757.9 21.648L741.048 21.648C741.282667 24.0533333 742.17 25.872 743.71 27.104 745.25 28.336 747.134667 28.952 749.364 28.952 750.654667 28.952 751.820667 28.7686667 752.862 28.402 753.903333 28.0353333 754.908 27.544 755.876 26.928L757.196 29.304C756.14 30.008 754.93 30.6093333 753.566 31.108 752.202 31.6066667 750.654667 31.856 748.924 31.856ZM765.82 31.328 761.156 9.944 764.764 9.944 767.316 22.352C767.521333 23.3493333 767.704667 24.3246667 767.866 25.278 768.027333 26.2313333 768.166667 27.2213333 768.284 28.248L768.46 28.248C768.606667 27.2213333 768.79 26.2313333 769.01 25.278 769.23 24.3246667 769.457333 23.3493333 769.692 22.352L772.332 11.264 775.94 11.264 778.492 22.352C778.726667 23.3493333 778.976 24.3246667 779.24 25.278 779.504 26.2313333 779.694667 27.2213333 779.812 28.248L779.988 28.248C780.164 27.2213333 780.318 26.2313333 780.45 25.278 780.582 24.3246667 780.750667 23.3493333 780.956 22.352L783.508 9.944 786.852 9.944 782.276 31.328 777.612 31.328 775.148 21.12C774.796 19.624 774.444 17.512 774.092 14.784L773.916 14.784C773.564 17.512 773.212 19.624 772.86 21.12L770.484 31.328 765.82 31.328ZM791.296 31.328 791.296 0 794.904 0 794.904 8.536 794.684 13.596 794.816 13.596C795.930667 12.3933333 797.126 11.396 798.402 10.604 799.678 9.812 801.152 9.416 802.824 9.416 805.346667 9.416 807.209333 10.1493333 808.412 11.616 809.614667 13.0826667 810.216 15.224 810.216 18.04L810.216 31.328 806.608 31.328 806.608 18.524C806.608 16.5 806.226667 14.9966667 805.464 14.014 804.701333 13.0313333 803.44 12.54 801.68 12.54 800.418667 12.54 799.289333 12.8626667 798.292 13.508 797.294667 14.1533333 796.165333 15.1213333 794.904 16.412L794.904 31.328 791.296 31.328ZM827.596 12.276C825.836 12.276 824.266667 12.8406667 822.888 13.97 821.509333 15.0993333 820.658667 16.72 820.336 18.832L833.976 18.832C833.829333 16.632 833.184 14.9893333 832.04 13.904 830.896 12.8186667 829.414667 12.276 827.596 12.276ZM828.124 31.856C825.982667 31.856 824.039333 31.416 822.294 30.536 820.548667 29.656 819.162667 28.3726667 818.136 26.686 817.109333 24.9993333 816.596 22.968 816.596 20.592 816.596 18.2746667 817.109333 16.28 818.136 14.608 819.162667 12.936 820.504667 11.6526667 822.162 10.758 823.819333 9.86333333 825.601333 9.416 827.508 9.416 830.588 9.416 832.986 10.3326667 834.702 12.166 836.418 13.9993333 837.276 16.4266667 837.276 19.448 837.276 19.8586667 837.261333 20.2546667 837.232 20.636 837.202667 21.0173333 837.158667 21.3546667 837.1 21.648L820.248 21.648C820.482667 24.0533333 821.37 25.872 822.91 27.104 824.45 28.336 826.334667 28.952 828.564 28.952 829.854667 28.952 831.020667 28.7686667 832.062 28.402 833.103333 28.0353333 834.108 27.544 835.076 26.928L836.396 29.304C835.34 30.008 834.13 30.6093333 832.766 31.108 831.402 31.6066667 829.854667 31.856 828.124 31.856ZM846.428 31.328 846.428 9.944 849.42 9.944 849.728 15.004 849.86 15.004C850.974667 13.2733333 852.353333 11.9093333 853.996 10.912 855.638667 9.91466667 857.442667 9.416 859.408 9.416 860.2 9.416 860.940667 9.482 861.63 9.614 862.319333 9.746 862.986667 9.97333333 863.632 10.296L862.796 13.42C862.062667 13.156 861.432 12.9653333 860.904 12.848 860.376 12.7306667 859.686667 12.672 858.836 12.672 857.222667 12.672 855.675333 13.134 854.194 14.058 852.712667 14.982 851.326667 16.5586667 850.036 18.788L850.036 31.328 846.428 31.328ZM880.396 12.276C878.636 12.276 877.066667 12.8406667 875.688 13.97 874.309333 15.0993333 873.458667 16.72 873.136 18.832L886.776 18.832C886.629333 16.632 885.984 14.9893333 884.84 13.904 883.696 12.8186667 882.214667 12.276 880.396 12.276ZM880.924 31.856C878.782667 31.856 876.839333 31.416 875.094 30.536 873.348667 29.656 871.962667 28.3726667 870.936 26.686 869.909333 24.9993333 869.396 22.968 869.396 20.592 869.396 18.2746667 869.909333 16.28 870.936 14.608 871.962667 12.936 873.304667 11.6526667 874.962 10.758 876.619333 9.86333333 878.401333 9.416 880.308 9.416 883.388 9.416 885.786 10.3326667 887.502 12.166 889.218 13.9993333 890.076 16.4266667 890.076 19.448 890.076 19.8586667 890.061333 20.2546667 890.032 20.636 890.002667 21.0173333 889.958667 21.3546667 889.9 21.648L873.048 21.648C873.282667 24.0533333 874.17 25.872 875.71 27.104 877.25 28.336 879.134667 28.952 881.364 28.952 882.654667 28.952 883.820667 28.7686667 884.862 28.402 885.903333 28.0353333 886.908 27.544 887.876 26.928L889.196 29.304C888.14 30.008 886.93 30.6093333 885.566 31.108 884.202 31.6066667 882.654667 31.856 880.924 31.856Z"/><polygon fill="#E5E5EA" points="896.984 31.328 896.984 28.204 904.156 28.204 904.156 5.544 896.984 5.544 896.984 2.464 915.024 2.464 915.024 5.544 907.852 5.544 907.852 28.204 915.024 28.204 915.024 31.328"/><path fill="#E5E5EA" d="M923.296,31.328 L923.296,9.944 L926.288,9.944 L926.596,13.596 L926.772,13.596 C927.886667,12.3933333 929.089333,11.396 930.38,10.604 C931.670667,9.812 933.152,9.416 934.824,9.416 C937.346667,9.416 939.209333,10.1493333 940.412,11.616 C941.614667,13.0826667 942.216,15.224 942.216,18.04 L942.216,31.328 L938.608,31.328 L938.608,18.524 C938.608,16.5 938.226667,14.9966667 937.464,14.014 C936.701333,13.0313333 935.44,12.54 933.68,12.54 C932.418667,12.54 931.289333,12.8626667 930.292,13.508 C929.294667,14.1533333 928.165333,15.1213333 926.904,16.412 L926.904,31.328 L923.296,31.328 Z"/><polygon fill="#E5E5EA" points="956.956 31.328 956.956 5.544 947.452 5.544 947.452 2.464 970.156 2.464 970.156 5.544 960.652 5.544 960.652 31.328"/><path fill="#E5E5EA" d="M976.096 31.328 976.096 0 979.704 0 979.704 8.536 979.484 13.596 979.616 13.596C980.730667 12.3933333 981.926 11.396 983.202 10.604 984.478 9.812 985.952 9.416 987.624 9.416 990.146667 9.416 992.009333 10.1493333 993.212 11.616 994.414667 13.0826667 995.016 15.224 995.016 18.04L995.016 31.328 991.408 31.328 991.408 18.524C991.408 16.5 991.026667 14.9966667 990.264 14.014 989.501333 13.0313333 988.24 12.54 986.48 12.54 985.218667 12.54 984.089333 12.8626667 983.092 13.508 982.094667 14.1533333 980.965333 15.1213333 979.704 16.412L979.704 31.328 976.096 31.328ZM1012.396 12.276C1010.636 12.276 1009.06667 12.8406667 1007.688 13.97 1006.30933 15.0993333 1005.45867 16.72 1005.136 18.832L1018.776 18.832C1018.62933 16.632 1017.984 14.9893333 1016.84 13.904 1015.696 12.8186667 1014.21467 12.276 1012.396 12.276ZM1012.924 31.856C1010.78267 31.856 1008.83933 31.416 1007.094 30.536 1005.34867 29.656 1003.96267 28.3726667 1002.936 26.686 1001.90933 24.9993333 1001.396 22.968 1001.396 20.592 1001.396 18.2746667 1001.90933 16.28 1002.936 14.608 1003.96267 12.936 1005.30467 11.6526667 1006.962 10.758 1008.61933 9.86333333 1010.40133 9.416 1012.308 9.416 1015.388 9.416 1017.786 10.3326667 1019.502 12.166 1021.218 13.9993333 1022.076 16.4266667 1022.076 19.448 1022.076 19.8586667 1022.06133 20.2546667 1022.032 20.636 1022.00267 21.0173333 1021.95867 21.3546667 1021.9 21.648L1005.048 21.648C1005.28267 24.0533333 1006.17 25.872 1007.71 27.104 1009.25 28.336 1011.13467 28.952 1013.364 28.952 1014.65467 28.952 1015.82067 28.7686667 1016.862 28.402 1017.90333 28.0353333 1018.908 27.544 1019.876 26.928L1021.196 29.304C1020.14 30.008 1018.93 30.6093333 1017.566 31.108 1016.202 31.6066667 1014.65467 31.856 1012.924 31.856ZM1028.632 31.328 1028.632 2.464 1035.76 2.464C1040.10133 2.464 1043.416 3.70333333 1045.704 6.182 1047.992 8.66066667 1049.136 12.188 1049.136 16.764 1049.136 21.3693333 1047.99933 24.948 1045.726 27.5 1043.45267 30.052 1040.18933 31.328 1035.936 31.328L1028.632 31.328ZM1032.284 28.336 1035.496 28.336C1038.81067 28.336 1041.282 27.3166667 1042.91 25.278 1044.538 23.2393333 1045.352 20.4013333 1045.352 16.764 1045.352 13.1266667 1044.538 10.3326667 1042.91 8.382 1041.282 6.43133333 1038.81067 5.456 1035.496 5.456L1032.284 5.456 1032.284 28.336ZM1064.404 31.856C1062.52667 31.856 1060.78867 31.416 1059.19 30.536 1057.59133 29.656 1056.30067 28.38 1055.318 26.708 1054.33533 25.036 1053.844 23.0266667 1053.844 20.68 1053.844 18.2746667 1054.33533 16.236 1055.318 14.564 1056.30067 12.892 1057.59133 11.616 1059.19 10.736 1060.78867 9.856 1062.52667 9.416 1064.404 9.416 1066.28133 9.416 1068.01933 9.856 1069.618 10.736 1071.21667 11.616 1072.50733 12.892 1073.49 14.564 1074.47267 16.236 1074.964 18.2746667 1074.964 20.68 1074.964 23.0266667 1074.47267 25.036 1073.49 26.708 1072.50733 28.38 1071.21667 29.656 1069.618 30.536 1068.01933 31.416 1066.28133 31.856 1064.404 31.856ZM1064.404 28.864C1066.45733 28.864 1068.10733 28.1086667 1069.354 26.598 1070.60067 25.0873333 1071.224 23.1146667 1071.224 20.68 1071.224 18.216 1070.60067 16.2213333 1069.354 14.696 1068.10733 13.1706667 1066.45733 12.408 1064.404 12.408 1062.35067 12.408 1060.70067 13.1706667 1059.454 14.696 1058.20733 16.2213333 1057.584 18.216 1057.584 20.68 1057.584 23.1146667 1058.20733 25.0873333 1059.454 26.598 1060.70067 28.1086667 1062.35067 28.864 1064.404 28.864ZM1092.828 31.856C1090.59867 31.856 1088.604 31.416 1086.844 30.536 1085.084 29.656 1083.69067 28.38 1082.664 26.708 1081.63733 25.036 1081.124 23.0266667 1081.124 20.68 1081.124 18.2746667 1081.66667 16.236 1082.752 14.564 1083.83733 12.892 1085.28933 11.616 1087.108 10.736 1088.92667 9.856 1090.90667 9.416 1093.048 9.416 1094.77867 9.416 1096.28933 9.724 1097.58 10.34 1098.87067 10.956 1099.956 11.6893333 1100.836 12.54L1099.032 14.872C1098.152 14.1093333 1097.23533 13.508 1096.282 13.068 1095.32867 12.628 1094.29467 12.408 1093.18 12.408 1091.53733 12.408 1090.09267 12.7526667 1088.846 13.442 1087.59933 14.1313333 1086.624 15.0993333 1085.92 16.346 1085.216 17.5926667 1084.864 19.0373333 1084.864 20.68 1084.864 22.2933333 1085.20867 23.716 1085.898 24.948 1086.58733 26.18 1087.548 27.1406667 1088.78 27.83 1090.012 28.5193333 1091.44933 28.864 1093.092 28.864 1094.412 28.864 1095.622 28.6 1096.722 28.072 1097.822 27.544 1098.812 26.9133333 1099.692 26.18L1101.32 28.512C1100.14667 29.568 1098.834 30.3893333 1097.382 30.976 1095.93 31.5626667 1094.412 31.856 1092.828 31.856ZM1114.828 31.856C1112.276 31.856 1110.39867 31.1226667 1109.196 29.656 1107.99333 28.1893333 1107.392 26.048 1107.392 23.232L1107.392 9.944 1111.044 9.944 1111.044 22.748C1111.044 24.772 1111.418 26.2753333 1112.166 27.258 1112.914 28.2406667 1114.18267 28.732 1115.972 28.732 1117.204 28.732 1118.326 28.4166667 1119.338 27.786 1120.35 27.1553333 1121.44267 26.1506667 1122.616 24.772L1122.616 9.944 1126.224 9.944 1126.224 31.328 1123.276 31.328 1122.968 27.588 1122.792 27.588C1121.70667 28.8493333 1120.51867 29.876 1119.228 30.668 1117.93733 31.46 1116.47067 31.856 1114.828 31.856ZM1132.956 31.328 1132.956 9.944 1135.86 9.944 1136.168 12.76 1136.256 12.76C1136.81333 11.7626667 1137.45867 10.956 1138.192 10.34 1138.92533 9.724 1139.908 9.416 1141.14 9.416 1143.22267 9.416 1144.572 10.648 1145.188 13.112 1145.804 11.968 1146.486 11.066 1147.234 10.406 1147.982 9.746 1148.972 9.416 1150.204 9.416 1151.7 9.416 1152.866 9.98066667 1153.702 11.11 1154.538 12.2393333 1154.956 13.8746667 1154.956 16.016L1154.956 31.328 1151.348 31.328 1151.348 16.28C1151.348 13.7866667 1150.58533 12.54 1149.06 12.54 1148.32667 12.54 1147.718 12.8113333 1147.234 13.354 1146.75 13.8966667 1146.21467 14.7253333 1145.628 15.84L1145.628 31.328 1142.284 31.328 1142.284 16.28C1142.284 15.048 1142.11533 14.1166667 1141.778 13.486 1141.44067 12.8553333 1140.876 12.54 1140.084 12.54 1139.35067 12.54 1138.71267 12.8113333 1138.17 13.354 1137.62733 13.8966667 1137.092 14.7253333 1136.564 15.84L1136.564 31.328 1132.956 31.328ZM1170.796 12.276C1169.036 12.276 1167.46667 12.8406667 1166.088 13.97 1164.70933 15.0993333 1163.85867 16.72 1163.536 18.832L1177.176 18.832C1177.02933 16.632 1176.384 14.9893333 1175.24 13.904 1174.096 12.8186667 1172.61467 12.276 1170.796 12.276ZM1171.324 31.856C1169.18267 31.856 1167.23933 31.416 1165.494 30.536 1163.74867 29.656 1162.36267 28.3726667 1161.336 26.686 1160.30933 24.9993333 1159.796 22.968 1159.796 20.592 1159.796 18.2746667 1160.30933 16.28 1161.336 14.608 1162.36267 12.936 1163.70467 11.6526667 1165.362 10.758 1167.01933 9.86333333 1168.80133 9.416 1170.708 9.416 1173.788 9.416 1176.186 10.3326667 1177.902 12.166 1179.618 13.9993333 1180.476 16.4266667 1180.476 19.448 1180.476 19.8586667 1180.46133 20.2546667 1180.432 20.636 1180.40267 21.0173333 1180.35867 21.3546667 1180.3 21.648L1163.448 21.648C1163.68267 24.0533333 1164.57 25.872 1166.11 27.104 1167.65 28.336 1169.53467 28.952 1171.764 28.952 1173.05467 28.952 1174.22067 28.7686667 1175.262 28.402 1176.30333 28.0353333 1177.308 27.544 1178.276 26.928L1179.596 29.304C1178.54 30.008 1177.33 30.6093333 1175.966 31.108 1174.602 31.6066667 1173.05467 31.856 1171.324 31.856ZM1187.296 31.328 1187.296 9.944 1190.288 9.944 1190.596 13.596 1190.772 13.596C1191.88667 12.3933333 1193.08933 11.396 1194.38 10.604 1195.67067 9.812 1197.152 9.416 1198.824 9.416 1201.34667 9.416 1203.20933 10.1493333 1204.412 11.616 1205.61467 13.0826667 1206.216 15.224 1206.216 18.04L1206.216 31.328 1202.608 31.328 1202.608 18.524C1202.608 16.5 1202.22667 14.9966667 1201.464 14.014 1200.70133 13.0313333 1199.44 12.54 1197.68 12.54 1196.41867 12.54 1195.28933 12.8626667 1194.292 13.508 1193.29467 14.1533333 1192.16533 15.1213333 1190.904 16.412L1190.904 31.328 1187.296 31.328ZM1226.94 31.856C1224.85733 31.856 1223.21467 31.482 1222.012 30.734 1220.80933 29.986 1219.95133 28.952 1219.438 27.632 1218.92467 26.312 1218.668 24.772 1218.668 23.012L1218.668 12.892 1212.64 12.892 1212.64 10.164 1218.8 9.944 1219.284 3.08 1222.276 3.08 1222.276 9.944 1232.792 9.944 1232.792 12.892 1222.276 12.892 1222.276 23.056C1222.276 24.9626667 1222.66467 26.4146667 1223.442 27.412 1224.21933 28.4093333 1225.63467 28.908 1227.688 28.908 1228.71467 28.908 1229.63867 28.82 1230.46 28.644 1231.28133 28.468 1232.07333 28.2333333 1232.836 27.94L1233.628 30.58C1232.66 30.932 1231.64067 31.2326667 1230.57 31.482 1229.49933 31.7313333 1228.28933 31.856 1226.94 31.856Z"/></g></g><rect width="100" height="200" fill="url(#c)" transform="matrix(-1 0 0 1 100 0)"/></g></svg>