<svg xmlns="http://www.w3.org/2000/svg" xmlns:xlink="http://www.w3.org/1999/xlink" width="800" height="200" viewBox="0 0 800 200"><defs><linearGradient id="c" x1="100%" x2="0%" y1="50%" y2="50%"><stop offset="0%" stop-color="#FFF"/><stop offset="100%" stop-color="#FFF" stop-opacity="0"/></linearGradient><rect id="a" width="800" height="200" x="0" y="0"/></defs><g fill="none" fill-rule="evenodd"><rect width="800" height="200" fill="#FFF"/><g transform="translate(531 10)"><path fill="#2C2C2E" fill-rule="nonzero" d="M.09 5.85.09 7.2 10.17 7.2 10.17 5.85.09 5.85ZM1.2 9.03C1.98 12.57 2.61 17.16 2.76 20.22L3.96 20.04C3.84 16.95 3.18 12.39 2.4 8.82L1.2 9.03ZM3.27.69C4.05 2.1 4.98 3.99 5.37 5.22L6.69 4.71C6.3 3.51 5.37 1.65 4.5.27L3.27.69ZM10.92 15.51 10.92 27.21 12.27 27.21 12.27 16.83 15.54 16.83 15.54 26.91 16.8 26.91 16.8 16.83 20.25 16.83 20.25 26.79 21.51 26.79 21.51 16.83 24.96 16.83 24.96 25.71C24.96 25.98 24.87 26.07 24.63 26.07 24.36 26.07 23.52 26.07 22.53 26.04 22.71 26.4 22.92 26.91 23.01 27.24 24.39 27.24 25.14 27.24 25.68 27 26.19 26.82 26.31 26.43 26.31 25.71L26.31 15.51 18.3 15.51 19.17 12.24 27.03 12.24 27.03 10.89 9.81 10.89 9.81 12.24 17.55 12.24C17.37 13.29 17.13 14.52 16.89 15.51L10.92 15.51ZM11.25 1.5 11.25 8.28 25.95 8.28 25.95 1.5 24.54 1.5 24.54 6.93 19.02 6.93 19.02 0 17.61 0 17.61 6.93 12.63 6.93 12.63 1.5 11.25 1.5ZM7.68 8.52C7.26 12.3 6.42 17.88 5.61 21.21 3.48 21.75 1.5 22.26 0 22.59L.39 24.06C3.18 23.31 6.87 22.35 10.47 21.39L10.29 20.01 6.84 20.88C7.65 17.55 8.46 12.51 9.03 8.79L7.68 8.52ZM32.61 3.21 32.61 26.4 34.11 26.4 34.11 23.76 52.86 23.76 52.86 26.19 54.39 26.19 54.39 3.21 32.61 3.21ZM34.11 22.26 34.11 4.65 52.86 4.65 52.86 22.26 34.11 22.26ZM1.62 60.99 3.42 60.99 3.42 51.75 7.41 51.75C12.27 51.75 15.27 49.65 15.27 45.27 15.27 40.74 12.24 39.12 7.29 39.12L1.62 39.12 1.62 60.99ZM3.42 50.22 3.42 40.62 6.93 40.62C11.28 40.62 13.44 41.7 13.44 45.27 13.44 48.78 11.37 50.22 7.05 50.22L3.42 50.22ZM24.87 61.38C28.74 61.38 32.1 58.32 32.1 53.01 32.1 47.67 28.74 44.58 24.87 44.58 21 44.58 17.64 47.67 17.64 53.01 17.64 58.32 21 61.38 24.87 61.38ZM24.87 59.85C21.72 59.85 19.47 57.09 19.47 53.01 19.47 48.9 21.72 46.11 24.87 46.11 28.02 46.11 30.3 48.9 30.3 53.01 30.3 57.09 28.02 59.85 24.87 59.85ZM36.78 60.99 38.52 60.99 38.52 50.25C39.72 47.28 41.4 46.2 42.81 46.2 43.44 46.2 43.77 46.29 44.28 46.47L44.64 44.91C44.13 44.67 43.65 44.58 43.02 44.58 41.16 44.58 39.6 45.96 38.49 47.94L38.43 47.94 38.22 44.97 36.78 44.97 36.78 60.99ZM52.05 61.38C52.77 61.38 53.79 61.11 54.72 60.78L54.3 59.4C53.76 59.67 52.95 59.88 52.35 59.88 50.22 59.88 49.68 58.59 49.68 56.58L49.68 46.47 54.27 46.47 54.27 44.97 49.68 44.97 49.68 40.38 48.21 40.38 48 44.97 45.48 45.15 45.48 46.47 47.94 46.47 47.94 56.46C47.94 59.4 48.9 61.38 52.05 61.38Z" transform="translate(52.56 106.01)"/><path fill="#FC0" d="M7.6916556,74 C5.01709938,74 4.04724067,73.7215232 3.06946289,73.1986019 C2.09168511,72.6756806 1.32431939,71.9083149 0.801398111,70.9305371 C0.278476833,69.9527593 1.2037061e-16,68.9829006 -2.07168062e-16,66.3083444 L2.07168062e-16,7.6916556 C-1.2037061e-16,5.01709938 0.278476833,4.04724067 0.801398111,3.06946289 C1.32431939,2.09168511 2.09168511,1.32431939 3.06946289,0.801398111 C4.04724067,0.278476833 5.01709938,1.80555915e-16 7.6916556,-3.10752092e-16 L47.3083444,3.10752092e-16 C49.9829006,-1.80555915e-16 50.9527593,0.278476833 51.9305371,0.801398111 C52.9083149,1.32431939 53.6756806,2.09168511 54.1986019,3.06946289 C54.7215232,4.04724067 55,5.01709938 55,7.6916556 L55,66.3083444 C55,68.9829006 54.7215232,69.9527593 54.1986019,70.9305371 C53.6756806,71.9083149 52.9083149,72.6756806 51.9305371,73.1986019 C50.9527593,73.7215232 49.9829006,74 47.3083444,74 L16,74 L16,116 L21.999,116 L22,104 L46,119 L22,134 L21.999,122 L10,122 L10,74 L7.6916556,74 Z" opacity=".5"/></g><g transform="translate(110 10)"><path fill="#00C7BE" d="M7.6916556,74 C5.01709938,74 4.04724067,73.7215232 3.06946289,73.1986019 C2.09168511,72.6756806 1.32431939,71.9083149 0.801398111,70.9305371 C0.278476833,69.9527593 -1.43077765e-16,68.9829006 2.46249008e-16,66.3083444 L6.60585131e-16,7.6916556 C-3.83818985e-16,5.01709938 0.278476833,4.04724067 0.801398111,3.06946289 C1.32431939,2.09168511 2.09168511,1.32431939 3.06946289,0.801398111 C4.04724067,0.278476833 5.01709938,-8.28924603e-17 7.6916556,1.42664977e-16 L394.308344,-1.57632428e-14 C396.982901,9.15889802e-15 397.952759,0.278476833 398.930537,0.801398111 C399.908315,1.32431939 400.675681,2.09168511 401.198602,3.06946289 C401.721523,4.04724067 402,5.01709938 402,7.6916556 L402,66.3083444 C402,68.9829006 401.721523,69.9527593 401.198602,70.9305371 C400.675681,71.9083149 399.908315,72.6756806 398.930537,73.1986019 C397.952759,73.7215232 396.982901,74 394.308344,74 L36,74 L36,116 L51.999,116 L52,104 L76,119 L52,134 L51.999,122 L30,122 L30,74 L7.6916556,74 Z" opacity=".5"/><path fill="#2C2C2E" fill-rule="nonzero" d="M7.53 22.5 7.95 23.91C10.86 23.04 14.73 21.87 18.48 20.76L18.3 19.5C14.34 20.64 10.2 21.81 7.53 22.5ZM21.87.93C23.28 1.89 24.9 3.3 25.71 4.26L26.64 3.33C25.83 2.4 24.15 1.08 22.74.15L21.87.93ZM10.68 10.62 15.54 10.62 15.54 16.53 10.68 16.53 10.68 10.62ZM9.45 9.36 9.45 17.79 16.83 17.79 16.83 9.36 9.45 9.36ZM0 21.57.57 23.01C2.88 21.96 5.79 20.55 8.61 19.23L8.25 17.91 5.01 19.41 5.01 8.85 8.01 8.85 8.01 7.47 5.01 7.47 5.01.36 3.63.36 3.63 7.47.18 7.47.18 8.85 3.63 8.85 3.63 20.04C2.25 20.64 1.02 21.18 0 21.57ZM25.02 9.36C24.15 12.6 22.95 15.54 21.42 18.09 20.91 14.91 20.55 10.8 20.4 6.03L27.03 6.03 27.03 4.68 20.37 4.68 20.31.06 18.87.06 18.96 4.68 8.55 4.68 8.55 6.03 18.99 6.03C19.2 11.43 19.59 16.2 20.31 19.8 18.57 22.29 16.44 24.39 13.92 25.98 14.25 26.22 14.82 26.73 15 27 17.19 25.5 19.08 23.67 20.7 21.54 21.63 25.14 22.95 27.27 24.84 27.27 26.49 27.27 26.97 25.92 27.24 21.93 26.91 21.81 26.4 21.51 26.1 21.21 25.98 24.6 25.68 25.86 24.96 25.86 23.64 25.86 22.56 23.76 21.78 20.04 23.76 17.1 25.29 13.65 26.4 9.66L25.02 9.36ZM37.17 8.73C38.91 9.9 40.95 11.52 42.3 12.81 38.55 14.91 34.35 16.38 30.51 17.19 30.81 17.52 31.17 18.15 31.29 18.51 33 18.12 34.8 17.61 36.57 16.95L36.57 27.3 38.01 27.3 38.01 25.59 52.62 25.59 52.62 27.27 54.09 27.27 54.09 15.24 40.65 15.24C46.14 12.6 51.18 8.7 53.88 3.6L52.98 3 52.71 3.09 40.98 3.09C41.79 2.16 42.48 1.23 43.08.33L41.4 0C39.63 2.91 36.12 6.39 31.26 8.85 31.59 9.09 32.07 9.57 32.28 9.9 35.25 8.34 37.71 6.45 39.69 4.47L51.75 4.47C49.86 7.44 46.98 9.99 43.65 12.03 42.27 10.74 40.05 9.09 38.25 7.89L37.17 8.73ZM52.62 24.18 38.01 24.18 38.01 16.65 52.62 16.65 52.62 24.18ZM1.95 61.08 7.17 61.08C13.86 61.08 17.1 56.76 17.1 50.07 17.1 43.38 13.86 39.21 7.08 39.21L1.95 39.21 1.95 61.08ZM3.75 59.55 3.75 40.74 6.9 40.74C12.69 40.74 15.24 44.4 15.24 50.07 15.24 55.74 12.69 59.55 6.9 59.55L3.75 59.55ZM27.84 61.47C31.71 61.47 35.07 58.41 35.07 53.1 35.07 47.76 31.71 44.67 27.84 44.67 23.97 44.67 20.61 47.76 20.61 53.1 20.61 58.41 23.97 61.47 27.84 61.47ZM27.84 59.94C24.69 59.94 22.44 57.18 22.44 53.1 22.44 48.99 24.69 46.2 27.84 46.2 30.99 46.2 33.27 48.99 33.27 53.1 33.27 57.18 30.99 59.94 27.84 59.94ZM39.75 61.08 41.49 61.08 41.49 49.11C43.17 47.19 44.7 46.23 46.11 46.23 48.48 46.23 49.56 47.79 49.56 51.09L49.56 61.08 51.3 61.08 51.3 49.11C53.01 47.19 54.48 46.23 55.92 46.23 58.26 46.23 59.37 47.79 59.37 51.09L59.37 61.08 61.11 61.08 61.11 50.85C61.11 46.74 59.52 44.67 56.34 44.67 54.45 44.67 52.71 45.93 50.91 47.91 50.34 45.93 49.05 44.67 46.5 44.67 44.67 44.67 42.9 45.93 41.46 47.52L41.4 47.52 41.19 45.06 39.75 45.06 39.75 61.08ZM70.41 61.47C72.48 61.47 74.37 60.36 75.96 59.04L76.08 59.04 76.26 61.08 77.7 61.08 77.7 50.94C77.7 47.4 76.35 44.67 72.51 44.67 69.93 44.67 67.71 45.93 66.51 46.74L67.26 48.03C68.4 47.22 70.2 46.2 72.3 46.2 75.33 46.2 75.99 48.66 75.93 51.03 68.91 51.81 65.76 53.52 65.76 57.03 65.76 60.03 67.83 61.47 70.41 61.47ZM70.77 59.97C68.97 59.97 67.5 59.16 67.5 56.94 67.5 54.51 69.63 53.01 75.93 52.32L75.93 57.51C74.07 59.13 72.54 59.97 70.77 59.97ZM83.28 61.08 85.02 61.08 85.02 45.06 83.28 45.06 83.28 61.08ZM84.18 41.34C84.96 41.34 85.56 40.8 85.56 39.87 85.56 39.03 84.96 38.46 84.18 38.46 83.37 38.46 82.8 39.03 82.8 39.87 82.8 40.8 83.37 41.34 84.18 41.34ZM90.99 61.08 92.73 61.08 92.73 49.11C94.59 47.19 95.91 46.23 97.74 46.23 100.23 46.23 101.28 47.79 101.28 51.09L101.28 61.08 103.02 61.08 103.02 50.85C103.02 46.74 101.49 44.67 98.16 44.67 95.97 44.67 94.29 45.93 92.7 47.52L92.64 47.52 92.43 45.06 90.99 45.06 90.99 61.08ZM115.38 61.08 117.12 61.08 117.12 49.11C118.98 47.19 120.3 46.23 122.13 46.23 124.62 46.23 125.67 47.79 125.67 51.09L125.67 61.08 127.41 61.08 127.41 50.85C127.41 46.74 125.88 44.67 122.55 44.67 120.36 44.67 118.68 45.93 117.09 47.52L117.03 47.52 116.82 45.06 115.38 45.06 115.38 61.08ZM136.68 61.47C138.75 61.47 140.64 60.36 142.23 59.04L142.35 59.04 142.53 61.08 143.97 61.08 143.97 50.94C143.97 47.4 142.62 44.67 138.78 44.67 136.2 44.67 133.98 45.93 132.78 46.74L133.53 48.03C134.67 47.22 136.47 46.2 138.57 46.2 141.6 46.2 142.26 48.66 142.2 51.03 135.18 51.81 132.03 53.52 132.03 57.03 132.03 60.03 134.1 61.47 136.68 61.47ZM137.04 59.97C135.24 59.97 133.77 59.16 133.77 56.94 133.77 54.51 135.9 53.01 142.2 52.32L142.2 57.51C140.34 59.13 138.81 59.97 137.04 59.97ZM149.55 61.08 151.29 61.08 151.29 49.11C152.97 47.19 154.5 46.23 155.91 46.23 158.28 46.23 159.36 47.79 159.36 51.09L159.36 61.08 161.1 61.08 161.1 49.11C162.81 47.19 164.28 46.23 165.72 46.23 168.06 46.23 169.17 47.79 169.17 51.09L169.17 61.08 170.91 61.08 170.91 50.85C170.91 46.74 169.32 44.67 166.14 44.67 164.25 44.67 162.51 45.93 160.71 47.91 160.14 45.93 158.85 44.67 156.3 44.67 154.47 44.67 152.7 45.93 151.26 47.52L151.2 47.52 150.99 45.06 149.55 45.06 149.55 61.08ZM182.82 61.47C185.1 61.47 186.6 60.72 187.89 59.91L187.2 58.62C186 59.46 184.68 60 182.97 60 179.52 60 177.21 57.27 177.12 53.4L188.46 53.4C188.52 52.98 188.55 52.53 188.55 52.11 188.55 47.43 186.24 44.67 182.37 44.67 178.77 44.67 175.35 47.88 175.35 53.1 175.35 58.35 178.68 61.47 182.82 61.47ZM177.12 51.99C177.45 48.33 179.79 46.17 182.37 46.17 185.19 46.17 186.93 48.12 186.93 51.99L177.12 51.99Z" transform="translate(82.23 105.92)"/></g><mask id="b" fill="#fff"><use xlink:href="#a"/></mask><g fill-rule="nonzero" mask="url(#b)"><g transform="translate(10.292 27.672)"><path fill="#C7C7CC" d="M0 40.348 0 9.944 2.992 9.944 3.3 12.672 3.432 12.672C4.42933333 11.7333333 5.58066667 10.956 6.886 10.34 8.19133333 9.724 9.504 9.416 10.824 9.416 13.6986667 9.416 15.8913333 10.406 17.402 12.386 18.9126667 14.366 19.668 17.0133333 19.668 20.328 19.668 22.7333333 19.2133333 24.8013333 18.304 26.532 17.3946667 28.2626667 16.2066667 29.5826667 14.74 30.492 13.2733333 31.4013333 11.6746667 31.856 9.944 31.856 8.94666667 31.856 7.86866667 31.614 6.71 31.13 5.55133333 30.646 4.50266667 29.964 3.564 29.084L3.432 29.084 3.608 33.132 3.608 40.348 0 40.348ZM9.328 28.82C11.2346667 28.82 12.8113333 28.0646667 14.058 26.554 15.3046667 25.0433333 15.928 22.968 15.928 20.328 15.928 17.9813333 15.4586667 16.082 14.52 14.63 13.5813333 13.178 12.0413333 12.452 9.9 12.452 8.96133333 12.452 7.95666667 12.7086667 6.886 13.222 5.81533333 13.7353333 4.72266667 14.5493333 3.608 15.664L3.608 26.312C4.63466667 27.2213333 5.66133333 27.8666667 6.688 28.248 7.71466667 28.6293333 8.59466667 28.82 9.328 28.82ZM35.508 16.104C34.5106667 16.104 33.6673333 15.7593333 32.978 15.07 32.2886667 14.3806667 31.944 13.4933333 31.944 12.408 31.944 11.2933333 32.2886667 10.3913333 32.978 9.702 33.6673333 9.01266667 34.5106667 8.668 35.508 8.668 36.5053333 8.668 37.3486667 9.01266667 38.038 9.702 38.7273333 10.3913333 39.072 11.2933333 39.072 12.408 39.072 13.4933333 38.7273333 14.3806667 38.038 15.07 37.3486667 15.7593333 36.5053333 16.104 35.508 16.104ZM35.508 31.856C34.5106667 31.856 33.6673333 31.5113333 32.978 30.822 32.2886667 30.1326667 31.944 29.2453333 31.944 28.16 31.944 27.0453333 32.2886667 26.1433333 32.978 25.454 33.6673333 24.7646667 34.5106667 24.42 35.508 24.42 36.5053333 24.42 37.3486667 24.7646667 38.038 25.454 38.7273333 26.1433333 39.072 27.0453333 39.072 28.16 39.072 29.2453333 38.7273333 30.1326667 38.038 30.822 37.3486667 31.5113333 36.5053333 31.856 35.508 31.856Z"/><polygon fill="#C7C7CC" points="53.064 38.368 67.496 .088 70.752 .088 56.32 38.368"/><polygon fill="#C7C7CC" points="79.464 38.368 93.896 .088 97.152 .088 82.72 38.368"/><path fill="#2C2C2E" d="M106.524 31.328 101.86 9.944 105.468 9.944 108.02 22.352C108.225333 23.3493333 108.408667 24.3246667 108.57 25.278 108.731333 26.2313333 108.870667 27.2213333 108.988 28.248L109.164 28.248C109.310667 27.2213333 109.494 26.2313333 109.714 25.278 109.934 24.3246667 110.161333 23.3493333 110.396 22.352L113.036 11.264 116.644 11.264 119.196 22.352C119.430667 23.3493333 119.68 24.3246667 119.944 25.278 120.208 26.2313333 120.398667 27.2213333 120.516 28.248L120.692 28.248C120.868 27.2213333 121.022 26.2313333 121.154 25.278 121.286 24.3246667 121.454667 23.3493333 121.66 22.352L124.212 9.944 127.556 9.944 122.98 31.328 118.316 31.328 115.852 21.12C115.5 19.624 115.148 17.512 114.796 14.784L114.62 14.784C114.268 17.512 113.916 19.624 113.564 21.12L111.188 31.328 106.524 31.328ZM132.924 31.328 128.26 9.944 131.868 9.944 134.42 22.352C134.625333 23.3493333 134.808667 24.3246667 134.97 25.278 135.131333 26.2313333 135.270667 27.2213333 135.388 28.248L135.564 28.248C135.710667 27.2213333 135.894 26.2313333 136.114 25.278 136.334 24.3246667 136.561333 23.3493333 136.796 22.352L139.436 11.264 143.044 11.264 145.596 22.352C145.830667 23.3493333 146.08 24.3246667 146.344 25.278 146.608 26.2313333 146.798667 27.2213333 146.916 28.248L147.092 28.248C147.268 27.2213333 147.422 26.2313333 147.554 25.278 147.686 24.3246667 147.854667 23.3493333 148.06 22.352L150.612 9.944 153.956 9.944 149.38 31.328 144.716 31.328 142.252 21.12C141.9 19.624 141.548 17.512 141.196 14.784L141.02 14.784C140.668 17.512 140.316 19.624 139.964 21.12L137.588 31.328 132.924 31.328ZM159.324 31.328 154.66 9.944 158.268 9.944 160.82 22.352C161.025333 23.3493333 161.208667 24.3246667 161.37 25.278 161.531333 26.2313333 161.670667 27.2213333 161.788 28.248L161.964 28.248C162.110667 27.2213333 162.294 26.2313333 162.514 25.278 162.734 24.3246667 162.961333 23.3493333 163.196 22.352L165.836 11.264 169.444 11.264 171.996 22.352C172.230667 23.3493333 172.48 24.3246667 172.744 25.278 173.008 26.2313333 173.198667 27.2213333 173.316 28.248L173.492 28.248C173.668 27.2213333 173.822 26.2313333 173.954 25.278 174.086 24.3246667 174.254667 23.3493333 174.46 22.352L177.012 9.944 180.356 9.944 175.78 31.328 171.116 31.328 168.652 21.12C168.3 19.624 167.948 17.512 167.596 14.784L167.42 14.784C167.068 17.512 166.716 19.624 166.364 21.12L163.988 31.328 159.324 31.328ZM193.908 31.856C192.910667 31.856 192.067333 31.5113333 191.378 30.822 190.688667 30.1326667 190.344 29.2453333 190.344 28.16 190.344 27.0453333 190.688667 26.1433333 191.378 25.454 192.067333 24.7646667 192.910667 24.42 193.908 24.42 194.905333 24.42 195.748667 24.7646667 196.438 25.454 197.127333 26.1433333 197.472 27.0453333 197.472 28.16 197.472 29.2453333 197.127333 30.1326667 196.438 30.822 195.748667 31.5113333 194.905333 31.856 193.908 31.856ZM221.1 12.276C219.34 12.276 217.770667 12.8406667 216.392 13.97 215.013333 15.0993333 214.162667 16.72 213.84 18.832L227.48 18.832C227.333333 16.632 226.688 14.9893333 225.544 13.904 224.4 12.8186667 222.918667 12.276 221.1 12.276ZM221.628 31.856C219.486667 31.856 217.543333 31.416 215.798 30.536 214.052667 29.656 212.666667 28.3726667 211.64 26.686 210.613333 24.9993333 210.1 22.968 210.1 20.592 210.1 18.2746667 210.613333 16.28 211.64 14.608 212.666667 12.936 214.008667 11.6526667 215.666 10.758 217.323333 9.86333333 219.105333 9.416 221.012 9.416 224.092 9.416 226.49 10.3326667 228.206 12.166 229.922 13.9993333 230.78 16.4266667 230.78 19.448 230.78 19.8586667 230.765333 20.2546667 230.736 20.636 230.706667 21.0173333 230.662667 21.3546667 230.604 21.648L213.752 21.648C213.986667 24.0533333 214.874 25.872 216.414 27.104 217.954 28.336 219.838667 28.952 222.068 28.952 223.358667 28.952 224.524667 28.7686667 225.566 28.402 226.607333 28.0353333 227.612 27.544 228.58 26.928L229.9 29.304C228.844 30.008 227.634 30.6093333 226.27 31.108 224.906 31.6066667 223.358667 31.856 221.628 31.856ZM236.324 31.328 244.464 20.24 236.94 9.944 240.944 9.944 244.332 14.652C244.713333 15.2093333 245.116667 15.8033333 245.542 16.434 245.967333 17.0646667 246.4 17.6733333 246.84 18.26L247.016 18.26C247.426667 17.6733333 247.837333 17.0573333 248.248 16.412 248.658667 15.7666667 249.054667 15.1506667 249.436 14.564L252.648 9.944 256.476 9.944 248.864 20.548 257.048 31.328 253.088 31.328 249.348 26.4C248.908 25.784 248.446 25.1386667 247.962 24.464 247.478 23.7893333 247.001333 23.144 246.532 22.528L246.356 22.528C245.916 23.1733333 245.476 23.8113333 245.036 24.442 244.596 25.0726667 244.156 25.7253333 243.716 26.4L240.196 31.328 236.324 31.328ZM270.732 31.856C269.412 31.856 268.202 31.614 267.102 31.13 266.002 30.646 265.122 29.9493333 264.462 29.04 263.802 28.1306667 263.472 27.0453333 263.472 25.784 263.472 24.1706667 263.992667 22.8286667 265.034 21.758 266.075333 20.6873333 267.74 19.8293333 270.028 19.184 272.316 18.5386667 275.293333 18.0693333 278.96 17.776 278.930667 16.808 278.732667 15.9206667 278.366 15.114 277.999333 14.3073333 277.405333 13.6546667 276.584 13.156 275.762667 12.6573333 274.662667 12.408 273.284 12.408 271.905333 12.408 270.563333 12.6793333 269.258 13.222 267.952667 13.7646667 266.801333 14.344 265.804 14.96L264.396 12.496C265.481333 11.792 266.867333 11.1026667 268.554 10.428 270.240667 9.75333333 272.022667 9.416 273.9 9.416 276.833333 9.416 279.011333 10.2153333 280.434 11.814 281.856667 13.4126667 282.568 15.5466667 282.568 18.216L282.568 31.328 279.62 31.328 279.312 28.424 279.18 28.424C278.006667 29.3333333 276.686667 30.1326667 275.22 30.822 273.753333 31.5113333 272.257333 31.856 270.732 31.856ZM271.7 28.952C272.902667 28.952 274.112667 28.6733333 275.33 28.116 276.547333 27.5586667 277.757333 26.7813333 278.96 25.784L278.96 20.152C275.909333 20.3866667 273.511333 20.746 271.766 21.23 270.020667 21.714 268.788667 22.3153333 268.07 23.034 267.351333 23.7526667 266.992 24.5813333 266.992 25.52 266.992 26.7226667 267.468667 27.5953333 268.422 28.138 269.375333 28.6806667 270.468 28.952 271.7 28.952ZM288.86 31.328 288.86 9.944 291.764 9.944 292.072 12.76 292.16 12.76C292.717333 11.7626667 293.362667 10.956 294.096 10.34 294.829333 9.724 295.812 9.416 297.044 9.416 299.126667 9.416 300.476 10.648 301.092 13.112 301.708 11.968 302.39 11.066 303.138 10.406 303.886 9.746 304.876 9.416 306.108 9.416 307.604 9.416 308.77 9.98066667 309.606 11.11 310.442 12.2393333 310.86 13.8746667 310.86 16.016L310.86 31.328 307.252 31.328 307.252 16.28C307.252 13.7866667 306.489333 12.54 304.964 12.54 304.230667 12.54 303.622 12.8113333 303.138 13.354 302.654 13.8966667 302.118667 14.7253333 301.532 15.84L301.532 31.328 298.188 31.328 298.188 16.28C298.188 15.048 298.019333 14.1166667 297.682 13.486 297.344667 12.8553333 296.78 12.54 295.988 12.54 295.254667 12.54 294.616667 12.8113333 294.074 13.354 293.531333 13.8966667 292.996 14.7253333 292.468 15.84L292.468 31.328 288.86 31.328ZM316.8 40.348 316.8 9.944 319.792 9.944 320.1 12.672 320.232 12.672C321.229333 11.7333333 322.380667 10.956 323.686 10.34 324.991333 9.724 326.304 9.416 327.624 9.416 330.498667 9.416 332.691333 10.406 334.202 12.386 335.712667 14.366 336.468 17.0133333 336.468 20.328 336.468 22.7333333 336.013333 24.8013333 335.104 26.532 334.194667 28.2626667 333.006667 29.5826667 331.54 30.492 330.073333 31.4013333 328.474667 31.856 326.744 31.856 325.746667 31.856 324.668667 31.614 323.51 31.13 322.351333 30.646 321.302667 29.964 320.364 29.084L320.232 29.084 320.408 33.132 320.408 40.348 316.8 40.348ZM326.128 28.82C328.034667 28.82 329.611333 28.0646667 330.858 26.554 332.104667 25.0433333 332.728 22.968 332.728 20.328 332.728 17.9813333 332.258667 16.082 331.32 14.63 330.381333 13.178 328.841333 12.452 326.7 12.452 325.761333 12.452 324.756667 12.7086667 323.686 13.222 322.615333 13.7353333 321.522667 14.5493333 320.408 15.664L320.408 26.312C321.434667 27.2213333 322.461333 27.8666667 323.488 28.248 324.514667 28.6293333 325.394667 28.82 326.128 28.82ZM357.016 31.856C354.757333 31.856 353.019333 31.2033333 351.802 29.898 350.584667 28.5926667 349.976 26.6786667 349.976 24.156L349.976 2.948 342.364 2.948 342.364 0 353.584 0 353.584 24.42C353.584 25.9746667 353.972667 27.104 354.75 27.808 355.527333 28.512 356.546667 28.864 357.808 28.864 359.069333 28.864 360.404 28.5413333 361.812 27.896L362.736 30.58C361.738667 30.9906667 360.829333 31.306 360.008 31.526 359.186667 31.746 358.189333 31.856 357.016 31.856ZM379.5 12.276C377.74 12.276 376.170667 12.8406667 374.792 13.97 373.413333 15.0993333 372.562667 16.72 372.24 18.832L385.88 18.832C385.733333 16.632 385.088 14.9893333 383.944 13.904 382.8 12.8186667 381.318667 12.276 379.5 12.276ZM380.028 31.856C377.886667 31.856 375.943333 31.416 374.198 30.536 372.452667 29.656 371.066667 28.3726667 370.04 26.686 369.013333 24.9993333 368.5 22.968 368.5 20.592 368.5 18.2746667 369.013333 16.28 370.04 14.608 371.066667 12.936 372.408667 11.6526667 374.066 10.758 375.723333 9.86333333 377.505333 9.416 379.412 9.416 382.492 9.416 384.89 10.3326667 386.606 12.166 388.322 13.9993333 389.18 16.4266667 389.18 19.448 389.18 19.8586667 389.165333 20.2546667 389.136 20.636 389.106667 21.0173333 389.062667 21.3546667 389.004 21.648L372.152 21.648C372.386667 24.0533333 373.274 25.872 374.814 27.104 376.354 28.336 378.238667 28.952 380.468 28.952 381.758667 28.952 382.924667 28.7686667 383.966 28.402 385.007333 28.0353333 386.012 27.544 386.98 26.928L388.3 29.304C387.244 30.008 386.034 30.6093333 384.67 31.108 383.306 31.6066667 381.758667 31.856 380.028 31.856ZM405.108 31.856C404.110667 31.856 403.267333 31.5113333 402.578 30.822 401.888667 30.1326667 401.544 29.2453333 401.544 28.16 401.544 27.0453333 401.888667 26.1433333 402.578 25.454 403.267333 24.7646667 404.110667 24.42 405.108 24.42 406.105333 24.42 406.948667 24.7646667 407.638 25.454 408.327333 26.1433333 408.672 27.0453333 408.672 28.16 408.672 29.2453333 408.327333 30.1326667 407.638 30.822 406.948667 31.5113333 406.105333 31.856 405.108 31.856ZM433.532 31.856C431.302667 31.856 429.308 31.416 427.548 30.536 425.788 29.656 424.394667 28.38 423.368 26.708 422.341333 25.036 421.828 23.0266667 421.828 20.68 421.828 18.2746667 422.370667 16.236 423.456 14.564 424.541333 12.892 425.993333 11.616 427.812 10.736 429.630667 9.856 431.610667 9.416 433.752 9.416 435.482667 9.416 436.993333 9.724 438.284 10.34 439.574667 10.956 440.66 11.6893333 441.54 12.54L439.736 14.872C438.856 14.1093333 437.939333 13.508 436.986 13.068 436.032667 12.628 434.998667 12.408 433.884 12.408 432.241333 12.408 430.796667 12.7526667 429.55 13.442 428.303333 14.1313333 427.328 15.0993333 426.624 16.346 425.92 17.5926667 425.568 19.0373333 425.568 20.68 425.568 22.2933333 425.912667 23.716 426.602 24.948 427.291333 26.18 428.252 27.1406667 429.484 27.83 430.716 28.5193333 432.153333 28.864 433.796 28.864 435.116 28.864 436.326 28.6 437.426 28.072 438.526 27.544 439.516 26.9133333 440.396 26.18L442.024 28.512C440.850667 29.568 439.538 30.3893333 438.086 30.976 436.634 31.5626667 435.116 31.856 433.532 31.856ZM457.908 31.856C456.030667 31.856 454.292667 31.416 452.694 30.536 451.095333 29.656 449.804667 28.38 448.822 26.708 447.839333 25.036 447.348 23.0266667 447.348 20.68 447.348 18.2746667 447.839333 16.236 448.822 14.564 449.804667 12.892 451.095333 11.616 452.694 10.736 454.292667 9.856 456.030667 9.416 457.908 9.416 459.785333 9.416 461.523333 9.856 463.122 10.736 464.720667 11.616 466.011333 12.892 466.994 14.564 467.976667 16.236 468.468 18.2746667 468.468 20.68 468.468 23.0266667 467.976667 25.036 466.994 26.708 466.011333 28.38 464.720667 29.656 463.122 30.536 461.523333 31.416 459.785333 31.856 457.908 31.856ZM457.908 28.864C459.961333 28.864 461.611333 28.1086667 462.858 26.598 464.104667 25.0873333 464.728 23.1146667 464.728 20.68 464.728 18.216 464.104667 16.2213333 462.858 14.696 461.611333 13.1706667 459.961333 12.408 457.908 12.408 455.854667 12.408 454.204667 13.1706667 452.958 14.696 451.711333 16.2213333 451.088 18.216 451.088 20.68 451.088 23.1146667 451.711333 25.0873333 452.958 26.598 454.204667 28.1086667 455.854667 28.864 457.908 28.864ZM473.66 31.328 473.66 9.944 476.564 9.944 476.872 12.76 476.96 12.76C477.517333 11.7626667 478.162667 10.956 478.896 10.34 479.629333 9.724 480.612 9.416 481.844 9.416 483.926667 9.416 485.276 10.648 485.892 13.112 486.508 11.968 487.19 11.066 487.938 10.406 488.686 9.746 489.676 9.416 490.908 9.416 492.404 9.416 493.57 9.98066667 494.406 11.11 495.242 12.2393333 495.66 13.8746667 495.66 16.016L495.66 31.328 492.052 31.328 492.052 16.28C492.052 13.7866667 491.289333 12.54 489.764 12.54 489.030667 12.54 488.422 12.8113333 487.938 13.354 487.454 13.8966667 486.918667 14.7253333 486.332 15.84L486.332 31.328 482.988 31.328 482.988 16.28C482.988 15.048 482.819333 14.1166667 482.482 13.486 482.144667 12.8553333 481.58 12.54 480.788 12.54 480.054667 12.54 479.416667 12.8113333 478.874 13.354 478.331333 13.8966667 477.796 14.7253333 477.268 15.84L477.268 31.328 473.66 31.328ZM510.708 16.104C509.710667 16.104 508.867333 15.7593333 508.178 15.07 507.488667 14.3806667 507.144 13.4933333 507.144 12.408 507.144 11.2933333 507.488667 10.3913333 508.178 9.702 508.867333 9.01266667 509.710667 8.668 510.708 8.668 511.705333 8.668 512.548667 9.01266667 513.238 9.702 513.927333 10.3913333 514.272 11.2933333 514.272 12.408 514.272 13.4933333 513.927333 14.3806667 513.238 15.07 512.548667 15.7593333 511.705333 16.104 510.708 16.104ZM510.708 31.856C509.710667 31.856 508.867333 31.5113333 508.178 30.822 507.488667 30.1326667 507.144 29.2453333 507.144 28.16 507.144 27.0453333 507.488667 26.1433333 508.178 25.454 508.867333 24.7646667 509.710667 24.42 510.708 24.42 511.705333 24.42 512.548667 24.7646667 513.238 25.454 513.927333 26.1433333 514.272 27.0453333 514.272 28.16 514.272 29.2453333 513.927333 30.1326667 513.238 30.822 512.548667 31.5113333 511.705333 31.856 510.708 31.856ZM537.196 31.856C535.084 31.856 533.258 31.526 531.718 30.866 530.178 30.206 528.99 29.2893333 528.154 28.116 527.318 26.9426667 526.9 25.6226667 526.9 24.156 526.9 22.8653333 527.193333 21.7506667 527.78 20.812 528.366667 19.8733333 529.122 19.0666667 530.046 18.392 530.97 17.7173333 531.930667 17.1453333 532.928 16.676L532.928 16.5C531.754667 15.7666667 530.75 14.8573333 529.914 13.772 529.078 12.6866667 528.66 11.4106667 528.66 9.944 528.66 8.50666667 529.034 7.24533333 529.782 6.16 530.53 5.07466667 531.556667 4.23133333 532.862 3.63 534.167333 3.02866667 535.656 2.728 537.328 2.728 540.085333 2.728 542.226667 3.432 543.752 4.84 545.277333 6.248 546.04 8.03733333 546.04 10.208 546.04 11.528 545.622 12.7673333 544.786 13.926 543.95 15.0846667 542.945333 16.0746667 541.772 16.896L541.772 17.072C542.798667 17.5706667 543.73 18.1353333 544.566 18.766 545.402 19.3966667 546.062 20.152 546.546 21.032 547.03 21.912 547.272 23.0266667 547.272 24.376 547.272 25.7546667 546.876 27.016 546.084 28.16 545.292 29.304 544.148 30.206 542.652 30.866 541.156 31.526 539.337333 31.856 537.196 31.856ZM539.396 16.016C541.742667 14.3146667 542.916 12.4373333 542.916 10.384 542.916 9.00533333 542.432 7.832 541.464 6.864 540.496 5.896 539.088 5.412 537.24 5.412 535.685333 5.412 534.416667 5.82266667 533.434 6.644 532.451333 7.46533333 531.96 8.56533333 531.96 9.944 531.96 11.0586667 532.29 11.9826667 532.95 12.716 533.61 13.4493333 534.504667 14.0726667 535.634 14.586 536.763333 15.0993333 538.017333 15.576 539.396 16.016ZM537.284 29.172C539.366667 29.172 540.972667 28.71 542.102 27.786 543.231333 26.862 543.796 25.6813333 543.796 24.244 543.796 22.924 543.407333 21.89 542.63 21.142 541.852667 20.394 540.796667 19.7706667 539.462 19.272 538.127333 18.7733333 536.638667 18.2453333 534.996 17.688 533.646667 18.4213333 532.51 19.272 531.586 20.24 530.662 21.208 530.2 22.396 530.2 23.804 530.2 25.3586667 530.845333 26.642 532.136 27.654 533.426667 28.666 535.142667 29.172 537.284 29.172ZM563.508 31.856C560.398667 31.856 557.942 30.58 556.138 28.028 554.334 25.476 553.432 21.868 553.432 17.204 553.432 12.4813333 554.334 8.888 556.138 6.424 557.942 3.96 560.398667 2.728 563.508 2.728 566.646667 2.728 569.110667 3.96 570.9 6.424 572.689333 8.888 573.584 12.4813333 573.584 17.204 573.584 21.868 572.689333 25.476 570.9 28.028 569.110667 30.58 566.646667 31.856 563.508 31.856ZM563.508 28.952C565.473333 28.952 567.079333 27.9986667 568.326 26.092 569.572667 24.1853333 570.196 21.2226667 570.196 17.204 570.196 13.156 569.572667 10.2153333 568.326 8.382 567.079333 6.54866667 565.473333 5.632 563.508 5.632 561.542667 5.632 559.936667 6.54866667 558.69 8.382 557.443333 10.2153333 556.82 13.156 556.82 17.204 556.82 21.2226667 557.443333 24.1853333 558.69 26.092 559.936667 27.9986667 561.542667 28.952 563.508 28.952ZM563.508 19.844C562.774667 19.844 562.136667 19.58 561.594 19.052 561.051333 18.524 560.78 17.8053333 560.78 16.896 560.78 15.9866667 561.051333 15.2753333 561.594 14.762 562.136667 14.2486667 562.774667 13.992 563.508 13.992 564.241333 13.992 564.879333 14.2486667 565.422 14.762 565.964667 15.2753333 566.236 15.9866667 566.236 16.896 566.236 17.8053333 565.964667 18.524 565.422 19.052 564.879333 19.58 564.241333 19.844 563.508 19.844Z"/><polygon fill="#C7C7CC" points="581.064 38.368 595.496 .088 598.752 .088 584.32 38.368"/><path fill="#C7C7CC" d="M607.2 40.348 607.2 9.944 610.192 9.944 610.5 12.672 610.632 12.672C611.629333 11.7333333 612.780667 10.956 614.086 10.34 615.391333 9.724 616.704 9.416 618.024 9.416 620.898667 9.416 623.091333 10.406 624.602 12.386 626.112667 14.366 626.868 17.0133333 626.868 20.328 626.868 22.7333333 626.413333 24.8013333 625.504 26.532 624.594667 28.2626667 623.406667 29.5826667 621.94 30.492 620.473333 31.4013333 618.874667 31.856 617.144 31.856 616.146667 31.856 615.068667 31.614 613.91 31.13 612.751333 30.646 611.702667 29.964 610.764 29.084L610.632 29.084 610.808 33.132 610.808 40.348 607.2 40.348ZM616.528 28.82C618.434667 28.82 620.011333 28.0646667 621.258 26.554 622.504667 25.0433333 623.128 22.968 623.128 20.328 623.128 17.9813333 622.658667 16.082 621.72 14.63 620.781333 13.178 619.241333 12.452 617.1 12.452 616.161333 12.452 615.156667 12.7086667 614.086 13.222 613.015333 13.7353333 611.922667 14.5493333 610.808 15.664L610.808 26.312C611.834667 27.2213333 612.861333 27.8666667 613.888 28.248 614.914667 28.6293333 615.794667 28.82 616.528 28.82ZM640.332 31.856C639.012 31.856 637.802 31.614 636.702 31.13 635.602 30.646 634.722 29.9493333 634.062 29.04 633.402 28.1306667 633.072 27.0453333 633.072 25.784 633.072 24.1706667 633.592667 22.8286667 634.634 21.758 635.675333 20.6873333 637.34 19.8293333 639.628 19.184 641.916 18.5386667 644.893333 18.0693333 648.56 17.776 648.530667 16.808 648.332667 15.9206667 647.966 15.114 647.599333 14.3073333 647.005333 13.6546667 646.184 13.156 645.362667 12.6573333 644.262667 12.408 642.884 12.408 641.505333 12.408 640.163333 12.6793333 638.858 13.222 637.552667 13.7646667 636.401333 14.344 635.404 14.96L633.996 12.496C635.081333 11.792 636.467333 11.1026667 638.154 10.428 639.840667 9.75333333 641.622667 9.416 643.5 9.416 646.433333 9.416 648.611333 10.2153333 650.034 11.814 651.456667 13.4126667 652.168 15.5466667 652.168 18.216L652.168 31.328 649.22 31.328 648.912 28.424 648.78 28.424C647.606667 29.3333333 646.286667 30.1326667 644.82 30.822 643.353333 31.5113333 641.857333 31.856 640.332 31.856ZM641.3 28.952C642.502667 28.952 643.712667 28.6733333 644.93 28.116 646.147333 27.5586667 647.357333 26.7813333 648.56 25.784L648.56 20.152C645.509333 20.3866667 643.111333 20.746 641.366 21.23 639.620667 21.714 638.388667 22.3153333 637.67 23.034 636.951333 23.7526667 636.592 24.5813333 636.592 25.52 636.592 26.7226667 637.068667 27.5953333 638.022 28.138 638.975333 28.6806667 640.068 28.952 641.3 28.952ZM673.244 31.856C671.161333 31.856 669.518667 31.482 668.316 30.734 667.113333 29.986 666.255333 28.952 665.742 27.632 665.228667 26.312 664.972 24.772 664.972 23.012L664.972 12.892 658.944 12.892 658.944 10.164 665.104 9.944 665.588 3.08 668.58 3.08 668.58 9.944 679.096 9.944 679.096 12.892 668.58 12.892 668.58 23.056C668.58 24.9626667 668.968667 26.4146667 669.746 27.412 670.523333 28.4093333 671.938667 28.908 673.992 28.908 675.018667 28.908 675.942667 28.82 676.764 28.644 677.585333 28.468 678.377333 28.2333333 679.14 27.94L679.932 30.58C678.964 30.932 677.944667 31.2326667 676.874 31.482 675.803333 31.7313333 674.593333 31.856 673.244 31.856ZM686.4 31.328 686.4 0 690.008 0 690.008 8.536 689.788 13.596 689.92 13.596C691.034667 12.3933333 692.23 11.396 693.506 10.604 694.782 9.812 696.256 9.416 697.928 9.416 700.450667 9.416 702.313333 10.1493333 703.516 11.616 704.718667 13.0826667 705.32 15.224 705.32 18.04L705.32 31.328 701.712 31.328 701.712 18.524C701.712 16.5 701.330667 14.9966667 700.568 14.014 699.805333 13.0313333 698.544 12.54 696.784 12.54 695.522667 12.54 694.393333 12.8626667 693.396 13.508 692.398667 14.1533333 691.269333 15.1213333 690.008 16.412L690.008 31.328 686.4 31.328Z"/><polygon fill="#C7C7CC" points="713.064 38.368 727.496 .088 730.752 .088 716.32 38.368"/><path fill="#C7C7CC" d="M752.444 31.856C750.361333 31.856 748.718667 31.482 747.516 30.734 746.313333 29.986 745.455333 28.952 744.942 27.632 744.428667 26.312 744.172 24.772 744.172 23.012L744.172 12.892 738.144 12.892 738.144 10.164 744.304 9.944 744.788 3.08 747.78 3.08 747.78 9.944 758.296 9.944 758.296 12.892 747.78 12.892 747.78 23.056C747.78 24.9626667 748.168667 26.4146667 748.946 27.412 749.723333 28.4093333 751.138667 28.908 753.192 28.908 754.218667 28.908 755.142667 28.82 755.964 28.644 756.785333 28.468 757.577333 28.2333333 758.34 27.94L759.132 30.58C758.164 30.932 757.144667 31.2326667 756.074 31.482 755.003333 31.7313333 753.793333 31.856 752.444 31.856ZM774.708 31.856C772.830667 31.856 771.092667 31.416 769.494 30.536 767.895333 29.656 766.604667 28.38 765.622 26.708 764.639333 25.036 764.148 23.0266667 764.148 20.68 764.148 18.2746667 764.639333 16.236 765.622 14.564 766.604667 12.892 767.895333 11.616 769.494 10.736 771.092667 9.856 772.830667 9.416 774.708 9.416 776.585333 9.416 778.323333 9.856 779.922 10.736 781.520667 11.616 782.811333 12.892 783.794 14.564 784.776667 16.236 785.268 18.2746667 785.268 20.68 785.268 23.0266667 784.776667 25.036 783.794 26.708 782.811333 28.38 781.520667 29.656 779.922 30.536 778.323333 31.416 776.585333 31.856 774.708 31.856ZM774.708 28.864C776.761333 28.864 778.411333 28.1086667 779.658 26.598 780.904667 25.0873333 781.528 23.1146667 781.528 20.68 781.528 18.216 780.904667 16.2213333 779.658 14.696 778.411333 13.1706667 776.761333 12.408 774.708 12.408 772.654667 12.408 771.004667 13.1706667 769.758 14.696 768.511333 16.2213333 767.888 18.216 767.888 20.68 767.888 23.1146667 768.511333 25.0873333 769.758 26.598 771.004667 28.1086667 772.654667 28.864 774.708 28.864Z"/></g></g><rect width="100" height="200" fill="url(#c)" transform="matrix(-1 0 0 1 100 0)"/><rect width="100" height="200" x="700" fill="url(#c)"/></g></svg>