<svg xmlns="http://www.w3.org/2000/svg" width="800" height="200" viewBox="0 0 800 200"><defs><linearGradient id="a" x1="100%" x2="0%" y1="50%" y2="50%"><stop offset="0%" stop-color="#1C1C1E"/><stop offset="100%" stop-color="#1C1C1E" stop-opacity="0"/></linearGradient></defs><g fill="none" fill-rule="evenodd"><rect width="800" height="200" fill="#1C1C1E"/><g transform="translate(531 10)"><path fill="#E5E5EA" fill-rule="nonzero" d="M.09 5.85.09 7.2 10.17 7.2 10.17 5.85.09 5.85ZM1.2 9.03C1.98 12.57 2.61 17.16 2.76 20.22L3.96 20.04C3.84 16.95 3.18 12.39 2.4 8.82L1.2 9.03ZM3.27.69C4.05 2.1 4.98 3.99 5.37 5.22L6.69 4.71C6.3 3.51 5.37 1.65 4.5.27L3.27.69ZM10.92 15.51 10.92 27.21 12.27 27.21 12.27 16.83 15.54 16.83 15.54 26.91 16.8 26.91 16.8 16.83 20.25 16.83 20.25 26.79 21.51 26.79 21.51 16.83 24.96 16.83 24.96 25.71C24.96 25.98 24.87 26.07 24.63 26.07 24.36 26.07 23.52 26.07 22.53 26.04 22.71 26.4 22.92 26.91 23.01 27.24 24.39 27.24 25.14 27.24 25.68 27 26.19 26.82 26.31 26.43 26.31 25.71L26.31 15.51 18.3 15.51 19.17 12.24 27.03 12.24 27.03 10.89 9.81 10.89 9.81 12.24 17.55 12.24C17.37 13.29 17.13 14.52 16.89 15.51L10.92 15.51ZM11.25 1.5 11.25 8.28 25.95 8.28 25.95 1.5 24.54 1.5 24.54 6.93 19.02 6.93 19.02 0 17.61 0 17.61 6.93 12.63 6.93 12.63 1.5 11.25 1.5ZM7.68 8.52C7.26 12.3 6.42 17.88 5.61 21.21 3.48 21.75 1.5 22.26 0 22.59L.39 24.06C3.18 23.31 6.87 22.35 10.47 21.39L10.29 20.01 6.84 20.88C7.65 17.55 8.46 12.51 9.03 8.79L7.68 8.52ZM32.61 3.21 32.61 26.4 34.11 26.4 34.11 23.76 52.86 23.76 52.86 26.19 54.39 26.19 54.39 3.21 32.61 3.21ZM34.11 22.26 34.11 4.65 52.86 4.65 52.86 22.26 34.11 22.26ZM1.62 60.99 3.42 60.99 3.42 51.75 7.41 51.75C12.27 51.75 15.27 49.65 15.27 45.27 15.27 40.74 12.24 39.12 7.29 39.12L1.62 39.12 1.62 60.99ZM3.42 50.22 3.42 40.62 6.93 40.62C11.28 40.62 13.44 41.7 13.44 45.27 13.44 48.78 11.37 50.22 7.05 50.22L3.42 50.22ZM24.87 61.38C28.74 61.38 32.1 58.32 32.1 53.01 32.1 47.67 28.74 44.58 24.87 44.58 21 44.58 17.64 47.67 17.64 53.01 17.64 58.32 21 61.38 24.87 61.38ZM24.87 59.85C21.72 59.85 19.47 57.09 19.47 53.01 19.47 48.9 21.72 46.11 24.87 46.11 28.02 46.11 30.3 48.9 30.3 53.01 30.3 57.09 28.02 59.85 24.87 59.85ZM36.78 60.99 38.52 60.99 38.52 50.25C39.72 47.28 41.4 46.2 42.81 46.2 43.44 46.2 43.77 46.29 44.28 46.47L44.64 44.91C44.13 44.67 43.65 44.58 43.02 44.58 41.16 44.58 39.6 45.96 38.49 47.94L38.43 47.94 38.22 44.97 36.78 44.97 36.78 60.99ZM52.05 61.38C52.77 61.38 53.79 61.11 54.72 60.78L54.3 59.4C53.76 59.67 52.95 59.88 52.35 59.88 50.22 59.88 49.68 58.59 49.68 56.58L49.68 46.47 54.27 46.47 54.27 44.97 49.68 44.97 49.68 40.38 48.21 40.38 48 44.97 45.48 45.15 45.48 46.47 47.94 46.47 47.94 56.46C47.94 59.4 48.9 61.38 52.05 61.38Z" transform="translate(52.56 106.01)"/><path fill="#FFD60A" d="M7.6916556,74 C5.01709938,74 4.04724067,73.7215232 3.06946289,73.1986019 C2.09168511,72.6756806 1.32431939,71.9083149 0.801398111,70.9305371 C0.278476833,69.9527593 1.2037061e-16,68.9829006 -2.07168062e-16,66.3083444 L2.07168062e-16,7.6916556 C-1.2037061e-16,5.01709938 0.278476833,4.04724067 0.801398111,3.06946289 C1.32431939,2.09168511 2.09168511,1.32431939 3.06946289,0.801398111 C4.04724067,0.278476833 5.01709938,1.80555915e-16 7.6916556,-3.10752092e-16 L47.3083444,3.10752092e-16 C49.9829006,-1.80555915e-16 50.9527593,0.278476833 51.9305371,0.801398111 C52.9083149,1.32431939 53.6756806,2.09168511 54.1986019,3.06946289 C54.7215232,4.04724067 55,5.01709938 55,7.6916556 L55,66.3083444 C55,68.9829006 54.7215232,69.9527593 54.1986019,70.9305371 C53.6756806,71.9083149 52.9083149,72.6756806 51.9305371,73.1986019 C50.9527593,73.7215232 49.9829006,74 47.3083444,74 L16,74 L16,116 L21.999,116 L22,104 L46,119 L22,134 L21.999,122 L10,122 L10,74 L7.6916556,74 Z" opacity=".5"/></g><g transform="translate(110 10)"><path fill="#63E6E2" d="M7.6916556,74 C5.01709938,74 4.04724067,73.7215232 3.06946289,73.1986019 C2.09168511,72.6756806 1.32431939,71.9083149 0.801398111,70.9305371 C0.278476833,69.9527593 -1.43077765e-16,68.9829006 2.46249008e-16,66.3083444 L6.60585131e-16,7.6916556 C-3.83818985e-16,5.01709938 0.278476833,4.04724067 0.801398111,3.06946289 C1.32431939,2.09168511 2.09168511,1.32431939 3.06946289,0.801398111 C4.04724067,0.278476833 5.01709938,-8.28924603e-17 7.6916556,1.42664977e-16 L394.308344,-1.57632428e-14 C396.982901,9.15889802e-15 397.952759,0.278476833 398.930537,0.801398111 C399.908315,1.32431939 400.675681,2.09168511 401.198602,3.06946289 C401.721523,4.04724067 402,5.01709938 402,7.6916556 L402,66.3083444 C402,68.9829006 401.721523,69.9527593 401.198602,70.9305371 C400.675681,71.9083149 399.908315,72.6756806 398.930537,73.1986019 C397.952759,73.7215232 396.982901,74 394.308344,74 L36,74 L36,116 L51.999,116 L52,104 L76,119 L52,134 L51.999,122 L30,122 L30,74 L7.6916556,74 Z" opacity=".5"/><path fill="#E5E5EA" fill-rule="nonzero" d="M7.53 22.5 7.95 23.91C10.86 23.04 14.73 21.87 18.48 20.76L18.3 19.5C14.34 20.64 10.2 21.81 7.53 22.5ZM21.87.93C23.28 1.89 24.9 3.3 25.71 4.26L26.64 3.33C25.83 2.4 24.15 1.08 22.74.15L21.87.93ZM10.68 10.62 15.54 10.62 15.54 16.53 10.68 16.53 10.68 10.62ZM9.45 9.36 9.45 17.79 16.83 17.79 16.83 9.36 9.45 9.36ZM0 21.57.57 23.01C2.88 21.96 5.79 20.55 8.61 19.23L8.25 17.91 5.01 19.41 5.01 8.85 8.01 8.85 8.01 7.47 5.01 7.47 5.01.36 3.63.36 3.63 7.47.18 7.47.18 8.85 3.63 8.85 3.63 20.04C2.25 20.64 1.02 21.18 0 21.57ZM25.02 9.36C24.15 12.6 22.95 15.54 21.42 18.09 20.91 14.91 20.55 10.8 20.4 6.03L27.03 6.03 27.03 4.68 20.37 4.68 20.31.06 18.87.06 18.96 4.68 8.55 4.68 8.55 6.03 18.99 6.03C19.2 11.43 19.59 16.2 20.31 19.8 18.57 22.29 16.44 24.39 13.92 25.98 14.25 26.22 14.82 26.73 15 27 17.19 25.5 19.08 23.67 20.7 21.54 21.63 25.14 22.95 27.27 24.84 27.27 26.49 27.27 26.97 25.92 27.24 21.93 26.91 21.81 26.4 21.51 26.1 21.21 25.98 24.6 25.68 25.86 24.96 25.86 23.64 25.86 22.56 23.76 21.78 20.04 23.76 17.1 25.29 13.65 26.4 9.66L25.02 9.36ZM37.17 8.73C38.91 9.9 40.95 11.52 42.3 12.81 38.55 14.91 34.35 16.38 30.51 17.19 30.81 17.52 31.17 18.15 31.29 18.51 33 18.12 34.8 17.61 36.57 16.95L36.57 27.3 38.01 27.3 38.01 25.59 52.62 25.59 52.62 27.27 54.09 27.27 54.09 15.24 40.65 15.24C46.14 12.6 51.18 8.7 53.88 3.6L52.98 3 52.71 3.09 40.98 3.09C41.79 2.16 42.48 1.23 43.08.33L41.4 0C39.63 2.91 36.12 6.39 31.26 8.85 31.59 9.09 32.07 9.57 32.28 9.9 35.25 8.34 37.71 6.45 39.69 4.47L51.75 4.47C49.86 7.44 46.98 9.99 43.65 12.03 42.27 10.74 40.05 9.09 38.25 7.89L37.17 8.73ZM52.62 24.18 38.01 24.18 38.01 16.65 52.62 16.65 52.62 24.18ZM1.95 61.08 7.17 61.08C13.86 61.08 17.1 56.76 17.1 50.07 17.1 43.38 13.86 39.21 7.08 39.21L1.95 39.21 1.95 61.08ZM3.75 59.55 3.75 40.74 6.9 40.74C12.69 40.74 15.24 44.4 15.24 50.07 15.24 55.74 12.69 59.55 6.9 59.55L3.75 59.55ZM27.84 61.47C31.71 61.47 35.07 58.41 35.07 53.1 35.07 47.76 31.71 44.67 27.84 44.67 23.97 44.67 20.61 47.76 20.61 53.1 20.61 58.41 23.97 61.47 27.84 61.47ZM27.84 59.94C24.69 59.94 22.44 57.18 22.44 53.1 22.44 48.99 24.69 46.2 27.84 46.2 30.99 46.2 33.27 48.99 33.27 53.1 33.27 57.18 30.99 59.94 27.84 59.94ZM39.75 61.08 41.49 61.08 41.49 49.11C43.17 47.19 44.7 46.23 46.11 46.23 48.48 46.23 49.56 47.79 49.56 51.09L49.56 61.08 51.3 61.08 51.3 49.11C53.01 47.19 54.48 46.23 55.92 46.23 58.26 46.23 59.37 47.79 59.37 51.09L59.37 61.08 61.11 61.08 61.11 50.85C61.11 46.74 59.52 44.67 56.34 44.67 54.45 44.67 52.71 45.93 50.91 47.91 50.34 45.93 49.05 44.67 46.5 44.67 44.67 44.67 42.9 45.93 41.46 47.52L41.4 47.52 41.19 45.06 39.75 45.06 39.75 61.08ZM70.41 61.47C72.48 61.47 74.37 60.36 75.96 59.04L76.08 59.04 76.26 61.08 77.7 61.08 77.7 50.94C77.7 47.4 76.35 44.67 72.51 44.67 69.93 44.67 67.71 45.93 66.51 46.74L67.26 48.03C68.4 47.22 70.2 46.2 72.3 46.2 75.33 46.2 75.99 48.66 75.93 51.03 68.91 51.81 65.76 53.52 65.76 57.03 65.76 60.03 67.83 61.47 70.41 61.47ZM70.77 59.97C68.97 59.97 67.5 59.16 67.5 56.94 67.5 54.51 69.63 53.01 75.93 52.32L75.93 57.51C74.07 59.13 72.54 59.97 70.77 59.97ZM83.28 61.08 85.02 61.08 85.02 45.06 83.28 45.06 83.28 61.08ZM84.18 41.34C84.96 41.34 85.56 40.8 85.56 39.87 85.56 39.03 84.96 38.46 84.18 38.46 83.37 38.46 82.8 39.03 82.8 39.87 82.8 40.8 83.37 41.34 84.18 41.34ZM90.99 61.08 92.73 61.08 92.73 49.11C94.59 47.19 95.91 46.23 97.74 46.23 100.23 46.23 101.28 47.79 101.28 51.09L101.28 61.08 103.02 61.08 103.02 50.85C103.02 46.74 101.49 44.67 98.16 44.67 95.97 44.67 94.29 45.93 92.7 47.52L92.64 47.52 92.43 45.06 90.99 45.06 90.99 61.08ZM115.38 61.08 117.12 61.08 117.12 49.11C118.98 47.19 120.3 46.23 122.13 46.23 124.62 46.23 125.67 47.79 125.67 51.09L125.67 61.08 127.41 61.08 127.41 50.85C127.41 46.74 125.88 44.67 122.55 44.67 120.36 44.67 118.68 45.93 117.09 47.52L117.03 47.52 116.82 45.06 115.38 45.06 115.38 61.08ZM136.68 61.47C138.75 61.47 140.64 60.36 142.23 59.04L142.35 59.04 142.53 61.08 143.97 61.08 143.97 50.94C143.97 47.4 142.62 44.67 138.78 44.67 136.2 44.67 133.98 45.93 132.78 46.74L133.53 48.03C134.67 47.22 136.47 46.2 138.57 46.2 141.6 46.2 142.26 48.66 142.2 51.03 135.18 51.81 132.03 53.52 132.03 57.03 132.03 60.03 134.1 61.47 136.68 61.47ZM137.04 59.97C135.24 59.97 133.77 59.16 133.77 56.94 133.77 54.51 135.9 53.01 142.2 52.32L142.2 57.51C140.34 59.13 138.81 59.97 137.04 59.97ZM149.55 61.08 151.29 61.08 151.29 49.11C152.97 47.19 154.5 46.23 155.91 46.23 158.28 46.23 159.36 47.79 159.36 51.09L159.36 61.08 161.1 61.08 161.1 49.11C162.81 47.19 164.28 46.23 165.72 46.23 168.06 46.23 169.17 47.79 169.17 51.09L169.17 61.08 170.91 61.08 170.91 50.85C170.91 46.74 169.32 44.67 166.14 44.67 164.25 44.67 162.51 45.93 160.71 47.91 160.14 45.93 158.85 44.67 156.3 44.67 154.47 44.67 152.7 45.93 151.26 47.52L151.2 47.52 150.99 45.06 149.55 45.06 149.55 61.08ZM182.82 61.47C185.1 61.47 186.6 60.72 187.89 59.91L187.2 58.62C186 59.46 184.68 60 182.97 60 179.52 60 177.21 57.27 177.12 53.4L188.46 53.4C188.52 52.98 188.55 52.53 188.55 52.11 188.55 47.43 186.24 44.67 182.37 44.67 178.77 44.67 175.35 47.88 175.35 53.1 175.35 58.35 178.68 61.47 182.82 61.47ZM177.12 51.99C177.45 48.33 179.79 46.17 182.37 46.17 185.19 46.17 186.93 48.12 186.93 51.99L177.12 51.99Z" transform="translate(82.23 105.92)"/></g><g fill-rule="nonzero" transform="translate(-68.908 27.144)"><path fill="#48484A" d="M66.044 32.384C63.9613333 32.384 62.3186667 32.01 61.116 31.262 59.9133333 30.514 59.0553333 29.48 58.542 28.16 58.0286667 26.84 57.772 25.3 57.772 23.54L57.772 13.42 51.744 13.42 51.744 10.692 57.904 10.472 58.388 3.608 61.38 3.608 61.38 10.472 71.896 10.472 71.896 13.42 61.38 13.42 61.38 23.584C61.38 25.4906667 61.7686667 26.9426667 62.546 27.94 63.3233333 28.9373333 64.7386667 29.436 66.792 29.436 67.8186667 29.436 68.7426667 29.348 69.564 29.172 70.3853333 28.996 71.1773333 28.7613333 71.94 28.468L72.732 31.108C71.764 31.46 70.7446667 31.7606667 69.674 32.01 68.6033333 32.2593333 67.3933333 32.384 66.044 32.384ZM79.2 40.876 79.2 10.472 82.192 10.472 82.5 13.2 82.632 13.2C83.6293333 12.2613333 84.7806667 11.484 86.086 10.868 87.3913333 10.252 88.704 9.944 90.024 9.944 92.8986667 9.944 95.0913333 10.934 96.602 12.914 98.1126667 14.894 98.868 17.5413333 98.868 20.856 98.868 23.2613333 98.4133333 25.3293333 97.504 27.06 96.5946667 28.7906667 95.4066667 30.1106667 93.94 31.02 92.4733333 31.9293333 90.8746667 32.384 89.144 32.384 88.1466667 32.384 87.0686667 32.142 85.91 31.658 84.7513333 31.174 83.7026667 30.492 82.764 29.612L82.632 29.612 82.808 33.66 82.808 40.876 79.2 40.876ZM88.528 29.348C90.4346667 29.348 92.0113333 28.5926667 93.258 27.082 94.5046667 25.5713333 95.128 23.496 95.128 20.856 95.128 18.5093333 94.6586667 16.61 93.72 15.158 92.7813333 13.706 91.2413333 12.98 89.1 12.98 88.1613333 12.98 87.1566667 13.2366667 86.086 13.75 85.0153333 14.2633333 83.9226667 15.0773333 82.808 16.192L82.808 26.84C83.8346667 27.7493333 84.8613333 28.3946667 85.888 28.776 86.9146667 29.1573333 87.7946667 29.348 88.528 29.348ZM114.708 16.632C113.710667 16.632 112.867333 16.2873333 112.178 15.598 111.488667 14.9086667 111.144 14.0213333 111.144 12.936 111.144 11.8213333 111.488667 10.9193333 112.178 10.23 112.867333 9.54066667 113.710667 9.196 114.708 9.196 115.705333 9.196 116.548667 9.54066667 117.238 10.23 117.927333 10.9193333 118.272 11.8213333 118.272 12.936 118.272 14.0213333 117.927333 14.9086667 117.238 15.598 116.548667 16.2873333 115.705333 16.632 114.708 16.632ZM114.708 32.384C113.710667 32.384 112.867333 32.0393333 112.178 31.35 111.488667 30.6606667 111.144 29.7733333 111.144 28.688 111.144 27.5733333 111.488667 26.6713333 112.178 25.982 112.867333 25.2926667 113.710667 24.948 114.708 24.948 115.705333 24.948 116.548667 25.2926667 117.238 25.982 117.927333 26.6713333 118.272 27.5733333 118.272 28.688 118.272 29.7733333 117.927333 30.6606667 117.238 31.35 116.548667 32.0393333 115.705333 32.384 114.708 32.384Z"/><polygon fill="#48484A" points="132.264 38.896 146.696 .616 149.952 .616 135.52 38.896"/><polygon fill="#48484A" points="158.664 38.896 173.096 .616 176.352 .616 161.92 38.896"/><path fill="#E5E5EA" d="M185.724 31.856 181.06 10.472 184.668 10.472 187.22 22.88C187.425333 23.8773333 187.608667 24.8526667 187.77 25.806 187.931333 26.7593333 188.070667 27.7493333 188.188 28.776L188.364 28.776C188.510667 27.7493333 188.694 26.7593333 188.914 25.806 189.134 24.8526667 189.361333 23.8773333 189.596 22.88L192.236 11.792 195.844 11.792 198.396 22.88C198.630667 23.8773333 198.88 24.8526667 199.144 25.806 199.408 26.7593333 199.598667 27.7493333 199.716 28.776L199.892 28.776C200.068 27.7493333 200.222 26.7593333 200.354 25.806 200.486 24.8526667 200.654667 23.8773333 200.86 22.88L203.412 10.472 206.756 10.472 202.18 31.856 197.516 31.856 195.052 21.648C194.7 20.152 194.348 18.04 193.996 15.312L193.82 15.312C193.468 18.04 193.116 20.152 192.764 21.648L190.388 31.856 185.724 31.856ZM212.124 31.856 207.46 10.472 211.068 10.472 213.62 22.88C213.825333 23.8773333 214.008667 24.8526667 214.17 25.806 214.331333 26.7593333 214.470667 27.7493333 214.588 28.776L214.764 28.776C214.910667 27.7493333 215.094 26.7593333 215.314 25.806 215.534 24.8526667 215.761333 23.8773333 215.996 22.88L218.636 11.792 222.244 11.792 224.796 22.88C225.030667 23.8773333 225.28 24.8526667 225.544 25.806 225.808 26.7593333 225.998667 27.7493333 226.116 28.776L226.292 28.776C226.468 27.7493333 226.622 26.7593333 226.754 25.806 226.886 24.8526667 227.054667 23.8773333 227.26 22.88L229.812 10.472 233.156 10.472 228.58 31.856 223.916 31.856 221.452 21.648C221.1 20.152 220.748 18.04 220.396 15.312L220.22 15.312C219.868 18.04 219.516 20.152 219.164 21.648L216.788 31.856 212.124 31.856ZM238.524 31.856 233.86 10.472 237.468 10.472 240.02 22.88C240.225333 23.8773333 240.408667 24.8526667 240.57 25.806 240.731333 26.7593333 240.870667 27.7493333 240.988 28.776L241.164 28.776C241.310667 27.7493333 241.494 26.7593333 241.714 25.806 241.934 24.8526667 242.161333 23.8773333 242.396 22.88L245.036 11.792 248.644 11.792 251.196 22.88C251.430667 23.8773333 251.68 24.8526667 251.944 25.806 252.208 26.7593333 252.398667 27.7493333 252.516 28.776L252.692 28.776C252.868 27.7493333 253.022 26.7593333 253.154 25.806 253.286 24.8526667 253.454667 23.8773333 253.66 22.88L256.212 10.472 259.556 10.472 254.98 31.856 250.316 31.856 247.852 21.648C247.5 20.152 247.148 18.04 246.796 15.312L246.62 15.312C246.268 18.04 245.916 20.152 245.564 21.648L243.188 31.856 238.524 31.856ZM273.108 32.384C272.110667 32.384 271.267333 32.0393333 270.578 31.35 269.888667 30.6606667 269.544 29.7733333 269.544 28.688 269.544 27.5733333 269.888667 26.6713333 270.578 25.982 271.267333 25.2926667 272.110667 24.948 273.108 24.948 274.105333 24.948 274.948667 25.2926667 275.638 25.982 276.327333 26.6713333 276.672 27.5733333 276.672 28.688 276.672 29.7733333 276.327333 30.6606667 275.638 31.35 274.948667 32.0393333 274.105333 32.384 273.108 32.384ZM300.3 12.804C298.54 12.804 296.970667 13.3686667 295.592 14.498 294.213333 15.6273333 293.362667 17.248 293.04 19.36L306.68 19.36C306.533333 17.16 305.888 15.5173333 304.744 14.432 303.6 13.3466667 302.118667 12.804 300.3 12.804ZM300.828 32.384C298.686667 32.384 296.743333 31.944 294.998 31.064 293.252667 30.184 291.866667 28.9006667 290.84 27.214 289.813333 25.5273333 289.3 23.496 289.3 21.12 289.3 18.8026667 289.813333 16.808 290.84 15.136 291.866667 13.464 293.208667 12.1806667 294.866 11.286 296.523333 10.3913333 298.305333 9.944 300.212 9.944 303.292 9.944 305.69 10.8606667 307.406 12.694 309.122 14.5273333 309.98 16.9546667 309.98 19.976 309.98 20.3866667 309.965333 20.7826667 309.936 21.164 309.906667 21.5453333 309.862667 21.8826667 309.804 22.176L292.952 22.176C293.186667 24.5813333 294.074 26.4 295.614 27.632 297.154 28.864 299.038667 29.48 301.268 29.48 302.558667 29.48 303.724667 29.2966667 304.766 28.93 305.807333 28.5633333 306.812 28.072 307.78 27.456L309.1 29.832C308.044 30.536 306.834 31.1373333 305.47 31.636 304.106 32.1346667 302.558667 32.384 300.828 32.384ZM315.524 31.856 323.664 20.768 316.14 10.472 320.144 10.472 323.532 15.18C323.913333 15.7373333 324.316667 16.3313333 324.742 16.962 325.167333 17.5926667 325.6 18.2013333 326.04 18.788L326.216 18.788C326.626667 18.2013333 327.037333 17.5853333 327.448 16.94 327.858667 16.2946667 328.254667 15.6786667 328.636 15.092L331.848 10.472 335.676 10.472 328.064 21.076 336.248 31.856 332.288 31.856 328.548 26.928C328.108 26.312 327.646 25.6666667 327.162 24.992 326.678 24.3173333 326.201333 23.672 325.732 23.056L325.556 23.056C325.116 23.7013333 324.676 24.3393333 324.236 24.97 323.796 25.6006667 323.356 26.2533333 322.916 26.928L319.396 31.856 315.524 31.856ZM349.932 32.384C348.612 32.384 347.402 32.142 346.302 31.658 345.202 31.174 344.322 30.4773333 343.662 29.568 343.002 28.6586667 342.672 27.5733333 342.672 26.312 342.672 24.6986667 343.192667 23.3566667 344.234 22.286 345.275333 21.2153333 346.94 20.3573333 349.228 19.712 351.516 19.0666667 354.493333 18.5973333 358.16 18.304 358.130667 17.336 357.932667 16.4486667 357.566 15.642 357.199333 14.8353333 356.605333 14.1826667 355.784 13.684 354.962667 13.1853333 353.862667 12.936 352.484 12.936 351.105333 12.936 349.763333 13.2073333 348.458 13.75 347.152667 14.2926667 346.001333 14.872 345.004 15.488L343.596 13.024C344.681333 12.32 346.067333 11.6306667 347.754 10.956 349.440667 10.2813333 351.222667 9.944 353.1 9.944 356.033333 9.944 358.211333 10.7433333 359.634 12.342 361.056667 13.9406667 361.768 16.0746667 361.768 18.744L361.768 31.856 358.82 31.856 358.512 28.952 358.38 28.952C357.206667 29.8613333 355.886667 30.6606667 354.42 31.35 352.953333 32.0393333 351.457333 32.384 349.932 32.384ZM350.9 29.48C352.102667 29.48 353.312667 29.2013333 354.53 28.644 355.747333 28.0866667 356.957333 27.3093333 358.16 26.312L358.16 20.68C355.109333 20.9146667 352.711333 21.274 350.966 21.758 349.220667 22.242 347.988667 22.8433333 347.27 23.562 346.551333 24.2806667 346.192 25.1093333 346.192 26.048 346.192 27.2506667 346.668667 28.1233333 347.622 28.666 348.575333 29.2086667 349.668 29.48 350.9 29.48ZM368.06 31.856 368.06 10.472 370.964 10.472 371.272 13.288 371.36 13.288C371.917333 12.2906667 372.562667 11.484 373.296 10.868 374.029333 10.252 375.012 9.944 376.244 9.944 378.326667 9.944 379.676 11.176 380.292 13.64 380.908 12.496 381.59 11.594 382.338 10.934 383.086 10.274 384.076 9.944 385.308 9.944 386.804 9.944 387.97 10.5086667 388.806 11.638 389.642 12.7673333 390.06 14.4026667 390.06 16.544L390.06 31.856 386.452 31.856 386.452 16.808C386.452 14.3146667 385.689333 13.068 384.164 13.068 383.430667 13.068 382.822 13.3393333 382.338 13.882 381.854 14.4246667 381.318667 15.2533333 380.732 16.368L380.732 31.856 377.388 31.856 377.388 16.808C377.388 15.576 377.219333 14.6446667 376.882 14.014 376.544667 13.3833333 375.98 13.068 375.188 13.068 374.454667 13.068 373.816667 13.3393333 373.274 13.882 372.731333 14.4246667 372.196 15.2533333 371.668 16.368L371.668 31.856 368.06 31.856ZM396 40.876 396 10.472 398.992 10.472 399.3 13.2 399.432 13.2C400.429333 12.2613333 401.580667 11.484 402.886 10.868 404.191333 10.252 405.504 9.944 406.824 9.944 409.698667 9.944 411.891333 10.934 413.402 12.914 414.912667 14.894 415.668 17.5413333 415.668 20.856 415.668 23.2613333 415.213333 25.3293333 414.304 27.06 413.394667 28.7906667 412.206667 30.1106667 410.74 31.02 409.273333 31.9293333 407.674667 32.384 405.944 32.384 404.946667 32.384 403.868667 32.142 402.71 31.658 401.551333 31.174 400.502667 30.492 399.564 29.612L399.432 29.612 399.608 33.66 399.608 40.876 396 40.876ZM405.328 29.348C407.234667 29.348 408.811333 28.5926667 410.058 27.082 411.304667 25.5713333 411.928 23.496 411.928 20.856 411.928 18.5093333 411.458667 16.61 410.52 15.158 409.581333 13.706 408.041333 12.98 405.9 12.98 404.961333 12.98 403.956667 13.2366667 402.886 13.75 401.815333 14.2633333 400.722667 15.0773333 399.608 16.192L399.608 26.84C400.634667 27.7493333 401.661333 28.3946667 402.688 28.776 403.714667 29.1573333 404.594667 29.348 405.328 29.348ZM436.216 32.384C433.957333 32.384 432.219333 31.7313333 431.002 30.426 429.784667 29.1206667 429.176 27.2066667 429.176 24.684L429.176 3.476 421.564 3.476 421.564.528 432.784.528 432.784 24.948C432.784 26.5026667 433.172667 27.632 433.95 28.336 434.727333 29.04 435.746667 29.392 437.008 29.392 438.269333 29.392 439.604 29.0693333 441.012 28.424L441.936 31.108C440.938667 31.5186667 440.029333 31.834 439.208 32.054 438.386667 32.274 437.389333 32.384 436.216 32.384ZM458.7 12.804C456.94 12.804 455.370667 13.3686667 453.992 14.498 452.613333 15.6273333 451.762667 17.248 451.44 19.36L465.08 19.36C464.933333 17.16 464.288 15.5173333 463.144 14.432 462 13.3466667 460.518667 12.804 458.7 12.804ZM459.228 32.384C457.086667 32.384 455.143333 31.944 453.398 31.064 451.652667 30.184 450.266667 28.9006667 449.24 27.214 448.213333 25.5273333 447.7 23.496 447.7 21.12 447.7 18.8026667 448.213333 16.808 449.24 15.136 450.266667 13.464 451.608667 12.1806667 453.266 11.286 454.923333 10.3913333 456.705333 9.944 458.612 9.944 461.692 9.944 464.09 10.8606667 465.806 12.694 467.522 14.5273333 468.38 16.9546667 468.38 19.976 468.38 20.3866667 468.365333 20.7826667 468.336 21.164 468.306667 21.5453333 468.262667 21.8826667 468.204 22.176L451.352 22.176C451.586667 24.5813333 452.474 26.4 454.014 27.632 455.554 28.864 457.438667 29.48 459.668 29.48 460.958667 29.48 462.124667 29.2966667 463.166 28.93 464.207333 28.5633333 465.212 28.072 466.18 27.456L467.5 29.832C466.444 30.536 465.234 31.1373333 463.87 31.636 462.506 32.1346667 460.958667 32.384 459.228 32.384ZM484.308 32.384C483.310667 32.384 482.467333 32.0393333 481.778 31.35 481.088667 30.6606667 480.744 29.7733333 480.744 28.688 480.744 27.5733333 481.088667 26.6713333 481.778 25.982 482.467333 25.2926667 483.310667 24.948 484.308 24.948 485.305333 24.948 486.148667 25.2926667 486.838 25.982 487.527333 26.6713333 487.872 27.5733333 487.872 28.688 487.872 29.7733333 487.527333 30.6606667 486.838 31.35 486.148667 32.0393333 485.305333 32.384 484.308 32.384ZM512.732 32.384C510.502667 32.384 508.508 31.944 506.748 31.064 504.988 30.184 503.594667 28.908 502.568 27.236 501.541333 25.564 501.028 23.5546667 501.028 21.208 501.028 18.8026667 501.570667 16.764 502.656 15.092 503.741333 13.42 505.193333 12.144 507.012 11.264 508.830667 10.384 510.810667 9.944 512.952 9.944 514.682667 9.944 516.193333 10.252 517.484 10.868 518.774667 11.484 519.86 12.2173333 520.74 13.068L518.936 15.4C518.056 14.6373333 517.139333 14.036 516.186 13.596 515.232667 13.156 514.198667 12.936 513.084 12.936 511.441333 12.936 509.996667 13.2806667 508.75 13.97 507.503333 14.6593333 506.528 15.6273333 505.824 16.874 505.12 18.1206667 504.768 19.5653333 504.768 21.208 504.768 22.8213333 505.112667 24.244 505.802 25.476 506.491333 26.708 507.452 27.6686667 508.684 28.358 509.916 29.0473333 511.353333 29.392 512.996 29.392 514.316 29.392 515.526 29.128 516.626 28.6 517.726 28.072 518.716 27.4413333 519.596 26.708L521.224 29.04C520.050667 30.096 518.738 30.9173333 517.286 31.504 515.834 32.0906667 514.316 32.384 512.732 32.384ZM537.108 32.384C535.230667 32.384 533.492667 31.944 531.894 31.064 530.295333 30.184 529.004667 28.908 528.022 27.236 527.039333 25.564 526.548 23.5546667 526.548 21.208 526.548 18.8026667 527.039333 16.764 528.022 15.092 529.004667 13.42 530.295333 12.144 531.894 11.264 533.492667 10.384 535.230667 9.944 537.108 9.944 538.985333 9.944 540.723333 10.384 542.322 11.264 543.920667 12.144 545.211333 13.42 546.194 15.092 547.176667 16.764 547.668 18.8026667 547.668 21.208 547.668 23.5546667 547.176667 25.564 546.194 27.236 545.211333 28.908 543.920667 30.184 542.322 31.064 540.723333 31.944 538.985333 32.384 537.108 32.384ZM537.108 29.392C539.161333 29.392 540.811333 28.6366667 542.058 27.126 543.304667 25.6153333 543.928 23.6426667 543.928 21.208 543.928 18.744 543.304667 16.7493333 542.058 15.224 540.811333 13.6986667 539.161333 12.936 537.108 12.936 535.054667 12.936 533.404667 13.6986667 532.158 15.224 530.911333 16.7493333 530.288 18.744 530.288 21.208 530.288 23.6426667 530.911333 25.6153333 532.158 27.126 533.404667 28.6366667 535.054667 29.392 537.108 29.392ZM552.86 31.856 552.86 10.472 555.764 10.472 556.072 13.288 556.16 13.288C556.717333 12.2906667 557.362667 11.484 558.096 10.868 558.829333 10.252 559.812 9.944 561.044 9.944 563.126667 9.944 564.476 11.176 565.092 13.64 565.708 12.496 566.39 11.594 567.138 10.934 567.886 10.274 568.876 9.944 570.108 9.944 571.604 9.944 572.77 10.5086667 573.606 11.638 574.442 12.7673333 574.86 14.4026667 574.86 16.544L574.86 31.856 571.252 31.856 571.252 16.808C571.252 14.3146667 570.489333 13.068 568.964 13.068 568.230667 13.068 567.622 13.3393333 567.138 13.882 566.654 14.4246667 566.118667 15.2533333 565.532 16.368L565.532 31.856 562.188 31.856 562.188 16.808C562.188 15.576 562.019333 14.6446667 561.682 14.014 561.344667 13.3833333 560.78 13.068 559.988 13.068 559.254667 13.068 558.616667 13.3393333 558.074 13.882 557.531333 14.4246667 556.996 15.2533333 556.468 16.368L556.468 31.856 552.86 31.856ZM589.908 16.632C588.910667 16.632 588.067333 16.2873333 587.378 15.598 586.688667 14.9086667 586.344 14.0213333 586.344 12.936 586.344 11.8213333 586.688667 10.9193333 587.378 10.23 588.067333 9.54066667 588.910667 9.196 589.908 9.196 590.905333 9.196 591.748667 9.54066667 592.438 10.23 593.127333 10.9193333 593.472 11.8213333 593.472 12.936 593.472 14.0213333 593.127333 14.9086667 592.438 15.598 591.748667 16.2873333 590.905333 16.632 589.908 16.632ZM589.908 32.384C588.910667 32.384 588.067333 32.0393333 587.378 31.35 586.688667 30.6606667 586.344 29.7733333 586.344 28.688 586.344 27.5733333 586.688667 26.6713333 587.378 25.982 588.067333 25.2926667 588.910667 24.948 589.908 24.948 590.905333 24.948 591.748667 25.2926667 592.438 25.982 593.127333 26.6713333 593.472 27.5733333 593.472 28.688 593.472 29.7733333 593.127333 30.6606667 592.438 31.35 591.748667 32.0393333 590.905333 32.384 589.908 32.384ZM616.396 32.384C614.284 32.384 612.458 32.054 610.918 31.394 609.378 30.734 608.19 29.8173333 607.354 28.644 606.518 27.4706667 606.1 26.1506667 606.1 24.684 606.1 23.3933333 606.393333 22.2786667 606.98 21.34 607.566667 20.4013333 608.322 19.5946667 609.246 18.92 610.17 18.2453333 611.130667 17.6733333 612.128 17.204L612.128 17.028C610.954667 16.2946667 609.95 15.3853333 609.114 14.3 608.278 13.2146667 607.86 11.9386667 607.86 10.472 607.86 9.03466667 608.234 7.77333333 608.982 6.688 609.73 5.60266667 610.756667 4.75933333 612.062 4.158 613.367333 3.55666667 614.856 3.256 616.528 3.256 619.285333 3.256 621.426667 3.96 622.952 5.368 624.477333 6.776 625.24 8.56533333 625.24 10.736 625.24 12.056 624.822 13.2953333 623.986 14.454 623.15 15.6126667 622.145333 16.6026667 620.972 17.424L620.972 17.6C621.998667 18.0986667 622.93 18.6633333 623.766 19.294 624.602 19.9246667 625.262 20.68 625.746 21.56 626.23 22.44 626.472 23.5546667 626.472 24.904 626.472 26.2826667 626.076 27.544 625.284 28.688 624.492 29.832 623.348 30.734 621.852 31.394 620.356 32.054 618.537333 32.384 616.396 32.384ZM618.596 16.544C620.942667 14.8426667 622.116 12.9653333 622.116 10.912 622.116 9.53333333 621.632 8.36 620.664 7.392 619.696 6.424 618.288 5.94 616.44 5.94 614.885333 5.94 613.616667 6.35066667 612.634 7.172 611.651333 7.99333333 611.16 9.09333333 611.16 10.472 611.16 11.5866667 611.49 12.5106667 612.15 13.244 612.81 13.9773333 613.704667 14.6006667 614.834 15.114 615.963333 15.6273333 617.217333 16.104 618.596 16.544ZM616.484 29.7C618.566667 29.7 620.172667 29.238 621.302 28.314 622.431333 27.39 622.996 26.2093333 622.996 24.772 622.996 23.452 622.607333 22.418 621.83 21.67 621.052667 20.922 619.996667 20.2986667 618.662 19.8 617.327333 19.3013333 615.838667 18.7733333 614.196 18.216 612.846667 18.9493333 611.71 19.8 610.786 20.768 609.862 21.736 609.4 22.924 609.4 24.332 609.4 25.8866667 610.045333 27.17 611.336 28.182 612.626667 29.194 614.342667 29.7 616.484 29.7ZM642.708 32.384C639.598667 32.384 637.142 31.108 635.338 28.556 633.534 26.004 632.632 22.396 632.632 17.732 632.632 13.0093333 633.534 9.416 635.338 6.952 637.142 4.488 639.598667 3.256 642.708 3.256 645.846667 3.256 648.310667 4.488 650.1 6.952 651.889333 9.416 652.784 13.0093333 652.784 17.732 652.784 22.396 651.889333 26.004 650.1 28.556 648.310667 31.108 645.846667 32.384 642.708 32.384ZM642.708 29.48C644.673333 29.48 646.279333 28.5266667 647.526 26.62 648.772667 24.7133333 649.396 21.7506667 649.396 17.732 649.396 13.684 648.772667 10.7433333 647.526 8.91 646.279333 7.07666667 644.673333 6.16 642.708 6.16 640.742667 6.16 639.136667 7.07666667 637.89 8.91 636.643333 10.7433333 636.02 13.684 636.02 17.732 636.02 21.7506667 636.643333 24.7133333 637.89 26.62 639.136667 28.5266667 640.742667 29.48 642.708 29.48ZM642.708 20.372C641.974667 20.372 641.336667 20.108 640.794 19.58 640.251333 19.052 639.98 18.3333333 639.98 17.424 639.98 16.5146667 640.251333 15.8033333 640.794 15.29 641.336667 14.7766667 641.974667 14.52 642.708 14.52 643.441333 14.52 644.079333 14.7766667 644.622 15.29 645.164667 15.8033333 645.436 16.5146667 645.436 17.424 645.436 18.3333333 645.164667 19.052 644.622 19.58 644.079333 20.108 643.441333 20.372 642.708 20.372Z"/><polygon fill="#48484A" points="660.264 38.896 674.696 .616 677.952 .616 663.52 38.896"/><path fill="#48484A" d="M686.4 40.876 686.4 10.472 689.392 10.472 689.7 13.2 689.832 13.2C690.829333 12.2613333 691.980667 11.484 693.286 10.868 694.591333 10.252 695.904 9.944 697.224 9.944 700.098667 9.944 702.291333 10.934 703.802 12.914 705.312667 14.894 706.068 17.5413333 706.068 20.856 706.068 23.2613333 705.613333 25.3293333 704.704 27.06 703.794667 28.7906667 702.606667 30.1106667 701.14 31.02 699.673333 31.9293333 698.074667 32.384 696.344 32.384 695.346667 32.384 694.268667 32.142 693.11 31.658 691.951333 31.174 690.902667 30.492 689.964 29.612L689.832 29.612 690.008 33.66 690.008 40.876 686.4 40.876ZM695.728 29.348C697.634667 29.348 699.211333 28.5926667 700.458 27.082 701.704667 25.5713333 702.328 23.496 702.328 20.856 702.328 18.5093333 701.858667 16.61 700.92 15.158 699.981333 13.706 698.441333 12.98 696.3 12.98 695.361333 12.98 694.356667 13.2366667 693.286 13.75 692.215333 14.2633333 691.122667 15.0773333 690.008 16.192L690.008 26.84C691.034667 27.7493333 692.061333 28.3946667 693.088 28.776 694.114667 29.1573333 694.994667 29.348 695.728 29.348ZM719.532 32.384C718.212 32.384 717.002 32.142 715.902 31.658 714.802 31.174 713.922 30.4773333 713.262 29.568 712.602 28.6586667 712.272 27.5733333 712.272 26.312 712.272 24.6986667 712.792667 23.3566667 713.834 22.286 714.875333 21.2153333 716.54 20.3573333 718.828 19.712 721.116 19.0666667 724.093333 18.5973333 727.76 18.304 727.730667 17.336 727.532667 16.4486667 727.166 15.642 726.799333 14.8353333 726.205333 14.1826667 725.384 13.684 724.562667 13.1853333 723.462667 12.936 722.084 12.936 720.705333 12.936 719.363333 13.2073333 718.058 13.75 716.752667 14.2926667 715.601333 14.872 714.604 15.488L713.196 13.024C714.281333 12.32 715.667333 11.6306667 717.354 10.956 719.040667 10.2813333 720.822667 9.944 722.7 9.944 725.633333 9.944 727.811333 10.7433333 729.234 12.342 730.656667 13.9406667 731.368 16.0746667 731.368 18.744L731.368 31.856 728.42 31.856 728.112 28.952 727.98 28.952C726.806667 29.8613333 725.486667 30.6606667 724.02 31.35 722.553333 32.0393333 721.057333 32.384 719.532 32.384ZM720.5 29.48C721.702667 29.48 722.912667 29.2013333 724.13 28.644 725.347333 28.0866667 726.557333 27.3093333 727.76 26.312L727.76 20.68C724.709333 20.9146667 722.311333 21.274 720.566 21.758 718.820667 22.242 717.588667 22.8433333 716.87 23.562 716.151333 24.2806667 715.792 25.1093333 715.792 26.048 715.792 27.2506667 716.268667 28.1233333 717.222 28.666 718.175333 29.2086667 719.268 29.48 720.5 29.48ZM752.444 32.384C750.361333 32.384 748.718667 32.01 747.516 31.262 746.313333 30.514 745.455333 29.48 744.942 28.16 744.428667 26.84 744.172 25.3 744.172 23.54L744.172 13.42 738.144 13.42 738.144 10.692 744.304 10.472 744.788 3.608 747.78 3.608 747.78 10.472 758.296 10.472 758.296 13.42 747.78 13.42 747.78 23.584C747.78 25.4906667 748.168667 26.9426667 748.946 27.94 749.723333 28.9373333 751.138667 29.436 753.192 29.436 754.218667 29.436 755.142667 29.348 755.964 29.172 756.785333 28.996 757.577333 28.7613333 758.34 28.468L759.132 31.108C758.164 31.46 757.144667 31.7606667 756.074 32.01 755.003333 32.2593333 753.793333 32.384 752.444 32.384ZM765.6 31.856 765.6.528 769.208.528 769.208 9.064 768.988 14.124 769.12 14.124C770.234667 12.9213333 771.43 11.924 772.706 11.132 773.982 10.34 775.456 9.944 777.128 9.944 779.650667 9.944 781.513333 10.6773333 782.716 12.144 783.918667 13.6106667 784.52 15.752 784.52 18.568L784.52 31.856 780.912 31.856 780.912 19.052C780.912 17.028 780.530667 15.5246667 779.768 14.542 779.005333 13.5593333 777.744 13.068 775.984 13.068 774.722667 13.068 773.593333 13.3906667 772.596 14.036 771.598667 14.6813333 770.469333 15.6493333 769.208 16.94L769.208 31.856 765.6 31.856Z"/><polygon fill="#48484A" points="792.264 38.896 806.696 .616 809.952 .616 795.52 38.896"/><path fill="#48484A" d="M831.644 32.384C829.561333 32.384 827.918667 32.01 826.716 31.262 825.513333 30.514 824.655333 29.48 824.142 28.16 823.628667 26.84 823.372 25.3 823.372 23.54L823.372 13.42 817.344 13.42 817.344 10.692 823.504 10.472 823.988 3.608 826.98 3.608 826.98 10.472 837.496 10.472 837.496 13.42 826.98 13.42 826.98 23.584C826.98 25.4906667 827.368667 26.9426667 828.146 27.94 828.923333 28.9373333 830.338667 29.436 832.392 29.436 833.418667 29.436 834.342667 29.348 835.164 29.172 835.985333 28.996 836.777333 28.7613333 837.54 28.468L838.332 31.108C837.364 31.46 836.344667 31.7606667 835.274 32.01 834.203333 32.2593333 832.993333 32.384 831.644 32.384ZM853.908 32.384C852.030667 32.384 850.292667 31.944 848.694 31.064 847.095333 30.184 845.804667 28.908 844.822 27.236 843.839333 25.564 843.348 23.5546667 843.348 21.208 843.348 18.8026667 843.839333 16.764 844.822 15.092 845.804667 13.42 847.095333 12.144 848.694 11.264 850.292667 10.384 852.030667 9.944 853.908 9.944 855.785333 9.944 857.523333 10.384 859.122 11.264 860.720667 12.144 862.011333 13.42 862.994 15.092 863.976667 16.764 864.468 18.8026667 864.468 21.208 864.468 23.5546667 863.976667 25.564 862.994 27.236 862.011333 28.908 860.720667 30.184 859.122 31.064 857.523333 31.944 855.785333 32.384 853.908 32.384ZM853.908 29.392C855.961333 29.392 857.611333 28.6366667 858.858 27.126 860.104667 25.6153333 860.728 23.6426667 860.728 21.208 860.728 18.744 860.104667 16.7493333 858.858 15.224 857.611333 13.6986667 855.961333 12.936 853.908 12.936 851.854667 12.936 850.204667 13.6986667 848.958 15.224 847.711333 16.7493333 847.088 18.744 847.088 21.208 847.088 23.6426667 847.711333 25.6153333 848.958 27.126 850.204667 28.6366667 851.854667 29.392 853.908 29.392Z"/></g><rect width="100" height="200" fill="url(#a)" transform="matrix(-1 0 0 1 100 0)"/><rect width="100" height="200" x="700" fill="url(#a)"/></g></svg>