<svg xmlns="http://www.w3.org/2000/svg" width="800" height="200" viewBox="0 0 800 200"><defs><linearGradient id="a" x1="100%" x2="0%" y1="50%" y2="50%"><stop offset="0%" stop-color="#FFF"/><stop offset="100%" stop-color="#FFF" stop-opacity="0"/></linearGradient></defs><g fill="none" fill-rule="evenodd"><rect width="800" height="200" fill="#FFF" fill-rule="nonzero"/><g transform="translate(10)"><path fill="#B09AFF" d="M16,84 L16,132 L10,132 L10,84 L16,84 Z M32,126 L32,132 L16,132 L16,126 L32,126 Z M56,129 L32,144 L32,114 L56,129 Z M622.12,10 C627.66,10 630.43,10 632.176,11.6913 C632.221,11.735 632.265,11.7794 632.309,11.8246 C634,13.5684 634,16.3389 634,21.88 L634,72.12 C634,77.661 634,80.4315 632.309,82.1755 C632.265,82.2206 632.221,82.265 632.176,82.3087 C630.43,84 627.66,84 622.12,84 L11.88,84 C6.3397,84 3.5696,84 1.8245,82.3087 C1.7794,82.265 1.735,82.2206 1.6913,82.1755 C0,80.4301 0,77.66 0,72.12 L0,21.88 C0,16.3398 0,13.5697 1.6913,11.8245 C1.735,11.7794 1.7794,11.735 1.8245,11.6913 C3.5697,10 6.3398,10 11.88,10 L622.12,10 Z"/><path fill="#000" fill-rule="nonzero" d="M89.2935 123.729 89.2935 125.077 80.8633 125.077C83.0825 127.691 86.5322 130.086 89.7109 131.288 89.3813 131.559 88.9565 132.071 88.7222 132.43 85.3311 130.987 81.4565 128.138 79.208 125.077L72.9385 125.077C70.5068 128.409 67.2695 130.929 63.5781 132.73 63.4023 132.459 62.8604 131.859 62.5015 131.617 65.9512 130.123 68.9175 127.896 71.1733 125.077L62.7432 125.077 62.7432 123.729 72.1328 123.729C72.8213 122.711 73.4219 121.568 73.9272 120.367 67.9873 120.697 67.1523 120.792 66.5518 120.997 66.4932 120.667 66.2515 119.92 66.0684 119.532 66.6396 119.503 67.3574 119.173 68.1411 118.661 69.042 118.148 72.0083 116.141 74.1982 113.98L75.5532 114.757C73.5098 116.529 71.4077 118.089 69.3423 119.32L82.8408 118.69C81.5225 117.672 80.0796 116.646 78.7319 115.841L79.7793 115.028C82.5698 116.683 85.9023 119.173 87.521 120.997L86.3198 121.898C85.8071 121.268 85.0894 120.58 84.2471 119.862L74.7695 120.338 75.458 120.521C74.9819 121.664 74.4692 122.74 73.8394 123.729L89.2935 123.729ZM100.543 126.849 99.159 126.849 99.159 122.469C97.628 124.542 95.468 126.49 93.373 127.604 93.19 127.208 92.831 126.732 92.56 126.432 94.809 125.414 97.27 123.253 98.742 120.997L92.677 120.997 92.677 119.737 99.159 119.737 99.159 113.98 100.543 113.98 100.543 119.737 106.93 119.737 106.93 120.997 100.543 120.997 100.543 121.034C101.832 121.839 105.224 124.029 106.029 124.659L105.187 125.772C104.381 125.047 102.067 123.341 100.543 122.257L100.543 126.849ZM119.198 119.979 119.198 121.363 117.103 121.363C116.378 126.007 115.302 129.823 113.617 133.001 115.207 135.997 117.309 138.37 119.923 139.776 119.557 140.047 119.14 140.56 118.898 140.919 116.408 139.447 114.43 137.169 112.87 134.32 111.068 137.198 108.673 139.483 105.487 141.219 105.311 140.948 104.887 140.377 104.586 140.047 107.978 138.341 110.38 136.026 112.152 132.972 110.863 130.27 109.933 127.149 109.208 123.758 108.549 125.56 107.772 127.179 106.901 128.526 106.659 128.321 106.059 127.896 105.7 127.691 107.978 124.513 109.362 119.562 110.138 114.398L111.522 114.61C111.222 116.441 110.827 118.272 110.38 119.979L119.198 119.979ZM102.221 118.836C102.997 117.73 104.081 115.929 104.623 114.698L105.883 115.328C105.04 116.712 104.052 118.272 103.209 119.32L102.221 118.836ZM95.138 114.911C96.01 116.112 96.881 117.76 97.152 118.873L96.039 119.349C95.739 118.272 94.896 116.588 94.032 115.328L95.138 114.911ZM115.719 121.363 110.021 121.363C110.622 125.047 111.552 128.526 112.929 131.5 114.247 128.68 115.119 125.318 115.719 121.363ZM68.8003 130.929C71.8325 130.057 75.6118 128.526 77.6772 126.878L78.9077 127.479C76.6006 129.31 72.8799 131.017 69.7891 131.947 69.5181 131.646 69.1299 131.2 68.8003 130.929ZM101.891 136.122C102.968 136.722 103.993 137.323 104.711 137.799L103.722 138.817C102.968 138.282 101.979 137.652 100.873 137.052 98.683 138.883 96.039 140.113 93.278 140.831 93.131 140.472 92.831 139.989 92.56 139.718 95.138 139.088 97.628 138.041 99.701 136.422 98.141 135.638 96.427 134.862 94.896 134.32 95.526 133.331 96.281 132.101 96.94 130.812L93.307 130.812 93.307 129.552 97.57 129.552C97.899 128.827 98.2 128.138 98.412 127.479L99.76 127.721C99.518 128.321 99.247 128.922 98.947 129.552L104.499 129.552 104.77 129.457 105.582 129.823C104.799 132.401 103.51 134.474 101.891 136.122ZM68.4121 135.221C72.7627 134.291 77.7065 132.518 80.4092 130.387L81.6689 131.017C78.7612 133.39 73.7515 135.309 69.2471 136.327 69.042 136.026 68.7124 135.521 68.4121 135.221ZM100.719 135.55C102.067 134.261 103.18 132.701 103.898 130.812L98.353 130.812C97.811 131.859 97.24 132.877 96.728 133.719 98.053 134.261 99.43 134.862 100.719 135.55ZM66.6689 140.018C74.1396 139.117 80.9512 137.11 84.3423 133.749L85.6021 134.408C82.0278 138.07 75.0112 140.26 67.3867 141.278 67.2402 140.89 66.9399 140.348 66.6689 140.018ZM65.9805 175 64.1787 175 64.1787 153.13 69.8477 153.13C74.7988 153.13 77.8311 154.749 77.8311 159.282 77.8311 163.662 74.8281 165.757 69.9722 165.757L65.9805 165.757 65.9805 175ZM173.773 174.788C172.843 175.117 171.818 175.388 171.1 175.388 167.951 175.388 166.991 173.411 166.991 170.437L166.991 160.483 164.501 160.483 164.501 159.158 167.05 159.011 167.262 154.39 168.727 154.39 168.727 159.011 173.319 159.011 173.319 160.483 168.727 160.483 168.727 170.562C168.727 172.568 169.269 173.887 171.4 173.887 172.001 173.887 172.777 173.682 173.348 173.44L173.773 174.788ZM65.9805 154.631 65.9805 164.263 69.6133 164.263C73.9272 164.263 76 162.791 76 159.282 76 155.737 73.8394 154.631 69.4888 154.631L65.9805 154.631ZM89.9216 172.957C88.3029 174.282 86.3766 175.388 84.3405 175.388 81.7624 175.388 79.6896 173.953 79.6896 170.979 79.6896 167.441 82.8391 165.757 89.8923 164.951 89.9509 162.578 89.2624 160.117 86.2302 160.117 84.1281 160.117 82.2971 161.113 81.1911 161.948L80.4074 160.688C81.6379 159.854 83.8571 158.586 86.4719 158.586 90.28 158.586 91.628 161.318 91.628 164.863L91.628 175 90.163 175 89.9802 172.957 89.9216 172.957ZM98.949 175 97.213 175 97.213 159.011 98.648 159.011 98.861 161.978 98.919 161.978C100.003 159.971 101.593 158.586 103.453 158.586 104.083 158.586 104.559 158.682 105.072 158.953L104.713 160.513C104.171 160.3 103.871 160.242 103.241 160.242 101.827 160.242 100.121 161.289 98.949 164.263L98.949 175ZM116.382 172.957C114.763 174.282 112.837 175.388 110.8 175.388 108.222 175.388 106.15 173.953 106.15 170.979 106.15 167.441 109.299 165.757 116.352 164.951 116.411 162.578 115.722 160.117 112.69 160.117 110.588 160.117 108.757 161.113 107.651 161.948L106.867 160.688C108.098 159.854 110.317 158.586 112.932 158.586 116.74 158.586 118.088 161.318 118.088 164.863L118.088 175 116.623 175 116.44 172.957 116.382 172.957ZM125.409 175 123.673 175 123.673 159.011 125.108 159.011 125.321 161.443 125.379 161.443C126.822 159.854 128.617 158.586 130.418 158.586 132.967 158.586 134.256 159.883 134.828 161.831 136.629 159.883 138.373 158.586 140.233 158.586 143.441 158.586 145.03 160.659 145.03 164.768L145.03 175 143.287 175 143.287 165.01C143.287 161.677 142.181 160.146 139.837 160.146 138.402 160.146 136.93 161.113 135.223 163.032L135.223 175 133.48 175 133.48 165.01C133.48 161.677 132.403 160.146 130.03 160.146 128.617 160.146 127.093 161.113 125.409 163.032L125.409 175ZM162.014 173.828C160.717 174.641 159.223 175.388 156.909 175.388 152.8 175.388 149.467 172.268 149.467 167.017 149.467 161.831 152.858 158.586 156.491 158.586 160.358 158.586 162.673 161.348 162.673 166.028 162.673 166.482 162.643 166.899 162.578 167.288L151.24 167.288C151.328 171.191 153.642 173.923 157.092 173.923 158.798 173.923 160.153 173.381 161.347 172.539L162.014 173.828ZM187.994 173.828C186.697 174.641 185.203 175.388 182.889 175.388 178.78 175.388 175.447 172.268 175.447 167.017 175.447 161.831 178.838 158.586 182.471 158.586 186.338 158.586 188.653 161.348 188.653 166.028 188.653 166.482 188.623 166.899 188.558 167.288L177.22 167.288C177.308 171.191 179.622 173.923 183.072 173.923 184.778 173.923 186.133 173.381 187.327 172.539L187.994 173.828ZM194.649 175 192.913 175 192.913 159.011 194.348 159.011 194.561 161.978 194.619 161.978C195.703 159.971 197.293 158.586 199.153 158.586 199.783 158.586 200.259 158.682 200.772 158.953L200.413 160.513C199.871 160.3 199.571 160.242 198.941 160.242 197.527 160.242 195.821 161.289 194.649 164.263L194.649 175ZM213.102 170.833C213.102 173.293 211.154 175.388 207.609 175.388 205.272 175.388 203.17 174.399 201.727 173.198L202.657 171.938C204.042 173.11 205.507 173.953 207.696 173.953 210.128 173.953 211.359 172.568 211.359 170.92 211.359 169.031 209.352 168.159 207.491 167.5 205.118 166.658 202.482 165.669 202.482 162.908 202.482 160.571 204.371 158.586 207.733 158.586 209.469 158.586 211.183 159.341 212.377 160.3L211.483 161.501C210.399 160.688 209.227 160.059 207.667 160.059 205.301 160.059 204.217 161.377 204.217 162.82 204.217 164.592 206.078 165.251 207.938 165.94 210.399 166.87 213.102 167.742 213.102 170.833ZM156.52 160.088C153.913 160.088 151.569 162.249 151.24 165.911L161.083 165.911C161.083 162.043 159.311 160.088 156.52 160.088ZM182.5 160.088C179.893 160.088 177.549 162.249 177.22 165.911L187.063 165.911C187.063 162.043 185.291 160.088 182.5 160.088ZM81.4328 170.891C81.4328 173.081 82.9269 173.923 84.6994 173.923 86.4719 173.923 88.0026 173.081 89.8923 171.433L89.8923 166.24C83.5934 166.958 81.4328 168.43 81.4328 170.891ZM107.893 170.891C107.893 173.081 109.387 173.923 111.159 173.923 112.932 173.923 114.463 173.081 116.352 171.433L116.352 166.24C110.053 166.958 107.893 168.43 107.893 170.891ZM33.0621 27.6758 33.0621 59 36.6714 59 36.6714 53.1885 41.731 48.2148 49.605 59 53.6548 59 43.9761 46.0234 52.5162 37.6123 48.3804 37.6123 36.8433 48.8809 36.6714 48.8809 36.6714 27.6758 33.0621 27.6758ZM225.897 57.5713C227.114333 58.8747 228.851 59.5264 231.107 59.5264 232.281667 59.5264 233.277 59.4154 234.093 59.1934 234.916333 58.9785333 235.829333 58.6634 236.832 58.248L235.909 55.5732C234.497667 56.2177333 233.162 56.54 231.902 56.54 230.641333 56.54 229.620667 56.1891 228.84 55.4873 228.066667 54.7783 227.68 53.6468 227.68 52.0928L227.68 27.6758 216.454 27.6758 216.454 30.6191 224.071 30.6191 224.071 51.8242C224.071 54.3522 224.679667 56.2679 225.897 57.5713ZM349.861 27.6758 349.861 59 353.471 59 353.471 53.1885 358.53 48.2148 366.404 59 370.454 59 360.776 46.0234 369.316 37.6123 365.18 37.6123 353.643 48.8809 353.471 48.8809 353.471 27.6758 349.861 27.6758ZM542.696 57.5713C543.914 58.8747 545.650667 59.5264 547.906 59.5264 549.080667 59.5264 550.076333 59.4154 550.893 59.1934 551.716333 58.9785333 552.629333 58.6634 553.632 58.248L552.708 55.5732C551.297333 56.2177333 549.961667 56.54 548.701 56.54 547.441 56.54 546.420667 56.1891 545.64 55.4873 544.866667 54.7783 544.48 53.6468 544.48 52.0928L544.48 27.6758 533.254 27.6758 533.254 30.6191 540.87 30.6191 540.87 51.8242C540.87 54.3522 541.478667 56.2679 542.696 57.5713ZM12.9355 45.4971C12.5416333 46.4352333 12.4449667 47.5345 12.6455 48.7949L15.8574 48.7949C15.7142 47.6491 15.8610333 46.6501 16.2979 45.7979 16.7419 44.9456333 17.3291333 44.1686 18.0596 43.4668 18.7900667 42.765 19.5456 42.056 20.3262 41.3398 21.1068 40.6165333 21.7584667 39.8216333 22.2812 38.9551 22.8112 38.0885667 23.0762 37.0573 23.0762 35.8613 23.0762 33.7773667 22.3206667 32.1123333 20.8096 30.8662 19.2985333 29.6201333 17.3255333 28.9971 14.8906 28.9971 13.1933333 28.9971 11.6679667 29.3336667 10.3145 30.0068 8.9681 30.68 7.7936 31.5286333 6.791 32.5527L8.9502 34.54C9.74513333 33.7451333 10.6188333 33.1221 11.5713 32.6709 12.5237667 32.2125667 13.5586 31.9834 14.6758 31.9834 16.2871333 31.9834 17.4938333 32.3952 18.2959 33.2188 19.1051667 34.0352 19.5098 35.0449333 19.5098 36.248 19.5098 37.1575333 19.2448 37.9739667 18.7148 38.6973 18.1920667 39.4134333 17.5547 40.1188333 16.8027 40.8135 16.0579 41.5009667 15.3238667 42.2171 14.6006 42.9619 13.8844667 43.7067 13.3294333 44.5517667 12.9355 45.4971ZM324.783 58.4951C326.071667 59.1826333 327.568333 59.5264 329.273 59.5264 330.913 59.5264 332.370333 59.2256 333.645 58.624 334.927 58.0224667 336.094333 57.2239667 337.147 56.2285 339.259667 57.8398333 341.268333 58.9391333 343.173 59.5264L344.183 56.54C342.629 56.0387333 340.974667 55.1149333 339.22 53.7686 340.272667 52.2432 341.178667 50.6068 341.938 48.8594 342.704 47.112 343.352 45.3001333 343.882 43.4238L340.531 43.4238C340.123 45.0638 339.618 46.5892 339.016 48 338.414667 49.4108 337.702 50.6998667 336.878 51.8672 335.560667 50.7285333 334.293333 49.4645333 333.076 48.0752 331.858667 46.6787333 330.780667 45.2464333 329.842 43.7783 330.866 42.9833667 331.847333 42.1777 332.786 41.3613 333.731333 40.5377667 334.512 39.6354333 335.128 38.6543 335.743333 37.6660333 336.051 36.556 336.051 35.3242 336.051 33.6269333 335.564 32.2519333 334.59 31.1992 333.623333 30.1393333 332.245 29.6094 330.455 29.6094 329.194333 29.6094 328.087667 29.9101667 327.135 30.5117 326.183 31.1133 325.442 31.9297 324.912 32.9609 324.389333 33.9850333 324.128 35.1416333 324.128 36.4307 324.128 37.4547667 324.296 38.5468667 324.632 39.707 324.968667 40.8672 325.445 42.0488667 326.061 43.252 325.123 43.9251333 324.242333 44.6663333 323.419 45.4756 322.595 46.2776667 321.925333 47.1728333 321.41 48.1611 320.901333 49.1422333 320.647 50.263 320.647 51.5234 320.647 53.0774667 321.012333 54.4560667 321.743 55.6592 322.480333 56.8623333 323.493667 57.8076333 324.783 58.4951ZM427.611 56.8408 427.611 59 447.366 59 447.366 55.874 438.128 55.874C437.304 55.874 436.444667 55.9062333 435.55 55.9707 434.654667 56.0279667 433.77 56.0852667 432.896 56.1426 435.446 53.8222667 437.694667 51.6738333 439.642 49.6973 441.597333 47.7135667 443.115667 45.8193333 444.197 44.0146 445.285667 42.2099333 445.83 40.4303333 445.83 38.6758 445.83 36.1764667 445.006333 34.1748333 443.359 32.6709 441.719 31.1598333 439.492 30.4043 436.678 30.4043 434.708 30.4043 432.989 30.7946 431.521 31.5752 430.060333 32.3486667 428.699667 33.3799 427.439 34.6689L429.502 36.7314C430.411333 35.7932667 431.431667 34.9947667 432.563 34.3359 433.695 33.6771 434.919667 33.3477 436.237 33.3477 438.321 33.3477 439.860667 33.8633 440.856 34.8945 441.851333 35.9186333 442.349 37.2363667 442.349 38.8477 442.349 40.4017 441.783333 42.0309333 440.652 43.7354 439.528 45.4326 437.863 47.3375333 435.657 49.4502 433.458333 51.5628 430.776333 54.0263333 427.611 56.8408ZM612.411 56.8408 612.411 59 632.166 59 632.166 55.874 622.927 55.874C622.103667 55.874 621.244333 55.9062333 620.349 55.9707 619.454333 56.0279667 618.57 56.0852667 617.696 56.1426 620.245333 53.8222667 622.494 51.6738333 624.442 49.6973 626.397333 47.7135667 627.915667 45.8193333 628.997 44.0146 630.085667 42.2099333 630.63 40.4303333 630.63 38.6758 630.63 36.1764667 629.806333 34.1748333 628.159 32.6709 626.519 31.1598333 624.291667 30.4043 621.477 30.4043 619.507667 30.4043 617.789 30.7946 616.321 31.5752 614.860333 32.3486667 613.499667 33.3799 612.239 34.6689L614.302 36.7314C615.211333 35.7932667 616.231667 34.9947667 617.363 34.3359 618.494333 33.6771 619.719 33.3477 621.037 33.3477 623.121 33.3477 624.660667 33.8633 625.656 34.8945 626.651333 35.9186333 627.149 37.2363667 627.149 38.8477 627.149 40.4017 626.583333 42.0309333 625.452 43.7354 624.327333 45.4326 622.662333 47.3375333 620.457 49.4502 618.258333 51.5628 615.576333 54.0263333 612.411 56.8408ZM111.864 56.0029 111.864 59 130.921 59 130.921 56.0029 123.573 56.0029 123.573 30.9307 120.888 30.9307C119.978667 31.3961667 118.958 31.8007667 117.826 32.1445 116.702 32.4811 115.316333 32.764 113.669 32.9932L113.669 35.3242 119.964 35.3242 119.964 56.0029 111.864 56.0029ZM296.664 56.0029 296.664 59 315.721 59 315.721 56.0029 308.373 56.0029 308.373 30.9307 305.688 30.9307C304.778 31.3961667 303.757333 31.8007667 302.626 32.1445 301.501333 32.4811 300.115667 32.764 298.469 32.9932L298.469 35.3242 304.764 35.3242 304.764 56.0029 296.664 56.0029ZM327.597 38.8477C327.361 37.9954333 327.243 37.1754333 327.243 36.3877 327.243 35.1845667 327.529333 34.1891333 328.102 33.4014 328.674667 32.6064667 329.459 32.209 330.455 32.209 331.429 32.209 332.112667 32.5241 332.506 33.1543 332.9 33.7845 333.097 34.5221333 333.097 35.3672 333.097 36.6348 332.649333 37.7448333 331.754 38.6973 330.859333 39.6497667 329.796 40.5664333 328.564 41.4473 328.156 40.5664333 327.833667 39.6999 327.597 38.8477ZM63.4903 58.2051C65.2377 59.0859667 67.1820333 59.5264 69.3233 59.5264 71.0492333 59.5264 72.5925333 59.2793333 73.9532 58.7852 75.3210667 58.2838667 76.5349333 57.6823 77.5948 56.9805L76.2735 54.5957C75.3067 55.2115667 74.3005333 55.7057 73.255 56.0781 72.2166 56.4433667 71.0528667 56.626 69.7638 56.626 67.5294 56.626 65.6423333 56.0101 64.1026 54.7783 62.5629333 53.5465667 61.6749333 51.7275667 61.4386 49.3213L78.2931 49.3213C78.3503667 49.0277 78.3933333 48.6911 78.422 48.3115 78.4578 47.9247667 78.4757 47.5273 78.4757 47.1191 78.4757 44.0969667 77.6163333 41.6692333 75.8976 39.8359 74.1788 38.0025667 71.7797 37.0859 68.7003 37.0859 66.7953667 37.0859 65.0121667 37.5335 63.3507 38.4287 61.6963667 39.3239 60.3571667 40.6094 59.3331 42.2852 58.3090333 43.9538 57.797 45.9482667 57.797 48.2686 57.797 50.639 58.3090333 52.6692667 59.3331 54.3594 60.3571667 56.0423333 61.7429 57.3242333 63.4903 58.2051ZM193.986 58.8066C195.088667 59.2864667 196.302667 59.5264 197.628 59.5264 199.153333 59.5264 200.646333 59.1826333 202.107 58.4951 203.575 57.8076333 204.896333 57.0091333 206.071 56.0996L206.2 56.0996 206.512 59 209.455 59 209.455 45.8838C209.455 43.2197333 208.742333 41.0892 207.317 39.4922 205.899 37.888 203.725667 37.0859 200.797 37.0859 198.913667 37.0859 197.126667 37.4260667 195.436 38.1064 193.753333 38.7796 192.371333 39.4671 191.29 40.1689L192.697 42.6289C193.692333 42.0130333 194.841667 41.4365333 196.145 40.8994 197.455667 40.3551333 198.798667 40.083 200.174 40.083 201.556 40.083 202.655333 40.3336667 203.472 40.835 204.295333 41.3291333 204.889667 41.9808 205.255 42.79 205.620333 43.5921333 205.820667 44.4766 205.856 45.4434 202.189333 45.737 199.210333 46.2096333 196.919 46.8613 194.634333 47.5058333 192.969333 48.3652333 191.924 49.4395 190.885333 50.5065 190.366 51.8456667 190.366 53.457 190.366 54.7174667 190.695333 55.8024333 191.354 56.7119 192.013333 57.6214333 192.890667 58.3196667 193.986 58.8066ZM274.69 58.2051C276.437333 59.0859667 278.381667 59.5264 280.523 59.5264 282.249 59.5264 283.792333 59.2793333 285.153 58.7852 286.521 58.2838667 287.734667 57.6823 288.794 56.9805L287.473 54.5957C286.506333 55.2115667 285.500333 55.7057 284.455 56.0781 283.416333 56.4433667 282.252333 56.626 280.963 56.626 278.729 56.626 276.842 56.0101 275.302 54.7783 273.762667 53.5465667 272.874667 51.7275667 272.638 49.3213L289.493 49.3213C289.550333 49.0277 289.593333 48.6911 289.622 48.3115 289.657333 47.9247667 289.675 47.5273 289.675 47.1191 289.675 44.0969667 288.815667 41.6692333 287.097 39.8359 285.378333 38.0025667 282.979333 37.0859 279.9 37.0859 277.994667 37.0859 276.211333 37.5335 274.55 38.4287 272.896 39.3239 271.557 40.6094 270.533 42.2852 269.509 43.9538 268.997 45.9482667 268.997 48.2686 268.997 50.639 269.509 52.6692667 270.533 54.3594 271.557 56.0423333 272.942667 57.3242333 274.69 58.2051ZM380.29 58.2051C382.037333 59.0859667 383.981667 59.5264 386.123 59.5264 387.849 59.5264 389.392333 59.2793333 390.753 58.7852 392.120333 58.2838667 393.334 57.6823 394.394 56.9805L393.073 54.5957C392.106333 55.2115667 391.1 55.7057 390.054 56.0781 389.016 56.4433667 387.852333 56.626 386.563 56.626 384.329 56.626 382.442 56.0101 380.902 54.7783 379.362 53.5465667 378.474 51.7275667 378.238 49.3213L395.092 49.3213C395.149333 49.0277 395.192333 48.6911 395.221 48.3115 395.257 47.9247667 395.275 47.5273 395.275 47.1191 395.275 44.0969667 394.415667 41.6692333 392.697 39.8359 390.978333 38.0025667 388.579333 37.0859 385.5 37.0859 383.594667 37.0859 381.811333 37.5335 380.15 38.4287 378.496 39.3239 377.157 40.6094 376.133 42.2852 375.108333 43.9538 374.596 45.9482667 374.596 48.2686 374.596 50.639 375.108333 52.6692667 376.133 54.3594 377.157 56.0423333 378.542667 57.3242333 380.29 58.2051ZM510.786 58.8066C511.888667 59.2864667 513.102333 59.5264 514.427 59.5264 515.952333 59.5264 517.445667 59.1826333 518.907 58.4951 520.375 57.8076333 521.696333 57.0091333 522.871 56.0996L523 56.0996 523.311 59 526.254 59 526.254 45.8838C526.254 43.2197333 525.541667 41.0892 524.117 39.4922 522.699 37.888 520.525333 37.0859 517.596 37.0859 515.712667 37.0859 513.926 37.4260667 512.236 38.1064 510.552667 38.7796 509.170333 39.4671 508.089 40.1689L509.497 42.6289C510.492333 42.0130333 511.641667 41.4365333 512.945 40.8994 514.255667 40.3551333 515.598333 40.083 516.973 40.083 518.355 40.083 519.454333 40.3336667 520.271 40.835 521.094333 41.3291333 521.688667 41.9808 522.054 42.79 522.419333 43.5921333 522.62 44.4766 522.656 45.4434 518.989333 45.737 516.01 46.2096333 513.718 46.8613 511.434 47.5058333 509.769 48.3652333 508.723 49.4395 507.685 50.5065 507.166 51.8456667 507.166 53.457 507.166 54.7174667 507.495333 55.8024333 508.154 56.7119 508.812667 57.6214333 509.69 58.3196667 510.786 58.8066ZM591.489 58.2051C593.237 59.0859667 595.181333 59.5264 597.322 59.5264 599.048 59.5264 600.591333 59.2793333 601.952 58.7852 603.32 58.2838667 604.534 57.6823 605.594 56.9805L604.273 54.5957C603.305667 55.2115667 602.299333 55.7057 601.254 56.0781 600.215333 56.4433667 599.051667 56.626 597.763 56.626 595.528333 56.626 593.641333 56.0101 592.102 54.7783 590.562 53.5465667 589.674 51.7275667 589.438 49.3213L606.292 49.3213C606.349333 49.0277 606.392333 48.6911 606.421 48.3115 606.457 47.9247667 606.475 47.5273 606.475 47.1191 606.475 44.0969667 605.615667 41.6692333 603.897 39.8359 602.178333 38.0025667 599.779 37.0859 596.699 37.0859 594.794333 37.0859 593.011333 37.5335 591.35 38.4287 589.695333 39.3239 588.356 40.6094 587.332 42.2852 586.308 43.9538 585.796 45.9482667 585.796 48.2686 585.796 50.639 586.308 52.6692667 587.332 54.3594 588.356 56.0423333 589.741667 57.3242333 591.489 58.2051ZM84.1432 67.7549C84.9668 68.0485 85.9085333 68.1953 86.9684 68.1953 88.5797333 68.1953 89.9619333 67.8658667 91.115 67.207 92.275 66.5482 93.2526667 65.6602 94.048 64.543 94.8426667 63.4258 95.5013333 62.1653667 96.024 60.7617L105.445 37.6123 102.007 37.6123 97.345 49.4502C96.9943333 50.417 96.6183333 51.4375 96.217 52.5117 95.8236667 53.5787667 95.437 54.6279333 95.057 55.6592L94.885 55.6592C94.441 54.6279333 93.99 53.5716 93.532 52.4902 93.0806667 51.4016667 92.651 50.3883333 92.243 49.4502L87.0114 37.6123 83.359 37.6123 93.339 59.043 92.683 60.6328C92.153 61.9505333 91.419 63.0426667 90.481 63.9092 89.5429333 64.7757333 88.3255333 65.209 86.8288 65.209 86.5065333 65.209 86.1771 65.1767667 85.8405 65.1123 85.5039 65.0550333 85.1888 64.9834333 84.8952 64.8975L84.1432 67.7549ZM162.645 37.6123 171.668 59 175.707 59 184.559 37.6123 181.078 37.6123 176.148 49.7617C175.710667 50.8431 175.309667 51.9065667 174.945 52.9521 174.579667 53.9905667 174.203667 55.0254 173.817 56.0566L173.645 56.0566C173.265 55.0254 172.874667 53.9905667 172.474 52.9521 172.08 51.9065667 171.664667 50.8431 171.228 49.7617L166.297 37.6123 162.645 37.6123ZM244.788 57.335C245.991333 58.7959333 247.871333 59.5264 250.428 59.5264 252.068 59.5264 253.532333 59.1325 254.821 58.3447 256.110333 57.5497667 257.299333 56.5221 258.388 55.2617L258.56 55.2617 258.871 59 261.814 59 261.814 37.6123 258.216 37.6123 258.216 52.4473C257.041333 53.8223 255.945667 54.8249 254.929 55.4551 253.919 56.0853 252.798 56.4004 251.566 56.4004 249.776 56.4004 248.505 55.9098333 247.753 54.9287 247.008333 53.9475667 246.636 52.4436667 246.636 50.417L246.636 37.6123 242.983 37.6123 242.983 50.9004C242.983 53.722 243.584667 55.8668667 244.788 57.335ZM400.943 67.7549C401.766333 68.0485 402.708 68.1953 403.768 68.1953 405.379333 68.1953 406.761333 67.8658667 407.914 67.207 409.074667 66.5482 410.052333 65.6602 410.847 64.543 411.641667 63.4258 412.300333 62.1653667 412.823 60.7617L422.244 37.6123 418.807 37.6123 414.145 49.4502C413.793667 50.417 413.417667 51.4375 413.017 52.5117 412.623 53.5787667 412.236333 54.6279333 411.857 55.6592L411.685 55.6592C411.241 54.6279333 410.789667 53.5716 410.331 52.4902 409.880333 51.4016667 409.450667 50.3883333 409.042 49.4502L403.811 37.6123 400.158 37.6123 410.138 59.043 409.483 60.6328C408.953 61.9505333 408.219 63.0426667 407.281 63.9092 406.342333 64.7757333 405.124667 65.209 403.628 65.209 403.306 65.209 402.976667 65.1767667 402.64 65.1123 402.303333 65.0550333 401.988333 64.9834333 401.695 64.8975L400.943 67.7549ZM479.444 37.6123 488.468 59 492.507 59 501.358 37.6123 497.878 37.6123 492.947 49.7617C492.510333 50.8431 492.109333 51.9065667 491.744 52.9521 491.378667 53.9905667 491.002667 55.0254 490.616 56.0566L490.444 56.0566C490.064667 55.0254 489.674333 53.9905667 489.273 52.9521 488.879667 51.9065667 488.464333 50.8431 488.027 49.7617L483.097 37.6123 479.444 37.6123ZM561.588 57.335C562.790667 58.7959333 564.670333 59.5264 567.227 59.5264 568.867 59.5264 570.331667 59.1325 571.621 58.3447 572.909667 57.5497667 574.098333 56.5221 575.187 55.2617L575.359 55.2617 575.671 59 578.614 59 578.614 37.6123 575.015 37.6123 575.015 52.4473C573.841 53.8223 572.745333 54.8249 571.728 55.4551 570.718667 56.0853 569.598 56.4004 568.366 56.4004 566.575333 56.4004 565.304 55.9098333 564.552 54.9287 563.807333 53.9475667 563.435 52.4436667 563.435 50.417L563.435 37.6123 559.783 37.6123 559.783 50.9004C559.783 53.722 560.384667 55.8668667 561.588 57.335ZM137.738 38.4072 137.738 41.1357 156.655 41.1357 156.655 38.4072 137.738 38.4072ZM454.537 38.4072 454.537 41.1357 473.454 41.1357 473.454 38.4072 454.537 38.4072ZM64.0811 41.6406C65.4633 40.5091333 67.0352667 39.9434 68.797 39.9434 70.6088 39.9434 72.0876333 40.4876667 73.2335 41.5762 74.3793 42.6647333 75.0238333 44.3082667 75.1671 46.5068L61.5352 46.5068C61.8574667 44.3942 62.7061 42.7721333 64.0811 41.6406ZM275.281 41.6406C276.663 40.5091333 278.235 39.9434 279.997 39.9434 281.808333 39.9434 283.287 40.4876667 284.433 41.5762 285.579 42.6647333 286.223667 44.3082667 286.367 46.5068L272.735 46.5068C273.057 44.3942 273.905667 42.7721333 275.281 41.6406ZM380.881 41.6406C382.263 40.5091333 383.834667 39.9434 385.596 39.9434 387.408 39.9434 388.887 40.4876667 390.033 41.5762 391.179 42.6647333 391.823333 44.3082667 391.966 46.5068L378.335 46.5068C378.657 44.3942 379.505667 42.7721333 380.881 41.6406ZM592.08 41.6406C593.462667 40.5091333 595.034667 39.9434 596.796 39.9434 598.608 39.9434 600.087 40.4876667 601.233 41.5762 602.378333 42.6647333 603.022667 44.3082667 603.166 46.5068L589.534 46.5068C589.856667 44.3942 590.705333 42.7721333 592.08 41.6406ZM325.793 55.1758C324.711 54.2018 324.17 52.9091667 324.17 51.2979 324.17 50.1878333 324.485333 49.1852 325.116 48.29 325.746 47.3948667 326.515667 46.5355 327.425 45.7119 328.421 47.2659667 329.549 48.7842 330.809 50.2666 332.069667 51.749 333.391 53.1061 334.773 54.3379 334.035667 55.0397 333.233667 55.5983 332.367 56.0137 331.507667 56.4219 330.623 56.626 329.713 56.626 328.187667 56.626 326.881 56.1426 325.793 55.1758ZM137.738 47.8174 137.738 50.5459 156.655 50.5459 156.655 47.8174 137.738 47.8174ZM454.537 47.8174 454.537 50.5459 473.454 50.5459 473.454 47.8174 454.537 47.8174ZM202.225 55.7881C201.007667 56.3467 199.797667 56.626 198.595 56.626 197.363 56.626 196.267 56.3538667 195.307 55.8096 194.355 55.2653333 193.879 54.3916333 193.879 53.1885 193.879 52.2503 194.237 51.4231333 194.953 50.707 195.676333 49.9908667 196.911667 49.3893 198.659 48.9023 200.406333 48.4153667 202.805333 48.0573 205.856 47.8281L205.856 53.457C204.653333 54.4524667 203.443 55.2295 202.225 55.7881ZM519.025 55.7881C517.807667 56.3467 516.597333 56.626 515.394 56.626 514.162 56.626 513.066333 56.3538667 512.107 55.8096 511.154333 55.2653333 510.678 54.3916333 510.678 53.1885 510.678 52.2503 511.036 51.4231333 511.752 50.707 512.475333 49.9908667 513.710667 49.3893 515.458 48.9023 517.206 48.4153667 519.605333 48.0573 522.656 47.8281L522.656 53.457C521.452667 54.4524667 520.242333 55.2295 519.025 55.7881ZM12.3125 58.6025C12.9499 59.2184333 13.7054333 59.5264 14.5791 59.5264 15.4599667 59.5264 16.2155 59.2184333 16.8457 58.6025 17.4759 57.9866333 17.791 57.1523333 17.791 56.0996 17.791 55.0683333 17.4759 54.2519333 16.8457 53.6504 16.2155 53.0488 15.4599667 52.748 14.5791 52.748 13.7054333 52.748 12.9499 53.0488 12.3125 53.6504 11.6823 54.2519333 11.3672 55.0683333 11.3672 56.0996 11.3672 57.1523333 11.6823 57.9866333 12.3125 58.6025Z"/><path fill="#CCC" fill-rule="nonzero" d="M798.091,27.6758 L798.091,59 L801.701,59 L801.701,44.0791 C802.961,42.7900333 804.089,41.8232333 805.085,41.1787 C806.080333,40.5341667 807.211667,40.2119 808.479,40.2119 C810.233667,40.2119 811.490667,40.7024667 812.25,41.6836 C813.016,42.6647333 813.399,44.1686333 813.399,46.1953 L813.399,59 L817.008,59 L817.008,45.7119 C817.008,42.8974333 816.406667,40.7561667 815.204,39.2881 C814.000667,37.8199667 812.138667,37.0859 809.618,37.0859 C807.949333,37.0859 806.474,37.4833667 805.192,38.2783 C803.917333,39.0661 802.725,40.0615333 801.615,41.2646 L801.475,41.2646 L801.701,36.2051 L801.701,27.6758 L798.091,27.6758 Z M982.891,27.6758 L982.891,59 L986.501,59 L986.501,44.0791 C987.761,42.7900333 988.888667,41.8232333 989.884,41.1787 C990.881333,40.5341667 992.013333,40.2119 993.28,40.2119 C995.033333,40.2119 996.29,40.7024667 997.05,41.6836 C997.816667,42.6647333 998.2,44.1686333 998.2,46.1953 L998.2,59 L1001.81,59 L1001.81,45.7119 C1001.81,42.8974333 1001.20667,40.7561667 1000,39.2881 C998.8,37.8199667 996.94,37.0859 994.42,37.0859 C992.746667,37.0859 991.270667,37.4833667 989.992,38.2783 C988.717333,39.0661 987.525,40.0615333 986.415,41.2646 L986.275,41.2646 L986.501,36.2051 L986.501,27.6758 L982.891,27.6758 Z M669.561,58.3662 C671.351667,59.1396667 673.303333,59.5264 675.416,59.5264 C677.528667,59.5264 679.347667,59.1611667 680.873,58.4307 C682.398333,57.6930333 683.572667,56.7011667 684.396,55.4551 C685.22,54.2089667 685.632,52.8232333 685.632,51.2979 C685.632,49.8584333 685.345333,48.6624667 684.772,47.71 C684.199333,46.7574667 683.436667,45.9518 682.484,45.293 C681.532,44.6341333 680.454333,44.0683667 679.251,43.5957 L675.201,41.8447 C674.377667,41.4866333 673.568333,41.1178333 672.773,40.7383 C671.985667,40.3587 671.334,39.8753 670.818,39.2881 C670.31,38.7008333 670.056,37.9524667 670.056,37.043 C670.056,35.7539333 670.568,34.7298333 671.592,33.9707 C672.616,33.2044333 673.965667,32.8213 675.641,32.8213 C677.138333,32.8213 678.456333,33.0648 679.595,33.5518 C680.740333,34.0316 681.782333,34.6976 682.721,35.5498 L684.654,33.1758 C683.601333,32.1158667 682.312333,31.2565 680.787,30.5977 C679.261667,29.9388333 677.589333,29.6094 675.77,29.6094 C673.922667,29.6094 672.286333,29.9388333 670.861,30.5977 C669.443,31.2565 668.329333,32.166 667.52,33.3262 C666.711333,34.4863333 666.307,35.8004667 666.307,37.2686 C666.307,38.6722 666.629,39.861 667.273,40.835 C667.925,41.8018 668.727333,42.5931333 669.68,43.209 C670.632,43.8248667 671.591333,44.3225667 672.558,44.7021 L676.694,46.5068 C677.689333,46.915 678.574,47.3268 679.348,47.7422 C680.128,48.1504 680.743667,48.6624333 681.195,49.2783 C681.653667,49.8941667 681.883,50.7141667 681.883,51.7383 C681.883,53.0918333 681.331333,54.1947 680.228,55.0469 C679.132667,55.8919667 677.589667,56.3145 675.599,56.3145 C673.951667,56.3145 672.401,55.9850667 670.947,55.3262 C669.500333,54.6673333 668.232667,53.7936333 667.144,52.7051 L664.942,55.2617 C666.238667,56.5507667 667.778333,57.5856 669.561,58.3662 Z M903.777,55.874 L903.777,59 L921.813,59 L921.813,55.874 L914.648,55.874 L914.648,33.2188 L921.813,33.2188 L921.813,30.1357 L903.777,30.1357 L903.777,33.2188 L910.953,33.2188 L910.953,55.874 L903.777,55.874 Z M963.753,33.2188 L963.753,59 L967.448,59 L967.448,33.2188 L976.955,33.2188 L976.955,30.1357 L954.246,30.1357 L954.246,33.2188 L963.753,33.2188 Z M1035.42,30.1357 L1035.42,59 L1042.73,59 C1046.98333,59 1050.24333,57.7252667 1052.51,55.1758 C1054.79,52.6191333 1055.93,49.0384 1055.93,44.4336 C1055.93,39.8574 1054.78333,36.3303667 1052.49,33.8525 C1050.21,31.3746333 1046.9,30.1357 1042.56,30.1357 L1035.42,30.1357 Z M642.947,50.0195 L641.851,59 L644.225,59 L645.321,50.0195 L651.132,50.0195 L650.026,59 L652.41,59 L653.506,50.0195 L657.556,50.0195 L657.556,47.5166 L653.818,47.5166 L654.602,41.0068 L658.437,41.0068 L658.437,38.4502 L654.913,38.4502 L655.88,30.4043 L653.549,30.4043 L652.539,38.4502 L646.728,38.4502 L647.695,30.4043 L645.364,30.4043 L644.354,38.4502 L640.304,38.4502 L640.304,41.0068 L644.042,41.0068 L643.258,47.5166 L639.423,47.5166 L639.423,50.0195 L642.947,50.0195 Z M1228.8,58.4092 C1230.00667,59.154 1231.65333,59.5264 1233.74,59.5264 C1235.08667,59.5264 1236.29333,59.4010667 1237.36,59.1504 C1238.43333,58.9069333 1239.45333,58.6061333 1240.42,58.248 L1239.63,55.6162 C1238.86333,55.9098 1238.07,56.1461333 1237.25,56.3252 C1236.43,56.4970667 1235.50667,56.583 1234.48,56.583 C1232.42667,56.583 1231.01,56.0852667 1230.23,55.0898 C1229.45667,54.0872 1229.07,52.6334333 1229.07,50.7285 L1229.07,40.5664 L1239.59,40.5664 L1239.59,37.6123 L1229.07,37.6123 L1229.07,30.748 L1226.08,30.748 L1225.59,37.6123 L1219.44,37.8379 L1219.44,40.5664 L1225.46,40.5664 L1225.46,50.6855 C1225.46,52.4472333 1225.71667,53.9869667 1226.23,55.3047 C1226.74333,56.6223667 1227.6,57.6572 1228.8,58.4092 Z M1042.29,56.0029 L1039.07,56.0029 L1039.07,33.1328 L1042.29,33.1328 C1045.60333,33.1328 1048.07333,34.1067667 1049.7,36.0547 C1051.33333,38.0026333 1052.15,40.7956 1052.15,44.4336 C1052.15,48.0716 1051.33333,50.9111 1049.7,52.9521 C1048.07333,54.9859667 1045.60333,56.0029 1042.29,56.0029 Z M696.38,58.2051 C697.984667,59.0859667 699.725,59.5264 701.601,59.5264 C703.477,59.5264 705.213667,59.0859667 706.811,58.2051 C708.407667,57.3242333 709.696667,56.0495 710.678,54.3809 C711.666667,52.7051 712.161,50.6963 712.161,48.3545 C712.161,45.9482333 711.666667,43.9108 710.678,42.2422 C709.696667,40.5664 708.407667,39.2880667 706.811,38.4072 C705.213667,37.5263333 703.477,37.0859 701.601,37.0859 C699.725,37.0859 697.984667,37.5263333 696.38,38.4072 C694.783333,39.2880667 693.494333,40.5664 692.513,42.2422 C691.531667,43.9108 691.041,45.9482333 691.041,48.3545 C691.041,50.6963 691.531667,52.7051 692.513,54.3809 C693.494333,56.0495 694.783333,57.3242333 696.38,58.2051 Z M717.355,37.6123 L717.355,59 L720.954,59 L720.954,43.5098 C721.484,42.3997333 722.021,41.5725667 722.565,41.0283 C723.109667,40.4840333 723.747333,40.2119 724.478,40.2119 C725.272667,40.2119 725.838333,40.527 726.175,41.1572 C726.511667,41.7874 726.68,42.7184 726.68,43.9502 L726.68,59 L730.021,59 L730.021,43.5098 C730.607667,42.3997333 731.141,41.5725667 731.621,41.0283 C732.108333,40.4840333 732.720667,40.2119 733.458,40.2119 C734.983333,40.2119 735.746,41.458 735.746,43.9502 L735.746,59 L739.355,59 L739.355,43.6924 C739.355,41.5511333 738.936333,39.9147333 738.099,38.7832 C737.261,37.6516667 736.093667,37.0859 734.597,37.0859 C733.365,37.0859 732.373,37.4189333 731.621,38.085 C730.876333,38.7438 730.196,39.6425333 729.58,40.7812 C728.964,38.3176667 727.614,37.0859 725.53,37.0859 C724.298667,37.0859 723.317667,37.3938667 722.587,38.0098 C721.856333,38.6256667 721.211667,39.4313333 720.653,40.4268 L720.567,40.4268 L720.256,37.6123 L717.355,37.6123 Z M749.889,58.2051 C751.636333,59.0859667 753.580667,59.5264 755.722,59.5264 C757.448,59.5264 758.991333,59.2793333 760.352,58.7852 C761.72,58.2838667 762.934,57.6823 763.994,56.9805 L762.672,54.5957 C761.705333,55.2115667 760.699333,55.7057 759.654,56.0781 C758.615333,56.4433667 757.451667,56.626 756.163,56.626 C753.928333,56.626 752.041333,56.0101 750.502,54.7783 C748.962,53.5465667 748.073667,51.7275667 747.837,49.3213 L764.692,49.3213 C764.749333,49.0277 764.792333,48.6911 764.821,48.3115 C764.857,47.9247667 764.875,47.5273 764.875,47.1191 C764.875,44.0969667 764.015333,41.6692333 762.296,39.8359 C760.577333,38.0025667 758.178333,37.0859 755.099,37.0859 C753.194333,37.0859 751.411333,37.5335 749.75,38.4287 C748.095333,39.3239 746.756,40.6094 745.732,42.2852 C744.708,43.9538 744.196,45.9482667 744.196,48.2686 C744.196,50.639 744.708,52.6692667 745.732,54.3594 C746.756,56.0423333 748.141667,57.3242333 749.889,58.2051 Z M829.089,58.2051 C830.836333,59.0859667 832.780667,59.5264 834.922,59.5264 C836.648,59.5264 838.191333,59.2793333 839.552,58.7852 C840.92,58.2838667 842.134,57.6823 843.194,56.9805 L841.872,54.5957 C840.905333,55.2115667 839.899333,55.7057 838.854,56.0781 C837.815333,56.4433667 836.651667,56.626 835.363,56.626 C833.128333,56.626 831.241,56.0101 829.701,54.7783 C828.161667,53.5465667 827.273667,51.7275667 827.037,49.3213 L843.892,49.3213 C843.949333,49.0277 843.992333,48.6911 844.021,48.3115 C844.056333,47.9247667 844.074,47.5273 844.074,47.1191 C844.074,44.0969667 843.214667,41.6692333 841.496,39.8359 C839.777333,38.0025667 837.378333,37.0859 834.299,37.0859 C832.394333,37.0859 830.611,37.5335 828.949,38.4287 C827.295,39.3239 825.956,40.6094 824.932,42.2852 C823.908,43.9538 823.396,45.9482667 823.396,48.2686 C823.396,50.639 823.908,52.6692667 824.932,54.3594 C825.956,56.0423333 827.341667,57.3242333 829.089,58.2051 Z M853.222,37.6123 L853.222,59 L856.832,59 L856.832,46.4639 C858.120667,44.2295 859.506333,42.6504 860.989,41.7266 C862.471667,40.8027333 864.018667,40.3408 865.63,40.3408 C866.482,40.3408 867.169333,40.4016667 867.692,40.5234 C868.222,40.638 868.856,40.8278 869.594,41.0928 L870.431,37.9668 C869.779667,37.6445333 869.110333,37.4189333 868.423,37.29 C867.735,37.1539333 866.993667,37.0859 866.199,37.0859 C864.237,37.0859 862.432333,37.5872 860.785,38.5898 C859.145,39.5852667 857.77,40.9459667 856.66,42.6719 L856.52,42.6719 L856.22,37.6123 L853.222,37.6123 Z M881.889,58.2051 C883.636333,59.0859667 885.580667,59.5264 887.722,59.5264 C889.448,59.5264 890.991333,59.2793333 892.352,58.7852 C893.72,58.2838667 894.934,57.6823 895.994,56.9805 L894.672,54.5957 C893.705333,55.2115667 892.699333,55.7057 891.654,56.0781 C890.615333,56.4433667 889.451333,56.626 888.162,56.626 C885.928,56.626 884.041,56.0101 882.501,54.7783 C880.961667,53.5465667 880.073667,51.7275667 879.837,49.3213 L896.692,49.3213 C896.749333,49.0277 896.792333,48.6911 896.821,48.3115 C896.856333,47.9247667 896.874,47.5273 896.874,47.1191 C896.874,44.0969667 896.014667,41.6692333 894.296,39.8359 C892.577333,38.0025667 890.178333,37.0859 887.099,37.0859 C885.194333,37.0859 883.411,37.5335 881.749,38.4287 C880.095,39.3239 878.756,40.6094 877.732,42.2852 C876.708,43.9538 876.196,45.9482667 876.196,48.2686 C876.196,50.639 876.708,52.6692667 877.732,54.3594 C878.756,56.0423333 880.141667,57.3242333 881.889,58.2051 Z M930.091,37.6123 L930.091,59 L933.701,59 L933.701,44.0791 C934.961,42.7900333 936.088667,41.8232333 937.084,41.1787 C938.08,40.5341667 939.211667,40.2119 940.479,40.2119 C942.233667,40.2119 943.490667,40.7024667 944.25,41.6836 C945.016,42.6647333 945.399,44.1686333 945.399,46.1953 L945.399,59 L949.008,59 L949.008,45.7119 C949.008,42.8974333 948.406667,40.7561667 947.204,39.2881 C946.000667,37.8199667 944.138667,37.0859 941.618,37.0859 C939.949333,37.0859 938.466667,37.4833667 937.17,38.2783 C935.881333,39.0661 934.682,40.0615333 933.572,41.2646 L933.389,41.2646 L933.078,37.6123 L930.091,37.6123 Z M1013.89,58.2051 C1015.63667,59.0859667 1017.58,59.5264 1019.72,59.5264 C1021.44667,59.5264 1022.99,59.2793333 1024.35,58.7852 C1025.71667,58.2838667 1026.93,57.6823 1027.99,56.9805 L1026.67,54.5957 C1025.70333,55.2115667 1024.69667,55.7057 1023.65,56.0781 C1022.61667,56.4433667 1021.45333,56.626 1020.16,56.626 C1017.92667,56.626 1016.04,56.0101 1014.5,54.7783 C1012.96,53.5465667 1012.07333,51.7275667 1011.84,49.3213 L1028.69,49.3213 C1028.75,49.0277 1028.79333,48.6911 1028.82,48.3115 C1028.85333,47.9247667 1028.87,47.5273 1028.87,47.1191 C1028.87,44.0969667 1028.01333,41.6692333 1026.3,39.8359 C1024.58,38.0025667 1022.18,37.0859 1019.1,37.0859 C1017.19333,37.0859 1015.41,37.5335 1013.75,38.4287 C1012.09667,39.3239 1010.75667,40.6094 1009.73,42.2852 C1008.71,43.9538 1008.2,45.9482667 1008.2,48.2686 C1008.2,50.639 1008.71,52.6692667 1009.73,54.3594 C1010.75667,56.0423333 1012.14333,57.3242333 1013.89,58.2051 Z M1065.98,58.2051 C1067.58667,59.0859667 1069.32667,59.5264 1071.2,59.5264 C1073.07333,59.5264 1074.81,59.0859667 1076.41,58.2051 C1078.01,57.3242333 1079.3,56.0495 1080.28,54.3809 C1081.26667,52.7051 1081.76,50.6963 1081.76,48.3545 C1081.76,45.9482333 1081.26667,43.9108 1080.28,42.2422 C1079.3,40.5664 1078.01,39.2880667 1076.41,38.4072 C1074.81,37.5263333 1073.07333,37.0859 1071.2,37.0859 C1069.32667,37.0859 1067.58667,37.5263333 1065.98,38.4072 C1064.38,39.2880667 1063.09,40.5664 1062.11,42.2422 C1061.13,43.9108 1060.64,45.9482333 1060.64,48.3545 C1060.64,50.6963 1061.13,52.7051 1062.11,54.3809 C1063.09,56.0495 1064.38,57.3242333 1065.98,58.2051 Z M1093.64,58.2051 C1095.4,59.0859667 1097.39333,59.5264 1099.62,59.5264 C1101.2,59.5264 1102.71667,59.2327667 1104.17,58.6455 C1105.63,58.0582333 1106.94667,57.2382333 1108.12,56.1855 L1106.48,53.8545 C1105.6,54.5849667 1104.61,55.2151667 1103.51,55.7451 C1102.41,56.2750333 1101.20333,56.54 1099.89,56.54 C1098.24333,56.54 1096.80333,56.1962667 1095.57,55.5088 C1094.33667,54.8141333 1093.37667,53.8509 1092.69,52.6191 C1092.00333,51.3873667 1091.66,49.9658333 1091.66,48.3545 C1091.66,46.7073667 1092.01,45.2607333 1092.71,44.0146 C1093.41667,42.7685333 1094.39,41.8017667 1095.63,41.1143 C1096.88333,40.4267667 1098.33,40.083 1099.97,40.083 C1101.09,40.083 1102.12667,40.305 1103.08,40.749 C1104.03333,41.1858667 1104.95,41.7838667 1105.83,42.543 L1107.63,40.2119 C1106.75,39.3597 1105.66333,38.6256667 1104.37,38.0098 C1103.07667,37.3938667 1101.57,37.0859 1099.85,37.0859 C1097.70333,37.0859 1095.72333,37.5263333 1093.91,38.4072 C1092.09,39.2880667 1090.63333,40.5664 1089.54,42.2422 C1088.46,43.9108 1087.92,45.9482333 1087.92,48.3545 C1087.92,50.6963 1088.43333,52.7051 1089.46,54.3809 C1090.48,56.0495 1091.87333,57.3242333 1093.64,58.2051 Z M1139.75,37.6123 L1139.75,59 L1143.35,59 L1143.35,43.5098 C1143.88333,42.3997333 1144.42,41.5725667 1144.96,41.0283 C1145.50667,40.4840333 1146.14667,40.2119 1146.88,40.2119 C1147.67333,40.2119 1148.23667,40.527 1148.57,41.1572 C1148.91,41.7874 1149.08,42.7184 1149.08,43.9502 L1149.08,59 L1152.42,59 L1152.42,43.5098 C1153.00667,42.3997333 1153.54,41.5725667 1154.02,41.0283 C1154.50667,40.4840333 1155.12,40.2119 1155.86,40.2119 C1157.38667,40.2119 1158.15,41.458 1158.15,43.9502 L1158.15,59 L1161.75,59 L1161.75,43.6924 C1161.75,41.5511333 1161.33333,39.9147333 1160.5,38.7832 C1159.66,37.6516667 1158.49333,37.0859 1157,37.0859 C1155.76667,37.0859 1154.77333,37.4189333 1154.02,38.085 C1153.27333,38.7438 1152.59333,39.6425333 1151.98,40.7812 C1151.36667,38.3176667 1150.01667,37.0859 1147.93,37.0859 C1146.69667,37.0859 1145.71667,37.3938667 1144.99,38.0098 C1144.25667,38.6256667 1143.61,39.4313333 1143.05,40.4268 L1142.97,40.4268 L1142.66,37.6123 L1139.75,37.6123 Z M1172.29,58.2051 C1174.03667,59.0859667 1175.98,59.5264 1178.12,59.5264 C1179.84667,59.5264 1181.39,59.2793333 1182.75,58.7852 C1184.11667,58.2838667 1185.33,57.6823 1186.39,56.9805 L1185.07,54.5957 C1184.10333,55.2115667 1183.09667,55.7057 1182.05,56.0781 C1181.01667,56.4433667 1179.85333,56.626 1178.56,56.626 C1176.32667,56.626 1174.44,56.0101 1172.9,54.7783 C1171.36,53.5465667 1170.47333,51.7275667 1170.24,49.3213 L1187.09,49.3213 C1187.15,49.0277 1187.19333,48.6911 1187.22,48.3115 C1187.25333,47.9247667 1187.27,47.5273 1187.27,47.1191 C1187.27,44.0969667 1186.41333,41.6692333 1184.7,39.8359 C1182.98,38.0025667 1180.58,37.0859 1177.5,37.0859 C1175.59333,37.0859 1173.81,37.5335 1172.15,38.4287 C1170.49667,39.3239 1169.15667,40.6094 1168.13,42.2852 C1167.10333,43.9538 1166.59,45.9482667 1166.59,48.2686 C1166.59,50.639 1167.10333,52.6692667 1168.13,54.3594 C1169.15667,56.0423333 1170.54333,57.3242333 1172.29,58.2051 Z M1194.09,37.6123 L1194.09,59 L1197.7,59 L1197.7,44.0791 C1198.96,42.7900333 1200.08667,41.8232333 1201.08,41.1787 C1202.08,40.5341667 1203.21333,40.2119 1204.48,40.2119 C1206.23333,40.2119 1207.49,40.7024667 1208.25,41.6836 C1209.01667,42.6647333 1209.4,44.1686333 1209.4,46.1953 L1209.4,59 L1213.01,59 L1213.01,45.7119 C1213.01,42.8974333 1212.40667,40.7561667 1211.2,39.2881 C1210,37.8199667 1208.14,37.0859 1205.62,37.0859 C1203.94667,37.0859 1202.46333,37.4833667 1201.17,38.2783 C1199.88333,39.0661 1198.68333,40.0615333 1197.57,41.2646 L1197.39,41.2646 L1197.08,37.6123 L1194.09,37.6123 Z M767.953,37.6123 L772.615,59 L777.277,59 L779.651,48.7949 C780.002333,47.2981667 780.357,45.1855333 780.715,42.457 L780.887,42.457 C781.237667,45.1855333 781.588667,47.2981667 781.94,48.7949 L784.41,59 L789.072,59 L793.649,37.6123 L790.308,37.6123 L787.751,50.0195 C787.543667,51.0221 787.371667,51.9996333 787.235,52.9521 C787.106333,53.9046333 786.956,54.8929333 786.784,55.917 L786.602,55.917 C786.487333,54.8929333 786.297333,53.9046333 786.032,52.9521 C785.767333,51.9996333 785.520333,51.0221 785.291,50.0195 L782.734,38.9336 L779.125,38.9336 L776.483,50.0195 C776.253667,51.0221 776.028,51.9996333 775.806,52.9521 C775.584,53.9046333 775.401333,54.8929333 775.258,55.917 L775.075,55.917 C774.960333,54.8929333 774.820667,53.9046333 774.656,52.9521 C774.498667,51.9996333 774.316333,51.0221 774.109,50.0195 L771.563,37.6123 L767.953,37.6123 Z M1115.99,57.335 C1117.19,58.7959333 1119.07,59.5264 1121.63,59.5264 C1123.27,59.5264 1124.73333,59.1325 1126.02,58.3447 C1127.30667,57.5497667 1128.49667,56.5221 1129.59,55.2617 L1129.76,55.2617 L1130.07,59 L1133.01,59 L1133.01,37.6123 L1129.41,37.6123 L1129.41,52.4473 C1128.23667,53.8223 1127.14333,54.8249 1126.13,55.4551 C1125.11667,56.0853 1123.99333,56.4004 1122.76,56.4004 C1120.97333,56.4004 1119.70333,55.9098333 1118.95,54.9287 C1118.20333,53.9475667 1117.83,52.4436667 1117.83,50.417 L1117.83,37.6123 L1114.18,37.6123 L1114.18,50.9004 C1114.18,53.722 1114.78333,55.8668667 1115.99,57.335 Z M750.48,41.6406 C751.862,40.5091333 753.434,39.9434 755.196,39.9434 C757.008,39.9434 758.486667,40.4876667 759.632,41.5762 C760.778,42.6647333 761.422667,44.3082667 761.566,46.5068 L747.934,46.5068 C748.256667,44.3942 749.105333,42.7721333 750.48,41.6406 Z M829.68,41.6406 C831.062,40.5091333 832.634,39.9434 834.396,39.9434 C836.208,39.9434 837.686667,40.4876667 838.832,41.5762 C839.978,42.6647333 840.622667,44.3082667 840.766,46.5068 L827.134,46.5068 C827.456,44.3942 828.304667,42.7721333 829.68,41.6406 Z M882.48,41.6406 C883.862,40.5091333 885.434,39.9434 887.196,39.9434 C889.007333,39.9434 890.486,40.4876667 891.632,41.5762 C892.778,42.6647333 893.422667,44.3082667 893.566,46.5068 L879.934,46.5068 C880.256,44.3942 881.104667,42.7721333 882.48,41.6406 Z M1014.48,41.6406 C1015.86,40.5091333 1017.43333,39.9434 1019.2,39.9434 C1021.00667,39.9434 1022.48333,40.4876667 1023.63,41.5762 C1024.77667,42.6647333 1025.42333,44.3082667 1025.57,46.5068 L1011.93,46.5068 C1012.25667,44.3942 1013.10667,42.7721333 1014.48,41.6406 Z M1172.88,41.6406 C1174.26,40.5091333 1175.83,39.9434 1177.59,39.9434 C1179.40333,39.9434 1180.88333,40.4876667 1182.03,41.5762 C1183.17667,42.6647333 1183.82333,44.3082667 1183.97,46.5068 L1170.33,46.5068 C1170.65667,44.3942 1171.50667,42.7721333 1172.88,41.6406 Z M706.553,54.2734 C705.307,55.7844667 703.656333,56.54 701.601,56.54 C699.545667,56.54 697.895,55.7844667 696.649,54.2734 C695.403,52.7623333 694.78,50.7893667 694.78,48.3545 C694.78,45.8909667 695.403,43.8965 696.649,42.3711 C697.895,40.8457 699.545667,40.083 701.601,40.083 C703.656333,40.083 705.307,40.8457 706.553,42.3711 C707.799,43.8965 708.422,45.8909667 708.422,48.3545 C708.422,50.7893667 707.799,52.7623333 706.553,54.2734 Z M1076.15,54.2734 C1074.90333,55.7844667 1073.25333,56.54 1071.2,56.54 C1069.14667,56.54 1067.49667,55.7844667 1066.25,54.2734 C1065.00333,52.7623333 1064.38,50.7893667 1064.38,48.3545 C1064.38,45.8909667 1065.00333,43.8965 1066.25,42.3711 C1067.49667,40.8457 1069.14667,40.083 1071.2,40.083 C1073.25333,40.083 1074.90333,40.8457 1076.15,42.3711 C1077.39667,43.8965 1078.02,45.8909667 1078.02,48.3545 C1078.02,50.7893667 1077.39667,52.7623333 1076.15,54.2734 Z M651.444,47.5166 L645.632,47.5166 L646.427,41.0068 L652.228,41.0068 L651.444,47.5166 Z"/><rect width="100" height="200" x="690" fill="url(#a)" fill-rule="nonzero"/></g></g></svg>