<svg xmlns="http://www.w3.org/2000/svg" xmlns:xlink="http://www.w3.org/1999/xlink" width="800" height="200" viewBox="0 0 800 200"><defs><linearGradient id="c" x1="100%" x2="0%" y1="50%" y2="50%"><stop offset="0%" stop-color="#FFF"/><stop offset="100%" stop-color="#FFF" stop-opacity="0"/></linearGradient><rect id="a" width="800" height="200" x="0" y="0"/></defs><g fill="none" fill-rule="evenodd"><rect width="800" height="200" fill="#FFF"/><g transform="translate(10 10)"><path fill="#2C2C2E" fill-rule="nonzero" d="M1.14 4.68 1.14 6.27 9.63 6.27C9.6 7.29 9.54 8.85 9.45 10.98 9.27 13.86 8.7 16.47 7.68 18.81 6.57 21.15 4.41 23.67 1.23 26.37L2.43 27.51C5.01 25.38 7.08 23.07 8.58 20.55 9.66 18.48 10.38 16.2 10.74 13.71L21.78 13.71C21.78 17.88 21.69 20.67 21.51 22.11 21.15 24.45 20.1 25.68 18.36 25.77 17.34 25.77 16.08 25.71 14.58 25.65L15.06 27.15C16.41 27.21 17.58 27.24 18.54 27.24 20.91 27.15 22.35 25.77 22.86 23.07 23.19 21.33 23.37 17.7 23.43 12.15L10.92 12.15C10.92 12.03 10.95 11.94 10.95 11.85 11.1 9.36 11.19 7.5 11.25 6.27L27.18 6.27 27.18 4.68 15.9 4.68C15.18 2.88 14.37 1.32 13.5.03L11.94.6C12.84 1.86 13.62 3.24 14.25 4.68L1.14 4.68ZM42.03 4.83C41.37 5.73 40.71 6.66 40.02 7.62L32.16 7.62 32.16 8.97 38.97 8.97C38.25 9.87 37.47 10.77 36.69 11.67 38.88 12.09 41.07 12.57 43.26 13.14 40.5 14.19 36.72 14.73 31.95 14.73L32.85 16.05C38.01 15.99 42.18 15.21 45.36 13.68 48.42 14.49 51.51 15.45 54.57 16.56L55.5 15.3C52.59 14.31 49.77 13.47 47.01 12.75 48.36 11.82 49.62 10.56 50.79 8.97L55.92 8.97 55.92 7.62 41.82 7.62C42.36 6.93 42.93 6.15 43.53 5.31L42.03 4.83ZM45.12 12.27C43.08 11.73 41.07 11.31 39.09 10.95 39.6 10.38 40.17 9.72 40.77 8.97L49.05 8.97C48.06 10.23 46.74 11.31 45.12 12.27ZM55.95 2.64 45.03 2.64C44.64 1.65 44.25.78 43.83 0L42.12.3C42.6.99 43.02 1.77 43.44 2.64L32.07 2.64 32.07 6.63 33.6 6.63 33.6 4.02 54.42 4.02 54.42 6.63 55.95 6.63 55.95 2.64ZM31.23 18.12 31.23 19.56 41.67 19.56C39.87 21.66 36.3 23.55 30.96 25.2L31.83 26.64C37.44 24.66 41.22 22.32 43.14 19.56L43.26 19.56 43.26 27.45 44.88 27.45 44.88 19.56 44.97 19.56C47.16 22.41 51 24.69 56.46 26.43L57.15 25.02C52.23 23.7 48.69 21.87 46.47 19.56L56.82 19.56 56.82 18.12 44.88 18.12 44.88 15.63 43.26 15.63 43.26 18.12 31.23 18.12ZM8.19 38.7C6.03 38.7 4.23 39.15 2.85 40.08 1.29 41.07.54 42.48.54 44.34.54 46.08 1.35 47.43 3 48.36 3.72 48.78 5.37 49.35 7.92 50.07 10.35 50.73 11.91 51.3 12.63 51.72 14.07 52.53 14.82 53.67 14.82 55.14 14.82 56.4 14.22 57.42 13.08 58.17 11.91 58.89 10.38 59.28 8.49 59.28 6.51 59.28 4.98 58.83 3.9 57.96 2.7 56.97 2.01 55.47 1.8 53.46L0 53.46C.18 56.04 1.08 57.99 2.7 59.28 4.11 60.39 6.06 60.96 8.52 60.96 10.95 60.96 12.9 60.45 14.37 59.43 15.9 58.35 16.68 56.88 16.68 55.05 16.68 53.1 15.78 51.6 14.01 50.55 13.05 49.95 11.22 49.29 8.49 48.51 6.39 47.91 5.01 47.43 4.38 47.13 3.03 46.41 2.37 45.48 2.37 44.28 2.37 42.93 2.91 41.91 4.05 41.25 5.04 40.65 6.39 40.35 8.13 40.35 9.99 40.35 11.43 40.77 12.45 41.64 13.47 42.51 14.1 43.77 14.34 45.45L16.17 45.45C15.99 43.23 15.18 41.55 13.77 40.41 12.39 39.27 10.53 38.7 8.19 38.7ZM26.1 44.61C23.85 44.61 22.08 45.42 20.79 47.07 19.56 48.6 18.96 50.55 18.96 52.89 18.96 55.26 19.53 57.18 20.73 58.62 21.99 60.18 23.79 60.96 26.07 60.96 27.93 60.96 29.46 60.45 30.6 59.46 31.77 58.44 32.52 56.94 32.82 54.99L31.05 54.99C30.6 57.93 28.95 59.4 26.07 59.4 24.36 59.4 23.04 58.8 22.14 57.63 21.24 56.46 20.79 54.87 20.79 52.89 20.79 50.88 21.24 49.26 22.2 48.06 23.16 46.8 24.48 46.17 26.1 46.17 27.45 46.17 28.56 46.5 29.4 47.16 30.24 47.82 30.75 48.78 30.96 50.1L32.76 50.1C32.52 48.24 31.8 46.86 30.63 45.96 29.46 45.06 27.96 44.61 26.1 44.61ZM35.7 38.7 35.7 60.54 37.53 60.54 37.53 51.57C37.53 50.04 37.95 48.75 38.85 47.73 39.75 46.68 40.83 46.17 42.12 46.17 43.5 46.17 44.55 46.56 45.33 47.37 46.08 48.21 46.47 49.38 46.47 50.88L46.47 60.54 48.27 60.54 48.27 50.64C48.27 48.72 47.76 47.22 46.77 46.17 45.78 45.12 44.4 44.61 42.63 44.61 41.55 44.61 40.56 44.88 39.69 45.42 38.79 45.99 38.07 46.8 37.53 47.85L37.53 38.7 35.7 38.7ZM58.32 44.61C56.13 44.61 54.39 45.42 53.07 47.04 51.78 48.6 51.15 50.49 51.15 52.77 51.15 55.23 51.81 57.24 53.16 58.74 54.45 60.21 56.19 60.96 58.38 60.96 60.36 60.96 61.95 60.39 63.21 59.25 64.23 58.29 64.92 57.06 65.28 55.56L63.45 55.56C63.06 56.76 62.52 57.66 61.8 58.29 60.93 59.01 59.79 59.4 58.38 59.4 56.76 59.4 55.5 58.86 54.54 57.78 53.61 56.7 53.1 55.2 53.01 53.31L65.61 53.31C65.52 50.64 64.92 48.57 63.84 47.1 62.61 45.42 60.78 44.61 58.32 44.61ZM58.35 46.17C61.62 46.17 63.42 48.06 63.72 51.84L53.04 51.84C53.19 50.16 53.73 48.81 54.66 47.76 55.59 46.68 56.82 46.17 58.35 46.17ZM74.79 44.61C72.9 44.61 71.4 45.51 70.29 47.37L70.29 45.03 68.49 45.03 68.49 60.54 70.29 60.54 70.29 51C70.29 49.65 70.68 48.51 71.49 47.58 72.27 46.62 73.23 46.17 74.4 46.17 76.98 46.17 78.27 47.64 78.27 50.64L78.27 60.54 80.1 60.54 80.1 50.67C80.1 49.35 80.46 48.3 81.24 47.46 81.99 46.59 82.92 46.17 84.06 46.17 85.44 46.17 86.49 46.56 87.15 47.34 87.75 48.06 88.05 49.17 88.05 50.64L88.05 60.54 89.85 60.54 89.85 50.4C89.85 48.57 89.37 47.16 88.44 46.14 87.48 45.12 86.16 44.61 84.54 44.61 83.46 44.61 82.5 44.88 81.72 45.42 80.88 45.96 80.19 46.74 79.65 47.79 78.87 45.66 77.25 44.61 74.79 44.61ZM99.9 44.61C97.71 44.61 95.97 45.42 94.65 47.04 93.36 48.6 92.73 50.49 92.73 52.77 92.73 55.23 93.39 57.24 94.74 58.74 96.03 60.21 97.77 60.96 99.96 60.96 101.94 60.96 103.53 60.39 104.79 59.25 105.81 58.29 106.5 57.06 106.86 55.56L105.03 55.56C104.64 56.76 104.1 57.66 103.38 58.29 102.51 59.01 101.37 59.4 99.96 59.4 98.34 59.4 97.08 58.86 96.12 57.78 95.19 56.7 94.68 55.2 94.59 53.31L107.19 53.31C107.1 50.64 106.5 48.57 105.42 47.1 104.19 45.42 102.36 44.61 99.9 44.61ZM99.93 46.17C103.2 46.17 105 48.06 105.3 51.84L94.62 51.84C94.77 50.16 95.31 48.81 96.24 47.76 97.17 46.68 98.4 46.17 99.93 46.17Z" transform="translate(60.99 106.46)"/><path fill="#34C759" d="M7.6916556,74 C5.01709938,74 4.04724067,73.7215232 3.06946289,73.1986019 C2.09168511,72.6756806 1.32431939,71.9083149 0.801398111,70.9305371 C0.278476833,69.9527593 1.2037061e-16,68.9829006 -2.07168062e-16,66.3083444 L2.07168062e-16,7.6916556 C-1.2037061e-16,5.01709938 0.278476833,4.04724067 0.801398111,3.06946289 C1.32431939,2.09168511 2.09168511,1.32431939 3.06946289,0.801398111 C4.04724067,0.278476833 5.01709938,1.80555915e-16 7.6916556,-3.10752092e-16 L103.308344,3.10752092e-16 C105.982901,-1.80555915e-16 106.952759,0.278476833 107.930537,0.801398111 C108.908315,1.32431939 109.675681,2.09168511 110.198602,3.06946289 C110.721523,4.04724067 111,5.01709938 111,7.6916556 L111,66.3083444 C111,68.9829006 110.721523,69.9527593 110.198602,70.9305371 C109.675681,71.9083149 108.908315,72.6756806 107.930537,73.1986019 C106.952759,73.7215232 105.982901,74 103.308344,74 L16,74 L16,116 L31.999,116 L32,104 L56,119 L32,134 L31.999,122 L10,122 L10,74 L7.6916556,74 Z" opacity=".5"/></g><mask id="b" fill="#fff"><use xlink:href="#a"/></mask><g fill-rule="nonzero" mask="url(#b)"><g transform="translate(15.924 26.019)"><path fill="#2C2C2E" d="M0 32.980957 3.54858398 32.980957 3.54858398 19.6633301C3.54858398 15.8016357 6.07434082 13.1923828 9.81079102 13.1923828 13.359375 13.1923828 15.0292969 15.133667 15.0292969 19.2041016L15.0292969 32.980957 18.5778809 32.980957 18.5778809 18.3065186C18.5778809 12.9001465 15.9060059 9.93603516 10.9797363 9.93603516 7.51464844 9.93603516 4.90539551 11.5224609 3.71557617 14.3404541L3.42333984 14.3404541 3.42333984 1.44030762 0 1.44030762 0 32.980957ZM31.8537598 4.25830078 31.8537598 10.3952637 25.821167 10.3952637 25.821167 13.4219971 31.8537598 13.4219971 31.8537598 26.2386475C31.8537598 30.9561768 34.4630127 33.0853271 40.078125 33.0853271 41.1635742 33.0853271 43.9189453 32.980957 44.4825439 32.8765869L44.4825439 29.8707275C43.8771973 29.9333496 41.6019287 29.9959717 40.3286133 29.9959717 37.1348877 29.9959717 35.4023438 28.6600342 35.4023438 26.1968994L35.4023438 13.4219971 44.545166 13.4219971 44.545166 10.3952637 35.3605957 10.3952637 35.3605957 4.25830078 31.8537598 4.25830078ZM58.2802734 4.25830078 58.2802734 10.3952637 52.2476807 10.3952637 52.2476807 13.4219971 58.2802734 13.4219971 58.2802734 26.2386475C58.2802734 30.9561768 60.8895264 33.0853271 66.5046387 33.0853271 67.5900879 33.0853271 70.345459 32.980957 70.9090576 32.8765869L70.9090576 29.8707275C70.3037109 29.9333496 68.0284424 29.9959717 66.755127 29.9959717 63.5614014 29.9959717 61.8288574 28.6600342 61.8288574 26.1968994L61.8288574 13.4219971 70.9716797 13.4219971 70.9716797 10.3952637 61.7871094 10.3952637 61.7871094 4.25830078 58.2802734 4.25830078ZM89.987915 9.95690918C86.7524414 9.95690918 84.3936768 11.2928467 83.2038574 13.7977295L82.828125 13.7977295 82.828125 10.3326416 79.3212891 10.3326416 79.3212891 40.6208496 82.9324951 40.6208496 82.9324951 29.4741211 83.3291016 29.4741211C84.3101807 31.9581299 86.7106934 33.3566895 89.987915 33.3566895 95.2272949 33.3566895 98.6506348 29.5784912 98.6506348 23.7755127L98.6506348 19.55896C98.6506348 13.7351074 95.2272949 9.95690918 89.987915 9.95690918ZM88.9650879 13.2132568C92.7015381 13.2132568 95.0811768 15.8851318 95.0811768 20.0599365L95.0811768 23.3162842C95.0811768 27.4910889 92.7015381 30.1838379 88.9650879 30.1838379 85.2286377 30.1838379 82.848999 27.5119629 82.848999 23.3162842L82.848999 20.0599365C82.848999 15.8851318 85.2286377 13.2132568 88.9650879 13.2132568Z"/><path fill="#C7C7CC" d="M114.994995,17.0749512 C117.061523,17.0749512 118.773193,15.3215332 118.773193,13.2132568 C118.773193,11.1049805 117.061523,9.3515625 114.994995,9.3515625 C112.928467,9.3515625 111.216797,11.1049805 111.216797,13.2132568 C111.216797,15.3215332 112.928467,17.0749512 114.994995,17.0749512 Z M114.994995,33.1062012 C117.061523,33.1062012 118.773193,31.3736572 118.773193,29.2445068 C118.773193,27.1362305 117.061523,25.4036865 114.994995,25.4036865 C112.928467,25.4036865 111.216797,27.1362305 111.216797,29.2445068 C111.216797,31.3736572 112.928467,33.1062012 114.994995,33.1062012 Z"/><polygon fill="#C7C7CC" points="135.806 35.841 150.502 0 147.016 0 132.341 35.841"/><polygon fill="#C7C7CC" points="162.233 35.841 176.928 0 173.442 0 158.768 35.841"/><polygon fill="#C7C7CC" points="206.507 10.333 203.042 10.333 199.973 28.493 199.597 28.493 195.944 10.354 192.605 10.354 188.952 28.493 188.576 28.493 185.507 10.333 182.042 10.333 186.906 32.981 190.308 32.981 194.149 15.322 194.4 15.322 198.241 32.981 201.643 32.981"/><polygon fill="#C7C7CC" points="232.933 10.333 229.468 10.333 226.4 28.493 226.024 28.493 222.371 10.354 219.031 10.354 215.378 28.493 215.002 28.493 211.934 10.333 208.469 10.333 213.333 32.981 216.735 32.981 220.576 15.322 220.826 15.322 224.667 32.981 228.07 32.981"/><polygon fill="#C7C7CC" points="259.36 10.333 255.895 10.333 252.826 28.493 252.45 28.493 248.797 10.354 245.458 10.354 241.805 28.493 241.429 28.493 238.36 10.333 234.895 10.333 239.759 32.981 243.161 32.981 247.002 15.322 247.253 15.322 251.094 32.981 254.496 32.981"/><path fill="#C7C7CC" d="M273.554077 33.1062012C275.620605 33.1062012 277.332275 31.3736572 277.332275 29.2445068 277.332275 27.1362305 275.620605 25.4036865 273.554077 25.4036865 271.487549 25.4036865 269.775879 27.1362305 269.775879 29.2445068 269.775879 31.3736572 271.487549 33.1062012 273.554077 33.1062012ZM306.09668 27.1362305C305.470459 29.1192627 303.362183 30.3299561 300.502441 30.3299561 296.640747 30.3299561 294.177612 27.6580811 294.177612 23.5041504L294.177612 22.5856934 309.603516 22.5856934 309.603516 20.3730469C309.603516 13.8186035 306.138428 9.91516113 300.251953 9.91516113 294.490723 9.91516113 290.670776 13.8394775 290.670776 19.8094482L290.670776 23.2119141C290.670776 29.6619873 294.281982 33.3984375 300.502441 33.3984375 305.261719 33.3984375 308.852051 30.8726807 309.540894 27.1362305L306.09668 27.1362305ZM300.231079 12.9627686C303.884033 12.9627686 306.09668 15.5720215 306.09668 19.8929443L294.177612 19.8929443C294.177612 15.5511475 296.452881 12.9627686 300.231079 12.9627686Z"/><polygon fill="#C7C7CC" points="326.491 24.256 332.189 32.981 336.301 32.981 328.495 21.5 336.239 10.333 332.252 10.333 326.637 18.912 326.344 18.912 320.708 10.333 316.513 10.333 324.341 21.646 316.575 32.981 320.5 32.981 326.219 24.256"/><path fill="#C7C7CC" d="M350.537476 33.3775635C353.835571 33.3775635 356.298706 32.020752 357.384155 29.5993652L357.739014 29.5993652 357.739014 33.0018311 361.120605 33.0018311 361.120605 17.4924316C361.120605 12.7749023 358.072998 10.0612793 352.750122 10.0612793 348.116089 10.0612793 344.609253 12.5452881 344.191772 16.1773682L347.677734 16.1773682C348.262207 14.236084 350.099121 13.1297607 352.708374 13.1297607 355.860352 13.1297607 357.592896 14.6953125 357.592896 17.5341797L357.592896 19.579834 351.372437 19.8929443C346.216553 20.1643066 343.335938 22.5439453 343.335938 26.5517578 343.335938 30.6639404 346.216553 33.3775635 350.537476 33.3775635ZM351.560303 30.267334C348.700562 30.267334 346.92627 28.8061523 346.92627 26.4265137 346.92627 24.067749 348.596191 22.7109375 351.769043 22.5648193L357.592896 22.293457 357.592896 24.965332C357.592896 27.9920654 354.983643 30.267334 351.560303 30.267334ZM390.177246 16.3026123C390.177246 12.1069336 388.528198 9.91516113 385.376221 9.91516113 383.100952 9.91516113 381.284912 11.2928467 380.700439 13.4637451L380.324707 13.4637451C379.844604 11.2302246 378.341675 9.91516113 376.212524 9.91516113 374.083374 9.91516113 372.4552 11.2510986 371.891602 13.5263672L371.515869 13.5263672 371.515869 10.3326416 368.343018 10.3326416 368.343018 32.980957 371.536743 32.980957 371.536743 17.7011719C371.536743 14.8831787 372.789185 13.1506348 374.793091 13.1506348 376.713501 13.1506348 377.715454 14.5909424 377.715454 17.3254395L377.715454 32.980957 380.888306 32.980957 380.888306 17.7011719C380.888306 14.8831787 382.098999 13.1506348 384.082031 13.1506348 385.981567 13.1506348 386.983521 14.5909424 386.983521 17.3463135L386.983521 32.980957 390.177246 32.980957 390.177246 16.3026123ZM407.106079 9.95690918C403.870605 9.95690918 401.511841 11.2928467 400.322021 13.7977295L399.946289 13.7977295 399.946289 10.3326416 396.439453 10.3326416 396.439453 40.6208496 400.050659 40.6208496 400.050659 29.4741211 400.447266 29.4741211C401.428345 31.9581299 403.828857 33.3566895 407.106079 33.3566895 412.345459 33.3566895 415.768799 29.5784912 415.768799 23.7755127L415.768799 19.55896C415.768799 13.7351074 412.345459 9.95690918 407.106079 9.95690918ZM406.083252 13.2132568C409.819702 13.2132568 412.199341 15.8851318 412.199341 20.0599365L412.199341 23.3162842C412.199341 27.4910889 409.819702 30.1838379 406.083252 30.1838379 402.346802 30.1838379 399.967163 27.5119629 399.967163 23.3162842L399.967163 20.0599365C399.967163 15.8851318 402.346802 13.2132568 406.083252 13.2132568Z"/><polygon fill="#C7C7CC" points="442.007 32.981 442.007 30.038 434.535 30.038 434.535 1.44 423.304 1.44 423.304 4.384 430.986 4.384 430.986 30.038 423.242 30.038 423.242 32.981"/><path fill="#C7C7CC" d="M464.655762 27.1362305C464.029541 29.1192627 461.921265 30.3299561 459.061523 30.3299561 455.199829 30.3299561 452.736694 27.6580811 452.736694 23.5041504L452.736694 22.5856934 468.162598 22.5856934 468.162598 20.3730469C468.162598 13.8186035 464.69751 9.91516113 458.811035 9.91516113 453.049805 9.91516113 449.229858 13.8394775 449.229858 19.8094482L449.229858 23.2119141C449.229858 29.6619873 452.841064 33.3984375 459.061523 33.3984375 463.820801 33.3984375 467.411133 30.8726807 468.099976 27.1362305L464.655762 27.1362305ZM458.790161 12.9627686C462.443115 12.9627686 464.655762 15.5720215 464.655762 19.8929443L452.736694 19.8929443C452.736694 15.5511475 455.011963 12.9627686 458.790161 12.9627686ZM484.966187 33.1062012C487.032715 33.1062012 488.744385 31.3736572 488.744385 29.2445068 488.744385 27.1362305 487.032715 25.4036865 484.966187 25.4036865 482.899658 25.4036865 481.187988 27.1362305 481.187988 29.2445068 481.187988 31.3736572 482.899658 33.1062012 484.966187 33.1062012ZM520.827759 17.3880615C520.243286 12.7331543 516.819946 9.89428711 511.810181 9.89428711 505.652344 9.89428711 502.062012 13.6724854 502.062012 20.1643066L502.062012 23.128418C502.062012 29.6202393 505.652344 33.3984375 511.810181 33.3984375 516.819946 33.3984375 520.26416 30.5804443 520.827759 25.9672852L517.320923 25.9672852C516.882568 28.5556641 514.669922 30.2047119 511.747559 30.2047119 507.802368 30.2047119 505.610596 27.5328369 505.610596 22.6691895L505.610596 20.6235352C505.610596 15.7598877 507.802368 13.0671387 511.747559 13.0671387 514.669922 13.0671387 516.882568 14.7370605 517.320923 17.3880615L520.827759 17.3880615ZM537.819214 33.3984375C543.810059 33.3984375 547.630005 29.4949951 547.630005 23.3789062L547.630005 19.9555664C547.630005 13.8394775 543.810059 9.93603516 537.819214 9.93603516 531.828369 9.93603516 528.008423 13.8394775 528.008423 19.9555664L528.008423 23.3789062C528.008423 29.4949951 531.828369 33.3984375 537.819214 33.3984375ZM537.819214 13.0671387C541.701782 13.0671387 544.123169 15.8225098 544.123169 20.2686768L544.123169 23.0449219C544.123169 27.5119629 541.701782 30.24646 537.819214 30.24646 533.936646 30.24646 531.515259 27.5119629 531.515259 23.0449219L531.515259 20.2686768C531.515259 15.8225098 533.936646 13.0671387 537.819214 13.0671387ZM575.162842 16.3026123C575.162842 12.1069336 573.513794 9.91516113 570.361816 9.91516113 568.086548 9.91516113 566.270508 11.2928467 565.686035 13.4637451L565.310303 13.4637451C564.8302 11.2302246 563.327271 9.91516113 561.19812 9.91516113 559.06897 9.91516113 557.440796 11.2510986 556.877197 13.5263672L556.501465 13.5263672 556.501465 10.3326416 553.328613 10.3326416 553.328613 32.980957 556.522339 32.980957 556.522339 17.7011719C556.522339 14.8831787 557.77478 13.1506348 559.778687 13.1506348 561.699097 13.1506348 562.70105 14.5909424 562.70105 17.3254395L562.70105 32.980957 565.873901 32.980957 565.873901 17.7011719C565.873901 14.8831787 567.084595 13.1506348 569.067627 13.1506348 570.967163 13.1506348 571.969116 14.5909424 571.969116 17.3463135L571.969116 32.980957 575.162842 32.980957 575.162842 16.3026123ZM590.672241 17.0749512C592.73877 17.0749512 594.450439 15.3215332 594.450439 13.2132568 594.450439 11.1049805 592.73877 9.3515625 590.672241 9.3515625 588.605713 9.3515625 586.894043 11.1049805 586.894043 13.2132568 586.894043 15.3215332 588.605713 17.0749512 590.672241 17.0749512ZM590.672241 33.1062012C592.73877 33.1062012 594.450439 31.3736572 594.450439 29.2445068 594.450439 27.1362305 592.73877 25.4036865 590.672241 25.4036865 588.605713 25.4036865 586.894043 27.1362305 586.894043 29.2445068 586.894043 31.3736572 588.605713 33.1062012 590.672241 33.1062012ZM617.203125 33.6489258C623.465332 33.6489258 627.807129 30.0585938 627.807129 24.923584 627.807129 21.1245117 625.32312 18.0142822 621.670166 17.2419434L621.670166 16.907959C624.738647 16.052124 626.596436 13.4846191 626.596436 10.2073975 626.596436 5.51074219 622.692993 2.19177246 617.203125 2.19177246 611.713257 2.19177246 607.78894 5.51074219 607.78894 10.2073975 607.78894 13.4846191 609.688477 16.072998 612.71521 16.907959L612.71521 17.2419434C608.999634 18.1395264 606.578247 21.1871338 606.578247 24.923584 606.578247 30.0585938 610.940918 33.6489258 617.203125 33.6489258ZM617.203125 15.6555176C613.717163 15.6555176 611.400146 13.6098633 611.400146 10.5205078 611.400146 7.45202637 613.717163 5.40637207 617.203125 5.40637207 620.689087 5.40637207 622.985229 7.45202637 622.985229 10.5205078 622.985229 13.6098633 620.689087 15.6555176 617.203125 15.6555176ZM617.203125 30.4552002C613.111816 30.4552002 610.293823 28.0755615 610.293823 24.6313477 610.293823 21.1871338 613.111816 18.8074951 617.203125 18.8074951 621.294434 18.8074951 624.112427 21.1871338 624.112427 24.6313477 624.112427 28.0755615 621.294434 30.4552002 617.203125 30.4552002ZM643.546143 33.6697998C650.079712 33.6697998 653.711792 28.0755615 653.711792 17.9307861 653.711792 7.78601074 650.079712 2.19177246 643.546143 2.19177246 636.991699 2.19177246 633.380493 7.78601074 633.380493 17.9307861 633.380493 28.0755615 636.991699 33.6697998 643.546143 33.6697998ZM637.033447 17.9307861C637.033447 9.74816895 639.287842 5.44812012 643.546143 5.44812012 646.38501 5.44812012 648.347168 7.36853027 649.328247 11.1049805L637.179565 21.2497559C637.096069 20.2269287 637.033447 19.1206055 637.033447 17.9307861ZM643.546143 30.4134521C640.707275 30.4134521 638.765991 28.493042 637.784912 24.7983398L649.891846 14.5700684C649.996216 15.6137695 650.037964 16.7200928 650.037964 17.9307861 650.037964 26.0925293 647.804443 30.4134521 643.546143 30.4134521Z"/><polygon fill="#C7C7CC" points="664.337 35.841 679.032 0 675.546 0 660.872 35.841"/><path fill="#C7C7CC" d="M697.797729 9.95690918C694.562256 9.95690918 692.203491 11.2928467 691.013672 13.7977295L690.637939 13.7977295 690.637939 10.3326416 687.131104 10.3326416 687.131104 40.6208496 690.74231 40.6208496 690.74231 29.4741211 691.138916 29.4741211C692.119995 31.9581299 694.520508 33.3566895 697.797729 33.3566895 703.037109 33.3566895 706.460449 29.5784912 706.460449 23.7755127L706.460449 19.55896C706.460449 13.7351074 703.037109 9.95690918 697.797729 9.95690918ZM696.774902 13.2132568C700.511353 13.2132568 702.890991 15.8851318 702.890991 20.0599365L702.890991 23.3162842C702.890991 27.4910889 700.511353 30.1838379 696.774902 30.1838379 693.038452 30.1838379 690.658813 27.5119629 690.658813 23.3162842L690.658813 20.0599365C690.658813 15.8851318 693.038452 13.2132568 696.774902 13.2132568ZM720.508667 33.3775635C723.806763 33.3775635 726.269897 32.020752 727.355347 29.5993652L727.710205 29.5993652 727.710205 33.0018311 731.091797 33.0018311 731.091797 17.4924316C731.091797 12.7749023 728.044189 10.0612793 722.721313 10.0612793 718.08728 10.0612793 714.580444 12.5452881 714.162964 16.1773682L717.648926 16.1773682C718.233398 14.236084 720.070312 13.1297607 722.679565 13.1297607 725.831543 13.1297607 727.564087 14.6953125 727.564087 17.5341797L727.564087 19.579834 721.343628 19.8929443C716.187744 20.1643066 713.307129 22.5439453 713.307129 26.5517578 713.307129 30.6639404 716.187744 33.3775635 720.508667 33.3775635ZM721.531494 30.267334C718.671753 30.267334 716.897461 28.8061523 716.897461 26.4265137 716.897461 24.067749 718.567383 22.7109375 721.740234 22.5648193L727.564087 22.293457 727.564087 24.965332C727.564087 27.9920654 724.954834 30.267334 721.531494 30.267334ZM745.369629 4.25830078 745.369629 10.3952637 739.337036 10.3952637 739.337036 13.4219971 745.369629 13.4219971 745.369629 26.2386475C745.369629 30.9561768 747.978882 33.0853271 753.593994 33.0853271 754.679443 33.0853271 757.434814 32.980957 757.998413 32.8765869L757.998413 29.8707275C757.393066 29.9333496 755.117798 29.9959717 753.844482 29.9959717 750.650757 29.9959717 748.918213 28.6600342 748.918213 26.1968994L748.918213 13.4219971 758.061035 13.4219971 758.061035 10.3952637 748.876465 10.3952637 748.876465 4.25830078 745.369629 4.25830078Z"/></g></g><rect width="100" height="200" x="700" fill="url(#c)"/></g></svg>