<svg xmlns="http://www.w3.org/2000/svg" xmlns:xlink="http://www.w3.org/1999/xlink" width="800" height="200" viewBox="0 0 800 200"><defs><linearGradient id="c" x1="100%" x2="0%" y1="50%" y2="50%"><stop offset="0%" stop-color="#FFF"/><stop offset="100%" stop-color="#FFF" stop-opacity="0"/></linearGradient><rect id="a" width="800" height="200" x="0" y="0"/></defs><g fill="none" fill-rule="evenodd"><rect width="800" height="200" fill="#FFF"/><g transform="translate(10 10)"><path fill="#2C2C2E" fill-rule="nonzero" d="M12.12.63C12.9 2.1 13.83 4.02 14.19 5.25L15.66 4.62C15.21 3.39 14.31 1.5 13.47.06L12.12.63ZM.78 5.55.78 6.96 9.33 6.96C8.94 14.13 8.07 22.5.06 26.34.42 26.61.9 27.09 1.14 27.45 6.96 24.54 9.18 19.38 10.17 13.89L21.63 13.89C21.09 21.54 20.46 24.57 19.56 25.41 19.2 25.68 18.84 25.74 18.15 25.74 17.4 25.74 15.3 25.71 13.08 25.53 13.38 25.92 13.56 26.52 13.59 26.94 15.63 27.09 17.58 27.15 18.57 27.09 19.62 27.06 20.22 26.88 20.76 26.28 21.9 25.17 22.53 21.93 23.16 13.26 23.19 13.02 23.22 12.45 23.22 12.45L10.38 12.45C10.65 10.62 10.77 8.76 10.89 6.96L26.31 6.96 26.31 5.55.78 5.55ZM30.15 18.33 30.15 19.65 41.25 19.65C38.55 22.32 33.9 24.72 29.7 25.74 30.03 26.01 30.45 26.55 30.66 26.91 35.04 25.71 39.96 22.92 42.69 19.8L42.69 27.39 44.13 27.39 44.13 19.65C46.89 22.89 51.99 25.74 56.46 27 56.7 26.64 57.12 26.1 57.45 25.8 53.22 24.75 48.48 22.41 45.75 19.65L56.82 19.65 56.82 18.33 44.13 18.33 44.13 15.6 42.69 15.6 42.69 18.33 30.15 18.33ZM41.85.48C42.3 1.08 42.84 1.86 43.23 2.52L31.02 2.52 31.02 6.69 32.43 6.69 32.43 3.81 54.69 3.81 54.69 6.69 56.1 6.69 56.1 2.52 44.73 2.52C44.34 1.8 43.65.75 43.02 1.13686838e-13L41.85.48ZM49.11 8.79C47.97 10.44 46.32 11.73 44.1 12.69 41.76 12.24 39.33 11.82 36.87 11.43 37.68 10.68 38.61 9.75 39.51 8.79L49.11 8.79ZM34.5 12.21C37.08 12.6 39.57 13.05 41.94 13.5 38.88 14.46 35.01 15 30.33 15.24 30.6 15.57 30.81 16.11 30.93 16.53 36.42 16.14 40.89 15.39 44.34 13.98 48.39 14.85 51.9 15.75 54.45 16.65L55.74 15.6C53.22 14.76 49.89 13.92 46.14 13.11 48.21 12 49.74 10.59 50.76 8.79L56.55 8.79 56.55 7.53 40.65 7.53C41.37 6.69 42.03 5.85 42.6 5.04L41.31 4.62C40.71 5.52 39.93 6.54 39.09 7.53L30.54 7.53 30.54 8.79 37.95 8.79C36.81 10.05 35.58 11.28 34.5 12.21ZM7.44 61.56C11.73 61.56 14.52 59.01 14.52 55.62 14.52 52.29 12.42 50.91 9.93 49.8L6.69 48.36C5.07 47.64 2.94 46.74 2.94 44.25 2.94 42 4.8 40.53 7.59 40.53 9.75 40.53 11.46 41.4 12.75 42.72L13.74 41.55C12.39 40.08 10.23 38.91 7.59 38.91 3.87 38.91 1.11 41.16 1.11 44.4 1.11 47.61 3.6 49.02 5.55 49.86L8.82 51.33C10.95 52.29 12.69 53.1 12.69 55.74 12.69 58.23 10.68 59.94 7.44 59.94 4.98 59.94 2.7 58.8 1.11 57.03L0 58.29C1.74 60.24 4.26 61.56 7.44 61.56ZM24.84 61.56C26.85 61.56 28.62 60.69 30 59.49L29.13 58.26C28.05 59.25 26.61 60.03 24.99 60.03 21.63 60.03 19.38 57.27 19.38 53.19 19.38 49.08 21.81 46.29 25.02 46.29 26.49 46.29 27.66 46.98 28.65 47.91L29.64 46.71C28.56 45.72 27.09 44.76 24.96 44.76 21 44.76 17.55 47.85 17.55 53.19 17.55 58.5 20.7 61.56 24.84 61.56ZM33.84 61.17 35.58 61.17 35.58 49.2C37.44 47.28 38.76 46.32 40.59 46.32 43.08 46.32 44.13 47.88 44.13 51.18L44.13 61.17 45.87 61.17 45.87 50.94C45.87 46.83 44.34 44.76 41.01 44.76 38.82 44.76 37.17 46.02 35.55 47.64L35.58 44.13 35.58 37.32 33.84 37.32 33.84 61.17ZM57.63 61.56C59.91 61.56 61.41 60.81 62.7 60L62.01 58.71C60.81 59.55 59.49 60.09 57.78 60.09 54.33 60.09 52.02 57.36 51.93 53.49L63.27 53.49C63.33 53.07 63.36 52.62 63.36 52.2 63.36 47.52 61.05 44.76 57.18 44.76 53.58 44.76 50.16 47.97 50.16 53.19 50.16 58.44 53.49 61.56 57.63 61.56ZM51.93 52.08C52.26 48.42 54.6 46.26 57.18 46.26 60 46.26 61.74 48.21 61.74 52.08L51.93 52.08ZM67.62 61.17 69.36 61.17 69.36 49.2C71.04 47.28 72.57 46.32 73.98 46.32 76.35 46.32 77.43 47.88 77.43 51.18L77.43 61.17 79.17 61.17 79.17 49.2C80.88 47.28 82.35 46.32 83.79 46.32 86.13 46.32 87.24 47.88 87.24 51.18L87.24 61.17 88.98 61.17 88.98 50.94C88.98 46.83 87.39 44.76 84.21 44.76 82.32 44.76 80.58 46.02 78.78 48 78.21 46.02 76.92 44.76 74.37 44.76 72.54 44.76 70.77 46.02 69.33 47.61L69.27 47.61 69.06 45.15 67.62 45.15 67.62 61.17ZM100.89 61.56C103.17 61.56 104.67 60.81 105.96 60L105.27 58.71C104.07 59.55 102.75 60.09 101.04 60.09 97.59 60.09 95.28 57.36 95.19 53.49L106.53 53.49C106.59 53.07 106.62 52.62 106.62 52.2 106.62 47.52 104.31 44.76 100.44 44.76 96.84 44.76 93.42 47.97 93.42 53.19 93.42 58.44 96.75 61.56 100.89 61.56ZM95.19 52.08C95.52 48.42 97.86 46.26 100.44 46.26 103.26 46.26 105 48.21 105 52.08L95.19 52.08Z" transform="translate(61.53 105.83)"/><path fill="#34C759" d="M7.6916556,74 C5.01709938,74 4.04724067,73.7215232 3.06946289,73.1986019 C2.09168511,72.6756806 1.32431939,71.9083149 0.801398111,70.9305371 C0.278476833,69.9527593 1.2037061e-16,68.9829006 -2.07168062e-16,66.3083444 L2.07168062e-16,7.6916556 C-1.2037061e-16,5.01709938 0.278476833,4.04724067 0.801398111,3.06946289 C1.32431939,2.09168511 2.09168511,1.32431939 3.06946289,0.801398111 C4.04724067,0.278476833 5.01709938,1.80555915e-16 7.6916556,-3.10752092e-16 L103.308344,3.10752092e-16 C105.982901,-1.80555915e-16 106.952759,0.278476833 107.930537,0.801398111 C108.908315,1.32431939 109.675681,2.09168511 110.198602,3.06946289 C110.721523,4.04724067 111,5.01709938 111,7.6916556 L111,66.3083444 C111,68.9829006 110.721523,69.9527593 110.198602,70.9305371 C109.675681,71.9083149 108.908315,72.6756806 107.930537,73.1986019 C106.952759,73.7215232 105.982901,74 103.308344,74 L16,74 L16,116 L31.999,116 L32,104 L56,119 L32,134 L31.999,122 L10,122 L10,74 L7.6916556,74 Z" opacity=".5"/></g><mask id="b" fill="#fff"><use xlink:href="#a"/></mask><g fill-rule="nonzero" mask="url(#b)"><g transform="translate(16.092 27.672)"><path fill="#2C2C2E" d="M0 31.328 0 0 3.608 0 3.608 8.536 3.388 13.596 3.52 13.596C4.63466667 12.3933333 5.83 11.396 7.106 10.604 8.382 9.812 9.856 9.416 11.528 9.416 14.0506667 9.416 15.9133333 10.1493333 17.116 11.616 18.3186667 13.0826667 18.92 15.224 18.92 18.04L18.92 31.328 15.312 31.328 15.312 18.524C15.312 16.5 14.9306667 14.9966667 14.168 14.014 13.4053333 13.0313333 12.144 12.54 10.384 12.54 9.12266667 12.54 7.99333333 12.8626667 6.996 13.508 5.99866667 14.1533333 4.86933333 15.1213333 3.608 16.412L3.608 31.328 0 31.328ZM39.644 31.856C37.5613333 31.856 35.9186667 31.482 34.716 30.734 33.5133333 29.986 32.6553333 28.952 32.142 27.632 31.6286667 26.312 31.372 24.772 31.372 23.012L31.372 12.892 25.344 12.892 25.344 10.164 31.504 9.944 31.988 3.08 34.98 3.08 34.98 9.944 45.496 9.944 45.496 12.892 34.98 12.892 34.98 23.056C34.98 24.9626667 35.3686667 26.4146667 36.146 27.412 36.9233333 28.4093333 38.3386667 28.908 40.392 28.908 41.4186667 28.908 42.3426667 28.82 43.164 28.644 43.9853333 28.468 44.7773333 28.2333333 45.54 27.94L46.332 30.58C45.364 30.932 44.3446667 31.2326667 43.274 31.482 42.2033333 31.7313333 40.9933333 31.856 39.644 31.856ZM66.044 31.856C63.9613333 31.856 62.3186667 31.482 61.116 30.734 59.9133333 29.986 59.0553333 28.952 58.542 27.632 58.0286667 26.312 57.772 24.772 57.772 23.012L57.772 12.892 51.744 12.892 51.744 10.164 57.904 9.944 58.388 3.08 61.38 3.08 61.38 9.944 71.896 9.944 71.896 12.892 61.38 12.892 61.38 23.056C61.38 24.9626667 61.7686667 26.4146667 62.546 27.412 63.3233333 28.4093333 64.7386667 28.908 66.792 28.908 67.8186667 28.908 68.7426667 28.82 69.564 28.644 70.3853333 28.468 71.1773333 28.2333333 71.94 27.94L72.732 30.58C71.764 30.932 70.7446667 31.2326667 69.674 31.482 68.6033333 31.7313333 67.3933333 31.856 66.044 31.856ZM79.2 40.348 79.2 9.944 82.192 9.944 82.5 12.672 82.632 12.672C83.6293333 11.7333333 84.7806667 10.956 86.086 10.34 87.3913333 9.724 88.704 9.416 90.024 9.416 92.8986667 9.416 95.0913333 10.406 96.602 12.386 98.1126667 14.366 98.868 17.0133333 98.868 20.328 98.868 22.7333333 98.4133333 24.8013333 97.504 26.532 96.5946667 28.2626667 95.4066667 29.5826667 93.94 30.492 92.4733333 31.4013333 90.8746667 31.856 89.144 31.856 88.1466667 31.856 87.0686667 31.614 85.91 31.13 84.7513333 30.646 83.7026667 29.964 82.764 29.084L82.632 29.084 82.808 33.132 82.808 40.348 79.2 40.348ZM88.528 28.82C90.4346667 28.82 92.0113333 28.0646667 93.258 26.554 94.5046667 25.0433333 95.128 22.968 95.128 20.328 95.128 17.9813333 94.6586667 16.082 93.72 14.63 92.7813333 13.178 91.2413333 12.452 89.1 12.452 88.1613333 12.452 87.1566667 12.7086667 86.086 13.222 85.0153333 13.7353333 83.9226667 14.5493333 82.808 15.664L82.808 26.312C83.8346667 27.2213333 84.8613333 27.8666667 85.888 28.248 86.9146667 28.6293333 87.7946667 28.82 88.528 28.82Z"/><path fill="#C7C7CC" d="M114.708,16.104 C113.710667,16.104 112.867333,15.7593333 112.178,15.07 C111.488667,14.3806667 111.144,13.4933333 111.144,12.408 C111.144,11.2933333 111.488667,10.3913333 112.178,9.702 C112.867333,9.01266667 113.710667,8.668 114.708,8.668 C115.705333,8.668 116.548667,9.01266667 117.238,9.702 C117.927333,10.3913333 118.272,11.2933333 118.272,12.408 C118.272,13.4933333 117.927333,14.3806667 117.238,15.07 C116.548667,15.7593333 115.705333,16.104 114.708,16.104 Z M114.708,31.856 C113.710667,31.856 112.867333,31.5113333 112.178,30.822 C111.488667,30.1326667 111.144,29.2453333 111.144,28.16 C111.144,27.0453333 111.488667,26.1433333 112.178,25.454 C112.867333,24.7646667 113.710667,24.42 114.708,24.42 C115.705333,24.42 116.548667,24.7646667 117.238,25.454 C117.927333,26.1433333 118.272,27.0453333 118.272,28.16 C118.272,29.2453333 117.927333,30.1326667 117.238,30.822 C116.548667,31.5113333 115.705333,31.856 114.708,31.856 Z"/><polygon fill="#C7C7CC" points="132.264 38.368 146.696 .088 149.952 .088 135.52 38.368"/><polygon fill="#C7C7CC" points="158.664 38.368 173.096 .088 176.352 .088 161.92 38.368"/><path fill="#C7C7CC" d="M185.724 31.328 181.06 9.944 184.668 9.944 187.22 22.352C187.425333 23.3493333 187.608667 24.3246667 187.77 25.278 187.931333 26.2313333 188.070667 27.2213333 188.188 28.248L188.364 28.248C188.510667 27.2213333 188.694 26.2313333 188.914 25.278 189.134 24.3246667 189.361333 23.3493333 189.596 22.352L192.236 11.264 195.844 11.264 198.396 22.352C198.630667 23.3493333 198.88 24.3246667 199.144 25.278 199.408 26.2313333 199.598667 27.2213333 199.716 28.248L199.892 28.248C200.068 27.2213333 200.222 26.2313333 200.354 25.278 200.486 24.3246667 200.654667 23.3493333 200.86 22.352L203.412 9.944 206.756 9.944 202.18 31.328 197.516 31.328 195.052 21.12C194.7 19.624 194.348 17.512 193.996 14.784L193.82 14.784C193.468 17.512 193.116 19.624 192.764 21.12L190.388 31.328 185.724 31.328ZM212.124 31.328 207.46 9.944 211.068 9.944 213.62 22.352C213.825333 23.3493333 214.008667 24.3246667 214.17 25.278 214.331333 26.2313333 214.470667 27.2213333 214.588 28.248L214.764 28.248C214.910667 27.2213333 215.094 26.2313333 215.314 25.278 215.534 24.3246667 215.761333 23.3493333 215.996 22.352L218.636 11.264 222.244 11.264 224.796 22.352C225.030667 23.3493333 225.28 24.3246667 225.544 25.278 225.808 26.2313333 225.998667 27.2213333 226.116 28.248L226.292 28.248C226.468 27.2213333 226.622 26.2313333 226.754 25.278 226.886 24.3246667 227.054667 23.3493333 227.26 22.352L229.812 9.944 233.156 9.944 228.58 31.328 223.916 31.328 221.452 21.12C221.1 19.624 220.748 17.512 220.396 14.784L220.22 14.784C219.868 17.512 219.516 19.624 219.164 21.12L216.788 31.328 212.124 31.328ZM238.524 31.328 233.86 9.944 237.468 9.944 240.02 22.352C240.225333 23.3493333 240.408667 24.3246667 240.57 25.278 240.731333 26.2313333 240.870667 27.2213333 240.988 28.248L241.164 28.248C241.310667 27.2213333 241.494 26.2313333 241.714 25.278 241.934 24.3246667 242.161333 23.3493333 242.396 22.352L245.036 11.264 248.644 11.264 251.196 22.352C251.430667 23.3493333 251.68 24.3246667 251.944 25.278 252.208 26.2313333 252.398667 27.2213333 252.516 28.248L252.692 28.248C252.868 27.2213333 253.022 26.2313333 253.154 25.278 253.286 24.3246667 253.454667 23.3493333 253.66 22.352L256.212 9.944 259.556 9.944 254.98 31.328 250.316 31.328 247.852 21.12C247.5 19.624 247.148 17.512 246.796 14.784L246.62 14.784C246.268 17.512 245.916 19.624 245.564 21.12L243.188 31.328 238.524 31.328ZM273.108 31.856C272.110667 31.856 271.267333 31.5113333 270.578 30.822 269.888667 30.1326667 269.544 29.2453333 269.544 28.16 269.544 27.0453333 269.888667 26.1433333 270.578 25.454 271.267333 24.7646667 272.110667 24.42 273.108 24.42 274.105333 24.42 274.948667 24.7646667 275.638 25.454 276.327333 26.1433333 276.672 27.0453333 276.672 28.16 276.672 29.2453333 276.327333 30.1326667 275.638 30.822 274.948667 31.5113333 274.105333 31.856 273.108 31.856ZM300.3 12.276C298.54 12.276 296.970667 12.8406667 295.592 13.97 294.213333 15.0993333 293.362667 16.72 293.04 18.832L306.68 18.832C306.533333 16.632 305.888 14.9893333 304.744 13.904 303.6 12.8186667 302.118667 12.276 300.3 12.276ZM300.828 31.856C298.686667 31.856 296.743333 31.416 294.998 30.536 293.252667 29.656 291.866667 28.3726667 290.84 26.686 289.813333 24.9993333 289.3 22.968 289.3 20.592 289.3 18.2746667 289.813333 16.28 290.84 14.608 291.866667 12.936 293.208667 11.6526667 294.866 10.758 296.523333 9.86333333 298.305333 9.416 300.212 9.416 303.292 9.416 305.69 10.3326667 307.406 12.166 309.122 13.9993333 309.98 16.4266667 309.98 19.448 309.98 19.8586667 309.965333 20.2546667 309.936 20.636 309.906667 21.0173333 309.862667 21.3546667 309.804 21.648L292.952 21.648C293.186667 24.0533333 294.074 25.872 295.614 27.104 297.154 28.336 299.038667 28.952 301.268 28.952 302.558667 28.952 303.724667 28.7686667 304.766 28.402 305.807333 28.0353333 306.812 27.544 307.78 26.928L309.1 29.304C308.044 30.008 306.834 30.6093333 305.47 31.108 304.106 31.6066667 302.558667 31.856 300.828 31.856ZM315.524 31.328 323.664 20.24 316.14 9.944 320.144 9.944 323.532 14.652C323.913333 15.2093333 324.316667 15.8033333 324.742 16.434 325.167333 17.0646667 325.6 17.6733333 326.04 18.26L326.216 18.26C326.626667 17.6733333 327.037333 17.0573333 327.448 16.412 327.858667 15.7666667 328.254667 15.1506667 328.636 14.564L331.848 9.944 335.676 9.944 328.064 20.548 336.248 31.328 332.288 31.328 328.548 26.4C328.108 25.784 327.646 25.1386667 327.162 24.464 326.678 23.7893333 326.201333 23.144 325.732 22.528L325.556 22.528C325.116 23.1733333 324.676 23.8113333 324.236 24.442 323.796 25.0726667 323.356 25.7253333 322.916 26.4L319.396 31.328 315.524 31.328ZM349.932 31.856C348.612 31.856 347.402 31.614 346.302 31.13 345.202 30.646 344.322 29.9493333 343.662 29.04 343.002 28.1306667 342.672 27.0453333 342.672 25.784 342.672 24.1706667 343.192667 22.8286667 344.234 21.758 345.275333 20.6873333 346.94 19.8293333 349.228 19.184 351.516 18.5386667 354.493333 18.0693333 358.16 17.776 358.130667 16.808 357.932667 15.9206667 357.566 15.114 357.199333 14.3073333 356.605333 13.6546667 355.784 13.156 354.962667 12.6573333 353.862667 12.408 352.484 12.408 351.105333 12.408 349.763333 12.6793333 348.458 13.222 347.152667 13.7646667 346.001333 14.344 345.004 14.96L343.596 12.496C344.681333 11.792 346.067333 11.1026667 347.754 10.428 349.440667 9.75333333 351.222667 9.416 353.1 9.416 356.033333 9.416 358.211333 10.2153333 359.634 11.814 361.056667 13.4126667 361.768 15.5466667 361.768 18.216L361.768 31.328 358.82 31.328 358.512 28.424 358.38 28.424C357.206667 29.3333333 355.886667 30.1326667 354.42 30.822 352.953333 31.5113333 351.457333 31.856 349.932 31.856ZM350.9 28.952C352.102667 28.952 353.312667 28.6733333 354.53 28.116 355.747333 27.5586667 356.957333 26.7813333 358.16 25.784L358.16 20.152C355.109333 20.3866667 352.711333 20.746 350.966 21.23 349.220667 21.714 347.988667 22.3153333 347.27 23.034 346.551333 23.7526667 346.192 24.5813333 346.192 25.52 346.192 26.7226667 346.668667 27.5953333 347.622 28.138 348.575333 28.6806667 349.668 28.952 350.9 28.952ZM368.06 31.328 368.06 9.944 370.964 9.944 371.272 12.76 371.36 12.76C371.917333 11.7626667 372.562667 10.956 373.296 10.34 374.029333 9.724 375.012 9.416 376.244 9.416 378.326667 9.416 379.676 10.648 380.292 13.112 380.908 11.968 381.59 11.066 382.338 10.406 383.086 9.746 384.076 9.416 385.308 9.416 386.804 9.416 387.97 9.98066667 388.806 11.11 389.642 12.2393333 390.06 13.8746667 390.06 16.016L390.06 31.328 386.452 31.328 386.452 16.28C386.452 13.7866667 385.689333 12.54 384.164 12.54 383.430667 12.54 382.822 12.8113333 382.338 13.354 381.854 13.8966667 381.318667 14.7253333 380.732 15.84L380.732 31.328 377.388 31.328 377.388 16.28C377.388 15.048 377.219333 14.1166667 376.882 13.486 376.544667 12.8553333 375.98 12.54 375.188 12.54 374.454667 12.54 373.816667 12.8113333 373.274 13.354 372.731333 13.8966667 372.196 14.7253333 371.668 15.84L371.668 31.328 368.06 31.328ZM396 40.348 396 9.944 398.992 9.944 399.3 12.672 399.432 12.672C400.429333 11.7333333 401.580667 10.956 402.886 10.34 404.191333 9.724 405.504 9.416 406.824 9.416 409.698667 9.416 411.891333 10.406 413.402 12.386 414.912667 14.366 415.668 17.0133333 415.668 20.328 415.668 22.7333333 415.213333 24.8013333 414.304 26.532 413.394667 28.2626667 412.206667 29.5826667 410.74 30.492 409.273333 31.4013333 407.674667 31.856 405.944 31.856 404.946667 31.856 403.868667 31.614 402.71 31.13 401.551333 30.646 400.502667 29.964 399.564 29.084L399.432 29.084 399.608 33.132 399.608 40.348 396 40.348ZM405.328 28.82C407.234667 28.82 408.811333 28.0646667 410.058 26.554 411.304667 25.0433333 411.928 22.968 411.928 20.328 411.928 17.9813333 411.458667 16.082 410.52 14.63 409.581333 13.178 408.041333 12.452 405.9 12.452 404.961333 12.452 403.956667 12.7086667 402.886 13.222 401.815333 13.7353333 400.722667 14.5493333 399.608 15.664L399.608 26.312C400.634667 27.2213333 401.661333 27.8666667 402.688 28.248 403.714667 28.6293333 404.594667 28.82 405.328 28.82ZM436.216 31.856C433.957333 31.856 432.219333 31.2033333 431.002 29.898 429.784667 28.5926667 429.176 26.6786667 429.176 24.156L429.176 2.948 421.564 2.948 421.564 0 432.784 0 432.784 24.42C432.784 25.9746667 433.172667 27.104 433.95 27.808 434.727333 28.512 435.746667 28.864 437.008 28.864 438.269333 28.864 439.604 28.5413333 441.012 27.896L441.936 30.58C440.938667 30.9906667 440.029333 31.306 439.208 31.526 438.386667 31.746 437.389333 31.856 436.216 31.856ZM458.7 12.276C456.94 12.276 455.370667 12.8406667 453.992 13.97 452.613333 15.0993333 451.762667 16.72 451.44 18.832L465.08 18.832C464.933333 16.632 464.288 14.9893333 463.144 13.904 462 12.8186667 460.518667 12.276 458.7 12.276ZM459.228 31.856C457.086667 31.856 455.143333 31.416 453.398 30.536 451.652667 29.656 450.266667 28.3726667 449.24 26.686 448.213333 24.9993333 447.7 22.968 447.7 20.592 447.7 18.2746667 448.213333 16.28 449.24 14.608 450.266667 12.936 451.608667 11.6526667 453.266 10.758 454.923333 9.86333333 456.705333 9.416 458.612 9.416 461.692 9.416 464.09 10.3326667 465.806 12.166 467.522 13.9993333 468.38 16.4266667 468.38 19.448 468.38 19.8586667 468.365333 20.2546667 468.336 20.636 468.306667 21.0173333 468.262667 21.3546667 468.204 21.648L451.352 21.648C451.586667 24.0533333 452.474 25.872 454.014 27.104 455.554 28.336 457.438667 28.952 459.668 28.952 460.958667 28.952 462.124667 28.7686667 463.166 28.402 464.207333 28.0353333 465.212 27.544 466.18 26.928L467.5 29.304C466.444 30.008 465.234 30.6093333 463.87 31.108 462.506 31.6066667 460.958667 31.856 459.228 31.856ZM484.308 31.856C483.310667 31.856 482.467333 31.5113333 481.778 30.822 481.088667 30.1326667 480.744 29.2453333 480.744 28.16 480.744 27.0453333 481.088667 26.1433333 481.778 25.454 482.467333 24.7646667 483.310667 24.42 484.308 24.42 485.305333 24.42 486.148667 24.7646667 486.838 25.454 487.527333 26.1433333 487.872 27.0453333 487.872 28.16 487.872 29.2453333 487.527333 30.1326667 486.838 30.822 486.148667 31.5113333 485.305333 31.856 484.308 31.856ZM512.732 31.856C510.502667 31.856 508.508 31.416 506.748 30.536 504.988 29.656 503.594667 28.38 502.568 26.708 501.541333 25.036 501.028 23.0266667 501.028 20.68 501.028 18.2746667 501.570667 16.236 502.656 14.564 503.741333 12.892 505.193333 11.616 507.012 10.736 508.830667 9.856 510.810667 9.416 512.952 9.416 514.682667 9.416 516.193333 9.724 517.484 10.34 518.774667 10.956 519.86 11.6893333 520.74 12.54L518.936 14.872C518.056 14.1093333 517.139333 13.508 516.186 13.068 515.232667 12.628 514.198667 12.408 513.084 12.408 511.441333 12.408 509.996667 12.7526667 508.75 13.442 507.503333 14.1313333 506.528 15.0993333 505.824 16.346 505.12 17.5926667 504.768 19.0373333 504.768 20.68 504.768 22.2933333 505.112667 23.716 505.802 24.948 506.491333 26.18 507.452 27.1406667 508.684 27.83 509.916 28.5193333 511.353333 28.864 512.996 28.864 514.316 28.864 515.526 28.6 516.626 28.072 517.726 27.544 518.716 26.9133333 519.596 26.18L521.224 28.512C520.050667 29.568 518.738 30.3893333 517.286 30.976 515.834 31.5626667 514.316 31.856 512.732 31.856ZM537.108 31.856C535.230667 31.856 533.492667 31.416 531.894 30.536 530.295333 29.656 529.004667 28.38 528.022 26.708 527.039333 25.036 526.548 23.0266667 526.548 20.68 526.548 18.2746667 527.039333 16.236 528.022 14.564 529.004667 12.892 530.295333 11.616 531.894 10.736 533.492667 9.856 535.230667 9.416 537.108 9.416 538.985333 9.416 540.723333 9.856 542.322 10.736 543.920667 11.616 545.211333 12.892 546.194 14.564 547.176667 16.236 547.668 18.2746667 547.668 20.68 547.668 23.0266667 547.176667 25.036 546.194 26.708 545.211333 28.38 543.920667 29.656 542.322 30.536 540.723333 31.416 538.985333 31.856 537.108 31.856ZM537.108 28.864C539.161333 28.864 540.811333 28.1086667 542.058 26.598 543.304667 25.0873333 543.928 23.1146667 543.928 20.68 543.928 18.216 543.304667 16.2213333 542.058 14.696 540.811333 13.1706667 539.161333 12.408 537.108 12.408 535.054667 12.408 533.404667 13.1706667 532.158 14.696 530.911333 16.2213333 530.288 18.216 530.288 20.68 530.288 23.1146667 530.911333 25.0873333 532.158 26.598 533.404667 28.1086667 535.054667 28.864 537.108 28.864ZM552.86 31.328 552.86 9.944 555.764 9.944 556.072 12.76 556.16 12.76C556.717333 11.7626667 557.362667 10.956 558.096 10.34 558.829333 9.724 559.812 9.416 561.044 9.416 563.126667 9.416 564.476 10.648 565.092 13.112 565.708 11.968 566.39 11.066 567.138 10.406 567.886 9.746 568.876 9.416 570.108 9.416 571.604 9.416 572.77 9.98066667 573.606 11.11 574.442 12.2393333 574.86 13.8746667 574.86 16.016L574.86 31.328 571.252 31.328 571.252 16.28C571.252 13.7866667 570.489333 12.54 568.964 12.54 568.230667 12.54 567.622 12.8113333 567.138 13.354 566.654 13.8966667 566.118667 14.7253333 565.532 15.84L565.532 31.328 562.188 31.328 562.188 16.28C562.188 15.048 562.019333 14.1166667 561.682 13.486 561.344667 12.8553333 560.78 12.54 559.988 12.54 559.254667 12.54 558.616667 12.8113333 558.074 13.354 557.531333 13.8966667 556.996 14.7253333 556.468 15.84L556.468 31.328 552.86 31.328ZM589.908 16.104C588.910667 16.104 588.067333 15.7593333 587.378 15.07 586.688667 14.3806667 586.344 13.4933333 586.344 12.408 586.344 11.2933333 586.688667 10.3913333 587.378 9.702 588.067333 9.01266667 588.910667 8.668 589.908 8.668 590.905333 8.668 591.748667 9.01266667 592.438 9.702 593.127333 10.3913333 593.472 11.2933333 593.472 12.408 593.472 13.4933333 593.127333 14.3806667 592.438 15.07 591.748667 15.7593333 590.905333 16.104 589.908 16.104ZM589.908 31.856C588.910667 31.856 588.067333 31.5113333 587.378 30.822 586.688667 30.1326667 586.344 29.2453333 586.344 28.16 586.344 27.0453333 586.688667 26.1433333 587.378 25.454 588.067333 24.7646667 588.910667 24.42 589.908 24.42 590.905333 24.42 591.748667 24.7646667 592.438 25.454 593.127333 26.1433333 593.472 27.0453333 593.472 28.16 593.472 29.2453333 593.127333 30.1326667 592.438 30.822 591.748667 31.5113333 590.905333 31.856 589.908 31.856ZM616.396 31.856C614.284 31.856 612.458 31.526 610.918 30.866 609.378 30.206 608.19 29.2893333 607.354 28.116 606.518 26.9426667 606.1 25.6226667 606.1 24.156 606.1 22.8653333 606.393333 21.7506667 606.98 20.812 607.566667 19.8733333 608.322 19.0666667 609.246 18.392 610.17 17.7173333 611.130667 17.1453333 612.128 16.676L612.128 16.5C610.954667 15.7666667 609.95 14.8573333 609.114 13.772 608.278 12.6866667 607.86 11.4106667 607.86 9.944 607.86 8.50666667 608.234 7.24533333 608.982 6.16 609.73 5.07466667 610.756667 4.23133333 612.062 3.63 613.367333 3.02866667 614.856 2.728 616.528 2.728 619.285333 2.728 621.426667 3.432 622.952 4.84 624.477333 6.248 625.24 8.03733333 625.24 10.208 625.24 11.528 624.822 12.7673333 623.986 13.926 623.15 15.0846667 622.145333 16.0746667 620.972 16.896L620.972 17.072C621.998667 17.5706667 622.93 18.1353333 623.766 18.766 624.602 19.3966667 625.262 20.152 625.746 21.032 626.23 21.912 626.472 23.0266667 626.472 24.376 626.472 25.7546667 626.076 27.016 625.284 28.16 624.492 29.304 623.348 30.206 621.852 30.866 620.356 31.526 618.537333 31.856 616.396 31.856ZM618.596 16.016C620.942667 14.3146667 622.116 12.4373333 622.116 10.384 622.116 9.00533333 621.632 7.832 620.664 6.864 619.696 5.896 618.288 5.412 616.44 5.412 614.885333 5.412 613.616667 5.82266667 612.634 6.644 611.651333 7.46533333 611.16 8.56533333 611.16 9.944 611.16 11.0586667 611.49 11.9826667 612.15 12.716 612.81 13.4493333 613.704667 14.0726667 614.834 14.586 615.963333 15.0993333 617.217333 15.576 618.596 16.016ZM616.484 29.172C618.566667 29.172 620.172667 28.71 621.302 27.786 622.431333 26.862 622.996 25.6813333 622.996 24.244 622.996 22.924 622.607333 21.89 621.83 21.142 621.052667 20.394 619.996667 19.7706667 618.662 19.272 617.327333 18.7733333 615.838667 18.2453333 614.196 17.688 612.846667 18.4213333 611.71 19.272 610.786 20.24 609.862 21.208 609.4 22.396 609.4 23.804 609.4 25.3586667 610.045333 26.642 611.336 27.654 612.626667 28.666 614.342667 29.172 616.484 29.172ZM642.708 31.856C639.598667 31.856 637.142 30.58 635.338 28.028 633.534 25.476 632.632 21.868 632.632 17.204 632.632 12.4813333 633.534 8.888 635.338 6.424 637.142 3.96 639.598667 2.728 642.708 2.728 645.846667 2.728 648.310667 3.96 650.1 6.424 651.889333 8.888 652.784 12.4813333 652.784 17.204 652.784 21.868 651.889333 25.476 650.1 28.028 648.310667 30.58 645.846667 31.856 642.708 31.856ZM642.708 28.952C644.673333 28.952 646.279333 27.9986667 647.526 26.092 648.772667 24.1853333 649.396 21.2226667 649.396 17.204 649.396 13.156 648.772667 10.2153333 647.526 8.382 646.279333 6.54866667 644.673333 5.632 642.708 5.632 640.742667 5.632 639.136667 6.54866667 637.89 8.382 636.643333 10.2153333 636.02 13.156 636.02 17.204 636.02 21.2226667 636.643333 24.1853333 637.89 26.092 639.136667 27.9986667 640.742667 28.952 642.708 28.952ZM642.708 19.844C641.974667 19.844 641.336667 19.58 640.794 19.052 640.251333 18.524 639.98 17.8053333 639.98 16.896 639.98 15.9866667 640.251333 15.2753333 640.794 14.762 641.336667 14.2486667 641.974667 13.992 642.708 13.992 643.441333 13.992 644.079333 14.2486667 644.622 14.762 645.164667 15.2753333 645.436 15.9866667 645.436 16.896 645.436 17.8053333 645.164667 18.524 644.622 19.052 644.079333 19.58 643.441333 19.844 642.708 19.844Z"/><polygon fill="#C7C7CC" points="660.264 38.368 674.696 .088 677.952 .088 663.52 38.368"/><path fill="#C7C7CC" d="M686.4 40.348 686.4 9.944 689.392 9.944 689.7 12.672 689.832 12.672C690.829333 11.7333333 691.980667 10.956 693.286 10.34 694.591333 9.724 695.904 9.416 697.224 9.416 700.098667 9.416 702.291333 10.406 703.802 12.386 705.312667 14.366 706.068 17.0133333 706.068 20.328 706.068 22.7333333 705.613333 24.8013333 704.704 26.532 703.794667 28.2626667 702.606667 29.5826667 701.14 30.492 699.673333 31.4013333 698.074667 31.856 696.344 31.856 695.346667 31.856 694.268667 31.614 693.11 31.13 691.951333 30.646 690.902667 29.964 689.964 29.084L689.832 29.084 690.008 33.132 690.008 40.348 686.4 40.348ZM695.728 28.82C697.634667 28.82 699.211333 28.0646667 700.458 26.554 701.704667 25.0433333 702.328 22.968 702.328 20.328 702.328 17.9813333 701.858667 16.082 700.92 14.63 699.981333 13.178 698.441333 12.452 696.3 12.452 695.361333 12.452 694.356667 12.7086667 693.286 13.222 692.215333 13.7353333 691.122667 14.5493333 690.008 15.664L690.008 26.312C691.034667 27.2213333 692.061333 27.8666667 693.088 28.248 694.114667 28.6293333 694.994667 28.82 695.728 28.82ZM719.532 31.856C718.212 31.856 717.002 31.614 715.902 31.13 714.802 30.646 713.922 29.9493333 713.262 29.04 712.602 28.1306667 712.272 27.0453333 712.272 25.784 712.272 24.1706667 712.792667 22.8286667 713.834 21.758 714.875333 20.6873333 716.54 19.8293333 718.828 19.184 721.116 18.5386667 724.093333 18.0693333 727.76 17.776 727.730667 16.808 727.532667 15.9206667 727.166 15.114 726.799333 14.3073333 726.205333 13.6546667 725.384 13.156 724.562667 12.6573333 723.462667 12.408 722.084 12.408 720.705333 12.408 719.363333 12.6793333 718.058 13.222 716.752667 13.7646667 715.601333 14.344 714.604 14.96L713.196 12.496C714.281333 11.792 715.667333 11.1026667 717.354 10.428 719.040667 9.75333333 720.822667 9.416 722.7 9.416 725.633333 9.416 727.811333 10.2153333 729.234 11.814 730.656667 13.4126667 731.368 15.5466667 731.368 18.216L731.368 31.328 728.42 31.328 728.112 28.424 727.98 28.424C726.806667 29.3333333 725.486667 30.1326667 724.02 30.822 722.553333 31.5113333 721.057333 31.856 719.532 31.856ZM720.5 28.952C721.702667 28.952 722.912667 28.6733333 724.13 28.116 725.347333 27.5586667 726.557333 26.7813333 727.76 25.784L727.76 20.152C724.709333 20.3866667 722.311333 20.746 720.566 21.23 718.820667 21.714 717.588667 22.3153333 716.87 23.034 716.151333 23.7526667 715.792 24.5813333 715.792 25.52 715.792 26.7226667 716.268667 27.5953333 717.222 28.138 718.175333 28.6806667 719.268 28.952 720.5 28.952ZM752.444 31.856C750.361333 31.856 748.718667 31.482 747.516 30.734 746.313333 29.986 745.455333 28.952 744.942 27.632 744.428667 26.312 744.172 24.772 744.172 23.012L744.172 12.892 738.144 12.892 738.144 10.164 744.304 9.944 744.788 3.08 747.78 3.08 747.78 9.944 758.296 9.944 758.296 12.892 747.78 12.892 747.78 23.056C747.78 24.9626667 748.168667 26.4146667 748.946 27.412 749.723333 28.4093333 751.138667 28.908 753.192 28.908 754.218667 28.908 755.142667 28.82 755.964 28.644 756.785333 28.468 757.577333 28.2333333 758.34 27.94L759.132 30.58C758.164 30.932 757.144667 31.2326667 756.074 31.482 755.003333 31.7313333 753.793333 31.856 752.444 31.856Z"/></g></g><rect width="100" height="200" x="700" fill="url(#c)"/></g></svg>