<svg xmlns="http://www.w3.org/2000/svg" width="800" height="150" viewBox="0 0 800 150"><defs><linearGradient id="a" x1="100%" x2="0%" y1="50%" y2="50%"><stop offset="0%" stop-color="#FFF"/><stop offset="100%" stop-color="#FFF" stop-opacity="0"/></linearGradient></defs><g fill="none" fill-rule="evenodd"><rect width="800" height="150" fill="#FFF"/><path fill="#000" fill-rule="nonzero" d="M539 32.56C537.592 32.56 536.36 32.2813333 535.304 31.724 534.248 31.1666667 533.426667 30.3746667 532.84 29.348 532.253333 28.3213333 531.96 27.1186667 531.96 25.74L531.96 4.048 523.6 4.048 523.6.44 535.92.44 535.92 25.74C535.92 26.7373333 536.198667 27.522 536.756 28.094 537.313333 28.666 538.061333 28.952 539 28.952L546.48 28.952 546.48 32.56 539 32.56ZM561.836 33C559.049333 33 556.82 32.1713333 555.148 30.514 553.476 28.8566667 552.64 26.6053333 552.64 23.76L552.64 8.36 556.6 8.36 556.6 23.76C556.6 25.5786667 557.069333 26.994 558.008 28.006 558.946667 29.018 560.222667 29.524 561.836 29.524 563.478667 29.524 564.776667 29.018 565.73 28.006 566.683333 26.994 567.16 25.5786667 567.16 23.76L567.16 8.36 571.12 8.36 571.12 23.76C571.12 26.6053333 570.269333 28.8566667 568.568 30.514 566.866667 32.1713333 564.622667 33 561.836 33ZM588.28 33C586.373333 33 584.708667 32.6186667 583.286 31.856 581.863333 31.0933333 580.763333 30.0153333 579.986 28.622 579.208667 27.2286667 578.82 25.608 578.82 23.76L578.82 17.16C578.82 15.2826667 579.208667 13.6546667 579.986 12.276 580.763333 10.8973333 581.863333 9.82666667 583.286 9.064 584.708667 8.30133333 586.373333 7.92 588.28 7.92 590.186667 7.92 591.851333 8.30133333 593.274 9.064 594.696667 9.82666667 595.796667 10.8973333 596.574 12.276 597.351333 13.6546667 597.74 15.2826667 597.74 17.16L597.74 21.428 582.692 21.428 582.692 23.76C582.692 25.6666667 583.176 27.126 584.144 28.138 585.112 29.15 586.490667 29.656 588.28 29.656 589.805333 29.656 591.037333 29.3846667 591.976 28.842 592.914667 28.2993333 593.486667 27.4853333 593.692 26.4L597.652 26.4C597.388 28.424 596.398 30.03 594.682 31.218 592.966 32.406 590.832 33 588.28 33ZM593.868 18.788 593.868 17.16C593.868 15.2533333 593.391333 13.7866667 592.438 12.76 591.484667 11.7333333 590.098667 11.22 588.28 11.22 586.490667 11.22 585.112 11.7333333 584.144 12.76 583.176 13.7866667 582.692 15.2533333 582.692 17.16L582.692 18.436 594.176 18.436 593.868 18.788ZM605.528 32.56 605.528 28.644 615.78 17.468C617.305333 15.8253333 618.412667 14.3586667 619.102 13.068 619.791333 11.7773333 620.136 10.516 620.136 9.284 620.136 7.524 619.622667 6.12333333 618.596 5.082 617.569333 4.04066667 616.176 3.52 614.416 3.52 612.626667 3.52 611.211333 4.05533333 610.17 5.126 609.128667 6.19666667 608.608 7.64133333 608.608 9.46L604.648 9.46C604.706667 7.524 605.146667 5.84466667 605.968 4.422 606.789333 2.99933333 607.918667 1.90666667 609.356 1.144 610.793333.381333333 612.48 0 614.416 0 616.410667 0 618.126667.381333333 619.564 1.144 621.001333 1.90666667 622.116 2.98466667 622.908 4.378 623.7 5.77133333 624.096 7.42133333 624.096 9.328 624.096 10.8533333 623.648667 12.452 622.754 14.124 621.859333 15.796 620.414667 17.7173333 618.42 19.888L610.06 28.952 624.624 28.952 624.624 32.56 605.528 32.56Z" opacity=".2" transform="translate(-529.378 26.44)"/><rect width="120" height="150" fill="url(#a)" transform="matrix(-1 0 0 1 120 0)"/><g transform="translate(100 8)"><path fill="#B620E0" d="M7.6916556,74 C5.01709938,74 4.04724067,73.7215232 3.06946289,73.1986019 C2.09168511,72.6756806 1.32431939,71.9083149 0.801398111,70.9305371 C0.278476833,69.9527593 1.2037061e-16,68.9829006 -2.07168062e-16,66.3083444 L6.60585131e-16,7.6916556 C-3.83818985e-16,5.01709938 0.278476833,4.04724067 0.801398111,3.06946289 C1.32431939,2.09168511 2.09168511,1.32431939 3.06946289,0.801398111 C4.04724067,0.278476833 5.01709938,1.80555915e-16 7.6916556,-3.10752092e-16 L605.308344,3.10752092e-16 C607.982901,-1.80555915e-16 608.952759,0.278476833 609.930537,0.801398111 C610.908315,1.32431939 611.675681,2.09168511 612.198602,3.06946289 C612.721523,4.04724067 613,5.01709938 613,7.6916556 L613,66.3083444 C613,68.9829006 612.721523,69.9527593 612.198602,70.9305371 C611.675681,71.9083149 610.908315,72.6756806 609.930537,73.1986019 C608.952759,73.7215232 607.982901,74 605.308344,74 L16,74 L16,116 L31.999,116 L32,104 L56,119 L32,134 L31.999,122 L10,122 L10,74 L7.6916556,74 Z" opacity=".5"/><path fill="#000" fill-rule="nonzero" d="M21.96.3 21.96 4.38 16.8 4.38 16.8.3 15.45.3 15.45 4.38 11.52 4.38 11.52 5.76 15.45 5.76 15.45 10.17 16.8 10.17 16.8 5.76 21.96 5.76 21.96 10.17 23.34 10.17 23.34 5.76 27.03 5.76 27.03 4.38 23.34 4.38 23.34.3 21.96.3ZM18.72 12.75 18.72 17.82 13.8 17.82 13.8 12.75 18.72 12.75ZM20.07 12.75 24.69 12.75 24.69 17.82 20.07 17.82 20.07 12.75ZM13.8 19.14 18.72 19.14 18.72 24.42 13.8 24.42 13.8 19.14ZM24.69 19.14 24.69 24.42 20.07 24.42 20.07 19.14 24.69 19.14ZM12.45 11.37 12.45 27.3 13.8 27.3 13.8 25.74 24.69 25.74 24.69 27 26.1 27 26.1 11.37 12.45 11.37ZM4.47.09C3.51 2.97 1.83 5.73 0 7.59.24 7.86.69 8.55.81 8.85 1.77 7.8 2.73 6.54 3.57 5.13L10.35 5.13 10.35 3.75 4.35 3.75C4.92 2.67 5.43 1.56 5.82.45L4.47.09ZM.6 15.03.6 16.41 5.04 16.41 5.04 23.19C5.04 24.57 3.99 25.5 3.51 25.86 3.81 26.13 4.2 26.67 4.38 26.97 4.8 26.52 5.55 26.07 11.04 23.04 10.92 22.77 10.77 22.23 10.71 21.84L6.39 24.09 6.39 16.41 10.38 16.41 10.38 15.03 6.39 15.03 6.39 10.32 9.51 10.32 9.51 8.97 1.95 8.97 1.95 10.32 5.04 10.32 5.04 15.03.6 15.03ZM35.25 10.74 52.05 10.74 52.05 17.01 35.25 17.01 35.25 10.74ZM39.24 21.21C39.63 23.1 39.87 25.53 39.87 26.97L41.37 26.76C41.37 25.38 41.04 22.98 40.62 21.12L39.24 21.21ZM45.45 21.24C46.38 23.04 47.28 25.5 47.61 26.97L49.02 26.58C48.66 25.14 47.7 22.74 46.77 20.97L45.45 21.24ZM51.6 20.97C53.16 22.8 54.84 25.41 55.56 27L56.91 26.4C56.19 24.78 54.45 22.29 52.89 20.43L51.6 20.97ZM34.41 20.58C33.42 22.83 31.83 25.26 30.15 26.67L31.44 27.3C33.12 25.74 34.71 23.22 35.76 20.94L34.41 20.58ZM33.87 9.33 33.87 18.39 53.49 18.39 53.49 9.33 44.13 9.33 44.13 4.92 55.89 4.92 55.89 3.54 44.13 3.54 44.13 0 42.69 0 42.69 9.33 33.87 9.33Z" transform="translate(62.32 105.95)"/></g><g fill="#000" fill-rule="nonzero" transform="translate(100.042 26.44)"><path d="M2.112 32.56 3.828 23.32 0 23.32 0 20.46 4.312 20.46 5.808 12.54 1.54 12.54 1.54 9.68 6.292 9.68 8.008.44 11.088.44 9.372 9.68 16.412 9.68 18.128.44 21.208.44 19.492 9.68 23.32 9.68 23.32 12.54 19.008 12.54 17.512 20.46 21.78 20.46 21.78 23.32 17.028 23.32 15.312 32.56 12.232 32.56 13.948 23.32 6.908 23.32 5.192 32.56 2.112 32.56ZM7.392 20.46 14.432 20.46 15.928 12.54 8.888 12.54 7.392 20.46ZM38.236 33C36.1826667 33 34.386 32.6333333 32.846 31.9 31.306 31.1666667 30.118 30.1326667 29.282 28.798 28.446 27.4633333 28.028 25.9013333 28.028 24.112L31.988 24.112C31.988 25.7253333 32.56 27.0233333 33.704 28.006 34.848 28.9886667 36.3586667 29.48 38.236 29.48 40.0546667 29.48 41.5066667 28.9886667 42.592 28.006 43.6773333 27.0233333 44.22 25.7253333 44.22 24.112 44.22 22.8506667 43.89 21.7433333 43.23 20.79 42.57 19.8366667 41.668 19.184 40.524 18.832L35.772 17.336C33.6306667 16.6613333 31.9513333 15.5466667 30.734 13.992 29.5166667 12.4373333 28.908 10.6333333 28.908 8.58 28.908 5.96933333 29.766 3.88666667 31.482 2.332 33.198.777333333 35.4786667 0 38.324 0 41.1693333 0 43.4426667.777333333 45.144 2.332 46.8453333 3.88666667 47.696 5.96933333 47.696 8.58L43.736 8.58C43.736 7.02533333 43.2446667 5.79333333 42.262 4.884 41.2793333 3.97466667 39.9666667 3.52 38.324 3.52 36.652 3.52 35.31 3.97466667 34.298 4.884 33.286 5.79333333 32.78 6.996 32.78 8.492 32.78 9.66533333 33.1173333 10.6773333 33.792 11.528 34.4666667 12.3786667 35.3906667 12.9946667 36.564 13.376L41.492 14.96C43.516 15.6053333 45.122 16.7493333 46.31 18.392 47.498 20.0346667 48.092 21.9413333 48.092 24.112 48.092 25.9013333 47.6886667 27.4633333 46.882 28.798 46.0753333 30.1326667 44.9313333 31.1666667 43.45 31.9 41.9686667 32.6333333 40.2306667 33 38.236 33ZM64.46 32.912C62.524 32.912 60.8446667 32.538 59.422 31.79 57.9993333 31.042 56.9066667 29.9786667 56.144 28.6 55.3813333 27.2213333 55 25.5786667 55 23.672L55 17.248C55 15.3413333 55.3813333 13.6986667 56.144 12.32 56.9066667 10.9413333 57.9993333 9.878 59.422 9.13 60.8446667 8.382 62.524 8.008 64.46 8.008 66.4253333 8.008 68.112 8.382 69.52 9.13 70.928 9.878 72.0133333 10.934 72.776 12.298 73.5386667 13.662 73.92 15.2973333 73.92 17.204L73.92 23.672C73.92 25.5786667 73.5386667 27.2213333 72.776 28.6 72.0133333 29.9786667 70.928 31.042 69.52 31.79 68.112 32.538 66.4253333 32.912 64.46 32.912ZM64.46 29.392C66.1906667 29.392 67.54 28.908 68.508 27.94 69.476 26.972 69.96 25.5493333 69.96 23.672L69.96 17.248C69.96 15.3706667 69.476 13.948 68.508 12.98 67.54 12.012 66.1906667 11.528 64.46 11.528 62.7586667 11.528 61.4166667 12.012 60.434 12.98 59.4513333 13.948 58.96 15.3706667 58.96 17.248L58.96 23.672C58.96 25.5493333 59.4513333 26.972 60.434 27.94 61.4166667 28.908 62.7586667 29.392 64.46 29.392ZM80.3 32.56 80.3 8.36 83.776 8.36 83.776 11.264 84.568 11.264 83.952 12.32C83.952 11.0293333 84.3333333 9.97333333 85.096 9.152 85.8586667 8.33066667 86.856 7.92 88.088 7.92 89.3786667 7.92 90.4273333 8.448 91.234 9.504 92.0406667 10.56 92.444 11.9386667 92.444 13.64L91.256 11.264 93.104 11.264 92.268 12.32C92.268 11.0293333 92.6566667 9.97333333 93.434 9.152 94.2113333 8.33066667 95.2306667 7.92 96.492 7.92 97.9586667 7.92 99.1466667 8.49933333 100.056 9.658 100.965333 10.8166667 101.42 12.32 101.42 14.168L101.42 32.56 97.768 32.56 97.768 14.124C97.768 13.0973333 97.5406667 12.3126667 97.086 11.77 96.6313333 11.2273333 95.9786667 10.956 95.128 10.956 94.2773333 10.956 93.6173333 11.2273333 93.148 11.77 92.6786667 12.3126667 92.444 13.0826667 92.444 14.08L92.444 32.56 89.276 32.56 89.276 14.124C89.276 13.0973333 89.034 12.3126667 88.55 11.77 88.066 11.2273333 87.3986667 10.956 86.548 10.956 85.7266667 10.956 85.0886667 11.2273333 84.634 11.77 84.1793333 12.3126667 83.952 13.0826667 83.952 14.08L83.952 32.56 80.3 32.56ZM117.26 33C115.353333 33 113.688667 32.6186667 112.266 31.856 110.843333 31.0933333 109.743333 30.0153333 108.966 28.622 108.188667 27.2286667 107.8 25.608 107.8 23.76L107.8 17.16C107.8 15.2826667 108.188667 13.6546667 108.966 12.276 109.743333 10.8973333 110.843333 9.82666667 112.266 9.064 113.688667 8.30133333 115.353333 7.92 117.26 7.92 119.166667 7.92 120.831333 8.30133333 122.254 9.064 123.676667 9.82666667 124.776667 10.8973333 125.554 12.276 126.331333 13.6546667 126.72 15.2826667 126.72 17.16L126.72 21.428 111.672 21.428 111.672 23.76C111.672 25.6666667 112.156 27.126 113.124 28.138 114.092 29.15 115.470667 29.656 117.26 29.656 118.785333 29.656 120.017333 29.3846667 120.956 28.842 121.894667 28.2993333 122.466667 27.4853333 122.672 26.4L126.632 26.4C126.368 28.424 125.378 30.03 123.662 31.218 121.946 32.406 119.812 33 117.26 33ZM122.848 18.788 122.848 17.16C122.848 15.2533333 122.371333 13.7866667 121.418 12.76 120.464667 11.7333333 119.078667 11.22 117.26 11.22 115.470667 11.22 114.092 11.7333333 113.124 12.76 112.156 13.7866667 111.672 15.2533333 111.672 17.16L111.672 18.436 123.156 18.436 122.848 18.788ZM135.872 32.56 132 8.36 135.432 8.36 137.852 25.52C137.94 26.1653333 138.028 26.862 138.116 27.61 138.204 28.358 138.262667 28.9813333 138.292 29.48L138.468 29.48C138.526667 28.9813333 138.6 28.358 138.688 27.61 138.776 26.862 138.878667 26.1653333 138.996 25.52L141.68 8.36 145.64 8.36 148.324 25.52C148.441333 26.1653333 148.551333 26.862 148.654 27.61 148.756667 28.358 148.822667 28.9813333 148.852 29.48L149.028 29.48C149.086667 28.9813333 149.167333 28.358 149.27 27.61 149.372667 26.862 149.468 26.1653333 149.556 25.52L152.064 8.36 155.32 8.36 151.272 32.56 146.916 32.56 144.32 15.84C144.202667 15.0186667 144.085333 14.1973333 143.968 13.376 143.850667 12.5546667 143.762667 11.9093333 143.704 11.44L143.528 11.44C143.498667 11.9093333 143.432667 12.5546667 143.33 13.376 143.227333 14.1973333 143.102667 15.0186667 142.956 15.84L140.228 32.56 135.872 32.56ZM160.908 32.56 160.908.44 164.868.44 164.868 8.36 164.868 12.98 165.704 12.98 164.868 13.904C164.868 11.9973333 165.44 10.5233333 166.584 9.482 167.728 8.44066667 169.312 7.92 171.336 7.92 173.770667 7.92 175.706667 8.668 177.144 10.164 178.581333 11.66 179.3 13.6986667 179.3 16.28L179.3 32.56 175.34 32.56 175.34 16.72C175.34 14.9893333 174.878 13.6473333 173.954 12.694 173.03 11.7406667 171.776 11.264 170.192 11.264 168.549333 11.264 167.251333 11.7773333 166.298 12.804 165.344667 13.8306667 164.868 15.2826667 164.868 17.16L164.868 32.56 160.908 32.56ZM196.46 33C194.553333 33 192.888667 32.6186667 191.466 31.856 190.043333 31.0933333 188.943333 30.0153333 188.166 28.622 187.388667 27.2286667 187 25.608 187 23.76L187 17.16C187 15.2826667 187.388667 13.6546667 188.166 12.276 188.943333 10.8973333 190.043333 9.82666667 191.466 9.064 192.888667 8.30133333 194.553333 7.92 196.46 7.92 198.366667 7.92 200.031333 8.30133333 201.454 9.064 202.876667 9.82666667 203.976667 10.8973333 204.754 12.276 205.531333 13.6546667 205.92 15.2826667 205.92 17.16L205.92 21.428 190.872 21.428 190.872 23.76C190.872 25.6666667 191.356 27.126 192.324 28.138 193.292 29.15 194.670667 29.656 196.46 29.656 197.985333 29.656 199.217333 29.3846667 200.156 28.842 201.094667 28.2993333 201.666667 27.4853333 201.872 26.4L205.832 26.4C205.568 28.424 204.578 30.03 202.862 31.218 201.146 32.406 199.012 33 196.46 33ZM202.048 18.788 202.048 17.16C202.048 15.2533333 201.571333 13.7866667 200.618 12.76 199.664667 11.7333333 198.278667 11.22 196.46 11.22 194.670667 11.22 193.292 11.7333333 192.324 12.76 191.356 13.7866667 190.872 15.2533333 190.872 17.16L190.872 18.436 202.356 18.436 202.048 18.788ZM214.456 32.56 214.456 8.36 218.416 8.36 218.416 12.98 219.252 12.98 218.416 13.904C218.416 11.9973333 218.988 10.5233333 220.132 9.482 221.276 8.44066667 222.86 7.92 224.884 7.92 227.406667 7.92 229.416 8.71933333 230.912 10.318 232.408 11.9166667 233.156 14.08 233.156 16.808L233.156 18.48 229.196 18.48 229.196 17.16C229.196 15.312 228.726667 13.882 227.788 12.87 226.849333 11.858 225.485333 11.352 223.696 11.352 221.994667 11.352 220.689333 11.8433333 219.78 12.826 218.870667 13.8086667 218.416 15.2533333 218.416 17.16L218.416 32.56 214.456 32.56ZM249.26 33C247.353333 33 245.688667 32.6186667 244.266 31.856 242.843333 31.0933333 241.743333 30.0153333 240.966 28.622 240.188667 27.2286667 239.8 25.608 239.8 23.76L239.8 17.16C239.8 15.2826667 240.188667 13.6546667 240.966 12.276 241.743333 10.8973333 242.843333 9.82666667 244.266 9.064 245.688667 8.30133333 247.353333 7.92 249.26 7.92 251.166667 7.92 252.831333 8.30133333 254.254 9.064 255.676667 9.82666667 256.776667 10.8973333 257.554 12.276 258.331333 13.6546667 258.72 15.2826667 258.72 17.16L258.72 21.428 243.672 21.428 243.672 23.76C243.672 25.6666667 244.156 27.126 245.124 28.138 246.092 29.15 247.470667 29.656 249.26 29.656 250.785333 29.656 252.017333 29.3846667 252.956 28.842 253.894667 28.2993333 254.466667 27.4853333 254.672 26.4L258.632 26.4C258.368 28.424 257.378 30.03 255.662 31.218 253.946 32.406 251.812 33 249.26 33ZM254.848 18.788 254.848 17.16C254.848 15.2533333 254.371333 13.7866667 253.418 12.76 252.464667 11.7333333 251.078667 11.22 249.26 11.22 247.470667 11.22 246.092 11.7333333 245.124 12.76 244.156 13.7866667 243.672 15.2533333 243.672 17.16L243.672 18.436 255.156 18.436 254.848 18.788Z"/><polygon points="267.08 32.56 267.08 28.952 273.636 28.952 273.636 4.048 267.08 4.048 267.08 .44 284.24 .44 284.24 4.048 277.684 4.048 277.684 28.952 284.24 28.952 284.24 32.56"/><path d="M292.908,32.56 L292.908,8.36 L296.868,8.36 L296.868,12.98 L297.704,12.98 L296.868,13.904 C296.868,11.9973333 297.44,10.5233333 298.584,9.482 C299.728,8.44066667 301.312,7.92 303.336,7.92 C305.770667,7.92 307.706667,8.668 309.144,10.164 C310.581333,11.66 311.3,13.6986667 311.3,16.28 L311.3,32.56 L307.34,32.56 L307.34,16.72 C307.34,14.9893333 306.878,13.662 305.954,12.738 C305.03,11.814 303.776,11.352 302.192,11.352 C300.549333,11.352 299.251333,11.8506667 298.298,12.848 C297.344667,13.8453333 296.868,15.2826667 296.868,17.16 L296.868,32.56 L292.908,32.56 Z"/><polygon points="326.48 32.56 326.48 4.048 317.68 4.048 317.68 .44 339.24 .44 339.24 4.048 330.44 4.048 330.44 32.56"/><path d="M345.708 32.56 345.708.44 349.668.44 349.668 8.36 349.668 12.98 350.504 12.98 349.668 13.904C349.668 11.9973333 350.24 10.5233333 351.384 9.482 352.528 8.44066667 354.112 7.92 356.136 7.92 358.570667 7.92 360.506667 8.668 361.944 10.164 363.381333 11.66 364.1 13.6986667 364.1 16.28L364.1 32.56 360.14 32.56 360.14 16.72C360.14 14.9893333 359.678 13.6473333 358.754 12.694 357.83 11.7406667 356.576 11.264 354.992 11.264 353.349333 11.264 352.051333 11.7773333 351.098 12.804 350.144667 13.8306667 349.668 15.2826667 349.668 17.16L349.668 32.56 345.708 32.56ZM381.26 33C379.353333 33 377.688667 32.6186667 376.266 31.856 374.843333 31.0933333 373.743333 30.0153333 372.966 28.622 372.188667 27.2286667 371.8 25.608 371.8 23.76L371.8 17.16C371.8 15.2826667 372.188667 13.6546667 372.966 12.276 373.743333 10.8973333 374.843333 9.82666667 376.266 9.064 377.688667 8.30133333 379.353333 7.92 381.26 7.92 383.166667 7.92 384.831333 8.30133333 386.254 9.064 387.676667 9.82666667 388.776667 10.8973333 389.554 12.276 390.331333 13.6546667 390.72 15.2826667 390.72 17.16L390.72 21.428 375.672 21.428 375.672 23.76C375.672 25.6666667 376.156 27.126 377.124 28.138 378.092 29.15 379.470667 29.656 381.26 29.656 382.785333 29.656 384.017333 29.3846667 384.956 28.842 385.894667 28.2993333 386.466667 27.4853333 386.672 26.4L390.632 26.4C390.368 28.424 389.378 30.03 387.662 31.218 385.946 32.406 383.812 33 381.26 33ZM386.848 18.788 386.848 17.16C386.848 15.2533333 386.371333 13.7866667 385.418 12.76 384.464667 11.7333333 383.078667 11.22 381.26 11.22 379.470667 11.22 378.092 11.7333333 377.124 12.76 376.156 13.7866667 375.672 15.2533333 375.672 17.16L375.672 18.436 387.156 18.436 386.848 18.788ZM398.508 32.56 398.508.44 406.824.44C408.906667.44 410.703333.836 412.214 1.628 413.724667 2.42 414.898 3.53466667 415.734 4.972 416.57 6.40933333 416.988 8.11066667 416.988 10.076L416.988 22.88C416.988 24.8453333 416.57 26.554 415.734 28.006 414.898 29.458 413.724667 30.58 412.214 31.372 410.703333 32.164 408.906667 32.56 406.824 32.56L398.508 32.56ZM402.468 29.04 406.824 29.04C408.76 29.04 410.278 28.4973333 411.378 27.412 412.478 26.3266667 413.028 24.816 413.028 22.88L413.028 10.076C413.028 8.16933333 412.478 6.67333333 411.378 5.588 410.278 4.50266667 408.76 3.96 406.824 3.96L402.468 3.96 402.468 29.04ZM434.06 32.912C432.124 32.912 430.444667 32.538 429.022 31.79 427.599333 31.042 426.506667 29.9786667 425.744 28.6 424.981333 27.2213333 424.6 25.5786667 424.6 23.672L424.6 17.248C424.6 15.3413333 424.981333 13.6986667 425.744 12.32 426.506667 10.9413333 427.599333 9.878 429.022 9.13 430.444667 8.382 432.124 8.008 434.06 8.008 436.025333 8.008 437.712 8.382 439.12 9.13 440.528 9.878 441.613333 10.934 442.376 12.298 443.138667 13.662 443.52 15.2973333 443.52 17.204L443.52 23.672C443.52 25.5786667 443.138667 27.2213333 442.376 28.6 441.613333 29.9786667 440.528 31.042 439.12 31.79 437.712 32.538 436.025333 32.912 434.06 32.912ZM434.06 29.392C435.790667 29.392 437.14 28.908 438.108 27.94 439.076 26.972 439.56 25.5493333 439.56 23.672L439.56 17.248C439.56 15.3706667 439.076 13.948 438.108 12.98 437.14 12.012 435.790667 11.528 434.06 11.528 432.358667 11.528 431.016667 12.012 430.034 12.98 429.051333 13.948 428.56 15.3706667 428.56 17.248L428.56 23.672C428.56 25.5493333 429.051333 26.972 430.034 27.94 431.016667 28.908 432.358667 29.392 434.06 29.392ZM460.636 33C458.7 33 457.006 32.6333333 455.554 31.9 454.102 31.1666667 452.98 30.1033333 452.188 28.71 451.396 27.3166667 451 25.6666667 451 23.76L451 17.16C451 15.224 451.396 13.5666667 452.188 12.188 452.98 10.8093333 454.102 9.75333333 455.554 9.02 457.006 8.28666667 458.7 7.92 460.636 7.92 463.422667 7.92 465.666667 8.668 467.368 10.164 469.069333 11.66 469.964 13.6986667 470.052 16.28L466.092 16.28C466.004 14.7253333 465.483333 13.53 464.53 12.694 463.576667 11.858 462.278667 11.44 460.636 11.44 458.905333 11.44 457.526667 11.9313333 456.5 12.914 455.473333 13.8966667 454.96 15.2973333 454.96 17.116L454.96 23.76C454.96 25.5786667 455.473333 26.9866667 456.5 27.984 457.526667 28.9813333 458.905333 29.48 460.636 29.48 462.278667 29.48 463.576667 29.0546667 464.53 28.204 465.483333 27.3533333 466.004 26.1653333 466.092 24.64L470.052 24.64C469.964 27.2213333 469.069333 29.26 467.368 30.756 465.666667 32.252 463.422667 33 460.636 33ZM486.816 33C484.029333 33 481.8 32.1713333 480.128 30.514 478.456 28.8566667 477.62 26.6053333 477.62 23.76L477.62 8.36 481.58 8.36 481.58 23.76C481.58 25.5786667 482.049333 26.994 482.988 28.006 483.926667 29.018 485.202667 29.524 486.816 29.524 488.458667 29.524 489.756667 29.018 490.71 28.006 491.663333 26.994 492.14 25.5786667 492.14 23.76L492.14 8.36 496.1 8.36 496.1 23.76C496.1 26.6053333 495.249333 28.8566667 493.548 30.514 491.846667 32.1713333 489.602667 33 486.816 33ZM502.7 32.56 502.7 8.36 506.176 8.36 506.176 11.264 506.968 11.264 506.352 12.32C506.352 11.0293333 506.733333 9.97333333 507.496 9.152 508.258667 8.33066667 509.256 7.92 510.488 7.92 511.778667 7.92 512.827333 8.448 513.634 9.504 514.440667 10.56 514.844 11.9386667 514.844 13.64L513.656 11.264 515.504 11.264 514.668 12.32C514.668 11.0293333 515.056667 9.97333333 515.834 9.152 516.611333 8.33066667 517.630667 7.92 518.892 7.92 520.358667 7.92 521.546667 8.49933333 522.456 9.658 523.365333 10.8166667 523.82 12.32 523.82 14.168L523.82 32.56 520.168 32.56 520.168 14.124C520.168 13.0973333 519.940667 12.3126667 519.486 11.77 519.031333 11.2273333 518.378667 10.956 517.528 10.956 516.677333 10.956 516.017333 11.2273333 515.548 11.77 515.078667 12.3126667 514.844 13.0826667 514.844 14.08L514.844 32.56 511.676 32.56 511.676 14.124C511.676 13.0973333 511.434 12.3126667 510.95 11.77 510.466 11.2273333 509.798667 10.956 508.948 10.956 508.126667 10.956 507.488667 11.2273333 507.034 11.77 506.579333 12.3126667 506.352 13.0826667 506.352 14.08L506.352 32.56 502.7 32.56ZM539.66 33C537.753333 33 536.088667 32.6186667 534.666 31.856 533.243333 31.0933333 532.143333 30.0153333 531.366 28.622 530.588667 27.2286667 530.2 25.608 530.2 23.76L530.2 17.16C530.2 15.2826667 530.588667 13.6546667 531.366 12.276 532.143333 10.8973333 533.243333 9.82666667 534.666 9.064 536.088667 8.30133333 537.753333 7.92 539.66 7.92 541.566667 7.92 543.231333 8.30133333 544.654 9.064 546.076667 9.82666667 547.176667 10.8973333 547.954 12.276 548.731333 13.6546667 549.12 15.2826667 549.12 17.16L549.12 21.428 534.072 21.428 534.072 23.76C534.072 25.6666667 534.556 27.126 535.524 28.138 536.492 29.15 537.870667 29.656 539.66 29.656 541.185333 29.656 542.417333 29.3846667 543.356 28.842 544.294667 28.2993333 544.866667 27.4853333 545.072 26.4L549.032 26.4C548.768 28.424 547.778 30.03 546.062 31.218 544.346 32.406 542.212 33 539.66 33ZM545.248 18.788 545.248 17.16C545.248 15.2533333 544.771333 13.7866667 543.818 12.76 542.864667 11.7333333 541.478667 11.22 539.66 11.22 537.870667 11.22 536.492 11.7333333 535.524 12.76 534.556 13.7866667 534.072 15.2533333 534.072 17.16L534.072 18.436 545.556 18.436 545.248 18.788ZM556.908 32.56 556.908 8.36 560.868 8.36 560.868 12.98 561.704 12.98 560.868 13.904C560.868 11.9973333 561.44 10.5233333 562.584 9.482 563.728 8.44066667 565.312 7.92 567.336 7.92 569.770667 7.92 571.706667 8.668 573.144 10.164 574.581333 11.66 575.3 13.6986667 575.3 16.28L575.3 32.56 571.34 32.56 571.34 16.72C571.34 14.9893333 570.878 13.662 569.954 12.738 569.03 11.814 567.776 11.352 566.192 11.352 564.549333 11.352 563.251333 11.8506667 562.298 12.848 561.344667 13.8453333 560.868 15.2826667 560.868 17.16L560.868 32.56 556.908 32.56ZM595.1 32.56C593.105333 32.56 591.506667 31.9806667 590.304 30.822 589.101333 29.6633333 588.5 28.116 588.5 26.18L588.5 11.968 581.68 11.968 581.68 8.36 588.5 8.36 588.5 1.54 592.46 1.54 592.46 8.36 602.14 8.36 602.14 11.968 592.46 11.968 592.46 26.18C592.46 27.0013333 592.702 27.6686667 593.186 28.182 593.67 28.6953333 594.308 28.952 595.1 28.952L601.7 28.952 601.7 32.56 595.1 32.56Z"/></g></g></svg>