<svg xmlns="http://www.w3.org/2000/svg" width="800" height="200" viewBox="0 0 800 200"><defs><linearGradient id="a" x1="100%" x2="0%" y1="50%" y2="50%"><stop offset="0%" stop-color="#FFF"/><stop offset="100%" stop-color="#FFF" stop-opacity="0"/></linearGradient></defs><g fill="none" fill-rule="evenodd"><g transform="translate(-521.209)"><rect width="800" height="200" x="521.209" fill="#FFF" fill-rule="nonzero"/><g transform="translate(0 10)"><path fill="#DA8FEF" d="M647.209,74 L647.209,122 L641.209,122 L641.209,74 L647.209,74 Z M663.209,116 L663.209,122 L647.209,122 L647.209,116 L663.209,116 Z M687.209,119 L663.209,134 L663.209,104 L687.209,119 Z M1228.329,0 C1233.869,0 1236.639,0 1238.385,1.6913 C1238.43,1.735 1238.474,1.7794 1238.518,1.8246 C1240.209,3.5684 1240.209,6.3389 1240.209,11.88 L1240.209,62.12 C1240.209,67.661 1240.209,70.4315 1238.518,72.1755 C1238.474,72.2206 1238.43,72.265 1238.385,72.3087 C1236.639,74 1233.869,74 1228.329,74 L643.089,74 C637.549,74 634.779,74 633.033,72.3087 C632.988,72.265 632.944,72.2206 632.9,72.1755 C631.209,70.4301 631.209,67.66 631.209,62.12 L631.209,11.88 C631.209,6.3398 631.209,3.5697 632.9,1.8245 C632.944,1.7794 632.988,1.735 633.033,1.6913 C634.779,0 637.549,0 643.089,0 L1228.329,0 Z"/><path fill="#000" fill-rule="nonzero" d="M737.656 113.312 746.987 113.312 746.987 122.342 727.431 122.342 727.431 113.312 736.22 113.312 736.22 104.01 737.656 104.01 737.656 107.547 749.36 107.547 749.36 108.902 737.656 108.902 737.656 113.312ZM703.906 107.76 703.906 109.137 697.16 109.137C696.318 110.521 695.358 111.781 694.399 112.799 694.252 112.499 693.798 111.869 693.557 111.539 695.417 109.737 697.072 106.983 698.032 104.068L699.35 104.457C698.991 105.57 698.479 106.712 697.907 107.76L703.906 107.76ZM716.811 104.31 716.811 108.36 720.502 108.36 720.502 109.737 716.811 109.737 716.811 114.117 715.456 114.117 715.456 109.737 710.329 109.737 710.329 114.117 708.981 114.117 708.981 109.737 705.078 109.737 705.078 108.36 708.981 108.36 708.981 104.31 710.329 104.31 710.329 108.36 715.456 108.36 715.456 104.31 716.811 104.31ZM699.951 120.357 699.951 128.011 704.235 125.763C704.301 126.151 704.477 126.722 704.602 126.993 699.108 130.018 698.361 130.443 697.937 130.89 697.79 130.56 697.373 130.077 697.072 129.776 697.578 129.447 698.596 128.517 698.596 127.14L698.596 120.357 694.157 120.357 694.157 119.01 698.596 119.01 698.596 114.271 695.512 114.271 695.512 112.923 703.042 112.923 703.042 114.271 699.951 114.271 699.951 119.01 703.906 119.01 703.906 120.357 699.951 120.357ZM728.808 120.958 745.551 120.958 745.551 114.688 728.808 114.688 728.808 120.958ZM707.326 131.219 705.979 131.219 705.979 115.348 719.602 115.348 719.602 130.919 718.217 130.919 718.217 129.688 707.326 129.688 707.326 131.219ZM712.248 121.771 712.248 116.703 707.326 116.703 707.326 121.771 712.248 121.771ZM713.566 121.771 718.217 121.771 718.217 116.703 713.566 116.703 713.566 121.771ZM707.326 123.06 707.326 128.341 712.248 128.341 712.248 123.06 707.326 123.06ZM713.566 123.06 713.566 128.341 718.217 128.341 718.217 123.06 713.566 123.06ZM749.06 130.919C748.342 129.3 746.657 126.751 745.097 124.891L746.357 124.378C747.917 126.209 749.631 128.729 750.378 130.348L749.06 130.919ZM729.321 124.891C728.266 127.169 726.677 129.688 725.029 131.219L723.74 130.589C725.388 129.183 726.977 126.781 728.002 124.532L729.321 124.891ZM741.105 130.86C740.812 129.388 739.882 126.993 738.981 125.191L740.3 124.891C741.23 126.693 742.189 129.059 742.49 130.501L741.105 130.86ZM733.459 130.89C733.459 129.417 733.188 127.022 732.77 125.162L734.177 125.067C734.602 126.927 734.902 129.3 734.902 130.648L733.459 130.89ZM747.318 165 745.582 165 745.582 141.152 747.318 141.152 747.318 147.993 747.288 151.472C748.907 149.854 750.562 148.586 752.752 148.586 756.077 148.586 757.608 150.659 757.608 154.768L757.608 165 755.872 165 755.872 155.01C755.872 151.677 754.818 150.146 752.357 150.146 750.496 150.146 749.178 151.113 747.318 153.032L747.318 165ZM709.611 165 707.692 165 705.261 157.646 696.735 157.646 694.252 165 692.451 165 700.097 143.13 701.958 143.13 709.611 165ZM698.566 152.249 697.219 156.211 704.777 156.211 703.459 152.249C702.558 149.7 701.84 147.393 701.057 144.749L700.939 144.749C700.192 147.393 699.438 149.7 698.566 152.249ZM714.558 165 712.822 165 712.822 149.011 714.257 149.011 714.47 151.443 714.528 151.443C716.147 149.854 717.802 148.586 719.992 148.586 723.318 148.586 724.848 150.659 724.848 154.768L724.848 165 723.112 165 723.112 155.01C723.112 151.677 722.058 150.146 719.597 150.146 717.736 150.146 716.418 151.113 714.558 153.032L714.558 165ZM741.708 163.323C740.331 164.517 738.617 165.388 736.61 165.388 732.436 165.388 729.286 162.327 729.286 157.017 729.286 151.677 732.736 148.586 736.698 148.586 738.83 148.586 740.273 149.553 741.378 150.542L740.39 151.743C739.401 150.813 738.229 150.117 736.728 150.117 733.549 150.117 731.117 152.937 731.117 157.017 731.117 161.104 733.337 163.887 736.698 163.887 738.346 163.887 739.789 163.081 740.866 162.122L741.708 163.323ZM776.392 157.017C776.392 162.327 773.03 165.388 769.163 165.388 765.288 165.388 761.926 162.327 761.926 157.017 761.926 151.677 765.288 148.586 769.163 148.586 773.03 148.586 776.392 151.677 776.392 157.017ZM782.808 165 781.072 165 781.072 149.011 782.507 149.011 782.72 151.978 782.778 151.978C783.862 149.971 785.452 148.586 787.312 148.586 787.942 148.586 788.418 148.682 788.931 148.953L788.572 150.513C788.03 150.3 787.73 150.242 787.1 150.242 785.686 150.242 783.98 151.289 782.808 154.263L782.808 165ZM763.757 157.017C763.757 161.104 766.042 163.887 769.163 163.887 772.275 163.887 774.59 161.104 774.59 157.017 774.59 152.937 772.275 150.117 769.163 150.117 766.042 150.117 763.757 152.937 763.757 157.017ZM791.3 17.6758 791.3 49 794.91 49 794.91 34.0791C796.17 32.7900333 797.298 31.8232333 798.294 31.1787 799.289333 30.5341667 800.420667 30.2119 801.688 30.2119 803.442667 30.2119 804.699667 30.7024667 805.459 31.6836 806.225 32.6647333 806.608 34.1686333 806.608 36.1953L806.608 49 810.217 49 810.217 35.7119C810.217 32.8974333 809.615667 30.7561667 808.413 29.2881 807.209667 27.8199667 805.347667 27.0859 802.827 27.0859 801.158333 27.0859 799.683 27.4833667 798.401 28.2783 797.126333 29.0661 795.934 30.0615333 794.824 31.2646L794.684 31.2646 794.91 26.2051 794.91 17.6758 791.3 17.6758ZM976.1 17.6758 976.1 49 979.71 49 979.71 34.0791C980.97 32.7900333 982.097667 31.8232333 983.093 31.1787 984.089 30.5341667 985.220667 30.2119 986.488 30.2119 988.242667 30.2119 989.499333 30.7024667 990.258 31.6836 991.024667 32.6647333 991.408 34.1686333 991.408 36.1953L991.408 49 995.017 49 995.017 35.7119C995.017 32.8974333 994.415667 30.7561667 993.213 29.2881 992.009667 27.8199667 990.147667 27.0859 987.627 27.0859 985.958333 27.0859 984.483 27.4833667 983.201 28.2783 981.926333 29.0661 980.734 30.0615333 979.624 31.2646L979.484 31.2646 979.71 26.2051 979.71 17.6758 976.1 17.6758ZM662.77 48.3662C664.560667 49.1396667 666.512333 49.5264 668.625 49.5264 670.737667 49.5264 672.556667 49.1611667 674.082 48.4307 675.607333 47.6930333 676.781667 46.7011667 677.605 45.4551 678.429 44.2089667 678.841 42.8232333 678.841 41.2979 678.841 39.8584333 678.554333 38.6624667 677.981 37.71 677.408333 36.7574667 676.645667 35.9518 675.693 35.293 674.741 34.6341333 673.663333 34.0683667 672.46 33.5957L668.41 31.8447C667.586667 31.4866333 666.777333 31.1178333 665.982 30.7383 665.194667 30.3587 664.543 29.8753 664.027 29.2881 663.519 28.7008333 663.265 27.9524667 663.265 27.043 663.265 25.7539333 663.777 24.7298333 664.801 23.9707 665.825 23.2044333 667.174667 22.8213 668.85 22.8213 670.347333 22.8213 671.665333 23.0648 672.804 23.5518 673.949333 24.0316 674.991333 24.6976 675.93 25.5498L677.863 23.1758C676.810333 22.1158667 675.521333 21.2565 673.996 20.5977 672.470667 19.9388333 670.798333 19.6094 668.979 19.6094 667.131667 19.6094 665.495333 19.9388333 664.07 20.5977 662.652 21.2565 661.538333 22.166 660.729 23.3262 659.920333 24.4863333 659.516 25.8004667 659.516 27.2686 659.516 28.6722 659.838 29.861 660.482 30.835 661.134 31.8018 661.936333 32.5931333 662.889 33.209 663.841 33.8248667 664.800333 34.3225667 665.767 34.7021L669.903 36.5068C670.898333 36.915 671.783 37.3268 672.557 37.7422 673.337 38.1504 673.952667 38.6624333 674.404 39.2783 674.862667 39.8941667 675.092 40.7141667 675.092 41.7383 675.092 43.0918333 674.540333 44.1947 673.437 45.0469 672.341667 45.8919667 670.798667 46.3145 668.808 46.3145 667.160667 46.3145 665.61 45.9850667 664.156 45.3262 662.709333 44.6673333 661.441667 43.7936333 660.353 42.7051L658.151 45.2617C659.447667 46.5507667 660.987333 47.5856 662.77 48.3662ZM896.986 45.874 896.986 49 915.022 49 915.022 45.874 907.857 45.874 907.857 23.2188 915.022 23.2188 915.022 20.1357 896.986 20.1357 896.986 23.2188 904.162 23.2188 904.162 45.874 896.986 45.874ZM956.962 23.2188 956.962 49 960.657 49 960.657 23.2188 970.164 23.2188 970.164 20.1357 947.455 20.1357 947.455 23.2188 956.962 23.2188ZM1028.632 20.1357 1028.632 49 1035.936 49C1040.19 49 1043.452 47.7252667 1045.722 45.1758 1047.99933 42.6191333 1049.138 39.0384 1049.138 34.4336 1049.138 29.8574 1047.99233 26.3303667 1045.701 23.8525 1043.41633 21.3746333 1040.104 20.1357 1035.764 20.1357L1028.632 20.1357ZM636.156 40.0195 635.06 49 637.434 49 638.53 40.0195 644.341 40.0195 643.235 49 645.619 49 646.715 40.0195 650.765 40.0195 650.765 37.5166 647.027 37.5166 647.811 31.0068 651.646 31.0068 651.646 28.4502 648.122 28.4502 649.089 20.4043 646.758 20.4043 645.748 28.4502 639.937 28.4502 640.904 20.4043 638.573 20.4043 637.563 28.4502 633.513 28.4502 633.513 31.0068 637.251 31.0068 636.467 37.5166 632.632 37.5166 632.632 40.0195 636.156 40.0195ZM1222.014 48.4092C1223.21733 49.154 1224.861 49.5264 1226.945 49.5264 1228.291 49.5264 1229.49767 49.4010667 1230.565 49.1504 1231.639 48.9069333 1232.65933 48.6061333 1233.626 48.248L1232.842 45.6162C1232.076 45.9098 1231.281 46.1461333 1230.457 46.3252 1229.641 46.4970667 1228.71733 46.583 1227.686 46.583 1225.638 46.583 1224.22367 46.0852667 1223.443 45.0898 1222.669 44.0872 1222.282 42.6334333 1222.282 40.7285L1222.282 30.5664 1232.799 30.5664 1232.799 27.6123 1222.282 27.6123 1222.282 20.748 1219.285 20.748 1218.802 27.6123 1212.647 27.8379 1212.647 30.5664 1218.673 30.5664 1218.673 40.6855C1218.673 42.4472333 1218.92733 43.9869667 1219.436 45.3047 1219.95133 46.6223667 1220.81067 47.6572 1222.014 48.4092ZM1035.496 46.0029 1032.284 46.0029 1032.284 23.1328 1035.496 23.1328C1038.81133 23.1328 1041.282 24.1067667 1042.908 26.0547 1044.54067 28.0026333 1045.357 30.7956 1045.357 34.4336 1045.357 38.0716 1044.54067 40.9111 1042.908 42.9521 1041.282 44.9859667 1038.81133 46.0029 1035.496 46.0029ZM689.589 48.2051C691.193667 49.0859667 692.934 49.5264 694.81 49.5264 696.686 49.5264 698.422667 49.0859667 700.02 48.2051 701.616667 47.3242333 702.905667 46.0495 703.887 44.3809 704.875667 42.7051 705.37 40.6963 705.37 38.3545 705.37 35.9482333 704.875667 33.9108 703.887 32.2422 702.905667 30.5664 701.616667 29.2880667 700.02 28.4072 698.422667 27.5263333 696.686 27.0859 694.81 27.0859 692.934 27.0859 691.193667 27.5263333 689.589 28.4072 687.992333 29.2880667 686.703333 30.5664 685.722 32.2422 684.740667 33.9108 684.25 35.9482333 684.25 38.3545 684.25 40.6963 684.740667 42.7051 685.722 44.3809 686.703333 46.0495 687.992333 47.3242333 689.589 48.2051ZM710.564 27.6123 710.564 49 714.163 49 714.163 33.5098C714.693 32.3997333 715.23 31.5725667 715.774 31.0283 716.318667 30.4840333 716.956333 30.2119 717.687 30.2119 718.481667 30.2119 719.047333 30.527 719.384 31.1572 719.720667 31.7874 719.889 32.7184 719.889 33.9502L719.889 49 723.23 49 723.23 33.5098C723.816667 32.3997333 724.35 31.5725667 724.83 31.0283 725.317333 30.4840333 725.929667 30.2119 726.667 30.2119 728.192333 30.2119 728.955 31.458 728.955 33.9502L728.955 49 732.564 49 732.564 33.6924C732.564 31.5511333 732.145333 29.9147333 731.308 28.7832 730.47 27.6516667 729.302667 27.0859 727.806 27.0859 726.574 27.0859 725.582 27.4189333 724.83 28.085 724.085333 28.7438 723.405 29.6425333 722.789 30.7812 722.173 28.3176667 720.823 27.0859 718.739 27.0859 717.507667 27.0859 716.526667 27.3938667 715.796 28.0098 715.065333 28.6256667 714.420667 29.4313333 713.862 30.4268L713.776 30.4268 713.465 27.6123 710.564 27.6123ZM743.098 48.2051C744.845333 49.0859667 746.789667 49.5264 748.931 49.5264 750.657 49.5264 752.200333 49.2793333 753.561 48.7852 754.929 48.2838667 756.143 47.6823 757.203 46.9805L755.881 44.5957C754.914333 45.2115667 753.908333 45.7057 752.863 46.0781 751.824333 46.4433667 750.660667 46.626 749.372 46.626 747.137333 46.626 745.250333 46.0101 743.711 44.7783 742.171 43.5465667 741.282667 41.7275667 741.046 39.3213L757.901 39.3213C757.958333 39.0277 758.001333 38.6911 758.03 38.3115 758.066 37.9247667 758.084 37.5273 758.084 37.1191 758.084 34.0969667 757.224333 31.6692333 755.505 29.8359 753.786333 28.0025667 751.387333 27.0859 748.308 27.0859 746.403333 27.0859 744.620333 27.5335 742.959 28.4287 741.304333 29.3239 739.965 30.6094 738.941 32.2852 737.917 33.9538 737.405 35.9482667 737.405 38.2686 737.405 40.639 737.917 42.6692667 738.941 44.3594 739.965 46.0423333 741.350667 47.3242333 743.098 48.2051ZM822.298 48.2051C824.045333 49.0859667 825.989667 49.5264 828.131 49.5264 829.857 49.5264 831.400333 49.2793333 832.761 48.7852 834.129 48.2838667 835.343 47.6823 836.403 46.9805L835.081 44.5957C834.114333 45.2115667 833.108333 45.7057 832.063 46.0781 831.024333 46.4433667 829.860667 46.626 828.572 46.626 826.337333 46.626 824.45 46.0101 822.91 44.7783 821.370667 43.5465667 820.482667 41.7275667 820.246 39.3213L837.101 39.3213C837.158333 39.0277 837.201333 38.6911 837.23 38.3115 837.265333 37.9247667 837.283 37.5273 837.283 37.1191 837.283 34.0969667 836.423667 31.6692333 834.705 29.8359 832.986333 28.0025667 830.587333 27.0859 827.508 27.0859 825.603333 27.0859 823.82 27.5335 822.158 28.4287 820.504 29.3239 819.165 30.6094 818.141 32.2852 817.117 33.9538 816.605 35.9482667 816.605 38.2686 816.605 40.639 817.117 42.6692667 818.141 44.3594 819.165 46.0423333 820.550667 47.3242333 822.298 48.2051ZM846.431 27.6123 846.431 49 850.041 49 850.041 36.4639C851.329667 34.2295 852.715333 32.6504 854.198 31.7266 855.680667 30.8027333 857.227667 30.3408 858.839 30.3408 859.691 30.3408 860.378333 30.4016667 860.901 30.5234 861.431 30.638 862.065 30.8278 862.803 31.0928L863.64 27.9668C862.988667 27.6445333 862.319333 27.4189333 861.632 27.29 860.944 27.1539333 860.202667 27.0859 859.408 27.0859 857.446 27.0859 855.641333 27.5872 853.994 28.5898 852.354 29.5852667 850.979 30.9459667 849.869 32.6719L849.729 32.6719 849.429 27.6123 846.431 27.6123ZM875.098 48.2051C876.845333 49.0859667 878.789667 49.5264 880.931 49.5264 882.657 49.5264 884.200333 49.2793333 885.561 48.7852 886.929 48.2838667 888.143 47.6823 889.203 46.9805L887.881 44.5957C886.914333 45.2115667 885.908333 45.7057 884.863 46.0781 883.824333 46.4433667 882.660333 46.626 881.371 46.626 879.137 46.626 877.25 46.0101 875.71 44.7783 874.170667 43.5465667 873.282667 41.7275667 873.046 39.3213L889.901 39.3213C889.958333 39.0277 890.001333 38.6911 890.03 38.3115 890.065333 37.9247667 890.083 37.5273 890.083 37.1191 890.083 34.0969667 889.223667 31.6692333 887.505 29.8359 885.786333 28.0025667 883.387333 27.0859 880.308 27.0859 878.403333 27.0859 876.62 27.5335 874.958 28.4287 873.304 29.3239 871.965 30.6094 870.941 32.2852 869.917 33.9538 869.405 35.9482667 869.405 38.2686 869.405 40.639 869.917 42.6692667 870.941 44.3594 871.965 46.0423333 873.350667 47.3242333 875.098 48.2051ZM923.3 27.6123 923.3 49 926.91 49 926.91 34.0791C928.17 32.7900333 929.297667 31.8232333 930.293 31.1787 931.289 30.5341667 932.420667 30.2119 933.688 30.2119 935.442667 30.2119 936.699667 30.7024667 937.459 31.6836 938.225 32.6647333 938.608 34.1686333 938.608 36.1953L938.608 49 942.217 49 942.217 35.7119C942.217 32.8974333 941.615667 30.7561667 940.413 29.2881 939.209667 27.8199667 937.347667 27.0859 934.827 27.0859 933.158333 27.0859 931.675667 27.4833667 930.379 28.2783 929.090333 29.0661 927.891 30.0615333 926.781 31.2646L926.598 31.2646 926.287 27.6123 923.3 27.6123ZM1007.098 48.2051C1008.84533 49.0859667 1010.78967 49.5264 1012.931 49.5264 1014.657 49.5264 1016.20033 49.2793333 1017.561 48.7852 1018.929 48.2838667 1020.14267 47.6823 1021.202 46.9805L1019.881 44.5957C1018.91433 45.2115667 1017.90833 45.7057 1016.863 46.0781 1015.82433 46.4433667 1014.66033 46.626 1013.371 46.626 1011.137 46.626 1009.25 46.0101 1007.71 44.7783 1006.17067 43.5465667 1005.28267 41.7275667 1005.046 39.3213L1021.901 39.3213C1021.95833 39.0277 1022.00133 38.6911 1022.03 38.3115 1022.06533 37.9247667 1022.083 37.5273 1022.083 37.1191 1022.083 34.0969667 1021.22367 31.6692333 1019.505 29.8359 1017.78633 28.0025667 1015.38733 27.0859 1012.308 27.0859 1010.40267 27.0859 1008.61933 27.5335 1006.958 28.4287 1005.304 29.3239 1003.965 30.6094 1002.941 32.2852 1001.91633 33.9538 1001.404 35.9482667 1001.404 38.2686 1001.404 40.639 1001.91633 42.6692667 1002.941 44.3594 1003.965 46.0423333 1005.35067 47.3242333 1007.098 48.2051ZM1059.189 48.2051C1060.793 49.0859667 1062.533 49.5264 1064.409 49.5264 1066.28567 49.5264 1068.02233 49.0859667 1069.619 48.2051 1071.21633 47.3242333 1072.50567 46.0495 1073.487 44.3809 1074.475 42.7051 1074.969 40.6963 1074.969 38.3545 1074.969 35.9482333 1074.475 33.9108 1073.487 32.2422 1072.50567 30.5664 1071.21633 29.2880667 1069.619 28.4072 1068.02233 27.5263333 1066.28567 27.0859 1064.409 27.0859 1062.533 27.0859 1060.793 27.5263333 1059.189 28.4072 1057.59167 29.2880667 1056.30267 30.5664 1055.322 32.2422 1054.34067 33.9108 1053.85 35.9482333 1053.85 38.3545 1053.85 40.6963 1054.34067 42.7051 1055.322 44.3809 1056.30267 46.0495 1057.59167 47.3242333 1059.189 48.2051ZM1086.845 48.2051C1088.607 49.0859667 1090.60167 49.5264 1092.829 49.5264 1094.41167 49.5264 1095.93 49.2327667 1097.384 48.6455 1098.83733 48.0582333 1100.15133 47.2382333 1101.326 46.1855L1099.693 43.8545C1098.81233 44.5849667 1097.82067 45.2151667 1096.718 45.7451 1095.622 46.2750333 1094.415 46.54 1093.097 46.54 1091.45033 46.54 1090.011 46.1962667 1088.779 45.5088 1087.547 44.8141333 1086.58733 43.8509 1085.9 42.6191 1085.21267 41.3873667 1084.869 39.9658333 1084.869 38.3545 1084.869 36.7073667 1085.22 35.2607333 1085.922 34.0146 1086.62333 32.7685333 1087.59733 31.8017667 1088.844 31.1143 1090.09667 30.4267667 1091.543 30.083 1093.183 30.083 1094.30033 30.083 1095.33533 30.305 1096.288 30.749 1097.24067 31.1858667 1098.15733 31.7838667 1099.038 32.543L1100.843 30.2119C1099.96167 29.3597 1098.873 28.6256667 1097.577 28.0098 1096.28767 27.3938667 1094.78 27.0859 1093.054 27.0859 1090.91333 27.0859 1088.93333 27.5263333 1087.114 28.4072 1085.29533 29.2880667 1083.84167 30.5664 1082.753 32.2422 1081.67167 33.9108 1081.131 35.9482333 1081.131 38.3545 1081.131 40.6963 1081.643 42.7051 1082.667 44.3809 1083.691 46.0495 1085.08367 47.3242333 1086.845 48.2051ZM1132.964 27.6123 1132.964 49 1136.562 49 1136.562 33.5098C1137.092 32.3997333 1137.62933 31.5725667 1138.174 31.0283 1138.718 30.4840333 1139.35533 30.2119 1140.086 30.2119 1140.88067 30.2119 1141.44633 30.527 1141.783 31.1572 1142.11967 31.7874 1142.288 32.7184 1142.288 33.9502L1142.288 49 1145.629 49 1145.629 33.5098C1146.21633 32.3997333 1146.74967 31.5725667 1147.229 31.0283 1147.71633 30.4840333 1148.32867 30.2119 1149.066 30.2119 1150.59133 30.2119 1151.354 31.458 1151.354 33.9502L1151.354 49 1154.964 49 1154.964 33.6924C1154.964 31.5511333 1154.545 29.9147333 1153.707 28.7832 1152.869 27.6516667 1151.70167 27.0859 1150.205 27.0859 1148.973 27.0859 1147.981 27.4189333 1147.229 28.085 1146.48433 28.7438 1145.804 29.6425333 1145.188 30.7812 1144.572 28.3176667 1143.222 27.0859 1141.138 27.0859 1139.90667 27.0859 1138.92567 27.3938667 1138.195 28.0098 1137.46433 28.6256667 1136.81967 29.4313333 1136.261 30.4268L1136.176 30.4268 1135.864 27.6123 1132.964 27.6123ZM1165.497 48.2051C1167.24433 49.0859667 1169.18867 49.5264 1171.33 49.5264 1173.056 49.5264 1174.59933 49.2793333 1175.96 48.7852 1177.328 48.2838667 1178.542 47.6823 1179.602 46.9805L1178.281 44.5957C1177.31367 45.2115667 1176.30733 45.7057 1175.262 46.0781 1174.22333 46.4433667 1173.05967 46.626 1171.771 46.626 1169.53633 46.626 1167.64933 46.0101 1166.11 44.7783 1164.57 43.5465667 1163.682 41.7275667 1163.446 39.3213L1180.3 39.3213C1180.35733 39.0277 1180.40033 38.6911 1180.429 38.3115 1180.465 37.9247667 1180.483 37.5273 1180.483 37.1191 1180.483 34.0969667 1179.62367 31.6692333 1177.905 29.8359 1176.18567 28.0025667 1173.78633 27.0859 1170.707 27.0859 1168.80233 27.0859 1167.01933 27.5335 1165.358 28.4287 1163.70333 29.3239 1162.364 30.6094 1161.34 32.2852 1160.316 33.9538 1159.804 35.9482667 1159.804 38.2686 1159.804 40.639 1160.316 42.6692667 1161.34 44.3594 1162.364 46.0423333 1163.74967 47.3242333 1165.497 48.2051ZM1187.3 27.6123 1187.3 49 1190.909 49 1190.909 34.0791C1192.16967 32.7900333 1193.29767 31.8232333 1194.293 31.1787 1195.28833 30.5341667 1196.41967 30.2119 1197.687 30.2119 1199.44167 30.2119 1200.69867 30.7024667 1201.458 31.6836 1202.224 32.6647333 1202.607 34.1686333 1202.607 36.1953L1202.607 49 1206.217 49 1206.217 35.7119C1206.217 32.8974333 1205.61533 30.7561667 1204.412 29.2881 1203.20867 27.8199667 1201.34667 27.0859 1198.826 27.0859 1197.15733 27.0859 1195.675 27.4833667 1194.379 28.2783 1193.08967 29.0661 1191.89 30.0615333 1190.78 31.2646L1190.597 31.2646 1190.286 27.6123 1187.3 27.6123ZM761.162 27.6123 765.824 49 770.486 49 772.86 38.7949C773.211333 37.2981667 773.566 35.1855333 773.924 32.457L774.096 32.457C774.446667 35.1855333 774.797667 37.2981667 775.149 38.7949L777.619 49 782.281 49 786.858 27.6123 783.517 27.6123 780.96 40.0195C780.752667 41.0221 780.580667 41.9996333 780.444 42.9521 780.315333 43.9046333 780.165 44.8929333 779.993 45.917L779.811 45.917C779.696333 44.8929333 779.506333 43.9046333 779.241 42.9521 778.976333 41.9996333 778.729333 41.0221 778.5 40.0195L775.943 28.9336 772.334 28.9336 769.692 40.0195C769.462667 41.0221 769.237 41.9996333 769.015 42.9521 768.793 43.9046333 768.610333 44.8929333 768.467 45.917L768.284 45.917C768.169333 44.8929333 768.029667 43.9046333 767.865 42.9521 767.707667 41.9996333 767.525333 41.0221 767.318 40.0195L764.772 27.6123 761.162 27.6123ZM1109.196 47.335C1110.39867 48.7959333 1112.27833 49.5264 1114.835 49.5264 1116.475 49.5264 1117.93967 49.1325 1119.229 48.3447 1120.51767 47.5497667 1121.70633 46.5221 1122.795 45.2617L1122.967 45.2617 1123.279 49 1126.222 49 1126.222 27.6123 1122.623 27.6123 1122.623 42.4473C1121.449 43.8223 1120.35333 44.8249 1119.336 45.4551 1118.32667 46.0853 1117.206 46.4004 1115.974 46.4004 1114.18333 46.4004 1112.912 45.9098333 1112.16 44.9287 1111.41533 43.9475667 1111.043 42.4436667 1111.043 40.417L1111.043 27.6123 1107.391 27.6123 1107.391 40.9004C1107.391 43.722 1107.99267 45.8668667 1109.196 47.335ZM743.689 31.6406C745.071 30.5091333 746.643 29.9434 748.405 29.9434 750.217 29.9434 751.695667 30.4876667 752.841 31.5762 753.987 32.6647333 754.631667 34.3082667 754.775 36.5068L741.143 36.5068C741.465667 34.3942 742.314333 32.7721333 743.689 31.6406ZM822.889 31.6406C824.271 30.5091333 825.843 29.9434 827.605 29.9434 829.417 29.9434 830.895667 30.4876667 832.041 31.5762 833.187 32.6647333 833.831667 34.3082667 833.975 36.5068L820.343 36.5068C820.665 34.3942 821.513667 32.7721333 822.889 31.6406ZM875.689 31.6406C877.071 30.5091333 878.643 29.9434 880.405 29.9434 882.216333 29.9434 883.695 30.4876667 884.841 31.5762 885.987 32.6647333 886.631667 34.3082667 886.775 36.5068L873.143 36.5068C873.465 34.3942 874.313667 32.7721333 875.689 31.6406ZM1007.689 31.6406C1009.071 30.5091333 1010.64267 29.9434 1012.404 29.9434 1014.216 29.9434 1015.695 30.4876667 1016.841 31.5762 1017.987 32.6647333 1018.63167 34.3082667 1018.775 36.5068L1005.143 36.5068C1005.465 34.3942 1006.31367 32.7721333 1007.689 31.6406ZM1166.088 31.6406C1167.47 30.5091333 1169.042 29.9434 1170.804 29.9434 1172.616 29.9434 1174.09467 30.4876667 1175.24 31.5762 1176.386 32.6647333 1177.03067 34.3082667 1177.174 36.5068L1163.542 36.5068C1163.86467 34.3942 1164.71333 32.7721333 1166.088 31.6406ZM699.762 44.2734C698.516 45.7844667 696.865333 46.54 694.81 46.54 692.754667 46.54 691.104 45.7844667 689.858 44.2734 688.612 42.7623333 687.989 40.7893667 687.989 38.3545 687.989 35.8909667 688.612 33.8965 689.858 32.3711 691.104 30.8457 692.754667 30.083 694.81 30.083 696.865333 30.083 698.516 30.8457 699.762 32.3711 701.008 33.8965 701.631 35.8909667 701.631 38.3545 701.631 40.7893667 701.008 42.7623333 699.762 44.2734ZM1069.362 44.2734C1068.11533 45.7844667 1066.46433 46.54 1064.409 46.54 1062.35367 46.54 1060.703 45.7844667 1059.457 44.2734 1058.211 42.7623333 1057.588 40.7893667 1057.588 38.3545 1057.588 35.8909667 1058.211 33.8965 1059.457 32.3711 1060.703 30.8457 1062.35367 30.083 1064.409 30.083 1066.46433 30.083 1068.11533 30.8457 1069.362 32.3711 1070.608 33.8965 1071.231 35.8909667 1071.231 38.3545 1071.231 40.7893667 1070.608 42.7623333 1069.362 44.2734ZM644.653 37.5166 638.841 37.5166 639.636 31.0068 645.437 31.0068 644.653 37.5166Z"/><path fill="#CCC" fill-rule="nonzero" d="M26.271,17.6758 L26.271,49 L29.88,49 L29.88,43.1885 L34.94,38.2148 L42.814,49 L46.864,49 L37.185,36.0234 L45.725,27.6123 L41.589,27.6123 L30.052,38.8809 L29.88,38.8809 L29.88,17.6758 L26.271,17.6758 Z M219.106,47.5713 C220.323333,48.8747 222.06,49.5264 224.316,49.5264 C225.490667,49.5264 226.486,49.4154 227.302,49.1934 C228.125333,48.9785333 229.038333,48.6634 230.041,48.248 L229.118,45.5732 C227.706667,46.2177333 226.371,46.54 225.111,46.54 C223.850333,46.54 222.829667,46.1891 222.049,45.4873 C221.275667,44.7783 220.889,43.6468 220.889,42.0928 L220.889,17.6758 L209.663,17.6758 L209.663,20.6191 L217.28,20.6191 L217.28,41.8242 C217.28,44.3522 217.888667,46.2679 219.106,47.5713 Z M343.07,17.6758 L343.07,49 L346.68,49 L346.68,43.1885 L351.739,38.2148 L359.613,49 L363.663,49 L353.985,36.0234 L362.525,27.6123 L358.389,27.6123 L346.852,38.8809 L346.68,38.8809 L346.68,17.6758 L343.07,17.6758 Z M535.9054,47.5713 C537.1228,48.8747 538.859433,49.5264 541.1153,49.5264 C542.289767,49.5264 543.2852,49.4154 544.1016,49.1934 C544.9252,48.9785333 545.8383,48.6634 546.8409,48.248 L545.9171,45.5732 C544.5063,46.2177333 543.170667,46.54 541.9102,46.54 C540.6498,46.54 539.6293,46.1891 538.8487,45.4873 C538.0753,44.7783 537.6886,43.6468 537.6886,42.0928 L537.6886,17.6758 L526.46297,17.6758 L526.46297,20.6191 L534.0792,20.6191 L534.0792,41.8242 C534.0792,44.3522 534.687933,46.2679 535.9054,47.5713 Z M6.145,35.4971 C5.751,36.4352333 5.65433333,37.5345 5.855,38.7949 L9.066,38.7949 C8.92333333,37.6491 9.07033333,36.6501 9.507,35.7979 C9.951,34.9456333 10.5383333,34.1686 11.269,33.4668 C11.999,32.765 12.7543333,32.056 13.535,31.3398 C14.3156667,30.6165333 14.9673333,29.8216333 15.49,28.9551 C16.02,28.0885667 16.285,27.0573 16.285,25.8613 C16.285,23.7773667 15.5296667,22.1123333 14.019,20.8662 C12.5076667,19.6201333 10.5346667,18.9971 8.1,18.9971 C6.40266667,18.9971 4.877,19.3336667 3.523,20.0068 C2.177,20.68 1.00266667,21.5286333 0,22.5527 L2.159,24.54 C2.95433333,23.7451333 3.828,23.1221 4.78,22.6709 C5.73266667,22.2125667 6.76766667,21.9834 7.885,21.9834 C9.49633333,21.9834 10.703,22.3952 11.505,23.2188 C12.3143333,24.0352 12.719,25.0449333 12.719,26.248 C12.719,27.1575333 12.454,27.9739667 11.924,28.6973 C11.4013333,29.4134333 10.764,30.1188333 10.012,30.8135 C9.26733333,31.5009667 8.53333333,32.2171 7.81,32.9619 C7.09333333,33.7067 6.53833333,34.5517667 6.145,35.4971 Z M317.992,48.4951 C319.280667,49.1826333 320.777333,49.5264 322.482,49.5264 C324.122,49.5264 325.579333,49.2256 326.854,48.624 C328.136,48.0224667 329.303333,47.2239667 330.356,46.2285 C332.468667,47.8398333 334.477333,48.9391333 336.382,49.5264 L337.392,46.54 C335.838,46.0387333 334.183667,45.1149333 332.429,43.7686 C333.481667,42.2432 334.387667,40.6068 335.147,38.8594 C335.913,37.112 336.561,35.3001333 337.091,33.4238 L333.74,33.4238 C333.332,35.0638 332.827,36.5892 332.225,38 C331.623667,39.4108 330.911,40.6998667 330.087,41.8672 C328.769667,40.7285333 327.502333,39.4645333 326.285,38.0752 C325.067667,36.6787333 323.989667,35.2464333 323.051,33.7783 C324.075,32.9833667 325.056333,32.1777 325.995,31.3613 C326.940333,30.5377667 327.721,29.6354333 328.337,28.6543 C328.952333,27.6660333 329.26,26.556 329.26,25.3242 C329.26,23.6269333 328.773,22.2519333 327.799,21.1992 C326.832333,20.1393333 325.454,19.6094 323.664,19.6094 C322.403333,19.6094 321.296667,19.9101667 320.344,20.5117 C319.392,21.1133 318.651,21.9297 318.121,22.9609 C317.598333,23.9850333 317.337,25.1416333 317.337,26.4307 C317.337,27.4547667 317.505,28.5468667 317.841,29.707 C318.177667,30.8672 318.654,32.0488667 319.27,33.252 C318.332,33.9251333 317.451333,34.6663333 316.628,35.4756 C315.804,36.2776667 315.134333,37.1728333 314.619,38.1611 C314.110333,39.1422333 313.856,40.263 313.856,41.5234 C313.856,43.0774667 314.221333,44.4560667 314.952,45.6592 C315.689333,46.8623333 316.702667,47.8076333 317.992,48.4951 Z M420.82,46.8408 L420.82,49 L440.575,49 L440.575,45.874 L431.3367,45.874 C430.513167,45.874 429.6538,45.9062333 428.7586,45.9707 C427.8634,46.0279667 426.978967,46.0852667 426.1053,46.1426 C428.654767,43.8222667 430.903467,41.6738333 432.8514,39.6973 C434.806467,37.7135667 436.3247,35.8193333 437.4061,34.0146 C438.494633,32.2099333 439.0389,30.4303333 439.0389,28.6758 C439.0389,26.1764667 438.215333,24.1748333 436.5682,22.6709 C434.9282,21.1598333 432.701,20.4043 429.8866,20.4043 C427.917133,20.4043 426.198367,20.7946 424.7303,21.5752 C423.269367,22.3486667 421.9086,23.3799 420.648,24.6689 L422.7108,26.7314 C423.620267,25.7932667 424.640767,24.9947667 425.7723,24.3359 C426.903833,23.6771 428.128433,23.3477 429.4461,23.3477 C431.5301,23.3477 433.069833,23.8633 434.0653,24.8945 C435.0607,25.9186333 435.5584,27.2363667 435.5584,28.8477 C435.5584,30.4017 434.992667,32.0309333 433.8612,33.7354 C432.7368,35.4326 431.071733,37.3375333 428.866,39.4502 C426.667467,41.5628 423.985467,44.0263333 420.82,46.8408 Z M605.6199,46.8408 L605.6199,49 L625.375,49 L625.375,45.874 L616.1365,45.874 C615.3129,45.874 614.453533,45.9062333 613.5584,45.9707 C612.6632,46.0279667 611.778733,46.0852667 610.905,46.1426 C613.454533,43.8222667 615.703233,41.6738333 617.6511,39.6973 C619.606233,37.7135667 621.124533,35.8193333 622.206,34.0146 C623.294667,32.2099333 623.839,30.4303333 623.839,28.6758 C623.839,26.1764667 623.015333,24.1748333 621.368,22.6709 C619.728,21.1598333 617.500767,20.4043 614.6863,20.4043 C612.7169,20.4043 610.998133,20.7946 609.53,21.5752 C608.069067,22.3486667 606.7084,23.3799 605.448,24.6689 L607.5105,26.7314 C608.420033,25.7932667 609.440533,24.9947667 610.572,24.3359 C611.703533,23.6771 612.928167,23.3477 614.2459,23.3477 C616.329833,23.3477 617.869533,23.8633 618.865,24.8945 C619.860467,25.9186333 620.3582,27.2363667 620.3582,28.8477 C620.3582,30.4017 619.792433,32.0309333 618.6609,33.7354 C617.536567,35.4326 615.871533,37.3375333 613.6658,39.4502 C611.4672,41.5628 608.785233,44.0263333 605.6199,46.8408 Z M105.073,46.0029 L105.073,49 L124.13,49 L124.13,46.0029 L116.782,46.0029 L116.782,20.9307 L114.097,20.9307 C113.187667,21.3961667 112.167,21.8007667 111.035,22.1445 C109.911,22.4811 108.525333,22.764 106.878,22.9932 L106.878,25.3242 L113.173,25.3242 L113.173,46.0029 L105.073,46.0029 Z M289.873,46.0029 L289.873,49 L308.93,49 L308.93,46.0029 L301.582,46.0029 L301.582,20.9307 L298.897,20.9307 C297.987,21.3961667 296.966333,21.8007667 295.835,22.1445 C294.710333,22.4811 293.324667,22.764 291.678,22.9932 L291.678,25.3242 L297.973,25.3242 L297.973,46.0029 L289.873,46.0029 Z M320.806,28.8477 C320.57,27.9954333 320.452,27.1754333 320.452,26.3877 C320.452,25.1845667 320.738333,24.1891333 321.311,23.4014 C321.883667,22.6064667 322.668,22.209 323.664,22.209 C324.638,22.209 325.321667,22.5241 325.715,23.1543 C326.109,23.7845 326.306,24.5221333 326.306,25.3672 C326.306,26.6348 325.858333,27.7448333 324.963,28.6973 C324.068333,29.6497667 323.005,30.5664333 321.773,31.4473 C321.365,30.5664333 321.042667,29.6999 320.806,28.8477 Z M56.699,48.2051 C58.4463333,49.0859667 60.3906667,49.5264 62.532,49.5264 C64.258,49.5264 65.8013333,49.2793333 67.162,48.7852 C68.53,48.2838667 69.744,47.6823 70.804,46.9805 L69.483,44.5957 C68.5156667,45.2115667 67.5093333,45.7057 66.464,46.0781 C65.4253333,46.4433667 64.2616667,46.626 62.973,46.626 C60.7383333,46.626 58.8513333,46.0101 57.312,44.7783 C55.772,43.5465667 54.884,41.7275667 54.648,39.3213 L71.502,39.3213 C71.5593333,39.0277 71.6023333,38.6911 71.631,38.3115 C71.667,37.9247667 71.685,37.5273 71.685,37.1191 C71.685,34.0969667 70.8256667,31.6692333 69.107,29.8359 C67.3876667,28.0025667 64.9883333,27.0859 61.909,27.0859 C60.0043333,27.0859 58.2213333,27.5335 56.56,28.4287 C54.9053333,29.3239 53.566,30.6094 52.542,32.2852 C51.518,33.9538 51.006,35.9482667 51.006,38.2686 C51.006,40.639 51.518,42.6692667 52.542,44.3594 C53.566,46.0423333 54.9516667,47.3242333 56.699,48.2051 Z M187.195,48.8066 C188.297667,49.2864667 189.511667,49.5264 190.837,49.5264 C192.362333,49.5264 193.855333,49.1826333 195.316,48.4951 C196.784,47.8076333 198.105333,47.0091333 199.28,46.0996 L199.409,46.0996 L199.721,49 L202.664,49 L202.664,35.8838 C202.664,33.2197333 201.951333,31.0892 200.526,29.4922 C199.108,27.888 196.934667,27.0859 194.006,27.0859 C192.122,27.0859 190.335,27.4260667 188.645,28.1064 C186.962333,28.7796 185.580333,29.4671 184.499,30.1689 L185.906,32.6289 C186.901333,32.0130333 188.050667,31.4365333 189.354,30.8994 C190.664667,30.3551333 192.007667,30.083 193.383,30.083 C194.765,30.083 195.864,30.3336667 196.68,30.835 C197.504,31.3291333 198.098667,31.9808 198.464,32.79 C198.829333,33.5921333 199.029667,34.4766 199.065,35.4434 C195.398333,35.737 192.419333,36.2096333 190.128,36.8613 C187.843333,37.5058333 186.178333,38.3652333 185.133,39.4395 C184.094333,40.5065 183.575,41.8456667 183.575,43.457 C183.575,44.7174667 183.904333,45.8024333 184.563,46.7119 C185.222333,47.6214333 186.099667,48.3196667 187.195,48.8066 Z M267.899,48.2051 C269.646333,49.0859667 271.590667,49.5264 273.732,49.5264 C275.458,49.5264 277.001333,49.2793333 278.362,48.7852 C279.73,48.2838667 280.943667,47.6823 282.003,46.9805 L280.682,44.5957 C279.715333,45.2115667 278.709333,45.7057 277.664,46.0781 C276.625333,46.4433667 275.461333,46.626 274.172,46.626 C271.938,46.626 270.051,46.0101 268.511,44.7783 C266.971667,43.5465667 266.083667,41.7275667 265.847,39.3213 L282.702,39.3213 C282.759333,39.0277 282.802333,38.6911 282.831,38.3115 C282.866333,37.9247667 282.884,37.5273 282.884,37.1191 C282.884,34.0969667 282.024667,31.6692333 280.306,29.8359 C278.587333,28.0025667 276.188333,27.0859 273.109,27.0859 C271.203667,27.0859 269.420333,27.5335 267.759,28.4287 C266.105,29.3239 264.766,30.6094 263.742,32.2852 C262.718,33.9538 262.206,35.9482667 262.206,38.2686 C262.206,40.639 262.718,42.6692667 263.742,44.3594 C264.766,46.0423333 266.151667,47.3242333 267.899,48.2051 Z M373.499,48.2051 C375.246333,49.0859667 377.190667,49.5264 379.332,49.5264 C381.058,49.5264 382.601333,49.2793333 383.962,48.7852 C385.329333,48.2838667 386.543,47.6823 387.603,46.9805 L386.282,44.5957 C385.315333,45.2115667 384.309,45.7057 383.263,46.0781 C382.225,46.4433667 381.061333,46.626 379.772,46.626 C377.538,46.626 375.651,46.0101 374.111,44.7783 C372.571,43.5465667 371.683,41.7275667 371.447,39.3213 L388.301,39.3213 C388.358333,39.0277 388.401333,38.6911 388.43,38.3115 C388.466,37.9247667 388.484,37.5273 388.484,37.1191 C388.484,34.0969667 387.624667,31.6692333 385.906,29.8359 C384.187333,28.0025667 381.788333,27.0859 378.709,27.0859 C376.803667,27.0859 375.020333,27.5335 373.359,28.4287 C371.705,29.3239 370.366,30.6094 369.342,32.2852 C368.317333,33.9538 367.805,35.9482667 367.805,38.2686 C367.805,40.639 368.317333,42.6692667 369.342,44.3594 C370.366,46.0423333 371.751667,47.3242333 373.499,48.2051 Z M503.9946,48.8066 C505.097467,49.2864667 506.311333,49.5264 507.6362,49.5264 C509.1616,49.5264 510.65478,49.1826333 512.11574,48.4951 C513.58384,47.8076333 514.90513,47.0091333 516.07961,46.0996 L516.20851,46.0996 L516.52004,49 L519.46339,49 L519.46339,35.8838 C519.46339,33.2197333 518.750827,31.0892 517.3257,29.4922 C515.907733,27.888 513.734233,27.0859 510.8052,27.0859 C508.921733,27.0859 507.134933,27.4260667 505.4448,28.1064 C503.761867,28.7796 502.379733,29.4671 501.2984,30.1689 L502.7056,32.6289 C503.701,32.0130333 504.8504,31.4365333 506.1538,30.8994 C507.464333,30.3551333 508.8071,30.083 510.1821,30.083 C511.564293,30.083 512.663593,30.3336667 513.48,30.835 C514.303567,31.3291333 514.897967,31.9808 515.2632,32.79 C515.628433,33.5921333 515.828953,34.4766 515.86476,35.4434 C512.19812,35.737 509.218967,36.2096333 506.9273,36.8613 C504.642767,37.5058333 502.9777,38.3652333 501.9321,39.4395 C500.8937,40.5065 500.3745,41.8456667 500.3745,43.457 C500.3745,44.7174667 500.703933,45.8024333 501.3628,46.7119 C502.021667,47.6214333 502.898933,48.3196667 503.9946,48.8066 Z M584.6984,48.2051 C586.4458,49.0859667 588.390133,49.5264 590.5314,49.5264 C592.257333,49.5264 593.800633,49.2793333 595.1613,48.7852 C596.529167,48.2838667 597.743033,47.6823 598.8029,46.9805 L597.4816,44.5957 C596.5148,45.2115667 595.508633,45.7057 594.4631,46.0781 C593.4247,46.4433667 592.260967,46.626 590.9719,46.626 C588.7375,46.626 586.850433,46.0101 585.3107,44.7783 C583.771033,43.5465667 582.883033,41.7275667 582.6467,39.3213 L599.5012,39.3213 C599.558467,39.0277 599.601433,38.6911 599.6301,38.3115 C599.6659,37.9247667 599.6838,37.5273 599.6838,37.1191 C599.6838,34.0969667 598.824433,31.6692333 597.1057,29.8359 C595.3869,28.0025667 592.9878,27.0859 589.9084,27.0859 C588.003467,27.0859 586.220267,27.5335 584.5588,28.4287 C582.904467,29.3239 581.565267,30.6094 580.5412,32.2852 C579.517133,33.9538 579.0051,35.9482667 579.0051,38.2686 C579.0051,40.639 579.517133,42.6692667 580.5412,44.3594 C581.565267,46.0423333 582.951,47.3242333 584.6984,48.2051 Z M77.352,57.7549 C78.176,58.0485 79.1176667,58.1953 80.177,58.1953 C81.7883333,58.1953 83.1706667,57.8658667 84.324,57.207 C85.484,56.5482 86.4613333,55.6602 87.256,54.543 C88.0513333,53.4258 88.7103333,52.1653667 89.233,50.7617 L98.654,27.6123 L95.216,27.6123 L90.554,39.4502 C90.2033333,40.417 89.8273333,41.4375 89.426,42.5117 C89.0326667,43.5787667 88.646,44.6279333 88.266,45.6592 L88.094,45.6592 C87.65,44.6279333 87.199,43.5716 86.741,42.4902 C86.2896667,41.4016667 85.86,40.3883333 85.452,39.4502 L80.22,27.6123 L76.568,27.6123 L86.548,49.043 L85.892,50.6328 C85.362,51.9505333 84.628,53.0426667 83.69,53.9092 C82.752,54.7757333 81.5346667,55.209 80.038,55.209 C79.7153333,55.209 79.3856667,55.1767667 79.049,55.1123 C78.713,55.0550333 78.398,54.9834333 78.104,54.8975 L77.352,57.7549 Z M155.854,27.6123 L164.877,49 L168.916,49 L177.768,27.6123 L174.287,27.6123 L169.357,39.7617 C168.919667,40.8431 168.518667,41.9065667 168.154,42.9521 C167.788667,43.9905667 167.412667,45.0254 167.026,46.0566 L166.854,46.0566 C166.474,45.0254 166.083667,43.9905667 165.683,42.9521 C165.289,41.9065667 164.873667,40.8431 164.437,39.7617 L159.506,27.6123 L155.854,27.6123 Z M237.997,47.335 C239.200333,48.7959333 241.080333,49.5264 243.637,49.5264 C245.277,49.5264 246.741333,49.1325 248.03,48.3447 C249.319333,47.5497667 250.508333,46.5221 251.597,45.2617 L251.769,45.2617 L252.08,49 L255.023,49 L255.023,27.6123 L251.425,27.6123 L251.425,42.4473 C250.250333,43.8223 249.154667,44.8249 248.138,45.4551 C247.128,46.0853 246.007,46.4004 244.775,46.4004 C242.985,46.4004 241.714,45.9098333 240.962,44.9287 C240.217333,43.9475667 239.845,42.4436667 239.845,40.417 L239.845,27.6123 L236.192,27.6123 L236.192,40.9004 C236.192,43.722 236.793667,45.8668667 237.997,47.335 Z M394.152,57.7549 C394.975333,58.0485 395.917,58.1953 396.977,58.1953 C398.588333,58.1953 399.970333,57.8658667 401.123,57.207 C402.283667,56.5482 403.261333,55.6602 404.056,54.543 C404.850667,53.4258 405.509333,52.1653667 406.032,50.7617 L415.453,27.6123 L412.016,27.6123 L407.354,39.4502 C407.002667,40.417 406.626667,41.4375 406.226,42.5117 C405.832,43.5787667 405.445333,44.6279333 405.066,45.6592 L404.894,45.6592 C404.45,44.6279333 403.998667,43.5716 403.54,42.4902 C403.089333,41.4016667 402.659667,40.3883333 402.251,39.4502 L397.02,27.6123 L393.367,27.6123 L403.347,49.043 L402.692,50.6328 C402.162,51.9505333 401.428,53.0426667 400.49,53.9092 C399.551333,54.7757333 398.333667,55.209 396.837,55.209 C396.515,55.209 396.185667,55.1767667 395.849,55.1123 C395.512333,55.0550333 395.197333,54.9834333 394.904,54.8975 L394.152,57.7549 Z M472.6533,27.6123 L481.6767,49 L485.7158,49 L494.5673,27.6123 L491.0869,27.6123 L486.1562,39.7617 C485.719333,40.8431 485.3183,41.9065667 484.9531,42.9521 C484.587833,43.9905667 484.211833,45.0254 483.8251,46.0566 L483.6533,46.0566 C483.2737,45.0254 482.8834,43.9905667 482.4824,42.9521 C482.088533,41.9065667 481.673167,40.8431 481.2363,39.7617 L476.3056,27.6123 L472.6533,27.6123 Z M554.7965,47.335 C555.999633,48.7959333 557.879533,49.5264 560.4362,49.5264 C562.076133,49.5264 563.540633,49.1325 564.8297,48.3447 C566.118767,47.5497667 567.307567,46.5221 568.3961,45.2617 L568.568,45.2617 L568.8795,49 L571.8229,49 L571.8229,27.6123 L568.2243,27.6123 L568.2243,42.4473 C567.049767,43.8223 565.954033,44.8249 564.9371,45.4551 C563.927367,46.0853 562.8066,46.4004 561.5748,46.4004 C559.784467,46.4004 558.513333,45.9098333 557.7614,44.9287 C557.0166,43.9475667 556.6442,42.4436667 556.6442,40.417 L556.6442,27.6123 L552.9918,27.6123 L552.9918,40.9004 C552.9918,43.722 553.593367,45.8668667 554.7965,47.335 Z M130.947,28.4072 L130.947,31.1357 L149.864,31.1357 L149.864,28.4072 L130.947,28.4072 Z M447.7465,28.4072 L447.7465,31.1357 L466.6635,31.1357 L466.6635,28.4072 L447.7465,28.4072 Z M57.29,31.6406 C58.672,30.5091333 60.244,29.9434 62.006,29.9434 C63.818,29.9434 65.2966667,30.4876667 66.442,31.5762 C67.588,32.6647333 68.2326667,34.3082667 68.376,36.5068 L54.744,36.5068 C55.0666667,34.3942 55.9153333,32.7721333 57.29,31.6406 Z M268.49,31.6406 C269.872,30.5091333 271.444,29.9434 273.206,29.9434 C275.017333,29.9434 276.496,30.4876667 277.642,31.5762 C278.788,32.6647333 279.432667,34.3082667 279.576,36.5068 L265.944,36.5068 C266.266,34.3942 267.114667,32.7721333 268.49,31.6406 Z M374.09,31.6406 C375.472,30.5091333 377.043667,29.9434 378.805,29.9434 C380.617,29.9434 382.096,30.4876667 383.242,31.5762 C384.388,32.6647333 385.032333,34.3082667 385.175,36.5068 L371.544,36.5068 C371.866,34.3942 372.714667,32.7721333 374.09,31.6406 Z M585.2893,31.6406 C586.671433,30.5091333 588.243367,29.9434 590.0051,29.9434 C591.816967,29.9434 593.2958,30.4876667 594.4416,31.5762 C595.587467,32.6647333 596.232,34.3082667 596.3752,36.5068 L582.7434,36.5068 C583.065667,34.3942 583.9143,32.7721333 585.2893,31.6406 Z M319.002,45.1758 C317.92,44.2018 317.379,42.9091667 317.379,41.2979 C317.379,40.1878333 317.694333,39.1852 318.325,38.29 C318.955,37.3948667 319.724667,36.5355 320.634,35.7119 C321.63,37.2659667 322.758,38.7842 324.018,40.2666 C325.278667,41.749 326.6,43.1061 327.982,44.3379 C327.244667,45.0397 326.442667,45.5983 325.576,46.0137 C324.716667,46.4219 323.832,46.626 322.922,46.626 C321.396667,46.626 320.09,46.1426 319.002,45.1758 Z M130.947,37.8174 L130.947,40.5459 L149.864,40.5459 L149.864,37.8174 L130.947,37.8174 Z M447.7465,37.8174 L447.7465,40.5459 L466.6635,40.5459 L466.6635,37.8174 L447.7465,37.8174 Z M195.434,45.7881 C194.216667,46.3467 193.006667,46.626 191.804,46.626 C190.572,46.626 189.476,46.3538667 188.516,45.8096 C187.564,45.2653333 187.088,44.3916333 187.088,43.1885 C187.088,42.2503 187.446,41.4231333 188.162,40.707 C188.885333,39.9908667 190.120667,39.3893 191.868,38.9023 C193.615333,38.4153667 196.014333,38.0573 199.065,37.8281 L199.065,43.457 C197.862333,44.4524667 196.652,45.2295 195.434,45.7881 Z M512.2339,45.7881 C511.016433,46.3467 509.806133,46.626 508.603,46.626 C507.371267,46.626 506.275567,46.3538667 505.3159,45.8096 C504.363433,45.2653333 503.8872,44.3916333 503.8872,43.1885 C503.8872,42.2503 504.245267,41.4231333 504.9614,40.707 C505.684733,39.9908667 506.9201,39.3893 508.6675,38.9023 C510.414893,38.4153667 512.81398,38.0573 515.86476,37.8281 L515.86476,43.457 C514.661633,44.4524667 513.451347,45.2295 512.2339,45.7881 Z M5.521,48.6025 C6.159,49.2184333 6.91466667,49.5264 7.788,49.5264 C8.66866667,49.5264 9.42433333,49.2184333 10.055,48.6025 C10.685,47.9866333 11,47.1523333 11,46.0996 C11,45.0683333 10.685,44.2519333 10.055,43.6504 C9.42433333,43.0488 8.66866667,42.748 7.788,42.748 C6.91466667,42.748 6.159,43.0488 5.521,43.6504 C4.891,44.2519333 4.576,45.0683333 4.576,46.0996 C4.576,47.1523333 4.891,47.9866333 5.521,48.6025 Z"/></g></g><rect width="100" height="200" fill="url(#a)" fill-rule="nonzero" transform="matrix(-1 0 0 1 100 0)"/></g></svg>