<svg xmlns="http://www.w3.org/2000/svg" width="800" height="150" viewBox="0 0 800 150"><defs><linearGradient id="a" x1="100%" x2="0%" y1="50%" y2="50%"><stop offset="0%" stop-color="#FFF"/><stop offset="100%" stop-color="#FFF" stop-opacity="0"/></linearGradient></defs><g fill="none" fill-rule="evenodd"><rect width="800" height="150" fill="#FFF"/><g transform="translate(10 8)"><path fill="#6236FF" d="M7.6916556,74 C5.01709938,74 4.04724067,73.7215232 3.06946289,73.1986019 C2.09168511,72.6756806 1.32431939,71.9083149 0.801398111,70.9305371 C0.278476833,69.9527593 1.2037061e-16,68.9829006 -2.07168062e-16,66.3083444 L2.07168062e-16,7.6916556 C-1.2037061e-16,5.01709938 0.278476833,4.04724067 0.801398111,3.06946289 C1.32431939,2.09168511 2.09168511,1.32431939 3.06946289,0.801398111 C4.04724067,0.278476833 5.01709938,1.80555915e-16 7.6916556,-3.10752092e-16 L624.308344,3.10752092e-16 C626.982901,-1.80555915e-16 627.952759,0.278476833 628.930537,0.801398111 C629.908315,1.32431939 630.675681,2.09168511 631.198602,3.06946289 C631.721523,4.04724067 632,5.01709938 632,7.6916556 L632,66.3083444 C632,68.9829006 631.721523,69.9527593 631.198602,70.9305371 C630.675681,71.9083149 629.908315,72.6756806 628.930537,73.1986019 C627.952759,73.7215232 626.982901,74 624.308344,74 L21,74 L21,116 L36.999,116 L37,104 L61,119 L37,134 L36.999,122 L15,122 L15,74 L7.6916556,74 Z" opacity=".5"/><path fill="#000" fill-rule="nonzero" d="M15.27 12.9C13.17 14.55 9.42 16.08 6.33 16.95 6.69 17.25 7.08 17.7 7.32 18.03 10.44 17.04 14.19 15.39 16.5 13.53L15.27 12.9ZM18.03 16.44C15.3 18.57 10.32 20.34 5.94 21.27 6.27 21.57 6.6 22.08 6.81 22.41 11.34 21.36 16.32 19.47 19.26 17.07L18.03 16.44ZM21.93 19.8C18.54 23.16 11.7 25.2 4.2 26.1 4.47 26.43 4.77 26.97 4.92 27.36 12.6 26.34 19.62 24.15 23.22 20.46L21.93 19.8ZM4.08 7.02C4.68 6.81 5.52 6.69 11.49 6.39 11.01 7.59 10.41 8.7 9.69 9.75L.24 9.75.24 11.1 8.73 11.1C6.45 13.92 3.45 16.11 0 17.64.36 17.91.93 18.51 1.14 18.78 4.8 17.01 8.07 14.46 10.5 11.1L16.77 11.1C19.02 14.19 22.92 17.07 26.34 18.51 26.55 18.12 27.03 17.61 27.36 17.31 24.15 16.14 20.64 13.74 18.45 11.1L26.91 11.1 26.91 9.75 11.4 9.75C12 8.73 12.57 7.65 13.02 6.51L12.3 6.36 21.84 5.88C22.71 6.6 23.43 7.32 23.97 7.92L25.11 6.99C23.49 5.19 20.19 2.67 17.4 1.02L16.29 1.83C17.64 2.64 19.11 3.69 20.46 4.71L6.93 5.31C8.97 4.08 11.1 2.52 13.11.75L11.76 0C9.6 2.13 6.6 4.14 5.7 4.68 4.89 5.16 4.17 5.49 3.63 5.55 3.81 5.94 4.02 6.69 4.08 7.02ZM42.18.72C41.61 1.92 40.56 3.75 39.78 4.83L40.74 5.34C41.58 4.29 42.6 2.73 43.44 1.32L42.18.72ZM31.56 1.35C32.4 2.61 33.24 4.29 33.57 5.37L34.68 4.86C34.38 3.78 33.54 2.13 32.64.93L31.56 1.35ZM41.43 16.89C40.71 18.75 39.6 20.31 38.25 21.6 36.96 20.94 35.58 20.31 34.26 19.77 34.77 18.93 35.34 17.94 35.85 16.89L41.43 16.89ZM32.4 20.34C33.93 20.91 35.64 21.69 37.2 22.47 35.13 24.09 32.64 25.17 30.06 25.77 30.33 26.04 30.66 26.58 30.78 26.91 33.57 26.16 36.21 24.96 38.4 23.13 39.54 23.73 40.53 24.33 41.25 24.87L42.24 23.88C41.49 23.37 40.53 22.8 39.42 22.2 41.07 20.55 42.36 18.48 43.11 15.87L42.33 15.51 42.06 15.57 36.48 15.57 37.26 13.77 35.94 13.53C35.7 14.19 35.43 14.88 35.1 15.57L30.84 15.57 30.84 16.89 34.44 16.89C33.78 18.15 33.06 19.38 32.4 20.34ZM36.66 0 36.66 5.76 30.18 5.76 30.18 7.05 36.24 7.05C34.77 9.27 32.31 11.46 30.03 12.45 30.33 12.75 30.72 13.26 30.9 13.65 32.97 12.54 35.13 10.59 36.66 8.55L36.66 12.87 38.07 12.87 38.07 8.28C39.63 9.33 41.94 11.07 42.72 11.82L43.59 10.68C42.78 10.08 39.39 7.86 38.07 7.05L44.46 7.05 44.46 5.76 38.07 5.76 38.07 0 36.66 0ZM50.46 17.58C49.14 14.61 48.18 11.13 47.58 7.41L47.58 7.38 53.28 7.38C52.68 11.34 51.81 14.73 50.46 17.58ZM47.7.39C46.92 5.58 45.57 10.56 43.26 13.71 43.62 13.92 44.22 14.37 44.46 14.58 45.36 13.23 46.11 11.64 46.77 9.84 47.49 13.23 48.45 16.32 49.71 19.02 47.97 22.08 45.54 24.45 42.15 26.16 42.45 26.46 42.87 27.03 43.02 27.33 46.23 25.56 48.63 23.28 50.43 20.43 52.02 23.28 54 25.56 56.52 27.03 56.73 26.64 57.18 26.16 57.51 25.86 54.87 24.48 52.8 22.11 51.21 19.08 52.89 15.9 53.97 12.06 54.69 7.38L56.79 7.38 56.79 6 47.97 6C48.42 4.29 48.78 2.49 49.08.6L47.7.39Z" transform="translate(67.44 105.95)"/><g fill="#000" fill-rule="nonzero" transform="translate(6.622 18.44)"><path d="M3.344,23.54 L3.344,15.62 L5.544,15.62 C7.42133333,15.62 8.91,15.0993333 10.01,14.058 C11.11,13.0166667 11.66,11.6306667 11.66,9.9 C11.66,8.16933333 11.11,6.78333333 10.01,5.742 C8.91,4.70066667 7.40666667,4.18 5.5,4.18 L0,4.18 L0,0.44 L5.5,0.44 C7.55333333,0.44 9.33533333,0.828666667 10.846,1.606 C12.3566667,2.38333333 13.53,3.476 14.366,4.884 C15.202,6.292 15.62,7.964 15.62,9.9 C15.62,11.572 15.268,13.0753333 14.564,14.41 C13.86,15.7446667 12.8846667,16.808 11.638,17.6 C10.3913333,18.392 8.94666667,18.832 7.304,18.92 L7.304,23.54 L3.344,23.54 Z M4.62,32.78 C3.85733333,32.78 3.22666667,32.5306667 2.728,32.032 C2.22933333,31.5333333 1.98,30.9026667 1.98,30.14 C1.98,29.3773333 2.22933333,28.7466667 2.728,28.248 C3.22666667,27.7493333 3.85733333,27.5 4.62,27.5 L5.94,27.5 C6.79066667,27.5 7.44333333,27.742 7.898,28.226 C8.35266667,28.71 8.58,29.3333333 8.58,30.096 C8.58,30.8586667 8.33066667,31.4966667 7.832,32.01 C7.33333333,32.5233333 6.70266667,32.78 5.94,32.78 L4.62,32.78 Z"/><polygon points="24.86 32.56 24.86 .44 28.82 .44 28.82 18.348 33.484 18.348 40.524 8.36 45.056 8.36 36.916 19.888 45.188 32.56 40.568 32.56 33.528 21.78 28.82 21.78 28.82 32.56"/><path d="M60.28 33C58.3733333 33 56.7086667 32.6186667 55.286 31.856 53.8633333 31.0933333 52.7633333 30.0153333 51.986 28.622 51.2086667 27.2286667 50.82 25.608 50.82 23.76L50.82 17.16C50.82 15.2826667 51.2086667 13.6546667 51.986 12.276 52.7633333 10.8973333 53.8633333 9.82666667 55.286 9.064 56.7086667 8.30133333 58.3733333 7.92 60.28 7.92 62.1866667 7.92 63.8513333 8.30133333 65.274 9.064 66.6966667 9.82666667 67.7966667 10.8973333 68.574 12.276 69.3513333 13.6546667 69.74 15.2826667 69.74 17.16L69.74 21.428 54.692 21.428 54.692 23.76C54.692 25.6666667 55.176 27.126 56.144 28.138 57.112 29.15 58.4906667 29.656 60.28 29.656 61.8053333 29.656 63.0373333 29.3846667 63.976 28.842 64.9146667 28.2993333 65.4866667 27.4853333 65.692 26.4L69.652 26.4C69.388 28.424 68.398 30.03 66.682 31.218 64.966 32.406 62.832 33 60.28 33ZM65.868 18.788 65.868 17.16C65.868 15.2533333 65.3913333 13.7866667 64.438 12.76 63.4846667 11.7333333 62.0986667 11.22 60.28 11.22 58.4906667 11.22 57.112 11.7333333 56.144 12.76 55.176 13.7866667 54.692 15.2533333 54.692 17.16L54.692 18.436 66.176 18.436 65.868 18.788ZM81.356 40.48 84.92 31.064 75.68 8.36 79.992 8.36 85.888 23.32C86.0933333 23.8186667 86.2913333 24.4126667 86.482 25.102 86.6726667 25.7913333 86.8266667 26.3706667 86.944 26.84 87.0613333 26.3706667 87.2226667 25.7913333 87.428 25.102 87.6333333 24.4126667 87.8386667 23.8186667 88.044 23.32L93.544 8.36 97.68 8.36 85.492 40.48 81.356 40.48Z"/><polygon points="103.84 32.56 103.84 28.952 112.552 28.952 112.552 3.74 103.84 10.252 103.84 5.852 111.1 .44 116.512 .44 116.512 28.952 123.64 28.952 123.64 32.56"/><path d="M130.02 14.52 130.02 11 148.94 11 148.94 14.52 130.02 14.52ZM130.02 25.08 130.02 21.56 148.94 21.56 148.94 25.08 130.02 25.08ZM163.284 32.56 154.88 8.36 158.972 8.36 164.604 24.64C164.926667 25.608 165.205333 26.5393333 165.44 27.434 165.674667 28.3286667 165.850667 29.0253333 165.968 29.524 166.114667 29.0253333 166.290667 28.3286667 166.496 27.434 166.701333 26.5393333 166.965333 25.608 167.288 24.64L172.744 8.36 176.88 8.36 168.476 32.56 163.284 32.56ZM190.168 33C187.616 33 185.606667 32.3473333 184.14 31.042 182.673333 29.7366667 181.94 27.9693333 181.94 25.74 181.94 23.4813333 182.673333 21.7066667 184.14 20.416 185.606667 19.1253333 187.586667 18.48 190.08 18.48L197.56 18.48 197.56 16.06C197.56 14.5933333 197.112667 13.4493333 196.218 12.628 195.323333 11.8066667 194.084 11.396 192.5 11.396 191.092 11.396 189.904 11.704 188.936 12.32 187.968 12.936 187.366667 13.7426667 187.132 14.74L183.172 14.74C183.318667 13.3906667 183.81 12.2026667 184.646 11.176 185.482 10.1493333 186.582 9.35 187.946 8.778 189.31 8.206 190.828 7.92 192.5 7.92 195.286667 7.92 197.486667 8.63866667 199.1 10.076 200.713333 11.5133333 201.52 13.464 201.52 15.928L201.52 32.56 197.648 32.56 197.648 27.94 196.988 27.94 197.648 27.28C197.648 29.04 196.966 30.4333333 195.602 31.46 194.238 32.4866667 192.426667 33 190.168 33ZM191.136 29.876C193.013333 29.876 194.553333 29.4066667 195.756 28.468 196.958667 27.5293333 197.56 26.3266667 197.56 24.86L197.56 21.428 190.168 21.428C188.848 21.428 187.806667 21.7946667 187.044 22.528 186.281333 23.2613333 185.9 24.2586667 185.9 25.52 185.9 26.8693333 186.362 27.9326667 187.286 28.71 188.21 29.4873333 189.493333 29.876 191.136 29.876ZM222.2 32.56C220.792 32.56 219.56 32.2813333 218.504 31.724 217.448 31.1666667 216.626667 30.3746667 216.04 29.348 215.453333 28.3213333 215.16 27.1186667 215.16 25.74L215.16 4.048 206.8 4.048 206.8.44 219.12.44 219.12 25.74C219.12 26.7373333 219.398667 27.522 219.956 28.094 220.513333 28.666 221.261333 28.952 222.2 28.952L229.68 28.952 229.68 32.56 222.2 32.56ZM245.036 33C242.249333 33 240.02 32.1713333 238.348 30.514 236.676 28.8566667 235.84 26.6053333 235.84 23.76L235.84 8.36 239.8 8.36 239.8 23.76C239.8 25.5786667 240.269333 26.994 241.208 28.006 242.146667 29.018 243.422667 29.524 245.036 29.524 246.678667 29.524 247.976667 29.018 248.93 28.006 249.883333 26.994 250.36 25.5786667 250.36 23.76L250.36 8.36 254.32 8.36 254.32 23.76C254.32 26.6053333 253.469333 28.8566667 251.768 30.514 250.066667 32.1713333 247.822667 33 245.036 33ZM271.48 33C269.573333 33 267.908667 32.6186667 266.486 31.856 265.063333 31.0933333 263.963333 30.0153333 263.186 28.622 262.408667 27.2286667 262.02 25.608 262.02 23.76L262.02 17.16C262.02 15.2826667 262.408667 13.6546667 263.186 12.276 263.963333 10.8973333 265.063333 9.82666667 266.486 9.064 267.908667 8.30133333 269.573333 7.92 271.48 7.92 273.386667 7.92 275.051333 8.30133333 276.474 9.064 277.896667 9.82666667 278.996667 10.8973333 279.774 12.276 280.551333 13.6546667 280.94 15.2826667 280.94 17.16L280.94 21.428 265.892 21.428 265.892 23.76C265.892 25.6666667 266.376 27.126 267.344 28.138 268.312 29.15 269.690667 29.656 271.48 29.656 273.005333 29.656 274.237333 29.3846667 275.176 28.842 276.114667 28.2993333 276.686667 27.4853333 276.892 26.4L280.852 26.4C280.588 28.424 279.598 30.03 277.882 31.218 276.166 32.406 274.032 33 271.48 33ZM277.068 18.788 277.068 17.16C277.068 15.2533333 276.591333 13.7866667 275.638 12.76 274.684667 11.7333333 273.298667 11.22 271.48 11.22 269.690667 11.22 268.312 11.7333333 267.344 12.76 266.376 13.7866667 265.892 15.2533333 265.892 17.16L265.892 18.436 277.376 18.436 277.068 18.788Z"/><polygon points="288.64 32.56 288.64 28.952 297.352 28.952 297.352 3.74 288.64 10.252 288.64 5.852 295.9 .44 301.312 .44 301.312 28.952 308.44 28.952 308.44 32.56"/><path d="M321.2,33 C318.794667,33 316.91,32.3546667 315.546,31.064 C314.182,29.7733333 313.5,27.9986667 313.5,25.74 L313.5,20.24 C313.5,18.6853333 313.903333,17.3726667 314.71,16.302 C315.516667,15.2313333 316.668,14.476 318.164,14.036 L317.856,13.596 C316.946667,12.364 316.286667,11.22 315.876,10.164 C315.465333,9.108 315.26,8.052 315.26,6.996 C315.26,5.588 315.59,4.356 316.25,3.3 C316.91,2.244 317.834,1.43 319.022,0.858 C320.21,0.286 321.596,0 323.18,0 C324.881333,0 326.355333,0.308 327.602,0.924 C328.848667,1.54 329.809333,2.40533333 330.484,3.52 C331.158667,4.63466667 331.496,5.96933333 331.496,7.524 L327.536,7.524 C327.536,6.67333333 327.36,5.94 327.008,5.324 C326.656,4.708 326.157333,4.23866667 325.512,3.916 C324.866667,3.59333333 324.089333,3.432 323.18,3.432 C322.388,3.432 321.691333,3.57866667 321.09,3.872 C320.488667,4.16533333 320.026667,4.58333333 319.704,5.126 C319.381333,5.66866667 319.22,6.32133333 319.22,7.084 C319.22,7.81733333 319.374,8.60933333 319.682,9.46 C319.99,10.3106667 320.422667,11.1173333 320.98,11.88 L328.548,22.308 L331.672,16.72 L335.808,16.72 L330.836,25.476 L335.984,32.56 L331.628,32.56 L328.856,28.732 C326.685333,31.5773333 324.133333,33 321.2,33 Z M321.42,29.48 C322.417333,29.48 323.378,29.15 324.302,28.49 C325.226,27.83 326.010667,26.9133333 326.656,25.74 L320.188,16.808 C319.278667,16.9546667 318.596667,17.3213333 318.142,17.908 C317.687333,18.4946667 317.46,19.272 317.46,20.24 L317.46,25.74 C317.46,26.9133333 317.804667,27.83 318.494,28.49 C319.183333,29.15 320.158667,29.48 321.42,29.48 Z"/><polygon points="341.66 32.56 341.66 .44 345.62 .44 345.62 18.348 350.284 18.348 357.324 8.36 361.856 8.36 353.716 19.888 361.988 32.56 357.368 32.56 350.328 21.78 345.62 21.78 345.62 32.56"/><path d="M377.08 33C375.173333 33 373.508667 32.6186667 372.086 31.856 370.663333 31.0933333 369.563333 30.0153333 368.786 28.622 368.008667 27.2286667 367.62 25.608 367.62 23.76L367.62 17.16C367.62 15.2826667 368.008667 13.6546667 368.786 12.276 369.563333 10.8973333 370.663333 9.82666667 372.086 9.064 373.508667 8.30133333 375.173333 7.92 377.08 7.92 378.986667 7.92 380.651333 8.30133333 382.074 9.064 383.496667 9.82666667 384.596667 10.8973333 385.374 12.276 386.151333 13.6546667 386.54 15.2826667 386.54 17.16L386.54 21.428 371.492 21.428 371.492 23.76C371.492 25.6666667 371.976 27.126 372.944 28.138 373.912 29.15 375.290667 29.656 377.08 29.656 378.605333 29.656 379.837333 29.3846667 380.776 28.842 381.714667 28.2993333 382.286667 27.4853333 382.492 26.4L386.452 26.4C386.188 28.424 385.198 30.03 383.482 31.218 381.766 32.406 379.632 33 377.08 33ZM382.668 18.788 382.668 17.16C382.668 15.2533333 382.191333 13.7866667 381.238 12.76 380.284667 11.7333333 378.898667 11.22 377.08 11.22 375.290667 11.22 373.912 11.7333333 372.944 12.76 371.976 13.7866667 371.492 15.2533333 371.492 17.16L371.492 18.436 382.976 18.436 382.668 18.788ZM398.156 40.48 401.72 31.064 392.48 8.36 396.792 8.36 402.688 23.32C402.893333 23.8186667 403.091333 24.4126667 403.282 25.102 403.472667 25.7913333 403.626667 26.3706667 403.744 26.84 403.861333 26.3706667 404.022667 25.7913333 404.228 25.102 404.433333 24.4126667 404.638667 23.8186667 404.844 23.32L410.344 8.36 414.48 8.36 402.292 40.48 398.156 40.48ZM420.728 32.56 420.728 28.644 430.98 17.468C432.505333 15.8253333 433.612667 14.3586667 434.302 13.068 434.991333 11.7773333 435.336 10.516 435.336 9.284 435.336 7.524 434.822667 6.12333333 433.796 5.082 432.769333 4.04066667 431.376 3.52 429.616 3.52 427.826667 3.52 426.411333 4.05533333 425.37 5.126 424.328667 6.19666667 423.808 7.64133333 423.808 9.46L419.848 9.46C419.906667 7.524 420.346667 5.84466667 421.168 4.422 421.989333 2.99933333 423.118667 1.90666667 424.556 1.144 425.993333.381333333 427.68 0 429.616 0 431.610667 0 433.326667.381333333 434.764 1.144 436.201333 1.90666667 437.316 2.98466667 438.108 4.378 438.9 5.77133333 439.296 7.42133333 439.296 9.328 439.296 10.8533333 438.848667 12.452 437.954 14.124 437.059333 15.796 435.614667 17.7173333 433.62 19.888L425.26 28.952 439.824 28.952 439.824 32.56 420.728 32.56ZM446.82 14.52 446.82 11 465.74 11 465.74 14.52 446.82 14.52ZM446.82 25.08 446.82 21.56 465.74 21.56 465.74 25.08 446.82 25.08ZM480.084 32.56 471.68 8.36 475.772 8.36 481.404 24.64C481.726667 25.608 482.005333 26.5393333 482.24 27.434 482.474667 28.3286667 482.650667 29.0253333 482.768 29.524 482.914667 29.0253333 483.090667 28.3286667 483.296 27.434 483.501333 26.5393333 483.765333 25.608 484.088 24.64L489.544 8.36 493.68 8.36 485.276 32.56 480.084 32.56ZM506.968 33C504.416 33 502.406667 32.3473333 500.94 31.042 499.473333 29.7366667 498.74 27.9693333 498.74 25.74 498.74 23.4813333 499.473333 21.7066667 500.94 20.416 502.406667 19.1253333 504.386667 18.48 506.88 18.48L514.36 18.48 514.36 16.06C514.36 14.5933333 513.912667 13.4493333 513.018 12.628 512.123333 11.8066667 510.884 11.396 509.3 11.396 507.892 11.396 506.704 11.704 505.736 12.32 504.768 12.936 504.166667 13.7426667 503.932 14.74L499.972 14.74C500.118667 13.3906667 500.61 12.2026667 501.446 11.176 502.282 10.1493333 503.382 9.35 504.746 8.778 506.11 8.206 507.628 7.92 509.3 7.92 512.086667 7.92 514.286667 8.63866667 515.9 10.076 517.513333 11.5133333 518.32 13.464 518.32 15.928L518.32 32.56 514.448 32.56 514.448 27.94 513.788 27.94 514.448 27.28C514.448 29.04 513.766 30.4333333 512.402 31.46 511.038 32.4866667 509.226667 33 506.968 33ZM507.936 29.876C509.813333 29.876 511.353333 29.4066667 512.556 28.468 513.758667 27.5293333 514.36 26.3266667 514.36 24.86L514.36 21.428 506.968 21.428C505.648 21.428 504.606667 21.7946667 503.844 22.528 503.081333 23.2613333 502.7 24.2586667 502.7 25.52 502.7 26.8693333 503.162 27.9326667 504.086 28.71 505.01 29.4873333 506.293333 29.876 507.936 29.876ZM539 32.56C537.592 32.56 536.36 32.2813333 535.304 31.724 534.248 31.1666667 533.426667 30.3746667 532.84 29.348 532.253333 28.3213333 531.96 27.1186667 531.96 25.74L531.96 4.048 523.6 4.048 523.6.44 535.92.44 535.92 25.74C535.92 26.7373333 536.198667 27.522 536.756 28.094 537.313333 28.666 538.061333 28.952 539 28.952L546.48 28.952 546.48 32.56 539 32.56ZM561.836 33C559.049333 33 556.82 32.1713333 555.148 30.514 553.476 28.8566667 552.64 26.6053333 552.64 23.76L552.64 8.36 556.6 8.36 556.6 23.76C556.6 25.5786667 557.069333 26.994 558.008 28.006 558.946667 29.018 560.222667 29.524 561.836 29.524 563.478667 29.524 564.776667 29.018 565.73 28.006 566.683333 26.994 567.16 25.5786667 567.16 23.76L567.16 8.36 571.12 8.36 571.12 23.76C571.12 26.6053333 570.269333 28.8566667 568.568 30.514 566.866667 32.1713333 564.622667 33 561.836 33ZM588.28 33C586.373333 33 584.708667 32.6186667 583.286 31.856 581.863333 31.0933333 580.763333 30.0153333 579.986 28.622 579.208667 27.2286667 578.82 25.608 578.82 23.76L578.82 17.16C578.82 15.2826667 579.208667 13.6546667 579.986 12.276 580.763333 10.8973333 581.863333 9.82666667 583.286 9.064 584.708667 8.30133333 586.373333 7.92 588.28 7.92 590.186667 7.92 591.851333 8.30133333 593.274 9.064 594.696667 9.82666667 595.796667 10.8973333 596.574 12.276 597.351333 13.6546667 597.74 15.2826667 597.74 17.16L597.74 21.428 582.692 21.428 582.692 23.76C582.692 25.6666667 583.176 27.126 584.144 28.138 585.112 29.15 586.490667 29.656 588.28 29.656 589.805333 29.656 591.037333 29.3846667 591.976 28.842 592.914667 28.2993333 593.486667 27.4853333 593.692 26.4L597.652 26.4C597.388 28.424 596.398 30.03 594.682 31.218 592.966 32.406 590.832 33 588.28 33ZM593.868 18.788 593.868 17.16C593.868 15.2533333 593.391333 13.7866667 592.438 12.76 591.484667 11.7333333 590.098667 11.22 588.28 11.22 586.490667 11.22 585.112 11.7333333 584.144 12.76 583.176 13.7866667 582.692 15.2533333 582.692 17.16L582.692 18.436 594.176 18.436 593.868 18.788ZM605.528 32.56 605.528 28.644 615.78 17.468C617.305333 15.8253333 618.412667 14.3586667 619.102 13.068 619.791333 11.7773333 620.136 10.516 620.136 9.284 620.136 7.524 619.622667 6.12333333 618.596 5.082 617.569333 4.04066667 616.176 3.52 614.416 3.52 612.626667 3.52 611.211333 4.05533333 610.17 5.126 609.128667 6.19666667 608.608 7.64133333 608.608 9.46L604.648 9.46C604.706667 7.524 605.146667 5.84466667 605.968 4.422 606.789333 2.99933333 607.918667 1.90666667 609.356 1.144 610.793333.381333333 612.48 0 614.416 0 616.410667 0 618.126667.381333333 619.564 1.144 621.001333 1.90666667 622.116 2.98466667 622.908 4.378 623.7 5.77133333 624.096 7.42133333 624.096 9.328 624.096 10.8533333 623.648667 12.452 622.754 14.124 621.859333 15.796 620.414667 17.7173333 618.42 19.888L610.06 28.952 624.624 28.952 624.624 32.56 605.528 32.56Z"/><path d="M2.112 32.56 3.828 23.32 0 23.32 0 20.46 4.312 20.46 5.808 12.54 1.54 12.54 1.54 9.68 6.292 9.68 8.008.44 11.088.44 9.372 9.68 16.412 9.68 18.128.44 21.208.44 19.492 9.68 23.32 9.68 23.32 12.54 19.008 12.54 17.512 20.46 21.78 20.46 21.78 23.32 17.028 23.32 15.312 32.56 12.232 32.56 13.948 23.32 6.908 23.32 5.192 32.56 2.112 32.56ZM7.392 20.46 14.432 20.46 15.928 12.54 8.888 12.54 7.392 20.46ZM38.236 33C36.1826667 33 34.386 32.6333333 32.846 31.9 31.306 31.1666667 30.118 30.1326667 29.282 28.798 28.446 27.4633333 28.028 25.9013333 28.028 24.112L31.988 24.112C31.988 25.7253333 32.56 27.0233333 33.704 28.006 34.848 28.9886667 36.3586667 29.48 38.236 29.48 40.0546667 29.48 41.5066667 28.9886667 42.592 28.006 43.6773333 27.0233333 44.22 25.7253333 44.22 24.112 44.22 22.8506667 43.89 21.7433333 43.23 20.79 42.57 19.8366667 41.668 19.184 40.524 18.832L35.772 17.336C33.6306667 16.6613333 31.9513333 15.5466667 30.734 13.992 29.5166667 12.4373333 28.908 10.6333333 28.908 8.58 28.908 5.96933333 29.766 3.88666667 31.482 2.332 33.198.777333333 35.4786667 0 38.324 0 41.1693333 0 43.4426667.777333333 45.144 2.332 46.8453333 3.88666667 47.696 5.96933333 47.696 8.58L43.736 8.58C43.736 7.02533333 43.2446667 5.79333333 42.262 4.884 41.2793333 3.97466667 39.9666667 3.52 38.324 3.52 36.652 3.52 35.31 3.97466667 34.298 4.884 33.286 5.79333333 32.78 6.996 32.78 8.492 32.78 9.66533333 33.1173333 10.6773333 33.792 11.528 34.4666667 12.3786667 35.3906667 12.9946667 36.564 13.376L41.492 14.96C43.516 15.6053333 45.122 16.7493333 46.31 18.392 47.498 20.0346667 48.092 21.9413333 48.092 24.112 48.092 25.9013333 47.6886667 27.4633333 46.882 28.798 46.0753333 30.1326667 44.9313333 31.1666667 43.45 31.9 41.9686667 32.6333333 40.2306667 33 38.236 33ZM64.46 32.912C62.524 32.912 60.8446667 32.538 59.422 31.79 57.9993333 31.042 56.9066667 29.9786667 56.144 28.6 55.3813333 27.2213333 55 25.5786667 55 23.672L55 17.248C55 15.3413333 55.3813333 13.6986667 56.144 12.32 56.9066667 10.9413333 57.9993333 9.878 59.422 9.13 60.8446667 8.382 62.524 8.008 64.46 8.008 66.4253333 8.008 68.112 8.382 69.52 9.13 70.928 9.878 72.0133333 10.934 72.776 12.298 73.5386667 13.662 73.92 15.2973333 73.92 17.204L73.92 23.672C73.92 25.5786667 73.5386667 27.2213333 72.776 28.6 72.0133333 29.9786667 70.928 31.042 69.52 31.79 68.112 32.538 66.4253333 32.912 64.46 32.912ZM64.46 29.392C66.1906667 29.392 67.54 28.908 68.508 27.94 69.476 26.972 69.96 25.5493333 69.96 23.672L69.96 17.248C69.96 15.3706667 69.476 13.948 68.508 12.98 67.54 12.012 66.1906667 11.528 64.46 11.528 62.7586667 11.528 61.4166667 12.012 60.434 12.98 59.4513333 13.948 58.96 15.3706667 58.96 17.248L58.96 23.672C58.96 25.5493333 59.4513333 26.972 60.434 27.94 61.4166667 28.908 62.7586667 29.392 64.46 29.392ZM80.3 32.56 80.3 8.36 83.776 8.36 83.776 11.264 84.568 11.264 83.952 12.32C83.952 11.0293333 84.3333333 9.97333333 85.096 9.152 85.8586667 8.33066667 86.856 7.92 88.088 7.92 89.3786667 7.92 90.4273333 8.448 91.234 9.504 92.0406667 10.56 92.444 11.9386667 92.444 13.64L91.256 11.264 93.104 11.264 92.268 12.32C92.268 11.0293333 92.6566667 9.97333333 93.434 9.152 94.2113333 8.33066667 95.2306667 7.92 96.492 7.92 97.9586667 7.92 99.1466667 8.49933333 100.056 9.658 100.965333 10.8166667 101.42 12.32 101.42 14.168L101.42 32.56 97.768 32.56 97.768 14.124C97.768 13.0973333 97.5406667 12.3126667 97.086 11.77 96.6313333 11.2273333 95.9786667 10.956 95.128 10.956 94.2773333 10.956 93.6173333 11.2273333 93.148 11.77 92.6786667 12.3126667 92.444 13.0826667 92.444 14.08L92.444 32.56 89.276 32.56 89.276 14.124C89.276 13.0973333 89.034 12.3126667 88.55 11.77 88.066 11.2273333 87.3986667 10.956 86.548 10.956 85.7266667 10.956 85.0886667 11.2273333 84.634 11.77 84.1793333 12.3126667 83.952 13.0826667 83.952 14.08L83.952 32.56 80.3 32.56ZM117.26 33C115.353333 33 113.688667 32.6186667 112.266 31.856 110.843333 31.0933333 109.743333 30.0153333 108.966 28.622 108.188667 27.2286667 107.8 25.608 107.8 23.76L107.8 17.16C107.8 15.2826667 108.188667 13.6546667 108.966 12.276 109.743333 10.8973333 110.843333 9.82666667 112.266 9.064 113.688667 8.30133333 115.353333 7.92 117.26 7.92 119.166667 7.92 120.831333 8.30133333 122.254 9.064 123.676667 9.82666667 124.776667 10.8973333 125.554 12.276 126.331333 13.6546667 126.72 15.2826667 126.72 17.16L126.72 21.428 111.672 21.428 111.672 23.76C111.672 25.6666667 112.156 27.126 113.124 28.138 114.092 29.15 115.470667 29.656 117.26 29.656 118.785333 29.656 120.017333 29.3846667 120.956 28.842 121.894667 28.2993333 122.466667 27.4853333 122.672 26.4L126.632 26.4C126.368 28.424 125.378 30.03 123.662 31.218 121.946 32.406 119.812 33 117.26 33ZM122.848 18.788 122.848 17.16C122.848 15.2533333 122.371333 13.7866667 121.418 12.76 120.464667 11.7333333 119.078667 11.22 117.26 11.22 115.470667 11.22 114.092 11.7333333 113.124 12.76 112.156 13.7866667 111.672 15.2533333 111.672 17.16L111.672 18.436 123.156 18.436 122.848 18.788ZM135.872 32.56 132 8.36 135.432 8.36 137.852 25.52C137.94 26.1653333 138.028 26.862 138.116 27.61 138.204 28.358 138.262667 28.9813333 138.292 29.48L138.468 29.48C138.526667 28.9813333 138.6 28.358 138.688 27.61 138.776 26.862 138.878667 26.1653333 138.996 25.52L141.68 8.36 145.64 8.36 148.324 25.52C148.441333 26.1653333 148.551333 26.862 148.654 27.61 148.756667 28.358 148.822667 28.9813333 148.852 29.48L149.028 29.48C149.086667 28.9813333 149.167333 28.358 149.27 27.61 149.372667 26.862 149.468 26.1653333 149.556 25.52L152.064 8.36 155.32 8.36 151.272 32.56 146.916 32.56 144.32 15.84C144.202667 15.0186667 144.085333 14.1973333 143.968 13.376 143.850667 12.5546667 143.762667 11.9093333 143.704 11.44L143.528 11.44C143.498667 11.9093333 143.432667 12.5546667 143.33 13.376 143.227333 14.1973333 143.102667 15.0186667 142.956 15.84L140.228 32.56 135.872 32.56Z" opacity=".2" transform="translate(629.42)"/></g></g><rect width="120" height="150" x="680" fill="url(#a)"/></g></svg>