<svg xmlns="http://www.w3.org/2000/svg" width="800" height="200" viewBox="0 0 800 200"><defs><linearGradient id="a" x1="100%" x2="0%" y1="50%" y2="50%"><stop offset="0%" stop-color="#FFF"/><stop offset="100%" stop-color="#FFF" stop-opacity="0"/></linearGradient></defs><g fill="none" fill-rule="evenodd"><rect width="800" height="200" fill="#FFF"/><g transform="translate(10 10)"><path fill="#5856D6" d="M7.6916556,74 C5.01709938,74 4.04724067,73.7215232 3.06946289,73.1986019 C2.09168511,72.6756806 1.32431939,71.9083149 0.801398111,70.9305371 C0.278476833,69.9527593 1.2037061e-16,68.9829006 -2.07168062e-16,66.3083444 L2.07168062e-16,7.6916556 C-1.2037061e-16,5.01709938 0.278476833,4.04724067 0.801398111,3.06946289 C1.32431939,2.09168511 2.09168511,1.32431939 3.06946289,0.801398111 C4.04724067,0.278476833 5.01709938,1.80555915e-16 7.6916556,-3.10752092e-16 L626.308344,3.10752092e-16 C628.982901,-1.80555915e-16 629.952759,0.278476833 630.930537,0.801398111 C631.908315,1.32431939 632.675681,2.09168511 633.198602,3.06946289 C633.721523,4.04724067 634,5.01709938 634,7.6916556 L634,66.3083444 C634,68.9829006 633.721523,69.9527593 633.198602,70.9305371 C632.675681,71.9083149 631.908315,72.6756806 630.930537,73.1986019 C629.952759,73.7215232 628.982901,74 626.308344,74 L16,74 L16,116 L31.999,116 L32,104 L56,119 L32,134 L31.999,122 L10,122 L10,74 L7.6916556,74 Z" opacity=".5"/><path fill="#2C2C2E" fill-rule="nonzero" d="M15.27 12.9C13.17 14.55 9.42 16.08 6.33 16.95 6.69 17.25 7.08 17.7 7.32 18.03 10.44 17.04 14.19 15.39 16.5 13.53L15.27 12.9ZM18.03 16.44C15.3 18.57 10.32 20.34 5.94 21.27 6.27 21.57 6.6 22.08 6.81 22.41 11.34 21.36 16.32 19.47 19.26 17.07L18.03 16.44ZM21.93 19.8C18.54 23.16 11.7 25.2 4.2 26.1 4.47 26.43 4.77 26.97 4.92 27.36 12.6 26.34 19.62 24.15 23.22 20.46L21.93 19.8ZM4.08 7.02C4.68 6.81 5.52 6.69 11.49 6.39 11.01 7.59 10.41 8.7 9.69 9.75L.24 9.75.24 11.1 8.73 11.1C6.45 13.92 3.45 16.11 0 17.64.36 17.91.93 18.51 1.14 18.78 4.8 17.01 8.07 14.46 10.5 11.1L16.77 11.1C19.02 14.19 22.92 17.07 26.34 18.51 26.55 18.12 27.03 17.61 27.36 17.31 24.15 16.14 20.64 13.74 18.45 11.1L26.91 11.1 26.91 9.75 11.4 9.75C12 8.73 12.57 7.65 13.02 6.51L12.3 6.36 21.84 5.88C22.71 6.6 23.43 7.32 23.97 7.92L25.11 6.99C23.49 5.19 20.19 2.67 17.4 1.02L16.29 1.83C17.64 2.64 19.11 3.69 20.46 4.71L6.93 5.31C8.97 4.08 11.1 2.52 13.11.75L11.76 0C9.6 2.13 6.6 4.14 5.7 4.68 4.89 5.16 4.17 5.49 3.63 5.55 3.81 5.94 4.02 6.69 4.08 7.02ZM42.18.72C41.61 1.92 40.56 3.75 39.78 4.83L40.74 5.34C41.58 4.29 42.6 2.73 43.44 1.32L42.18.72ZM31.56 1.35C32.4 2.61 33.24 4.29 33.57 5.37L34.68 4.86C34.38 3.78 33.54 2.13 32.64.93L31.56 1.35ZM41.43 16.89C40.71 18.75 39.6 20.31 38.25 21.6 36.96 20.94 35.58 20.31 34.26 19.77 34.77 18.93 35.34 17.94 35.85 16.89L41.43 16.89ZM32.4 20.34C33.93 20.91 35.64 21.69 37.2 22.47 35.13 24.09 32.64 25.17 30.06 25.77 30.33 26.04 30.66 26.58 30.78 26.91 33.57 26.16 36.21 24.96 38.4 23.13 39.54 23.73 40.53 24.33 41.25 24.87L42.24 23.88C41.49 23.37 40.53 22.8 39.42 22.2 41.07 20.55 42.36 18.48 43.11 15.87L42.33 15.51 42.06 15.57 36.48 15.57 37.26 13.77 35.94 13.53C35.7 14.19 35.43 14.88 35.1 15.57L30.84 15.57 30.84 16.89 34.44 16.89C33.78 18.15 33.06 19.38 32.4 20.34ZM36.66 0 36.66 5.76 30.18 5.76 30.18 7.05 36.24 7.05C34.77 9.27 32.31 11.46 30.03 12.45 30.33 12.75 30.72 13.26 30.9 13.65 32.97 12.54 35.13 10.59 36.66 8.55L36.66 12.87 38.07 12.87 38.07 8.28C39.63 9.33 41.94 11.07 42.72 11.82L43.59 10.68C42.78 10.08 39.39 7.86 38.07 7.05L44.46 7.05 44.46 5.76 38.07 5.76 38.07 0 36.66 0ZM50.46 17.58C49.14 14.61 48.18 11.13 47.58 7.41L47.58 7.38 53.28 7.38C52.68 11.34 51.81 14.73 50.46 17.58ZM47.7.39C46.92 5.58 45.57 10.56 43.26 13.71 43.62 13.92 44.22 14.37 44.46 14.58 45.36 13.23 46.11 11.64 46.77 9.84 47.49 13.23 48.45 16.32 49.71 19.02 47.97 22.08 45.54 24.45 42.15 26.16 42.45 26.46 42.87 27.03 43.02 27.33 46.23 25.56 48.63 23.28 50.43 20.43 52.02 23.28 54 25.56 56.52 27.03 56.73 26.64 57.18 26.16 57.51 25.86 54.87 24.48 52.8 22.11 51.21 19.08 52.89 15.9 53.97 12.06 54.69 7.38L56.79 7.38 56.79 6 47.97 6C48.42 4.29 48.78 2.49 49.08.6L47.7.39ZM1.74 61.05 3.54 61.05 3.54 51.81 7.53 51.81C12.39 51.81 15.39 49.71 15.39 45.33 15.39 40.8 12.36 39.18 7.41 39.18L1.74 39.18 1.74 61.05ZM3.54 50.28 3.54 40.68 7.05 40.68C11.4 40.68 13.56 41.76 13.56 45.33 13.56 48.84 11.49 50.28 7.17 50.28L3.54 50.28ZM21.9 61.44C23.97 61.44 25.86 60.33 27.45 59.01L27.57 59.01 27.75 61.05 29.19 61.05 29.19 50.91C29.19 47.37 27.84 44.64 24 44.64 21.42 44.64 19.2 45.9 18 46.71L18.75 48C19.89 47.19 21.69 46.17 23.79 46.17 26.82 46.17 27.48 48.63 27.42 51 20.4 51.78 17.25 53.49 17.25 57 17.25 60 19.32 61.44 21.9 61.44ZM22.26 59.94C20.46 59.94 18.99 59.13 18.99 56.91 18.99 54.48 21.12 52.98 27.42 52.29L27.42 57.48C25.56 59.1 24.03 59.94 22.26 59.94ZM34.77 61.05 36.51 61.05 36.51 50.31C37.71 47.34 39.39 46.26 40.8 46.26 41.43 46.26 41.76 46.35 42.27 46.53L42.63 44.97C42.12 44.73 41.64 44.64 41.01 44.64 39.15 44.64 37.59 46.02 36.48 48L36.42 48 36.21 45.03 34.77 45.03 34.77 61.05ZM48.36 61.44C50.43 61.44 52.32 60.33 53.91 59.01L54.03 59.01 54.21 61.05 55.65 61.05 55.65 50.91C55.65 47.37 54.3 44.64 50.46 44.64 47.88 44.64 45.66 45.9 44.46 46.71L45.21 48C46.35 47.19 48.15 46.17 50.25 46.17 53.28 46.17 53.94 48.63 53.88 51 46.86 51.78 43.71 53.49 43.71 57 43.71 60 45.78 61.44 48.36 61.44ZM48.72 59.94C46.92 59.94 45.45 59.13 45.45 56.91 45.45 54.48 47.58 52.98 53.88 52.29L53.88 57.48C52.02 59.1 50.49 59.94 48.72 59.94ZM61.23 61.05 62.97 61.05 62.97 49.08C64.65 47.16 66.18 46.2 67.59 46.2 69.96 46.2 71.04 47.76 71.04 51.06L71.04 61.05 72.78 61.05 72.78 49.08C74.49 47.16 75.96 46.2 77.4 46.2 79.74 46.2 80.85 47.76 80.85 51.06L80.85 61.05 82.59 61.05 82.59 50.82C82.59 46.71 81 44.64 77.82 44.64 75.93 44.64 74.19 45.9 72.39 47.88 71.82 45.9 70.53 44.64 67.98 44.64 66.15 44.64 64.38 45.9 62.94 47.49L62.88 47.49 62.67 45.03 61.23 45.03 61.23 61.05ZM94.5 61.44C96.78 61.44 98.28 60.69 99.57 59.88L98.88 58.59C97.68 59.43 96.36 59.97 94.65 59.97 91.2 59.97 88.89 57.24 88.8 53.37L100.14 53.37C100.2 52.95 100.23 52.5 100.23 52.08 100.23 47.4 97.92 44.64 94.05 44.64 90.45 44.64 87.03 47.85 87.03 53.07 87.03 58.32 90.36 61.44 94.5 61.44ZM88.8 51.96C89.13 48.3 91.47 46.14 94.05 46.14 96.87 46.14 98.61 48.09 98.61 51.96L88.8 51.96ZM108.66 61.44C109.38 61.44 110.4 61.17 111.33 60.84L110.91 59.46C110.37 59.73 109.56 59.94 108.96 59.94 106.83 59.94 106.29 58.65 106.29 56.64L106.29 46.53 110.88 46.53 110.88 45.03 106.29 45.03 106.29 40.44 104.82 40.44 104.61 45.03 102.09 45.21 102.09 46.53 104.55 46.53 104.55 56.52C104.55 59.46 105.51 61.44 108.66 61.44ZM120.48 61.44C122.76 61.44 124.26 60.69 125.55 59.88L124.86 58.59C123.66 59.43 122.34 59.97 120.63 59.97 117.18 59.97 114.87 57.24 114.78 53.37L126.12 53.37C126.18 52.95 126.21 52.5 126.21 52.08 126.21 47.4 123.9 44.64 120.03 44.64 116.43 44.64 113.01 47.85 113.01 53.07 113.01 58.32 116.34 61.44 120.48 61.44ZM114.78 51.96C115.11 48.3 117.45 46.14 120.03 46.14 122.85 46.14 124.59 48.09 124.59 51.96L114.78 51.96ZM130.47 61.05 132.21 61.05 132.21 50.31C133.41 47.34 135.09 46.26 136.5 46.26 137.13 46.26 137.46 46.35 137.97 46.53L138.33 44.97C137.82 44.73 137.34 44.64 136.71 44.64 134.85 44.64 133.29 46.02 132.18 48L132.12 48 131.91 45.03 130.47 45.03 130.47 61.05ZM145.17 61.44C148.71 61.44 150.63 59.34 150.63 56.88 150.63 53.79 147.96 52.92 145.5 51.99 143.64 51.3 141.9 50.61 141.9 48.87 141.9 47.43 143.01 46.11 145.38 46.11 146.94 46.11 148.08 46.74 149.16 47.55L150.06 46.35C148.89 45.36 147.18 44.64 145.41 44.64 142.02 44.64 140.16 46.62 140.16 48.96 140.16 51.72 142.71 52.68 145.05 53.55 146.88 54.21 148.92 55.08 148.92 56.97 148.92 58.62 147.69 59.97 145.23 59.97 143.07 59.97 141.6 59.13 140.25 57.99L139.29 59.25C140.76 60.45 142.83 61.44 145.17 61.44Z" transform="translate(62.44 105.95)"/></g><g fill-rule="nonzero" transform="translate(16.796 27.672)"><path fill="#2C2C2E" d="M5.852,21.12 C5.64666667,19.8586667 5.742,18.7586667 6.138,17.82 C6.534,16.8813333 7.09133333,16.038 7.81,15.29 C8.52866667,14.542 9.262,13.8233333 10.01,13.134 C10.758,12.4446667 11.396,11.7406667 11.924,11.022 C12.452,10.3033333 12.716,9.48933333 12.716,8.58 C12.716,7.37733333 12.3126667,6.36533333 11.506,5.544 C10.6993333,4.72266667 9.48933333,4.312 7.876,4.312 C6.76133333,4.312 5.72733333,4.53933333 4.774,4.994 C3.82066667,5.44866667 2.948,6.072 2.156,6.864 L0,4.884 C0.997333333,3.85733333 2.17066667,3.00666667 3.52,2.332 C4.86933333,1.65733333 6.39466667,1.32 8.096,1.32 C10.5306667,1.32 12.5033333,1.94333333 14.014,3.19 C15.5246667,4.43666667 16.28,6.10133333 16.28,8.184 C16.28,9.38666667 16.016,10.4206667 15.488,11.286 C14.96,12.1513333 14.3073333,12.9433333 13.53,13.662 C12.7526667,14.3806667 11.9973333,15.092 11.264,15.796 C10.5306667,16.5 9.944,17.2773333 9.504,18.128 C9.064,18.9786667 8.91733333,19.976 9.064,21.12 L5.852,21.12 Z M7.788,31.856 C6.908,31.856 6.15266667,31.548 5.522,30.932 C4.89133333,30.316 4.576,29.48 4.576,28.424 C4.576,27.3973333 4.89133333,26.5833333 5.522,25.982 C6.15266667,25.3806667 6.908,25.08 7.788,25.08 C8.668,25.08 9.42333333,25.3806667 10.054,25.982 C10.6846667,26.5833333 11,27.3973333 11,28.424 C11,29.48 10.6846667,30.316 10.054,30.932 C9.42333333,31.548 8.668,31.856 7.788,31.856 Z"/><polygon fill="#2C2C2E" points="26.268 31.328 26.268 0 29.876 0 29.876 21.208 30.052 21.208 41.58 9.944 45.716 9.944 37.18 18.348 46.86 31.328 42.812 31.328 34.936 20.548 29.876 25.52 29.876 31.328"/><path fill="#2C2C2E" d="M61.996 12.276C60.236 12.276 58.6666667 12.8406667 57.288 13.97 55.9093333 15.0993333 55.0586667 16.72 54.736 18.832L68.376 18.832C68.2293333 16.632 67.584 14.9893333 66.44 13.904 65.296 12.8186667 63.8146667 12.276 61.996 12.276ZM62.524 31.856C60.3826667 31.856 58.4393333 31.416 56.694 30.536 54.9486667 29.656 53.5626667 28.3726667 52.536 26.686 51.5093333 24.9993333 50.996 22.968 50.996 20.592 50.996 18.2746667 51.5093333 16.28 52.536 14.608 53.5626667 12.936 54.9046667 11.6526667 56.562 10.758 58.2193333 9.86333333 60.0013333 9.416 61.908 9.416 64.988 9.416 67.386 10.3326667 69.102 12.166 70.818 13.9993333 71.676 16.4266667 71.676 19.448 71.676 19.8586667 71.6613333 20.2546667 71.632 20.636 71.6026667 21.0173333 71.5586667 21.3546667 71.5 21.648L54.648 21.648C54.8826667 24.0533333 55.77 25.872 57.31 27.104 58.85 28.336 60.7346667 28.952 62.964 28.952 64.2546667 28.952 65.4206667 28.7686667 66.462 28.402 67.5033333 28.0353333 68.508 27.544 69.476 26.928L70.796 29.304C69.74 30.008 68.53 30.6093333 67.166 31.108 65.802 31.6066667 64.2546667 31.856 62.524 31.856ZM80.168 40.524C79.112 40.524 78.1733333 40.3773333 77.352 40.084L78.1 37.224C78.3933333 37.312 78.7086667 37.3853333 79.046 37.444 79.3833333 37.5026667 79.7133333 37.532 80.036 37.532 81.532 37.532 82.7493333 37.0993333 83.688 36.234 84.6266667 35.3686667 85.36 34.276 85.888 32.956L86.548 31.372 76.56 9.944 80.212 9.944 85.448 21.78C85.8586667 22.7186667 86.2913333 23.7306667 86.746 24.816 87.2006667 25.9013333 87.648 26.9573333 88.088 27.984L88.264 27.984C88.6453333 26.9573333 89.034 25.9086667 89.43 24.838 89.826 23.7673333 90.2 22.748 90.552 21.78L95.216 9.944 98.648 9.944 89.232 33.088C88.704 34.496 88.044 35.7573333 87.252 36.872 86.46 37.9866667 85.4846667 38.874 84.326 39.534 83.1673333 40.194 81.7813333 40.524 80.168 40.524ZM105.072 31.328 105.072 28.336 113.168 28.336 113.168 7.656 106.876 7.656 106.876 5.324C108.518667 5.08933333 109.904667 4.80333333 111.034 4.466 112.163333 4.12866667 113.182667 3.72533333 114.092 3.256L116.776 3.256 116.776 28.336 124.124 28.336 124.124 31.328 105.072 31.328ZM130.944 13.464 130.944 10.736 149.864 10.736 149.864 13.464 130.944 13.464ZM130.944 22.88 130.944 20.152 149.864 20.152 149.864 22.88 130.944 22.88ZM164.868 31.328 155.848 9.944 159.5 9.944 164.428 22.088C164.868 23.1733333 165.286 24.2366667 165.682 25.278 166.078 26.3193333 166.466667 27.3533333 166.848 28.38L167.024 28.38C167.405333 27.3533333 167.779333 26.3193333 168.146 25.278 168.512667 24.2366667 168.916 23.1733333 169.356 22.088L174.284 9.944 177.76 9.944 168.916 31.328 164.868 31.328ZM190.828 31.856C189.508 31.856 188.298 31.614 187.198 31.13 186.098 30.646 185.218 29.9493333 184.558 29.04 183.898 28.1306667 183.568 27.0453333 183.568 25.784 183.568 24.1706667 184.088667 22.8286667 185.13 21.758 186.171333 20.6873333 187.836 19.8293333 190.124 19.184 192.412 18.5386667 195.389333 18.0693333 199.056 17.776 199.026667 16.808 198.828667 15.9206667 198.462 15.114 198.095333 14.3073333 197.501333 13.6546667 196.68 13.156 195.858667 12.6573333 194.758667 12.408 193.38 12.408 192.001333 12.408 190.659333 12.6793333 189.354 13.222 188.048667 13.7646667 186.897333 14.344 185.9 14.96L184.492 12.496C185.577333 11.792 186.963333 11.1026667 188.65 10.428 190.336667 9.75333333 192.118667 9.416 193.996 9.416 196.929333 9.416 199.107333 10.2153333 200.53 11.814 201.952667 13.4126667 202.664 15.5466667 202.664 18.216L202.664 31.328 199.716 31.328 199.408 28.424 199.276 28.424C198.102667 29.3333333 196.782667 30.1326667 195.316 30.822 193.849333 31.5113333 192.353333 31.856 190.828 31.856ZM191.796 28.952C192.998667 28.952 194.208667 28.6733333 195.426 28.116 196.643333 27.5586667 197.853333 26.7813333 199.056 25.784L199.056 20.152C196.005333 20.3866667 193.607333 20.746 191.862 21.23 190.116667 21.714 188.884667 22.3153333 188.166 23.034 187.447333 23.7526667 187.088 24.5813333 187.088 25.52 187.088 26.7226667 187.564667 27.5953333 188.518 28.138 189.471333 28.6806667 190.564 28.952 191.796 28.952ZM224.312 31.856C222.053333 31.856 220.315333 31.2033333 219.098 29.898 217.880667 28.5926667 217.272 26.6786667 217.272 24.156L217.272 2.948 209.66 2.948 209.66 0 220.88 0 220.88 24.42C220.88 25.9746667 221.268667 27.104 222.046 27.808 222.823333 28.512 223.842667 28.864 225.104 28.864 226.365333 28.864 227.7 28.5413333 229.108 27.896L230.032 30.58C229.034667 30.9906667 228.125333 31.306 227.304 31.526 226.482667 31.746 225.485333 31.856 224.312 31.856ZM243.628 31.856C241.076 31.856 239.198667 31.1226667 237.996 29.656 236.793333 28.1893333 236.192 26.048 236.192 23.232L236.192 9.944 239.844 9.944 239.844 22.748C239.844 24.772 240.218 26.2753333 240.966 27.258 241.714 28.2406667 242.982667 28.732 244.772 28.732 246.004 28.732 247.126 28.4166667 248.138 27.786 249.15 27.1553333 250.242667 26.1506667 251.416 24.772L251.416 9.944 255.024 9.944 255.024 31.328 252.076 31.328 251.768 27.588 251.592 27.588C250.506667 28.8493333 249.318667 29.876 248.028 30.668 246.737333 31.46 245.270667 31.856 243.628 31.856ZM273.196 12.276C271.436 12.276 269.866667 12.8406667 268.488 13.97 267.109333 15.0993333 266.258667 16.72 265.936 18.832L279.576 18.832C279.429333 16.632 278.784 14.9893333 277.64 13.904 276.496 12.8186667 275.014667 12.276 273.196 12.276ZM273.724 31.856C271.582667 31.856 269.639333 31.416 267.894 30.536 266.148667 29.656 264.762667 28.3726667 263.736 26.686 262.709333 24.9993333 262.196 22.968 262.196 20.592 262.196 18.2746667 262.709333 16.28 263.736 14.608 264.762667 12.936 266.104667 11.6526667 267.762 10.758 269.419333 9.86333333 271.201333 9.416 273.108 9.416 276.188 9.416 278.586 10.3326667 280.302 12.166 282.018 13.9993333 282.876 16.4266667 282.876 19.448 282.876 19.8586667 282.861333 20.2546667 282.832 20.636 282.802667 21.0173333 282.758667 21.3546667 282.7 21.648L265.848 21.648C266.082667 24.0533333 266.97 25.872 268.51 27.104 270.05 28.336 271.934667 28.952 274.164 28.952 275.454667 28.952 276.620667 28.7686667 277.662 28.402 278.703333 28.0353333 279.708 27.544 280.676 26.928L281.996 29.304C280.94 30.008 279.73 30.6093333 278.366 31.108 277.002 31.6066667 275.454667 31.856 273.724 31.856ZM289.872 31.328 289.872 28.336 297.968 28.336 297.968 7.656 291.676 7.656 291.676 5.324C293.318667 5.08933333 294.704667 4.80333333 295.834 4.466 296.963333 4.12866667 297.982667 3.72533333 298.892 3.256L301.576 3.256 301.576 28.336 308.924 28.336 308.924 31.328 289.872 31.328ZM320.452 8.712C320.452 9.504 320.569333 10.3253333 320.804 11.176 321.038667 12.0266667 321.361333 12.892 321.772 13.772 323.004 12.892 324.067333 11.9753333 324.962 11.022 325.856667 10.0686667 326.304 8.96133333 326.304 7.7 326.304 6.84933333 326.106 6.10866667 325.71 5.478 325.314 4.84733333 324.632 4.532 323.664 4.532 322.666667 4.532 321.882 4.928 321.31 5.72 320.738 6.512 320.452 7.50933333 320.452 8.712ZM322.476 31.856C320.774667 31.856 319.278667 31.5113333 317.988 30.822 316.697333 30.1326667 315.685333 29.1866667 314.952 27.984 314.218667 26.7813333 313.852 25.4026667 313.852 23.848 313.852 22.5866667 314.108667 21.4646667 314.622 20.482 315.135333 19.4993333 315.802667 18.6046667 316.624 17.798 317.445333 16.9913333 318.325333 16.2506667 319.264 15.576 318.648 14.3733333 318.171333 13.1926667 317.834 12.034 317.496667 10.8753333 317.328 9.78266667 317.328 8.756 317.328 7.46533333 317.592 6.30666667 318.12 5.28 318.648 4.25333333 319.388667 3.43933333 320.342 2.838 321.295333 2.23666667 322.402667 1.936 323.664 1.936 325.453333 1.936 326.832 2.464 327.8 3.52 328.768 4.576 329.252 5.95466667 329.252 7.656 329.252 8.888 328.944 9.99533333 328.328 10.978 327.712 11.9606667 326.934667 12.8626667 325.996 13.684 325.057333 14.5053333 324.074667 15.312 323.048 16.104 323.986667 17.5706667 325.064667 19.0006667 326.282 20.394 327.499333 21.7873333 328.768 23.056 330.088 24.2 330.909333 23.0266667 331.620667 21.736 332.222 20.328 332.823333 18.92 333.329333 17.3946667 333.74 15.752L337.084 15.752C336.556 17.6293333 335.910667 19.4406667 335.148 21.186 334.385333 22.9313333 333.476 24.5666667 332.42 26.092 334.18 27.4413333 335.837333 28.3653333 337.392 28.864L336.38 31.856C334.473333 31.2693333 332.464 30.1693333 330.352 28.556 329.296 29.5533333 328.13 30.3526667 326.854 30.954 325.578 31.5553333 324.118667 31.856 322.476 31.856ZM317.372 23.628C317.372 25.2413333 317.914667 26.532 319 27.5 320.085333 28.468 321.390667 28.952 322.916 28.952 323.825333 28.952 324.712667 28.7466667 325.578 28.336 326.443333 27.9253333 327.242667 27.368 327.976 26.664 326.597333 25.432 325.277333 24.0753333 324.016 22.594 322.754667 21.1126667 321.625333 19.5946667 320.628 18.04 319.718667 18.8613333 318.948667 19.7193333 318.318 20.614 317.687333 21.5086667 317.372 22.5133333 317.372 23.628Z"/><polygon fill="#2C2C2E" points="343.068 31.328 343.068 0 346.676 0 346.676 21.208 346.852 21.208 358.38 9.944 362.516 9.944 353.98 18.348 363.66 31.328 359.612 31.328 351.736 20.548 346.676 25.52 346.676 31.328"/><path fill="#2C2C2E" d="M378.796 12.276C377.036 12.276 375.466667 12.8406667 374.088 13.97 372.709333 15.0993333 371.858667 16.72 371.536 18.832L385.176 18.832C385.029333 16.632 384.384 14.9893333 383.24 13.904 382.096 12.8186667 380.614667 12.276 378.796 12.276ZM379.324 31.856C377.182667 31.856 375.239333 31.416 373.494 30.536 371.748667 29.656 370.362667 28.3726667 369.336 26.686 368.309333 24.9993333 367.796 22.968 367.796 20.592 367.796 18.2746667 368.309333 16.28 369.336 14.608 370.362667 12.936 371.704667 11.6526667 373.362 10.758 375.019333 9.86333333 376.801333 9.416 378.708 9.416 381.788 9.416 384.186 10.3326667 385.902 12.166 387.618 13.9993333 388.476 16.4266667 388.476 19.448 388.476 19.8586667 388.461333 20.2546667 388.432 20.636 388.402667 21.0173333 388.358667 21.3546667 388.3 21.648L371.448 21.648C371.682667 24.0533333 372.57 25.872 374.11 27.104 375.65 28.336 377.534667 28.952 379.764 28.952 381.054667 28.952 382.220667 28.7686667 383.262 28.402 384.303333 28.0353333 385.308 27.544 386.276 26.928L387.596 29.304C386.54 30.008 385.33 30.6093333 383.966 31.108 382.602 31.6066667 381.054667 31.856 379.324 31.856ZM396.968 40.524C395.912 40.524 394.973333 40.3773333 394.152 40.084L394.9 37.224C395.193333 37.312 395.508667 37.3853333 395.846 37.444 396.183333 37.5026667 396.513333 37.532 396.836 37.532 398.332 37.532 399.549333 37.0993333 400.488 36.234 401.426667 35.3686667 402.16 34.276 402.688 32.956L403.348 31.372 393.36 9.944 397.012 9.944 402.248 21.78C402.658667 22.7186667 403.091333 23.7306667 403.546 24.816 404.000667 25.9013333 404.448 26.9573333 404.888 27.984L405.064 27.984C405.445333 26.9573333 405.834 25.9086667 406.23 24.838 406.626 23.7673333 407 22.748 407.352 21.78L412.016 9.944 415.448 9.944 406.032 33.088C405.504 34.496 404.844 35.7573333 404.052 36.872 403.26 37.9866667 402.284667 38.874 401.126 39.534 399.967333 40.194 398.581333 40.524 396.968 40.524ZM420.816 31.328 420.816 29.172C423.984 26.356 426.668 23.892 428.868 21.78 431.068 19.668 432.732667 17.7613333 433.862 16.06 434.991333 14.3586667 435.556 12.7306667 435.556 11.176 435.556 9.56266667 435.057333 8.24266667 434.06 7.216 433.062667 6.18933333 431.522667 5.676 429.44 5.676 428.12 5.676 426.895333 6.006 425.766 6.666 424.636667 7.326 423.617333 8.12533333 422.708 9.064L420.64 6.996C421.901333 5.70533333 423.265333 4.67133333 424.732 3.894 426.198667 3.11666667 427.914667 2.728 429.88 2.728 432.696 2.728 434.925333 3.48333333 436.568 4.994 438.210667 6.50466667 439.032 8.50666667 439.032 11 439.032 12.76 438.489333 14.542 437.404 16.346 436.318667 18.15 434.800667 20.042 432.85 22.022 430.899333 24.002 428.648 26.1506667 426.096 28.468 426.976 28.4093333 427.863333 28.3506667 428.758 28.292 429.652667 28.2333333 430.510667 28.204 431.332 28.204L440.572 28.204 440.572 31.328 420.816 31.328ZM447.744 13.464 447.744 10.736 466.664 10.736 466.664 13.464 447.744 13.464ZM447.744 22.88 447.744 20.152 466.664 20.152 466.664 22.88 447.744 22.88ZM481.668 31.328 472.648 9.944 476.3 9.944 481.228 22.088C481.668 23.1733333 482.086 24.2366667 482.482 25.278 482.878 26.3193333 483.266667 27.3533333 483.648 28.38L483.824 28.38C484.205333 27.3533333 484.579333 26.3193333 484.946 25.278 485.312667 24.2366667 485.716 23.1733333 486.156 22.088L491.084 9.944 494.56 9.944 485.716 31.328 481.668 31.328ZM507.628 31.856C506.308 31.856 505.098 31.614 503.998 31.13 502.898 30.646 502.018 29.9493333 501.358 29.04 500.698 28.1306667 500.368 27.0453333 500.368 25.784 500.368 24.1706667 500.888667 22.8286667 501.93 21.758 502.971333 20.6873333 504.636 19.8293333 506.924 19.184 509.212 18.5386667 512.189333 18.0693333 515.856 17.776 515.826667 16.808 515.628667 15.9206667 515.262 15.114 514.895333 14.3073333 514.301333 13.6546667 513.48 13.156 512.658667 12.6573333 511.558667 12.408 510.18 12.408 508.801333 12.408 507.459333 12.6793333 506.154 13.222 504.848667 13.7646667 503.697333 14.344 502.7 14.96L501.292 12.496C502.377333 11.792 503.763333 11.1026667 505.45 10.428 507.136667 9.75333333 508.918667 9.416 510.796 9.416 513.729333 9.416 515.907333 10.2153333 517.33 11.814 518.752667 13.4126667 519.464 15.5466667 519.464 18.216L519.464 31.328 516.516 31.328 516.208 28.424 516.076 28.424C514.902667 29.3333333 513.582667 30.1326667 512.116 30.822 510.649333 31.5113333 509.153333 31.856 507.628 31.856ZM508.596 28.952C509.798667 28.952 511.008667 28.6733333 512.226 28.116 513.443333 27.5586667 514.653333 26.7813333 515.856 25.784L515.856 20.152C512.805333 20.3866667 510.407333 20.746 508.662 21.23 506.916667 21.714 505.684667 22.3153333 504.966 23.034 504.247333 23.7526667 503.888 24.5813333 503.888 25.52 503.888 26.7226667 504.364667 27.5953333 505.318 28.138 506.271333 28.6806667 507.364 28.952 508.596 28.952ZM541.112 31.856C538.853333 31.856 537.115333 31.2033333 535.898 29.898 534.680667 28.5926667 534.072 26.6786667 534.072 24.156L534.072 2.948 526.46 2.948 526.46 0 537.68 0 537.68 24.42C537.68 25.9746667 538.068667 27.104 538.846 27.808 539.623333 28.512 540.642667 28.864 541.904 28.864 543.165333 28.864 544.5 28.5413333 545.908 27.896L546.832 30.58C545.834667 30.9906667 544.925333 31.306 544.104 31.526 543.282667 31.746 542.285333 31.856 541.112 31.856ZM560.428 31.856C557.876 31.856 555.998667 31.1226667 554.796 29.656 553.593333 28.1893333 552.992 26.048 552.992 23.232L552.992 9.944 556.644 9.944 556.644 22.748C556.644 24.772 557.018 26.2753333 557.766 27.258 558.514 28.2406667 559.782667 28.732 561.572 28.732 562.804 28.732 563.926 28.4166667 564.938 27.786 565.95 27.1553333 567.042667 26.1506667 568.216 24.772L568.216 9.944 571.824 9.944 571.824 31.328 568.876 31.328 568.568 27.588 568.392 27.588C567.306667 28.8493333 566.118667 29.876 564.828 30.668 563.537333 31.46 562.070667 31.856 560.428 31.856ZM589.996 12.276C588.236 12.276 586.666667 12.8406667 585.288 13.97 583.909333 15.0993333 583.058667 16.72 582.736 18.832L596.376 18.832C596.229333 16.632 595.584 14.9893333 594.44 13.904 593.296 12.8186667 591.814667 12.276 589.996 12.276ZM590.524 31.856C588.382667 31.856 586.439333 31.416 584.694 30.536 582.948667 29.656 581.562667 28.3726667 580.536 26.686 579.509333 24.9993333 578.996 22.968 578.996 20.592 578.996 18.2746667 579.509333 16.28 580.536 14.608 581.562667 12.936 582.904667 11.6526667 584.562 10.758 586.219333 9.86333333 588.001333 9.416 589.908 9.416 592.988 9.416 595.386 10.3326667 597.102 12.166 598.818 13.9993333 599.676 16.4266667 599.676 19.448 599.676 19.8586667 599.661333 20.2546667 599.632 20.636 599.602667 21.0173333 599.558667 21.3546667 599.5 21.648L582.648 21.648C582.882667 24.0533333 583.77 25.872 585.31 27.104 586.85 28.336 588.734667 28.952 590.964 28.952 592.254667 28.952 593.420667 28.7686667 594.462 28.402 595.503333 28.0353333 596.508 27.544 597.476 26.928L598.796 29.304C597.74 30.008 596.53 30.6093333 595.166 31.108 593.802 31.6066667 592.254667 31.856 590.524 31.856ZM605.616 31.328 605.616 29.172C608.784 26.356 611.468 23.892 613.668 21.78 615.868 19.668 617.532667 17.7613333 618.662 16.06 619.791333 14.3586667 620.356 12.7306667 620.356 11.176 620.356 9.56266667 619.857333 8.24266667 618.86 7.216 617.862667 6.18933333 616.322667 5.676 614.24 5.676 612.92 5.676 611.695333 6.006 610.566 6.666 609.436667 7.326 608.417333 8.12533333 607.508 9.064L605.44 6.996C606.701333 5.70533333 608.065333 4.67133333 609.532 3.894 610.998667 3.11666667 612.714667 2.728 614.68 2.728 617.496 2.728 619.725333 3.48333333 621.368 4.994 623.010667 6.50466667 623.832 8.50666667 623.832 11 623.832 12.76 623.289333 14.542 622.204 16.346 621.118667 18.15 619.600667 20.042 617.65 22.022 615.699333 24.002 613.448 26.1506667 610.896 28.468 611.776 28.4093333 612.663333 28.3506667 613.558 28.292 614.452667 28.2333333 615.310667 28.204 616.132 28.204L625.372 28.204 625.372 31.328 605.616 31.328Z"/><path fill="#C7C7CC" d="M638.836 19.844 644.644 19.844 645.436 13.332 639.628 13.332 638.836 19.844ZM635.052 31.328 636.152 22.352 632.632 22.352 632.632 19.844 636.46 19.844 637.252 13.332 633.512 13.332 633.512 10.78 637.56 10.78 638.572 2.728 640.904 2.728 639.936 10.78 645.744 10.78 646.756 2.728 649.088 2.728 648.12 10.78 651.64 10.78 651.64 13.332 647.812 13.332 647.02 19.844 650.76 19.844 650.76 22.352 646.712 22.352 645.612 31.328 643.236 31.328 644.336 22.352 638.528 22.352 637.428 31.328 635.052 31.328ZM668.624 31.856C666.512 31.856 664.561333 31.4673333 662.772 30.69 660.982667 29.9126667 659.442667 28.8786667 658.152 27.588L660.352 25.036C661.437333 26.1213333 662.706 26.994 664.158 27.654 665.61 28.314 667.157333 28.644 668.8 28.644 670.794667 28.644 672.342 28.2186667 673.442 27.368 674.542 26.5173333 675.092 25.4173333 675.092 24.068 675.092 23.0413333 674.864667 22.22 674.41 21.604 673.955333 20.988 673.339333 20.4746667 672.562 20.064 671.784667 19.6533333 670.897333 19.2426667 669.9 18.832L665.764 17.028C664.796 16.6466667 663.835333 16.148 662.882 15.532 661.928667 14.916 661.129333 14.124 660.484 13.156 659.838667 12.188 659.516 11 659.516 9.592 659.516 8.12533333 659.919333 6.81266667 660.726 5.654 661.532667 4.49533333 662.647333 3.586 664.07 2.926 665.492667 2.266 667.128 1.936 668.976 1.936 670.794667 1.936 672.466667 2.266 673.992 2.926 675.517333 3.586 676.808 4.444 677.864 5.5L675.928 7.876C674.989333 7.02533333 673.948 6.358 672.804 5.874 671.66 5.39 670.34 5.148 668.844 5.148 667.172 5.148 665.822667 5.52933333 664.796 6.292 663.769333 7.05466667 663.256 8.08133333 663.256 9.372 663.256 10.2813333 663.512667 11.0293333 664.026 11.616 664.539333 12.2026667 665.192 12.6866667 665.984 13.068 666.776 13.4493333 667.582667 13.816 668.404 14.168L672.452 15.928C673.654667 16.3973333 674.732667 16.962 675.686 17.622 676.639333 18.282 677.402 19.0886667 677.974 20.042 678.546 20.9953333 678.832 22.1906667 678.832 23.628 678.832 25.1533333 678.421333 26.5393333 677.6 27.786 676.778667 29.0326667 675.605333 30.0226667 674.08 30.756 672.554667 31.4893333 670.736 31.856 668.624 31.856ZM694.804 31.856C692.926667 31.856 691.188667 31.416 689.59 30.536 687.991333 29.656 686.700667 28.38 685.718 26.708 684.735333 25.036 684.244 23.0266667 684.244 20.68 684.244 18.2746667 684.735333 16.236 685.718 14.564 686.700667 12.892 687.991333 11.616 689.59 10.736 691.188667 9.856 692.926667 9.416 694.804 9.416 696.681333 9.416 698.419333 9.856 700.018 10.736 701.616667 11.616 702.907333 12.892 703.89 14.564 704.872667 16.236 705.364 18.2746667 705.364 20.68 705.364 23.0266667 704.872667 25.036 703.89 26.708 702.907333 28.38 701.616667 29.656 700.018 30.536 698.419333 31.416 696.681333 31.856 694.804 31.856ZM694.804 28.864C696.857333 28.864 698.507333 28.1086667 699.754 26.598 701.000667 25.0873333 701.624 23.1146667 701.624 20.68 701.624 18.216 701.000667 16.2213333 699.754 14.696 698.507333 13.1706667 696.857333 12.408 694.804 12.408 692.750667 12.408 691.100667 13.1706667 689.854 14.696 688.607333 16.2213333 687.984 18.216 687.984 20.68 687.984 23.1146667 688.607333 25.0873333 689.854 26.598 691.100667 28.1086667 692.750667 28.864 694.804 28.864ZM710.556 31.328 710.556 9.944 713.46 9.944 713.768 12.76 713.856 12.76C714.413333 11.7626667 715.058667 10.956 715.792 10.34 716.525333 9.724 717.508 9.416 718.74 9.416 720.822667 9.416 722.172 10.648 722.788 13.112 723.404 11.968 724.086 11.066 724.834 10.406 725.582 9.746 726.572 9.416 727.804 9.416 729.3 9.416 730.466 9.98066667 731.302 11.11 732.138 12.2393333 732.556 13.8746667 732.556 16.016L732.556 31.328 728.948 31.328 728.948 16.28C728.948 13.7866667 728.185333 12.54 726.66 12.54 725.926667 12.54 725.318 12.8113333 724.834 13.354 724.35 13.8966667 723.814667 14.7253333 723.228 15.84L723.228 31.328 719.884 31.328 719.884 16.28C719.884 15.048 719.715333 14.1166667 719.378 13.486 719.040667 12.8553333 718.476 12.54 717.684 12.54 716.950667 12.54 716.312667 12.8113333 715.77 13.354 715.227333 13.8966667 714.692 14.7253333 714.164 15.84L714.164 31.328 710.556 31.328ZM748.396 12.276C746.636 12.276 745.066667 12.8406667 743.688 13.97 742.309333 15.0993333 741.458667 16.72 741.136 18.832L754.776 18.832C754.629333 16.632 753.984 14.9893333 752.84 13.904 751.696 12.8186667 750.214667 12.276 748.396 12.276ZM748.924 31.856C746.782667 31.856 744.839333 31.416 743.094 30.536 741.348667 29.656 739.962667 28.3726667 738.936 26.686 737.909333 24.9993333 737.396 22.968 737.396 20.592 737.396 18.2746667 737.909333 16.28 738.936 14.608 739.962667 12.936 741.304667 11.6526667 742.962 10.758 744.619333 9.86333333 746.401333 9.416 748.308 9.416 751.388 9.416 753.786 10.3326667 755.502 12.166 757.218 13.9993333 758.076 16.4266667 758.076 19.448 758.076 19.8586667 758.061333 20.2546667 758.032 20.636 758.002667 21.0173333 757.958667 21.3546667 757.9 21.648L741.048 21.648C741.282667 24.0533333 742.17 25.872 743.71 27.104 745.25 28.336 747.134667 28.952 749.364 28.952 750.654667 28.952 751.820667 28.7686667 752.862 28.402 753.903333 28.0353333 754.908 27.544 755.876 26.928L757.196 29.304C756.14 30.008 754.93 30.6093333 753.566 31.108 752.202 31.6066667 750.654667 31.856 748.924 31.856ZM765.82 31.328 761.156 9.944 764.764 9.944 767.316 22.352C767.521333 23.3493333 767.704667 24.3246667 767.866 25.278 768.027333 26.2313333 768.166667 27.2213333 768.284 28.248L768.46 28.248C768.606667 27.2213333 768.79 26.2313333 769.01 25.278 769.23 24.3246667 769.457333 23.3493333 769.692 22.352L772.332 11.264 775.94 11.264 778.492 22.352C778.726667 23.3493333 778.976 24.3246667 779.24 25.278 779.504 26.2313333 779.694667 27.2213333 779.812 28.248L779.988 28.248C780.164 27.2213333 780.318 26.2313333 780.45 25.278 780.582 24.3246667 780.750667 23.3493333 780.956 22.352L783.508 9.944 786.852 9.944 782.276 31.328 777.612 31.328 775.148 21.12C774.796 19.624 774.444 17.512 774.092 14.784L773.916 14.784C773.564 17.512 773.212 19.624 772.86 21.12L770.484 31.328 765.82 31.328Z"/></g><rect width="100" height="200" x="700" fill="url(#a)"/></g></svg>