<svg xmlns="http://www.w3.org/2000/svg" width="800" height="150" viewBox="0 0 800 150"><defs><linearGradient id="a" x1="100%" x2="0%" y1="50%" y2="50%"><stop offset="0%" stop-color="#FFF"/><stop offset="100%" stop-color="#FFF" stop-opacity="0"/></linearGradient></defs><g fill="none" fill-rule="evenodd"><rect width="800" height="150" fill="#FFF"/><path fill="#000" fill-rule="nonzero" d="M552.992 36.52 552.992 12.32 556.468 12.32 556.468 15.224 557.26 15.224 556.644 16.28C556.644 14.9893333 557.025333 13.9333333 557.788 13.112 558.550667 12.2906667 559.548 11.88 560.78 11.88 562.070667 11.88 563.119333 12.408 563.926 13.464 564.732667 14.52 565.136 15.8986667 565.136 17.6L563.948 15.224 565.796 15.224 564.96 16.28C564.96 14.9893333 565.348667 13.9333333 566.126 13.112 566.903333 12.2906667 567.922667 11.88 569.184 11.88 570.650667 11.88 571.838667 12.4593333 572.748 13.618 573.657333 14.7766667 574.112 16.28 574.112 18.128L574.112 36.52 570.46 36.52 570.46 18.084C570.46 17.0573333 570.232667 16.2726667 569.778 15.73 569.323333 15.1873333 568.670667 14.916 567.82 14.916 566.969333 14.916 566.309333 15.1873333 565.84 15.73 565.370667 16.2726667 565.136 17.0426667 565.136 18.04L565.136 36.52 561.968 36.52 561.968 18.084C561.968 17.0573333 561.726 16.2726667 561.242 15.73 560.758 15.1873333 560.090667 14.916 559.24 14.916 558.418667 14.916 557.780667 15.1873333 557.326 15.73 556.871333 16.2726667 556.644 17.0426667 556.644 18.04L556.644 36.52 552.992 36.52ZM589.952 18.48C588.866667 18.48 587.986667 18.1793333 587.312 17.578 586.637333 16.9766667 586.3 16.1773333 586.3 15.18 586.3 14.1826667 586.637333 13.3833333 587.312 12.782 587.986667 12.1806667 588.866667 11.88 589.952 11.88 591.066667 11.88 591.954 12.1806667 592.614 12.782 593.274 13.3833333 593.604 14.1826667 593.604 15.18 593.604 16.1773333 593.274 16.9766667 592.614 17.578 591.954 18.1793333 591.066667 18.48 589.952 18.48ZM589.952 36.96C588.866667 36.96 587.986667 36.6593333 587.312 36.058 586.637333 35.4566667 586.3 34.6573333 586.3 33.66 586.3 32.6626667 586.637333 31.8633333 587.312 31.262 587.986667 30.6606667 588.866667 30.36 589.952 30.36 591.066667 30.36 591.954 30.6606667 592.614 31.262 593.274 31.8633333 593.604 32.6626667 593.604 33.66 593.604 34.6573333 593.274 35.4566667 592.614 36.058 591.954 36.6593333 591.066667 36.96 589.952 36.96ZM616.352 36.96C614.298667 36.96 612.494667 36.6006667 610.94 35.882 609.385333 35.1633333 608.182667 34.166 607.332 32.89 606.481333 31.614 606.056 30.14 606.056 28.468 606.056 26.532 606.708667 24.7426667 608.014 23.1 609.319333 21.4573333 611.042667 20.2253333 613.184 19.404L617.452 17.776C618.830667 17.248 619.945333 16.4926667 620.796 15.51 621.646667 14.5273333 622.072 13.4493333 622.072 12.276 622.072 10.8386667 621.544 9.67266667 620.488 8.778 619.432 7.88333333 618.053333 7.436 616.352 7.436 614.650667 7.436 613.272 7.89066667 612.216 8.8 611.16 9.70933333 610.632 10.868 610.632 12.276 610.632 13.4786667 611.042667 14.564 611.864 15.532 612.685333 16.5 613.756 17.2333333 615.076 17.732L619.344 19.316C621.544 20.1373333 623.311333 21.3766667 624.646 23.034 625.980667 24.6913333 626.648 26.5026667 626.648 28.468 626.648 30.14 626.222667 31.614 625.372 32.89 624.521333 34.166 623.326 35.1633333 621.786 35.882 620.246 36.6006667 618.434667 36.96 616.352 36.96ZM616.352 33.44C618.288 33.44 619.842667 32.934 621.016 31.922 622.189333 30.91 622.776 29.5826667 622.776 27.94 622.776 26.6493333 622.38 25.4833333 621.588 24.442 620.796 23.4006667 619.681333 22.6013333 618.244 22.044L614.02 20.416C611.614667 19.4773333 609.803333 18.2893333 608.586 16.852 607.368667 15.4146667 606.76 13.8453333 606.76 12.144 606.76 10.5306667 607.178 9.108 608.014 7.876 608.85 6.644 609.986667 5.676 611.424 4.972 612.861333 4.268 614.504 3.916 616.352 3.916 618.2 3.916 619.85 4.268 621.302 4.972 622.754 5.676 623.890667 6.644 624.712 7.876 625.533333 9.108 625.944 10.5306667 625.944 12.144 625.944 13.816 625.328 15.3853333 624.096 16.852 622.864 18.3186667 621.016 19.5213333 618.552 20.46L614.328 22.088C612.92 22.6453333 611.834667 23.4446667 611.072 24.486 610.309333 25.5273333 609.928 26.6786667 609.928 27.94 609.928 29.5826667 610.514667 30.91 611.688 31.922 612.861333 32.934 614.416 33.44 616.352 33.44ZM642.752 36.96C640.786667 36.96 639.078 36.5713333 637.626 35.794 636.174 35.0166667 635.052 33.9166667 634.26 32.494 633.468 31.0713333 633.072 29.4066667 633.072 27.5L633.072 13.42C633.072 11.484 633.468 9.812 634.26 8.404 635.052 6.996 636.174 5.90333333 637.626 5.126 639.078 4.34866667 640.786667 3.96 642.752 3.96 644.746667 3.96 646.462667 4.34866667 647.9 5.126 649.337333 5.90333333 650.452 6.996 651.244 8.404 652.036 9.812 652.432 11.484 652.432 13.42L652.432 27.5C652.432 29.4066667 652.036 31.0713333 651.244 32.494 650.452 33.9166667 649.33 35.0166667 647.878 35.794 646.426 36.5713333 644.717333 36.96 642.752 36.96ZM642.752 33.572C644.512 33.572 645.927333 33.0073333 646.998 31.878 648.068667 30.7486667 648.604 29.2893333 648.604 27.5L648.604 13.42C648.604 11.6306667 648.068667 10.1713333 646.998 9.042 645.927333 7.91266667 644.512 7.348 642.752 7.348 640.992 7.348 639.576667 7.91266667 638.506 9.042 637.435333 10.1713333 636.9 11.6306667 636.9 13.42L636.9 27.5C636.9 29.2893333 637.435333 30.7486667 638.506 31.878 639.576667 33.0073333 640.992 33.572 642.752 33.572ZM642.752 23.056C641.96 23.056 641.322 22.8066667 640.838 22.308 640.354 21.8093333 640.112 21.1493333 640.112 20.328 640.112 19.536 640.354 18.898 640.838 18.414 641.322 17.93 641.96 17.688 642.752 17.688 643.544 17.688 644.182 17.93 644.666 18.414 645.15 18.898 645.392 19.536 645.392 20.328 645.392 21.1493333 645.15 21.8093333 644.666 22.308 644.182 22.8066667 643.544 23.056 642.752 23.056Z" opacity=".2" transform="translate(-557.952 22.53)"/><rect width="120" height="150" fill="url(#a)" transform="matrix(-1 0 0 1 120 0)"/><g transform="translate(100 8.05)"><path fill="#FA6400" d="M7.6916556,74 C5.01709938,74 4.04724067,73.7215232 3.06946289,73.1986019 C2.09168511,72.6756806 1.32431939,71.9083149 0.801398111,70.9305371 C0.278476833,69.9527593 1.2037061e-16,68.9829006 -2.07168062e-16,66.3083444 L2.07168062e-16,7.6916556 C-1.2037061e-16,5.01709938 0.278476833,4.04724067 0.801398111,3.06946289 C1.32431939,2.09168511 2.09168511,1.32431939 3.06946289,0.801398111 C4.04724067,0.278476833 5.01709938,1.80555915e-16 7.6916556,-3.10752092e-16 L523.308344,3.10752092e-16 C525.982901,-1.80555915e-16 526.952759,0.278476833 527.930537,0.801398111 C528.908315,1.32431939 529.675681,2.09168511 530.198602,3.06946289 C530.721523,4.04724067 531,5.01709938 531,7.6916556 L531,66.3083444 C531,68.9829006 530.721523,69.9527593 530.198602,70.9305371 C529.675681,71.9083149 528.908315,72.6756806 527.930537,73.1986019 C526.952759,73.7215232 525.982901,74 523.308344,74 L66,74 L66,116 L81.999,116 L82,104 L106,119 L82,134 L81.999,122 L60,122 L60,74 L7.6916556,74 Z" opacity=".5"/><path fill="#000" fill-rule="nonzero" d="M1.2 2.34C3.48 3.15 6.21 4.5 7.62 5.58L8.37 4.38C6.96 3.33 4.2 2.04 1.95 1.32L1.2 2.34ZM0 10.56.42 11.91C2.76 11.13 5.85 10.17 8.82 9.24L8.61 7.92C5.37 8.94 2.16 9.93 0 10.56ZM4.2 13.95 4.2 22.38 5.64 22.38 5.64 15.33 21.45 15.33 21.45 22.23 22.92 22.23 22.92 13.95 4.2 13.95ZM13.08 16.29C12.24 21.99 9.72 24.93.18 26.16.42 26.46.75 27 .84 27.33 10.71 25.95 13.56 22.71 14.55 16.29L13.08 16.29ZM14.04 22.35C17.94 23.64 22.89 25.74 25.47 27.15L26.25 25.89C23.64 24.48 18.69 22.47 14.82 21.24L14.04 22.35ZM13.32.06C12.48 2.13 10.83 4.74 8.31 6.63 8.67 6.81 9.12 7.2 9.36 7.53 10.62 6.51 11.67 5.34 12.54 4.14L16.83 4.14C15.87 7.56 13.62 10.59 8.07 12.03 8.37 12.24 8.73 12.75 8.91 13.08 13.14 11.88 15.6 9.84 17.04 7.29 18.99 9.93 22.26 11.97 25.8 12.93 26.01 12.54 26.4 12.06 26.7 11.79 22.92 10.92 19.38 8.79 17.64 6.12 17.91 5.49 18.15 4.83 18.33 4.14L23.85 4.14C23.25 5.25 22.56 6.36 22.02 7.14L23.28 7.56C24.09 6.45 25.02 4.74 25.89 3.18L24.87 2.85 24.6 2.91 13.35 2.91C13.89 2.01 14.34 1.11 14.7.24L13.32.06ZM43.62 12.39 54.09 12.39 54.09 15.63 43.62 15.63 43.62 12.39ZM43.62 8.01 54.09 8.01 54.09 11.19 43.62 11.19 43.62 8.01ZM43.65 18.81C42.69 20.94 41.25 23.04 39.78 24.57 40.11 24.75 40.74 25.14 40.98 25.38 42.42 23.82 43.95 21.42 45 19.2L43.65 18.81ZM52.14 19.17C53.46 21.06 55.05 23.58 55.8 25.08L57.15 24.42C56.31 23.01 54.72 20.52 53.4 18.66L52.14 19.17ZM31.2 1.38C32.91 2.46 35.16 3.99 36.27 4.95L37.14 3.78C36 2.91 33.78 1.44 32.1.42L31.2 1.38ZM29.73 9.48C31.47 10.44 33.72 11.88 34.89 12.75L35.76 11.58C34.56 10.74 32.28 9.39 30.57 8.46L29.73 9.48ZM30.48 25.95 31.77 26.82C33.24 24.12 35.1 20.25 36.42 17.1L35.28 16.26C33.87 19.59 31.89 23.64 30.48 25.95ZM38.7 1.41 38.7 9.63C38.7 14.61 38.34 21.39 34.92 26.31 35.25 26.46 35.85 26.82 36.12 27.09 39.66 22.02 40.14 14.79 40.14 9.63L40.14 2.79 56.79 2.79 56.79 1.41 38.7 1.41ZM48.06 3.51C47.88 4.44 47.49 5.73 47.16 6.75L42.27 6.75 42.27 16.86 48.03 16.86 48.03 25.53C48.03 25.89 47.91 25.98 47.52 26.01 47.1 26.01 45.78 26.04 44.13 25.98 44.31 26.37 44.49 26.91 44.58 27.27 46.65 27.3 47.88 27.3 48.57 27.03 49.26 26.82 49.44 26.4 49.44 25.56L49.44 16.86 55.47 16.86 55.47 6.75 48.51 6.75C48.9 5.91 49.26 4.86 49.62 3.9L48.06 3.51ZM62.64 2.67 69.3 2.67 69.3 8.82 62.64 8.82 62.64 2.67ZM59.73 24.18 60.03 25.62C63.06 24.87 67.23 23.85 71.28 22.83L71.13 21.51 66.93 22.53 66.93 16.32 70.92 16.32 70.92 14.97 66.93 14.97 66.93 10.14 70.65 10.14 70.65 9.81C71.01 10.05 71.55 10.47 71.73 10.71 72.93 9.51 74.04 8.04 75.03 6.39 75.84 8.01 76.95 9.78 78.33 11.46 75.93 14.01 72.99 15.93 70.2 17.04 70.5 17.31 70.92 17.85 71.1 18.18 71.91 17.82 72.75 17.43 73.56 16.95L73.56 27.24 74.91 27.24 74.91 26.07 83.58 26.07 83.58 27.15 84.99 27.15 84.99 17.1C85.47 17.37 85.95 17.61 86.46 17.85 86.67 17.46 87.09 16.92 87.39 16.65 84.51 15.45 82.08 13.62 80.13 11.55 82.05 9.3 83.67 6.63 84.69 3.54L83.76 3.15 83.46 3.21 76.68 3.21C77.1 2.28 77.46 1.32 77.79.33L76.41 0C75.18 3.78 73.14 7.35 70.65 9.66L70.65 1.35 61.29 1.35 61.29 10.14 65.55 10.14 65.55 22.86 62.7 23.52 62.7 13.38 61.41 13.38 61.41 23.82 59.73 24.18ZM74.91 24.75 74.91 17.88 83.58 17.88 83.58 24.75 74.91 24.75ZM82.83 4.53C81.96 6.75 80.7 8.76 79.2 10.5 77.73 8.73 76.56 6.87 75.78 5.1L76.05 4.53 82.83 4.53ZM74.16 16.59C75.96 15.51 77.67 14.13 79.26 12.51 80.64 14.01 82.26 15.42 84.12 16.59L74.16 16.59ZM96.45.12C95.16 2.28 92.58 4.8 90.27 6.45 90.54 6.72 90.93 7.26 91.11 7.59 93.6 5.82 96.24 3.12 97.83.63L96.45.12ZM99.78 1.68 99.78 3.06 112.08 3.06C109.02 7.47 103.02 11.07 97.89 12.84 98.19 13.11 98.58 13.65 98.76 13.98 101.64 12.93 104.76 11.4 107.55 9.45 110.58 10.71 114.24 12.54 116.13 13.77L116.94 12.51C115.11 11.37 111.69 9.75 108.78 8.52 111.09 6.72 113.07 4.62 114.39 2.22L113.34 1.62 113.04 1.68 99.78 1.68ZM99.75 15.18 99.75 16.56 106.71 16.56 106.71 24.99 97.8 24.99 97.8 26.37 117 26.37 117 24.99 108.18 24.99 108.18 16.56 115.11 16.56 115.11 15.18 99.75 15.18ZM96.81 6.72C95.16 9.96 92.43 13.11 89.76 15.15 90.06 15.48 90.54 16.14 90.72 16.44 91.89 15.42 93.12 14.19 94.26 12.84L94.26 27.27 95.7 27.27 95.7 11.04C96.6 9.81 97.44 8.52 98.13 7.23L96.81 6.72Z" transform="translate(112.59 105.95)"/></g><g fill="#000" fill-rule="nonzero" transform="translate(101.3 22.53)"><polygon points="0 41.36 15.62 0 19.8 0 4.18 41.36"/><path d="M27.192 44.44 27.192 12.32 31.152 12.32 31.152 16.94 31.944 16.94 31.152 17.864C31.152 16.016 31.7606667 14.5566667 32.978 13.486 34.1953333 12.4153333 35.8013333 11.88 37.796 11.88 40.2306667 11.88 42.174 12.6793333 43.626 14.278 45.078 15.8766667 45.804 18.0693333 45.804 20.856L45.804 27.94C45.804 29.788 45.474 31.3866667 44.814 32.736 44.154 34.0853333 43.23 35.1266667 42.042 35.86 40.854 36.5933333 39.4386667 36.96 37.796 36.96 35.8306667 36.96 34.232 36.4173333 33 35.332 31.768 34.2466667 31.152 32.7946667 31.152 30.976L31.944 31.9 31.064 31.9 31.152 37.4 31.152 44.44 27.192 44.44ZM36.476 33.528C38.148 33.528 39.4606667 33.0293333 40.414 32.032 41.3673333 31.0346667 41.844 29.5973333 41.844 27.72L41.844 21.12C41.844 19.2426667 41.3673333 17.8053333 40.414 16.808 39.4606667 15.8106667 38.148 15.312 36.476 15.312 34.8626667 15.312 33.572 15.8253333 32.604 16.852 31.636 17.8786667 31.152 19.3013333 31.152 21.12L31.152 27.72C31.152 29.5386667 31.636 30.9613333 32.604 31.988 33.572 33.0146667 34.8626667 33.528 36.476 33.528ZM60.588 36.96C58.036 36.96 56.0266667 36.3073333 54.56 35.002 53.0933333 33.6966667 52.36 31.9293333 52.36 29.7 52.36 27.4413333 53.0933333 25.6666667 54.56 24.376 56.0266667 23.0853333 58.0066667 22.44 60.5 22.44L67.98 22.44 67.98 20.02C67.98 18.5533333 67.5326667 17.4093333 66.638 16.588 65.7433333 15.7666667 64.504 15.356 62.92 15.356 61.512 15.356 60.324 15.664 59.356 16.28 58.388 16.896 57.7866667 17.7026667 57.552 18.7L53.592 18.7C53.7386667 17.3506667 54.23 16.1626667 55.066 15.136 55.902 14.1093333 57.002 13.31 58.366 12.738 59.73 12.166 61.248 11.88 62.92 11.88 65.7066667 11.88 67.9066667 12.5986667 69.52 14.036 71.1333333 15.4733333 71.94 17.424 71.94 19.888L71.94 36.52 68.068 36.52 68.068 31.9 67.408 31.9 68.068 31.24C68.068 33 67.386 34.3933333 66.022 35.42 64.658 36.4466667 62.8466667 36.96 60.588 36.96ZM61.556 33.836C63.4333333 33.836 64.9733333 33.3666667 66.176 32.428 67.3786667 31.4893333 67.98 30.2866667 67.98 28.82L67.98 25.388 60.588 25.388C59.268 25.388 58.2266667 25.7546667 57.464 26.488 56.7013333 27.2213333 56.32 28.2186667 56.32 29.48 56.32 30.8293333 56.782 31.8926667 57.706 32.67 58.63 33.4473333 59.9133333 33.836 61.556 33.836ZM91.74 36.52C89.7453333 36.52 88.1466667 35.9406667 86.944 34.782 85.7413333 33.6233333 85.14 32.076 85.14 30.14L85.14 15.928 78.32 15.928 78.32 12.32 85.14 12.32 85.14 5.5 89.1 5.5 89.1 12.32 98.78 12.32 98.78 15.928 89.1 15.928 89.1 30.14C89.1 30.9613333 89.342 31.6286667 89.826 32.142 90.31 32.6553333 90.948 32.912 91.74 32.912L98.34 32.912 98.34 36.52 91.74 36.52ZM106.348 36.52 106.348 4.4 110.308 4.4 110.308 12.32 110.308 16.94 111.144 16.94 110.308 17.864C110.308 15.9573333 110.88 14.4833333 112.024 13.442 113.168 12.4006667 114.752 11.88 116.776 11.88 119.210667 11.88 121.146667 12.628 122.584 14.124 124.021333 15.62 124.74 17.6586667 124.74 20.24L124.74 36.52 120.78 36.52 120.78 20.68C120.78 18.9493333 120.318 17.6073333 119.394 16.654 118.47 15.7006667 117.216 15.224 115.632 15.224 113.989333 15.224 112.691333 15.7373333 111.738 16.764 110.784667 17.7906667 110.308 19.2426667 110.308 21.12L110.308 36.52 106.348 36.52Z"/><polygon points="132 41.36 147.62 0 151.8 0 136.18 41.36"/><path d="M170.94 36.52C168.945333 36.52 167.346667 35.9406667 166.144 34.782 164.941333 33.6233333 164.34 32.076 164.34 30.14L164.34 15.928 157.52 15.928 157.52 12.32 164.34 12.32 164.34 5.5 168.3 5.5 168.3 12.32 177.98 12.32 177.98 15.928 168.3 15.928 168.3 30.14C168.3 30.9613333 168.542 31.6286667 169.026 32.142 169.51 32.6553333 170.148 32.912 170.94 32.912L177.54 32.912 177.54 36.52 170.94 36.52ZM194.7 36.872C192.764 36.872 191.084667 36.498 189.662 35.75 188.239333 35.002 187.146667 33.9386667 186.384 32.56 185.621333 31.1813333 185.24 29.5386667 185.24 27.632L185.24 21.208C185.24 19.3013333 185.621333 17.6586667 186.384 16.28 187.146667 14.9013333 188.239333 13.838 189.662 13.09 191.084667 12.342 192.764 11.968 194.7 11.968 196.665333 11.968 198.352 12.342 199.76 13.09 201.168 13.838 202.253333 14.894 203.016 16.258 203.778667 17.622 204.16 19.2573333 204.16 21.164L204.16 27.632C204.16 29.5386667 203.778667 31.1813333 203.016 32.56 202.253333 33.9386667 201.168 35.002 199.76 35.75 198.352 36.498 196.665333 36.872 194.7 36.872ZM194.7 33.352C196.430667 33.352 197.78 32.868 198.748 31.9 199.716 30.932 200.2 29.5093333 200.2 27.632L200.2 21.208C200.2 19.3306667 199.716 17.908 198.748 16.94 197.78 15.972 196.430667 15.488 194.7 15.488 192.998667 15.488 191.656667 15.972 190.674 16.94 189.691333 17.908 189.2 19.3306667 189.2 21.208L189.2 27.632C189.2 29.5093333 189.691333 30.932 190.674 31.9 191.656667 32.868 192.998667 33.352 194.7 33.352Z"/><polygon points="211.2 41.36 226.82 0 231 0 215.38 41.36"/><path d="M236.94 36.52 236.94 12.32 240.416 12.32 240.416 15.224 241.208 15.224 240.592 16.28C240.592 14.9893333 240.973333 13.9333333 241.736 13.112 242.498667 12.2906667 243.496 11.88 244.728 11.88 246.018667 11.88 247.067333 12.408 247.874 13.464 248.680667 14.52 249.084 15.8986667 249.084 17.6L247.896 15.224 249.744 15.224 248.908 16.28C248.908 14.9893333 249.296667 13.9333333 250.074 13.112 250.851333 12.2906667 251.870667 11.88 253.132 11.88 254.598667 11.88 255.786667 12.4593333 256.696 13.618 257.605333 14.7766667 258.06 16.28 258.06 18.128L258.06 36.52 254.408 36.52 254.408 18.084C254.408 17.0573333 254.180667 16.2726667 253.726 15.73 253.271333 15.1873333 252.618667 14.916 251.768 14.916 250.917333 14.916 250.257333 15.1873333 249.788 15.73 249.318667 16.2726667 249.084 17.0426667 249.084 18.04L249.084 36.52 245.916 36.52 245.916 18.084C245.916 17.0573333 245.674 16.2726667 245.19 15.73 244.706 15.1873333 244.038667 14.916 243.188 14.916 242.366667 14.916 241.728667 15.1873333 241.274 15.73 240.819333 16.2726667 240.592 17.0426667 240.592 18.04L240.592 36.52 236.94 36.52ZM268.576 44.44 272.14 35.024 262.9 12.32 267.212 12.32 273.108 27.28C273.313333 27.7786667 273.511333 28.3726667 273.702 29.062 273.892667 29.7513333 274.046667 30.3306667 274.164 30.8 274.281333 30.3306667 274.442667 29.7513333 274.648 29.062 274.853333 28.3726667 275.058667 27.7786667 275.264 27.28L280.764 12.32 284.9 12.32 272.712 44.44 268.576 44.44ZM296.78 36.52 296.78 18.348 289.74 18.348 289.74 14.74 296.78 14.74 296.78 10.56C296.78 8.65333333 297.381333 7.15 298.584 6.05 299.786667 4.95 301.444 4.4 303.556 4.4L310.64 4.4 310.64 8.008 303.556 8.008C302.646667 8.008 301.95 8.22066667 301.466 8.646 300.982 9.07133333 300.74 9.70933333 300.74 10.56L300.74 14.74 310.64 14.74 310.64 18.348 300.74 18.348 300.74 36.52 296.78 36.52ZM317.24 36.52 317.24 32.912 325.82 32.912 325.82 15.928 318.12 15.928 318.12 12.32 329.78 12.32 329.78 32.912 337.92 32.912 337.92 36.52 317.24 36.52ZM327.36 7.964C326.392 7.964 325.629333 7.71466667 325.072 7.216 324.514667 6.71733333 324.236 6.04266667 324.236 5.192 324.236 4.312 324.514667 3.61533333 325.072 3.102 325.629333 2.58866667 326.392 2.332 327.36 2.332 328.328 2.332 329.090667 2.58866667 329.648 3.102 330.205333 3.61533333 330.484 4.312 330.484 5.192 330.484 6.04266667 330.205333 6.71733333 329.648 7.216 329.090667 7.71466667 328.328 7.964 327.36 7.964ZM356.62 36.52C355.212 36.52 353.98 36.2413333 352.924 35.684 351.868 35.1266667 351.046667 34.3346667 350.46 33.308 349.873333 32.2813333 349.58 31.0786667 349.58 29.7L349.58 8.008 341.22 8.008 341.22 4.4 353.54 4.4 353.54 29.7C353.54 30.6973333 353.818667 31.482 354.376 32.054 354.933333 32.626 355.681333 32.912 356.62 32.912L364.1 32.912 364.1 36.52 356.62 36.52ZM379.5 36.96C377.593333 36.96 375.928667 36.5786667 374.506 35.816 373.083333 35.0533333 371.983333 33.9753333 371.206 32.582 370.428667 31.1886667 370.04 29.568 370.04 27.72L370.04 21.12C370.04 19.2426667 370.428667 17.6146667 371.206 16.236 371.983333 14.8573333 373.083333 13.7866667 374.506 13.024 375.928667 12.2613333 377.593333 11.88 379.5 11.88 381.406667 11.88 383.071333 12.2613333 384.494 13.024 385.916667 13.7866667 387.016667 14.8573333 387.794 16.236 388.571333 17.6146667 388.96 19.2426667 388.96 21.12L388.96 25.388 373.912 25.388 373.912 27.72C373.912 29.6266667 374.396 31.086 375.364 32.098 376.332 33.11 377.710667 33.616 379.5 33.616 381.025333 33.616 382.257333 33.3446667 383.196 32.802 384.134667 32.2593333 384.706667 31.4453333 384.912 30.36L388.872 30.36C388.608 32.384 387.618 33.99 385.902 35.178 384.186 36.366 382.052 36.96 379.5 36.96ZM385.088 22.748 385.088 21.12C385.088 19.2133333 384.611333 17.7466667 383.658 16.72 382.704667 15.6933333 381.318667 15.18 379.5 15.18 377.710667 15.18 376.332 15.6933333 375.364 16.72 374.396 17.7466667 373.912 19.2133333 373.912 21.12L373.912 22.396 385.396 22.396 385.088 22.748ZM405.9 36.96C404.785333 36.96 403.898 36.6373333 403.238 35.992 402.578 35.3466667 402.248 34.4813333 402.248 33.396 402.248 32.252 402.578 31.3426667 403.238 30.668 403.898 29.9933333 404.785333 29.656 405.9 29.656 407.014667 29.656 407.902 29.9933333 408.562 30.668 409.222 31.3426667 409.552 32.252 409.552 33.396 409.552 34.4813333 409.222 35.3466667 408.562 35.992 407.902 36.6373333 407.014667 36.96 405.9 36.96ZM423.148 36.52 423.148 4.4 427.108 4.4 427.108 12.32 427.108 16.94 427.944 16.94 427.108 17.864C427.108 15.9573333 427.68 14.4833333 428.824 13.442 429.968 12.4006667 431.552 11.88 433.576 11.88 436.010667 11.88 437.946667 12.628 439.384 14.124 440.821333 15.62 441.54 17.6586667 441.54 20.24L441.54 36.52 437.58 36.52 437.58 20.68C437.58 18.9493333 437.118 17.6073333 436.194 16.654 435.27 15.7006667 434.016 15.224 432.432 15.224 430.789333 15.224 429.491333 15.7373333 428.538 16.764 427.584667 17.7906667 427.108 19.2426667 427.108 21.12L427.108 36.52 423.148 36.52ZM461.34 36.52C459.345333 36.52 457.746667 35.9406667 456.544 34.782 455.341333 33.6233333 454.74 32.076 454.74 30.14L454.74 15.928 447.92 15.928 447.92 12.32 454.74 12.32 454.74 5.5 458.7 5.5 458.7 12.32 468.38 12.32 468.38 15.928 458.7 15.928 458.7 30.14C458.7 30.9613333 458.942 31.6286667 459.426 32.142 459.91 32.6553333 460.548 32.912 461.34 32.912L467.94 32.912 467.94 36.52 461.34 36.52ZM474.54 36.52 474.54 12.32 478.016 12.32 478.016 15.224 478.808 15.224 478.192 16.28C478.192 14.9893333 478.573333 13.9333333 479.336 13.112 480.098667 12.2906667 481.096 11.88 482.328 11.88 483.618667 11.88 484.667333 12.408 485.474 13.464 486.280667 14.52 486.684 15.8986667 486.684 17.6L485.496 15.224 487.344 15.224 486.508 16.28C486.508 14.9893333 486.896667 13.9333333 487.674 13.112 488.451333 12.2906667 489.470667 11.88 490.732 11.88 492.198667 11.88 493.386667 12.4593333 494.296 13.618 495.205333 14.7766667 495.66 16.28 495.66 18.128L495.66 36.52 492.008 36.52 492.008 18.084C492.008 17.0573333 491.780667 16.2726667 491.326 15.73 490.871333 15.1873333 490.218667 14.916 489.368 14.916 488.517333 14.916 487.857333 15.1873333 487.388 15.73 486.918667 16.2726667 486.684 17.0426667 486.684 18.04L486.684 36.52 483.516 36.52 483.516 18.084C483.516 17.0573333 483.274 16.2726667 482.79 15.73 482.306 15.1873333 481.638667 14.916 480.788 14.916 479.966667 14.916 479.328667 15.1873333 478.874 15.73 478.419333 16.2726667 478.192 17.0426667 478.192 18.04L478.192 36.52 474.54 36.52ZM515.02 36.52C513.612 36.52 512.38 36.2413333 511.324 35.684 510.268 35.1266667 509.446667 34.3346667 508.86 33.308 508.273333 32.2813333 507.98 31.0786667 507.98 29.7L507.98 8.008 499.62 8.008 499.62 4.4 511.94 4.4 511.94 29.7C511.94 30.6973333 512.218667 31.482 512.776 32.054 513.333333 32.626 514.081333 32.912 515.02 32.912L522.5 32.912 522.5 36.52 515.02 36.52Z"/></g></g></svg>