<svg xmlns="http://www.w3.org/2000/svg" xmlns:xlink="http://www.w3.org/1999/xlink" width="800" height="200" viewBox="0 0 800 200"><defs><linearGradient id="c" x1="100%" x2="0%" y1="50%" y2="50%"><stop offset="0%" stop-color="#FFF"/><stop offset="100%" stop-color="#FFF" stop-opacity="0"/></linearGradient><rect id="a" width="800" height="200" x="0" y="0"/></defs><g fill="none" fill-rule="evenodd"><rect width="800" height="200" fill="#FFF"/><g transform="translate(531 10)"><path fill="#2C2C2E" fill-rule="nonzero" d="M.09 5.13.09 6.69 9.42 6.69 9.42 5.13 5.76 5.13C5.34 3.33 4.86 1.74 4.38.33L2.76.6C3.3 1.98 3.78 3.48 4.2 5.13L.09 5.13ZM2.16 8.76.78 9.21C1.56 12.99 2.19 16.92 2.73 21L4.05 20.67C3.51 16.2 2.88 12.24 2.16 8.76ZM9.45 21.09C8.55 21.45 7.62 21.78 6.72 22.08 7.5 17.94 8.1 13.41 8.49 8.49L7.02 8.28C6.66 13.32 6.09 18.09 5.28 22.53 3.57 23.01 1.8 23.43 0 23.79L.42 25.38C3.66 24.66 6.66 23.73 9.45 22.65L9.45 21.09ZM24 5.94 19.38 5.94 19.38-2.27373675e-13 17.76-2.27373675e-13 17.76 5.94 13.2 5.94 13.2 1.2 11.61 1.2 11.61 7.41 25.59 7.41 25.59 1.2 24 1.2 24 5.94ZM10.2 10.32 10.2 11.88 17.52 11.88C17.31 13.02 16.98 14.1 16.53 15.15L11.19 15.15 11.19 27.21 12.69 27.21 12.69 16.65 15.84 16.65 15.84 26.79 17.25 26.79 17.25 16.65 20.13 16.65 20.13 26.79 21.51 26.79 21.51 16.65 24.75 16.65 24.75 24.81C24.75 25.47 24.51 25.8 24.03 25.8L22.74 25.74 23.16 27.21 24.51 27.21C25.62 27.21 26.19 26.49 26.19 25.11L26.19 15.15 18.09 15.15C18.51 14.13 18.87 13.02 19.11 11.88L27.21 11.88 27.21 10.32 10.2 10.32ZM54.39 3.69 33.06 3.69 33.06 26.82 34.71 26.82 34.71 24.78 52.74 24.78 52.74 26.82 54.39 26.82 54.39 3.69ZM34.71 23.19 34.71 5.28 52.74 5.28 52.74 23.19 34.71 23.19ZM.9 38.97.9 60.39 2.73 60.39 2.73 51.3 9.57 51.3C14.34 51.3 16.74 49.23 16.74 45.12 16.74 41.01 14.34 38.97 9.6 38.97L.9 38.97ZM2.73 40.59 9.48 40.59C11.31 40.59 12.69 40.98 13.59 41.76 14.43 42.48 14.88 43.59 14.88 45.12 14.88 46.65 14.43 47.79 13.59 48.54 12.69 49.29 11.34 49.68 9.48 49.68L2.73 49.68 2.73 40.59ZM26.4 44.46C24.12 44.46 22.29 45.27 20.94 46.92 19.65 48.45 19.02 50.37 19.02 52.65 19.02 54.93 19.65 56.82 20.91 58.35 22.29 59.97 24.12 60.81 26.4 60.81 28.68 60.81 30.51 59.97 31.89 58.35 33.15 56.82 33.78 54.93 33.78 52.65 33.78 50.37 33.15 48.45 31.89 46.92 30.51 45.27 28.68 44.46 26.4 44.46ZM26.4 46.02C28.17 46.02 29.58 46.68 30.6 48.06 31.5 49.26 31.98 50.79 31.98 52.65 31.98 54.45 31.5 55.98 30.6 57.21 29.58 58.56 28.17 59.25 26.4 59.25 24.63 59.25 23.25 58.56 22.23 57.21 21.3 56.01 20.85 54.48 20.85 52.65 20.85 50.79 21.3 49.26 22.23 48.06 23.25 46.68 24.63 46.02 26.4 46.02ZM43.47 44.46C42.33 44.46 41.31 44.82 40.47 45.54 39.75 46.11 39.18 46.89 38.76 47.85L38.76 44.88 36.96 44.88 36.96 60.39 38.76 60.39 38.76 52.2C38.76 50.64 39.15 49.29 39.99 48.15 40.83 46.89 41.97 46.29 43.35 46.29 44.13 46.29 44.91 46.38 45.72 46.62L45.72 44.79C45.12 44.55 44.37 44.46 43.47 44.46ZM51.51 39.87 49.71 40.62 49.71 44.88 46.41 44.88 46.41 46.44 49.71 46.44 49.71 56.94C49.71 58.08 49.92 58.92 50.4 59.46 50.91 60.06 51.78 60.39 52.98 60.39L55.17 60.39 55.17 58.83 53.22 58.83C52.56 58.83 52.11 58.68 51.87 58.41 51.63 58.11 51.51 57.6 51.51 56.94L51.51 46.44 55.56 46.44 55.56 44.88 51.51 44.88 51.51 39.87Z" transform="translate(52.29 106.61)"/><path fill="#FC0" d="M7.6916556,74 C5.01709938,74 4.04724067,73.7215232 3.06946289,73.1986019 C2.09168511,72.6756806 1.32431939,71.9083149 0.801398111,70.9305371 C0.278476833,69.9527593 1.2037061e-16,68.9829006 -2.07168062e-16,66.3083444 L2.07168062e-16,7.6916556 C-1.2037061e-16,5.01709938 0.278476833,4.04724067 0.801398111,3.06946289 C1.32431939,2.09168511 2.09168511,1.32431939 3.06946289,0.801398111 C4.04724067,0.278476833 5.01709938,1.80555915e-16 7.6916556,-3.10752092e-16 L47.3083444,3.10752092e-16 C49.9829006,-1.80555915e-16 50.9527593,0.278476833 51.9305371,0.801398111 C52.9083149,1.32431939 53.6756806,2.09168511 54.1986019,3.06946289 C54.7215232,4.04724067 55,5.01709938 55,7.6916556 L55,66.3083444 C55,68.9829006 54.7215232,69.9527593 54.1986019,70.9305371 C53.6756806,71.9083149 52.9083149,72.6756806 51.9305371,73.1986019 C50.9527593,73.7215232 49.9829006,74 47.3083444,74 L16,74 L16,116 L21.999,116 L22,104 L46,119 L22,134 L21.999,122 L10,122 L10,74 L7.6916556,74 Z" opacity=".5"/></g><g transform="translate(110 10)"><path fill="#00C7BE" d="M7.6916556,74 C5.01709938,74 4.04724067,73.7215232 3.06946289,73.1986019 C2.09168511,72.6756806 1.32431939,71.9083149 0.801398111,70.9305371 C0.278476833,69.9527593 -1.43077765e-16,68.9829006 2.46249008e-16,66.3083444 L6.60585131e-16,7.6916556 C-3.83818985e-16,5.01709938 0.278476833,4.04724067 0.801398111,3.06946289 C1.32431939,2.09168511 2.09168511,1.32431939 3.06946289,0.801398111 C4.04724067,0.278476833 5.01709938,-8.28924603e-17 7.6916556,1.42664977e-16 L394.308344,-1.57632428e-14 C396.982901,9.15889802e-15 397.952759,0.278476833 398.930537,0.801398111 C399.908315,1.32431939 400.675681,2.09168511 401.198602,3.06946289 C401.721523,4.04724067 402,5.01709938 402,7.6916556 L402,66.3083444 C402,68.9829006 401.721523,69.9527593 401.198602,70.9305371 C400.675681,71.9083149 399.908315,72.6756806 398.930537,73.1986019 C397.952759,73.7215232 396.982901,74 394.308344,74 L36,74 L36,116 L51.999,116 L52,104 L76,119 L52,134 L51.999,122 L30,122 L30,74 L7.6916556,74 Z" opacity=".5"/><path fill="#2C2C2E" fill-rule="nonzero" d="M8.19 4.29 8.19 5.85 18.99 5.85C19.08 10.59 19.32 14.49 19.71 17.55 19.83 18.51 19.95 19.44 20.13 20.34 18.54 22.8 16.59 24.72 14.28 26.04L15.27 27.3C17.28 26.1 19.05 24.48 20.61 22.38 20.85 23.34 21.15 24.18 21.51 24.93 22.26 26.49 23.1 27.27 24.06 27.27 25.32 27.27 26.37 25.47 27.24 21.87L26.01 20.88C25.38 23.94 24.72 25.5 24.06 25.62 23.16 25.53 22.38 23.88 21.72 20.67 23.52 17.67 24.93 13.86 25.92 9.3L24.48 8.67C23.76 12.36 22.71 15.54 21.33 18.24 20.94 15.21 20.7 11.07 20.61 5.85L27.06 5.85 27.06 4.29 25.53 4.29C25.08 2.97 24.6 1.77 24.09.75L22.65.99C23.19 1.98 23.67 3.09 24.15 4.29L20.58 4.29C20.55 2.94 20.55 1.53 20.55.03L18.93.03C18.93 1.5 18.93 2.91 18.96 4.29L8.19 4.29ZM9.45 9.18 9.45 17.43 16.77 17.43 16.77 9.18 9.45 9.18ZM15.33 16.05 10.89 16.05 10.89 10.56 15.33 10.56 15.33 16.05ZM17.22 19.62C14.04 20.85 10.71 21.78 7.2 22.44L7.62 23.97C11.07 23.22 14.28 22.26 17.22 21.12L17.22 19.62ZM.21 8.22.21 9.78 3.36 9.78 3.36 20.16C2.28 20.55 1.14 20.88 0 21.18L.39 22.8C3.12 21.99 5.67 20.97 8.01 19.71L8.01 18.06C7.02 18.57 6 19.05 4.95 19.53L4.95 9.78 7.98 9.78 7.98 8.22 4.95 8.22 4.95.06 3.36.06 3.36 8.22.21 8.22ZM38.85 25.44 52.86 25.44 52.86 27.3 54.51 27.3 54.51 14.97 41.19 14.97C47.22 12.3 51.39 8.79 53.73 4.44L53.73 2.97 41.64 2.97C42.36 2.07 42.96 1.17 43.47.21L41.73 0C39.9 3.24 36.42 6 31.26 8.25L32.31 9.66C35.55 8.16 38.16 6.45 40.17 4.53L51.87 4.53C50.37 7.17 47.97 9.51 44.67 11.49 43.35 10.32 41.49 9 39.03 7.53L37.62 8.4C40.02 9.78 41.94 11.07 43.32 12.27 39.84 14.13 35.43 15.63 30.09 16.8L30.9 18.33C33.12 17.79 35.25 17.16 37.23 16.5L37.23 27.3 38.85 27.3 38.85 25.44ZM52.86 23.85 38.85 23.85 38.85 16.5 52.86 16.5 52.86 23.85ZM.69 39.06.69 60.48 7.92 60.48C11.22 60.48 13.77 59.49 15.57 57.51 17.28 55.62 18.15 53.04 18.15 49.77 18.15 46.44 17.37 43.86 15.84 42.06 14.16 40.05 11.64 39.06 8.31 39.06L.69 39.06ZM2.52 40.68 8.04 40.68C10.92 40.68 13.08 41.46 14.46 43.08 15.72 44.55 16.35 46.77 16.35 49.77 16.35 52.65 15.63 54.87 14.19 56.43 12.69 58.05 10.5 58.86 7.65 58.86L2.52 58.86 2.52 40.68ZM28.11 44.55C25.83 44.55 24 45.36 22.65 47.01 21.36 48.54 20.73 50.46 20.73 52.74 20.73 55.02 21.36 56.91 22.62 58.44 24 60.06 25.83 60.9 28.11 60.9 30.39 60.9 32.22 60.06 33.6 58.44 34.86 56.91 35.49 55.02 35.49 52.74 35.49 50.46 34.86 48.54 33.6 47.01 32.22 45.36 30.39 44.55 28.11 44.55ZM28.11 46.11C29.88 46.11 31.29 46.77 32.31 48.15 33.21 49.35 33.69 50.88 33.69 52.74 33.69 54.54 33.21 56.07 32.31 57.3 31.29 58.65 29.88 59.34 28.11 59.34 26.34 59.34 24.96 58.65 23.94 57.3 23.01 56.1 22.56 54.57 22.56 52.74 22.56 50.88 23.01 49.35 23.94 48.15 24.96 46.77 26.34 46.11 28.11 46.11ZM44.97 44.55C43.08 44.55 41.58 45.45 40.47 47.31L40.47 44.97 38.67 44.97 38.67 60.48 40.47 60.48 40.47 50.94C40.47 49.59 40.86 48.45 41.67 47.52 42.45 46.56 43.41 46.11 44.58 46.11 47.16 46.11 48.45 47.58 48.45 50.58L48.45 60.48 50.28 60.48 50.28 50.61C50.28 49.29 50.64 48.24 51.42 47.4 52.17 46.53 53.1 46.11 54.24 46.11 55.62 46.11 56.67 46.5 57.33 47.28 57.93 48 58.23 49.11 58.23 50.58L58.23 60.48 60.03 60.48 60.03 50.34C60.03 48.51 59.55 47.1 58.62 46.08 57.66 45.06 56.34 44.55 54.72 44.55 53.64 44.55 52.68 44.82 51.9 45.36 51.06 45.9 50.37 46.68 49.83 47.73 49.05 45.6 47.43 44.55 44.97 44.55ZM70.38 44.55C68.61 44.55 67.17 44.91 66.06 45.66 64.8 46.44 64.02 47.64 63.72 49.2L65.49 49.32C65.73 48.24 66.3 47.43 67.2 46.86 68.01 46.32 69.03 46.08 70.29 46.08 73.29 46.08 74.79 47.55 74.79 50.49L74.79 51.42 70.83 51.48C68.49 51.48 66.66 51.9 65.4 52.71 63.93 53.55 63.21 54.87 63.21 56.67 63.21 57.93 63.69 58.98 64.68 59.76 65.58 60.51 66.81 60.9 68.31 60.9 69.78 60.9 71.13 60.51 72.39 59.79 73.41 59.19 74.25 58.41 74.88 57.51L74.88 60.48 76.59 60.48 76.59 50.49C76.59 48.69 76.11 47.31 75.21 46.32 74.16 45.12 72.54 44.55 70.38 44.55ZM74.79 52.83 74.79 54.45C74.79 55.65 74.16 56.79 72.93 57.81 71.67 58.89 70.23 59.43 68.67 59.43 67.59 59.43 66.69 59.16 66.03 58.65 65.37 58.14 65.04 57.48 65.04 56.64 65.04 54.18 66.99 52.92 70.92 52.89L74.79 52.83ZM82.17 39.39C81.72 39.39 81.36 39.54 81.09 39.84 80.79 40.08 80.64 40.44 80.64 40.89 80.64 41.31 80.79 41.67 81.09 41.97 81.36 42.24 81.72 42.39 82.17 42.39 82.59 42.39 82.92 42.24 83.22 41.97 83.52 41.67 83.7 41.31 83.7 40.89 83.7 40.44 83.55 40.08 83.25 39.84 82.95 39.54 82.59 39.39 82.17 39.39ZM81.27 44.97 81.27 60.48 83.07 60.48 83.07 44.97 81.27 44.97ZM94.59 44.55C93.51 44.55 92.52 44.79 91.65 45.33 90.78 45.87 90.09 46.59 89.55 47.52L89.55 44.97 87.75 44.97 87.75 60.48 89.55 60.48 89.55 51.12C89.64 49.59 90.12 48.36 91.02 47.46 91.86 46.56 92.88 46.11 94.14 46.11 97.08 46.11 98.55 47.76 98.55 51.06L98.55 60.48 100.35 60.48 100.35 50.94C100.35 46.68 98.43 44.55 94.59 44.55ZM120.96 44.55C119.88 44.55 118.89 44.79 118.02 45.33 117.15 45.87 116.46 46.59 115.92 47.52L115.92 44.97 114.12 44.97 114.12 60.48 115.92 60.48 115.92 51.12C116.01 49.59 116.49 48.36 117.39 47.46 118.23 46.56 119.25 46.11 120.51 46.11 123.45 46.11 124.92 47.76 124.92 51.06L124.92 60.48 126.72 60.48 126.72 50.94C126.72 46.68 124.8 44.55 120.96 44.55ZM137.07 44.55C135.3 44.55 133.86 44.91 132.75 45.66 131.49 46.44 130.71 47.64 130.41 49.2L132.18 49.32C132.42 48.24 132.99 47.43 133.89 46.86 134.7 46.32 135.72 46.08 136.98 46.08 139.98 46.08 141.48 47.55 141.48 50.49L141.48 51.42 137.52 51.48C135.18 51.48 133.35 51.9 132.09 52.71 130.62 53.55 129.9 54.87 129.9 56.67 129.9 57.93 130.38 58.98 131.37 59.76 132.27 60.51 133.5 60.9 135 60.9 136.47 60.9 137.82 60.51 139.08 59.79 140.1 59.19 140.94 58.41 141.57 57.51L141.57 60.48 143.28 60.48 143.28 50.49C143.28 48.69 142.8 47.31 141.9 46.32 140.85 45.12 139.23 44.55 137.07 44.55ZM141.48 52.83 141.48 54.45C141.48 55.65 140.85 56.79 139.62 57.81 138.36 58.89 136.92 59.43 135.36 59.43 134.28 59.43 133.38 59.16 132.72 58.65 132.06 58.14 131.73 57.48 131.73 56.64 131.73 54.18 133.68 52.92 137.61 52.89L141.48 52.83ZM153.36 44.55C151.47 44.55 149.97 45.45 148.86 47.31L148.86 44.97 147.06 44.97 147.06 60.48 148.86 60.48 148.86 50.94C148.86 49.59 149.25 48.45 150.06 47.52 150.84 46.56 151.8 46.11 152.97 46.11 155.55 46.11 156.84 47.58 156.84 50.58L156.84 60.48 158.67 60.48 158.67 50.61C158.67 49.29 159.03 48.24 159.81 47.4 160.56 46.53 161.49 46.11 162.63 46.11 164.01 46.11 165.06 46.5 165.72 47.28 166.32 48 166.62 49.11 166.62 50.58L166.62 60.48 168.42 60.48 168.42 50.34C168.42 48.51 167.94 47.1 167.01 46.08 166.05 45.06 164.73 44.55 163.11 44.55 162.03 44.55 161.07 44.82 160.29 45.36 159.45 45.9 158.76 46.68 158.22 47.73 157.44 45.6 155.82 44.55 153.36 44.55ZM178.47 44.55C176.28 44.55 174.54 45.36 173.22 46.98 171.93 48.54 171.3 50.43 171.3 52.71 171.3 55.17 171.96 57.18 173.31 58.68 174.6 60.15 176.34 60.9 178.53 60.9 180.51 60.9 182.1 60.33 183.36 59.19 184.38 58.23 185.07 57 185.43 55.5L183.6 55.5C183.21 56.7 182.67 57.6 181.95 58.23 181.08 58.95 179.94 59.34 178.53 59.34 176.91 59.34 175.65 58.8 174.69 57.72 173.76 56.64 173.25 55.14 173.16 53.25L185.76 53.25C185.67 50.58 185.07 48.51 183.99 47.04 182.76 45.36 180.93 44.55 178.47 44.55ZM178.5 46.11C181.77 46.11 183.57 48 183.87 51.78L173.19 51.78C173.34 50.1 173.88 48.75 174.81 47.7 175.74 46.62 176.97 46.11 178.5 46.11Z" transform="translate(82.5 106.52)"/></g><mask id="b" fill="#fff"><use xlink:href="#a"/></mask><g fill-rule="nonzero" mask="url(#b)"><g transform="translate(10.246 26.019)"><path fill="#C7C7CC" d="M10.666626 9.95690918C7.43115234 9.95690918 5.0723877 11.2928467 3.88256836 13.7977295L3.50683594 13.7977295 3.50683594 10.3326416 0 10.3326416 0 40.6208496 3.61120605 40.6208496 3.61120605 29.4741211 4.0078125 29.4741211C4.9888916 31.9581299 7.3894043 33.3566895 10.666626 33.3566895 15.9060059 33.3566895 19.3293457 29.5784912 19.3293457 23.7755127L19.3293457 19.55896C19.3293457 13.7351074 15.9060059 9.95690918 10.666626 9.95690918ZM9.64379883 13.2132568C13.380249 13.2132568 15.7598877 15.8851318 15.7598877 20.0599365L15.7598877 23.3162842C15.7598877 27.4910889 13.380249 30.1838379 9.64379883 30.1838379 5.90734863 30.1838379 3.52770996 27.5119629 3.52770996 23.3162842L3.52770996 20.0599365C3.52770996 15.8851318 5.90734863 13.2132568 9.64379883 13.2132568ZM35.6737061 17.0749512C37.7402344 17.0749512 39.4519043 15.3215332 39.4519043 13.2132568 39.4519043 11.1049805 37.7402344 9.3515625 35.6737061 9.3515625 33.6071777 9.3515625 31.8955078 11.1049805 31.8955078 13.2132568 31.8955078 15.3215332 33.6071777 17.0749512 35.6737061 17.0749512ZM35.6737061 33.1062012C37.7402344 33.1062012 39.4519043 31.3736572 39.4519043 29.2445068 39.4519043 27.1362305 37.7402344 25.4036865 35.6737061 25.4036865 33.6071777 25.4036865 31.8955078 27.1362305 31.8955078 29.2445068 31.8955078 31.3736572 33.6071777 33.1062012 35.6737061 33.1062012Z"/><polygon fill="#C7C7CC" points="56.485 35.841 71.18 0 67.694 0 53.02 35.841"/><polygon fill="#C7C7CC" points="82.912 35.841 97.607 0 94.121 0 79.447 35.841"/><polygon fill="#2C2C2E" points="127.185 10.333 123.72 10.333 120.652 28.493 120.276 28.493 116.623 10.354 113.283 10.354 109.63 28.493 109.255 28.493 106.186 10.333 102.721 10.333 107.585 32.981 110.987 32.981 114.828 15.322 115.078 15.322 118.919 32.981 122.322 32.981"/><polygon fill="#2C2C2E" points="153.612 10.333 150.147 10.333 147.078 28.493 146.703 28.493 143.05 10.354 139.71 10.354 136.057 28.493 135.681 28.493 132.613 10.333 129.148 10.333 134.011 32.981 137.414 32.981 141.255 15.322 141.505 15.322 145.346 32.981 148.748 32.981"/><polygon fill="#2C2C2E" points="180.038 10.333 176.573 10.333 173.505 28.493 173.129 28.493 169.476 10.354 166.136 10.354 162.483 28.493 162.108 28.493 159.039 10.333 155.574 10.333 160.438 32.981 163.84 32.981 167.681 15.322 167.932 15.322 171.772 32.981 175.175 32.981"/><path fill="#2C2C2E" d="M194.232788 33.1062012C196.299316 33.1062012 198.010986 31.3736572 198.010986 29.2445068 198.010986 27.1362305 196.299316 25.4036865 194.232788 25.4036865 192.16626 25.4036865 190.45459 27.1362305 190.45459 29.2445068 190.45459 31.3736572 192.16626 33.1062012 194.232788 33.1062012ZM226.775391 27.1362305C226.14917 29.1192627 224.040894 30.3299561 221.181152 30.3299561 217.319458 30.3299561 214.856323 27.6580811 214.856323 23.5041504L214.856323 22.5856934 230.282227 22.5856934 230.282227 20.3730469C230.282227 13.8186035 226.817139 9.91516113 220.930664 9.91516113 215.169434 9.91516113 211.349487 13.8394775 211.349487 19.8094482L211.349487 23.2119141C211.349487 29.6619873 214.960693 33.3984375 221.181152 33.3984375 225.94043 33.3984375 229.530762 30.8726807 230.219604 27.1362305L226.775391 27.1362305ZM220.90979 12.9627686C224.562744 12.9627686 226.775391 15.5720215 226.775391 19.8929443L214.856323 19.8929443C214.856323 15.5511475 217.131592 12.9627686 220.90979 12.9627686Z"/><polygon fill="#2C2C2E" points="247.169 24.256 252.868 32.981 256.98 32.981 249.173 21.5 256.917 10.333 252.931 10.333 247.315 18.912 247.023 18.912 241.387 10.333 237.192 10.333 245.019 21.646 237.254 32.981 241.178 32.981 246.898 24.256"/><path fill="#2C2C2E" d="M271.216187 33.3775635C274.514282 33.3775635 276.977417 32.020752 278.062866 29.5993652L278.417725 29.5993652 278.417725 33.0018311 281.799316 33.0018311 281.799316 17.4924316C281.799316 12.7749023 278.751709 10.0612793 273.428833 10.0612793 268.7948 10.0612793 265.287964 12.5452881 264.870483 16.1773682L268.356445 16.1773682C268.940918 14.236084 270.777832 13.1297607 273.387085 13.1297607 276.539062 13.1297607 278.271606 14.6953125 278.271606 17.5341797L278.271606 19.579834 272.051147 19.8929443C266.895264 20.1643066 264.014648 22.5439453 264.014648 26.5517578 264.014648 30.6639404 266.895264 33.3775635 271.216187 33.3775635ZM272.239014 30.267334C269.379272 30.267334 267.60498 28.8061523 267.60498 26.4265137 267.60498 24.067749 269.274902 22.7109375 272.447754 22.5648193L278.271606 22.293457 278.271606 24.965332C278.271606 27.9920654 275.662354 30.267334 272.239014 30.267334ZM310.855957 16.3026123C310.855957 12.1069336 309.206909 9.91516113 306.054932 9.91516113 303.779663 9.91516113 301.963623 11.2928467 301.37915 13.4637451L301.003418 13.4637451C300.523315 11.2302246 299.020386 9.91516113 296.891235 9.91516113 294.762085 9.91516113 293.133911 11.2510986 292.570312 13.5263672L292.19458 13.5263672 292.19458 10.3326416 289.021729 10.3326416 289.021729 32.980957 292.215454 32.980957 292.215454 17.7011719C292.215454 14.8831787 293.467896 13.1506348 295.471802 13.1506348 297.392212 13.1506348 298.394165 14.5909424 298.394165 17.3254395L298.394165 32.980957 301.567017 32.980957 301.567017 17.7011719C301.567017 14.8831787 302.77771 13.1506348 304.760742 13.1506348 306.660278 13.1506348 307.662231 14.5909424 307.662231 17.3463135L307.662231 32.980957 310.855957 32.980957 310.855957 16.3026123ZM327.78479 9.95690918C324.549316 9.95690918 322.190552 11.2928467 321.000732 13.7977295L320.625 13.7977295 320.625 10.3326416 317.118164 10.3326416 317.118164 40.6208496 320.72937 40.6208496 320.72937 29.4741211 321.125977 29.4741211C322.107056 31.9581299 324.507568 33.3566895 327.78479 33.3566895 333.02417 33.3566895 336.44751 29.5784912 336.44751 23.7755127L336.44751 19.55896C336.44751 13.7351074 333.02417 9.95690918 327.78479 9.95690918ZM326.761963 13.2132568C330.498413 13.2132568 332.878052 15.8851318 332.878052 20.0599365L332.878052 23.3162842C332.878052 27.4910889 330.498413 30.1838379 326.761963 30.1838379 323.025513 30.1838379 320.645874 27.5119629 320.645874 23.3162842L320.645874 20.0599365C320.645874 15.8851318 323.025513 13.2132568 326.761963 13.2132568Z"/><polygon fill="#2C2C2E" points="362.686 32.981 362.686 30.038 355.213 30.038 355.213 1.44 343.983 1.44 343.983 4.384 351.665 4.384 351.665 30.038 343.92 30.038 343.92 32.981"/><path fill="#2C2C2E" d="M385.334473 27.1362305C384.708252 29.1192627 382.599976 30.3299561 379.740234 30.3299561 375.87854 30.3299561 373.415405 27.6580811 373.415405 23.5041504L373.415405 22.5856934 388.841309 22.5856934 388.841309 20.3730469C388.841309 13.8186035 385.376221 9.91516113 379.489746 9.91516113 373.728516 9.91516113 369.908569 13.8394775 369.908569 19.8094482L369.908569 23.2119141C369.908569 29.6619873 373.519775 33.3984375 379.740234 33.3984375 384.499512 33.3984375 388.089844 30.8726807 388.778687 27.1362305L385.334473 27.1362305ZM379.468872 12.9627686C383.121826 12.9627686 385.334473 15.5720215 385.334473 19.8929443L373.415405 19.8929443C373.415405 15.5511475 375.690674 12.9627686 379.468872 12.9627686ZM405.644897 33.1062012C407.711426 33.1062012 409.423096 31.3736572 409.423096 29.2445068 409.423096 27.1362305 407.711426 25.4036865 405.644897 25.4036865 403.578369 25.4036865 401.866699 27.1362305 401.866699 29.2445068 401.866699 31.3736572 403.578369 33.1062012 405.644897 33.1062012ZM441.50647 17.3880615C440.921997 12.7331543 437.498657 9.89428711 432.488892 9.89428711 426.331055 9.89428711 422.740723 13.6724854 422.740723 20.1643066L422.740723 23.128418C422.740723 29.6202393 426.331055 33.3984375 432.488892 33.3984375 437.498657 33.3984375 440.942871 30.5804443 441.50647 25.9672852L437.999634 25.9672852C437.561279 28.5556641 435.348633 30.2047119 432.42627 30.2047119 428.481079 30.2047119 426.289307 27.5328369 426.289307 22.6691895L426.289307 20.6235352C426.289307 15.7598877 428.481079 13.0671387 432.42627 13.0671387 435.348633 13.0671387 437.561279 14.7370605 437.999634 17.3880615L441.50647 17.3880615ZM458.497925 33.3984375C464.48877 33.3984375 468.308716 29.4949951 468.308716 23.3789062L468.308716 19.9555664C468.308716 13.8394775 464.48877 9.93603516 458.497925 9.93603516 452.50708 9.93603516 448.687134 13.8394775 448.687134 19.9555664L448.687134 23.3789062C448.687134 29.4949951 452.50708 33.3984375 458.497925 33.3984375ZM458.497925 13.0671387C462.380493 13.0671387 464.80188 15.8225098 464.80188 20.2686768L464.80188 23.0449219C464.80188 27.5119629 462.380493 30.24646 458.497925 30.24646 454.615356 30.24646 452.19397 27.5119629 452.19397 23.0449219L452.19397 20.2686768C452.19397 15.8225098 454.615356 13.0671387 458.497925 13.0671387ZM495.841553 16.3026123C495.841553 12.1069336 494.192505 9.91516113 491.040527 9.91516113 488.765259 9.91516113 486.949219 11.2928467 486.364746 13.4637451L485.989014 13.4637451C485.508911 11.2302246 484.005981 9.91516113 481.876831 9.91516113 479.747681 9.91516113 478.119507 11.2510986 477.555908 13.5263672L477.180176 13.5263672 477.180176 10.3326416 474.007324 10.3326416 474.007324 32.980957 477.20105 32.980957 477.20105 17.7011719C477.20105 14.8831787 478.453491 13.1506348 480.457397 13.1506348 482.377808 13.1506348 483.379761 14.5909424 483.379761 17.3254395L483.379761 32.980957 486.552612 32.980957 486.552612 17.7011719C486.552612 14.8831787 487.763306 13.1506348 489.746338 13.1506348 491.645874 13.1506348 492.647827 14.5909424 492.647827 17.3463135L492.647827 32.980957 495.841553 32.980957 495.841553 16.3026123ZM511.350952 17.0749512C513.41748 17.0749512 515.12915 15.3215332 515.12915 13.2132568 515.12915 11.1049805 513.41748 9.3515625 511.350952 9.3515625 509.284424 9.3515625 507.572754 11.1049805 507.572754 13.2132568 507.572754 15.3215332 509.284424 17.0749512 511.350952 17.0749512ZM511.350952 33.1062012C513.41748 33.1062012 515.12915 31.3736572 515.12915 29.2445068 515.12915 27.1362305 513.41748 25.4036865 511.350952 25.4036865 509.284424 25.4036865 507.572754 27.1362305 507.572754 29.2445068 507.572754 31.3736572 509.284424 33.1062012 511.350952 33.1062012ZM537.881836 33.6489258C544.144043 33.6489258 548.48584 30.0585938 548.48584 24.923584 548.48584 21.1245117 546.001831 18.0142822 542.348877 17.2419434L542.348877 16.907959C545.417358 16.052124 547.275146 13.4846191 547.275146 10.2073975 547.275146 5.51074219 543.371704 2.19177246 537.881836 2.19177246 532.391968 2.19177246 528.467651 5.51074219 528.467651 10.2073975 528.467651 13.4846191 530.367188 16.072998 533.393921 16.907959L533.393921 17.2419434C529.678345 18.1395264 527.256958 21.1871338 527.256958 24.923584 527.256958 30.0585938 531.619629 33.6489258 537.881836 33.6489258ZM537.881836 15.6555176C534.395874 15.6555176 532.078857 13.6098633 532.078857 10.5205078 532.078857 7.45202637 534.395874 5.40637207 537.881836 5.40637207 541.367798 5.40637207 543.66394 7.45202637 543.66394 10.5205078 543.66394 13.6098633 541.367798 15.6555176 537.881836 15.6555176ZM537.881836 30.4552002C533.790527 30.4552002 530.972534 28.0755615 530.972534 24.6313477 530.972534 21.1871338 533.790527 18.8074951 537.881836 18.8074951 541.973145 18.8074951 544.791138 21.1871338 544.791138 24.6313477 544.791138 28.0755615 541.973145 30.4552002 537.881836 30.4552002ZM564.224854 33.6697998C570.758423 33.6697998 574.390503 28.0755615 574.390503 17.9307861 574.390503 7.78601074 570.758423 2.19177246 564.224854 2.19177246 557.67041 2.19177246 554.059204 7.78601074 554.059204 17.9307861 554.059204 28.0755615 557.67041 33.6697998 564.224854 33.6697998ZM557.712158 17.9307861C557.712158 9.74816895 559.966553 5.44812012 564.224854 5.44812012 567.063721 5.44812012 569.025879 7.36853027 570.006958 11.1049805L557.858276 21.2497559C557.77478 20.2269287 557.712158 19.1206055 557.712158 17.9307861ZM564.224854 30.4134521C561.385986 30.4134521 559.444702 28.493042 558.463623 24.7983398L570.570557 14.5700684C570.674927 15.6137695 570.716675 16.7200928 570.716675 17.9307861 570.716675 26.0925293 568.483154 30.4134521 564.224854 30.4134521Z"/><polygon fill="#C7C7CC" points="585.015 35.841 599.711 0 596.225 0 581.55 35.841"/><path fill="#C7C7CC" d="M618.47644 9.95690918C615.240967 9.95690918 612.882202 11.2928467 611.692383 13.7977295L611.31665 13.7977295 611.31665 10.3326416 607.809814 10.3326416 607.809814 40.6208496 611.421021 40.6208496 611.421021 29.4741211 611.817627 29.4741211C612.798706 31.9581299 615.199219 33.3566895 618.47644 33.3566895 623.71582 33.3566895 627.13916 29.5784912 627.13916 23.7755127L627.13916 19.55896C627.13916 13.7351074 623.71582 9.95690918 618.47644 9.95690918ZM617.453613 13.2132568C621.190063 13.2132568 623.569702 15.8851318 623.569702 20.0599365L623.569702 23.3162842C623.569702 27.4910889 621.190063 30.1838379 617.453613 30.1838379 613.717163 30.1838379 611.337524 27.5119629 611.337524 23.3162842L611.337524 20.0599365C611.337524 15.8851318 613.717163 13.2132568 617.453613 13.2132568ZM641.187378 33.3775635C644.485474 33.3775635 646.948608 32.020752 648.034058 29.5993652L648.388916 29.5993652 648.388916 33.0018311 651.770508 33.0018311 651.770508 17.4924316C651.770508 12.7749023 648.7229 10.0612793 643.400024 10.0612793 638.765991 10.0612793 635.259155 12.5452881 634.841675 16.1773682L638.327637 16.1773682C638.912109 14.236084 640.749023 13.1297607 643.358276 13.1297607 646.510254 13.1297607 648.242798 14.6953125 648.242798 17.5341797L648.242798 19.579834 642.022339 19.8929443C636.866455 20.1643066 633.98584 22.5439453 633.98584 26.5517578 633.98584 30.6639404 636.866455 33.3775635 641.187378 33.3775635ZM642.210205 30.267334C639.350464 30.267334 637.576172 28.8061523 637.576172 26.4265137 637.576172 24.067749 639.246094 22.7109375 642.418945 22.5648193L648.242798 22.293457 648.242798 24.965332C648.242798 27.9920654 645.633545 30.267334 642.210205 30.267334ZM666.04834 4.25830078 666.04834 10.3952637 660.015747 10.3952637 660.015747 13.4219971 666.04834 13.4219971 666.04834 26.2386475C666.04834 30.9561768 668.657593 33.0853271 674.272705 33.0853271 675.358154 33.0853271 678.113525 32.980957 678.677124 32.8765869L678.677124 29.8707275C678.071777 29.9333496 675.796509 29.9959717 674.523193 29.9959717 671.329468 29.9959717 669.596924 28.6600342 669.596924 26.1968994L669.596924 13.4219971 678.739746 13.4219971 678.739746 10.3952637 669.555176 10.3952637 669.555176 4.25830078 666.04834 4.25830078ZM687.047607 32.980957 690.596191 32.980957 690.596191 19.6633301C690.596191 15.8016357 693.121948 13.1923828 696.858398 13.1923828 700.406982 13.1923828 702.076904 15.133667 702.076904 19.2041016L702.076904 32.980957 705.625488 32.980957 705.625488 18.3065186C705.625488 12.9001465 702.953613 9.93603516 698.027344 9.93603516 694.562256 9.93603516 691.953003 11.5224609 690.763184 14.3404541L690.470947 14.3404541 690.470947 1.44030762 687.047607 1.44030762 687.047607 32.980957Z"/><polygon fill="#C7C7CC" points="717.148 35.841 731.843 0 728.357 0 713.683 35.841"/><path fill="#C7C7CC" d="M745.327881 4.25830078 745.327881 10.3952637 739.295288 10.3952637 739.295288 13.4219971 745.327881 13.4219971 745.327881 26.2386475C745.327881 30.9561768 747.937134 33.0853271 753.552246 33.0853271 754.637695 33.0853271 757.393066 32.980957 757.956665 32.8765869L757.956665 29.8707275C757.351318 29.9333496 755.07605 29.9959717 753.802734 29.9959717 750.609009 29.9959717 748.876465 28.6600342 748.876465 26.1968994L748.876465 13.4219971 758.019287 13.4219971 758.019287 10.3952637 748.834717 10.3952637 748.834717 4.25830078 745.327881 4.25830078ZM775.616089 33.3984375C781.606934 33.3984375 785.42688 29.4949951 785.42688 23.3789062L785.42688 19.9555664C785.42688 13.8394775 781.606934 9.93603516 775.616089 9.93603516 769.625244 9.93603516 765.805298 13.8394775 765.805298 19.9555664L765.805298 23.3789062C765.805298 29.4949951 769.625244 33.3984375 775.616089 33.3984375ZM775.616089 13.0671387C779.498657 13.0671387 781.920044 15.8225098 781.920044 20.2686768L781.920044 23.0449219C781.920044 27.5119629 779.498657 30.24646 775.616089 30.24646 771.733521 30.24646 769.312134 27.5119629 769.312134 23.0449219L769.312134 20.2686768C769.312134 15.8225098 771.733521 13.0671387 775.616089 13.0671387Z"/></g></g><rect width="100" height="200" fill="url(#c)" transform="matrix(-1 0 0 1 100 0)"/><rect width="100" height="200" x="700" fill="url(#c)"/></g></svg>