<svg xmlns="http://www.w3.org/2000/svg" xmlns:xlink="http://www.w3.org/1999/xlink" width="800" height="200" viewBox="0 0 800 200"><defs><linearGradient id="c" x1="100%" x2="0%" y1="50%" y2="50%"><stop offset="0%" stop-color="#FFF"/><stop offset="100%" stop-color="#FFF" stop-opacity="0"/></linearGradient><rect id="a" width="800" height="200" x="0" y="0"/></defs><g fill="none" fill-rule="evenodd"><rect width="800" height="200" fill="#FFF"/><g transform="translate(10 10)"><path fill="#2C2C2E" fill-rule="nonzero" d="M1.14 4.68 1.14 6.27 9.63 6.27C9.6 7.29 9.54 8.85 9.45 10.98 9.27 13.86 8.7 16.47 7.68 18.81 6.57 21.15 4.41 23.67 1.23 26.37L2.43 27.51C5.01 25.38 7.08 23.07 8.58 20.55 9.66 18.48 10.38 16.2 10.74 13.71L21.78 13.71C21.78 17.88 21.69 20.67 21.51 22.11 21.15 24.45 20.1 25.68 18.36 25.77 17.34 25.77 16.08 25.71 14.58 25.65L15.06 27.15C16.41 27.21 17.58 27.24 18.54 27.24 20.91 27.15 22.35 25.77 22.86 23.07 23.19 21.33 23.37 17.7 23.43 12.15L10.92 12.15C10.92 12.03 10.95 11.94 10.95 11.85 11.1 9.36 11.19 7.5 11.25 6.27L27.18 6.27 27.18 4.68 15.9 4.68C15.18 2.88 14.37 1.32 13.5.03L11.94.6C12.84 1.86 13.62 3.24 14.25 4.68L1.14 4.68ZM42.03 4.83C41.37 5.73 40.71 6.66 40.02 7.62L32.16 7.62 32.16 8.97 38.97 8.97C38.25 9.87 37.47 10.77 36.69 11.67 38.88 12.09 41.07 12.57 43.26 13.14 40.5 14.19 36.72 14.73 31.95 14.73L32.85 16.05C38.01 15.99 42.18 15.21 45.36 13.68 48.42 14.49 51.51 15.45 54.57 16.56L55.5 15.3C52.59 14.31 49.77 13.47 47.01 12.75 48.36 11.82 49.62 10.56 50.79 8.97L55.92 8.97 55.92 7.62 41.82 7.62C42.36 6.93 42.93 6.15 43.53 5.31L42.03 4.83ZM45.12 12.27C43.08 11.73 41.07 11.31 39.09 10.95 39.6 10.38 40.17 9.72 40.77 8.97L49.05 8.97C48.06 10.23 46.74 11.31 45.12 12.27ZM55.95 2.64 45.03 2.64C44.64 1.65 44.25.78 43.83 0L42.12.3C42.6.99 43.02 1.77 43.44 2.64L32.07 2.64 32.07 6.63 33.6 6.63 33.6 4.02 54.42 4.02 54.42 6.63 55.95 6.63 55.95 2.64ZM31.23 18.12 31.23 19.56 41.67 19.56C39.87 21.66 36.3 23.55 30.96 25.2L31.83 26.64C37.44 24.66 41.22 22.32 43.14 19.56L43.26 19.56 43.26 27.45 44.88 27.45 44.88 19.56 44.97 19.56C47.16 22.41 51 24.69 56.46 26.43L57.15 25.02C52.23 23.7 48.69 21.87 46.47 19.56L56.82 19.56 56.82 18.12 44.88 18.12 44.88 15.63 43.26 15.63 43.26 18.12 31.23 18.12ZM8.19 38.7C6.03 38.7 4.23 39.15 2.85 40.08 1.29 41.07.54 42.48.54 44.34.54 46.08 1.35 47.43 3 48.36 3.72 48.78 5.37 49.35 7.92 50.07 10.35 50.73 11.91 51.3 12.63 51.72 14.07 52.53 14.82 53.67 14.82 55.14 14.82 56.4 14.22 57.42 13.08 58.17 11.91 58.89 10.38 59.28 8.49 59.28 6.51 59.28 4.98 58.83 3.9 57.96 2.7 56.97 2.01 55.47 1.8 53.46L0 53.46C.18 56.04 1.08 57.99 2.7 59.28 4.11 60.39 6.06 60.96 8.52 60.96 10.95 60.96 12.9 60.45 14.37 59.43 15.9 58.35 16.68 56.88 16.68 55.05 16.68 53.1 15.78 51.6 14.01 50.55 13.05 49.95 11.22 49.29 8.49 48.51 6.39 47.91 5.01 47.43 4.38 47.13 3.03 46.41 2.37 45.48 2.37 44.28 2.37 42.93 2.91 41.91 4.05 41.25 5.04 40.65 6.39 40.35 8.13 40.35 9.99 40.35 11.43 40.77 12.45 41.64 13.47 42.51 14.1 43.77 14.34 45.45L16.17 45.45C15.99 43.23 15.18 41.55 13.77 40.41 12.39 39.27 10.53 38.7 8.19 38.7ZM26.1 44.61C23.85 44.61 22.08 45.42 20.79 47.07 19.56 48.6 18.96 50.55 18.96 52.89 18.96 55.26 19.53 57.18 20.73 58.62 21.99 60.18 23.79 60.96 26.07 60.96 27.93 60.96 29.46 60.45 30.6 59.46 31.77 58.44 32.52 56.94 32.82 54.99L31.05 54.99C30.6 57.93 28.95 59.4 26.07 59.4 24.36 59.4 23.04 58.8 22.14 57.63 21.24 56.46 20.79 54.87 20.79 52.89 20.79 50.88 21.24 49.26 22.2 48.06 23.16 46.8 24.48 46.17 26.1 46.17 27.45 46.17 28.56 46.5 29.4 47.16 30.24 47.82 30.75 48.78 30.96 50.1L32.76 50.1C32.52 48.24 31.8 46.86 30.63 45.96 29.46 45.06 27.96 44.61 26.1 44.61ZM35.7 38.7 35.7 60.54 37.53 60.54 37.53 51.57C37.53 50.04 37.95 48.75 38.85 47.73 39.75 46.68 40.83 46.17 42.12 46.17 43.5 46.17 44.55 46.56 45.33 47.37 46.08 48.21 46.47 49.38 46.47 50.88L46.47 60.54 48.27 60.54 48.27 50.64C48.27 48.72 47.76 47.22 46.77 46.17 45.78 45.12 44.4 44.61 42.63 44.61 41.55 44.61 40.56 44.88 39.69 45.42 38.79 45.99 38.07 46.8 37.53 47.85L37.53 38.7 35.7 38.7ZM58.32 44.61C56.13 44.61 54.39 45.42 53.07 47.04 51.78 48.6 51.15 50.49 51.15 52.77 51.15 55.23 51.81 57.24 53.16 58.74 54.45 60.21 56.19 60.96 58.38 60.96 60.36 60.96 61.95 60.39 63.21 59.25 64.23 58.29 64.92 57.06 65.28 55.56L63.45 55.56C63.06 56.76 62.52 57.66 61.8 58.29 60.93 59.01 59.79 59.4 58.38 59.4 56.76 59.4 55.5 58.86 54.54 57.78 53.61 56.7 53.1 55.2 53.01 53.31L65.61 53.31C65.52 50.64 64.92 48.57 63.84 47.1 62.61 45.42 60.78 44.61 58.32 44.61ZM58.35 46.17C61.62 46.17 63.42 48.06 63.72 51.84L53.04 51.84C53.19 50.16 53.73 48.81 54.66 47.76 55.59 46.68 56.82 46.17 58.35 46.17ZM74.79 44.61C72.9 44.61 71.4 45.51 70.29 47.37L70.29 45.03 68.49 45.03 68.49 60.54 70.29 60.54 70.29 51C70.29 49.65 70.68 48.51 71.49 47.58 72.27 46.62 73.23 46.17 74.4 46.17 76.98 46.17 78.27 47.64 78.27 50.64L78.27 60.54 80.1 60.54 80.1 50.67C80.1 49.35 80.46 48.3 81.24 47.46 81.99 46.59 82.92 46.17 84.06 46.17 85.44 46.17 86.49 46.56 87.15 47.34 87.75 48.06 88.05 49.17 88.05 50.64L88.05 60.54 89.85 60.54 89.85 50.4C89.85 48.57 89.37 47.16 88.44 46.14 87.48 45.12 86.16 44.61 84.54 44.61 83.46 44.61 82.5 44.88 81.72 45.42 80.88 45.96 80.19 46.74 79.65 47.79 78.87 45.66 77.25 44.61 74.79 44.61ZM99.9 44.61C97.71 44.61 95.97 45.42 94.65 47.04 93.36 48.6 92.73 50.49 92.73 52.77 92.73 55.23 93.39 57.24 94.74 58.74 96.03 60.21 97.77 60.96 99.96 60.96 101.94 60.96 103.53 60.39 104.79 59.25 105.81 58.29 106.5 57.06 106.86 55.56L105.03 55.56C104.64 56.76 104.1 57.66 103.38 58.29 102.51 59.01 101.37 59.4 99.96 59.4 98.34 59.4 97.08 58.86 96.12 57.78 95.19 56.7 94.68 55.2 94.59 53.31L107.19 53.31C107.1 50.64 106.5 48.57 105.42 47.1 104.19 45.42 102.36 44.61 99.9 44.61ZM99.93 46.17C103.2 46.17 105 48.06 105.3 51.84L94.62 51.84C94.77 50.16 95.31 48.81 96.24 47.76 97.17 46.68 98.4 46.17 99.93 46.17Z" transform="translate(60.99 106.46)"/><path fill="#34C759" d="M7.6916556,74 C5.01709938,74 4.04724067,73.7215232 3.06946289,73.1986019 C2.09168511,72.6756806 1.32431939,71.9083149 0.801398111,70.9305371 C0.278476833,69.9527593 1.2037061e-16,68.9829006 -2.07168062e-16,66.3083444 L2.07168062e-16,7.6916556 C-1.2037061e-16,5.01709938 0.278476833,4.04724067 0.801398111,3.06946289 C1.32431939,2.09168511 2.09168511,1.32431939 3.06946289,0.801398111 C4.04724067,0.278476833 5.01709938,1.80555915e-16 7.6916556,-3.10752092e-16 L103.308344,3.10752092e-16 C105.982901,-1.80555915e-16 106.952759,0.278476833 107.930537,0.801398111 C108.908315,1.32431939 109.675681,2.09168511 110.198602,3.06946289 C110.721523,4.04724067 111,5.01709938 111,7.6916556 L111,66.3083444 C111,68.9829006 110.721523,69.9527593 110.198602,70.9305371 C109.675681,71.9083149 108.908315,72.6756806 107.930537,73.1986019 C106.952759,73.7215232 105.982901,74 103.308344,74 L16,74 L16,116 L31.999,116 L32,104 L56,119 L32,134 L31.999,122 L10,122 L10,74 L7.6916556,74 Z" opacity=".5"/></g><mask id="b" fill="#fff"><use xlink:href="#a"/></mask><g fill-rule="nonzero" mask="url(#b)"><g transform="translate(15.924 24.975)"><path fill="#2C2C2E" d="M0 34.0246582 3.54858398 34.0246582 3.54858398 20.7070312C3.54858398 16.8453369 6.07434082 14.236084 9.81079102 14.236084 13.359375 14.236084 15.0292969 16.1773682 15.0292969 20.2478027L15.0292969 34.0246582 18.5778809 34.0246582 18.5778809 19.3502197C18.5778809 13.9438477 15.9060059 10.9797363 10.9797363 10.9797363 7.51464844 10.9797363 4.90539551 12.5661621 3.71557617 15.3841553L3.42333984 15.3841553 3.42333984 2.48400879 0 2.48400879 0 34.0246582ZM31.8537598 5.30200195 31.8537598 11.4389648 25.821167 11.4389648 25.821167 14.4656982 31.8537598 14.4656982 31.8537598 27.2823486C31.8537598 31.9998779 34.4630127 34.1290283 40.078125 34.1290283 41.1635742 34.1290283 43.9189453 34.0246582 44.4825439 33.9202881L44.4825439 30.9144287C43.8771973 30.9770508 41.6019287 31.0396729 40.3286133 31.0396729 37.1348877 31.0396729 35.4023438 29.7037354 35.4023438 27.2406006L35.4023438 14.4656982 44.545166 14.4656982 44.545166 11.4389648 35.3605957 11.4389648 35.3605957 5.30200195 31.8537598 5.30200195ZM58.2802734 5.30200195 58.2802734 11.4389648 52.2476807 11.4389648 52.2476807 14.4656982 58.2802734 14.4656982 58.2802734 27.2823486C58.2802734 31.9998779 60.8895264 34.1290283 66.5046387 34.1290283 67.5900879 34.1290283 70.345459 34.0246582 70.9090576 33.9202881L70.9090576 30.9144287C70.3037109 30.9770508 68.0284424 31.0396729 66.755127 31.0396729 63.5614014 31.0396729 61.8288574 29.7037354 61.8288574 27.2406006L61.8288574 14.4656982 70.9716797 14.4656982 70.9716797 11.4389648 61.7871094 11.4389648 61.7871094 5.30200195 58.2802734 5.30200195ZM89.987915 11.0006104C86.7524414 11.0006104 84.3936768 12.3365479 83.2038574 14.8414307L82.828125 14.8414307 82.828125 11.3763428 79.3212891 11.3763428 79.3212891 41.6645508 82.9324951 41.6645508 82.9324951 30.5178223 83.3291016 30.5178223C84.3101807 33.0018311 86.7106934 34.4003906 89.987915 34.4003906 95.2272949 34.4003906 98.6506348 30.6221924 98.6506348 24.8192139L98.6506348 20.6026611C98.6506348 14.7788086 95.2272949 11.0006104 89.987915 11.0006104ZM88.9650879 14.256958C92.7015381 14.256958 95.0811768 16.928833 95.0811768 21.1036377L95.0811768 24.3599854C95.0811768 28.53479 92.7015381 31.2275391 88.9650879 31.2275391 85.2286377 31.2275391 82.848999 28.5556641 82.848999 24.3599854L82.848999 21.1036377C82.848999 16.928833 85.2286377 14.256958 88.9650879 14.256958ZM114.994995 18.1186523C117.061523 18.1186523 118.773193 16.3652344 118.773193 14.256958 118.773193 12.1486816 117.061523 10.3952637 114.994995 10.3952637 112.928467 10.3952637 111.216797 12.1486816 111.216797 14.256958 111.216797 16.3652344 112.928467 18.1186523 114.994995 18.1186523ZM114.994995 34.1499023C117.061523 34.1499023 118.773193 32.4173584 118.773193 30.288208 118.773193 28.1799316 117.061523 26.4473877 114.994995 26.4473877 112.928467 26.4473877 111.216797 28.1799316 111.216797 30.288208 111.216797 32.4173584 112.928467 34.1499023 114.994995 34.1499023Z"/><polygon fill="#2C2C2E" points="135.806 36.884 150.502 1.044 147.016 1.044 132.341 36.884"/><polygon fill="#2C2C2E" points="162.233 36.884 176.928 1.044 173.442 1.044 158.768 36.884"/><polygon fill="#C7C7CC" points="206.507 11.376 203.042 11.376 199.973 29.537 199.597 29.537 195.944 11.397 192.605 11.397 188.952 29.537 188.576 29.537 185.507 11.376 182.042 11.376 186.906 34.025 190.308 34.025 194.149 16.365 194.4 16.365 198.241 34.025 201.643 34.025"/><polygon fill="#C7C7CC" points="232.933 11.376 229.468 11.376 226.4 29.537 226.024 29.537 222.371 11.397 219.031 11.397 215.378 29.537 215.002 29.537 211.934 11.376 208.469 11.376 213.333 34.025 216.735 34.025 220.576 16.365 220.826 16.365 224.667 34.025 228.07 34.025"/><polygon fill="#C7C7CC" points="259.36 11.376 255.895 11.376 252.826 29.537 252.45 29.537 248.797 11.397 245.458 11.397 241.805 29.537 241.429 29.537 238.36 11.376 234.895 11.376 239.759 34.025 243.161 34.025 247.002 16.365 247.253 16.365 251.094 34.025 254.496 34.025"/><path fill="#C7C7CC" d="M273.554077 34.1499023C275.620605 34.1499023 277.332275 32.4173584 277.332275 30.288208 277.332275 28.1799316 275.620605 26.4473877 273.554077 26.4473877 271.487549 26.4473877 269.775879 28.1799316 269.775879 30.288208 269.775879 32.4173584 271.487549 34.1499023 273.554077 34.1499023ZM306.09668 28.1799316C305.470459 30.1629639 303.362183 31.3736572 300.502441 31.3736572 296.640747 31.3736572 294.177612 28.7017822 294.177612 24.5478516L294.177612 23.6293945 309.603516 23.6293945 309.603516 21.416748C309.603516 14.8623047 306.138428 10.9588623 300.251953 10.9588623 294.490723 10.9588623 290.670776 14.8831787 290.670776 20.8531494L290.670776 24.2556152C290.670776 30.7056885 294.281982 34.4421387 300.502441 34.4421387 305.261719 34.4421387 308.852051 31.9163818 309.540894 28.1799316L306.09668 28.1799316ZM300.231079 14.0064697C303.884033 14.0064697 306.09668 16.6157227 306.09668 20.9366455L294.177612 20.9366455C294.177612 16.5948486 296.452881 14.0064697 300.231079 14.0064697Z"/><polygon fill="#C7C7CC" points="326.491 25.299 332.189 34.025 336.301 34.025 328.495 22.544 336.239 11.376 332.252 11.376 326.637 19.956 326.344 19.956 320.708 11.376 316.513 11.376 324.341 22.69 316.575 34.025 320.5 34.025 326.219 25.299"/><path fill="#C7C7CC" d="M350.537476 34.4212646C353.835571 34.4212646 356.298706 33.0644531 357.384155 30.6430664L357.739014 30.6430664 357.739014 34.0455322 361.120605 34.0455322 361.120605 18.5361328C361.120605 13.8186035 358.072998 11.1049805 352.750122 11.1049805 348.116089 11.1049805 344.609253 13.5889893 344.191772 17.2210693L347.677734 17.2210693C348.262207 15.2797852 350.099121 14.1734619 352.708374 14.1734619 355.860352 14.1734619 357.592896 15.7390137 357.592896 18.5778809L357.592896 20.6235352 351.372437 20.9366455C346.216553 21.2080078 343.335938 23.5876465 343.335938 27.595459 343.335938 31.7076416 346.216553 34.4212646 350.537476 34.4212646ZM351.560303 31.3110352C348.700562 31.3110352 346.92627 29.8498535 346.92627 27.4702148 346.92627 25.1114502 348.596191 23.7546387 351.769043 23.6085205L357.592896 23.3371582 357.592896 26.0090332C357.592896 29.0357666 354.983643 31.3110352 351.560303 31.3110352ZM390.177246 17.3463135C390.177246 13.1506348 388.528198 10.9588623 385.376221 10.9588623 383.100952 10.9588623 381.284912 12.3365479 380.700439 14.5074463L380.324707 14.5074463C379.844604 12.2739258 378.341675 10.9588623 376.212524 10.9588623 374.083374 10.9588623 372.4552 12.2947998 371.891602 14.5700684L371.515869 14.5700684 371.515869 11.3763428 368.343018 11.3763428 368.343018 34.0246582 371.536743 34.0246582 371.536743 18.744873C371.536743 15.9268799 372.789185 14.1943359 374.793091 14.1943359 376.713501 14.1943359 377.715454 15.6346436 377.715454 18.3691406L377.715454 34.0246582 380.888306 34.0246582 380.888306 18.744873C380.888306 15.9268799 382.098999 14.1943359 384.082031 14.1943359 385.981567 14.1943359 386.983521 15.6346436 386.983521 18.3900146L386.983521 34.0246582 390.177246 34.0246582 390.177246 17.3463135ZM407.106079 11.0006104C403.870605 11.0006104 401.511841 12.3365479 400.322021 14.8414307L399.946289 14.8414307 399.946289 11.3763428 396.439453 11.3763428 396.439453 41.6645508 400.050659 41.6645508 400.050659 30.5178223 400.447266 30.5178223C401.428345 33.0018311 403.828857 34.4003906 407.106079 34.4003906 412.345459 34.4003906 415.768799 30.6221924 415.768799 24.8192139L415.768799 20.6026611C415.768799 14.7788086 412.345459 11.0006104 407.106079 11.0006104ZM406.083252 14.256958C409.819702 14.256958 412.199341 16.928833 412.199341 21.1036377L412.199341 24.3599854C412.199341 28.53479 409.819702 31.2275391 406.083252 31.2275391 402.346802 31.2275391 399.967163 28.5556641 399.967163 24.3599854L399.967163 21.1036377C399.967163 16.928833 402.346802 14.256958 406.083252 14.256958Z"/><polygon fill="#C7C7CC" points="442.007 34.025 442.007 31.081 434.535 31.081 434.535 2.484 423.304 2.484 423.304 5.427 430.986 5.427 430.986 31.081 423.242 31.081 423.242 34.025"/><path fill="#C7C7CC" d="M464.655762 28.1799316C464.029541 30.1629639 461.921265 31.3736572 459.061523 31.3736572 455.199829 31.3736572 452.736694 28.7017822 452.736694 24.5478516L452.736694 23.6293945 468.162598 23.6293945 468.162598 21.416748C468.162598 14.8623047 464.69751 10.9588623 458.811035 10.9588623 453.049805 10.9588623 449.229858 14.8831787 449.229858 20.8531494L449.229858 24.2556152C449.229858 30.7056885 452.841064 34.4421387 459.061523 34.4421387 463.820801 34.4421387 467.411133 31.9163818 468.099976 28.1799316L464.655762 28.1799316ZM458.790161 14.0064697C462.443115 14.0064697 464.655762 16.6157227 464.655762 20.9366455L452.736694 20.9366455C452.736694 16.5948486 455.011963 14.0064697 458.790161 14.0064697ZM484.966187 34.1499023C487.032715 34.1499023 488.744385 32.4173584 488.744385 30.288208 488.744385 28.1799316 487.032715 26.4473877 484.966187 26.4473877 482.899658 26.4473877 481.187988 28.1799316 481.187988 30.288208 481.187988 32.4173584 482.899658 34.1499023 484.966187 34.1499023ZM520.827759 18.4317627C520.243286 13.7768555 516.819946 10.9379883 511.810181 10.9379883 505.652344 10.9379883 502.062012 14.7161865 502.062012 21.2080078L502.062012 24.1721191C502.062012 30.6639404 505.652344 34.4421387 511.810181 34.4421387 516.819946 34.4421387 520.26416 31.6241455 520.827759 27.0109863L517.320923 27.0109863C516.882568 29.5993652 514.669922 31.2484131 511.747559 31.2484131 507.802368 31.2484131 505.610596 28.5765381 505.610596 23.7128906L505.610596 21.6672363C505.610596 16.8035889 507.802368 14.1108398 511.747559 14.1108398 514.669922 14.1108398 516.882568 15.7807617 517.320923 18.4317627L520.827759 18.4317627ZM537.819214 34.4421387C543.810059 34.4421387 547.630005 30.5386963 547.630005 24.4226074L547.630005 20.9992676C547.630005 14.8831787 543.810059 10.9797363 537.819214 10.9797363 531.828369 10.9797363 528.008423 14.8831787 528.008423 20.9992676L528.008423 24.4226074C528.008423 30.5386963 531.828369 34.4421387 537.819214 34.4421387ZM537.819214 14.1108398C541.701782 14.1108398 544.123169 16.8662109 544.123169 21.3123779L544.123169 24.088623C544.123169 28.5556641 541.701782 31.2901611 537.819214 31.2901611 533.936646 31.2901611 531.515259 28.5556641 531.515259 24.088623L531.515259 21.3123779C531.515259 16.8662109 533.936646 14.1108398 537.819214 14.1108398ZM575.162842 17.3463135C575.162842 13.1506348 573.513794 10.9588623 570.361816 10.9588623 568.086548 10.9588623 566.270508 12.3365479 565.686035 14.5074463L565.310303 14.5074463C564.8302 12.2739258 563.327271 10.9588623 561.19812 10.9588623 559.06897 10.9588623 557.440796 12.2947998 556.877197 14.5700684L556.501465 14.5700684 556.501465 11.3763428 553.328613 11.3763428 553.328613 34.0246582 556.522339 34.0246582 556.522339 18.744873C556.522339 15.9268799 557.77478 14.1943359 559.778687 14.1943359 561.699097 14.1943359 562.70105 15.6346436 562.70105 18.3691406L562.70105 34.0246582 565.873901 34.0246582 565.873901 18.744873C565.873901 15.9268799 567.084595 14.1943359 569.067627 14.1943359 570.967163 14.1943359 571.969116 15.6346436 571.969116 18.3900146L571.969116 34.0246582 575.162842 34.0246582 575.162842 17.3463135ZM590.672241 18.1186523C592.73877 18.1186523 594.450439 16.3652344 594.450439 14.256958 594.450439 12.1486816 592.73877 10.3952637 590.672241 10.3952637 588.605713 10.3952637 586.894043 12.1486816 586.894043 14.256958 586.894043 16.3652344 588.605713 18.1186523 590.672241 18.1186523ZM590.672241 34.1499023C592.73877 34.1499023 594.450439 32.4173584 594.450439 30.288208 594.450439 28.1799316 592.73877 26.4473877 590.672241 26.4473877 588.605713 26.4473877 586.894043 28.1799316 586.894043 30.288208 586.894043 32.4173584 588.605713 34.1499023 590.672241 34.1499023ZM617.203125 34.692627C623.465332 34.692627 627.807129 31.1022949 627.807129 25.9672852 627.807129 22.1682129 625.32312 19.0579834 621.670166 18.2856445L621.670166 17.9516602C624.738647 17.0958252 626.596436 14.5283203 626.596436 11.2510986 626.596436 6.55444336 622.692993 3.23547363 617.203125 3.23547363 611.713257 3.23547363 607.78894 6.55444336 607.78894 11.2510986 607.78894 14.5283203 609.688477 17.1166992 612.71521 17.9516602L612.71521 18.2856445C608.999634 19.1832275 606.578247 22.230835 606.578247 25.9672852 606.578247 31.1022949 610.940918 34.692627 617.203125 34.692627ZM617.203125 16.6992188C613.717163 16.6992188 611.400146 14.6535645 611.400146 11.564209 611.400146 8.49572754 613.717163 6.45007324 617.203125 6.45007324 620.689087 6.45007324 622.985229 8.49572754 622.985229 11.564209 622.985229 14.6535645 620.689087 16.6992188 617.203125 16.6992188ZM617.203125 31.4989014C613.111816 31.4989014 610.293823 29.1192627 610.293823 25.6750488 610.293823 22.230835 613.111816 19.8511963 617.203125 19.8511963 621.294434 19.8511963 624.112427 22.230835 624.112427 25.6750488 624.112427 29.1192627 621.294434 31.4989014 617.203125 31.4989014ZM643.546143 34.713501C650.079712 34.713501 653.711792 29.1192627 653.711792 18.9744873 653.711792 8.82971191 650.079712 3.23547363 643.546143 3.23547363 636.991699 3.23547363 633.380493 8.82971191 633.380493 18.9744873 633.380493 29.1192627 636.991699 34.713501 643.546143 34.713501ZM637.033447 18.9744873C637.033447 10.7918701 639.287842 6.49182129 643.546143 6.49182129 646.38501 6.49182129 648.347168 8.41223145 649.328247 12.1486816L637.179565 22.293457C637.096069 21.2706299 637.033447 20.1643066 637.033447 18.9744873ZM643.546143 31.4571533C640.707275 31.4571533 638.765991 29.5367432 637.784912 25.842041L649.891846 15.6137695C649.996216 16.6574707 650.037964 17.7637939 650.037964 18.9744873 650.037964 27.1362305 647.804443 31.4571533 643.546143 31.4571533Z"/><polygon fill="#C7C7CC" points="664.337 36.884 679.032 1.044 675.546 1.044 660.872 36.884"/><path fill="#C7C7CC" d="M697.797729 11.0006104C694.562256 11.0006104 692.203491 12.3365479 691.013672 14.8414307L690.637939 14.8414307 690.637939 11.3763428 687.131104 11.3763428 687.131104 41.6645508 690.74231 41.6645508 690.74231 30.5178223 691.138916 30.5178223C692.119995 33.0018311 694.520508 34.4003906 697.797729 34.4003906 703.037109 34.4003906 706.460449 30.6221924 706.460449 24.8192139L706.460449 20.6026611C706.460449 14.7788086 703.037109 11.0006104 697.797729 11.0006104ZM696.774902 14.256958C700.511353 14.256958 702.890991 16.928833 702.890991 21.1036377L702.890991 24.3599854C702.890991 28.53479 700.511353 31.2275391 696.774902 31.2275391 693.038452 31.2275391 690.658813 28.5556641 690.658813 24.3599854L690.658813 21.1036377C690.658813 16.928833 693.038452 14.256958 696.774902 14.256958ZM720.508667 34.4212646C723.806763 34.4212646 726.269897 33.0644531 727.355347 30.6430664L727.710205 30.6430664 727.710205 34.0455322 731.091797 34.0455322 731.091797 18.5361328C731.091797 13.8186035 728.044189 11.1049805 722.721313 11.1049805 718.08728 11.1049805 714.580444 13.5889893 714.162964 17.2210693L717.648926 17.2210693C718.233398 15.2797852 720.070312 14.1734619 722.679565 14.1734619 725.831543 14.1734619 727.564087 15.7390137 727.564087 18.5778809L727.564087 20.6235352 721.343628 20.9366455C716.187744 21.2080078 713.307129 23.5876465 713.307129 27.595459 713.307129 31.7076416 716.187744 34.4212646 720.508667 34.4212646ZM721.531494 31.3110352C718.671753 31.3110352 716.897461 29.8498535 716.897461 27.4702148 716.897461 25.1114502 718.567383 23.7546387 721.740234 23.6085205L727.564087 23.3371582 727.564087 26.0090332C727.564087 29.0357666 724.954834 31.3110352 721.531494 31.3110352ZM745.369629 5.30200195 745.369629 11.4389648 739.337036 11.4389648 739.337036 14.4656982 745.369629 14.4656982 745.369629 27.2823486C745.369629 31.9998779 747.978882 34.1290283 753.593994 34.1290283 754.679443 34.1290283 757.434814 34.0246582 757.998413 33.9202881L757.998413 30.9144287C757.393066 30.9770508 755.117798 31.0396729 753.844482 31.0396729 750.650757 31.0396729 748.918213 29.7037354 748.918213 27.2406006L748.918213 14.4656982 758.061035 14.4656982 758.061035 11.4389648 748.876465 11.4389648 748.876465 5.30200195 745.369629 5.30200195ZM766.368896 34.0246582 769.91748 34.0246582 769.91748 20.7070312C769.91748 16.8453369 772.443237 14.236084 776.179688 14.236084 779.728271 14.236084 781.398193 16.1773682 781.398193 20.2478027L781.398193 34.0246582 784.946777 34.0246582 784.946777 19.3502197C784.946777 13.9438477 782.274902 10.9797363 777.348633 10.9797363 773.883545 10.9797363 771.274292 12.5661621 770.084473 15.3841553L769.792236 15.3841553 769.792236 2.48400879 766.368896 2.48400879 766.368896 34.0246582Z"/></g></g><rect width="100" height="200" x="700" fill="url(#c)"/></g></svg>