<svg xmlns="http://www.w3.org/2000/svg" width="800" height="200" viewBox="0 0 800 200"><defs><linearGradient id="a" x1="100%" x2="0%" y1="50%" y2="50%"><stop offset="0%" stop-color="#FFF"/><stop offset="100%" stop-color="#FFF" stop-opacity="0"/></linearGradient></defs><g fill="none" fill-rule="evenodd"><rect width="800" height="200" fill="#FFF"/><g transform="translate(-548.907)"><rect width="800" height="200" x="548.907" fill="#FFF" fill-rule="nonzero"/><g transform="translate(0 10)"><path fill="#FCB17F" d="M724.907,74 L724.907,122 L718.907,122 L718.907,74 L724.907,74 Z M740.907,116 L740.907,122 L724.907,122 L724.907,116 L740.907,116 Z M764.907,119 L740.907,134 L740.907,104 L764.907,119 Z M1176.027,0 C1181.567,0 1184.337,0 1186.083,1.6912 C1186.128,1.7349 1186.172,1.7794 1186.216,1.8245 C1187.907,3.5683 1187.907,6.3389 1187.907,11.88 L1187.907,62.12 C1187.907,67.661 1187.907,70.4315 1186.216,72.1755 C1186.172,72.2206 1186.128,72.2651 1186.083,72.3088 C1184.337,74 1181.567,74 1176.027,74 L670.787,74 C665.247,74 662.477,74 660.731,72.3088 C660.686,72.265 660.642,72.2206 660.598,72.1755 C658.907,70.4301 658.907,67.6601 658.907,62.12 L658.907,11.88 C658.907,6.3398 658.907,3.5698 660.598,1.8245 C660.642,1.7794 660.686,1.735 660.731,1.6912 C662.477,0 665.247,0 670.787,0 L1176.027,0 Z"/><path fill="#000" fill-rule="nonzero" d="M854.926 107.188 855.227 107.13 856.128 107.547C855.139 110.638 853.52 113.282 851.594 115.501 853.55 117.604 855.945 119.427 858.83 120.628 858.53 120.87 858.134 121.412 857.9 121.8 857.387 121.559 856.933 121.317 856.457 121.083L856.457 131.073 855.044 131.073 855.044 130.018 846.408 130.018 846.408 131.161 845.053 131.161 845.053 120.899C844.248 121.354 843.405 121.771 842.6 122.13 842.417 121.771 842.029 121.258 841.699 121.017 844.489 119.911 847.397 117.992 849.829 115.414 848.445 113.729 847.339 111.993 846.526 110.367 845.537 112.022 844.394 113.458 843.23 114.659 843.017 114.447 842.505 114 842.146 113.758L842.146 114.117 838.396 114.117 838.396 118.922 842.446 118.922 842.446 120.24 838.396 120.24 838.396 126.451C839.78 126.122 841.216 125.792 842.629 125.462L842.776 126.751C838.725 127.799 834.587 128.817 831.584 129.542L831.284 128.128 832.968 127.77 832.968 117.333 834.258 117.333 834.258 127.469 837.077 126.781 837.077 114.117 832.815 114.117 832.815 105.357 842.146 105.357 842.146 113.612C844.636 111.327 846.679 107.789 847.873 103.98L849.287 104.339C848.957 105.299 848.569 106.258 848.174 107.188L854.926 107.188ZM793.52 111.092C794.026 110.309 794.714 109.203 795.285 108.119L789.8 108.119C789.616 108.807 789.375 109.437 789.104 110.067 790.876 112.77 794.385 114.901 798.164 115.743 797.864 116.007 797.505 116.52 797.27 116.908 793.755 115.919 790.488 113.883 788.54 111.239 787.097 113.817 784.607 115.831 780.41 117.062 780.256 116.732 779.868 116.219 779.568 115.978 785.119 114.542 787.368 111.539 788.357 108.119L784.065 108.119C783.2 109.32 782.146 110.492 780.886 111.51 780.644 111.18 780.168 110.792 779.839 110.609 782.329 108.719 784.006 106.141 784.819 104.039L786.196 104.251C785.837 105.086 785.42 106.017 784.848 106.888L796.098 106.888 796.34 106.83 797.329 107.159C796.487 108.719 795.556 110.433 794.743 111.51L793.52 111.092ZM861.797 110.433C864.104 108.807 866.66 106.288 867.949 104.098L869.355 104.61C867.766 107.101 865.129 109.803 862.639 111.568 862.456 111.209 862.068 110.697 861.797 110.433ZM803.598 104.427C805.276 105.423 807.524 106.888 808.667 107.76L807.795 108.932C806.66 107.972 804.433 106.441 802.756 105.387L803.598 104.427ZM773.511 105.299C775.73 106.053 778.484 107.342 779.897 108.36L779.114 109.562C777.737 108.478 774.975 107.13 772.727 106.317L773.511 105.299ZM828.259 106.771 811.604 106.771 811.604 113.612C811.604 118.768 811.128 125.968 807.619 130.978 807.378 130.743 806.748 130.377 806.447 130.26 809.868 125.338 810.197 118.563 810.197 113.612L810.197 105.423 828.259 105.423 828.259 106.771ZM880.246 112.499C883.183 113.729 886.574 115.348 888.405 116.49L887.6 117.721C885.674 116.49 882.048 114.659 879.016 113.399 876.255 115.377 873.164 116.878 870.285 117.962 870.08 117.604 869.685 117.062 869.384 116.82 874.519 115.047 880.547 111.451 883.579 107.042L871.274 107.042 871.274 105.687 884.538 105.687 884.809 105.599 885.857 106.229C884.538 108.602 882.524 110.733 880.246 112.499ZM834.14 112.799 840.798 112.799 840.798 106.646 834.14 106.646 834.14 112.799ZM826.933 110.763 826.933 120.812 820.906 120.812 820.906 129.483C820.906 130.348 820.73 130.743 820.071 130.978 819.375 131.219 818.144 131.219 816.079 131.19 815.984 130.831 815.808 130.318 815.625 129.93 816.986 129.978 818.139 129.967 818.705 129.962 818.828 129.96 818.923 129.959 818.987 129.959 819.404 129.93 819.529 129.813 819.529 129.483L819.529 120.812 813.764 120.812 813.764 110.763 818.628 110.763C818.957 109.767 819.345 108.419 819.558 107.489L821.089 107.877C820.73 108.836 820.334 109.891 819.975 110.763L826.933 110.763ZM854.326 108.507 847.544 108.507 847.243 109.078C848.056 110.821 849.199 112.711 850.664 114.483 852.165 112.711 853.425 110.697 854.326 108.507ZM861.32 119.127C863.957 117.062 866.66 113.912 868.337 110.733L869.626 111.18C868.967 112.469 868.125 113.758 867.224 114.989L867.224 131.161 865.788 131.161 865.788 116.82C864.646 118.167 863.415 119.398 862.214 120.387 862.068 120.086 861.613 119.457 861.32 119.127ZM771.526 114.513C773.686 113.883 776.865 112.887 780.139 111.898L780.315 113.187C777.378 114.146 774.287 115.143 771.95 115.86L771.526 114.513ZM825.556 111.993 815.119 111.993 815.119 115.172 825.556 115.172 825.556 111.993ZM802.126 112.469C803.803 113.37 806.089 114.718 807.26 115.56L806.418 116.732C805.246 115.831 803.027 114.388 801.255 113.429L802.126 112.469ZM825.556 116.336 815.119 116.336 815.119 119.581 825.556 119.581 825.556 116.336ZM850.73 116.49C849.17 118.08 847.456 119.427 845.72 120.511L855.527 120.511C853.696 119.369 852.077 117.962 850.73 116.49ZM794.414 117.933 794.414 126.151 792.949 126.151 792.949 119.281 777.136 119.281 777.136 126.297 775.73 126.297 775.73 117.933 794.414 117.933ZM879.646 120.511 879.646 128.912 888.464 128.912 888.464 130.26 869.297 130.26 869.297 128.912 878.21 128.912 878.21 120.511 871.216 120.511 871.216 119.164 886.574 119.164 886.574 120.511 879.646 120.511ZM771.738 130.113C781.216 128.817 783.735 125.909 784.577 120.211L786.05 120.211C785.053 126.627 782.234 129.901 772.368 131.249 772.243 130.919 771.98 130.377 771.738 130.113ZM802.038 129.901C803.415 127.586 805.4 123.543 806.777 120.211L807.949 121.053C806.594 124.203 804.8 128.041 803.298 130.743L802.038 129.901ZM846.408 121.83 846.408 128.67 855.044 128.67 855.044 121.83 846.408 121.83ZM827.27 129C826.487 127.528 824.927 124.979 823.608 123.089L824.839 122.613C826.186 124.474 827.776 126.927 828.589 128.37L827.27 129ZM811.274 128.487C812.776 126.993 814.218 124.862 815.149 122.789L816.496 123.119C815.449 125.367 813.918 127.711 812.475 129.271 812.234 129.088 811.604 128.7 811.274 128.487ZM796.933 131.102C794.385 129.688 789.404 127.557 785.537 126.268L786.284 125.191C790.158 126.422 795.139 128.429 797.746 129.813L796.933 131.102ZM818.026 165 816.29 165 816.29 141.152 818.026 141.152 818.026 147.993 817.996 151.472C819.615 149.854 821.27 148.586 823.46 148.586 826.786 148.586 828.316 150.659 828.316 154.768L828.316 165 826.58 165 826.58 155.01C826.58 151.677 825.526 150.146 823.065 150.146 821.204 150.146 819.886 151.113 818.026 153.032L818.026 165ZM774.887 165 773.086 165 773.086 143.13 778.755 143.13C783.706 143.13 786.738 144.749 786.738 149.282 786.738 153.662 783.735 155.757 778.879 155.757L774.887 155.757 774.887 165ZM812.9 164.788C811.97 165.117 810.945 165.388 810.227 165.388 807.078 165.388 806.118 163.411 806.118 160.437L806.118 150.483 803.628 150.483 803.628 149.158 806.177 149.011 806.389 144.39 807.854 144.39 807.854 149.011 812.446 149.011 812.446 150.483 807.854 150.483 807.854 160.562C807.854 162.568 808.396 163.887 810.527 163.887 811.128 163.887 811.904 163.682 812.476 163.44L812.9 164.788ZM847.79 164.788C846.86 165.117 845.835 165.388 845.117 165.388 841.968 165.388 841.008 163.411 841.008 160.437L841.008 150.483 838.518 150.483 838.518 149.158 841.067 149.011 841.279 144.39 842.744 144.39 842.744 149.011 847.336 149.011 847.336 150.483 842.744 150.483 842.744 160.562C842.744 162.568 843.286 163.887 845.417 163.887 846.018 163.887 846.794 163.682 847.365 163.44L847.79 164.788ZM774.887 144.631 774.887 154.263 778.52 154.263C782.834 154.263 784.907 152.791 784.907 149.282 784.907 145.737 782.746 144.631 778.396 144.631L774.887 144.631ZM798.829 162.957C797.21 164.282 795.284 165.388 793.248 165.388 790.669 165.388 788.597 163.953 788.597 160.979 788.597 157.441 791.746 155.757 798.799 154.951 798.858 152.578 798.169 150.117 795.137 150.117 793.035 150.117 791.204 151.113 790.098 151.948L789.314 150.688C790.545 149.854 792.764 148.586 795.379 148.586 799.187 148.586 800.535 151.318 800.535 154.863L800.535 165 799.07 165 798.887 162.957 798.829 162.957ZM863.93 157.017C863.93 162.327 860.568 165.388 856.701 165.388 852.826 165.388 849.464 162.327 849.464 157.017 849.464 151.677 852.826 148.586 856.701 148.586 860.568 148.586 863.93 151.677 863.93 157.017ZM877.006 165 875.27 165 875.27 149.011 876.705 149.011 876.918 151.978 876.976 151.978C878.06 149.971 879.65 148.586 881.51 148.586 882.14 148.586 882.616 148.682 883.129 148.953L882.77 150.513C882.228 150.3 881.928 150.242 881.298 150.242 879.884 150.242 878.178 151.289 877.006 154.263L877.006 165ZM896.931 163.828C895.634 164.641 894.14 165.388 891.826 165.388 887.717 165.388 884.384 162.268 884.384 157.017 884.384 151.831 887.775 148.586 891.408 148.586 895.275 148.586 897.59 151.348 897.59 156.028 897.59 156.482 897.56 156.899 897.494 157.288L886.157 157.288C886.244 161.191 888.559 163.923 892.009 163.923 893.715 163.923 895.07 163.381 896.264 162.539L896.931 163.828ZM911.269 160.833C911.269 163.293 909.321 165.388 905.776 165.388 903.439 165.388 901.337 164.399 899.894 163.198L900.824 161.938C902.209 163.11 903.674 163.953 905.863 163.953 908.295 163.953 909.526 162.568 909.526 160.92 909.526 159.031 907.519 158.159 905.658 157.5 903.285 156.658 900.649 155.669 900.649 152.908 900.649 150.571 902.538 148.586 905.9 148.586 907.636 148.586 909.35 149.341 910.544 150.3L909.65 151.501C908.566 150.688 907.394 150.059 905.834 150.059 903.468 150.059 902.384 151.377 902.384 152.82 902.384 154.592 904.245 155.251 906.105 155.94 908.566 156.87 911.269 157.742 911.269 160.833ZM928.549 157.017C928.549 162.327 925.188 165.388 921.32 165.388 917.446 165.388 914.084 162.327 914.084 157.017 914.084 151.677 917.446 148.586 921.32 148.586 925.188 148.586 928.549 151.677 928.549 157.017ZM952.666 165 950.93 165 950.93 149.011 952.365 149.011 952.578 151.978 952.636 151.978C953.72 149.971 955.31 148.586 957.17 148.586 957.8 148.586 958.276 148.682 958.789 148.953L958.43 150.513C957.888 150.3 957.587 150.242 956.958 150.242 955.544 150.242 953.837 151.289 952.666 154.263L952.666 165ZM972.466 163.323C971.089 164.517 969.375 165.388 967.368 165.388 963.193 165.388 960.044 162.327 960.044 157.017 960.044 151.677 963.494 148.586 967.456 148.586 969.588 148.586 971.03 149.553 972.136 150.542L971.148 151.743C970.159 150.813 968.987 150.117 967.485 150.117 964.307 150.117 961.875 152.937 961.875 157.017 961.875 161.104 964.094 163.887 967.456 163.887 969.104 163.887 970.547 163.081 971.624 162.122L972.466 163.323ZM986.93 163.828C985.634 164.641 984.14 165.388 981.825 165.388 977.717 165.388 974.384 162.268 974.384 157.017 974.384 151.831 977.775 148.586 981.408 148.586 985.275 148.586 987.59 151.348 987.59 156.028 987.59 156.482 987.56 156.899 987.494 157.288L976.157 157.288C976.244 161.191 978.559 163.923 982.009 163.923 983.715 163.923 985.07 163.381 986.264 162.539L986.93 163.828ZM943.22 162.363C941.66 164.158 940.034 165.388 937.815 165.388 934.49 165.388 932.988 163.352 932.988 159.243L932.988 149.011 934.724 149.011 934.724 159.031C934.724 162.297 935.749 163.828 938.21 163.828 940.063 163.828 941.389 162.869 943.183 160.708L943.183 149.011 944.927 149.011 944.927 165 943.454 165 943.308 162.363 943.22 162.363ZM891.437 150.088C888.83 150.088 886.486 152.249 886.157 155.911L896 155.911C896 152.043 894.228 150.088 891.437 150.088ZM981.437 150.088C978.83 150.088 976.486 152.249 976.157 155.911L986 155.911C986 152.043 984.228 150.088 981.437 150.088ZM851.295 157.017C851.295 161.104 853.58 163.887 856.701 163.887 859.813 163.887 862.128 161.104 862.128 157.017 862.128 152.937 859.813 150.117 856.701 150.117 853.58 150.117 851.295 152.937 851.295 157.017ZM915.915 157.017C915.915 161.104 918.2 163.887 921.32 163.887 924.433 163.887 926.748 161.104 926.748 157.017 926.748 152.937 924.433 150.117 921.32 150.117 918.2 150.117 915.915 152.937 915.915 157.017ZM790.34 160.891C790.34 163.081 791.834 163.923 793.606 163.923 795.379 163.923 796.91 163.081 798.799 161.433L798.799 156.24C792.5 156.958 790.34 158.43 790.34 160.891ZM956.951 30.5664 956.951 49 960.517 49 960.517 30.5664 969.498 30.5664 969.498 27.6123 960.517 27.6123 960.517 25.6787C960.517 23.9456333 960.943333 22.5813667 961.796 21.5859 962.648 20.5905 964.026333 20.0928 965.931 20.0928 966.869667 20.0928 967.711333 20.1608333 968.456 20.2969 969.208 20.4257667 970.024333 20.6943 970.905 21.1025L971.732 18.374C969.741333 17.5576 967.689667 17.1494 965.577 17.1494 962.641 17.1494 960.467333 17.9407333 959.056 19.5234 957.652667 21.1061333 956.951 23.2008667 956.951 25.8076L956.951 27.6123 950.839 27.8379 950.839 30.5664 956.951 30.5664ZM985.951 22.3594C986.509 22.875 987.2 23.1328 988.024 23.1328 988.84 23.1328 989.527333 22.875 990.086 22.3594 990.644667 21.8437333 990.924 21.1598 990.924 20.3076 990.924 19.4625333 990.644667 18.7822 990.086 18.2666 989.527333 17.751 988.84 17.4932 988.024 17.4932 987.2 17.4932 986.509 17.751 985.951 18.2666 985.392333 18.7822 985.113 19.4625333 985.113 20.3076 985.113 21.1598 985.392333 21.8437333 985.951 22.3594ZM765.599 17.6758 765.599 49 769.208 49 769.208 34.0791C770.468667 32.7900333 771.596667 31.8232333 772.592 31.1787 773.587333 30.5341667 774.718667 30.2119 775.986 30.2119 777.740667 30.2119 778.997667 30.7024667 779.757 31.6836 780.523 32.6647333 780.906 34.1686333 780.906 36.1953L780.906 49 784.516 49 784.516 35.7119C784.516 32.8974333 783.914333 30.7561667 782.711 29.2881 781.507667 27.8199667 779.645667 27.0859 777.125 27.0859 775.456333 27.0859 773.981 27.4833667 772.699 28.2783 771.424333 29.0661 770.232 30.0615333 769.122 31.2646L768.982 31.2646 769.208 26.2051 769.208 17.6758 765.599 17.6758ZM1011.803 47.5713C1013.02033 48.8747 1014.757 49.5264 1017.013 49.5264 1018.187 49.5264 1019.18233 49.4154 1019.999 49.1934 1020.82233 48.9785333 1021.73533 48.6634 1022.738 48.248L1021.814 45.5732C1020.40333 46.2177333 1019.068 46.54 1017.808 46.54 1016.54733 46.54 1015.52667 46.1891 1014.746 45.4873 1013.97267 44.7783 1013.586 43.6468 1013.586 42.0928L1013.586 17.6758 1002.36 17.6758 1002.36 20.6191 1009.977 20.6191 1009.977 41.8242C1009.977 44.3522 1010.58567 46.2679 1011.803 47.5713ZM1086.007 17.6758 1082.398 17.6758 1082.398 49 1086.007 49 1086.007 34.0791C1087.26767 32.7900333 1088.39567 31.8232333 1089.391 31.1787 1090.38633 30.5341667 1091.518 30.2119 1092.786 30.2119 1094.54 30.2119 1095.79667 30.7024667 1096.556 31.6836 1097.32267 32.6647333 1097.706 34.1686333 1097.706 36.1953L1097.706 49 1101.315 49 1101.315 35.7119C1101.315 32.8974333 1100.71333 30.7561667 1099.51 29.2881 1098.30733 27.8199667 1096.44533 27.0859 1093.924 27.0859 1092.25533 27.0859 1090.78033 27.4833667 1089.499 28.2783 1088.22367 29.0661 1087.031 30.0615333 1085.921 31.2646L1085.782 31.2646 1086.007 26.2051 1086.007 17.6758ZM1170.202 47.5713C1171.41933 48.8747 1173.156 49.5264 1175.412 49.5264 1176.58667 49.5264 1177.582 49.4154 1178.398 49.1934 1179.222 48.9785333 1180.13533 48.6634 1181.138 48.248L1180.214 45.5732C1178.80333 46.2177333 1177.46767 46.54 1176.207 46.54 1174.94633 46.54 1173.926 46.1891 1173.146 45.4873 1172.372 44.7783 1171.985 43.6468 1171.985 42.0928L1171.985 17.6758 1160.76 17.6758 1160.76 20.6191 1168.376 20.6191 1168.376 41.8242C1168.376 44.3522 1168.98467 46.2679 1170.202 47.5713ZM674.694 17.7617 660.267 56.0361 663.522 56.0361 677.949 17.7617 674.694 17.7617ZM806.694 17.7617 792.267 56.0361 795.522 56.0361 809.949 17.7617 806.694 17.7617ZM885.894 17.7617 871.467 56.0361 874.722 56.0361 889.149 17.7617 885.894 17.7617ZM747.513 48.4092C748.716333 49.154 750.36 49.5264 752.444 49.5264 753.79 49.5264 754.996667 49.4010667 756.064 49.1504 757.138 48.9069333 758.158333 48.6061333 759.125 48.248L758.341 45.6162C757.575 45.9098 756.78 46.1461333 755.956 46.3252 755.14 46.4970667 754.216333 46.583 753.185 46.583 751.137 46.583 749.722667 46.0852667 748.942 45.0898 748.168667 44.0872 747.782 42.6334333 747.782 40.7285L747.782 30.5664 758.298 30.5664 758.298 27.6123 747.782 27.6123 747.782 20.748 744.785 20.748 744.301 27.6123 738.146 27.8379 738.146 30.5664 744.172 30.5664 744.172 40.6855C744.172 42.4472333 744.426333 43.9869667 744.935 45.3047 745.450333 46.6223667 746.309667 47.6572 747.513 48.4092ZM826.713 48.4092C827.916333 49.154 829.56 49.5264 831.644 49.5264 832.99 49.5264 834.196667 49.4010667 835.264 49.1504 836.338 48.9069333 837.358333 48.6061333 838.325 48.248L837.541 45.6162C836.775 45.9098 835.98 46.1461333 835.156 46.3252 834.34 46.4970667 833.416333 46.583 832.385 46.583 830.337 46.583 828.922667 46.0852667 828.142 45.0898 827.368 44.0872 826.981 42.6334333 826.981 40.7285L826.981 30.5664 837.498 30.5664 837.498 27.6123 826.981 27.6123 826.981 20.748 823.984 20.748 823.501 27.6123 817.346 27.8379 817.346 30.5664 823.372 30.5664 823.372 40.6855C823.372 42.4472333 823.626333 43.9869667 824.135 45.3047 824.650333 46.6223667 825.509667 47.6572 826.713 48.4092ZM1117.112 48.4092C1118.31533 49.154 1119.959 49.5264 1122.043 49.5264 1123.38967 49.5264 1124.59633 49.4010667 1125.663 49.1504 1126.737 48.9069333 1127.75767 48.6061333 1128.725 48.248L1127.94 45.6162C1127.174 45.9098 1126.37933 46.1461333 1125.556 46.3252 1124.73933 46.4970667 1123.81533 46.583 1122.784 46.583 1120.736 46.583 1119.32167 46.0852667 1118.541 45.0898 1117.76767 44.0872 1117.381 42.6334333 1117.381 40.7285L1117.381 30.5664 1127.897 30.5664 1127.897 27.6123 1117.381 27.6123 1117.381 20.748 1114.384 20.748 1113.9 27.6123 1107.745 27.8379 1107.745 30.5664 1113.772 30.5664 1113.772 40.6855C1113.772 42.4472333 1114.026 43.9869667 1114.534 45.3047 1115.05 46.6223667 1115.90933 47.6572 1117.112 48.4092ZM686.399 27.6123 686.399 58.0234 690.008 58.0234 690.008 50.8047 689.825 46.7549 689.965 46.7549C690.903 47.6357667 691.948667 48.3196667 693.102 48.8066 694.262 49.2864667 695.343333 49.5264 696.346 49.5264 698.072 49.5264 699.669 49.0716333 701.137 48.1621 702.605 47.2526333 703.793667 45.9349333 704.703 44.209 705.613 42.4759333 706.068 40.4062667 706.068 38 706.068 34.6842667 705.312333 32.0381 703.801 30.0615 702.289667 28.0777667 700.098333 27.0859 697.227 27.0859 695.901667 27.0859 694.587333 27.3938667 693.284 28.0098 691.980667 28.6256667 690.827667 29.4026667 689.825 30.3408L689.696 30.3408 689.385 27.6123 686.399 27.6123ZM715.892 48.8066C716.995333 49.2864667 718.209333 49.5264 719.534 49.5264 721.059333 49.5264 722.552333 49.1826333 724.013 48.4951 725.481667 47.8076333 726.803 47.0091333 727.977 46.0996L728.106 46.0996 728.418 49 731.361 49 731.361 35.8838C731.361 33.2197333 730.648333 31.0892 729.223 29.4922 727.805 27.888 725.631667 27.0859 722.703 27.0859 720.819667 27.0859 719.033 27.4260667 717.343 28.1064 715.659667 28.7796 714.277333 29.4671 713.196 30.1689L714.603 32.6289C715.598333 32.0130333 716.748 31.4365333 718.052 30.8994 719.362 30.3551333 720.704667 30.083 722.08 30.083 723.462 30.083 724.561333 30.3336667 725.378 30.835 726.201333 31.3291333 726.795667 31.9808 727.161 32.79 727.526333 33.5921333 727.726667 34.4766 727.762 35.4434 724.095333 35.737 721.116333 36.2096333 718.825 36.8613 716.540333 37.5058333 714.875333 38.3652333 713.83 39.4395 712.791333 40.5065 712.272 41.8456667 712.272 43.457 712.272 44.7174667 712.601667 45.8024333 713.261 46.7119 713.919667 47.6214333 714.796667 48.3196667 715.892 48.8066ZM848.687 48.2051C850.291 49.0859667 852.031333 49.5264 853.908 49.5264 855.784 49.5264 857.520667 49.0859667 859.118 48.2051 860.714667 47.3242333 862.003667 46.0495 862.985 44.3809 863.973 42.7051 864.467 40.6963 864.467 38.3545 864.467 35.9482333 863.973 33.9108 862.985 32.2422 862.003667 30.5664 860.714667 29.2880667 859.118 28.4072 857.520667 27.5263333 855.784 27.0859 853.908 27.0859 852.031333 27.0859 850.291 27.5263333 848.687 28.4072 847.090333 29.2880667 845.801333 30.5664 844.82 32.2422 843.838667 33.9108 843.348 35.9482333 843.348 38.3545 843.348 40.6963 843.838667 42.7051 844.82 44.3809 845.801333 46.0495 847.090333 47.3242333 848.687 48.2051ZM896.062 27.6123 896.062 49 899.661 49 899.661 33.5098C900.191 32.3997333 900.728 31.5725667 901.272 31.0283 901.816667 30.4840333 902.454 30.2119 903.184 30.2119 903.979333 30.2119 904.545333 30.527 904.882 31.1572 905.218 31.7874 905.386 32.7184 905.386 33.9502L905.386 49 908.727 49 908.727 33.5098C909.314333 32.3997333 909.848 31.5725667 910.328 31.0283 910.814667 30.4840333 911.427 30.2119 912.165 30.2119 913.690333 30.2119 914.453 31.458 914.453 33.9502L914.453 49 918.062 49 918.062 33.6924C918.062 31.5511333 917.643 29.9147333 916.805 28.7832 915.967667 27.6516667 914.800333 27.0859 913.303 27.0859 912.071667 27.0859 911.08 27.4189333 910.328 28.085 909.583333 28.7438 908.903 29.6425333 908.287 30.7812 907.671 28.3176667 906.321 27.0859 904.237 27.0859 903.005 27.0859 902.024 27.3938667 901.294 28.0098 900.563333 28.6256667 899.918667 29.4313333 899.36 30.4268L899.274 30.4268 898.963 27.6123 896.062 27.6123ZM1034.196 48.2051C1035.94333 49.0859667 1037.88767 49.5264 1040.029 49.5264 1041.755 49.5264 1043.29833 49.2793333 1044.659 48.7852 1046.02633 48.2838667 1047.24 47.6823 1048.3 46.9805L1046.979 44.5957C1046.01233 45.2115667 1045.006 45.7057 1043.96 46.0781 1042.922 46.4433667 1041.75833 46.626 1040.469 46.626 1038.235 46.626 1036.348 46.0101 1034.808 44.7783 1033.26867 43.5465667 1032.38067 41.7275667 1032.144 39.3213L1048.999 39.3213C1049.05567 39.0277 1049.09833 38.6911 1049.127 38.3115 1049.163 37.9247667 1049.181 37.5273 1049.181 37.1191 1049.181 34.0969667 1048.32167 31.6692333 1046.603 29.8359 1044.88433 28.0025667 1042.48533 27.0859 1039.406 27.0859 1037.50067 27.0859 1035.71733 27.5335 1034.056 28.4287 1032.402 29.3239 1031.063 30.6094 1030.039 32.2852 1029.01433 33.9538 1028.502 35.9482667 1028.502 38.2686 1028.502 40.639 1029.01433 42.6692667 1030.039 44.3594 1031.063 46.0423333 1032.44867 47.3242333 1034.196 48.2051ZM1133.662 27.6123 1133.662 49 1137.26 49 1137.26 33.5098C1137.79 32.3997333 1138.32733 31.5725667 1138.872 31.0283 1139.416 30.4840333 1140.05333 30.2119 1140.784 30.2119 1141.57867 30.2119 1142.14433 30.527 1142.481 31.1572 1142.81767 31.7874 1142.986 32.7184 1142.986 33.9502L1142.986 49 1146.327 49 1146.327 33.5098C1146.91433 32.3997333 1147.44767 31.5725667 1147.927 31.0283 1148.41433 30.4840333 1149.02667 30.2119 1149.764 30.2119 1151.28933 30.2119 1152.052 31.458 1152.052 33.9502L1152.052 49 1155.662 49 1155.662 33.6924C1155.662 31.5511333 1155.243 29.9147333 1154.405 28.7832 1153.567 27.6516667 1152.39967 27.0859 1150.903 27.0859 1149.671 27.0859 1148.679 27.4189333 1147.927 28.085 1147.18233 28.7438 1146.502 29.6425333 1145.886 30.7812 1145.27 28.3176667 1143.92 27.0859 1141.836 27.0859 1140.60467 27.0859 1139.62367 27.3938667 1138.893 28.0098 1138.16233 28.6256667 1137.51767 29.4313333 1136.959 30.4268L1136.874 30.4268 1136.562 27.6123 1133.662 27.6123ZM922.849 57.7549C923.672333 58.0485 924.614 58.1953 925.674 58.1953 927.285333 58.1953 928.667667 57.8658667 929.821 57.207 930.981 56.5482 931.958333 55.6602 932.753 54.543 933.548333 53.4258 934.207333 52.1653667 934.73 50.7617L944.151 27.6123 940.713 27.6123 936.051 39.4502C935.700333 40.417 935.324333 41.4375 934.923 42.5117 934.529 43.5787667 934.142333 44.6279333 933.763 45.6592L933.591 45.6592C933.147 44.6279333 932.696 43.5716 932.238 42.4902 931.786667 41.4016667 931.357 40.3883333 930.949 39.4502L925.717 27.6123 922.065 27.6123 932.044 49.043 931.389 50.6328C930.859 51.9505333 930.125 53.0426667 929.187 53.9092 928.249 54.7757333 927.031333 55.209 925.534 55.209 925.212 55.209 924.882667 55.1767667 924.546 55.1123 924.209333 55.0550333 923.894333 54.9834333 923.601 54.8975L922.849 57.7549ZM986.606 30.5664 986.606 49 990.215 49 990.215 27.6123 976.669 27.6123 976.669 30.5664 986.606 30.5664ZM1034.787 31.6406C1036.169 30.5091333 1037.74067 29.9434 1039.502 29.9434 1041.314 29.9434 1042.793 30.4876667 1043.939 31.5762 1045.085 32.6647333 1045.72967 34.3082667 1045.873 36.5068L1032.241 36.5068C1032.563 34.3942 1033.41167 32.7721333 1034.787 31.6406ZM858.86 44.2734C857.614 45.7844667 855.963333 46.54 853.908 46.54 851.852667 46.54 850.202 45.7844667 848.956 44.2734 847.71 42.7623333 847.087 40.7893667 847.087 38.3545 847.087 35.8909667 847.71 33.8965 848.956 32.3711 850.202 30.8457 851.852667 30.083 853.908 30.083 855.963333 30.083 857.614 30.8457 858.86 32.3711 860.106 33.8965 860.729 35.8909667 860.729 38.3545 860.729 40.7893667 860.106 42.7623333 858.86 44.2734ZM700.46 44.2305C699.214 45.7415667 697.635 46.4971 695.723 46.4971 694.992333 46.4971 694.111333 46.3073 693.08 45.9277 692.056 45.5410333 691.032 44.8929333 690.008 43.9834L690.008 33.3379C691.118 32.2207 692.206667 31.4078667 693.274 30.8994 694.348 30.3838 695.357667 30.126 696.303 30.126 698.444333 30.126 699.984 30.8528667 700.922 32.3066 701.86 33.7532667 702.329 35.6510667 702.329 38 702.329 40.6426 701.706 42.7194333 700.46 44.2305ZM724.132 45.7881C722.914 46.3467 721.703667 46.626 720.501 46.626 719.269 46.626 718.173333 46.3538667 717.214 45.8096 716.261333 45.2653333 715.785 44.3916333 715.785 43.1885 715.785 42.2503 716.143 41.4231333 716.859 40.707 717.582333 39.9908667 718.817667 39.3893 720.565 38.9023 722.312333 38.4153667 724.711333 38.0573 727.762 37.8281L727.762 43.457C726.559333 44.4524667 725.349333 45.2295 724.132 45.7881ZM1062.572 48.4951C1063.26667 49.1826333 1064.11167 49.5264 1065.107 49.5264 1066.103 49.5264 1066.94467 49.1826333 1067.632 48.4951 1068.32667 47.8076333 1068.674 46.9196333 1068.674 45.8311 1068.674 44.7139 1068.32667 43.8115333 1067.632 43.124 1066.94467 42.4365333 1066.103 42.0928 1065.107 42.0928 1064.11167 42.0928 1063.26667 42.4365333 1062.572 43.124 1061.88467 43.8115333 1061.541 44.7139 1061.541 45.8311 1061.541 46.9196333 1061.88467 47.8076333 1062.572 48.4951Z"/><path fill="#CCC" fill-rule="nonzero" d="M0,17.6758 L0,49 L3.609,49 L3.609,34.0791 C4.86966667,32.7900333 5.99766667,31.8232333 6.993,31.1787 C7.98833333,30.5341667 9.11966667,30.2119 10.387,30.2119 C12.1416667,30.2119 13.3986667,30.7024667 14.158,31.6836 C14.924,32.6647333 15.307,34.1686333 15.307,36.1953 L15.307,49 L18.917,49 L18.917,35.7119 C18.917,32.8974333 18.3153333,30.7561667 17.112,29.2881 C15.9086667,27.8199667 14.0466667,27.0859 11.526,27.0859 C9.85733333,27.0859 8.382,27.4833667 7.1,28.2783 C5.82533333,29.0661 4.633,30.0615333 3.523,31.2646 L3.384,31.2646 L3.609,26.2051 L3.609,17.6758 L0,17.6758 Z M431.003,47.5713 C432.221,48.8747 433.957667,49.5264 436.213,49.5264 C437.387667,49.5264 438.383333,49.4154 439.2,49.1934 C440.023333,48.9785333 440.936333,48.6634 441.939,48.248 L441.015,45.5732 C439.604333,46.2177333 438.268667,46.54 437.008,46.54 C435.748,46.54 434.727667,46.1891 433.947,45.4873 C433.173667,44.7783 432.787,43.6468 432.787,42.0928 L432.787,17.6758 L421.561,17.6758 L421.561,20.6191 L429.177,20.6191 L429.177,41.8242 C429.177,44.3522 429.785667,46.2679 431.003,47.5713 Z M146.695,17.7617 L132.268,56.0361 L135.523,56.0361 L149.95,17.7617 L146.695,17.7617 Z M173.095,17.7617 L158.668,56.0361 L161.923,56.0361 L176.35,17.7617 L173.095,17.7617 Z M610.9155,48.5381 C612.455233,49.1969667 614.281433,49.5264 616.3941,49.5264 C618.535367,49.5264 620.354367,49.1969667 621.8511,48.5381 C623.347833,47.8792333 624.490067,46.9769 625.2778,45.8311 C626.072733,44.6852333 626.4702,43.4248 626.4702,42.0498 C626.4702,40.6962667 626.226733,39.5826667 625.7398,38.709 C625.259933,37.8281333 624.601067,37.0726 623.7632,36.4424 C622.925333,35.8122 621.994333,35.2464333 620.9702,34.7451 L620.9702,34.5732 C622.144733,33.7496667 623.147333,32.7578333 623.978,31.5977 C624.815933,30.4375 625.2349,29.1985667 625.2349,27.8809 C625.2349,25.7109667 624.4722,23.9241667 622.9468,22.5205 C621.4214,21.1097 619.280133,20.4043 616.523,20.4043 C614.854333,20.4043 613.364733,20.7050667 612.0542,21.3066 C610.7508,21.9082 609.723133,22.7532667 608.9712,23.8418 C608.2264,24.9232 607.854,26.1800333 607.854,27.6123 C607.854,29.0804333 608.272967,30.3587667 609.1109,31.4473 C609.948767,32.5286333 610.954933,33.4381333 612.1294,34.1758 L612.1294,34.3477 C611.1268,34.8203 610.1636,35.3932 609.2398,36.0664 C608.315933,36.7396 607.5604,37.5452667 606.9732,38.4834 C606.393067,39.4215333 606.103,40.5351333 606.103,41.8242 C606.103,43.2923333 606.518367,44.6136333 607.3491,45.7881 C608.187033,46.9625667 609.375833,47.8792333 610.9155,48.5381 Z M635.3389,45.7021 C637.143633,48.2516333 639.600033,49.5264 642.7081,49.5264 C645.844833,49.5264 648.308467,48.2516333 650.099,45.7021 C651.889,43.1455 652.784,39.5361333 652.784,34.874 C652.784,30.1546 651.889,26.5631333 650.099,24.0996 C648.308467,21.6360667 645.844833,20.4043 642.7081,20.4043 C639.600033,20.4043 637.143633,21.6360667 635.3389,24.0996 C633.534233,26.5631333 632.6319,30.1546 632.6319,34.874 C632.6319,39.5361333 633.534233,43.1455 635.3389,45.7021 Z M34.714,48.4092 C35.9173333,49.154 37.561,49.5264 39.645,49.5264 C40.991,49.5264 42.1976667,49.4010667 43.265,49.1504 C44.339,48.9069333 45.3593333,48.6061333 46.326,48.248 L45.542,45.6162 C44.776,45.9098 43.9813333,46.1461333 43.158,46.3252 C42.3413333,46.4970667 41.4173333,46.583 40.386,46.583 C38.338,46.583 36.9236667,46.0852667 36.143,45.0898 C35.3696667,44.0872 34.983,42.6334333 34.983,40.7285 L34.983,30.5664 L45.499,30.5664 L45.499,27.6123 L34.983,27.6123 L34.983,20.748 L31.986,20.748 L31.502,27.6123 L25.347,27.8379 L25.347,30.5664 L31.373,30.5664 L31.373,40.6855 C31.373,42.4472333 31.6273333,43.9869667 32.136,45.3047 C32.652,46.6223667 33.5113333,47.6572 34.714,48.4092 Z M61.114,48.4092 C62.3173333,49.154 63.961,49.5264 66.045,49.5264 C67.391,49.5264 68.5976667,49.4010667 69.665,49.1504 C70.739,48.9069333 71.7593333,48.6061333 72.726,48.248 L71.942,45.6162 C71.176,45.9098 70.381,46.1461333 69.557,46.3252 C68.741,46.4970667 67.8173333,46.583 66.786,46.583 C64.738,46.583 63.3236667,46.0852667 62.543,45.0898 C61.7696667,44.0872 61.383,42.6334333 61.383,40.7285 L61.383,30.5664 L71.899,30.5664 L71.899,27.6123 L61.383,27.6123 L61.383,20.748 L58.386,20.748 L57.902,27.6123 L51.747,27.8379 L51.747,30.5664 L57.773,30.5664 L57.773,40.6855 C57.773,42.4472333 58.0273333,43.9869667 58.536,45.3047 C59.0513333,46.6223667 59.9106667,47.6572 61.114,48.4092 Z M622.1089,28.0527 C622.1089,30.1080333 620.938,31.9879333 618.5962,33.6924 C617.214067,33.2484 615.957233,32.7721667 614.8257,32.2637 C613.701367,31.7480333 612.809767,31.1249667 612.1509,30.3945 C611.492033,29.6569 611.1626,28.7295 611.1626,27.6123 C611.1626,26.2373 611.653167,25.1380333 612.6343,24.3145 C613.615433,23.4909 614.883,23.0791 616.437,23.0791 C618.284667,23.0791 619.6919,23.5660667 620.6587,24.54 C621.6255,25.5068 622.1089,26.6777 622.1089,28.0527 Z M647.5206,43.7686 C646.274467,45.6735333 644.6703,46.626 642.7081,46.626 C640.7387,46.626 639.130933,45.6735333 637.8848,43.7686 C636.638733,41.8564667 636.0157,38.8916 636.0157,34.874 C636.0157,30.8278 636.638733,27.8880333 637.8848,26.0547 C639.130933,24.2213667 640.7387,23.3047 642.7081,23.3047 C644.6703,23.3047 646.274467,24.2213667 647.5206,26.0547 C648.766867,27.8880333 649.39,30.8278 649.39,34.874 C649.39,38.8916 648.766867,41.8564667 647.5206,43.7686 Z M112.174,32.7471 C112.868667,33.4345667 113.713667,33.7783 114.709,33.7783 C115.704333,33.7783 116.545667,33.4345667 117.233,32.7471 C117.927667,32.0595667 118.275,31.1715333 118.275,30.083 C118.275,28.9658 117.927667,28.0634667 117.233,27.376 C116.545667,26.6884667 115.704333,26.3447 114.709,26.3447 C113.713667,26.3447 112.868667,26.6884667 112.174,27.376 C111.486667,28.0634667 111.143,28.9658 111.143,30.083 C111.143,31.1715333 111.486667,32.0595667 112.174,32.7471 Z M587.373,32.7471 C588.067667,33.4345667 588.912733,33.7783 589.9082,33.7783 C590.9036,33.7783 591.745067,33.4345667 592.4326,32.7471 C593.127267,32.0595667 593.4746,31.1715333 593.4746,30.083 C593.4746,28.9658 593.127267,28.0634667 592.4326,27.376 C591.745067,26.6884667 590.9036,26.3447 589.9082,26.3447 C588.912733,26.3447 588.067667,26.6884667 587.373,27.376 C586.685533,28.0634667 586.3418,28.9658 586.3418,30.083 C586.3418,31.1715333 586.685533,32.0595667 587.373,32.7471 Z M79.2,27.6123 L79.2,58.0234 L82.809,58.0234 L82.809,50.8047 L82.626,46.7549 L82.766,46.7549 C83.704,47.6357667 84.7496667,48.3196667 85.903,48.8066 C87.063,49.2864667 88.1443333,49.5264 89.147,49.5264 C90.873,49.5264 92.47,49.0716333 93.938,48.1621 C95.406,47.2526333 96.5946667,45.9349333 97.504,44.209 C98.414,42.4759333 98.869,40.4062667 98.869,38 C98.869,34.6842667 98.1133333,32.0381 96.602,30.0615 C95.0906667,28.0777667 92.8993333,27.0859 90.028,27.0859 C88.7026667,27.0859 87.3883333,27.3938667 86.085,28.0098 C84.7816667,28.6256667 83.6286667,29.4026667 82.626,30.3408 L82.497,30.3408 L82.186,27.6123 L79.2,27.6123 Z M294.997,48.2051 C296.744333,49.0859667 298.688667,49.5264 300.83,49.5264 C302.556,49.5264 304.099333,49.2793333 305.46,48.7852 C306.827333,48.2838667 308.041,47.6823 309.101,46.9805 L307.78,44.5957 C306.813333,45.2115667 305.807,45.7057 304.761,46.0781 C303.723,46.4433667 302.559333,46.626 301.27,46.626 C299.036,46.626 297.149,46.0101 295.609,44.7783 C294.069667,43.5465667 293.181667,41.7275667 292.945,39.3213 L309.8,39.3213 C309.857333,39.0277 309.9,38.6911 309.928,38.3115 C309.964,37.9247667 309.982,37.5273 309.982,37.1191 C309.982,34.0969667 309.122667,31.6692333 307.404,29.8359 C305.685333,28.0025667 303.286333,27.0859 300.207,27.0859 C298.301667,27.0859 296.518333,27.5335 294.857,28.4287 C293.203,29.3239 291.864,30.6094 290.84,32.2852 C289.815333,33.9538 289.303,35.9482667 289.303,38.2686 C289.303,40.639 289.815333,42.6692667 290.84,44.3594 C291.864,46.0423333 293.249667,47.3242333 294.997,48.2051 Z M346.293,48.8066 C347.395667,49.2864667 348.609333,49.5264 349.934,49.5264 C351.46,49.5264 352.953333,49.1826333 354.414,48.4951 C355.882,47.8076333 357.203333,47.0091333 358.378,46.0996 L358.507,46.0996 L358.818,49 L361.762,49 L361.762,35.8838 C361.762,33.2197333 361.049333,31.0892 359.624,29.4922 C358.206,27.888 356.032333,27.0859 353.103,27.0859 C351.219667,27.0859 349.433,27.4260667 347.743,28.1064 C346.060333,28.7796 344.678333,29.4671 343.597,30.1689 L345.004,32.6289 C345.999333,32.0130333 347.148667,31.4365333 348.452,30.8994 C349.762667,30.3551333 351.105333,30.083 352.48,30.083 C353.862667,30.083 354.962,30.3336667 355.778,30.835 C356.602,31.3291333 357.196333,31.9808 357.561,32.79 C357.926333,33.5921333 358.127,34.4766 358.163,35.4434 C354.496333,35.737 351.517,36.2096333 349.225,36.8613 C346.941,37.5058333 345.276,38.3652333 344.23,39.4395 C343.192,40.5065 342.673,41.8456667 342.673,43.457 C342.673,44.7174667 343.002333,45.8024333 343.661,46.7119 C344.319667,47.6214333 345.197,48.3196667 346.293,48.8066 Z M368.063,27.6123 L368.063,49 L371.662,49 L371.662,33.5098 C372.191333,32.3997333 372.728333,31.5725667 373.273,31.0283 C373.817,30.4840333 374.454333,30.2119 375.185,30.2119 C375.979667,30.2119 376.545333,30.527 376.882,31.1572 C377.218667,31.7874 377.387,32.7184 377.387,33.9502 L377.387,49 L380.728,49 L380.728,33.5098 C381.315333,32.3997333 381.849,31.5725667 382.329,31.0283 C382.815667,30.4840333 383.427667,30.2119 384.165,30.2119 C385.691,30.2119 386.454,31.458 386.454,33.9502 L386.454,49 L390.063,49 L390.063,33.6924 C390.063,31.5511333 389.644,29.9147333 388.806,28.7832 C387.968,27.6516667 386.800667,27.0859 385.304,27.0859 C384.072,27.0859 383.080333,27.4189333 382.329,28.085 C381.583667,28.7438 380.903333,29.6425333 380.288,30.7812 C379.672,28.3176667 378.322,27.0859 376.238,27.0859 C375.006,27.0859 374.024667,27.3938667 373.294,28.0098 C372.564,28.6256667 371.919667,29.4313333 371.361,30.4268 L371.275,30.4268 L370.963,27.6123 L368.063,27.6123 Z M395.999,27.6123 L395.999,58.0234 L399.608,58.0234 L399.608,50.8047 L399.426,46.7549 L399.565,46.7549 C400.503667,47.6357667 401.549333,48.3196667 402.702,48.8066 C403.862,49.2864667 404.943333,49.5264 405.946,49.5264 C407.672,49.5264 409.269,49.0716333 410.737,48.1621 C412.205,47.2526333 413.394,45.9349333 414.304,44.209 C415.213333,42.4759333 415.668,40.4062667 415.668,38 C415.668,34.6842667 414.912333,32.0381 413.401,30.0615 C411.890333,28.0777667 409.699,27.0859 406.827,27.0859 C405.502333,27.0859 404.188333,27.3938667 402.885,28.0098 C401.581667,28.6256667 400.428667,29.4026667 399.426,30.3408 L399.297,30.3408 L398.985,27.6123 L395.999,27.6123 Z M453.3966,48.2051 C455.144,49.0859667 457.088333,49.5264 459.2296,49.5264 C460.955533,49.5264 462.498833,49.2793333 463.8595,48.7852 C465.227367,48.2838667 466.441233,47.6823 467.5011,46.9805 L466.1798,44.5957 C465.213,45.2115667 464.206833,45.7057 463.1613,46.0781 C462.1229,46.4433667 460.959167,46.626 459.6701,46.626 C457.4357,46.626 455.548633,46.0101 454.0089,44.7783 C452.469233,43.5465667 451.581233,41.7275667 451.3449,39.3213 L468.1994,39.3213 C468.256667,39.0277 468.299633,38.6911 468.3283,38.3115 C468.3641,37.9247667 468.382,37.5273 468.382,37.1191 C468.382,34.0969667 467.522633,31.6692333 465.8039,29.8359 C464.0851,28.0025667 461.686,27.0859 458.6066,27.0859 C456.701667,27.0859 454.918467,27.5335 453.257,28.4287 C451.602667,29.3239 450.263467,30.6094 449.2394,32.2852 C448.215133,33.9538 447.703,35.9482667 447.703,38.2686 C447.703,40.639 448.215133,42.6692667 449.2394,44.3594 C450.263467,46.0423333 451.6492,47.3242333 453.3966,48.2051 Z M506.7444,48.2051 C508.506133,49.0859667 510.5006,49.5264 512.7278,49.5264 C514.310467,49.5264 515.8287,49.2327667 517.2825,48.6455 C518.7363,48.0582333 520.050433,47.2382333 521.2249,46.1855 L519.5921,43.8545 C518.711233,44.5849667 517.719367,45.2151667 516.6165,45.7451 C515.520767,46.2750333 514.314067,46.54 512.9964,46.54 C511.349267,46.54 509.9098,46.1962667 508.678,45.5088 C507.4462,44.8141333 506.486567,43.8509 505.7991,42.6191 C505.111567,41.3873667 504.7678,39.9658333 504.7678,38.3545 C504.7678,36.7073667 505.118733,35.2607333 505.8206,34.0146 C506.5224,32.7685333 507.496333,31.8017667 508.7424,31.1143 C509.995667,30.4267667 511.4423,30.083 513.0823,30.083 C514.1995,30.083 515.234333,30.305 516.1868,30.749 C517.139267,31.1858667 518.055933,31.7838667 518.9368,32.543 L520.7415,30.2119 C519.860633,29.3597 518.772067,28.6256667 517.4758,28.0098 C516.1868,27.3938667 514.679333,27.0859 512.9534,27.0859 C510.812133,27.0859 508.832,27.5263333 507.013,28.4072 C505.193933,29.2880667 503.740133,30.5664 502.6516,32.2422 C501.570267,33.9108 501.0296,35.9482333 501.0296,38.3545 C501.0296,40.6963 501.541633,42.7051 502.5657,44.3809 C503.589767,46.0495 504.982667,47.3242333 506.7444,48.2051 Z M531.8875,48.2051 C533.4917,49.0859667 535.231933,49.5264 537.1082,49.5264 C538.984527,49.5264 540.72119,49.0859667 542.31819,48.2051 C543.915197,47.3242333 545.20426,46.0495 546.18538,44.3809 C547.17366,42.7051 547.6678,40.6963 547.6678,38.3545 C547.6678,35.9482333 547.17366,33.9108 546.18538,32.2422 C545.20426,30.5664 543.915197,29.2880667 542.31819,28.4072 C540.72119,27.5263333 538.984527,27.0859 537.1082,27.0859 C535.231933,27.0859 533.4917,27.5263333 531.8875,28.4072 C530.2905,29.2880667 529.001433,30.5664 528.0203,32.2422 C527.039233,33.9108 526.5487,35.9482333 526.5487,38.3545 C526.5487,40.6963 527.039233,42.7051 528.0203,44.3809 C529.001433,46.0495 530.2905,47.3242333 531.8875,48.2051 Z M552.86269,27.6123 L552.86269,49 L556.46132,49 L556.46132,33.5098 C556.991267,32.3997333 557.528377,31.5725667 558.07265,31.0283 C558.616923,30.4840333 559.254307,30.2119 559.9848,30.2119 C560.779667,30.2119 561.3454,30.527 561.682,31.1572 C562.0186,31.7874 562.1869,32.7184 562.1869,33.9502 L562.1869,49 L565.5277,49 L565.5277,33.5098 C566.114967,32.3997333 566.6485,31.5725667 567.1283,31.0283 C567.6153,30.4840333 568.2276,30.2119 568.9652,30.2119 C570.4906,30.2119 571.2533,31.458 571.2533,33.9502 L571.2533,49 L574.86269,49 L574.86269,33.6924 C574.86269,31.5511333 574.443767,29.9147333 573.6059,28.7832 C572.767967,27.6516667 571.600633,27.0859 570.1039,27.0859 C568.8721,27.0859 567.880233,27.4189333 567.1283,28.085 C566.3835,28.7438 565.703167,29.6425333 565.0873,30.7812 C564.471433,28.3176667 563.1215,27.0859 561.0375,27.0859 C559.8057,27.0859 558.824577,27.3938667 558.09413,28.0098 C557.363663,28.6256667 556.719133,29.4313333 556.16054,30.4268 L556.0746,30.4268 L555.76308,27.6123 L552.86269,27.6123 Z M181.061,27.6123 L185.723,49 L190.385,49 L192.759,38.7949 C193.110333,37.2981667 193.465,35.1855333 193.823,32.457 L193.995,32.457 C194.345667,35.1855333 194.696333,37.2981667 195.047,38.7949 L197.518,49 L202.18,49 L206.756,27.6123 L203.416,27.6123 L200.859,40.0195 C200.651,41.0221 200.479,41.9996333 200.343,42.9521 C200.214333,43.9046333 200.064,44.8929333 199.892,45.917 L199.71,45.917 C199.595333,44.8929333 199.405333,43.9046333 199.14,42.9521 C198.875333,41.9996333 198.628333,41.0221 198.399,40.0195 L195.842,28.9336 L192.233,28.9336 L189.59,40.0195 C189.361333,41.0221 189.136,41.9996333 188.914,42.9521 C188.692,43.9046333 188.509333,44.8929333 188.366,45.917 L188.183,45.917 C188.068333,44.8929333 187.928667,43.9046333 187.764,42.9521 C187.606667,41.9996333 187.424,41.0221 187.216,40.0195 L184.67,27.6123 L181.061,27.6123 Z M207.461,27.6123 L212.123,49 L216.785,49 L219.159,38.7949 C219.510333,37.2981667 219.865,35.1855333 220.223,32.457 L220.395,32.457 C220.745667,35.1855333 221.096333,37.2981667 221.447,38.7949 L223.918,49 L228.58,49 L233.156,27.6123 L229.816,27.6123 L227.259,40.0195 C227.051,41.0221 226.879,41.9996333 226.743,42.9521 C226.614333,43.9046333 226.464,44.8929333 226.292,45.917 L226.11,45.917 C225.995333,44.8929333 225.805333,43.9046333 225.54,42.9521 C225.275333,41.9996333 225.028333,41.0221 224.799,40.0195 L222.242,28.9336 L218.633,28.9336 L215.99,40.0195 C215.761333,41.0221 215.536,41.9996333 215.314,42.9521 C215.092,43.9046333 214.909333,44.8929333 214.766,45.917 L214.583,45.917 C214.468333,44.8929333 214.328667,43.9046333 214.164,42.9521 C214.006667,41.9996333 213.824,41.0221 213.616,40.0195 L211.07,27.6123 L207.461,27.6123 Z M233.861,27.6123 L238.523,49 L243.185,49 L245.559,38.7949 C245.910333,37.2981667 246.265,35.1855333 246.623,32.457 L246.795,32.457 C247.145667,35.1855333 247.496333,37.2981667 247.847,38.7949 L250.318,49 L254.98,49 L259.556,27.6123 L256.216,27.6123 L253.659,40.0195 C253.451,41.0221 253.279,41.9996333 253.143,42.9521 C253.014333,43.9046333 252.864,44.8929333 252.692,45.917 L252.509,45.917 C252.395,44.8929333 252.205333,43.9046333 251.94,42.9521 C251.675333,41.9996333 251.428333,41.0221 251.199,40.0195 L248.642,28.9336 L245.033,28.9336 L242.39,40.0195 C242.161333,41.0221 241.936,41.9996333 241.714,42.9521 C241.492,43.9046333 241.309333,44.8929333 241.166,45.917 L240.983,45.917 C240.868333,44.8929333 240.728667,43.9046333 240.564,42.9521 C240.406667,41.9996333 240.224,41.0221 240.016,40.0195 L237.47,27.6123 L233.861,27.6123 Z M323.663,37.9141 L315.521,49 L319.399,49 L322.911,44.0693 C323.355,43.3961667 323.795667,42.7445 324.233,42.1143 C324.677,41.4840333 325.117333,40.8466333 325.554,40.2021 L325.726,40.2021 C326.198667,40.8180333 326.675,41.4625667 327.155,42.1357 C327.641667,42.8089 328.107,43.4534333 328.551,44.0693 L332.289,49 L336.243,49 L328.068,38.2148 L335.673,27.6123 L331.849,27.6123 L328.637,32.2314 C328.257667,32.8186667 327.860333,33.4381333 327.445,34.0898 C327.036333,34.7343333 326.624333,35.3466667 326.209,35.9268 L326.037,35.9268 C325.600333,35.3466667 325.167333,34.7415 324.738,34.1113 C324.315333,33.4739667 323.914333,32.8795667 323.535,32.3281 L320.14,27.6123 L316.133,27.6123 L323.663,37.9141 Z M295.588,31.6406 C296.97,30.5091333 298.541667,29.9434 300.303,29.9434 C302.115,29.9434 303.594,30.4876667 304.74,31.5762 C305.886,32.6647333 306.530667,34.3082667 306.674,36.5068 L293.042,36.5068 C293.364,34.3942 294.212667,32.7721333 295.588,31.6406 Z M453.9874,31.6406 C455.3696,30.5091333 456.941567,29.9434 458.7033,29.9434 C460.5151,29.9434 461.993933,30.4876667 463.1398,31.5762 C464.2856,32.6647333 464.930133,34.3082667 465.0734,36.5068 L451.4415,36.5068 C451.763767,34.3942 452.6124,32.7721333 453.9874,31.6406 Z M542.06038,44.2734 C540.814287,45.7844667 539.16356,46.54 537.1082,46.54 C535.052867,46.54 533.402167,45.7844667 532.1561,44.2734 C530.909967,42.7623333 530.2869,40.7893667 530.2869,38.3545 C530.2869,35.8909667 530.909967,33.8965 532.1561,32.3711 C533.402167,30.8457 535.052867,30.083 537.1082,30.083 C539.16356,30.083 540.814287,30.8457 542.06038,32.3711 C543.306473,33.8965 543.92952,35.8909667 543.92952,38.3545 C543.92952,40.7893667 543.306473,42.7623333 542.06038,44.2734 Z M93.261,44.2305 C92.015,45.7415667 90.436,46.4971 88.524,46.4971 C87.7933333,46.4971 86.9123333,46.3073 85.881,45.9277 C84.857,45.5410333 83.833,44.8929333 82.809,43.9834 L82.809,33.3379 C83.919,32.2207 85.0076667,31.4078667 86.075,30.8994 C87.149,30.3838 88.1586667,30.126 89.104,30.126 C91.2453333,30.126 92.785,30.8528667 93.723,32.3066 C94.661,33.7532667 95.13,35.6510667 95.13,38 C95.13,40.6426 94.507,42.7194333 93.261,44.2305 Z M410.061,44.2305 C408.814333,45.7415667 407.235,46.4971 405.323,46.4971 C404.593,46.4971 403.712333,46.3073 402.681,45.9277 C401.657,45.5410333 400.632667,44.8929333 399.608,43.9834 L399.608,33.3379 C400.718,32.2207 401.806667,31.4078667 402.874,30.8994 C403.948,30.3838 404.957667,30.126 405.903,30.126 C408.044333,30.126 409.584,30.8528667 410.522,32.3066 C411.460667,33.7532667 411.93,35.6510667 411.93,38 C411.93,40.6426 411.307,42.7194333 410.061,44.2305 Z M640.7852,36.7217 C641.329467,37.2516333 641.970433,37.5166 642.7081,37.5166 C643.438567,37.5166 644.075933,37.2516333 644.6202,36.7217 C645.164467,36.1917667 645.4366,35.4756 645.4366,34.5732 C645.4366,33.6637333 645.164467,32.9511667 644.6202,32.4355 C644.075933,31.9199 643.438567,31.6621 642.7081,31.6621 C641.970433,31.6621 641.329467,31.9199 640.7852,32.4355 C640.248133,32.9511667 639.9796,33.6637333 639.9796,34.5732 C639.9796,35.4756 640.248133,36.1917667 640.7852,36.7217 Z M621.2925,45.4551 C620.168167,46.3789 618.564,46.8408 616.48,46.8408 C614.338733,46.8408 612.623567,46.3359333 611.3345,45.3262 C610.045433,44.3164 609.4009,43.0345 609.4009,41.4805 C609.4009,40.0697 609.8628,38.8809 610.7866,37.9141 C611.710467,36.9473 612.845567,36.0950667 614.1919,35.3574 C615.839033,35.916 617.328633,36.4459667 618.6607,36.9473 C619.9927,37.4414333 621.045433,38.0644667 621.8189,38.8164 C622.5995,39.5612 622.9898,40.5960333 622.9898,41.9209 C622.9898,43.3531667 622.424033,44.5312333 621.2925,45.4551 Z M354.532,45.7881 C353.314667,46.3467 352.104333,46.626 350.901,46.626 C349.669667,46.626 348.574,46.3538667 347.614,45.8096 C346.661333,45.2653333 346.185,44.3916333 346.185,43.1885 C346.185,42.2503 346.543333,41.4231333 347.26,40.707 C347.983333,39.9908667 349.218667,39.3893 350.966,38.9023 C352.713333,38.4153667 355.112333,38.0573 358.163,37.8281 L358.163,43.457 C356.959667,44.4524667 355.749333,45.2295 354.532,45.7881 Z M112.174,48.4951 C112.868667,49.1826333 113.713667,49.5264 114.709,49.5264 C115.704333,49.5264 116.545667,49.1826333 117.233,48.4951 C117.927667,47.8076333 118.275,46.9196333 118.275,45.8311 C118.275,44.7139 117.927667,43.8115333 117.233,43.124 C116.545667,42.4365333 115.704333,42.0928 114.709,42.0928 C113.713667,42.0928 112.868667,42.4365333 112.174,43.124 C111.486667,43.8115333 111.143,44.7139 111.143,45.8311 C111.143,46.9196333 111.486667,47.8076333 112.174,48.4951 Z M270.573,48.4951 C271.267667,49.1826333 272.113,49.5264 273.109,49.5264 C274.104333,49.5264 274.945667,49.1826333 275.633,48.4951 C276.327667,47.8076333 276.675,46.9196333 276.675,45.8311 C276.675,44.7139 276.327667,43.8115333 275.633,43.124 C274.945667,42.4365333 274.104333,42.0928 273.109,42.0928 C272.113,42.0928 271.267667,42.4365333 270.573,43.124 C269.885667,43.8115333 269.542,44.7139 269.542,45.8311 C269.542,46.9196333 269.885667,47.8076333 270.573,48.4951 Z M481.7731,48.4951 C482.467767,49.1826333 483.312833,49.5264 484.3083,49.5264 C485.303767,49.5264 486.145233,49.1826333 486.8327,48.4951 C487.527367,47.8076333 487.8747,46.9196333 487.8747,45.8311 C487.8747,44.7139 487.527367,43.8115333 486.8327,43.124 C486.145233,42.4365333 485.303767,42.0928 484.3083,42.0928 C483.312833,42.0928 482.467767,42.4365333 481.7731,43.124 C481.085633,43.8115333 480.7419,44.7139 480.7419,45.8311 C480.7419,46.9196333 481.085633,47.8076333 481.7731,48.4951 Z M587.373,48.4951 C588.067667,49.1826333 588.912733,49.5264 589.9082,49.5264 C590.9036,49.5264 591.745067,49.1826333 592.4326,48.4951 C593.127267,47.8076333 593.4746,46.9196333 593.4746,45.8311 C593.4746,44.7139 593.127267,43.8115333 592.4326,43.124 C591.745067,42.4365333 590.9036,42.0928 589.9082,42.0928 C588.912733,42.0928 588.067667,42.4365333 587.373,43.124 C586.685533,43.8115333 586.3418,44.7139 586.3418,45.8311 C586.3418,46.9196333 586.685533,47.8076333 587.373,48.4951 Z"/></g></g><rect width="100" height="200" fill="url(#a)" fill-rule="nonzero" transform="matrix(-1 0 0 1 100 0)"/></g></svg>