<svg xmlns="http://www.w3.org/2000/svg" width="800" height="150" viewBox="0 0 800 150"><defs><linearGradient id="a" x1="100%" x2="0%" y1="50%" y2="50%"><stop offset="0%" stop-color="#FFF"/><stop offset="100%" stop-color="#FFF" stop-opacity="0"/></linearGradient></defs><g fill="none" fill-rule="evenodd"><rect width="800" height="150" fill="#FFF"/><g transform="translate(10 -41)"><g transform="translate(0 51.05)"><path fill="#000" fill-rule="nonzero" d="M12.06.63C12.84 2.1 13.77 4.02 14.13 5.25L15.6 4.62C15.15 3.39 14.25 1.5 13.41.06L12.06.63ZM.72 5.55.72 6.96 9.27 6.96C8.88 14.13 8.01 22.5 0 26.34.36 26.61.84 27.09 1.08 27.45 6.9 24.54 9.12 19.38 10.11 13.89L21.57 13.89C21.03 21.54 20.4 24.57 19.5 25.41 19.14 25.68 18.78 25.74 18.09 25.74 17.34 25.74 15.24 25.71 13.02 25.53 13.32 25.92 13.5 26.52 13.53 26.94 15.57 27.09 17.52 27.15 18.51 27.09 19.56 27.06 20.16 26.88 20.7 26.28 21.84 25.17 22.47 21.93 23.1 13.26 23.13 13.02 23.16 12.45 23.16 12.45L10.32 12.45C10.59 10.62 10.71 8.76 10.83 6.96L26.25 6.96 26.25 5.55.72 5.55ZM30.09 18.33 30.09 19.65 41.19 19.65C38.49 22.32 33.84 24.72 29.64 25.74 29.97 26.01 30.39 26.55 30.6 26.91 34.98 25.71 39.9 22.92 42.63 19.8L42.63 27.39 44.07 27.39 44.07 19.65C46.83 22.89 51.93 25.74 56.4 27 56.64 26.64 57.06 26.1 57.39 25.8 53.16 24.75 48.42 22.41 45.69 19.65L56.76 19.65 56.76 18.33 44.07 18.33 44.07 15.6 42.63 15.6 42.63 18.33 30.09 18.33ZM41.79.48C42.24 1.08 42.78 1.86 43.17 2.52L30.96 2.52 30.96 6.69 32.37 6.69 32.37 3.81 54.63 3.81 54.63 6.69 56.04 6.69 56.04 2.52 44.67 2.52C44.28 1.8 43.59.75 42.96 0L41.79.48ZM49.05 8.79C47.91 10.44 46.26 11.73 44.04 12.69 41.7 12.24 39.27 11.82 36.81 11.43 37.62 10.68 38.55 9.75 39.45 8.79L49.05 8.79ZM34.44 12.21C37.02 12.6 39.51 13.05 41.88 13.5 38.82 14.46 34.95 15 30.27 15.24 30.54 15.57 30.75 16.11 30.87 16.53 36.36 16.14 40.83 15.39 44.28 13.98 48.33 14.85 51.84 15.75 54.39 16.65L55.68 15.6C53.16 14.76 49.83 13.92 46.08 13.11 48.15 12 49.68 10.59 50.7 8.79L56.49 8.79 56.49 7.53 40.59 7.53C41.31 6.69 41.97 5.85 42.54 5.04L41.25 4.62C40.65 5.52 39.87 6.54 39.03 7.53L30.48 7.53 30.48 8.79 37.89 8.79C36.75 10.05 35.52 11.28 34.44 12.21Z" transform="translate(62.59 103.83)"/><path fill="#6DD400" d="M104.308344,3.10752092e-16 C106.982901,-1.80555915e-16 107.952759,0.278476833 108.930537,0.801398111 C109.908315,1.32431939 110.675681,2.09168511 111.198602,3.06946289 C111.721523,4.04724067 112,5.01709938 112,7.6916556 L112,66.3083444 C112,68.9829006 111.721523,69.9527593 111.198602,70.9305371 C110.675681,71.9083149 109.908315,72.6756806 108.930537,73.1986019 C107.952759,73.7215232 106.982901,74 104.308344,74 L16,74 L16,115 L31.999,115 L32,103 L56,118 L32,133 L31.999,121 L10,121 L10,74 L7.6916556,74 C5.01709938,74 4.04724067,73.7215232 3.06946289,73.1986019 C2.09168511,72.6756806 1.32431939,71.9083149 0.801398111,70.9305371 C0.278476833,69.9527593 1.2037061e-16,68.9829006 -2.07168062e-16,66.3083444 L2.07168062e-16,7.6916556 C-1.2037061e-16,5.01709938 0.278476833,4.04724067 0.801398111,3.06946289 C1.32431939,2.09168511 2.09168511,1.32431939 3.06946289,0.801398111 C4.04724067,0.278476833 5.01709938,1.80555915e-16 7.6916556,-3.10752092e-16 L104.308344,3.10752092e-16 Z" opacity=".5"/></g><g fill="#000" fill-rule="nonzero" transform="translate(7.048 63.53)"><path d="M0 36.52 0 4.4 3.96 4.4 3.96 12.32 3.96 16.94 4.796 16.94 3.96 17.864C3.96 15.9573333 4.532 14.4833333 5.676 13.442 6.82 12.4006667 8.404 11.88 10.428 11.88 12.8626667 11.88 14.7986667 12.628 16.236 14.124 17.6733333 15.62 18.392 17.6586667 18.392 20.24L18.392 36.52 14.432 36.52 14.432 20.68C14.432 18.9493333 13.97 17.6073333 13.046 16.654 12.122 15.7006667 10.868 15.224 9.284 15.224 7.64133333 15.224 6.34333333 15.7373333 5.39 16.764 4.43666667 17.7906667 3.96 19.2426667 3.96 21.12L3.96 36.52 0 36.52ZM38.192 36.52C36.1973333 36.52 34.5986667 35.9406667 33.396 34.782 32.1933333 33.6233333 31.592 32.076 31.592 30.14L31.592 15.928 24.772 15.928 24.772 12.32 31.592 12.32 31.592 5.5 35.552 5.5 35.552 12.32 45.232 12.32 45.232 15.928 35.552 15.928 35.552 30.14C35.552 30.9613333 35.794 31.6286667 36.278 32.142 36.762 32.6553333 37.4 32.912 38.192 32.912L44.792 32.912 44.792 36.52 38.192 36.52ZM64.592 36.52C62.5973333 36.52 60.9986667 35.9406667 59.796 34.782 58.5933333 33.6233333 57.992 32.076 57.992 30.14L57.992 15.928 51.172 15.928 51.172 12.32 57.992 12.32 57.992 5.5 61.952 5.5 61.952 12.32 71.632 12.32 71.632 15.928 61.952 15.928 61.952 30.14C61.952 30.9613333 62.194 31.6286667 62.678 32.142 63.162 32.6553333 63.8 32.912 64.592 32.912L71.192 32.912 71.192 36.52 64.592 36.52ZM79.244 44.44 79.244 12.32 83.204 12.32 83.204 16.94 83.996 16.94 83.204 17.864C83.204 16.016 83.8126667 14.5566667 85.03 13.486 86.2473333 12.4153333 87.8533333 11.88 89.848 11.88 92.2826667 11.88 94.226 12.6793333 95.678 14.278 97.13 15.8766667 97.856 18.0693333 97.856 20.856L97.856 27.94C97.856 29.788 97.526 31.3866667 96.866 32.736 96.206 34.0853333 95.282 35.1266667 94.094 35.86 92.906 36.5933333 91.4906667 36.96 89.848 36.96 87.8826667 36.96 86.284 36.4173333 85.052 35.332 83.82 34.2466667 83.204 32.7946667 83.204 30.976L83.996 31.9 83.116 31.9 83.204 37.4 83.204 44.44 79.244 44.44ZM88.528 33.528C90.2 33.528 91.5126667 33.0293333 92.466 32.032 93.4193333 31.0346667 93.896 29.5973333 93.896 27.72L93.896 21.12C93.896 19.2426667 93.4193333 17.8053333 92.466 16.808 91.5126667 15.8106667 90.2 15.312 88.528 15.312 86.9146667 15.312 85.624 15.8253333 84.656 16.852 83.688 17.8786667 83.204 19.3013333 83.204 21.12L83.204 27.72C83.204 29.5386667 83.688 30.9613333 84.656 31.988 85.624 33.0146667 86.9146667 33.528 88.528 33.528ZM114.752 18.48C113.666667 18.48 112.786667 18.1793333 112.112 17.578 111.437333 16.9766667 111.1 16.1773333 111.1 15.18 111.1 14.1826667 111.437333 13.3833333 112.112 12.782 112.786667 12.1806667 113.666667 11.88 114.752 11.88 115.866667 11.88 116.754 12.1806667 117.414 12.782 118.074 13.3833333 118.404 14.1826667 118.404 15.18 118.404 16.1773333 118.074 16.9766667 117.414 17.578 116.754 18.1793333 115.866667 18.48 114.752 18.48ZM114.752 36.96C113.666667 36.96 112.786667 36.6593333 112.112 36.058 111.437333 35.4566667 111.1 34.6573333 111.1 33.66 111.1 32.6626667 111.437333 31.8633333 112.112 31.262 112.786667 30.6606667 113.666667 30.36 114.752 30.36 115.866667 30.36 116.754 30.6606667 117.414 31.262 118.074 31.8633333 118.404 32.6626667 118.404 33.66 118.404 34.6573333 118.074 35.4566667 117.414 36.058 116.754 36.6593333 115.866667 36.96 114.752 36.96ZM154.352 41.36 169.972 0 174.152 0 158.532 41.36 154.352 41.36ZM134.552 41.36 150.172 0 154.352 0 138.732 41.36 134.552 41.36Z"/><g opacity=".2" transform="translate(182.292)"><path d="M3.872 36.52 0 12.32 3.432 12.32 5.852 29.48C5.94 30.1253333 6.028 30.822 6.116 31.57 6.204 32.318 6.26266667 32.9413333 6.292 33.44L6.468 33.44C6.52666667 32.9413333 6.6 32.318 6.688 31.57 6.776 30.822 6.87866667 30.1253333 6.996 29.48L9.68 12.32 13.64 12.32 16.324 29.48C16.4413333 30.1253333 16.5513333 30.822 16.654 31.57 16.7566667 32.318 16.8226667 32.9413333 16.852 33.44L17.028 33.44C17.0866667 32.9413333 17.1673333 32.318 17.27 31.57 17.3726667 30.822 17.468 30.1253333 17.556 29.48L20.064 12.32 23.32 12.32 19.272 36.52 14.916 36.52 12.32 19.8C12.2026667 18.9786667 12.0853333 18.1573333 11.968 17.336 11.8506667 16.5146667 11.7626667 15.8693333 11.704 15.4L11.528 15.4C11.4986667 15.8693333 11.4326667 16.5146667 11.33 17.336 11.2273333 18.1573333 11.1026667 18.9786667 10.956 19.8L8.228 36.52 3.872 36.52ZM30.272 36.52 26.4 12.32 29.832 12.32 32.252 29.48C32.34 30.1253333 32.428 30.822 32.516 31.57 32.604 32.318 32.6626667 32.9413333 32.692 33.44L32.868 33.44C32.9266667 32.9413333 33 32.318 33.088 31.57 33.176 30.822 33.2786667 30.1253333 33.396 29.48L36.08 12.32 40.04 12.32 42.724 29.48C42.8413333 30.1253333 42.9513333 30.822 43.054 31.57 43.1566667 32.318 43.2226667 32.9413333 43.252 33.44L43.428 33.44C43.4866667 32.9413333 43.5673333 32.318 43.67 31.57 43.7726667 30.822 43.868 30.1253333 43.956 29.48L46.464 12.32 49.72 12.32 45.672 36.52 41.316 36.52 38.72 19.8C38.6026667 18.9786667 38.4853333 18.1573333 38.368 17.336 38.2506667 16.5146667 38.1626667 15.8693333 38.104 15.4L37.928 15.4C37.8986667 15.8693333 37.8326667 16.5146667 37.73 17.336 37.6273333 18.1573333 37.5026667 18.9786667 37.356 19.8L34.628 36.52 30.272 36.52ZM56.672 36.52 52.8 12.32 56.232 12.32 58.652 29.48C58.74 30.1253333 58.828 30.822 58.916 31.57 59.004 32.318 59.0626667 32.9413333 59.092 33.44L59.268 33.44C59.3266667 32.9413333 59.4 32.318 59.488 31.57 59.576 30.822 59.6786667 30.1253333 59.796 29.48L62.48 12.32 66.44 12.32 69.124 29.48C69.2413333 30.1253333 69.3513333 30.822 69.454 31.57 69.5566667 32.318 69.6226667 32.9413333 69.652 33.44L69.828 33.44C69.8866667 32.9413333 69.9673333 32.318 70.07 31.57 70.1726667 30.822 70.268 30.1253333 70.356 29.48L72.864 12.32 76.12 12.32 72.072 36.52 67.716 36.52 65.12 19.8C65.0026667 18.9786667 64.8853333 18.1573333 64.768 17.336 64.6506667 16.5146667 64.5626667 15.8693333 64.504 15.4L64.328 15.4C64.2986667 15.8693333 64.2326667 16.5146667 64.13 17.336 64.0273333 18.1573333 63.9026667 18.9786667 63.756 19.8L61.028 36.52 56.672 36.52ZM90.86 36.96C89.7453333 36.96 88.858 36.6373333 88.198 35.992 87.538 35.3466667 87.208 34.4813333 87.208 33.396 87.208 32.252 87.538 31.3426667 88.198 30.668 88.858 29.9933333 89.7453333 29.656 90.86 29.656 91.9746667 29.656 92.862 29.9933333 93.522 30.668 94.182 31.3426667 94.512 32.252 94.512 33.396 94.512 34.4813333 94.182 35.3466667 93.522 35.992 92.862 36.6373333 91.9746667 36.96 90.86 36.96ZM117.26 36.96C115.353333 36.96 113.688667 36.5786667 112.266 35.816 110.843333 35.0533333 109.743333 33.9753333 108.966 32.582 108.188667 31.1886667 107.8 29.568 107.8 27.72L107.8 21.12C107.8 19.2426667 108.188667 17.6146667 108.966 16.236 109.743333 14.8573333 110.843333 13.7866667 112.266 13.024 113.688667 12.2613333 115.353333 11.88 117.26 11.88 119.166667 11.88 120.831333 12.2613333 122.254 13.024 123.676667 13.7866667 124.776667 14.8573333 125.554 16.236 126.331333 17.6146667 126.72 19.2426667 126.72 21.12L126.72 25.388 111.672 25.388 111.672 27.72C111.672 29.6266667 112.156 31.086 113.124 32.098 114.092 33.11 115.470667 33.616 117.26 33.616 118.785333 33.616 120.017333 33.3446667 120.956 32.802 121.894667 32.2593333 122.466667 31.4453333 122.672 30.36L126.632 30.36C126.368 32.384 125.378 33.99 123.662 35.178 121.946 36.366 119.812 36.96 117.26 36.96ZM122.848 22.748 122.848 21.12C122.848 19.2133333 122.371333 17.7466667 121.418 16.72 120.464667 15.6933333 119.078667 15.18 117.26 15.18 115.470667 15.18 114.092 15.6933333 113.124 16.72 112.156 17.7466667 111.672 19.2133333 111.672 21.12L111.672 22.396 123.156 22.396 122.848 22.748ZM132.66 36.52 141.24 24.068 133.188 12.32 137.852 12.32 142.648 19.8C142.853333 20.1226667 143.051333 20.4746667 143.242 20.856 143.432667 21.2373333 143.586667 21.5453333 143.704 21.78 143.792 21.5453333 143.931333 21.2373333 144.122 20.856 144.312667 20.4746667 144.510667 20.1226667 144.716 19.8L149.556 12.32 154.176 12.32 146.124 24.112 154.66 36.52 149.996 36.52 144.804 28.6C144.598667 28.2773333 144.400667 27.9033333 144.21 27.478 144.019333 27.0526667 143.850667 26.708 143.704 26.444 143.586667 26.708 143.418 27.0526667 143.198 27.478 142.978 27.9033333 142.750667 28.2773333 142.516 28.6L137.28 36.52 132.66 36.52ZM167.948 36.96C165.396 36.96 163.386667 36.3073333 161.92 35.002 160.453333 33.6966667 159.72 31.9293333 159.72 29.7 159.72 27.4413333 160.453333 25.6666667 161.92 24.376 163.386667 23.0853333 165.366667 22.44 167.86 22.44L175.34 22.44 175.34 20.02C175.34 18.5533333 174.892667 17.4093333 173.998 16.588 173.103333 15.7666667 171.864 15.356 170.28 15.356 168.872 15.356 167.684 15.664 166.716 16.28 165.748 16.896 165.146667 17.7026667 164.912 18.7L160.952 18.7C161.098667 17.3506667 161.59 16.1626667 162.426 15.136 163.262 14.1093333 164.362 13.31 165.726 12.738 167.09 12.166 168.608 11.88 170.28 11.88 173.066667 11.88 175.266667 12.5986667 176.88 14.036 178.493333 15.4733333 179.3 17.424 179.3 19.888L179.3 36.52 175.428 36.52 175.428 31.9 174.768 31.9 175.428 31.24C175.428 33 174.746 34.3933333 173.382 35.42 172.018 36.4466667 170.206667 36.96 167.948 36.96ZM168.916 33.836C170.793333 33.836 172.333333 33.3666667 173.536 32.428 174.738667 31.4893333 175.34 30.2866667 175.34 28.82L175.34 25.388 167.948 25.388C166.628 25.388 165.586667 25.7546667 164.824 26.488 164.061333 27.2213333 163.68 28.2186667 163.68 29.48 163.68 30.8293333 164.142 31.8926667 165.066 32.67 165.99 33.4473333 167.273333 33.836 168.916 33.836ZM185.9 36.52 185.9 12.32 189.376 12.32 189.376 15.224 190.168 15.224 189.552 16.28C189.552 14.9893333 189.933333 13.9333333 190.696 13.112 191.458667 12.2906667 192.456 11.88 193.688 11.88 194.978667 11.88 196.027333 12.408 196.834 13.464 197.640667 14.52 198.044 15.8986667 198.044 17.6L196.856 15.224 198.704 15.224 197.868 16.28C197.868 14.9893333 198.256667 13.9333333 199.034 13.112 199.811333 12.2906667 200.830667 11.88 202.092 11.88 203.558667 11.88 204.746667 12.4593333 205.656 13.618 206.565333 14.7766667 207.02 16.28 207.02 18.128L207.02 36.52 203.368 36.52 203.368 18.084C203.368 17.0573333 203.140667 16.2726667 202.686 15.73 202.231333 15.1873333 201.578667 14.916 200.728 14.916 199.877333 14.916 199.217333 15.1873333 198.748 15.73 198.278667 16.2726667 198.044 17.0426667 198.044 18.04L198.044 36.52 194.876 36.52 194.876 18.084C194.876 17.0573333 194.634 16.2726667 194.15 15.73 193.666 15.1873333 192.998667 14.916 192.148 14.916 191.326667 14.916 190.688667 15.1873333 190.234 15.73 189.779333 16.2726667 189.552 17.0426667 189.552 18.04L189.552 36.52 185.9 36.52ZM213.752 44.44 213.752 12.32 217.712 12.32 217.712 16.94 218.504 16.94 217.712 17.864C217.712 16.016 218.320667 14.5566667 219.538 13.486 220.755333 12.4153333 222.361333 11.88 224.356 11.88 226.790667 11.88 228.734 12.6793333 230.186 14.278 231.638 15.8766667 232.364 18.0693333 232.364 20.856L232.364 27.94C232.364 29.788 232.034 31.3866667 231.374 32.736 230.714 34.0853333 229.79 35.1266667 228.602 35.86 227.414 36.5933333 225.998667 36.96 224.356 36.96 222.390667 36.96 220.792 36.4173333 219.56 35.332 218.328 34.2466667 217.712 32.7946667 217.712 30.976L218.504 31.9 217.624 31.9 217.712 37.4 217.712 44.44 213.752 44.44ZM223.036 33.528C224.708 33.528 226.020667 33.0293333 226.974 32.032 227.927333 31.0346667 228.404 29.5973333 228.404 27.72L228.404 21.12C228.404 19.2426667 227.927333 17.8053333 226.974 16.808 226.020667 15.8106667 224.708 15.312 223.036 15.312 221.422667 15.312 220.132 15.8253333 219.164 16.852 218.196 17.8786667 217.712 19.3013333 217.712 21.12L217.712 27.72C217.712 29.5386667 218.196 30.9613333 219.164 31.988 220.132 33.0146667 221.422667 33.528 223.036 33.528ZM252.78 36.52C251.372 36.52 250.14 36.2413333 249.084 35.684 248.028 35.1266667 247.206667 34.3346667 246.62 33.308 246.033333 32.2813333 245.74 31.0786667 245.74 29.7L245.74 8.008 237.38 8.008 237.38 4.4 249.7 4.4 249.7 29.7C249.7 30.6973333 249.978667 31.482 250.536 32.054 251.093333 32.626 251.841333 32.912 252.78 32.912L260.26 32.912 260.26 36.52 252.78 36.52ZM275.66 36.96C273.753333 36.96 272.088667 36.5786667 270.666 35.816 269.243333 35.0533333 268.143333 33.9753333 267.366 32.582 266.588667 31.1886667 266.2 29.568 266.2 27.72L266.2 21.12C266.2 19.2426667 266.588667 17.6146667 267.366 16.236 268.143333 14.8573333 269.243333 13.7866667 270.666 13.024 272.088667 12.2613333 273.753333 11.88 275.66 11.88 277.566667 11.88 279.231333 12.2613333 280.654 13.024 282.076667 13.7866667 283.176667 14.8573333 283.954 16.236 284.731333 17.6146667 285.12 19.2426667 285.12 21.12L285.12 25.388 270.072 25.388 270.072 27.72C270.072 29.6266667 270.556 31.086 271.524 32.098 272.492 33.11 273.870667 33.616 275.66 33.616 277.185333 33.616 278.417333 33.3446667 279.356 32.802 280.294667 32.2593333 280.866667 31.4453333 281.072 30.36L285.032 30.36C284.768 32.384 283.778 33.99 282.062 35.178 280.346 36.366 278.212 36.96 275.66 36.96ZM281.248 22.748 281.248 21.12C281.248 19.2133333 280.771333 17.7466667 279.818 16.72 278.864667 15.6933333 277.478667 15.18 275.66 15.18 273.870667 15.18 272.492 15.6933333 271.524 16.72 270.556 17.7466667 270.072 19.2133333 270.072 21.12L270.072 22.396 281.556 22.396 281.248 22.748ZM302.06 36.96C300.945333 36.96 300.058 36.6373333 299.398 35.992 298.738 35.3466667 298.408 34.4813333 298.408 33.396 298.408 32.252 298.738 31.3426667 299.398 30.668 300.058 29.9933333 300.945333 29.656 302.06 29.656 303.174667 29.656 304.062 29.9933333 304.722 30.668 305.382 31.3426667 305.712 32.252 305.712 33.396 305.712 34.4813333 305.382 35.3466667 304.722 35.992 304.062 36.6373333 303.174667 36.96 302.06 36.96ZM328.636 36.96C326.7 36.96 325.006 36.5933333 323.554 35.86 322.102 35.1266667 320.98 34.0633333 320.188 32.67 319.396 31.2766667 319 29.6266667 319 27.72L319 21.12C319 19.184 319.396 17.5266667 320.188 16.148 320.98 14.7693333 322.102 13.7133333 323.554 12.98 325.006 12.2466667 326.7 11.88 328.636 11.88 331.422667 11.88 333.666667 12.628 335.368 14.124 337.069333 15.62 337.964 17.6586667 338.052 20.24L334.092 20.24C334.004 18.6853333 333.483333 17.49 332.53 16.654 331.576667 15.818 330.278667 15.4 328.636 15.4 326.905333 15.4 325.526667 15.8913333 324.5 16.874 323.473333 17.8566667 322.96 19.2573333 322.96 21.076L322.96 27.72C322.96 29.5386667 323.473333 30.9466667 324.5 31.944 325.526667 32.9413333 326.905333 33.44 328.636 33.44 330.278667 33.44 331.576667 33.0146667 332.53 32.164 333.483333 31.3133333 334.004 30.1253333 334.092 28.6L338.052 28.6C337.964 31.1813333 337.069333 33.22 335.368 34.716 333.666667 36.212 331.422667 36.96 328.636 36.96ZM354.86 36.872C352.924 36.872 351.244667 36.498 349.822 35.75 348.399333 35.002 347.306667 33.9386667 346.544 32.56 345.781333 31.1813333 345.4 29.5386667 345.4 27.632L345.4 21.208C345.4 19.3013333 345.781333 17.6586667 346.544 16.28 347.306667 14.9013333 348.399333 13.838 349.822 13.09 351.244667 12.342 352.924 11.968 354.86 11.968 356.825333 11.968 358.512 12.342 359.92 13.09 361.328 13.838 362.413333 14.894 363.176 16.258 363.938667 17.622 364.32 19.2573333 364.32 21.164L364.32 27.632C364.32 29.5386667 363.938667 31.1813333 363.176 32.56 362.413333 33.9386667 361.328 35.002 359.92 35.75 358.512 36.498 356.825333 36.872 354.86 36.872ZM354.86 33.352C356.590667 33.352 357.94 32.868 358.908 31.9 359.876 30.932 360.36 29.5093333 360.36 27.632L360.36 21.208C360.36 19.3306667 359.876 17.908 358.908 16.94 357.94 15.972 356.590667 15.488 354.86 15.488 353.158667 15.488 351.816667 15.972 350.834 16.94 349.851333 17.908 349.36 19.3306667 349.36 21.208L349.36 27.632C349.36 29.5093333 349.851333 30.932 350.834 31.9 351.816667 32.868 353.158667 33.352 354.86 33.352ZM370.7 36.52 370.7 12.32 374.176 12.32 374.176 15.224 374.968 15.224 374.352 16.28C374.352 14.9893333 374.733333 13.9333333 375.496 13.112 376.258667 12.2906667 377.256 11.88 378.488 11.88 379.778667 11.88 380.827333 12.408 381.634 13.464 382.440667 14.52 382.844 15.8986667 382.844 17.6L381.656 15.224 383.504 15.224 382.668 16.28C382.668 14.9893333 383.056667 13.9333333 383.834 13.112 384.611333 12.2906667 385.630667 11.88 386.892 11.88 388.358667 11.88 389.546667 12.4593333 390.456 13.618 391.365333 14.7766667 391.82 16.28 391.82 18.128L391.82 36.52 388.168 36.52 388.168 18.084C388.168 17.0573333 387.940667 16.2726667 387.486 15.73 387.031333 15.1873333 386.378667 14.916 385.528 14.916 384.677333 14.916 384.017333 15.1873333 383.548 15.73 383.078667 16.2726667 382.844 17.0426667 382.844 18.04L382.844 36.52 379.676 36.52 379.676 18.084C379.676 17.0573333 379.434 16.2726667 378.95 15.73 378.466 15.1873333 377.798667 14.916 376.948 14.916 376.126667 14.916 375.488667 15.1873333 375.034 15.73 374.579333 16.2726667 374.352 17.0426667 374.352 18.04L374.352 36.52 370.7 36.52ZM407.66 18.48C406.574667 18.48 405.694667 18.1793333 405.02 17.578 404.345333 16.9766667 404.008 16.1773333 404.008 15.18 404.008 14.1826667 404.345333 13.3833333 405.02 12.782 405.694667 12.1806667 406.574667 11.88 407.66 11.88 408.774667 11.88 409.662 12.1806667 410.322 12.782 410.982 13.3833333 411.312 14.1826667 411.312 15.18 411.312 16.1773333 410.982 16.9766667 410.322 17.578 409.662 18.1793333 408.774667 18.48 407.66 18.48ZM407.66 36.96C406.574667 36.96 405.694667 36.6593333 405.02 36.058 404.345333 35.4566667 404.008 34.6573333 404.008 33.66 404.008 32.6626667 404.345333 31.8633333 405.02 31.262 405.694667 30.6606667 406.574667 30.36 407.66 30.36 408.774667 30.36 409.662 30.6606667 410.322 31.262 410.982 31.8633333 411.312 32.6626667 411.312 33.66 411.312 34.6573333 410.982 35.4566667 410.322 36.058 409.662 36.6593333 408.774667 36.96 407.66 36.96ZM434.06 36.96C432.006667 36.96 430.202667 36.6006667 428.648 35.882 427.093333 35.1633333 425.890667 34.166 425.04 32.89 424.189333 31.614 423.764 30.14 423.764 28.468 423.764 26.532 424.416667 24.7426667 425.722 23.1 427.027333 21.4573333 428.750667 20.2253333 430.892 19.404L435.16 17.776C436.538667 17.248 437.653333 16.4926667 438.504 15.51 439.354667 14.5273333 439.78 13.4493333 439.78 12.276 439.78 10.8386667 439.252 9.67266667 438.196 8.778 437.14 7.88333333 435.761333 7.436 434.06 7.436 432.358667 7.436 430.98 7.89066667 429.924 8.8 428.868 9.70933333 428.34 10.868 428.34 12.276 428.34 13.4786667 428.750667 14.564 429.572 15.532 430.393333 16.5 431.464 17.2333333 432.784 17.732L437.052 19.316C439.252 20.1373333 441.019333 21.3766667 442.354 23.034 443.688667 24.6913333 444.356 26.5026667 444.356 28.468 444.356 30.14 443.930667 31.614 443.08 32.89 442.229333 34.166 441.034 35.1633333 439.494 35.882 437.954 36.6006667 436.142667 36.96 434.06 36.96ZM434.06 33.44C435.996 33.44 437.550667 32.934 438.724 31.922 439.897333 30.91 440.484 29.5826667 440.484 27.94 440.484 26.6493333 440.088 25.4833333 439.296 24.442 438.504 23.4006667 437.389333 22.6013333 435.952 22.044L431.728 20.416C429.322667 19.4773333 427.511333 18.2893333 426.294 16.852 425.076667 15.4146667 424.468 13.8453333 424.468 12.144 424.468 10.5306667 424.886 9.108 425.722 7.876 426.558 6.644 427.694667 5.676 429.132 4.972 430.569333 4.268 432.212 3.916 434.06 3.916 435.908 3.916 437.558 4.268 439.01 4.972 440.462 5.676 441.598667 6.644 442.42 7.876 443.241333 9.108 443.652 10.5306667 443.652 12.144 443.652 13.816 443.036 15.3853333 441.804 16.852 440.572 18.3186667 438.724 19.5213333 436.26 20.46L432.036 22.088C430.628 22.6453333 429.542667 23.4446667 428.78 24.486 428.017333 25.5273333 427.636 26.6786667 427.636 27.94 427.636 29.5826667 428.222667 30.91 429.396 31.922 430.569333 32.934 432.124 33.44 434.06 33.44ZM460.46 36.96C458.494667 36.96 456.786 36.5713333 455.334 35.794 453.882 35.0166667 452.76 33.9166667 451.968 32.494 451.176 31.0713333 450.78 29.4066667 450.78 27.5L450.78 13.42C450.78 11.484 451.176 9.812 451.968 8.404 452.76 6.996 453.882 5.90333333 455.334 5.126 456.786 4.34866667 458.494667 3.96 460.46 3.96 462.454667 3.96 464.170667 4.34866667 465.608 5.126 467.045333 5.90333333 468.16 6.996 468.952 8.404 469.744 9.812 470.14 11.484 470.14 13.42L470.14 27.5C470.14 29.4066667 469.744 31.0713333 468.952 32.494 468.16 33.9166667 467.038 35.0166667 465.586 35.794 464.134 36.5713333 462.425333 36.96 460.46 36.96ZM460.46 33.572C462.22 33.572 463.635333 33.0073333 464.706 31.878 465.776667 30.7486667 466.312 29.2893333 466.312 27.5L466.312 13.42C466.312 11.6306667 465.776667 10.1713333 464.706 9.042 463.635333 7.91266667 462.22 7.348 460.46 7.348 458.7 7.348 457.284667 7.91266667 456.214 9.042 455.143333 10.1713333 454.608 11.6306667 454.608 13.42L454.608 27.5C454.608 29.2893333 455.143333 30.7486667 456.214 31.878 457.284667 33.0073333 458.7 33.572 460.46 33.572ZM460.46 23.056C459.668 23.056 459.03 22.8066667 458.546 22.308 458.062 21.8093333 457.82 21.1493333 457.82 20.328 457.82 19.536 458.062 18.898 458.546 18.414 459.03 17.93 459.668 17.688 460.46 17.688 461.252 17.688 461.89 17.93 462.374 18.414 462.858 18.898 463.1 19.536 463.1 20.328 463.1 21.1493333 462.858 21.8093333 462.374 22.308 461.89 22.8066667 461.252 23.056 460.46 23.056Z"/><polygon points="476.96 41.36 492.58 0 496.76 0 481.14 41.36"/><path d="M504.152 44.44 504.152 12.32 508.112 12.32 508.112 16.94 508.904 16.94 508.112 17.864C508.112 16.016 508.720667 14.5566667 509.938 13.486 511.155333 12.4153333 512.761333 11.88 514.756 11.88 517.190667 11.88 519.134 12.6793333 520.586 14.278 522.038 15.8766667 522.764 18.0693333 522.764 20.856L522.764 27.94C522.764 29.788 522.434 31.3866667 521.774 32.736 521.114 34.0853333 520.19 35.1266667 519.002 35.86 517.814 36.5933333 516.398667 36.96 514.756 36.96 512.790667 36.96 511.192 36.4173333 509.96 35.332 508.728 34.2466667 508.112 32.7946667 508.112 30.976L508.904 31.9 508.024 31.9 508.112 37.4 508.112 44.44 504.152 44.44ZM513.436 33.528C515.108 33.528 516.420667 33.0293333 517.374 32.032 518.327333 31.0346667 518.804 29.5973333 518.804 27.72L518.804 21.12C518.804 19.2426667 518.327333 17.8053333 517.374 16.808 516.420667 15.8106667 515.108 15.312 513.436 15.312 511.822667 15.312 510.532 15.8253333 509.564 16.852 508.596 17.8786667 508.112 19.3013333 508.112 21.12L508.112 27.72C508.112 29.5386667 508.596 30.9613333 509.564 31.988 510.532 33.0146667 511.822667 33.528 513.436 33.528ZM537.548 36.96C534.996 36.96 532.986667 36.3073333 531.52 35.002 530.053333 33.6966667 529.32 31.9293333 529.32 29.7 529.32 27.4413333 530.053333 25.6666667 531.52 24.376 532.986667 23.0853333 534.966667 22.44 537.46 22.44L544.94 22.44 544.94 20.02C544.94 18.5533333 544.492667 17.4093333 543.598 16.588 542.703333 15.7666667 541.464 15.356 539.88 15.356 538.472 15.356 537.284 15.664 536.316 16.28 535.348 16.896 534.746667 17.7026667 534.512 18.7L530.552 18.7C530.698667 17.3506667 531.19 16.1626667 532.026 15.136 532.862 14.1093333 533.962 13.31 535.326 12.738 536.69 12.166 538.208 11.88 539.88 11.88 542.666667 11.88 544.866667 12.5986667 546.48 14.036 548.093333 15.4733333 548.9 17.424 548.9 19.888L548.9 36.52 545.028 36.52 545.028 31.9 544.368 31.9 545.028 31.24C545.028 33 544.346 34.3933333 542.982 35.42 541.618 36.4466667 539.806667 36.96 537.548 36.96ZM538.516 33.836C540.393333 33.836 541.933333 33.3666667 543.136 32.428 544.338667 31.4893333 544.94 30.2866667 544.94 28.82L544.94 25.388 537.548 25.388C536.228 25.388 535.186667 25.7546667 534.424 26.488 533.661333 27.2213333 533.28 28.2186667 533.28 29.48 533.28 30.8293333 533.742 31.8926667 534.666 32.67 535.59 33.4473333 536.873333 33.836 538.516 33.836ZM568.7 36.52C566.705333 36.52 565.106667 35.9406667 563.904 34.782 562.701333 33.6233333 562.1 32.076 562.1 30.14L562.1 15.928 555.28 15.928 555.28 12.32 562.1 12.32 562.1 5.5 566.06 5.5 566.06 12.32 575.74 12.32 575.74 15.928 566.06 15.928 566.06 30.14C566.06 30.9613333 566.302 31.6286667 566.786 32.142 567.27 32.6553333 567.908 32.912 568.7 32.912L575.3 32.912 575.3 36.52 568.7 36.52ZM583.308 36.52 583.308 4.4 587.268 4.4 587.268 12.32 587.268 16.94 588.104 16.94 587.268 17.864C587.268 15.9573333 587.84 14.4833333 588.984 13.442 590.128 12.4006667 591.712 11.88 593.736 11.88 596.170667 11.88 598.106667 12.628 599.544 14.124 600.981333 15.62 601.7 17.6586667 601.7 20.24L601.7 36.52 597.74 36.52 597.74 20.68C597.74 18.9493333 597.278 17.6073333 596.354 16.654 595.43 15.7006667 594.176 15.224 592.592 15.224 590.949333 15.224 589.651333 15.7373333 588.698 16.764 587.744667 17.7906667 587.268 19.2426667 587.268 21.12L587.268 36.52 583.308 36.52Z"/></g></g></g><rect width="120" height="150" x="680" fill="url(#a)"/></g></svg>