<svg xmlns="http://www.w3.org/2000/svg" width="800" height="200" viewBox="0 0 800 200"><defs><linearGradient id="a" x1="100%" x2="0%" y1="50%" y2="50%"><stop offset="0%" stop-color="#FFF"/><stop offset="100%" stop-color="#FFF" stop-opacity="0"/></linearGradient></defs><g fill="none" fill-rule="evenodd"><rect width="800" height="200" fill="#FFF" fill-rule="nonzero"/><g transform="translate(10)"><path fill="#000" fill-rule="nonzero" d="M116.191,117.701 L93.962,117.701 L93.962,120.55 L92.607,120.55 L92.607,116.412 L104.788,116.412 C104.399,115.724 103.857,114.969 103.381,114.339 L104.582,113.893 C105.183,114.64 105.872,115.687 106.318,116.412 L117.568,116.412 L117.568,120.55 L116.191,120.55 L116.191,117.701 Z M75,113.98 C75.813,115.423 76.7432,117.284 77.1606,118.478 L75.7471,119.107 C75.3589,117.914 74.4287,115.958 73.6523,114.493 L75,113.98 Z M107.637,126.974 C111.387,127.779 114.719,128.622 117.209,129.457 L115.95,130.482 C113.401,129.61 109.922,128.651 105.872,127.809 C102.451,129.222 97.983,129.969 92.49,130.357 C92.373,129.94 92.131,129.427 91.86,129.098 C96.54,128.827 100.437,128.292 103.499,127.333 C101.162,126.849 98.643,126.432 96.057,126.043 C97.141,125.077 98.342,123.883 99.543,122.623 L92.102,122.623 L92.102,121.363 L100.649,121.363 C101.492,120.367 102.268,119.408 102.869,118.478 L104.128,118.902 C103.557,119.679 102.927,120.55 102.18,121.363 L118.022,121.363 L118.022,122.623 L112.258,122.623 C111.24,124.417 109.709,125.86 107.637,126.974 Z M87.7808,119.437 L87.7808,120.851 L72.4219,120.851 C72.2974,122.652 72.1802,124.483 71.9092,126.307 L84.6899,126.307 C84.6899,126.307 84.6606,126.878 84.6313,127.091 C84.0015,135.763 83.4009,138.941 82.2876,140.113 C81.687,140.677 81.123,140.831 80.0684,140.89 C79.0796,140.948 77.1021,140.89 75.1172,140.707 C75.0879,140.289 74.9121,139.718 74.6118,139.33 C76.8311,139.542 78.8965,139.571 79.6802,139.571 C80.3394,139.571 80.6982,139.513 81.0571,139.242 C81.9873,138.399 82.5586,135.367 83.1299,127.721 L71.6675,127.721 C70.7373,133.177 68.4888,138.341 62.7026,141.249 C62.4902,140.89 61.9775,140.377 61.6187,140.143 C69.6021,136.327 70.5029,127.992 70.8618,120.851 L62.373,120.851 L62.373,119.437 L87.7808,119.437 Z M105.63,126.549 C107.82,125.56 109.497,124.3 110.61,122.623 L101.067,122.623 C100.137,123.583 99.243,124.513 98.401,125.26 C100.862,125.648 103.323,126.102 105.63,126.549 Z M118.323,132.188 L118.323,133.478 L107.278,133.478 C110.01,136.209 114.69,138.583 118.887,139.601 C118.557,139.901 118.169,140.414 117.957,140.802 C113.489,139.542 108.42,136.693 105.659,133.478 L105.659,141.19 L104.253,141.19 L104.253,133.631 C101.521,136.722 96.54,139.513 92.19,140.707 C91.978,140.348 91.589,139.842 91.26,139.542 C95.427,138.517 100.078,136.122 102.781,133.478 L91.743,133.478 L91.743,132.188 L104.253,132.188 L104.253,129.457 L105.659,129.457 L105.659,132.188 L118.323,132.188 Z M97.109,175 L95.373,175 L95.373,151.152 L97.109,151.152 L97.109,157.993 L97.079,161.472 C98.698,159.854 100.353,158.586 102.543,158.586 C105.868,158.586 107.399,160.659 107.399,164.768 L107.399,175 L105.663,175 L105.663,165.01 C105.663,161.677 104.609,160.146 102.148,160.146 C100.287,160.146 98.969,161.113 97.109,163.032 L97.109,175 Z M76.0474,169.448 C76.0474,172.81 73.2568,175.388 68.9722,175.388 C65.7935,175.388 63.2666,174.07 61.5308,172.122 L62.6367,170.862 C64.2334,172.664 66.4819,173.77 68.9722,173.77 C72.2095,173.77 74.2236,172.063 74.2236,169.573 C74.2236,166.929 72.5098,166.086 70.3491,165.127 L67.0825,163.691 C65.127,162.82 62.6367,161.443 62.6367,158.228 C62.6367,154.99 65.3979,152.742 69.1187,152.742 C71.7627,152.742 73.9233,153.877 75.3003,155.378 L74.2822,156.55 C72.9932,155.232 71.2793,154.36 69.1187,154.36 C66.3281,154.36 64.4678,155.833 64.4678,158.081 C64.4678,160.571 66.5991,161.501 68.1885,162.19 L71.4624,163.633 C73.9526,164.739 76.0474,166.123 76.0474,169.448 Z M91.499,173.323 C90.122,174.517 88.4083,175.388 86.4014,175.388 C82.2266,175.388 79.0772,172.327 79.0772,167.017 C79.0772,161.677 82.5269,158.586 86.4893,158.586 C88.6207,158.586 90.064,159.553 91.17,160.542 L90.181,161.743 C89.192,160.813 88.0201,160.117 86.5186,160.117 C83.3399,160.117 80.9083,162.937 80.9083,167.017 C80.9083,171.104 83.1275,173.887 86.4893,173.887 C88.1373,173.887 89.5802,173.081 90.657,172.122 L91.499,173.323 Z M124.264,173.828 C122.967,174.641 121.473,175.388 119.159,175.388 C115.05,175.388 111.717,172.268 111.717,167.017 C111.717,161.831 115.108,158.586 118.741,158.586 C122.608,158.586 124.923,161.348 124.923,166.028 C124.923,166.482 124.893,166.899 124.828,167.288 L113.49,167.288 C113.578,171.191 115.892,173.923 119.342,173.923 C121.048,173.923 122.403,173.381 123.597,172.539 L124.264,173.828 Z M130.919,175 L129.183,175 L129.183,159.011 L130.618,159.011 L130.831,161.443 L130.889,161.443 C132.332,159.854 134.127,158.586 135.928,158.586 C138.477,158.586 139.766,159.883 140.338,161.831 C142.139,159.883 143.883,158.586 145.743,158.586 C148.951,158.586 150.54,160.659 150.54,164.768 L150.54,175 L148.797,175 L148.797,165.01 C148.797,161.677 147.691,160.146 145.347,160.146 C143.912,160.146 142.44,161.113 140.733,163.032 L140.733,175 L138.99,175 L138.99,165.01 C138.99,161.677 137.913,160.146 135.54,160.146 C134.127,160.146 132.603,161.113 130.919,163.032 L130.919,175 Z M167.524,173.828 C166.227,174.641 164.733,175.388 162.419,175.388 C158.31,175.388 154.977,172.268 154.977,167.017 C154.977,161.831 158.368,158.586 162.001,158.586 C165.868,158.586 168.183,161.348 168.183,166.028 C168.183,166.482 168.153,166.899 168.088,167.288 L156.75,167.288 C156.838,171.191 159.152,173.923 162.602,173.923 C164.308,173.923 165.663,173.381 166.857,172.539 L167.524,173.828 Z M118.77,160.088 C116.163,160.088 113.819,162.249 113.49,165.911 L123.333,165.911 C123.333,162.043 121.561,160.088 118.77,160.088 Z M162.03,160.088 C159.423,160.088 157.079,162.249 156.75,165.911 L166.593,165.911 C166.593,162.043 164.821,160.088 162.03,160.088 Z"/><path fill="#B6E97F" d="M16,84 L16,132 L10,132 L10,84 L16,84 Z M32,126 L32,132 L16,132 L16,126 L32,126 Z M56,129 L32,144 L32,114 L56,129 Z M99.12,10 C104.66,10 107.43,10 109.175,11.6912 C109.221,11.735 109.265,11.7794 109.309,11.8245 C111,13.5696 111,16.3397 111,21.88 L111,72.12 C111,77.6602 111,80.4302 109.309,82.1755 C109.265,82.2206 109.221,82.265 109.175,82.3088 C107.43,84 104.66,84 99.12,84 L11.88,84 C6.3397,84 3.5695,84 1.8245,82.3088 C1.7794,82.265 1.735,82.2206 1.6912,82.1755 C0,80.4301 0,77.6601 0,72.12 L0,21.88 C0,16.3398 0,13.5698 1.6912,11.8245 C1.735,11.7794 1.7794,11.735 1.8245,11.6912 C3.5698,10 6.3398,10 11.88,10 L99.12,10 Z"/><path fill="#000" fill-rule="nonzero" d="M6.0928,27.6758 L6.0928,59 L9.7021,59 L9.7021,44.0791 C10.9625667,42.7900333 12.0905,41.8232333 13.0859,41.1787 C14.0813667,40.5341667 15.2129,40.2119 16.4805,40.2119 C18.2350333,40.2119 19.4918667,40.7024667 20.251,41.6836 C21.0172667,42.6647333 21.4004,44.1686333 21.4004,46.1953 L21.4004,59 L25.0098,59 L25.0098,45.7119 C25.0098,42.8974333 24.4082333,40.7561667 23.2051,39.2881 C22.0019667,37.8199667 20.1399667,37.0859 17.6191,37.0859 C15.9505,37.0859 14.4752667,37.4833667 13.1934,38.2783 C11.9186,39.0661 10.7262,40.0615333 9.6162,41.2646 L9.4766,41.2646 L9.7021,36.2051 L9.7021,27.6758 L6.0928,27.6758 Z M40.8072,58.4092 C42.0103333,59.154 43.6538667,59.5264 45.7378,59.5264 C47.0842,59.5264 48.2909333,59.4010667 49.358,59.1504 C50.4322,58.9069333 51.4527,58.6061333 52.4195,58.248 L51.6353,55.6162 C50.8690333,55.9098 50.0741,56.1461333 49.2505,56.3252 C48.4341,56.4970667 47.5102667,56.583 46.479,56.583 C44.4308667,56.583 43.0165,56.0852667 42.2359,55.0898 C41.4624333,54.0872 41.0757,52.6334333 41.0757,50.7285 L41.0757,40.5664 L51.5923,40.5664 L51.5923,37.6123 L41.0757,37.6123 L41.0757,30.748 L38.0787,30.748 L37.5953,37.6123 L31.44,37.8379 L31.44,40.5664 L37.4664,40.5664 L37.4664,50.6855 C37.4664,52.4472333 37.7206,53.9869667 38.229,55.3047 C38.7446667,56.6223667 39.6040667,57.6572 40.8072,58.4092 Z M67.2071,58.4092 C68.4102333,59.154 70.0538,59.5264 72.1378,59.5264 C73.4841333,59.5264 74.6908333,59.4010667 75.7579,59.1504 C76.8321,58.9069333 77.8526,58.6061333 78.8194,58.248 L78.0352,55.6162 C77.2689333,55.9098 76.4740333,56.1461333 75.6505,56.3252 C74.8341,56.4970667 73.9102667,56.583 72.879,56.583 C70.8308,56.583 69.4164,56.0852667 68.6358,55.0898 C67.8624,54.0872 67.4757,52.6334333 67.4757,50.7285 L67.4757,40.5664 L77.9923,40.5664 L77.9923,37.6123 L67.4757,37.6123 L67.4757,30.748 L64.4786,30.748 L63.9952,37.6123 L57.8399,37.8379 L57.8399,40.5664 L63.8663,40.5664 L63.8663,50.6855 C63.8663,52.4472333 64.1205333,53.9869667 64.629,55.3047 C65.1446,56.6223667 66.0039667,57.6572 67.2071,58.4092 Z M85.2926,37.6123 L85.2926,68.0234 L88.902,68.0234 L88.902,60.8047 L88.7194,56.7549 L88.859,56.7549 C89.797,57.6357667 90.8426667,58.3196667 91.996,58.8066 C93.156,59.2864667 94.2373333,59.5264 95.24,59.5264 C96.966,59.5264 98.563,59.0716333 100.031,58.1621 C101.499,57.2526333 102.687667,55.9349333 103.597,54.209 C104.507,52.4759333 104.962,50.4062667 104.962,48 C104.962,44.6842667 104.206333,42.0381 102.695,40.0615 C101.183667,38.0777667 98.9923333,37.0859 96.121,37.0859 C94.7956667,37.0859 93.4813333,37.3938667 92.178,38.0098 C90.8746667,38.6256667 89.7218,39.4026667 88.7194,40.3408 L88.5905,40.3408 L88.2789,37.6123 L85.2926,37.6123 Z M99.354,54.2305 C98.108,55.7415667 96.529,56.4971 94.617,56.4971 C93.8863333,56.4971 93.0053333,56.3073 91.974,55.9277 C90.95,55.5410333 89.926,54.8929333 88.902,53.9834 L88.902,43.3379 C90.012,42.2207 91.1006667,41.4078667 92.168,40.8994 C93.242,40.3838 94.2516667,40.126 95.197,40.126 C97.3383333,40.126 98.878,40.8528667 99.816,42.3066 C100.754,43.7532667 101.223,45.6510667 101.223,48 C101.223,50.6426 100.6,52.7194333 99.354,54.2305 Z"/><path fill="#CCC" fill-rule="nonzero" d="M963.044,40.5664 L963.044,59 L966.61,59 L966.61,40.5664 L975.591,40.5664 L975.591,37.6123 L966.61,37.6123 L966.61,35.6787 C966.61,33.9456333 967.036333,32.5813667 967.889,31.5859 C968.741,30.5905 970.119333,30.0928 972.024,30.0928 C972.962667,30.0928 973.804333,30.1608333 974.549,30.2969 C975.301,30.4257667 976.117333,30.6943 976.998,31.1025 L977.825,28.374 C975.834333,27.5576 973.782667,27.1494 971.67,27.1494 C968.734,27.1494 966.560333,27.9407333 965.149,29.5234 C963.745667,31.1061333 963.044,33.2008667 963.044,35.8076 L963.044,37.6123 L956.932,37.8379 L956.932,40.5664 L963.044,40.5664 Z M992.04,32.3594 C992.6,32.875 993.293333,33.1328 994.12,33.1328 C994.933333,33.1328 995.62,32.875 996.18,32.3594 C996.74,31.8437333 997.02,31.1598 997.02,30.3076 C997.02,29.4625333 996.74,28.7822 996.18,28.2666 C995.62,27.751 994.933333,27.4932 994.12,27.4932 C993.293333,27.4932 992.6,27.751 992.04,28.2666 C991.486667,28.7822 991.21,29.4625333 991.21,30.3076 C991.21,31.1598 991.486667,31.8437333 992.04,32.3594 Z M437.096,57.5713 C438.314,58.8747 440.050667,59.5264 442.306,59.5264 C443.480667,59.5264 444.476333,59.4154 445.293,59.1934 C446.116333,58.9785333 447.029333,58.6634 448.032,58.248 L447.108,55.5732 C445.697333,56.2177333 444.361667,56.54 443.101,56.54 C441.841,56.54 440.820667,56.1891 440.04,55.4873 C439.266667,54.7783 438.88,53.6468 438.88,52.0928 L438.88,27.6758 L427.654,27.6758 L427.654,30.6191 L435.27,30.6191 L435.27,51.8242 C435.27,54.3522 435.878667,56.2679 437.096,57.5713 Z M771.692,27.6758 L771.692,59 L775.301,59 L775.301,44.0791 C776.561667,42.7900333 777.689667,41.8232333 778.685,41.1787 C779.680333,40.5341667 780.811667,40.2119 782.079,40.2119 C783.833667,40.2119 785.090667,40.7024667 785.85,41.6836 C786.616,42.6647333 786.999,44.1686333 786.999,46.1953 L786.999,59 L790.609,59 L790.609,45.7119 C790.609,42.8974333 790.007333,40.7561667 788.804,39.2881 C787.600667,37.8199667 785.738667,37.0859 783.218,37.0859 C781.549333,37.0859 780.074,37.4833667 778.792,38.2783 C777.517333,39.0661 776.325,40.0615333 775.215,41.2646 L775.075,41.2646 L775.301,36.2051 L775.301,27.6758 L771.692,27.6758 Z M1017.9,57.5713 C1019.11333,58.8747 1020.85,59.5264 1023.11,59.5264 C1024.28333,59.5264 1025.27667,59.4154 1026.09,59.1934 C1026.91667,58.9785333 1027.83,58.6634 1028.83,58.248 L1027.91,55.5732 C1026.49667,56.2177333 1025.16,56.54 1023.9,56.54 C1022.64,56.54 1021.62,56.1891 1020.84,55.4873 C1020.06667,54.7783 1019.68,53.6468 1019.68,52.0928 L1019.68,27.6758 L1008.45,27.6758 L1008.45,30.6191 L1016.07,30.6191 L1016.07,51.8242 C1016.07,54.3522 1016.68,56.2679 1017.9,57.5713 Z M1092.1,27.6758 L1088.49,27.6758 L1088.49,59 L1092.1,59 L1092.1,44.0791 C1093.36,42.7900333 1094.48667,41.8232333 1095.48,41.1787 C1096.48,40.5341667 1097.61333,40.2119 1098.88,40.2119 C1100.63333,40.2119 1101.89,40.7024667 1102.65,41.6836 C1103.41667,42.6647333 1103.8,44.1686333 1103.8,46.1953 L1103.8,59 L1107.41,59 L1107.41,45.7119 C1107.41,42.8974333 1106.80667,40.7561667 1105.6,39.2881 C1104.4,37.8199667 1102.54,37.0859 1100.02,37.0859 C1098.34667,37.0859 1096.87,37.4833667 1095.59,38.2783 C1094.31667,39.0661 1093.12333,40.0615333 1092.01,41.2646 L1091.87,41.2646 L1092.1,36.2051 L1092.1,27.6758 Z M1176.3,57.5713 C1177.51333,58.8747 1179.25,59.5264 1181.51,59.5264 C1182.68333,59.5264 1183.67667,59.4154 1184.49,59.1934 C1185.31667,58.9785333 1186.23,58.6634 1187.23,58.248 L1186.31,55.5732 C1184.89667,56.2177333 1183.56,56.54 1182.3,56.54 C1181.04,56.54 1180.02,56.1891 1179.24,55.4873 C1178.46667,54.7783 1178.08,53.6468 1178.08,52.0928 L1178.08,27.6758 L1166.85,27.6758 L1166.85,30.6191 L1174.47,30.6191 L1174.47,51.8242 C1174.47,54.3522 1175.08,56.2679 1176.3,57.5713 Z M152.788,27.7617 L138.361,66.0361 L141.616,66.0361 L156.043,27.7617 L152.788,27.7617 Z M179.188,27.7617 L164.761,66.0361 L168.016,66.0361 L182.443,27.7617 L179.188,27.7617 Z M680.787,27.7617 L666.36,66.0361 L669.615,66.0361 L684.042,27.7617 L680.787,27.7617 Z M812.787,27.7617 L798.36,66.0361 L801.615,66.0361 L816.042,27.7617 L812.787,27.7617 Z M891.987,27.7617 L877.56,66.0361 L880.815,66.0361 L895.242,27.7617 L891.987,27.7617 Z M617.009,58.5381 C618.548333,59.1969667 620.374333,59.5264 622.487,59.5264 C624.628333,59.5264 626.447333,59.1969667 627.944,58.5381 C629.440667,57.8792333 630.583,56.9769 631.371,55.8311 C632.165667,54.6852333 632.563,53.4248 632.563,52.0498 C632.563,50.6962667 632.319667,49.5826667 631.833,48.709 C631.353,47.8281333 630.694,47.0726 629.856,46.4424 C629.018,45.8122 628.087,45.2464333 627.063,44.7451 L627.063,44.5732 C628.237667,43.7496667 629.240333,42.7578333 630.071,41.5977 C630.909,40.4375 631.328,39.1985667 631.328,37.8809 C631.328,35.7109667 630.565333,33.9241667 629.04,32.5205 C627.514667,31.1097 625.373333,30.4043 622.616,30.4043 C620.947333,30.4043 619.457667,30.7050667 618.147,31.3066 C616.843667,31.9082 615.816,32.7532667 615.064,33.8418 C614.319333,34.9232 613.947,36.1800333 613.947,37.6123 C613.947,39.0804333 614.366,40.3587667 615.204,41.4473 C616.042,42.5286333 617.048,43.4381333 618.222,44.1758 L618.222,44.3477 C617.22,44.8203 616.257,45.3932 615.333,46.0664 C614.409,46.7396 613.653333,47.5452667 613.066,48.4834 C612.486,49.4215333 612.196,50.5351333 612.196,51.8242 C612.196,53.2923333 612.611333,54.6136333 613.442,55.7881 C614.28,56.9625667 615.469,57.8792333 617.009,58.5381 Z M641.432,55.7021 C643.236667,58.2516333 645.693,59.5264 648.801,59.5264 C651.937667,59.5264 654.401333,58.2516333 656.192,55.7021 C657.982,53.1455 658.877,49.5361333 658.877,44.874 C658.877,40.1546 657.982,36.5631333 656.192,34.0996 C654.401333,31.6360667 651.937667,30.4043 648.801,30.4043 C645.693,30.4043 643.236667,31.6360667 641.432,34.0996 C639.627333,36.5631333 638.725,40.1546 638.725,44.874 C638.725,49.5361333 639.627333,53.1455 641.432,55.7021 Z M753.606,58.4092 C754.809333,59.154 756.453,59.5264 758.537,59.5264 C759.883,59.5264 761.089667,59.4010667 762.157,59.1504 C763.231,58.9069333 764.251333,58.6061333 765.218,58.248 L764.434,55.6162 C763.668,55.9098 762.873,56.1461333 762.049,56.3252 C761.233,56.4970667 760.309333,56.583 759.278,56.583 C757.23,56.583 755.815667,56.0852667 755.035,55.0898 C754.261667,54.0872 753.875,52.6334333 753.875,50.7285 L753.875,40.5664 L764.391,40.5664 L764.391,37.6123 L753.875,37.6123 L753.875,30.748 L750.878,30.748 L750.394,37.6123 L744.239,37.8379 L744.239,40.5664 L750.265,40.5664 L750.265,50.6855 C750.265,52.4472333 750.519333,53.9869667 751.028,55.3047 C751.543333,56.6223667 752.402667,57.6572 753.606,58.4092 Z M832.806,58.4092 C834.009333,59.154 835.653,59.5264 837.737,59.5264 C839.083,59.5264 840.289667,59.4010667 841.357,59.1504 C842.431,58.9069333 843.451333,58.6061333 844.418,58.248 L843.634,55.6162 C842.868,55.9098 842.073,56.1461333 841.249,56.3252 C840.433,56.4970667 839.509333,56.583 838.478,56.583 C836.43,56.583 835.015667,56.0852667 834.235,55.0898 C833.461,54.0872 833.074,52.6334333 833.074,50.7285 L833.074,40.5664 L843.591,40.5664 L843.591,37.6123 L833.074,37.6123 L833.074,30.748 L830.077,30.748 L829.594,37.6123 L823.439,37.8379 L823.439,40.5664 L829.465,40.5664 L829.465,50.6855 C829.465,52.4472333 829.719333,53.9869667 830.228,55.3047 C830.743333,56.6223667 831.602667,57.6572 832.806,58.4092 Z M1123.21,58.4092 C1124.41,59.154 1126.05333,59.5264 1128.14,59.5264 C1129.48667,59.5264 1130.69333,59.4010667 1131.76,59.1504 C1132.83333,58.9069333 1133.85333,58.6061333 1134.82,58.248 L1134.03,55.6162 C1133.26333,55.9098 1132.47,56.1461333 1131.65,56.3252 C1130.83,56.4970667 1129.90667,56.583 1128.88,56.583 C1126.82667,56.583 1125.41,56.0852667 1124.63,55.0898 C1123.85667,54.0872 1123.47,52.6334333 1123.47,50.7285 L1123.47,40.5664 L1133.99,40.5664 L1133.99,37.6123 L1123.47,37.6123 L1123.47,30.748 L1120.48,30.748 L1119.99,37.6123 L1113.84,37.8379 L1113.84,40.5664 L1119.86,40.5664 L1119.86,50.6855 C1119.86,52.4472333 1120.11667,53.9869667 1120.63,55.3047 C1121.14333,56.6223667 1122.00333,57.6572 1123.21,58.4092 Z M628.202,38.0527 C628.202,40.1080333 627.031,41.9879333 624.689,43.6924 C623.307,43.2484 622.050333,42.7721667 620.919,42.2637 C619.794333,41.7480333 618.902667,41.1249667 618.244,40.3945 C617.585333,39.6569 617.256,38.7295 617.256,37.6123 C617.256,36.2373 617.746333,35.1380333 618.727,34.3145 C619.708333,33.4909 620.976,33.0791 622.53,33.0791 C624.378,33.0791 625.785333,33.5660667 626.752,34.54 C627.718667,35.5068 628.202,36.6777 628.202,38.0527 Z M653.614,53.7686 C652.367333,55.6735333 650.763,56.626 648.801,56.626 C646.831667,56.626 645.224,55.6735333 643.978,53.7686 C642.732,51.8564667 642.109,48.8916 642.109,44.874 C642.109,40.8278 642.732,37.8880333 643.978,36.0547 C645.224,34.2213667 646.831667,33.3047 648.801,33.3047 C650.763,33.3047 652.367333,34.2213667 653.614,36.0547 C654.86,37.8880333 655.483,40.8278 655.483,44.874 C655.483,48.8916 654.86,51.8564667 653.614,53.7686 Z M118.267,42.7471 C118.961667,43.4345667 119.806667,43.7783 120.802,43.7783 C121.797333,43.7783 122.638667,43.4345667 123.326,42.7471 C124.020667,42.0595667 124.368,41.1715333 124.368,40.083 C124.368,38.9658 124.020667,38.0634667 123.326,37.376 C122.638667,36.6884667 121.797333,36.3447 120.802,36.3447 C119.806667,36.3447 118.961667,36.6884667 118.267,37.376 C117.579667,38.0634667 117.236,38.9658 117.236,40.083 C117.236,41.1715333 117.579667,42.0595667 118.267,42.7471 Z M593.466,42.7471 C594.160667,43.4345667 595.005667,43.7783 596.001,43.7783 C596.996333,43.7783 597.838,43.4345667 598.526,42.7471 C599.220667,42.0595667 599.568,41.1715333 599.568,40.083 C599.568,38.9658 599.220667,38.0634667 598.526,37.376 C597.838,36.6884667 596.996333,36.3447 596.001,36.3447 C595.005667,36.3447 594.160667,36.6884667 593.466,37.376 C592.778667,38.0634667 592.435,38.9658 592.435,40.083 C592.435,41.1715333 592.778667,42.0595667 593.466,42.7471 Z M301.09,58.2051 C302.837333,59.0859667 304.781667,59.5264 306.923,59.5264 C308.649,59.5264 310.192333,59.2793333 311.553,58.7852 C312.920333,58.2838667 314.134,57.6823 315.194,56.9805 L313.873,54.5957 C312.906333,55.2115667 311.9,55.7057 310.854,56.0781 C309.816,56.4433667 308.652333,56.626 307.363,56.626 C305.129,56.626 303.242,56.0101 301.702,54.7783 C300.162667,53.5465667 299.274667,51.7275667 299.038,49.3213 L315.893,49.3213 C315.950333,49.0277 315.993,48.6911 316.021,48.3115 C316.057,47.9247667 316.075,47.5273 316.075,47.1191 C316.075,44.0969667 315.215667,41.6692333 313.497,39.8359 C311.778333,38.0025667 309.379333,37.0859 306.3,37.0859 C304.394667,37.0859 302.611333,37.5335 300.95,38.4287 C299.296,39.3239 297.957,40.6094 296.933,42.2852 C295.908333,43.9538 295.396,45.9482667 295.396,48.2686 C295.396,50.639 295.908333,52.6692667 296.933,54.3594 C297.957,56.0423333 299.342667,57.3242333 301.09,58.2051 Z M352.386,58.8066 C353.488667,59.2864667 354.702333,59.5264 356.027,59.5264 C357.553,59.5264 359.046333,59.1826333 360.507,58.4951 C361.975,57.8076333 363.296333,57.0091333 364.471,56.0996 L364.6,56.0996 L364.911,59 L367.855,59 L367.855,45.8838 C367.855,43.2197333 367.142333,41.0892 365.717,39.4922 C364.299,37.888 362.125333,37.0859 359.196,37.0859 C357.312667,37.0859 355.526,37.4260667 353.836,38.1064 C352.153333,38.7796 350.771333,39.4671 349.69,40.1689 L351.097,42.6289 C352.092333,42.0130333 353.241667,41.4365333 354.545,40.8994 C355.855667,40.3551333 357.198333,40.083 358.573,40.083 C359.955667,40.083 361.055,40.3336667 361.871,40.835 C362.695,41.3291333 363.289333,41.9808 363.654,42.79 C364.019333,43.5921333 364.22,44.4766 364.256,45.4434 C360.589333,45.737 357.61,46.2096333 355.318,46.8613 C353.034,47.5058333 351.369,48.3652333 350.323,49.4395 C349.285,50.5065 348.766,51.8456667 348.766,53.457 C348.766,54.7174667 349.095333,55.8024333 349.754,56.7119 C350.412667,57.6214333 351.29,58.3196667 352.386,58.8066 Z M374.156,37.6123 L374.156,59 L377.755,59 L377.755,43.5098 C378.284333,42.3997333 378.821333,41.5725667 379.366,41.0283 C379.91,40.4840333 380.547333,40.2119 381.278,40.2119 C382.072667,40.2119 382.638333,40.527 382.975,41.1572 C383.311667,41.7874 383.48,42.7184 383.48,43.9502 L383.48,59 L386.821,59 L386.821,43.5098 C387.408333,42.3997333 387.942,41.5725667 388.422,41.0283 C388.908667,40.4840333 389.520667,40.2119 390.258,40.2119 C391.784,40.2119 392.547,41.458 392.547,43.9502 L392.547,59 L396.156,59 L396.156,43.6924 C396.156,41.5511333 395.737,39.9147333 394.899,38.7832 C394.061,37.6516667 392.893667,37.0859 391.397,37.0859 C390.165,37.0859 389.173333,37.4189333 388.422,38.085 C387.676667,38.7438 386.996333,39.6425333 386.381,40.7812 C385.765,38.3176667 384.415,37.0859 382.331,37.0859 C381.099,37.0859 380.117667,37.3938667 379.387,38.0098 C378.657,38.6256667 378.012667,39.4313333 377.454,40.4268 L377.368,40.4268 L377.056,37.6123 L374.156,37.6123 Z M402.092,37.6123 L402.092,68.0234 L405.701,68.0234 L405.701,60.8047 L405.519,56.7549 L405.658,56.7549 C406.596667,57.6357667 407.642333,58.3196667 408.795,58.8066 C409.955,59.2864667 411.036333,59.5264 412.039,59.5264 C413.765,59.5264 415.362,59.0716333 416.83,58.1621 C418.298,57.2526333 419.487,55.9349333 420.397,54.209 C421.306333,52.4759333 421.761,50.4062667 421.761,48 C421.761,44.6842667 421.005333,42.0381 419.494,40.0615 C417.983333,38.0777667 415.792,37.0859 412.92,37.0859 C411.595333,37.0859 410.281333,37.3938667 408.978,38.0098 C407.674667,38.6256667 406.521667,39.4026667 405.519,40.3408 L405.39,40.3408 L405.078,37.6123 L402.092,37.6123 Z M459.49,58.2051 C461.237333,59.0859667 463.181667,59.5264 465.323,59.5264 C467.048333,59.5264 468.591667,59.2793333 469.953,58.7852 C471.320333,58.2838667 472.534,57.6823 473.594,56.9805 L472.273,54.5957 C471.306333,55.2115667 470.3,55.7057 469.254,56.0781 C468.216,56.4433667 467.052333,56.626 465.763,56.626 C463.528333,56.626 461.641333,56.0101 460.102,54.7783 C458.562,53.5465667 457.674,51.7275667 457.438,49.3213 L474.292,49.3213 C474.349333,49.0277 474.392333,48.6911 474.421,48.3115 C474.457,47.9247667 474.475,47.5273 474.475,47.1191 C474.475,44.0969667 473.615667,41.6692333 471.897,39.8359 C470.178333,38.0025667 467.779333,37.0859 464.7,37.0859 C462.794667,37.0859 461.011333,37.5335 459.35,38.4287 C457.696,39.3239 456.356667,40.6094 455.332,42.2852 C454.308,43.9538 453.796,45.9482667 453.796,48.2686 C453.796,50.639 454.308,52.6692667 455.332,54.3594 C456.356667,56.0423333 457.742667,57.3242333 459.49,58.2051 Z M512.837,58.2051 C514.599,59.0859667 516.593667,59.5264 518.821,59.5264 C520.403667,59.5264 521.921667,59.2327667 523.375,58.6455 C524.829,58.0582333 526.143333,57.2382333 527.318,56.1855 L525.685,53.8545 C524.804333,54.5849667 523.812333,55.2151667 522.709,55.7451 C521.613667,56.2750333 520.407,56.54 519.089,56.54 C517.442333,56.54 516.003,56.1962667 514.771,55.5088 C513.539,54.8141333 512.579333,53.8509 511.892,52.6191 C511.204667,51.3873667 510.861,49.9658333 510.861,48.3545 C510.861,46.7073667 511.212,45.2607333 511.914,44.0146 C512.615333,42.7685333 513.589,41.8017667 514.835,41.1143 C516.088333,40.4267667 517.535,40.083 519.175,40.083 C520.292333,40.083 521.327333,40.305 522.28,40.749 C523.232,41.1858667 524.148667,41.7838667 525.03,42.543 L526.834,40.2119 C525.953333,39.3597 524.865,38.6256667 523.569,38.0098 C522.279667,37.3938667 520.772,37.0859 519.046,37.0859 C516.904667,37.0859 514.924667,37.5263333 513.106,38.4072 C511.286667,39.2880667 509.833,40.5664 508.745,42.2422 C507.663667,43.9108 507.123,45.9482333 507.123,48.3545 C507.123,50.6963 507.635,52.7051 508.659,54.3809 C509.683,56.0495 511.075667,57.3242333 512.837,58.2051 Z M537.981,58.2051 C539.585,59.0859667 541.325,59.5264 543.201,59.5264 C545.077667,59.5264 546.814333,59.0859667 548.411,58.2051 C550.008333,57.3242333 551.297333,56.0495 552.278,54.3809 C553.266667,52.7051 553.761,50.6963 553.761,48.3545 C553.761,45.9482333 553.266667,43.9108 552.278,42.2422 C551.297333,40.5664 550.008333,39.2880667 548.411,38.4072 C546.814333,37.5263333 545.077667,37.0859 543.201,37.0859 C541.325,37.0859 539.585,37.5263333 537.981,38.4072 C536.383667,39.2880667 535.094333,40.5664 534.113,42.2422 C533.132333,43.9108 532.642,45.9482333 532.642,48.3545 C532.642,50.6963 533.132333,52.7051 534.113,54.3809 C535.094333,56.0495 536.383667,57.3242333 537.981,58.2051 Z M558.956,37.6123 L558.956,59 L562.554,59 L562.554,43.5098 C563.084,42.3997333 563.621333,41.5725667 564.166,41.0283 C564.71,40.4840333 565.347333,40.2119 566.078,40.2119 C566.872667,40.2119 567.438333,40.527 567.775,41.1572 C568.111667,41.7874 568.28,42.7184 568.28,43.9502 L568.28,59 L571.621,59 L571.621,43.5098 C572.208333,42.3997333 572.741667,41.5725667 573.221,41.0283 C573.708333,40.4840333 574.320667,40.2119 575.058,40.2119 C576.583333,40.2119 577.346,41.458 577.346,43.9502 L577.346,59 L580.956,59 L580.956,43.6924 C580.956,41.5511333 580.537,39.9147333 579.699,38.7832 C578.861,37.6516667 577.693667,37.0859 576.197,37.0859 C574.965,37.0859 573.973,37.4189333 573.221,38.085 C572.476333,38.7438 571.796,39.6425333 571.18,40.7812 C570.564,38.3176667 569.214,37.0859 567.13,37.0859 C565.898667,37.0859 564.917667,37.3938667 564.187,38.0098 C563.456333,38.6256667 562.812,39.4313333 562.254,40.4268 L562.168,40.4268 L561.856,37.6123 L558.956,37.6123 Z M692.492,37.6123 L692.492,68.0234 L696.101,68.0234 L696.101,60.8047 L695.918,56.7549 L696.058,56.7549 C696.996,57.6357667 698.041667,58.3196667 699.195,58.8066 C700.355,59.2864667 701.436333,59.5264 702.439,59.5264 C704.165,59.5264 705.762,59.0716333 707.23,58.1621 C708.698,57.2526333 709.886667,55.9349333 710.796,54.209 C711.706,52.4759333 712.161,50.4062667 712.161,48 C712.161,44.6842667 711.405333,42.0381 709.894,40.0615 C708.382667,38.0777667 706.191333,37.0859 703.32,37.0859 C701.994667,37.0859 700.680333,37.3938667 699.377,38.0098 C698.073667,38.6256667 696.920667,39.4026667 695.918,40.3408 L695.789,40.3408 L695.478,37.6123 L692.492,37.6123 Z M721.985,58.8066 C723.088333,59.2864667 724.302333,59.5264 725.627,59.5264 C727.152333,59.5264 728.645333,59.1826333 730.106,58.4951 C731.574667,57.8076333 732.896,57.0091333 734.07,56.0996 L734.199,56.0996 L734.511,59 L737.454,59 L737.454,45.8838 C737.454,43.2197333 736.741333,41.0892 735.316,39.4922 C733.898,37.888 731.724667,37.0859 728.796,37.0859 C726.912667,37.0859 725.126,37.4260667 723.436,38.1064 C721.752667,38.7796 720.370333,39.4671 719.289,40.1689 L720.696,42.6289 C721.691333,42.0130333 722.841,41.4365333 724.145,40.8994 C725.455,40.3551333 726.797667,40.083 728.173,40.083 C729.555,40.083 730.654333,40.3336667 731.471,40.835 C732.294333,41.3291333 732.888667,41.9808 733.254,42.79 C733.619333,43.5921333 733.819667,44.4766 733.855,45.4434 C730.188333,45.737 727.209333,46.2096333 724.918,46.8613 C722.633333,47.5058333 720.968333,48.3652333 719.923,49.4395 C718.884333,50.5065 718.365,51.8456667 718.365,53.457 C718.365,54.7174667 718.694667,55.8024333 719.354,56.7119 C720.012667,57.6214333 720.889667,58.3196667 721.985,58.8066 Z M854.78,58.2051 C856.384,59.0859667 858.124333,59.5264 860.001,59.5264 C861.877,59.5264 863.613667,59.0859667 865.211,58.2051 C866.807667,57.3242333 868.096667,56.0495 869.078,54.3809 C870.066,52.7051 870.56,50.6963 870.56,48.3545 C870.56,45.9482333 870.066,43.9108 869.078,42.2422 C868.096667,40.5664 866.807667,39.2880667 865.211,38.4072 C863.613667,37.5263333 861.877,37.0859 860.001,37.0859 C858.124333,37.0859 856.384,37.5263333 854.78,38.4072 C853.183333,39.2880667 851.894333,40.5664 850.913,42.2422 C849.931667,43.9108 849.441,45.9482333 849.441,48.3545 C849.441,50.6963 849.931667,52.7051 850.913,54.3809 C851.894333,56.0495 853.183333,57.3242333 854.78,58.2051 Z M902.155,37.6123 L902.155,59 L905.754,59 L905.754,43.5098 C906.284,42.3997333 906.821,41.5725667 907.365,41.0283 C907.909667,40.4840333 908.547,40.2119 909.277,40.2119 C910.072333,40.2119 910.638333,40.527 910.975,41.1572 C911.311,41.7874 911.479,42.7184 911.479,43.9502 L911.479,59 L914.82,59 L914.82,43.5098 C915.407333,42.3997333 915.941,41.5725667 916.421,41.0283 C916.907667,40.4840333 917.52,40.2119 918.258,40.2119 C919.783333,40.2119 920.546,41.458 920.546,43.9502 L920.546,59 L924.155,59 L924.155,43.6924 C924.155,41.5511333 923.736,39.9147333 922.898,38.7832 C922.060667,37.6516667 920.893333,37.0859 919.396,37.0859 C918.164667,37.0859 917.173,37.4189333 916.421,38.085 C915.676333,38.7438 914.996,39.6425333 914.38,40.7812 C913.764,38.3176667 912.414,37.0859 910.33,37.0859 C909.098,37.0859 908.117,37.3938667 907.387,38.0098 C906.656333,38.6256667 906.011667,39.4313333 905.453,40.4268 L905.367,40.4268 L905.056,37.6123 L902.155,37.6123 Z M1040.29,58.2051 C1042.03667,59.0859667 1043.98,59.5264 1046.12,59.5264 C1047.84667,59.5264 1049.39,59.2793333 1050.75,58.7852 C1052.11667,58.2838667 1053.33,57.6823 1054.39,56.9805 L1053.07,54.5957 C1052.10333,55.2115667 1051.09667,55.7057 1050.05,56.0781 C1049.01667,56.4433667 1047.85333,56.626 1046.56,56.626 C1044.32667,56.626 1042.44,56.0101 1040.9,54.7783 C1039.36,53.5465667 1038.47333,51.7275667 1038.24,49.3213 L1055.09,49.3213 C1055.15,49.0277 1055.19333,48.6911 1055.22,48.3115 C1055.25333,47.9247667 1055.27,47.5273 1055.27,47.1191 C1055.27,44.0969667 1054.41333,41.6692333 1052.7,39.8359 C1050.98,38.0025667 1048.58,37.0859 1045.5,37.0859 C1043.59333,37.0859 1041.81,37.5335 1040.15,38.4287 C1038.49667,39.3239 1037.15667,40.6094 1036.13,42.2852 C1035.11,43.9538 1034.6,45.9482667 1034.6,48.2686 C1034.6,50.639 1035.11,52.6692667 1036.13,54.3594 C1037.15667,56.0423333 1038.54333,57.3242333 1040.29,58.2051 Z M1139.75,37.6123 L1139.75,59 L1143.35,59 L1143.35,43.5098 C1143.88333,42.3997333 1144.42,41.5725667 1144.96,41.0283 C1145.50667,40.4840333 1146.14667,40.2119 1146.88,40.2119 C1147.67333,40.2119 1148.23667,40.527 1148.57,41.1572 C1148.91,41.7874 1149.08,42.7184 1149.08,43.9502 L1149.08,59 L1152.42,59 L1152.42,43.5098 C1153.00667,42.3997333 1153.54,41.5725667 1154.02,41.0283 C1154.50667,40.4840333 1155.12,40.2119 1155.86,40.2119 C1157.38667,40.2119 1158.15,41.458 1158.15,43.9502 L1158.15,59 L1161.75,59 L1161.75,43.6924 C1161.75,41.5511333 1161.33333,39.9147333 1160.5,38.7832 C1159.66,37.6516667 1158.49333,37.0859 1157,37.0859 C1155.76667,37.0859 1154.77333,37.4189333 1154.02,38.085 C1153.27333,38.7438 1152.59333,39.6425333 1151.98,40.7812 C1151.36667,38.3176667 1150.01667,37.0859 1147.93,37.0859 C1146.69667,37.0859 1145.71667,37.3938667 1144.99,38.0098 C1144.25667,38.6256667 1143.61,39.4313333 1143.05,40.4268 L1142.97,40.4268 L1142.66,37.6123 L1139.75,37.6123 Z M187.154,37.6123 L191.816,59 L196.478,59 L198.852,48.7949 C199.203333,47.2981667 199.558,45.1855333 199.916,42.457 L200.088,42.457 C200.438667,45.1855333 200.789333,47.2981667 201.14,48.7949 L203.611,59 L208.273,59 L212.849,37.6123 L209.509,37.6123 L206.952,50.0195 C206.744,51.0221 206.572,51.9996333 206.436,52.9521 C206.307333,53.9046333 206.157,54.8929333 205.985,55.917 L205.803,55.917 C205.688333,54.8929333 205.498333,53.9046333 205.233,52.9521 C204.968333,51.9996333 204.721333,51.0221 204.492,50.0195 L201.935,38.9336 L198.326,38.9336 L195.683,50.0195 C195.454333,51.0221 195.229,51.9996333 195.007,52.9521 C194.785,53.9046333 194.602333,54.8929333 194.459,55.917 L194.276,55.917 C194.161333,54.8929333 194.021667,53.9046333 193.857,52.9521 C193.699667,51.9996333 193.517,51.0221 193.309,50.0195 L190.764,37.6123 L187.154,37.6123 Z M213.554,37.6123 L218.216,59 L222.878,59 L225.252,48.7949 C225.603333,47.2981667 225.958,45.1855333 226.316,42.457 L226.488,42.457 C226.838667,45.1855333 227.189333,47.2981667 227.54,48.7949 L230.011,59 L234.673,59 L239.249,37.6123 L235.909,37.6123 L233.352,50.0195 C233.144,51.0221 232.972,51.9996333 232.836,52.9521 C232.707333,53.9046333 232.557,54.8929333 232.385,55.917 L232.203,55.917 C232.088333,54.8929333 231.898333,53.9046333 231.633,52.9521 C231.368333,51.9996333 231.121333,51.0221 230.892,50.0195 L228.335,38.9336 L224.726,38.9336 L222.083,50.0195 C221.854333,51.0221 221.629,51.9996333 221.407,52.9521 C221.185,53.9046333 221.002333,54.8929333 220.859,55.917 L220.676,55.917 C220.561333,54.8929333 220.421667,53.9046333 220.257,52.9521 C220.099667,51.9996333 219.917,51.0221 219.709,50.0195 L217.163,37.6123 L213.554,37.6123 Z M239.954,37.6123 L244.616,59 L249.278,59 L251.652,48.7949 C252.003333,47.2981667 252.358,45.1855333 252.716,42.457 L252.888,42.457 C253.238667,45.1855333 253.589333,47.2981667 253.94,48.7949 L256.411,59 L261.073,59 L265.649,37.6123 L262.309,37.6123 L259.752,50.0195 C259.544,51.0221 259.372,51.9996333 259.236,52.9521 C259.107333,53.9046333 258.957,54.8929333 258.785,55.917 L258.602,55.917 C258.488,54.8929333 258.298333,53.9046333 258.033,52.9521 C257.768333,51.9996333 257.521333,51.0221 257.292,50.0195 L254.735,38.9336 L251.126,38.9336 L248.483,50.0195 C248.254333,51.0221 248.029,51.9996333 247.807,52.9521 C247.585,53.9046333 247.402333,54.8929333 247.259,55.917 L247.076,55.917 C246.961333,54.8929333 246.821667,53.9046333 246.657,52.9521 C246.499667,51.9996333 246.317,51.0221 246.109,50.0195 L243.563,37.6123 L239.954,37.6123 Z M329.756,47.9141 L321.614,59 L325.492,59 L329.004,54.0693 C329.448,53.3961667 329.888667,52.7445 330.326,52.1143 C330.77,51.4840333 331.210333,50.8466333 331.647,50.2021 L331.819,50.2021 C332.291667,50.8180333 332.768,51.4625667 333.248,52.1357 C333.734667,52.8089 334.2,53.4534333 334.644,54.0693 L338.382,59 L342.336,59 L334.161,48.2148 L341.766,37.6123 L337.942,37.6123 L334.73,42.2314 C334.350667,42.8186667 333.953333,43.4381333 333.538,44.0898 C333.129333,44.7343333 332.717333,45.3466667 332.302,45.9268 L332.13,45.9268 C331.693333,45.3466667 331.260333,44.7415 330.831,44.1113 C330.408333,43.4739667 330.007333,42.8795667 329.628,42.3281 L326.233,37.6123 L322.226,37.6123 L329.756,47.9141 Z M928.942,67.7549 C929.765333,68.0485 930.707,68.1953 931.767,68.1953 C933.378333,68.1953 934.760667,67.8658667 935.914,67.207 C937.074,66.5482 938.051333,65.6602 938.846,64.543 C939.641333,63.4258 940.300333,62.1653667 940.823,60.7617 L950.244,37.6123 L946.806,37.6123 L942.144,49.4502 C941.793333,50.417 941.417333,51.4375 941.016,52.5117 C940.622,53.5787667 940.235333,54.6279333 939.856,55.6592 L939.684,55.6592 C939.24,54.6279333 938.789,53.5716 938.331,52.4902 C937.879667,51.4016667 937.45,50.3883333 937.042,49.4502 L931.81,37.6123 L928.158,37.6123 L938.137,59.043 L937.482,60.6328 C936.952,61.9505333 936.218,63.0426667 935.28,63.9092 C934.342,64.7757333 933.124333,65.209 931.627,65.209 C931.305,65.209 930.975667,65.1767667 930.639,65.1123 C930.302333,65.0550333 929.987333,64.9834333 929.694,64.8975 L928.942,67.7549 Z M992.7,40.5664 L992.7,59 L996.31,59 L996.31,37.6123 L982.762,37.6123 L982.762,40.5664 L992.7,40.5664 Z M301.681,41.6406 C303.063,40.5091333 304.634667,39.9434 306.396,39.9434 C308.208,39.9434 309.687,40.4876667 310.833,41.5762 C311.979,42.6647333 312.623667,44.3082667 312.767,46.5068 L299.135,46.5068 C299.457,44.3942 300.305667,42.7721333 301.681,41.6406 Z M460.08,41.6406 C461.462667,40.5091333 463.034667,39.9434 464.796,39.9434 C466.608,39.9434 468.087,40.4876667 469.233,41.5762 C470.379,42.6647333 471.023333,44.3082667 471.166,46.5068 L457.535,46.5068 C457.857,44.3942 458.705333,42.7721333 460.08,41.6406 Z M1040.88,41.6406 C1042.26,40.5091333 1043.83333,39.9434 1045.6,39.9434 C1047.40667,39.9434 1048.88333,40.4876667 1050.03,41.5762 C1051.17667,42.6647333 1051.82333,44.3082667 1051.97,46.5068 L1038.33,46.5068 C1038.65667,44.3942 1039.50667,42.7721333 1040.88,41.6406 Z M548.153,54.2734 C546.907,55.7844667 545.256333,56.54 543.201,56.54 C541.145667,56.54 539.495,55.7844667 538.249,54.2734 C537.003,52.7623333 536.38,50.7893667 536.38,48.3545 C536.38,45.8909667 537.003,43.8965 538.249,42.3711 C539.495,40.8457 541.145667,40.083 543.201,40.083 C545.256333,40.083 546.907,40.8457 548.153,42.3711 C549.399667,43.8965 550.023,45.8909667 550.023,48.3545 C550.023,50.7893667 549.399667,52.7623333 548.153,54.2734 Z M864.953,54.2734 C863.707,55.7844667 862.056333,56.54 860.001,56.54 C857.945667,56.54 856.295,55.7844667 855.049,54.2734 C853.803,52.7623333 853.18,50.7893667 853.18,48.3545 C853.18,45.8909667 853.803,43.8965 855.049,42.3711 C856.295,40.8457 857.945667,40.083 860.001,40.083 C862.056333,40.083 863.707,40.8457 864.953,42.3711 C866.199,43.8965 866.822,45.8909667 866.822,48.3545 C866.822,50.7893667 866.199,52.7623333 864.953,54.2734 Z M416.154,54.2305 C414.907333,55.7415667 413.328,56.4971 411.416,56.4971 C410.686,56.4971 409.805333,56.3073 408.774,55.9277 C407.75,55.5410333 406.725667,54.8929333 405.701,53.9834 L405.701,43.3379 C406.811,42.2207 407.899667,41.4078667 408.967,40.8994 C410.041,40.3838 411.050667,40.126 411.996,40.126 C414.137333,40.126 415.677,40.8528667 416.615,42.3066 C417.553667,43.7532667 418.023,45.6510667 418.023,48 C418.023,50.6426 417.4,52.7194333 416.154,54.2305 Z M706.553,54.2305 C705.307,55.7415667 703.728,56.4971 701.816,56.4971 C701.085333,56.4971 700.204333,56.3073 699.173,55.9277 C698.149,55.5410333 697.125,54.8929333 696.101,53.9834 L696.101,43.3379 C697.211,42.2207 698.299667,41.4078667 699.367,40.8994 C700.441,40.3838 701.450667,40.126 702.396,40.126 C704.537333,40.126 706.077,40.8528667 707.015,42.3066 C707.953,43.7532667 708.422,45.6510667 708.422,48 C708.422,50.6426 707.799,52.7194333 706.553,54.2305 Z M646.878,46.7217 C647.422667,47.2516333 648.063667,47.5166 648.801,47.5166 C649.531667,47.5166 650.169,47.2516333 650.713,46.7217 C651.257667,46.1917667 651.53,45.4756 651.53,44.5732 C651.53,43.6637333 651.257667,42.9511667 650.713,42.4355 C650.169,41.9199 649.531667,41.6621 648.801,41.6621 C648.063667,41.6621 647.422667,41.9199 646.878,42.4355 C646.341333,42.9511667 646.073,43.6637333 646.073,44.5732 C646.073,45.4756 646.341333,46.1917667 646.878,46.7217 Z M627.385,55.4551 C626.261,56.3789 624.657,56.8408 622.573,56.8408 C620.431667,56.8408 618.716333,56.3359333 617.427,55.3262 C616.138333,54.3164 615.494,53.0345 615.494,51.4805 C615.494,50.0697 615.956,48.8809 616.88,47.9141 C617.803333,46.9473 618.938333,46.0950667 620.285,45.3574 C621.932333,45.916 623.422,46.4459667 624.754,46.9473 C626.086,47.4414333 627.138667,48.0644667 627.912,48.8164 C628.692667,49.5612 629.083,50.5960333 629.083,51.9209 C629.083,53.3531667 628.517,54.5312333 627.385,55.4551 Z M360.625,55.7881 C359.407667,56.3467 358.197333,56.626 356.994,56.626 C355.762667,56.626 354.667,56.3538667 353.707,55.8096 C352.754333,55.2653333 352.278,54.3916333 352.278,53.1885 C352.278,52.2503 352.636333,51.4231333 353.353,50.707 C354.076333,49.9908667 355.311667,49.3893 357.059,48.9023 C358.806333,48.4153667 361.205333,48.0573 364.256,47.8281 L364.256,53.457 C363.052667,54.4524667 361.842333,55.2295 360.625,55.7881 Z M730.225,55.7881 C729.007,56.3467 727.796667,56.626 726.594,56.626 C725.362,56.626 724.266333,56.3538667 723.307,55.8096 C722.354333,55.2653333 721.878,54.3916333 721.878,53.1885 C721.878,52.2503 722.236,51.4231333 722.952,50.707 C723.675333,49.9908667 724.910667,49.3893 726.658,48.9023 C728.405333,48.4153667 730.804333,48.0573 733.855,47.8281 L733.855,53.457 C732.652333,54.4524667 731.442333,55.2295 730.225,55.7881 Z M118.267,58.4951 C118.961667,59.1826333 119.806667,59.5264 120.802,59.5264 C121.797333,59.5264 122.638667,59.1826333 123.326,58.4951 C124.020667,57.8076333 124.368,56.9196333 124.368,55.8311 C124.368,54.7139 124.020667,53.8115333 123.326,53.124 C122.638667,52.4365333 121.797333,52.0928 120.802,52.0928 C119.806667,52.0928 118.961667,52.4365333 118.267,53.124 C117.579667,53.8115333 117.236,54.7139 117.236,55.8311 C117.236,56.9196333 117.579667,57.8076333 118.267,58.4951 Z M276.666,58.4951 C277.360667,59.1826333 278.206,59.5264 279.202,59.5264 C280.197333,59.5264 281.038667,59.1826333 281.726,58.4951 C282.420667,57.8076333 282.768,56.9196333 282.768,55.8311 C282.768,54.7139 282.420667,53.8115333 281.726,53.124 C281.038667,52.4365333 280.197333,52.0928 279.202,52.0928 C278.206,52.0928 277.360667,52.4365333 276.666,53.124 C275.978667,53.8115333 275.635,54.7139 275.635,55.8311 C275.635,56.9196333 275.978667,57.8076333 276.666,58.4951 Z M487.866,58.4951 C488.560667,59.1826333 489.405667,59.5264 490.401,59.5264 C491.396333,59.5264 492.238,59.1826333 492.926,58.4951 C493.620667,57.8076333 493.968,56.9196333 493.968,55.8311 C493.968,54.7139 493.620667,53.8115333 492.926,53.124 C492.238,52.4365333 491.396333,52.0928 490.401,52.0928 C489.405667,52.0928 488.560667,52.4365333 487.866,53.124 C487.178667,53.8115333 486.835,54.7139 486.835,55.8311 C486.835,56.9196333 487.178667,57.8076333 487.866,58.4951 Z M593.466,58.4951 C594.160667,59.1826333 595.005667,59.5264 596.001,59.5264 C596.996333,59.5264 597.838,59.1826333 598.526,58.4951 C599.220667,57.8076333 599.568,56.9196333 599.568,55.8311 C599.568,54.7139 599.220667,53.8115333 598.526,53.124 C597.838,52.4365333 596.996333,52.0928 596.001,52.0928 C595.005667,52.0928 594.160667,52.4365333 593.466,53.124 C592.778667,53.8115333 592.435,54.7139 592.435,55.8311 C592.435,56.9196333 592.778667,57.8076333 593.466,58.4951 Z M1068.67,58.4951 C1069.36333,59.1826333 1070.20667,59.5264 1071.2,59.5264 C1072.19333,59.5264 1073.03333,59.1826333 1073.72,58.4951 C1074.42,57.8076333 1074.77,56.9196333 1074.77,55.8311 C1074.77,54.7139 1074.42,53.8115333 1073.72,53.124 C1073.03333,52.4365333 1072.19333,52.0928 1071.2,52.0928 C1070.20667,52.0928 1069.36333,52.4365333 1068.67,53.124 C1067.97667,53.8115333 1067.63,54.7139 1067.63,55.8311 C1067.63,56.9196333 1067.97667,57.8076333 1068.67,58.4951 Z"/><rect width="100" height="200" x="690" fill="url(#a)" fill-rule="nonzero"/></g></g></svg>