<svg xmlns="http://www.w3.org/2000/svg" width="1300" height="480" viewBox="0 0 1300 480"><g fill="none" fill-rule="evenodd"><rect width="1300" height="480" fill="#FFF"/><g transform="translate(25 28.95)"><g transform="translate(607 49.05)"><path fill="#000" fill-rule="nonzero" d="M.09 5.85.09 7.2 10.17 7.2 10.17 5.85.09 5.85ZM1.2 9.03C1.98 12.57 2.61 17.16 2.76 20.22L3.96 20.04C3.84 16.95 3.18 12.39 2.4 8.82L1.2 9.03ZM3.27.69C4.05 2.1 4.98 3.99 5.37 5.22L6.69 4.71C6.3 3.51 5.37 1.65 4.5.27L3.27.69ZM10.92 15.51 10.92 27.21 12.27 27.21 12.27 16.83 15.54 16.83 15.54 26.91 16.8 26.91 16.8 16.83 20.25 16.83 20.25 26.79 21.51 26.79 21.51 16.83 24.96 16.83 24.96 25.71C24.96 25.98 24.87 26.07 24.63 26.07 24.36 26.07 23.52 26.07 22.53 26.04 22.71 26.4 22.92 26.91 23.01 27.24 24.39 27.24 25.14 27.24 25.68 27 26.19 26.82 26.31 26.43 26.31 25.71L26.31 15.51 18.3 15.51 19.17 12.24 27.03 12.24 27.03 10.89 9.81 10.89 9.81 12.24 17.55 12.24C17.37 13.29 17.13 14.52 16.89 15.51L10.92 15.51ZM11.25 1.5 11.25 8.28 25.95 8.28 25.95 1.5 24.54 1.5 24.54 6.93 19.02 6.93 19.02 0 17.61 0 17.61 6.93 12.63 6.93 12.63 1.5 11.25 1.5ZM7.68 8.52C7.26 12.3 6.42 17.88 5.61 21.21 3.48 21.75 1.5 22.26 0 22.59L.39 24.06C3.18 23.31 6.87 22.35 10.47 21.39L10.29 20.01 6.84 20.88C7.65 17.55 8.46 12.51 9.03 8.79L7.68 8.52ZM32.61 3.21 32.61 26.4 34.11 26.4 34.11 23.76 52.86 23.76 52.86 26.19 54.39 26.19 54.39 3.21 32.61 3.21ZM34.11 22.26 34.11 4.65 52.86 4.65 52.86 22.26 34.11 22.26Z" transform="translate(52.56 106.01)"/><path fill="#F7B500" d="M7.6916556,74 C5.01709938,74 4.04724067,73.7215232 3.06946289,73.1986019 C2.09168511,72.6756806 1.32431939,71.9083149 0.801398111,70.9305371 C0.278476833,69.9527593 1.2037061e-16,68.9829006 -2.07168062e-16,66.3083444 L2.07168062e-16,7.6916556 C-1.2037061e-16,5.01709938 0.278476833,4.04724067 0.801398111,3.06946289 C1.32431939,2.09168511 2.09168511,1.32431939 3.06946289,0.801398111 C4.04724067,0.278476833 5.01709938,1.80555915e-16 7.6916556,-3.10752092e-16 L46.3083444,3.10752092e-16 C48.9829006,-1.80555915e-16 49.9527593,0.278476833 50.9305371,0.801398111 C51.9083149,1.32431939 52.6756806,2.09168511 53.1986019,3.06946289 C53.7215232,4.04724067 54,5.01709938 54,7.6916556 L54,66.3083444 C54,68.9829006 53.7215232,69.9527593 53.1986019,70.9305371 C52.6756806,71.9083149 51.9083149,72.6756806 50.9305371,73.1986019 C49.9527593,73.7215232 48.9829006,74 46.3083444,74 L16,74 L16,116 L21.999,116 L22,104 L46,119 L22,134 L21.999,122 L10,122 L10,74 L7.6916556,74 Z" opacity=".5"/></g><g transform="translate(0 51.05)"><path fill="#000" fill-rule="nonzero" d="M12.06.63C12.84 2.1 13.77 4.02 14.13 5.25L15.6 4.62C15.15 3.39 14.25 1.5 13.41.06L12.06.63ZM.72 5.55.72 6.96 9.27 6.96C8.88 14.13 8.01 22.5 0 26.34.36 26.61.84 27.09 1.08 27.45 6.9 24.54 9.12 19.38 10.11 13.89L21.57 13.89C21.03 21.54 20.4 24.57 19.5 25.41 19.14 25.68 18.78 25.74 18.09 25.74 17.34 25.74 15.24 25.71 13.02 25.53 13.32 25.92 13.5 26.52 13.53 26.94 15.57 27.09 17.52 27.15 18.51 27.09 19.56 27.06 20.16 26.88 20.7 26.28 21.84 25.17 22.47 21.93 23.1 13.26 23.13 13.02 23.16 12.45 23.16 12.45L10.32 12.45C10.59 10.62 10.71 8.76 10.83 6.96L26.25 6.96 26.25 5.55.72 5.55ZM30.09 18.33 30.09 19.65 41.19 19.65C38.49 22.32 33.84 24.72 29.64 25.74 29.97 26.01 30.39 26.55 30.6 26.91 34.98 25.71 39.9 22.92 42.63 19.8L42.63 27.39 44.07 27.39 44.07 19.65C46.83 22.89 51.93 25.74 56.4 27 56.64 26.64 57.06 26.1 57.39 25.8 53.16 24.75 48.42 22.41 45.69 19.65L56.76 19.65 56.76 18.33 44.07 18.33 44.07 15.6 42.63 15.6 42.63 18.33 30.09 18.33ZM41.79.48C42.24 1.08 42.78 1.86 43.17 2.52L30.96 2.52 30.96 6.69 32.37 6.69 32.37 3.81 54.63 3.81 54.63 6.69 56.04 6.69 56.04 2.52 44.67 2.52C44.28 1.8 43.59.75 42.96 0L41.79.48ZM49.05 8.79C47.91 10.44 46.26 11.73 44.04 12.69 41.7 12.24 39.27 11.82 36.81 11.43 37.62 10.68 38.55 9.75 39.45 8.79L49.05 8.79ZM34.44 12.21C37.02 12.6 39.51 13.05 41.88 13.5 38.82 14.46 34.95 15 30.27 15.24 30.54 15.57 30.75 16.11 30.87 16.53 36.36 16.14 40.83 15.39 44.28 13.98 48.33 14.85 51.84 15.75 54.39 16.65L55.68 15.6C53.16 14.76 49.83 13.92 46.08 13.11 48.15 12 49.68 10.59 50.7 8.79L56.49 8.79 56.49 7.53 40.59 7.53C41.31 6.69 41.97 5.85 42.54 5.04L41.25 4.62C40.65 5.52 39.87 6.54 39.03 7.53L30.48 7.53 30.48 8.79 37.89 8.79C36.75 10.05 35.52 11.28 34.44 12.21Z" transform="translate(62.59 103.83)"/><path fill="#6DD400" d="M104.308344,3.10752092e-16 C106.982901,-1.80555915e-16 107.952759,0.278476833 108.930537,0.801398111 C109.908315,1.32431939 110.675681,2.09168511 111.198602,3.06946289 C111.721523,4.04724067 112,5.01709938 112,7.6916556 L112,66.3083444 C112,68.9829006 111.721523,69.9527593 111.198602,70.9305371 C110.675681,71.9083149 109.908315,72.6756806 108.930537,73.1986019 C107.952759,73.7215232 106.982901,74 104.308344,74 L16,74 L16,115 L31.999,115 L32,103 L56,118 L32,133 L31.999,121 L10,121 L10,74 L7.6916556,74 C5.01709938,74 4.04724067,73.7215232 3.06946289,73.1986019 C2.09168511,72.6756806 1.32431939,71.9083149 0.801398111,70.9305371 C0.278476833,69.9527593 1.2037061e-16,68.9829006 -2.07168062e-16,66.3083444 L2.07168062e-16,7.6916556 C-1.2037061e-16,5.01709938 0.278476833,4.04724067 0.801398111,3.06946289 C1.32431939,2.09168511 2.09168511,1.32431939 3.06946289,0.801398111 C4.04724067,0.278476833 5.01709938,1.80555915e-16 7.6916556,-3.10752092e-16 L104.308344,3.10752092e-16 Z" opacity=".5"/></g><g transform="translate(665 49.05)"><path fill="#FA6400" d="M7.6916556,74 C5.01709938,74 4.04724067,73.7215232 3.06946289,73.1986019 C2.09168511,72.6756806 1.32431939,71.9083149 0.801398111,70.9305371 C0.278476833,69.9527593 1.2037061e-16,68.9829006 -2.07168062e-16,66.3083444 L2.07168062e-16,7.6916556 C-1.2037061e-16,5.01709938 0.278476833,4.04724067 0.801398111,3.06946289 C1.32431939,2.09168511 2.09168511,1.32431939 3.06946289,0.801398111 C4.04724067,0.278476833 5.01709938,1.80555915e-16 7.6916556,-3.10752092e-16 L523.308344,3.10752092e-16 C525.982901,-1.80555915e-16 526.952759,0.278476833 527.930537,0.801398111 C528.908315,1.32431939 529.675681,2.09168511 530.198602,3.06946289 C530.721523,4.04724067 531,5.01709938 531,7.6916556 L531,66.3083444 C531,68.9829006 530.721523,69.9527593 530.198602,70.9305371 C529.675681,71.9083149 528.908315,72.6756806 527.930537,73.1986019 C526.952759,73.7215232 525.982901,74 523.308344,74 L66,74 L66,116 L81.999,116 L82,104 L106,119 L82,134 L81.999,122 L60,122 L60,74 L7.6916556,74 Z" opacity=".5"/><path fill="#000" fill-rule="nonzero" d="M1.2 2.34C3.48 3.15 6.21 4.5 7.62 5.58L8.37 4.38C6.96 3.33 4.2 2.04 1.95 1.32L1.2 2.34ZM0 10.56.42 11.91C2.76 11.13 5.85 10.17 8.82 9.24L8.61 7.92C5.37 8.94 2.16 9.93 0 10.56ZM4.2 13.95 4.2 22.38 5.64 22.38 5.64 15.33 21.45 15.33 21.45 22.23 22.92 22.23 22.92 13.95 4.2 13.95ZM13.08 16.29C12.24 21.99 9.72 24.93.18 26.16.42 26.46.75 27 .84 27.33 10.71 25.95 13.56 22.71 14.55 16.29L13.08 16.29ZM14.04 22.35C17.94 23.64 22.89 25.74 25.47 27.15L26.25 25.89C23.64 24.48 18.69 22.47 14.82 21.24L14.04 22.35ZM13.32.06C12.48 2.13 10.83 4.74 8.31 6.63 8.67 6.81 9.12 7.2 9.36 7.53 10.62 6.51 11.67 5.34 12.54 4.14L16.83 4.14C15.87 7.56 13.62 10.59 8.07 12.03 8.37 12.24 8.73 12.75 8.91 13.08 13.14 11.88 15.6 9.84 17.04 7.29 18.99 9.93 22.26 11.97 25.8 12.93 26.01 12.54 26.4 12.06 26.7 11.79 22.92 10.92 19.38 8.79 17.64 6.12 17.91 5.49 18.15 4.83 18.33 4.14L23.85 4.14C23.25 5.25 22.56 6.36 22.02 7.14L23.28 7.56C24.09 6.45 25.02 4.74 25.89 3.18L24.87 2.85 24.6 2.91 13.35 2.91C13.89 2.01 14.34 1.11 14.7.24L13.32.06ZM43.62 12.39 54.09 12.39 54.09 15.63 43.62 15.63 43.62 12.39ZM43.62 8.01 54.09 8.01 54.09 11.19 43.62 11.19 43.62 8.01ZM43.65 18.81C42.69 20.94 41.25 23.04 39.78 24.57 40.11 24.75 40.74 25.14 40.98 25.38 42.42 23.82 43.95 21.42 45 19.2L43.65 18.81ZM52.14 19.17C53.46 21.06 55.05 23.58 55.8 25.08L57.15 24.42C56.31 23.01 54.72 20.52 53.4 18.66L52.14 19.17ZM31.2 1.38C32.91 2.46 35.16 3.99 36.27 4.95L37.14 3.78C36 2.91 33.78 1.44 32.1.42L31.2 1.38ZM29.73 9.48C31.47 10.44 33.72 11.88 34.89 12.75L35.76 11.58C34.56 10.74 32.28 9.39 30.57 8.46L29.73 9.48ZM30.48 25.95 31.77 26.82C33.24 24.12 35.1 20.25 36.42 17.1L35.28 16.26C33.87 19.59 31.89 23.64 30.48 25.95ZM38.7 1.41 38.7 9.63C38.7 14.61 38.34 21.39 34.92 26.31 35.25 26.46 35.85 26.82 36.12 27.09 39.66 22.02 40.14 14.79 40.14 9.63L40.14 2.79 56.79 2.79 56.79 1.41 38.7 1.41ZM48.06 3.51C47.88 4.44 47.49 5.73 47.16 6.75L42.27 6.75 42.27 16.86 48.03 16.86 48.03 25.53C48.03 25.89 47.91 25.98 47.52 26.01 47.1 26.01 45.78 26.04 44.13 25.98 44.31 26.37 44.49 26.91 44.58 27.27 46.65 27.3 47.88 27.3 48.57 27.03 49.26 26.82 49.44 26.4 49.44 25.56L49.44 16.86 55.47 16.86 55.47 6.75 48.51 6.75C48.9 5.91 49.26 4.86 49.62 3.9L48.06 3.51ZM62.64 2.67 69.3 2.67 69.3 8.82 62.64 8.82 62.64 2.67ZM59.73 24.18 60.03 25.62C63.06 24.87 67.23 23.85 71.28 22.83L71.13 21.51 66.93 22.53 66.93 16.32 70.92 16.32 70.92 14.97 66.93 14.97 66.93 10.14 70.65 10.14 70.65 9.81C71.01 10.05 71.55 10.47 71.73 10.71 72.93 9.51 74.04 8.04 75.03 6.39 75.84 8.01 76.95 9.78 78.33 11.46 75.93 14.01 72.99 15.93 70.2 17.04 70.5 17.31 70.92 17.85 71.1 18.18 71.91 17.82 72.75 17.43 73.56 16.95L73.56 27.24 74.91 27.24 74.91 26.07 83.58 26.07 83.58 27.15 84.99 27.15 84.99 17.1C85.47 17.37 85.95 17.61 86.46 17.85 86.67 17.46 87.09 16.92 87.39 16.65 84.51 15.45 82.08 13.62 80.13 11.55 82.05 9.3 83.67 6.63 84.69 3.54L83.76 3.15 83.46 3.21 76.68 3.21C77.1 2.28 77.46 1.32 77.79.33L76.41 0C75.18 3.78 73.14 7.35 70.65 9.66L70.65 1.35 61.29 1.35 61.29 10.14 65.55 10.14 65.55 22.86 62.7 23.52 62.7 13.38 61.41 13.38 61.41 23.82 59.73 24.18ZM74.91 24.75 74.91 17.88 83.58 17.88 83.58 24.75 74.91 24.75ZM82.83 4.53C81.96 6.75 80.7 8.76 79.2 10.5 77.73 8.73 76.56 6.87 75.78 5.1L76.05 4.53 82.83 4.53ZM74.16 16.59C75.96 15.51 77.67 14.13 79.26 12.51 80.64 14.01 82.26 15.42 84.12 16.59L74.16 16.59ZM96.45.12C95.16 2.28 92.58 4.8 90.27 6.45 90.54 6.72 90.93 7.26 91.11 7.59 93.6 5.82 96.24 3.12 97.83.63L96.45.12ZM99.78 1.68 99.78 3.06 112.08 3.06C109.02 7.47 103.02 11.07 97.89 12.84 98.19 13.11 98.58 13.65 98.76 13.98 101.64 12.93 104.76 11.4 107.55 9.45 110.58 10.71 114.24 12.54 116.13 13.77L116.94 12.51C115.11 11.37 111.69 9.75 108.78 8.52 111.09 6.72 113.07 4.62 114.39 2.22L113.34 1.62 113.04 1.68 99.78 1.68ZM99.75 15.18 99.75 16.56 106.71 16.56 106.71 24.99 97.8 24.99 97.8 26.37 117 26.37 117 24.99 108.18 24.99 108.18 16.56 115.11 16.56 115.11 15.18 99.75 15.18ZM96.81 6.72C95.16 9.96 92.43 13.11 89.76 15.15 90.06 15.48 90.54 16.14 90.72 16.44 91.89 15.42 93.12 14.19 94.26 12.84L94.26 27.27 95.7 27.27 95.7 11.04C96.6 9.81 97.44 8.52 98.13 7.23L96.81 6.72Z" transform="translate(112.59 105.95)"/></g><g transform="translate(185 49.05)"><path fill="#44D7B6" d="M7.6916556,74 C5.01709938,74 4.04724067,73.7215232 3.06946289,73.1986019 C2.09168511,72.6756806 1.32431939,71.9083149 0.801398111,70.9305371 C0.278476833,69.9527593 -1.43077765e-16,68.9829006 2.46249008e-16,66.3083444 L6.60585131e-16,7.6916556 C-3.83818985e-16,5.01709938 0.278476833,4.04724067 0.801398111,3.06946289 C1.32431939,2.09168511 2.09168511,1.32431939 3.06946289,0.801398111 C4.04724067,0.278476833 5.01709938,-8.28924603e-17 7.6916556,1.42664977e-16 L394.308344,-1.57632428e-14 C396.982901,9.15889802e-15 397.952759,0.278476833 398.930537,0.801398111 C399.908315,1.32431939 400.675681,2.09168511 401.198602,3.06946289 C401.721523,4.04724067 402,5.01709938 402,7.6916556 L402,66.3083444 C402,68.9829006 401.721523,69.9527593 401.198602,70.9305371 C400.675681,71.9083149 399.908315,72.6756806 398.930537,73.1986019 C397.952759,73.7215232 396.982901,74 394.308344,74 L36,74 L36,116 L51.999,116 L52,104 L76,119 L52,134 L51.999,122 L30,122 L30,74 L7.6916556,74 Z" opacity=".5"/><path fill="#000" fill-rule="nonzero" d="M7.53 22.5 7.95 23.91C10.86 23.04 14.73 21.87 18.48 20.76L18.3 19.5C14.34 20.64 10.2 21.81 7.53 22.5ZM21.87.93C23.28 1.89 24.9 3.3 25.71 4.26L26.64 3.33C25.83 2.4 24.15 1.08 22.74.15L21.87.93ZM10.68 10.62 15.54 10.62 15.54 16.53 10.68 16.53 10.68 10.62ZM9.45 9.36 9.45 17.79 16.83 17.79 16.83 9.36 9.45 9.36ZM0 21.57.57 23.01C2.88 21.96 5.79 20.55 8.61 19.23L8.25 17.91 5.01 19.41 5.01 8.85 8.01 8.85 8.01 7.47 5.01 7.47 5.01.36 3.63.36 3.63 7.47.18 7.47.18 8.85 3.63 8.85 3.63 20.04C2.25 20.64 1.02 21.18 0 21.57ZM25.02 9.36C24.15 12.6 22.95 15.54 21.42 18.09 20.91 14.91 20.55 10.8 20.4 6.03L27.03 6.03 27.03 4.68 20.37 4.68 20.31.06 18.87.06 18.96 4.68 8.55 4.68 8.55 6.03 18.99 6.03C19.2 11.43 19.59 16.2 20.31 19.8 18.57 22.29 16.44 24.39 13.92 25.98 14.25 26.22 14.82 26.73 15 27 17.19 25.5 19.08 23.67 20.7 21.54 21.63 25.14 22.95 27.27 24.84 27.27 26.49 27.27 26.97 25.92 27.24 21.93 26.91 21.81 26.4 21.51 26.1 21.21 25.98 24.6 25.68 25.86 24.96 25.86 23.64 25.86 22.56 23.76 21.78 20.04 23.76 17.1 25.29 13.65 26.4 9.66L25.02 9.36ZM37.17 8.73C38.91 9.9 40.95 11.52 42.3 12.81 38.55 14.91 34.35 16.38 30.51 17.19 30.81 17.52 31.17 18.15 31.29 18.51 33 18.12 34.8 17.61 36.57 16.95L36.57 27.3 38.01 27.3 38.01 25.59 52.62 25.59 52.62 27.27 54.09 27.27 54.09 15.24 40.65 15.24C46.14 12.6 51.18 8.7 53.88 3.6L52.98 3 52.71 3.09 40.98 3.09C41.79 2.16 42.48 1.23 43.08.33L41.4 0C39.63 2.91 36.12 6.39 31.26 8.85 31.59 9.09 32.07 9.57 32.28 9.9 35.25 8.34 37.71 6.45 39.69 4.47L51.75 4.47C49.86 7.44 46.98 9.99 43.65 12.03 42.27 10.74 40.05 9.09 38.25 7.89L37.17 8.73ZM52.62 24.18 38.01 24.18 38.01 16.65 52.62 16.65 52.62 24.18Z" transform="translate(82.23 105.92)"/></g><g fill="#000" transform="translate(185)"><path d="M5,24.05 L0,24.05 L0,3.05 L5,3.05 L5,12.05 L186,12.05 L186,17.05 L5,17.05 L5,24.05 Z M476,5.05 L476,26.05 L471,26.05 L471,19.05 L290,19.05 L290,14.05 L471,14.05 L471,5.05 L476,5.05 Z"/><path fill-rule="nonzero" d="M25.56 4.35C24.48 10.17 22.41 14.91 19.71 18.51 17.01 14.73 15.45 10.17 14.4 4.35L25.56 4.35ZM11.76 2.94 11.76 4.35 13.08 4.35C14.19 10.71 15.81 15.6 18.75 19.71 16.26 22.68 13.32 24.81 10.2 26.07 10.53 26.34 10.92 26.94 11.1 27.27 14.22 25.89 17.13 23.79 19.65 20.88 21.57 23.31 24.03 25.44 27.15 27.45 27.36 27 27.81 26.55 28.23 26.28 25.02 24.3 22.56 22.14 20.58 19.71 23.7 15.66 26.04 10.23 27.15 3.18L26.25 2.85 25.98 2.94 11.76 2.94ZM6 0 6 6.63.75 6.63.75 8.04 5.49 8.04C4.38 12.51 2.13 17.55 0 20.13.27 20.46.69 21.03.9 21.45 2.82 19.05 4.77 14.64 6 10.47L6 27.21 7.44 27.21 7.44 10.89C8.76 12.6 10.83 15.45 11.55 16.65L12.51 15.36C11.76 14.37 8.34 10.05 7.44 9.12L7.44 8.04 11.79 8.04 11.79 6.63 7.44 6.63 7.44 0 6 0ZM32.28 1.29 32.28 27.24 33.6 27.24 33.6 2.64 38.91 2.64C38.16 4.71 37.11 7.38 36.06 9.75 38.49 12.3 39.09 14.43 39.09 16.23 39.09 17.16 38.94 18.09 38.43 18.48 38.13 18.66 37.8 18.72 37.41 18.75 36.87 18.81 36.15 18.78 35.4 18.72 35.67 19.11 35.82 19.71 35.85 20.04 36.48 20.1 37.26 20.1 37.89 20.04 38.46 19.98 39 19.8 39.36 19.53 40.14 18.99 40.47 17.73 40.47 16.29 40.47 14.37 39.87 12.15 37.5 9.57 38.58 7.14 39.75 4.23 40.71 1.83L39.75 1.23 39.48 1.29 32.28 1.29ZM54.15 8.43 54.15 12.9 44.01 12.9 44.01 8.43 54.15 8.43ZM54.15 7.14 44.01 7.14 44.01 2.76 54.15 2.76 54.15 7.14ZM42.33 27.24C42.84 26.91 43.68 26.64 50.04 24.81 49.98 24.51 49.95 23.91 49.95 23.49L44.01 24.99 44.01 14.22 47.52 14.22C49.08 20.25 52.17 24.87 57 27 57.24 26.58 57.69 26.04 58.02 25.74 55.35 24.72 53.22 22.89 51.63 20.49 53.43 19.44 55.71 17.97 57.36 16.59L56.37 15.6C55.02 16.8 52.77 18.33 50.94 19.41 50.07 17.85 49.38 16.11 48.87 14.22L55.56 14.22 55.56 1.41 42.57 1.41 42.57 24.09C42.57 25.26 42 25.74 41.64 25.95 41.88 26.28 42.21 26.91 42.33 27.24Z" transform="translate(208.75)"/></g><g fill="#000" fill-rule="nonzero" transform="translate(7.048 63.53)"><path d="M0 36.52 0 4.4 3.96 4.4 3.96 12.32 3.96 16.94 4.796 16.94 3.96 17.864C3.96 15.9573333 4.532 14.4833333 5.676 13.442 6.82 12.4006667 8.404 11.88 10.428 11.88 12.8626667 11.88 14.7986667 12.628 16.236 14.124 17.6733333 15.62 18.392 17.6586667 18.392 20.24L18.392 36.52 14.432 36.52 14.432 20.68C14.432 18.9493333 13.97 17.6073333 13.046 16.654 12.122 15.7006667 10.868 15.224 9.284 15.224 7.64133333 15.224 6.34333333 15.7373333 5.39 16.764 4.43666667 17.7906667 3.96 19.2426667 3.96 21.12L3.96 36.52 0 36.52ZM38.192 36.52C36.1973333 36.52 34.5986667 35.9406667 33.396 34.782 32.1933333 33.6233333 31.592 32.076 31.592 30.14L31.592 15.928 24.772 15.928 24.772 12.32 31.592 12.32 31.592 5.5 35.552 5.5 35.552 12.32 45.232 12.32 45.232 15.928 35.552 15.928 35.552 30.14C35.552 30.9613333 35.794 31.6286667 36.278 32.142 36.762 32.6553333 37.4 32.912 38.192 32.912L44.792 32.912 44.792 36.52 38.192 36.52ZM64.592 36.52C62.5973333 36.52 60.9986667 35.9406667 59.796 34.782 58.5933333 33.6233333 57.992 32.076 57.992 30.14L57.992 15.928 51.172 15.928 51.172 12.32 57.992 12.32 57.992 5.5 61.952 5.5 61.952 12.32 71.632 12.32 71.632 15.928 61.952 15.928 61.952 30.14C61.952 30.9613333 62.194 31.6286667 62.678 32.142 63.162 32.6553333 63.8 32.912 64.592 32.912L71.192 32.912 71.192 36.52 64.592 36.52ZM79.244 44.44 79.244 12.32 83.204 12.32 83.204 16.94 83.996 16.94 83.204 17.864C83.204 16.016 83.8126667 14.5566667 85.03 13.486 86.2473333 12.4153333 87.8533333 11.88 89.848 11.88 92.2826667 11.88 94.226 12.6793333 95.678 14.278 97.13 15.8766667 97.856 18.0693333 97.856 20.856L97.856 27.94C97.856 29.788 97.526 31.3866667 96.866 32.736 96.206 34.0853333 95.282 35.1266667 94.094 35.86 92.906 36.5933333 91.4906667 36.96 89.848 36.96 87.8826667 36.96 86.284 36.4173333 85.052 35.332 83.82 34.2466667 83.204 32.7946667 83.204 30.976L83.996 31.9 83.116 31.9 83.204 37.4 83.204 44.44 79.244 44.44ZM88.528 33.528C90.2 33.528 91.5126667 33.0293333 92.466 32.032 93.4193333 31.0346667 93.896 29.5973333 93.896 27.72L93.896 21.12C93.896 19.2426667 93.4193333 17.8053333 92.466 16.808 91.5126667 15.8106667 90.2 15.312 88.528 15.312 86.9146667 15.312 85.624 15.8253333 84.656 16.852 83.688 17.8786667 83.204 19.3013333 83.204 21.12L83.204 27.72C83.204 29.5386667 83.688 30.9613333 84.656 31.988 85.624 33.0146667 86.9146667 33.528 88.528 33.528ZM114.752 18.48C113.666667 18.48 112.786667 18.1793333 112.112 17.578 111.437333 16.9766667 111.1 16.1773333 111.1 15.18 111.1 14.1826667 111.437333 13.3833333 112.112 12.782 112.786667 12.1806667 113.666667 11.88 114.752 11.88 115.866667 11.88 116.754 12.1806667 117.414 12.782 118.074 13.3833333 118.404 14.1826667 118.404 15.18 118.404 16.1773333 118.074 16.9766667 117.414 17.578 116.754 18.1793333 115.866667 18.48 114.752 18.48ZM114.752 36.96C113.666667 36.96 112.786667 36.6593333 112.112 36.058 111.437333 35.4566667 111.1 34.6573333 111.1 33.66 111.1 32.6626667 111.437333 31.8633333 112.112 31.262 112.786667 30.6606667 113.666667 30.36 114.752 30.36 115.866667 30.36 116.754 30.6606667 117.414 31.262 118.074 31.8633333 118.404 32.6626667 118.404 33.66 118.404 34.6573333 118.074 35.4566667 117.414 36.058 116.754 36.6593333 115.866667 36.96 114.752 36.96ZM154.352 41.36 169.972 0 174.152 0 158.532 41.36 154.352 41.36ZM134.552 41.36 150.172 0 154.352 0 138.732 41.36 134.552 41.36ZM186.164 36.52 182.292 12.32 185.724 12.32 188.144 29.48C188.232 30.1253333 188.32 30.822 188.408 31.57 188.496 32.318 188.554667 32.9413333 188.584 33.44L188.76 33.44C188.818667 32.9413333 188.892 32.318 188.98 31.57 189.068 30.822 189.170667 30.1253333 189.288 29.48L191.972 12.32 195.932 12.32 198.616 29.48C198.733333 30.1253333 198.843333 30.822 198.946 31.57 199.048667 32.318 199.114667 32.9413333 199.144 33.44L199.32 33.44C199.378667 32.9413333 199.459333 32.318 199.562 31.57 199.664667 30.822 199.76 30.1253333 199.848 29.48L202.356 12.32 205.612 12.32 201.564 36.52 197.208 36.52 194.612 19.8C194.494667 18.9786667 194.377333 18.1573333 194.26 17.336 194.142667 16.5146667 194.054667 15.8693333 193.996 15.4L193.82 15.4C193.790667 15.8693333 193.724667 16.5146667 193.622 17.336 193.519333 18.1573333 193.394667 18.9786667 193.248 19.8L190.52 36.52 186.164 36.52ZM212.564 36.52 208.692 12.32 212.124 12.32 214.544 29.48C214.632 30.1253333 214.72 30.822 214.808 31.57 214.896 32.318 214.954667 32.9413333 214.984 33.44L215.16 33.44C215.218667 32.9413333 215.292 32.318 215.38 31.57 215.468 30.822 215.570667 30.1253333 215.688 29.48L218.372 12.32 222.332 12.32 225.016 29.48C225.133333 30.1253333 225.243333 30.822 225.346 31.57 225.448667 32.318 225.514667 32.9413333 225.544 33.44L225.72 33.44C225.778667 32.9413333 225.859333 32.318 225.962 31.57 226.064667 30.822 226.16 30.1253333 226.248 29.48L228.756 12.32 232.012 12.32 227.964 36.52 223.608 36.52 221.012 19.8C220.894667 18.9786667 220.777333 18.1573333 220.66 17.336 220.542667 16.5146667 220.454667 15.8693333 220.396 15.4L220.22 15.4C220.190667 15.8693333 220.124667 16.5146667 220.022 17.336 219.919333 18.1573333 219.794667 18.9786667 219.648 19.8L216.92 36.52 212.564 36.52ZM238.964 36.52 235.092 12.32 238.524 12.32 240.944 29.48C241.032 30.1253333 241.12 30.822 241.208 31.57 241.296 32.318 241.354667 32.9413333 241.384 33.44L241.56 33.44C241.618667 32.9413333 241.692 32.318 241.78 31.57 241.868 30.822 241.970667 30.1253333 242.088 29.48L244.772 12.32 248.732 12.32 251.416 29.48C251.533333 30.1253333 251.643333 30.822 251.746 31.57 251.848667 32.318 251.914667 32.9413333 251.944 33.44L252.12 33.44C252.178667 32.9413333 252.259333 32.318 252.362 31.57 252.464667 30.822 252.56 30.1253333 252.648 29.48L255.156 12.32 258.412 12.32 254.364 36.52 250.008 36.52 247.412 19.8C247.294667 18.9786667 247.177333 18.1573333 247.06 17.336 246.942667 16.5146667 246.854667 15.8693333 246.796 15.4L246.62 15.4C246.590667 15.8693333 246.524667 16.5146667 246.422 17.336 246.319333 18.1573333 246.194667 18.9786667 246.048 19.8L243.32 36.52 238.964 36.52ZM273.152 36.96C272.037333 36.96 271.15 36.6373333 270.49 35.992 269.83 35.3466667 269.5 34.4813333 269.5 33.396 269.5 32.252 269.83 31.3426667 270.49 30.668 271.15 29.9933333 272.037333 29.656 273.152 29.656 274.266667 29.656 275.154 29.9933333 275.814 30.668 276.474 31.3426667 276.804 32.252 276.804 33.396 276.804 34.4813333 276.474 35.3466667 275.814 35.992 275.154 36.6373333 274.266667 36.96 273.152 36.96ZM299.552 36.96C297.645333 36.96 295.980667 36.5786667 294.558 35.816 293.135333 35.0533333 292.035333 33.9753333 291.258 32.582 290.480667 31.1886667 290.092 29.568 290.092 27.72L290.092 21.12C290.092 19.2426667 290.480667 17.6146667 291.258 16.236 292.035333 14.8573333 293.135333 13.7866667 294.558 13.024 295.980667 12.2613333 297.645333 11.88 299.552 11.88 301.458667 11.88 303.123333 12.2613333 304.546 13.024 305.968667 13.7866667 307.068667 14.8573333 307.846 16.236 308.623333 17.6146667 309.012 19.2426667 309.012 21.12L309.012 25.388 293.964 25.388 293.964 27.72C293.964 29.6266667 294.448 31.086 295.416 32.098 296.384 33.11 297.762667 33.616 299.552 33.616 301.077333 33.616 302.309333 33.3446667 303.248 32.802 304.186667 32.2593333 304.758667 31.4453333 304.964 30.36L308.924 30.36C308.66 32.384 307.67 33.99 305.954 35.178 304.238 36.366 302.104 36.96 299.552 36.96ZM305.14 22.748 305.14 21.12C305.14 19.2133333 304.663333 17.7466667 303.71 16.72 302.756667 15.6933333 301.370667 15.18 299.552 15.18 297.762667 15.18 296.384 15.6933333 295.416 16.72 294.448 17.7466667 293.964 19.2133333 293.964 21.12L293.964 22.396 305.448 22.396 305.14 22.748ZM314.952 36.52 323.532 24.068 315.48 12.32 320.144 12.32 324.94 19.8C325.145333 20.1226667 325.343333 20.4746667 325.534 20.856 325.724667 21.2373333 325.878667 21.5453333 325.996 21.78 326.084 21.5453333 326.223333 21.2373333 326.414 20.856 326.604667 20.4746667 326.802667 20.1226667 327.008 19.8L331.848 12.32 336.468 12.32 328.416 24.112 336.952 36.52 332.288 36.52 327.096 28.6C326.890667 28.2773333 326.692667 27.9033333 326.502 27.478 326.311333 27.0526667 326.142667 26.708 325.996 26.444 325.878667 26.708 325.71 27.0526667 325.49 27.478 325.27 27.9033333 325.042667 28.2773333 324.808 28.6L319.572 36.52 314.952 36.52ZM350.24 36.96C347.688 36.96 345.678667 36.3073333 344.212 35.002 342.745333 33.6966667 342.012 31.9293333 342.012 29.7 342.012 27.4413333 342.745333 25.6666667 344.212 24.376 345.678667 23.0853333 347.658667 22.44 350.152 22.44L357.632 22.44 357.632 20.02C357.632 18.5533333 357.184667 17.4093333 356.29 16.588 355.395333 15.7666667 354.156 15.356 352.572 15.356 351.164 15.356 349.976 15.664 349.008 16.28 348.04 16.896 347.438667 17.7026667 347.204 18.7L343.244 18.7C343.390667 17.3506667 343.882 16.1626667 344.718 15.136 345.554 14.1093333 346.654 13.31 348.018 12.738 349.382 12.166 350.9 11.88 352.572 11.88 355.358667 11.88 357.558667 12.5986667 359.172 14.036 360.785333 15.4733333 361.592 17.424 361.592 19.888L361.592 36.52 357.72 36.52 357.72 31.9 357.06 31.9 357.72 31.24C357.72 33 357.038 34.3933333 355.674 35.42 354.31 36.4466667 352.498667 36.96 350.24 36.96ZM351.208 33.836C353.085333 33.836 354.625333 33.3666667 355.828 32.428 357.030667 31.4893333 357.632 30.2866667 357.632 28.82L357.632 25.388 350.24 25.388C348.92 25.388 347.878667 25.7546667 347.116 26.488 346.353333 27.2213333 345.972 28.2186667 345.972 29.48 345.972 30.8293333 346.434 31.8926667 347.358 32.67 348.282 33.4473333 349.565333 33.836 351.208 33.836ZM368.192 36.52 368.192 12.32 371.668 12.32 371.668 15.224 372.46 15.224 371.844 16.28C371.844 14.9893333 372.225333 13.9333333 372.988 13.112 373.750667 12.2906667 374.748 11.88 375.98 11.88 377.270667 11.88 378.319333 12.408 379.126 13.464 379.932667 14.52 380.336 15.8986667 380.336 17.6L379.148 15.224 380.996 15.224 380.16 16.28C380.16 14.9893333 380.548667 13.9333333 381.326 13.112 382.103333 12.2906667 383.122667 11.88 384.384 11.88 385.850667 11.88 387.038667 12.4593333 387.948 13.618 388.857333 14.7766667 389.312 16.28 389.312 18.128L389.312 36.52 385.66 36.52 385.66 18.084C385.66 17.0573333 385.432667 16.2726667 384.978 15.73 384.523333 15.1873333 383.870667 14.916 383.02 14.916 382.169333 14.916 381.509333 15.1873333 381.04 15.73 380.570667 16.2726667 380.336 17.0426667 380.336 18.04L380.336 36.52 377.168 36.52 377.168 18.084C377.168 17.0573333 376.926 16.2726667 376.442 15.73 375.958 15.1873333 375.290667 14.916 374.44 14.916 373.618667 14.916 372.980667 15.1873333 372.526 15.73 372.071333 16.2726667 371.844 17.0426667 371.844 18.04L371.844 36.52 368.192 36.52ZM396.044 44.44 396.044 12.32 400.004 12.32 400.004 16.94 400.796 16.94 400.004 17.864C400.004 16.016 400.612667 14.5566667 401.83 13.486 403.047333 12.4153333 404.653333 11.88 406.648 11.88 409.082667 11.88 411.026 12.6793333 412.478 14.278 413.93 15.8766667 414.656 18.0693333 414.656 20.856L414.656 27.94C414.656 29.788 414.326 31.3866667 413.666 32.736 413.006 34.0853333 412.082 35.1266667 410.894 35.86 409.706 36.5933333 408.290667 36.96 406.648 36.96 404.682667 36.96 403.084 36.4173333 401.852 35.332 400.62 34.2466667 400.004 32.7946667 400.004 30.976L400.796 31.9 399.916 31.9 400.004 37.4 400.004 44.44 396.044 44.44ZM405.328 33.528C407 33.528 408.312667 33.0293333 409.266 32.032 410.219333 31.0346667 410.696 29.5973333 410.696 27.72L410.696 21.12C410.696 19.2426667 410.219333 17.8053333 409.266 16.808 408.312667 15.8106667 407 15.312 405.328 15.312 403.714667 15.312 402.424 15.8253333 401.456 16.852 400.488 17.8786667 400.004 19.3013333 400.004 21.12L400.004 27.72C400.004 29.5386667 400.488 30.9613333 401.456 31.988 402.424 33.0146667 403.714667 33.528 405.328 33.528ZM435.072 36.52C433.664 36.52 432.432 36.2413333 431.376 35.684 430.32 35.1266667 429.498667 34.3346667 428.912 33.308 428.325333 32.2813333 428.032 31.0786667 428.032 29.7L428.032 8.008 419.672 8.008 419.672 4.4 431.992 4.4 431.992 29.7C431.992 30.6973333 432.270667 31.482 432.828 32.054 433.385333 32.626 434.133333 32.912 435.072 32.912L442.552 32.912 442.552 36.52 435.072 36.52ZM457.952 36.96C456.045333 36.96 454.380667 36.5786667 452.958 35.816 451.535333 35.0533333 450.435333 33.9753333 449.658 32.582 448.880667 31.1886667 448.492 29.568 448.492 27.72L448.492 21.12C448.492 19.2426667 448.880667 17.6146667 449.658 16.236 450.435333 14.8573333 451.535333 13.7866667 452.958 13.024 454.380667 12.2613333 456.045333 11.88 457.952 11.88 459.858667 11.88 461.523333 12.2613333 462.946 13.024 464.368667 13.7866667 465.468667 14.8573333 466.246 16.236 467.023333 17.6146667 467.412 19.2426667 467.412 21.12L467.412 25.388 452.364 25.388 452.364 27.72C452.364 29.6266667 452.848 31.086 453.816 32.098 454.784 33.11 456.162667 33.616 457.952 33.616 459.477333 33.616 460.709333 33.3446667 461.648 32.802 462.586667 32.2593333 463.158667 31.4453333 463.364 30.36L467.324 30.36C467.06 32.384 466.07 33.99 464.354 35.178 462.638 36.366 460.504 36.96 457.952 36.96ZM463.54 22.748 463.54 21.12C463.54 19.2133333 463.063333 17.7466667 462.11 16.72 461.156667 15.6933333 459.770667 15.18 457.952 15.18 456.162667 15.18 454.784 15.6933333 453.816 16.72 452.848 17.7466667 452.364 19.2133333 452.364 21.12L452.364 22.396 463.848 22.396 463.54 22.748ZM484.352 36.96C483.237333 36.96 482.35 36.6373333 481.69 35.992 481.03 35.3466667 480.7 34.4813333 480.7 33.396 480.7 32.252 481.03 31.3426667 481.69 30.668 482.35 29.9933333 483.237333 29.656 484.352 29.656 485.466667 29.656 486.354 29.9933333 487.014 30.668 487.674 31.3426667 488.004 32.252 488.004 33.396 488.004 34.4813333 487.674 35.3466667 487.014 35.992 486.354 36.6373333 485.466667 36.96 484.352 36.96ZM510.928 36.96C508.992 36.96 507.298 36.5933333 505.846 35.86 504.394 35.1266667 503.272 34.0633333 502.48 32.67 501.688 31.2766667 501.292 29.6266667 501.292 27.72L501.292 21.12C501.292 19.184 501.688 17.5266667 502.48 16.148 503.272 14.7693333 504.394 13.7133333 505.846 12.98 507.298 12.2466667 508.992 11.88 510.928 11.88 513.714667 11.88 515.958667 12.628 517.66 14.124 519.361333 15.62 520.256 17.6586667 520.344 20.24L516.384 20.24C516.296 18.6853333 515.775333 17.49 514.822 16.654 513.868667 15.818 512.570667 15.4 510.928 15.4 509.197333 15.4 507.818667 15.8913333 506.792 16.874 505.765333 17.8566667 505.252 19.2573333 505.252 21.076L505.252 27.72C505.252 29.5386667 505.765333 30.9466667 506.792 31.944 507.818667 32.9413333 509.197333 33.44 510.928 33.44 512.570667 33.44 513.868667 33.0146667 514.822 32.164 515.775333 31.3133333 516.296 30.1253333 516.384 28.6L520.344 28.6C520.256 31.1813333 519.361333 33.22 517.66 34.716 515.958667 36.212 513.714667 36.96 510.928 36.96ZM537.152 36.872C535.216 36.872 533.536667 36.498 532.114 35.75 530.691333 35.002 529.598667 33.9386667 528.836 32.56 528.073333 31.1813333 527.692 29.5386667 527.692 27.632L527.692 21.208C527.692 19.3013333 528.073333 17.6586667 528.836 16.28 529.598667 14.9013333 530.691333 13.838 532.114 13.09 533.536667 12.342 535.216 11.968 537.152 11.968 539.117333 11.968 540.804 12.342 542.212 13.09 543.62 13.838 544.705333 14.894 545.468 16.258 546.230667 17.622 546.612 19.2573333 546.612 21.164L546.612 27.632C546.612 29.5386667 546.230667 31.1813333 545.468 32.56 544.705333 33.9386667 543.62 35.002 542.212 35.75 540.804 36.498 539.117333 36.872 537.152 36.872ZM537.152 33.352C538.882667 33.352 540.232 32.868 541.2 31.9 542.168 30.932 542.652 29.5093333 542.652 27.632L542.652 21.208C542.652 19.3306667 542.168 17.908 541.2 16.94 540.232 15.972 538.882667 15.488 537.152 15.488 535.450667 15.488 534.108667 15.972 533.126 16.94 532.143333 17.908 531.652 19.3306667 531.652 21.208L531.652 27.632C531.652 29.5093333 532.143333 30.932 533.126 31.9 534.108667 32.868 535.450667 33.352 537.152 33.352ZM552.992 36.52 552.992 12.32 556.468 12.32 556.468 15.224 557.26 15.224 556.644 16.28C556.644 14.9893333 557.025333 13.9333333 557.788 13.112 558.550667 12.2906667 559.548 11.88 560.78 11.88 562.070667 11.88 563.119333 12.408 563.926 13.464 564.732667 14.52 565.136 15.8986667 565.136 17.6L563.948 15.224 565.796 15.224 564.96 16.28C564.96 14.9893333 565.348667 13.9333333 566.126 13.112 566.903333 12.2906667 567.922667 11.88 569.184 11.88 570.650667 11.88 571.838667 12.4593333 572.748 13.618 573.657333 14.7766667 574.112 16.28 574.112 18.128L574.112 36.52 570.46 36.52 570.46 18.084C570.46 17.0573333 570.232667 16.2726667 569.778 15.73 569.323333 15.1873333 568.670667 14.916 567.82 14.916 566.969333 14.916 566.309333 15.1873333 565.84 15.73 565.370667 16.2726667 565.136 17.0426667 565.136 18.04L565.136 36.52 561.968 36.52 561.968 18.084C561.968 17.0573333 561.726 16.2726667 561.242 15.73 560.758 15.1873333 560.090667 14.916 559.24 14.916 558.418667 14.916 557.780667 15.1873333 557.326 15.73 556.871333 16.2726667 556.644 17.0426667 556.644 18.04L556.644 36.52 552.992 36.52ZM589.952 18.48C588.866667 18.48 587.986667 18.1793333 587.312 17.578 586.637333 16.9766667 586.3 16.1773333 586.3 15.18 586.3 14.1826667 586.637333 13.3833333 587.312 12.782 587.986667 12.1806667 588.866667 11.88 589.952 11.88 591.066667 11.88 591.954 12.1806667 592.614 12.782 593.274 13.3833333 593.604 14.1826667 593.604 15.18 593.604 16.1773333 593.274 16.9766667 592.614 17.578 591.954 18.1793333 591.066667 18.48 589.952 18.48ZM589.952 36.96C588.866667 36.96 587.986667 36.6593333 587.312 36.058 586.637333 35.4566667 586.3 34.6573333 586.3 33.66 586.3 32.6626667 586.637333 31.8633333 587.312 31.262 587.986667 30.6606667 588.866667 30.36 589.952 30.36 591.066667 30.36 591.954 30.6606667 592.614 31.262 593.274 31.8633333 593.604 32.6626667 593.604 33.66 593.604 34.6573333 593.274 35.4566667 592.614 36.058 591.954 36.6593333 591.066667 36.96 589.952 36.96ZM616.352 36.96C614.298667 36.96 612.494667 36.6006667 610.94 35.882 609.385333 35.1633333 608.182667 34.166 607.332 32.89 606.481333 31.614 606.056 30.14 606.056 28.468 606.056 26.532 606.708667 24.7426667 608.014 23.1 609.319333 21.4573333 611.042667 20.2253333 613.184 19.404L617.452 17.776C618.830667 17.248 619.945333 16.4926667 620.796 15.51 621.646667 14.5273333 622.072 13.4493333 622.072 12.276 622.072 10.8386667 621.544 9.67266667 620.488 8.778 619.432 7.88333333 618.053333 7.436 616.352 7.436 614.650667 7.436 613.272 7.89066667 612.216 8.8 611.16 9.70933333 610.632 10.868 610.632 12.276 610.632 13.4786667 611.042667 14.564 611.864 15.532 612.685333 16.5 613.756 17.2333333 615.076 17.732L619.344 19.316C621.544 20.1373333 623.311333 21.3766667 624.646 23.034 625.980667 24.6913333 626.648 26.5026667 626.648 28.468 626.648 30.14 626.222667 31.614 625.372 32.89 624.521333 34.166 623.326 35.1633333 621.786 35.882 620.246 36.6006667 618.434667 36.96 616.352 36.96ZM616.352 33.44C618.288 33.44 619.842667 32.934 621.016 31.922 622.189333 30.91 622.776 29.5826667 622.776 27.94 622.776 26.6493333 622.38 25.4833333 621.588 24.442 620.796 23.4006667 619.681333 22.6013333 618.244 22.044L614.02 20.416C611.614667 19.4773333 609.803333 18.2893333 608.586 16.852 607.368667 15.4146667 606.76 13.8453333 606.76 12.144 606.76 10.5306667 607.178 9.108 608.014 7.876 608.85 6.644 609.986667 5.676 611.424 4.972 612.861333 4.268 614.504 3.916 616.352 3.916 618.2 3.916 619.85 4.268 621.302 4.972 622.754 5.676 623.890667 6.644 624.712 7.876 625.533333 9.108 625.944 10.5306667 625.944 12.144 625.944 13.816 625.328 15.3853333 624.096 16.852 622.864 18.3186667 621.016 19.5213333 618.552 20.46L614.328 22.088C612.92 22.6453333 611.834667 23.4446667 611.072 24.486 610.309333 25.5273333 609.928 26.6786667 609.928 27.94 609.928 29.5826667 610.514667 30.91 611.688 31.922 612.861333 32.934 614.416 33.44 616.352 33.44ZM642.752 36.96C640.786667 36.96 639.078 36.5713333 637.626 35.794 636.174 35.0166667 635.052 33.9166667 634.26 32.494 633.468 31.0713333 633.072 29.4066667 633.072 27.5L633.072 13.42C633.072 11.484 633.468 9.812 634.26 8.404 635.052 6.996 636.174 5.90333333 637.626 5.126 639.078 4.34866667 640.786667 3.96 642.752 3.96 644.746667 3.96 646.462667 4.34866667 647.9 5.126 649.337333 5.90333333 650.452 6.996 651.244 8.404 652.036 9.812 652.432 11.484 652.432 13.42L652.432 27.5C652.432 29.4066667 652.036 31.0713333 651.244 32.494 650.452 33.9166667 649.33 35.0166667 647.878 35.794 646.426 36.5713333 644.717333 36.96 642.752 36.96ZM642.752 33.572C644.512 33.572 645.927333 33.0073333 646.998 31.878 648.068667 30.7486667 648.604 29.2893333 648.604 27.5L648.604 13.42C648.604 11.6306667 648.068667 10.1713333 646.998 9.042 645.927333 7.91266667 644.512 7.348 642.752 7.348 640.992 7.348 639.576667 7.91266667 638.506 9.042 637.435333 10.1713333 636.9 11.6306667 636.9 13.42L636.9 27.5C636.9 29.2893333 637.435333 30.7486667 638.506 31.878 639.576667 33.0073333 640.992 33.572 642.752 33.572ZM642.752 23.056C641.96 23.056 641.322 22.8066667 640.838 22.308 640.354 21.8093333 640.112 21.1493333 640.112 20.328 640.112 19.536 640.354 18.898 640.838 18.414 641.322 17.93 641.96 17.688 642.752 17.688 643.544 17.688 644.182 17.93 644.666 18.414 645.15 18.898 645.392 19.536 645.392 20.328 645.392 21.1493333 645.15 21.8093333 644.666 22.308 644.182 22.8066667 643.544 23.056 642.752 23.056Z"/><polygon points="659.252 41.36 674.872 0 679.052 0 663.432 41.36"/><path d="M686.444 44.44 686.444 12.32 690.404 12.32 690.404 16.94 691.196 16.94 690.404 17.864C690.404 16.016 691.012667 14.5566667 692.23 13.486 693.447333 12.4153333 695.053333 11.88 697.048 11.88 699.482667 11.88 701.426 12.6793333 702.878 14.278 704.33 15.8766667 705.056 18.0693333 705.056 20.856L705.056 27.94C705.056 29.788 704.726 31.3866667 704.066 32.736 703.406 34.0853333 702.482 35.1266667 701.294 35.86 700.106 36.5933333 698.690667 36.96 697.048 36.96 695.082667 36.96 693.484 36.4173333 692.252 35.332 691.02 34.2466667 690.404 32.7946667 690.404 30.976L691.196 31.9 690.316 31.9 690.404 37.4 690.404 44.44 686.444 44.44ZM695.728 33.528C697.4 33.528 698.712667 33.0293333 699.666 32.032 700.619333 31.0346667 701.096 29.5973333 701.096 27.72L701.096 21.12C701.096 19.2426667 700.619333 17.8053333 699.666 16.808 698.712667 15.8106667 697.4 15.312 695.728 15.312 694.114667 15.312 692.824 15.8253333 691.856 16.852 690.888 17.8786667 690.404 19.3013333 690.404 21.12L690.404 27.72C690.404 29.5386667 690.888 30.9613333 691.856 31.988 692.824 33.0146667 694.114667 33.528 695.728 33.528ZM719.84 36.96C717.288 36.96 715.278667 36.3073333 713.812 35.002 712.345333 33.6966667 711.612 31.9293333 711.612 29.7 711.612 27.4413333 712.345333 25.6666667 713.812 24.376 715.278667 23.0853333 717.258667 22.44 719.752 22.44L727.232 22.44 727.232 20.02C727.232 18.5533333 726.784667 17.4093333 725.89 16.588 724.995333 15.7666667 723.756 15.356 722.172 15.356 720.764 15.356 719.576 15.664 718.608 16.28 717.64 16.896 717.038667 17.7026667 716.804 18.7L712.844 18.7C712.990667 17.3506667 713.482 16.1626667 714.318 15.136 715.154 14.1093333 716.254 13.31 717.618 12.738 718.982 12.166 720.5 11.88 722.172 11.88 724.958667 11.88 727.158667 12.5986667 728.772 14.036 730.385333 15.4733333 731.192 17.424 731.192 19.888L731.192 36.52 727.32 36.52 727.32 31.9 726.66 31.9 727.32 31.24C727.32 33 726.638 34.3933333 725.274 35.42 723.91 36.4466667 722.098667 36.96 719.84 36.96ZM720.808 33.836C722.685333 33.836 724.225333 33.3666667 725.428 32.428 726.630667 31.4893333 727.232 30.2866667 727.232 28.82L727.232 25.388 719.84 25.388C718.52 25.388 717.478667 25.7546667 716.716 26.488 715.953333 27.2213333 715.572 28.2186667 715.572 29.48 715.572 30.8293333 716.034 31.8926667 716.958 32.67 717.882 33.4473333 719.165333 33.836 720.808 33.836ZM750.992 36.52C748.997333 36.52 747.398667 35.9406667 746.196 34.782 744.993333 33.6233333 744.392 32.076 744.392 30.14L744.392 15.928 737.572 15.928 737.572 12.32 744.392 12.32 744.392 5.5 748.352 5.5 748.352 12.32 758.032 12.32 758.032 15.928 748.352 15.928 748.352 30.14C748.352 30.9613333 748.594 31.6286667 749.078 32.142 749.562 32.6553333 750.2 32.912 750.992 32.912L757.592 32.912 757.592 36.52 750.992 36.52ZM765.6 36.52 765.6 4.4 769.56 4.4 769.56 12.32 769.56 16.94 770.396 16.94 769.56 17.864C769.56 15.9573333 770.132 14.4833333 771.276 13.442 772.42 12.4006667 774.004 11.88 776.028 11.88 778.462667 11.88 780.398667 12.628 781.836 14.124 783.273333 15.62 783.992 17.6586667 783.992 20.24L783.992 36.52 780.032 36.52 780.032 20.68C780.032 18.9493333 779.57 17.6073333 778.646 16.654 777.722 15.7006667 776.468 15.224 774.884 15.224 773.241333 15.224 771.943333 15.7373333 770.99 16.764 770.036667 17.7906667 769.56 19.2426667 769.56 21.12L769.56 36.52 765.6 36.52Z"/><polygon points="791.252 41.36 806.872 0 811.052 0 795.432 41.36"/><path d="M830.192 36.52C828.197333 36.52 826.598667 35.9406667 825.396 34.782 824.193333 33.6233333 823.592 32.076 823.592 30.14L823.592 15.928 816.772 15.928 816.772 12.32 823.592 12.32 823.592 5.5 827.552 5.5 827.552 12.32 837.232 12.32 837.232 15.928 827.552 15.928 827.552 30.14C827.552 30.9613333 827.794 31.6286667 828.278 32.142 828.762 32.6553333 829.4 32.912 830.192 32.912L836.792 32.912 836.792 36.52 830.192 36.52ZM853.952 36.872C852.016 36.872 850.336667 36.498 848.914 35.75 847.491333 35.002 846.398667 33.9386667 845.636 32.56 844.873333 31.1813333 844.492 29.5386667 844.492 27.632L844.492 21.208C844.492 19.3013333 844.873333 17.6586667 845.636 16.28 846.398667 14.9013333 847.491333 13.838 848.914 13.09 850.336667 12.342 852.016 11.968 853.952 11.968 855.917333 11.968 857.604 12.342 859.012 13.09 860.42 13.838 861.505333 14.894 862.268 16.258 863.030667 17.622 863.412 19.2573333 863.412 21.164L863.412 27.632C863.412 29.5386667 863.030667 31.1813333 862.268 32.56 861.505333 33.9386667 860.42 35.002 859.012 35.75 857.604 36.498 855.917333 36.872 853.952 36.872ZM853.952 33.352C855.682667 33.352 857.032 32.868 858 31.9 858.968 30.932 859.452 29.5093333 859.452 27.632L859.452 21.208C859.452 19.3306667 858.968 17.908 858 16.94 857.032 15.972 855.682667 15.488 853.952 15.488 852.250667 15.488 850.908667 15.972 849.926 16.94 848.943333 17.908 848.452 19.3306667 848.452 21.208L848.452 27.632C848.452 29.5093333 848.943333 30.932 849.926 31.9 850.908667 32.868 852.250667 33.352 853.952 33.352Z"/><polygon points="870.452 41.36 886.072 0 890.252 0 874.632 41.36"/><path d="M896.192 36.52 896.192 12.32 899.668 12.32 899.668 15.224 900.46 15.224 899.844 16.28C899.844 14.9893333 900.225333 13.9333333 900.988 13.112 901.750667 12.2906667 902.748 11.88 903.98 11.88 905.270667 11.88 906.319333 12.408 907.126 13.464 907.932667 14.52 908.336 15.8986667 908.336 17.6L907.148 15.224 908.996 15.224 908.16 16.28C908.16 14.9893333 908.548667 13.9333333 909.326 13.112 910.103333 12.2906667 911.122667 11.88 912.384 11.88 913.850667 11.88 915.038667 12.4593333 915.948 13.618 916.857333 14.7766667 917.312 16.28 917.312 18.128L917.312 36.52 913.66 36.52 913.66 18.084C913.66 17.0573333 913.432667 16.2726667 912.978 15.73 912.523333 15.1873333 911.870667 14.916 911.02 14.916 910.169333 14.916 909.509333 15.1873333 909.04 15.73 908.570667 16.2726667 908.336 17.0426667 908.336 18.04L908.336 36.52 905.168 36.52 905.168 18.084C905.168 17.0573333 904.926 16.2726667 904.442 15.73 903.958 15.1873333 903.290667 14.916 902.44 14.916 901.618667 14.916 900.980667 15.1873333 900.526 15.73 900.071333 16.2726667 899.844 17.0426667 899.844 18.04L899.844 36.52 896.192 36.52ZM927.828 44.44 931.392 35.024 922.152 12.32 926.464 12.32 932.36 27.28C932.565333 27.7786667 932.763333 28.3726667 932.954 29.062 933.144667 29.7513333 933.298667 30.3306667 933.416 30.8 933.533333 30.3306667 933.694667 29.7513333 933.9 29.062 934.105333 28.3726667 934.310667 27.7786667 934.516 27.28L940.016 12.32 944.152 12.32 931.964 44.44 927.828 44.44ZM956.032 36.52 956.032 18.348 948.992 18.348 948.992 14.74 956.032 14.74 956.032 10.56C956.032 8.65333333 956.633333 7.15 957.836 6.05 959.038667 4.95 960.696 4.4 962.808 4.4L969.892 4.4 969.892 8.008 962.808 8.008C961.898667 8.008 961.202 8.22066667 960.718 8.646 960.234 9.07133333 959.992 9.70933333 959.992 10.56L959.992 14.74 969.892 14.74 969.892 18.348 959.992 18.348 959.992 36.52 956.032 36.52ZM976.492 36.52 976.492 32.912 985.072 32.912 985.072 15.928 977.372 15.928 977.372 12.32 989.032 12.32 989.032 32.912 997.172 32.912 997.172 36.52 976.492 36.52ZM986.612 7.964C985.644 7.964 984.881333 7.71466667 984.324 7.216 983.766667 6.71733333 983.488 6.04266667 983.488 5.192 983.488 4.312 983.766667 3.61533333 984.324 3.102 984.881333 2.58866667 985.644 2.332 986.612 2.332 987.58 2.332 988.342667 2.58866667 988.9 3.102 989.457333 3.61533333 989.736 4.312 989.736 5.192 989.736 6.04266667 989.457333 6.71733333 988.9 7.216 988.342667 7.71466667 987.58 7.964 986.612 7.964ZM1015.872 36.52C1014.464 36.52 1013.232 36.2413333 1012.176 35.684 1011.12 35.1266667 1010.29867 34.3346667 1009.712 33.308 1009.12533 32.2813333 1008.832 31.0786667 1008.832 29.7L1008.832 8.008 1000.472 8.008 1000.472 4.4 1012.792 4.4 1012.792 29.7C1012.792 30.6973333 1013.07067 31.482 1013.628 32.054 1014.18533 32.626 1014.93333 32.912 1015.872 32.912L1023.352 32.912 1023.352 36.52 1015.872 36.52ZM1038.752 36.96C1036.84533 36.96 1035.18067 36.5786667 1033.758 35.816 1032.33533 35.0533333 1031.23533 33.9753333 1030.458 32.582 1029.68067 31.1886667 1029.292 29.568 1029.292 27.72L1029.292 21.12C1029.292 19.2426667 1029.68067 17.6146667 1030.458 16.236 1031.23533 14.8573333 1032.33533 13.7866667 1033.758 13.024 1035.18067 12.2613333 1036.84533 11.88 1038.752 11.88 1040.65867 11.88 1042.32333 12.2613333 1043.746 13.024 1045.16867 13.7866667 1046.26867 14.8573333 1047.046 16.236 1047.82333 17.6146667 1048.212 19.2426667 1048.212 21.12L1048.212 25.388 1033.164 25.388 1033.164 27.72C1033.164 29.6266667 1033.648 31.086 1034.616 32.098 1035.584 33.11 1036.96267 33.616 1038.752 33.616 1040.27733 33.616 1041.50933 33.3446667 1042.448 32.802 1043.38667 32.2593333 1043.95867 31.4453333 1044.164 30.36L1048.124 30.36C1047.86 32.384 1046.87 33.99 1045.154 35.178 1043.438 36.366 1041.304 36.96 1038.752 36.96ZM1044.34 22.748 1044.34 21.12C1044.34 19.2133333 1043.86333 17.7466667 1042.91 16.72 1041.95667 15.6933333 1040.57067 15.18 1038.752 15.18 1036.96267 15.18 1035.584 15.6933333 1034.616 16.72 1033.648 17.7466667 1033.164 19.2133333 1033.164 21.12L1033.164 22.396 1044.648 22.396 1044.34 22.748ZM1065.152 36.96C1064.03733 36.96 1063.15 36.6373333 1062.49 35.992 1061.83 35.3466667 1061.5 34.4813333 1061.5 33.396 1061.5 32.252 1061.83 31.3426667 1062.49 30.668 1063.15 29.9933333 1064.03733 29.656 1065.152 29.656 1066.26667 29.656 1067.154 29.9933333 1067.814 30.668 1068.474 31.3426667 1068.804 32.252 1068.804 33.396 1068.804 34.4813333 1068.474 35.3466667 1067.814 35.992 1067.154 36.6373333 1066.26667 36.96 1065.152 36.96ZM1082.4 36.52 1082.4 4.4 1086.36 4.4 1086.36 12.32 1086.36 16.94 1087.196 16.94 1086.36 17.864C1086.36 15.9573333 1086.932 14.4833333 1088.076 13.442 1089.22 12.4006667 1090.804 11.88 1092.828 11.88 1095.26267 11.88 1097.19867 12.628 1098.636 14.124 1100.07333 15.62 1100.792 17.6586667 1100.792 20.24L1100.792 36.52 1096.832 36.52 1096.832 20.68C1096.832 18.9493333 1096.37 17.6073333 1095.446 16.654 1094.522 15.7006667 1093.268 15.224 1091.684 15.224 1090.04133 15.224 1088.74333 15.7373333 1087.79 16.764 1086.83667 17.7906667 1086.36 19.2426667 1086.36 21.12L1086.36 36.52 1082.4 36.52ZM1120.592 36.52C1118.59733 36.52 1116.99867 35.9406667 1115.796 34.782 1114.59333 33.6233333 1113.992 32.076 1113.992 30.14L1113.992 15.928 1107.172 15.928 1107.172 12.32 1113.992 12.32 1113.992 5.5 1117.952 5.5 1117.952 12.32 1127.632 12.32 1127.632 15.928 1117.952 15.928 1117.952 30.14C1117.952 30.9613333 1118.194 31.6286667 1118.678 32.142 1119.162 32.6553333 1119.8 32.912 1120.592 32.912L1127.192 32.912 1127.192 36.52 1120.592 36.52ZM1133.792 36.52 1133.792 12.32 1137.268 12.32 1137.268 15.224 1138.06 15.224 1137.444 16.28C1137.444 14.9893333 1137.82533 13.9333333 1138.588 13.112 1139.35067 12.2906667 1140.348 11.88 1141.58 11.88 1142.87067 11.88 1143.91933 12.408 1144.726 13.464 1145.53267 14.52 1145.936 15.8986667 1145.936 17.6L1144.748 15.224 1146.596 15.224 1145.76 16.28C1145.76 14.9893333 1146.14867 13.9333333 1146.926 13.112 1147.70333 12.2906667 1148.72267 11.88 1149.984 11.88 1151.45067 11.88 1152.63867 12.4593333 1153.548 13.618 1154.45733 14.7766667 1154.912 16.28 1154.912 18.128L1154.912 36.52 1151.26 36.52 1151.26 18.084C1151.26 17.0573333 1151.03267 16.2726667 1150.578 15.73 1150.12333 15.1873333 1149.47067 14.916 1148.62 14.916 1147.76933 14.916 1147.10933 15.1873333 1146.64 15.73 1146.17067 16.2726667 1145.936 17.0426667 1145.936 18.04L1145.936 36.52 1142.768 36.52 1142.768 18.084C1142.768 17.0573333 1142.526 16.2726667 1142.042 15.73 1141.558 15.1873333 1140.89067 14.916 1140.04 14.916 1139.21867 14.916 1138.58067 15.1873333 1138.126 15.73 1137.67133 16.2726667 1137.444 17.0426667 1137.444 18.04L1137.444 36.52 1133.792 36.52ZM1174.272 36.52C1172.864 36.52 1171.632 36.2413333 1170.576 35.684 1169.52 35.1266667 1168.69867 34.3346667 1168.112 33.308 1167.52533 32.2813333 1167.232 31.0786667 1167.232 29.7L1167.232 8.008 1158.872 8.008 1158.872 4.4 1171.192 4.4 1171.192 29.7C1171.192 30.6973333 1171.47067 31.482 1172.028 32.054 1172.58533 32.626 1173.33333 32.912 1174.272 32.912L1181.752 32.912 1181.752 36.52 1174.272 36.52Z"/></g></g><g transform="translate(15 318)"><path fill="#6236FF" d="M7.6916556,74 C5.01709938,74 4.04724067,73.7215232 3.06946289,73.1986019 C2.09168511,72.6756806 1.32431939,71.9083149 0.801398111,70.9305371 C0.278476833,69.9527593 1.2037061e-16,68.9829006 -2.07168062e-16,66.3083444 L2.07168062e-16,7.6916556 C-1.2037061e-16,5.01709938 0.278476833,4.04724067 0.801398111,3.06946289 C1.32431939,2.09168511 2.09168511,1.32431939 3.06946289,0.801398111 C4.04724067,0.278476833 5.01709938,1.80555915e-16 7.6916556,-3.10752092e-16 L624.308344,3.10752092e-16 C626.982901,-1.80555915e-16 627.952759,0.278476833 628.930537,0.801398111 C629.908315,1.32431939 630.675681,2.09168511 631.198602,3.06946289 C631.721523,4.04724067 632,5.01709938 632,7.6916556 L632,66.3083444 C632,68.9829006 631.721523,69.9527593 631.198602,70.9305371 C630.675681,71.9083149 629.908315,72.6756806 628.930537,73.1986019 C627.952759,73.7215232 626.982901,74 624.308344,74 L21,74 L21,116 L36.999,116 L37,104 L61,119 L37,134 L36.999,122 L15,122 L15,74 L7.6916556,74 Z" opacity=".5"/><path fill="#000" fill-rule="nonzero" d="M15.27 12.9C13.17 14.55 9.42 16.08 6.33 16.95 6.69 17.25 7.08 17.7 7.32 18.03 10.44 17.04 14.19 15.39 16.5 13.53L15.27 12.9ZM18.03 16.44C15.3 18.57 10.32 20.34 5.94 21.27 6.27 21.57 6.6 22.08 6.81 22.41 11.34 21.36 16.32 19.47 19.26 17.07L18.03 16.44ZM21.93 19.8C18.54 23.16 11.7 25.2 4.2 26.1 4.47 26.43 4.77 26.97 4.92 27.36 12.6 26.34 19.62 24.15 23.22 20.46L21.93 19.8ZM4.08 7.02C4.68 6.81 5.52 6.69 11.49 6.39 11.01 7.59 10.41 8.7 9.69 9.75L.24 9.75.24 11.1 8.73 11.1C6.45 13.92 3.45 16.11 0 17.64.36 17.91.93 18.51 1.14 18.78 4.8 17.01 8.07 14.46 10.5 11.1L16.77 11.1C19.02 14.19 22.92 17.07 26.34 18.51 26.55 18.12 27.03 17.61 27.36 17.31 24.15 16.14 20.64 13.74 18.45 11.1L26.91 11.1 26.91 9.75 11.4 9.75C12 8.73 12.57 7.65 13.02 6.51L12.3 6.36 21.84 5.88C22.71 6.6 23.43 7.32 23.97 7.92L25.11 6.99C23.49 5.19 20.19 2.67 17.4 1.02L16.29 1.83C17.64 2.64 19.11 3.69 20.46 4.71L6.93 5.31C8.97 4.08 11.1 2.52 13.11.75L11.76 0C9.6 2.13 6.6 4.14 5.7 4.68 4.89 5.16 4.17 5.49 3.63 5.55 3.81 5.94 4.02 6.69 4.08 7.02ZM42.18.72C41.61 1.92 40.56 3.75 39.78 4.83L40.74 5.34C41.58 4.29 42.6 2.73 43.44 1.32L42.18.72ZM31.56 1.35C32.4 2.61 33.24 4.29 33.57 5.37L34.68 4.86C34.38 3.78 33.54 2.13 32.64.93L31.56 1.35ZM41.43 16.89C40.71 18.75 39.6 20.31 38.25 21.6 36.96 20.94 35.58 20.31 34.26 19.77 34.77 18.93 35.34 17.94 35.85 16.89L41.43 16.89ZM32.4 20.34C33.93 20.91 35.64 21.69 37.2 22.47 35.13 24.09 32.64 25.17 30.06 25.77 30.33 26.04 30.66 26.58 30.78 26.91 33.57 26.16 36.21 24.96 38.4 23.13 39.54 23.73 40.53 24.33 41.25 24.87L42.24 23.88C41.49 23.37 40.53 22.8 39.42 22.2 41.07 20.55 42.36 18.48 43.11 15.87L42.33 15.51 42.06 15.57 36.48 15.57 37.26 13.77 35.94 13.53C35.7 14.19 35.43 14.88 35.1 15.57L30.84 15.57 30.84 16.89 34.44 16.89C33.78 18.15 33.06 19.38 32.4 20.34ZM36.66 0 36.66 5.76 30.18 5.76 30.18 7.05 36.24 7.05C34.77 9.27 32.31 11.46 30.03 12.45 30.33 12.75 30.72 13.26 30.9 13.65 32.97 12.54 35.13 10.59 36.66 8.55L36.66 12.87 38.07 12.87 38.07 8.28C39.63 9.33 41.94 11.07 42.72 11.82L43.59 10.68C42.78 10.08 39.39 7.86 38.07 7.05L44.46 7.05 44.46 5.76 38.07 5.76 38.07 0 36.66 0ZM50.46 17.58C49.14 14.61 48.18 11.13 47.58 7.41L47.58 7.38 53.28 7.38C52.68 11.34 51.81 14.73 50.46 17.58ZM47.7.39C46.92 5.58 45.57 10.56 43.26 13.71 43.62 13.92 44.22 14.37 44.46 14.58 45.36 13.23 46.11 11.64 46.77 9.84 47.49 13.23 48.45 16.32 49.71 19.02 47.97 22.08 45.54 24.45 42.15 26.16 42.45 26.46 42.87 27.03 43.02 27.33 46.23 25.56 48.63 23.28 50.43 20.43 52.02 23.28 54 25.56 56.52 27.03 56.73 26.64 57.18 26.16 57.51 25.86 54.87 24.48 52.8 22.11 51.21 19.08 52.89 15.9 53.97 12.06 54.69 7.38L56.79 7.38 56.79 6 47.97 6C48.42 4.29 48.78 2.49 49.08.6L47.7.39Z" transform="translate(67.44 105.95)"/><g transform="translate(636)"><path fill="#B620E0" d="M7.6916556,74 C5.01709938,74 4.04724067,73.7215232 3.06946289,73.1986019 C2.09168511,72.6756806 1.32431939,71.9083149 0.801398111,70.9305371 C0.278476833,69.9527593 1.2037061e-16,68.9829006 -2.07168062e-16,66.3083444 L6.60585131e-16,7.6916556 C-3.83818985e-16,5.01709938 0.278476833,4.04724067 0.801398111,3.06946289 C1.32431939,2.09168511 2.09168511,1.32431939 3.06946289,0.801398111 C4.04724067,0.278476833 5.01709938,1.80555915e-16 7.6916556,-3.10752092e-16 L605.308344,3.10752092e-16 C607.982901,-1.80555915e-16 608.952759,0.278476833 609.930537,0.801398111 C610.908315,1.32431939 611.675681,2.09168511 612.198602,3.06946289 C612.721523,4.04724067 613,5.01709938 613,7.6916556 L613,66.3083444 C613,68.9829006 612.721523,69.9527593 612.198602,70.9305371 C611.675681,71.9083149 610.908315,72.6756806 609.930537,73.1986019 C608.952759,73.7215232 607.982901,74 605.308344,74 L16,74 L16,116 L31.999,116 L32,104 L56,119 L32,134 L31.999,122 L10,122 L10,74 L7.6916556,74 Z" opacity=".5"/><path fill="#000" fill-rule="nonzero" d="M21.96.3 21.96 4.38 16.8 4.38 16.8.3 15.45.3 15.45 4.38 11.52 4.38 11.52 5.76 15.45 5.76 15.45 10.17 16.8 10.17 16.8 5.76 21.96 5.76 21.96 10.17 23.34 10.17 23.34 5.76 27.03 5.76 27.03 4.38 23.34 4.38 23.34.3 21.96.3ZM18.72 12.75 18.72 17.82 13.8 17.82 13.8 12.75 18.72 12.75ZM20.07 12.75 24.69 12.75 24.69 17.82 20.07 17.82 20.07 12.75ZM13.8 19.14 18.72 19.14 18.72 24.42 13.8 24.42 13.8 19.14ZM24.69 19.14 24.69 24.42 20.07 24.42 20.07 19.14 24.69 19.14ZM12.45 11.37 12.45 27.3 13.8 27.3 13.8 25.74 24.69 25.74 24.69 27 26.1 27 26.1 11.37 12.45 11.37ZM4.47.09C3.51 2.97 1.83 5.73 0 7.59.24 7.86.69 8.55.81 8.85 1.77 7.8 2.73 6.54 3.57 5.13L10.35 5.13 10.35 3.75 4.35 3.75C4.92 2.67 5.43 1.56 5.82.45L4.47.09ZM.6 15.03.6 16.41 5.04 16.41 5.04 23.19C5.04 24.57 3.99 25.5 3.51 25.86 3.81 26.13 4.2 26.67 4.38 26.97 4.8 26.52 5.55 26.07 11.04 23.04 10.92 22.77 10.77 22.23 10.71 21.84L6.39 24.09 6.39 16.41 10.38 16.41 10.38 15.03 6.39 15.03 6.39 10.32 9.51 10.32 9.51 8.97 1.95 8.97 1.95 10.32 5.04 10.32 5.04 15.03.6 15.03ZM35.25 10.74 52.05 10.74 52.05 17.01 35.25 17.01 35.25 10.74ZM39.24 21.21C39.63 23.1 39.87 25.53 39.87 26.97L41.37 26.76C41.37 25.38 41.04 22.98 40.62 21.12L39.24 21.21ZM45.45 21.24C46.38 23.04 47.28 25.5 47.61 26.97L49.02 26.58C48.66 25.14 47.7 22.74 46.77 20.97L45.45 21.24ZM51.6 20.97C53.16 22.8 54.84 25.41 55.56 27L56.91 26.4C56.19 24.78 54.45 22.29 52.89 20.43L51.6 20.97ZM34.41 20.58C33.42 22.83 31.83 25.26 30.15 26.67L31.44 27.3C33.12 25.74 34.71 23.22 35.76 20.94L34.41 20.58ZM33.87 9.33 33.87 18.39 53.49 18.39 53.49 9.33 44.13 9.33 44.13 4.92 55.89 4.92 55.89 3.54 44.13 3.54 44.13 0 42.69 0 42.69 9.33 33.87 9.33Z" transform="translate(62.32 105.95)"/></g><g fill="#000" fill-rule="nonzero" transform="translate(6.622 18.44)"><path d="M3.344,23.54 L3.344,15.62 L5.544,15.62 C7.42133333,15.62 8.91,15.0993333 10.01,14.058 C11.11,13.0166667 11.66,11.6306667 11.66,9.9 C11.66,8.16933333 11.11,6.78333333 10.01,5.742 C8.91,4.70066667 7.40666667,4.18 5.5,4.18 L0,4.18 L0,0.44 L5.5,0.44 C7.55333333,0.44 9.33533333,0.828666667 10.846,1.606 C12.3566667,2.38333333 13.53,3.476 14.366,4.884 C15.202,6.292 15.62,7.964 15.62,9.9 C15.62,11.572 15.268,13.0753333 14.564,14.41 C13.86,15.7446667 12.8846667,16.808 11.638,17.6 C10.3913333,18.392 8.94666667,18.832 7.304,18.92 L7.304,23.54 L3.344,23.54 Z M4.62,32.78 C3.85733333,32.78 3.22666667,32.5306667 2.728,32.032 C2.22933333,31.5333333 1.98,30.9026667 1.98,30.14 C1.98,29.3773333 2.22933333,28.7466667 2.728,28.248 C3.22666667,27.7493333 3.85733333,27.5 4.62,27.5 L5.94,27.5 C6.79066667,27.5 7.44333333,27.742 7.898,28.226 C8.35266667,28.71 8.58,29.3333333 8.58,30.096 C8.58,30.8586667 8.33066667,31.4966667 7.832,32.01 C7.33333333,32.5233333 6.70266667,32.78 5.94,32.78 L4.62,32.78 Z"/><polygon points="24.86 32.56 24.86 .44 28.82 .44 28.82 18.348 33.484 18.348 40.524 8.36 45.056 8.36 36.916 19.888 45.188 32.56 40.568 32.56 33.528 21.78 28.82 21.78 28.82 32.56"/><path d="M60.28 33C58.3733333 33 56.7086667 32.6186667 55.286 31.856 53.8633333 31.0933333 52.7633333 30.0153333 51.986 28.622 51.2086667 27.2286667 50.82 25.608 50.82 23.76L50.82 17.16C50.82 15.2826667 51.2086667 13.6546667 51.986 12.276 52.7633333 10.8973333 53.8633333 9.82666667 55.286 9.064 56.7086667 8.30133333 58.3733333 7.92 60.28 7.92 62.1866667 7.92 63.8513333 8.30133333 65.274 9.064 66.6966667 9.82666667 67.7966667 10.8973333 68.574 12.276 69.3513333 13.6546667 69.74 15.2826667 69.74 17.16L69.74 21.428 54.692 21.428 54.692 23.76C54.692 25.6666667 55.176 27.126 56.144 28.138 57.112 29.15 58.4906667 29.656 60.28 29.656 61.8053333 29.656 63.0373333 29.3846667 63.976 28.842 64.9146667 28.2993333 65.4866667 27.4853333 65.692 26.4L69.652 26.4C69.388 28.424 68.398 30.03 66.682 31.218 64.966 32.406 62.832 33 60.28 33ZM65.868 18.788 65.868 17.16C65.868 15.2533333 65.3913333 13.7866667 64.438 12.76 63.4846667 11.7333333 62.0986667 11.22 60.28 11.22 58.4906667 11.22 57.112 11.7333333 56.144 12.76 55.176 13.7866667 54.692 15.2533333 54.692 17.16L54.692 18.436 66.176 18.436 65.868 18.788ZM81.356 40.48 84.92 31.064 75.68 8.36 79.992 8.36 85.888 23.32C86.0933333 23.8186667 86.2913333 24.4126667 86.482 25.102 86.6726667 25.7913333 86.8266667 26.3706667 86.944 26.84 87.0613333 26.3706667 87.2226667 25.7913333 87.428 25.102 87.6333333 24.4126667 87.8386667 23.8186667 88.044 23.32L93.544 8.36 97.68 8.36 85.492 40.48 81.356 40.48Z"/><polygon points="103.84 32.56 103.84 28.952 112.552 28.952 112.552 3.74 103.84 10.252 103.84 5.852 111.1 .44 116.512 .44 116.512 28.952 123.64 28.952 123.64 32.56"/><path d="M130.02 14.52 130.02 11 148.94 11 148.94 14.52 130.02 14.52ZM130.02 25.08 130.02 21.56 148.94 21.56 148.94 25.08 130.02 25.08ZM163.284 32.56 154.88 8.36 158.972 8.36 164.604 24.64C164.926667 25.608 165.205333 26.5393333 165.44 27.434 165.674667 28.3286667 165.850667 29.0253333 165.968 29.524 166.114667 29.0253333 166.290667 28.3286667 166.496 27.434 166.701333 26.5393333 166.965333 25.608 167.288 24.64L172.744 8.36 176.88 8.36 168.476 32.56 163.284 32.56ZM190.168 33C187.616 33 185.606667 32.3473333 184.14 31.042 182.673333 29.7366667 181.94 27.9693333 181.94 25.74 181.94 23.4813333 182.673333 21.7066667 184.14 20.416 185.606667 19.1253333 187.586667 18.48 190.08 18.48L197.56 18.48 197.56 16.06C197.56 14.5933333 197.112667 13.4493333 196.218 12.628 195.323333 11.8066667 194.084 11.396 192.5 11.396 191.092 11.396 189.904 11.704 188.936 12.32 187.968 12.936 187.366667 13.7426667 187.132 14.74L183.172 14.74C183.318667 13.3906667 183.81 12.2026667 184.646 11.176 185.482 10.1493333 186.582 9.35 187.946 8.778 189.31 8.206 190.828 7.92 192.5 7.92 195.286667 7.92 197.486667 8.63866667 199.1 10.076 200.713333 11.5133333 201.52 13.464 201.52 15.928L201.52 32.56 197.648 32.56 197.648 27.94 196.988 27.94 197.648 27.28C197.648 29.04 196.966 30.4333333 195.602 31.46 194.238 32.4866667 192.426667 33 190.168 33ZM191.136 29.876C193.013333 29.876 194.553333 29.4066667 195.756 28.468 196.958667 27.5293333 197.56 26.3266667 197.56 24.86L197.56 21.428 190.168 21.428C188.848 21.428 187.806667 21.7946667 187.044 22.528 186.281333 23.2613333 185.9 24.2586667 185.9 25.52 185.9 26.8693333 186.362 27.9326667 187.286 28.71 188.21 29.4873333 189.493333 29.876 191.136 29.876ZM222.2 32.56C220.792 32.56 219.56 32.2813333 218.504 31.724 217.448 31.1666667 216.626667 30.3746667 216.04 29.348 215.453333 28.3213333 215.16 27.1186667 215.16 25.74L215.16 4.048 206.8 4.048 206.8.44 219.12.44 219.12 25.74C219.12 26.7373333 219.398667 27.522 219.956 28.094 220.513333 28.666 221.261333 28.952 222.2 28.952L229.68 28.952 229.68 32.56 222.2 32.56ZM245.036 33C242.249333 33 240.02 32.1713333 238.348 30.514 236.676 28.8566667 235.84 26.6053333 235.84 23.76L235.84 8.36 239.8 8.36 239.8 23.76C239.8 25.5786667 240.269333 26.994 241.208 28.006 242.146667 29.018 243.422667 29.524 245.036 29.524 246.678667 29.524 247.976667 29.018 248.93 28.006 249.883333 26.994 250.36 25.5786667 250.36 23.76L250.36 8.36 254.32 8.36 254.32 23.76C254.32 26.6053333 253.469333 28.8566667 251.768 30.514 250.066667 32.1713333 247.822667 33 245.036 33ZM271.48 33C269.573333 33 267.908667 32.6186667 266.486 31.856 265.063333 31.0933333 263.963333 30.0153333 263.186 28.622 262.408667 27.2286667 262.02 25.608 262.02 23.76L262.02 17.16C262.02 15.2826667 262.408667 13.6546667 263.186 12.276 263.963333 10.8973333 265.063333 9.82666667 266.486 9.064 267.908667 8.30133333 269.573333 7.92 271.48 7.92 273.386667 7.92 275.051333 8.30133333 276.474 9.064 277.896667 9.82666667 278.996667 10.8973333 279.774 12.276 280.551333 13.6546667 280.94 15.2826667 280.94 17.16L280.94 21.428 265.892 21.428 265.892 23.76C265.892 25.6666667 266.376 27.126 267.344 28.138 268.312 29.15 269.690667 29.656 271.48 29.656 273.005333 29.656 274.237333 29.3846667 275.176 28.842 276.114667 28.2993333 276.686667 27.4853333 276.892 26.4L280.852 26.4C280.588 28.424 279.598 30.03 277.882 31.218 276.166 32.406 274.032 33 271.48 33ZM277.068 18.788 277.068 17.16C277.068 15.2533333 276.591333 13.7866667 275.638 12.76 274.684667 11.7333333 273.298667 11.22 271.48 11.22 269.690667 11.22 268.312 11.7333333 267.344 12.76 266.376 13.7866667 265.892 15.2533333 265.892 17.16L265.892 18.436 277.376 18.436 277.068 18.788Z"/><polygon points="288.64 32.56 288.64 28.952 297.352 28.952 297.352 3.74 288.64 10.252 288.64 5.852 295.9 .44 301.312 .44 301.312 28.952 308.44 28.952 308.44 32.56"/><path d="M321.2,33 C318.794667,33 316.91,32.3546667 315.546,31.064 C314.182,29.7733333 313.5,27.9986667 313.5,25.74 L313.5,20.24 C313.5,18.6853333 313.903333,17.3726667 314.71,16.302 C315.516667,15.2313333 316.668,14.476 318.164,14.036 L317.856,13.596 C316.946667,12.364 316.286667,11.22 315.876,10.164 C315.465333,9.108 315.26,8.052 315.26,6.996 C315.26,5.588 315.59,4.356 316.25,3.3 C316.91,2.244 317.834,1.43 319.022,0.858 C320.21,0.286 321.596,0 323.18,0 C324.881333,0 326.355333,0.308 327.602,0.924 C328.848667,1.54 329.809333,2.40533333 330.484,3.52 C331.158667,4.63466667 331.496,5.96933333 331.496,7.524 L327.536,7.524 C327.536,6.67333333 327.36,5.94 327.008,5.324 C326.656,4.708 326.157333,4.23866667 325.512,3.916 C324.866667,3.59333333 324.089333,3.432 323.18,3.432 C322.388,3.432 321.691333,3.57866667 321.09,3.872 C320.488667,4.16533333 320.026667,4.58333333 319.704,5.126 C319.381333,5.66866667 319.22,6.32133333 319.22,7.084 C319.22,7.81733333 319.374,8.60933333 319.682,9.46 C319.99,10.3106667 320.422667,11.1173333 320.98,11.88 L328.548,22.308 L331.672,16.72 L335.808,16.72 L330.836,25.476 L335.984,32.56 L331.628,32.56 L328.856,28.732 C326.685333,31.5773333 324.133333,33 321.2,33 Z M321.42,29.48 C322.417333,29.48 323.378,29.15 324.302,28.49 C325.226,27.83 326.010667,26.9133333 326.656,25.74 L320.188,16.808 C319.278667,16.9546667 318.596667,17.3213333 318.142,17.908 C317.687333,18.4946667 317.46,19.272 317.46,20.24 L317.46,25.74 C317.46,26.9133333 317.804667,27.83 318.494,28.49 C319.183333,29.15 320.158667,29.48 321.42,29.48 Z"/><polygon points="341.66 32.56 341.66 .44 345.62 .44 345.62 18.348 350.284 18.348 357.324 8.36 361.856 8.36 353.716 19.888 361.988 32.56 357.368 32.56 350.328 21.78 345.62 21.78 345.62 32.56"/><path d="M377.08 33C375.173333 33 373.508667 32.6186667 372.086 31.856 370.663333 31.0933333 369.563333 30.0153333 368.786 28.622 368.008667 27.2286667 367.62 25.608 367.62 23.76L367.62 17.16C367.62 15.2826667 368.008667 13.6546667 368.786 12.276 369.563333 10.8973333 370.663333 9.82666667 372.086 9.064 373.508667 8.30133333 375.173333 7.92 377.08 7.92 378.986667 7.92 380.651333 8.30133333 382.074 9.064 383.496667 9.82666667 384.596667 10.8973333 385.374 12.276 386.151333 13.6546667 386.54 15.2826667 386.54 17.16L386.54 21.428 371.492 21.428 371.492 23.76C371.492 25.6666667 371.976 27.126 372.944 28.138 373.912 29.15 375.290667 29.656 377.08 29.656 378.605333 29.656 379.837333 29.3846667 380.776 28.842 381.714667 28.2993333 382.286667 27.4853333 382.492 26.4L386.452 26.4C386.188 28.424 385.198 30.03 383.482 31.218 381.766 32.406 379.632 33 377.08 33ZM382.668 18.788 382.668 17.16C382.668 15.2533333 382.191333 13.7866667 381.238 12.76 380.284667 11.7333333 378.898667 11.22 377.08 11.22 375.290667 11.22 373.912 11.7333333 372.944 12.76 371.976 13.7866667 371.492 15.2533333 371.492 17.16L371.492 18.436 382.976 18.436 382.668 18.788ZM398.156 40.48 401.72 31.064 392.48 8.36 396.792 8.36 402.688 23.32C402.893333 23.8186667 403.091333 24.4126667 403.282 25.102 403.472667 25.7913333 403.626667 26.3706667 403.744 26.84 403.861333 26.3706667 404.022667 25.7913333 404.228 25.102 404.433333 24.4126667 404.638667 23.8186667 404.844 23.32L410.344 8.36 414.48 8.36 402.292 40.48 398.156 40.48ZM420.728 32.56 420.728 28.644 430.98 17.468C432.505333 15.8253333 433.612667 14.3586667 434.302 13.068 434.991333 11.7773333 435.336 10.516 435.336 9.284 435.336 7.524 434.822667 6.12333333 433.796 5.082 432.769333 4.04066667 431.376 3.52 429.616 3.52 427.826667 3.52 426.411333 4.05533333 425.37 5.126 424.328667 6.19666667 423.808 7.64133333 423.808 9.46L419.848 9.46C419.906667 7.524 420.346667 5.84466667 421.168 4.422 421.989333 2.99933333 423.118667 1.90666667 424.556 1.144 425.993333.381333333 427.68 0 429.616 0 431.610667 0 433.326667.381333333 434.764 1.144 436.201333 1.90666667 437.316 2.98466667 438.108 4.378 438.9 5.77133333 439.296 7.42133333 439.296 9.328 439.296 10.8533333 438.848667 12.452 437.954 14.124 437.059333 15.796 435.614667 17.7173333 433.62 19.888L425.26 28.952 439.824 28.952 439.824 32.56 420.728 32.56ZM446.82 14.52 446.82 11 465.74 11 465.74 14.52 446.82 14.52ZM446.82 25.08 446.82 21.56 465.74 21.56 465.74 25.08 446.82 25.08ZM480.084 32.56 471.68 8.36 475.772 8.36 481.404 24.64C481.726667 25.608 482.005333 26.5393333 482.24 27.434 482.474667 28.3286667 482.650667 29.0253333 482.768 29.524 482.914667 29.0253333 483.090667 28.3286667 483.296 27.434 483.501333 26.5393333 483.765333 25.608 484.088 24.64L489.544 8.36 493.68 8.36 485.276 32.56 480.084 32.56ZM506.968 33C504.416 33 502.406667 32.3473333 500.94 31.042 499.473333 29.7366667 498.74 27.9693333 498.74 25.74 498.74 23.4813333 499.473333 21.7066667 500.94 20.416 502.406667 19.1253333 504.386667 18.48 506.88 18.48L514.36 18.48 514.36 16.06C514.36 14.5933333 513.912667 13.4493333 513.018 12.628 512.123333 11.8066667 510.884 11.396 509.3 11.396 507.892 11.396 506.704 11.704 505.736 12.32 504.768 12.936 504.166667 13.7426667 503.932 14.74L499.972 14.74C500.118667 13.3906667 500.61 12.2026667 501.446 11.176 502.282 10.1493333 503.382 9.35 504.746 8.778 506.11 8.206 507.628 7.92 509.3 7.92 512.086667 7.92 514.286667 8.63866667 515.9 10.076 517.513333 11.5133333 518.32 13.464 518.32 15.928L518.32 32.56 514.448 32.56 514.448 27.94 513.788 27.94 514.448 27.28C514.448 29.04 513.766 30.4333333 512.402 31.46 511.038 32.4866667 509.226667 33 506.968 33ZM507.936 29.876C509.813333 29.876 511.353333 29.4066667 512.556 28.468 513.758667 27.5293333 514.36 26.3266667 514.36 24.86L514.36 21.428 506.968 21.428C505.648 21.428 504.606667 21.7946667 503.844 22.528 503.081333 23.2613333 502.7 24.2586667 502.7 25.52 502.7 26.8693333 503.162 27.9326667 504.086 28.71 505.01 29.4873333 506.293333 29.876 507.936 29.876ZM539 32.56C537.592 32.56 536.36 32.2813333 535.304 31.724 534.248 31.1666667 533.426667 30.3746667 532.84 29.348 532.253333 28.3213333 531.96 27.1186667 531.96 25.74L531.96 4.048 523.6 4.048 523.6.44 535.92.44 535.92 25.74C535.92 26.7373333 536.198667 27.522 536.756 28.094 537.313333 28.666 538.061333 28.952 539 28.952L546.48 28.952 546.48 32.56 539 32.56ZM561.836 33C559.049333 33 556.82 32.1713333 555.148 30.514 553.476 28.8566667 552.64 26.6053333 552.64 23.76L552.64 8.36 556.6 8.36 556.6 23.76C556.6 25.5786667 557.069333 26.994 558.008 28.006 558.946667 29.018 560.222667 29.524 561.836 29.524 563.478667 29.524 564.776667 29.018 565.73 28.006 566.683333 26.994 567.16 25.5786667 567.16 23.76L567.16 8.36 571.12 8.36 571.12 23.76C571.12 26.6053333 570.269333 28.8566667 568.568 30.514 566.866667 32.1713333 564.622667 33 561.836 33ZM588.28 33C586.373333 33 584.708667 32.6186667 583.286 31.856 581.863333 31.0933333 580.763333 30.0153333 579.986 28.622 579.208667 27.2286667 578.82 25.608 578.82 23.76L578.82 17.16C578.82 15.2826667 579.208667 13.6546667 579.986 12.276 580.763333 10.8973333 581.863333 9.82666667 583.286 9.064 584.708667 8.30133333 586.373333 7.92 588.28 7.92 590.186667 7.92 591.851333 8.30133333 593.274 9.064 594.696667 9.82666667 595.796667 10.8973333 596.574 12.276 597.351333 13.6546667 597.74 15.2826667 597.74 17.16L597.74 21.428 582.692 21.428 582.692 23.76C582.692 25.6666667 583.176 27.126 584.144 28.138 585.112 29.15 586.490667 29.656 588.28 29.656 589.805333 29.656 591.037333 29.3846667 591.976 28.842 592.914667 28.2993333 593.486667 27.4853333 593.692 26.4L597.652 26.4C597.388 28.424 596.398 30.03 594.682 31.218 592.966 32.406 590.832 33 588.28 33ZM593.868 18.788 593.868 17.16C593.868 15.2533333 593.391333 13.7866667 592.438 12.76 591.484667 11.7333333 590.098667 11.22 588.28 11.22 586.490667 11.22 585.112 11.7333333 584.144 12.76 583.176 13.7866667 582.692 15.2533333 582.692 17.16L582.692 18.436 594.176 18.436 593.868 18.788ZM605.528 32.56 605.528 28.644 615.78 17.468C617.305333 15.8253333 618.412667 14.3586667 619.102 13.068 619.791333 11.7773333 620.136 10.516 620.136 9.284 620.136 7.524 619.622667 6.12333333 618.596 5.082 617.569333 4.04066667 616.176 3.52 614.416 3.52 612.626667 3.52 611.211333 4.05533333 610.17 5.126 609.128667 6.19666667 608.608 7.64133333 608.608 9.46L604.648 9.46C604.706667 7.524 605.146667 5.84466667 605.968 4.422 606.789333 2.99933333 607.918667 1.90666667 609.356 1.144 610.793333.381333333 612.48 0 614.416 0 616.410667 0 618.126667.381333333 619.564 1.144 621.001333 1.90666667 622.116 2.98466667 622.908 4.378 623.7 5.77133333 624.096 7.42133333 624.096 9.328 624.096 10.8533333 623.648667 12.452 622.754 14.124 621.859333 15.796 620.414667 17.7173333 618.42 19.888L610.06 28.952 624.624 28.952 624.624 32.56 605.528 32.56ZM631.532 32.56 633.248 23.32 629.42 23.32 629.42 20.46 633.732 20.46 635.228 12.54 630.96 12.54 630.96 9.68 635.712 9.68 637.428.44 640.508.44 638.792 9.68 645.832 9.68 647.548.44 650.628.44 648.912 9.68 652.74 9.68 652.74 12.54 648.428 12.54 646.932 20.46 651.2 20.46 651.2 23.32 646.448 23.32 644.732 32.56 641.652 32.56 643.368 23.32 636.328 23.32 634.612 32.56 631.532 32.56ZM636.812 20.46 643.852 20.46 645.348 12.54 638.308 12.54 636.812 20.46ZM667.656 33C665.602667 33 663.806 32.6333333 662.266 31.9 660.726 31.1666667 659.538 30.1326667 658.702 28.798 657.866 27.4633333 657.448 25.9013333 657.448 24.112L661.408 24.112C661.408 25.7253333 661.98 27.0233333 663.124 28.006 664.268 28.9886667 665.778667 29.48 667.656 29.48 669.474667 29.48 670.926667 28.9886667 672.012 28.006 673.097333 27.0233333 673.64 25.7253333 673.64 24.112 673.64 22.8506667 673.31 21.7433333 672.65 20.79 671.99 19.8366667 671.088 19.184 669.944 18.832L665.192 17.336C663.050667 16.6613333 661.371333 15.5466667 660.154 13.992 658.936667 12.4373333 658.328 10.6333333 658.328 8.58 658.328 5.96933333 659.186 3.88666667 660.902 2.332 662.618.777333333 664.898667 0 667.744 0 670.589333 0 672.862667.777333333 674.564 2.332 676.265333 3.88666667 677.116 5.96933333 677.116 8.58L673.156 8.58C673.156 7.02533333 672.664667 5.79333333 671.682 4.884 670.699333 3.97466667 669.386667 3.52 667.744 3.52 666.072 3.52 664.73 3.97466667 663.718 4.884 662.706 5.79333333 662.2 6.996 662.2 8.492 662.2 9.66533333 662.537333 10.6773333 663.212 11.528 663.886667 12.3786667 664.810667 12.9946667 665.984 13.376L670.912 14.96C672.936 15.6053333 674.542 16.7493333 675.73 18.392 676.918 20.0346667 677.512 21.9413333 677.512 24.112 677.512 25.9013333 677.108667 27.4633333 676.302 28.798 675.495333 30.1326667 674.351333 31.1666667 672.87 31.9 671.388667 32.6333333 669.650667 33 667.656 33ZM693.88 32.912C691.944 32.912 690.264667 32.538 688.842 31.79 687.419333 31.042 686.326667 29.9786667 685.564 28.6 684.801333 27.2213333 684.42 25.5786667 684.42 23.672L684.42 17.248C684.42 15.3413333 684.801333 13.6986667 685.564 12.32 686.326667 10.9413333 687.419333 9.878 688.842 9.13 690.264667 8.382 691.944 8.008 693.88 8.008 695.845333 8.008 697.532 8.382 698.94 9.13 700.348 9.878 701.433333 10.934 702.196 12.298 702.958667 13.662 703.34 15.2973333 703.34 17.204L703.34 23.672C703.34 25.5786667 702.958667 27.2213333 702.196 28.6 701.433333 29.9786667 700.348 31.042 698.94 31.79 697.532 32.538 695.845333 32.912 693.88 32.912ZM693.88 29.392C695.610667 29.392 696.96 28.908 697.928 27.94 698.896 26.972 699.38 25.5493333 699.38 23.672L699.38 17.248C699.38 15.3706667 698.896 13.948 697.928 12.98 696.96 12.012 695.610667 11.528 693.88 11.528 692.178667 11.528 690.836667 12.012 689.854 12.98 688.871333 13.948 688.38 15.3706667 688.38 17.248L688.38 23.672C688.38 25.5493333 688.871333 26.972 689.854 27.94 690.836667 28.908 692.178667 29.392 693.88 29.392ZM709.72 32.56 709.72 8.36 713.196 8.36 713.196 11.264 713.988 11.264 713.372 12.32C713.372 11.0293333 713.753333 9.97333333 714.516 9.152 715.278667 8.33066667 716.276 7.92 717.508 7.92 718.798667 7.92 719.847333 8.448 720.654 9.504 721.460667 10.56 721.864 11.9386667 721.864 13.64L720.676 11.264 722.524 11.264 721.688 12.32C721.688 11.0293333 722.076667 9.97333333 722.854 9.152 723.631333 8.33066667 724.650667 7.92 725.912 7.92 727.378667 7.92 728.566667 8.49933333 729.476 9.658 730.385333 10.8166667 730.84 12.32 730.84 14.168L730.84 32.56 727.188 32.56 727.188 14.124C727.188 13.0973333 726.960667 12.3126667 726.506 11.77 726.051333 11.2273333 725.398667 10.956 724.548 10.956 723.697333 10.956 723.037333 11.2273333 722.568 11.77 722.098667 12.3126667 721.864 13.0826667 721.864 14.08L721.864 32.56 718.696 32.56 718.696 14.124C718.696 13.0973333 718.454 12.3126667 717.97 11.77 717.486 11.2273333 716.818667 10.956 715.968 10.956 715.146667 10.956 714.508667 11.2273333 714.054 11.77 713.599333 12.3126667 713.372 13.0826667 713.372 14.08L713.372 32.56 709.72 32.56ZM746.68 33C744.773333 33 743.108667 32.6186667 741.686 31.856 740.263333 31.0933333 739.163333 30.0153333 738.386 28.622 737.608667 27.2286667 737.22 25.608 737.22 23.76L737.22 17.16C737.22 15.2826667 737.608667 13.6546667 738.386 12.276 739.163333 10.8973333 740.263333 9.82666667 741.686 9.064 743.108667 8.30133333 744.773333 7.92 746.68 7.92 748.586667 7.92 750.251333 8.30133333 751.674 9.064 753.096667 9.82666667 754.196667 10.8973333 754.974 12.276 755.751333 13.6546667 756.14 15.2826667 756.14 17.16L756.14 21.428 741.092 21.428 741.092 23.76C741.092 25.6666667 741.576 27.126 742.544 28.138 743.512 29.15 744.890667 29.656 746.68 29.656 748.205333 29.656 749.437333 29.3846667 750.376 28.842 751.314667 28.2993333 751.886667 27.4853333 752.092 26.4L756.052 26.4C755.788 28.424 754.798 30.03 753.082 31.218 751.366 32.406 749.232 33 746.68 33ZM752.268 18.788 752.268 17.16C752.268 15.2533333 751.791333 13.7866667 750.838 12.76 749.884667 11.7333333 748.498667 11.22 746.68 11.22 744.890667 11.22 743.512 11.7333333 742.544 12.76 741.576 13.7866667 741.092 15.2533333 741.092 17.16L741.092 18.436 752.576 18.436 752.268 18.788ZM765.292 32.56 761.42 8.36 764.852 8.36 767.272 25.52C767.36 26.1653333 767.448 26.862 767.536 27.61 767.624 28.358 767.682667 28.9813333 767.712 29.48L767.888 29.48C767.946667 28.9813333 768.02 28.358 768.108 27.61 768.196 26.862 768.298667 26.1653333 768.416 25.52L771.1 8.36 775.06 8.36 777.744 25.52C777.861333 26.1653333 777.971333 26.862 778.074 27.61 778.176667 28.358 778.242667 28.9813333 778.272 29.48L778.448 29.48C778.506667 28.9813333 778.587333 28.358 778.69 27.61 778.792667 26.862 778.888 26.1653333 778.976 25.52L781.484 8.36 784.74 8.36 780.692 32.56 776.336 32.56 773.74 15.84C773.622667 15.0186667 773.505333 14.1973333 773.388 13.376 773.270667 12.5546667 773.182667 11.9093333 773.124 11.44L772.948 11.44C772.918667 11.9093333 772.852667 12.5546667 772.75 13.376 772.647333 14.1973333 772.522667 15.0186667 772.376 15.84L769.648 32.56 765.292 32.56ZM790.328 32.56 790.328.44 794.288.44 794.288 8.36 794.288 12.98 795.124 12.98 794.288 13.904C794.288 11.9973333 794.86 10.5233333 796.004 9.482 797.148 8.44066667 798.732 7.92 800.756 7.92 803.190667 7.92 805.126667 8.668 806.564 10.164 808.001333 11.66 808.72 13.6986667 808.72 16.28L808.72 32.56 804.76 32.56 804.76 16.72C804.76 14.9893333 804.298 13.6473333 803.374 12.694 802.45 11.7406667 801.196 11.264 799.612 11.264 797.969333 11.264 796.671333 11.7773333 795.718 12.804 794.764667 13.8306667 794.288 15.2826667 794.288 17.16L794.288 32.56 790.328 32.56ZM825.88 33C823.973333 33 822.308667 32.6186667 820.886 31.856 819.463333 31.0933333 818.363333 30.0153333 817.586 28.622 816.808667 27.2286667 816.42 25.608 816.42 23.76L816.42 17.16C816.42 15.2826667 816.808667 13.6546667 817.586 12.276 818.363333 10.8973333 819.463333 9.82666667 820.886 9.064 822.308667 8.30133333 823.973333 7.92 825.88 7.92 827.786667 7.92 829.451333 8.30133333 830.874 9.064 832.296667 9.82666667 833.396667 10.8973333 834.174 12.276 834.951333 13.6546667 835.34 15.2826667 835.34 17.16L835.34 21.428 820.292 21.428 820.292 23.76C820.292 25.6666667 820.776 27.126 821.744 28.138 822.712 29.15 824.090667 29.656 825.88 29.656 827.405333 29.656 828.637333 29.3846667 829.576 28.842 830.514667 28.2993333 831.086667 27.4853333 831.292 26.4L835.252 26.4C834.988 28.424 833.998 30.03 832.282 31.218 830.566 32.406 828.432 33 825.88 33ZM831.468 18.788 831.468 17.16C831.468 15.2533333 830.991333 13.7866667 830.038 12.76 829.084667 11.7333333 827.698667 11.22 825.88 11.22 824.090667 11.22 822.712 11.7333333 821.744 12.76 820.776 13.7866667 820.292 15.2533333 820.292 17.16L820.292 18.436 831.776 18.436 831.468 18.788ZM843.876 32.56 843.876 8.36 847.836 8.36 847.836 12.98 848.672 12.98 847.836 13.904C847.836 11.9973333 848.408 10.5233333 849.552 9.482 850.696 8.44066667 852.28 7.92 854.304 7.92 856.826667 7.92 858.836 8.71933333 860.332 10.318 861.828 11.9166667 862.576 14.08 862.576 16.808L862.576 18.48 858.616 18.48 858.616 17.16C858.616 15.312 858.146667 13.882 857.208 12.87 856.269333 11.858 854.905333 11.352 853.116 11.352 851.414667 11.352 850.109333 11.8433333 849.2 12.826 848.290667 13.8086667 847.836 15.2533333 847.836 17.16L847.836 32.56 843.876 32.56ZM878.68 33C876.773333 33 875.108667 32.6186667 873.686 31.856 872.263333 31.0933333 871.163333 30.0153333 870.386 28.622 869.608667 27.2286667 869.22 25.608 869.22 23.76L869.22 17.16C869.22 15.2826667 869.608667 13.6546667 870.386 12.276 871.163333 10.8973333 872.263333 9.82666667 873.686 9.064 875.108667 8.30133333 876.773333 7.92 878.68 7.92 880.586667 7.92 882.251333 8.30133333 883.674 9.064 885.096667 9.82666667 886.196667 10.8973333 886.974 12.276 887.751333 13.6546667 888.14 15.2826667 888.14 17.16L888.14 21.428 873.092 21.428 873.092 23.76C873.092 25.6666667 873.576 27.126 874.544 28.138 875.512 29.15 876.890667 29.656 878.68 29.656 880.205333 29.656 881.437333 29.3846667 882.376 28.842 883.314667 28.2993333 883.886667 27.4853333 884.092 26.4L888.052 26.4C887.788 28.424 886.798 30.03 885.082 31.218 883.366 32.406 881.232 33 878.68 33ZM884.268 18.788 884.268 17.16C884.268 15.2533333 883.791333 13.7866667 882.838 12.76 881.884667 11.7333333 880.498667 11.22 878.68 11.22 876.890667 11.22 875.512 11.7333333 874.544 12.76 873.576 13.7866667 873.092 15.2533333 873.092 17.16L873.092 18.436 884.576 18.436 884.268 18.788Z"/><polygon points="896.5 32.56 896.5 28.952 903.056 28.952 903.056 4.048 896.5 4.048 896.5 .44 913.66 .44 913.66 4.048 907.104 4.048 907.104 28.952 913.66 28.952 913.66 32.56"/><path d="M922.328,32.56 L922.328,8.36 L926.288,8.36 L926.288,12.98 L927.124,12.98 L926.288,13.904 C926.288,11.9973333 926.86,10.5233333 928.004,9.482 C929.148,8.44066667 930.732,7.92 932.756,7.92 C935.190667,7.92 937.126667,8.668 938.564,10.164 C940.001333,11.66 940.72,13.6986667 940.72,16.28 L940.72,32.56 L936.76,32.56 L936.76,16.72 C936.76,14.9893333 936.298,13.662 935.374,12.738 C934.45,11.814 933.196,11.352 931.612,11.352 C929.969333,11.352 928.671333,11.8506667 927.718,12.848 C926.764667,13.8453333 926.288,15.2826667 926.288,17.16 L926.288,32.56 L922.328,32.56 Z"/><polygon points="955.9 32.56 955.9 4.048 947.1 4.048 947.1 .44 968.66 .44 968.66 4.048 959.86 4.048 959.86 32.56"/><path d="M975.128 32.56 975.128.44 979.088.44 979.088 8.36 979.088 12.98 979.924 12.98 979.088 13.904C979.088 11.9973333 979.66 10.5233333 980.804 9.482 981.948 8.44066667 983.532 7.92 985.556 7.92 987.990667 7.92 989.926667 8.668 991.364 10.164 992.801333 11.66 993.52 13.6986667 993.52 16.28L993.52 32.56 989.56 32.56 989.56 16.72C989.56 14.9893333 989.098 13.6473333 988.174 12.694 987.25 11.7406667 985.996 11.264 984.412 11.264 982.769333 11.264 981.471333 11.7773333 980.518 12.804 979.564667 13.8306667 979.088 15.2826667 979.088 17.16L979.088 32.56 975.128 32.56ZM1010.68 33C1008.77333 33 1007.10867 32.6186667 1005.686 31.856 1004.26333 31.0933333 1003.16333 30.0153333 1002.386 28.622 1001.60867 27.2286667 1001.22 25.608 1001.22 23.76L1001.22 17.16C1001.22 15.2826667 1001.60867 13.6546667 1002.386 12.276 1003.16333 10.8973333 1004.26333 9.82666667 1005.686 9.064 1007.10867 8.30133333 1008.77333 7.92 1010.68 7.92 1012.58667 7.92 1014.25133 8.30133333 1015.674 9.064 1017.09667 9.82666667 1018.19667 10.8973333 1018.974 12.276 1019.75133 13.6546667 1020.14 15.2826667 1020.14 17.16L1020.14 21.428 1005.092 21.428 1005.092 23.76C1005.092 25.6666667 1005.576 27.126 1006.544 28.138 1007.512 29.15 1008.89067 29.656 1010.68 29.656 1012.20533 29.656 1013.43733 29.3846667 1014.376 28.842 1015.31467 28.2993333 1015.88667 27.4853333 1016.092 26.4L1020.052 26.4C1019.788 28.424 1018.798 30.03 1017.082 31.218 1015.366 32.406 1013.232 33 1010.68 33ZM1016.268 18.788 1016.268 17.16C1016.268 15.2533333 1015.79133 13.7866667 1014.838 12.76 1013.88467 11.7333333 1012.49867 11.22 1010.68 11.22 1008.89067 11.22 1007.512 11.7333333 1006.544 12.76 1005.576 13.7866667 1005.092 15.2533333 1005.092 17.16L1005.092 18.436 1016.576 18.436 1016.268 18.788ZM1027.928 32.56 1027.928.44 1036.244.44C1038.32667.44 1040.12333.836 1041.634 1.628 1043.14467 2.42 1044.318 3.53466667 1045.154 4.972 1045.99 6.40933333 1046.408 8.11066667 1046.408 10.076L1046.408 22.88C1046.408 24.8453333 1045.99 26.554 1045.154 28.006 1044.318 29.458 1043.14467 30.58 1041.634 31.372 1040.12333 32.164 1038.32667 32.56 1036.244 32.56L1027.928 32.56ZM1031.888 29.04 1036.244 29.04C1038.18 29.04 1039.698 28.4973333 1040.798 27.412 1041.898 26.3266667 1042.448 24.816 1042.448 22.88L1042.448 10.076C1042.448 8.16933333 1041.898 6.67333333 1040.798 5.588 1039.698 4.50266667 1038.18 3.96 1036.244 3.96L1031.888 3.96 1031.888 29.04ZM1063.48 32.912C1061.544 32.912 1059.86467 32.538 1058.442 31.79 1057.01933 31.042 1055.92667 29.9786667 1055.164 28.6 1054.40133 27.2213333 1054.02 25.5786667 1054.02 23.672L1054.02 17.248C1054.02 15.3413333 1054.40133 13.6986667 1055.164 12.32 1055.92667 10.9413333 1057.01933 9.878 1058.442 9.13 1059.86467 8.382 1061.544 8.008 1063.48 8.008 1065.44533 8.008 1067.132 8.382 1068.54 9.13 1069.948 9.878 1071.03333 10.934 1071.796 12.298 1072.55867 13.662 1072.94 15.2973333 1072.94 17.204L1072.94 23.672C1072.94 25.5786667 1072.55867 27.2213333 1071.796 28.6 1071.03333 29.9786667 1069.948 31.042 1068.54 31.79 1067.132 32.538 1065.44533 32.912 1063.48 32.912ZM1063.48 29.392C1065.21067 29.392 1066.56 28.908 1067.528 27.94 1068.496 26.972 1068.98 25.5493333 1068.98 23.672L1068.98 17.248C1068.98 15.3706667 1068.496 13.948 1067.528 12.98 1066.56 12.012 1065.21067 11.528 1063.48 11.528 1061.77867 11.528 1060.43667 12.012 1059.454 12.98 1058.47133 13.948 1057.98 15.3706667 1057.98 17.248L1057.98 23.672C1057.98 25.5493333 1058.47133 26.972 1059.454 27.94 1060.43667 28.908 1061.77867 29.392 1063.48 29.392ZM1090.056 33C1088.12 33 1086.426 32.6333333 1084.974 31.9 1083.522 31.1666667 1082.4 30.1033333 1081.608 28.71 1080.816 27.3166667 1080.42 25.6666667 1080.42 23.76L1080.42 17.16C1080.42 15.224 1080.816 13.5666667 1081.608 12.188 1082.4 10.8093333 1083.522 9.75333333 1084.974 9.02 1086.426 8.28666667 1088.12 7.92 1090.056 7.92 1092.84267 7.92 1095.08667 8.668 1096.788 10.164 1098.48933 11.66 1099.384 13.6986667 1099.472 16.28L1095.512 16.28C1095.424 14.7253333 1094.90333 13.53 1093.95 12.694 1092.99667 11.858 1091.69867 11.44 1090.056 11.44 1088.32533 11.44 1086.94667 11.9313333 1085.92 12.914 1084.89333 13.8966667 1084.38 15.2973333 1084.38 17.116L1084.38 23.76C1084.38 25.5786667 1084.89333 26.9866667 1085.92 27.984 1086.94667 28.9813333 1088.32533 29.48 1090.056 29.48 1091.69867 29.48 1092.99667 29.0546667 1093.95 28.204 1094.90333 27.3533333 1095.424 26.1653333 1095.512 24.64L1099.472 24.64C1099.384 27.2213333 1098.48933 29.26 1096.788 30.756 1095.08667 32.252 1092.84267 33 1090.056 33ZM1116.236 33C1113.44933 33 1111.22 32.1713333 1109.548 30.514 1107.876 28.8566667 1107.04 26.6053333 1107.04 23.76L1107.04 8.36 1111 8.36 1111 23.76C1111 25.5786667 1111.46933 26.994 1112.408 28.006 1113.34667 29.018 1114.62267 29.524 1116.236 29.524 1117.87867 29.524 1119.17667 29.018 1120.13 28.006 1121.08333 26.994 1121.56 25.5786667 1121.56 23.76L1121.56 8.36 1125.52 8.36 1125.52 23.76C1125.52 26.6053333 1124.66933 28.8566667 1122.968 30.514 1121.26667 32.1713333 1119.02267 33 1116.236 33ZM1132.12 32.56 1132.12 8.36 1135.596 8.36 1135.596 11.264 1136.388 11.264 1135.772 12.32C1135.772 11.0293333 1136.15333 9.97333333 1136.916 9.152 1137.67867 8.33066667 1138.676 7.92 1139.908 7.92 1141.19867 7.92 1142.24733 8.448 1143.054 9.504 1143.86067 10.56 1144.264 11.9386667 1144.264 13.64L1143.076 11.264 1144.924 11.264 1144.088 12.32C1144.088 11.0293333 1144.47667 9.97333333 1145.254 9.152 1146.03133 8.33066667 1147.05067 7.92 1148.312 7.92 1149.77867 7.92 1150.96667 8.49933333 1151.876 9.658 1152.78533 10.8166667 1153.24 12.32 1153.24 14.168L1153.24 32.56 1149.588 32.56 1149.588 14.124C1149.588 13.0973333 1149.36067 12.3126667 1148.906 11.77 1148.45133 11.2273333 1147.79867 10.956 1146.948 10.956 1146.09733 10.956 1145.43733 11.2273333 1144.968 11.77 1144.49867 12.3126667 1144.264 13.0826667 1144.264 14.08L1144.264 32.56 1141.096 32.56 1141.096 14.124C1141.096 13.0973333 1140.854 12.3126667 1140.37 11.77 1139.886 11.2273333 1139.21867 10.956 1138.368 10.956 1137.54667 10.956 1136.90867 11.2273333 1136.454 11.77 1135.99933 12.3126667 1135.772 13.0826667 1135.772 14.08L1135.772 32.56 1132.12 32.56ZM1169.08 33C1167.17333 33 1165.50867 32.6186667 1164.086 31.856 1162.66333 31.0933333 1161.56333 30.0153333 1160.786 28.622 1160.00867 27.2286667 1159.62 25.608 1159.62 23.76L1159.62 17.16C1159.62 15.2826667 1160.00867 13.6546667 1160.786 12.276 1161.56333 10.8973333 1162.66333 9.82666667 1164.086 9.064 1165.50867 8.30133333 1167.17333 7.92 1169.08 7.92 1170.98667 7.92 1172.65133 8.30133333 1174.074 9.064 1175.49667 9.82666667 1176.59667 10.8973333 1177.374 12.276 1178.15133 13.6546667 1178.54 15.2826667 1178.54 17.16L1178.54 21.428 1163.492 21.428 1163.492 23.76C1163.492 25.6666667 1163.976 27.126 1164.944 28.138 1165.912 29.15 1167.29067 29.656 1169.08 29.656 1170.60533 29.656 1171.83733 29.3846667 1172.776 28.842 1173.71467 28.2993333 1174.28667 27.4853333 1174.492 26.4L1178.452 26.4C1178.188 28.424 1177.198 30.03 1175.482 31.218 1173.766 32.406 1171.632 33 1169.08 33ZM1174.668 18.788 1174.668 17.16C1174.668 15.2533333 1174.19133 13.7866667 1173.238 12.76 1172.28467 11.7333333 1170.89867 11.22 1169.08 11.22 1167.29067 11.22 1165.912 11.7333333 1164.944 12.76 1163.976 13.7866667 1163.492 15.2533333 1163.492 17.16L1163.492 18.436 1174.976 18.436 1174.668 18.788ZM1186.328 32.56 1186.328 8.36 1190.288 8.36 1190.288 12.98 1191.124 12.98 1190.288 13.904C1190.288 11.9973333 1190.86 10.5233333 1192.004 9.482 1193.148 8.44066667 1194.732 7.92 1196.756 7.92 1199.19067 7.92 1201.12667 8.668 1202.564 10.164 1204.00133 11.66 1204.72 13.6986667 1204.72 16.28L1204.72 32.56 1200.76 32.56 1200.76 16.72C1200.76 14.9893333 1200.298 13.662 1199.374 12.738 1198.45 11.814 1197.196 11.352 1195.612 11.352 1193.96933 11.352 1192.67133 11.8506667 1191.718 12.848 1190.76467 13.8453333 1190.288 15.2826667 1190.288 17.16L1190.288 32.56 1186.328 32.56ZM1224.52 32.56C1222.52533 32.56 1220.92667 31.9806667 1219.724 30.822 1218.52133 29.6633333 1217.92 28.116 1217.92 26.18L1217.92 11.968 1211.1 11.968 1211.1 8.36 1217.92 8.36 1217.92 1.54 1221.88 1.54 1221.88 8.36 1231.56 8.36 1231.56 11.968 1221.88 11.968 1221.88 26.18C1221.88 27.0013333 1222.122 27.6686667 1222.606 28.182 1223.09 28.6953333 1223.728 28.952 1224.52 28.952L1231.12 28.952 1231.12 32.56 1224.52 32.56Z"/></g></g></g></svg>