<svg xmlns="http://www.w3.org/2000/svg" xmlns:xlink="http://www.w3.org/1999/xlink" width="800" height="200" viewBox="0 0 800 200"><defs><linearGradient id="c" x1="100%" x2="0%" y1="50%" y2="50%"><stop offset="0%" stop-color="#1C1C1E"/><stop offset="100%" stop-color="#1C1C1E" stop-opacity="0"/></linearGradient><rect id="a" width="800" height="200" x="0" y="0"/></defs><g fill="none" fill-rule="evenodd"><rect width="800" height="200" fill="#1C1C1E"/><g transform="translate(110 10)"><path fill="#FF9F0A" d="M7.6916556,74 C5.01709938,74 4.04724067,73.7215232 3.06946289,73.1986019 C2.09168511,72.6756806 1.32431939,71.9083149 0.801398111,70.9305371 C0.278476833,69.9527593 1.2037061e-16,68.9829006 -2.07168062e-16,66.3083444 L2.07168062e-16,7.6916556 C-1.2037061e-16,5.01709938 0.278476833,4.04724067 0.801398111,3.06946289 C1.32431939,2.09168511 2.09168511,1.32431939 3.06946289,0.801398111 C4.04724067,0.278476833 5.01709938,1.80555915e-16 7.6916556,-3.10752092e-16 L521.308344,3.10752092e-16 C523.982901,-1.80555915e-16 524.952759,0.278476833 525.930537,0.801398111 C526.908315,1.32431939 527.675681,2.09168511 528.198602,3.06946289 C528.721523,4.04724067 529,5.01709938 529,7.6916556 L529,66.3083444 C529,68.9829006 528.721523,69.9527593 528.198602,70.9305371 C527.675681,71.9083149 526.908315,72.6756806 525.930537,73.1986019 C524.952759,73.7215232 523.982901,74 521.308344,74 L66,74 L66,116 L81.999,116 L82,104 L106,119 L82,134 L81.999,122 L60,122 L60,74 L7.6916556,74 Z" opacity=".5"/><path fill="#E5E5EA" fill-rule="nonzero" d="M1.32.87.48 2.1C2.16 2.61 3.81 3.33 5.4 4.29L6.27 2.94C4.77 2.13 3.12 1.44 1.32.87ZM11.31 0C10.59 2.16 9.21 4.02 7.14 5.52L8.13 6.81C9.33 5.91 10.32 4.89 11.13 3.75L15.51 3.75C15.12 5.61 14.34 7.08 13.14 8.16 11.79 9.36 9.6 10.26 6.57 10.92L7.2 12.39C10.5 11.61 12.9 10.53 14.37 9.15 14.91 8.61 15.39 7.98 15.81 7.32 17.61 9.84 20.79 11.55 25.29 12.45L25.86 11.04C21.18 10.14 18.06 8.43 16.44 5.94 16.68 5.28 16.89 4.53 17.04 3.75L22.68 3.75C22.32 5.01 21.87 6.18 21.3 7.2L22.86 7.65C23.49 6.24 24 4.8 24.36 3.3L24.36 2.28 12.03 2.28C12.36 1.62 12.66.93 12.9.18L11.31 0ZM22.32 13.44 3.3 13.44 3.3 22.53 4.95 22.53 4.95 14.97 20.67 14.97 20.67 22.35 22.32 22.35 22.32 13.44ZM12.21 16.38C11.97 19.62 11.13 21.9 9.75 23.28 8.19 24.75 5.01 25.62.21 25.89L.87 27.36C6.12 26.94 9.54 25.89 11.1 24.24 12.54 22.89 13.44 20.31 13.86 16.53L12.21 16.38ZM5.7 6.45C4.17 8.01 2.28 9.45 0 10.8L1.08 12.03C3.3 10.65 5.16 9.15 6.66 7.56L5.7 6.45ZM14.64 22.35 13.8 23.58C17.43 24.54 20.97 25.86 24.42 27.54L25.29 26.19C22.08 24.66 18.54 23.37 14.64 22.35ZM31.14.78 30.03 1.83C32.31 3.48 34.11 5.04 35.43 6.51L36.54 5.4C35.1 3.84 33.3 2.31 31.14.78ZM30.6 8.13 29.49 9.18C31.62 10.77 33.3 12.27 34.53 13.68L35.64 12.57C34.29 11.07 32.61 9.6 30.6 8.13ZM34.53 16.11C33.21 19.71 31.62 23.25 29.82 26.67L31.35 27.33C33.03 24.03 34.56 20.46 35.94 16.68L34.53 16.11ZM42.33 6.12 42.33 16.32 47.67 16.32 47.67 24.84C47.67 25.59 47.28 25.98 46.56 25.98 45.81 25.98 45.03 25.92 44.25 25.86L44.58 27.36 47.1 27.36C48.48 27.36 49.2 26.64 49.2 25.2L49.2 16.32 54.36 16.32 54.36 6.12 48.27 6.12C48.69 5.1 48.99 4.02 49.23 2.91L56.01 2.91 56.01 1.44 38.28 1.44 38.28 12.33C38.19 18.27 37.17 22.95 35.22 26.31L36.45 27.39C38.61 23.61 39.72 18.57 39.84 12.33L39.84 2.91 47.7 2.91C47.52 4.02 47.19 5.1 46.77 6.12L42.33 6.12ZM52.89 14.97 43.8 14.97 43.8 11.88 52.89 11.88 52.89 14.97ZM43.8 10.59 43.8 7.44 52.89 7.44 52.89 10.59 43.8 10.59ZM43.29 18.69C42.6 21.06 41.52 23.19 40.08 25.05L41.4 25.89C42.87 23.97 44.01 21.66 44.79 18.99L43.29 18.69ZM52.98 18.57 51.6 19.02C52.8 21 53.94 23.28 54.96 25.86L56.34 25.26C55.38 22.89 54.27 20.67 52.98 18.57ZM60.81 1.41 60.81 10.41 65.04 10.41 65.04 23.97C64.2 24.21 63.33 24.42 62.43 24.66L62.43 13.83 60.93 13.83 60.93 25.05C60.36 25.17 59.79 25.32 59.25 25.44L59.67 27.03C63.87 26.01 67.53 24.9 70.65 23.73L70.65 22.11C69.33 22.59 67.98 23.07 66.57 23.52L66.57 17.25 69.93 17.25 69.93 15.69 66.57 15.69 66.57 10.41 69.63 10.41 69.63 1.41 60.81 1.41ZM68.07 8.85 62.37 8.85 62.37 2.97 68.07 2.97 68.07 8.85ZM84.06 16.44 72.6 16.44 72.6 27.33 74.16 27.33 74.16 25.92 82.5 25.92 82.5 27.33 84.06 27.33 84.06 16.44ZM74.16 24.42 74.16 17.94 82.5 17.94 82.5 24.42 74.16 24.42ZM75.69 0C74.73 3.12 72.9 5.79 70.2 7.95L71.19 9.21C72.21 8.37 73.14 7.44 73.98 6.45 74.82 8.01 75.84 9.45 77.07 10.74 75.06 12.36 72.63 13.77 69.78 14.97L70.8 16.29C73.68 15.06 76.14 13.59 78.21 11.85 80.28 13.74 82.86 15.18 85.92 16.17L86.85 14.85C83.91 13.92 81.39 12.57 79.35 10.83 81.39 8.82 82.98 6.51 84.09 3.93L84.09 2.7 76.35 2.7C76.71 1.92 77.01 1.11 77.28.27L75.69 0ZM74.94 5.16C75.15 4.86 75.36 4.56 75.57 4.2L82.32 4.2C81.3 6.24 79.92 8.1 78.18 9.75 76.89 8.43 75.81 6.9 74.94 5.16ZM106.41 17.61 106.41 25.05 98.19 25.05 98.19 26.58 116.07 26.58 116.07 25.05 108 25.05 108 17.61 114.33 17.61 114.33 16.08 99.87 16.08 99.87 17.61 106.41 17.61ZM108.18 9C111.12 10.86 113.46 12.63 115.26 14.31L116.4 13.14C114.45 11.4 112.05 9.66 109.23 7.92 110.61 6.42 111.75 4.77 112.59 2.91L112.59 1.62 99.66 1.62 99.66 3.18 110.7 3.18C108.42 7.5 104.28 10.8 98.31 13.11L99.3 14.4C102.9 12.96 105.84 11.16 108.18 9ZM95.73.09C94.38 3 92.19 5.64 89.16 7.98L89.64 9.57C93.06 7.05 95.55 4.11 97.17.75L95.73.09ZM96.6 7.83C95.1 10.95 92.7 13.77 89.4 16.26L89.88 17.85C91.2 16.89 92.4 15.87 93.51 14.76L93.51 27.45 95.13 27.45 95.13 12.96C96.27 11.58 97.23 10.08 98.01 8.46L96.6 7.83ZM.06 39.09.06 60.51 1.89 60.51 1.89 51.42 8.73 51.42C13.5 51.42 15.9 49.35 15.9 45.24 15.9 41.13 13.5 39.09 8.76 39.09L.06 39.09ZM1.89 40.71 8.64 40.71C10.47 40.71 11.85 41.1 12.75 41.88 13.59 42.6 14.04 43.71 14.04 45.24 14.04 46.77 13.59 47.91 12.75 48.66 11.85 49.41 10.5 49.8 8.64 49.8L1.89 49.8 1.89 40.71ZM25.35 44.58C23.58 44.58 22.14 44.94 21.03 45.69 19.77 46.47 18.99 47.67 18.69 49.23L20.46 49.35C20.7 48.27 21.27 47.46 22.17 46.89 22.98 46.35 24 46.11 25.26 46.11 28.26 46.11 29.76 47.58 29.76 50.52L29.76 51.45 25.8 51.51C23.46 51.51 21.63 51.93 20.37 52.74 18.9 53.58 18.18 54.9 18.18 56.7 18.18 57.96 18.66 59.01 19.65 59.79 20.55 60.54 21.78 60.93 23.28 60.93 24.75 60.93 26.1 60.54 27.36 59.82 28.38 59.22 29.22 58.44 29.85 57.54L29.85 60.51 31.56 60.51 31.56 50.52C31.56 48.72 31.08 47.34 30.18 46.35 29.13 45.15 27.51 44.58 25.35 44.58ZM29.76 52.86 29.76 54.48C29.76 55.68 29.13 56.82 27.9 57.84 26.64 58.92 25.2 59.46 23.64 59.46 22.56 59.46 21.66 59.19 21 58.68 20.34 58.17 20.01 57.51 20.01 56.67 20.01 54.21 21.96 52.95 25.89 52.92L29.76 52.86ZM39.09 39.99 37.29 40.74 37.29 45 33.99 45 33.99 46.56 37.29 46.56 37.29 57.06C37.29 58.2 37.5 59.04 37.98 59.58 38.49 60.18 39.36 60.51 40.56 60.51L42.75 60.51 42.75 58.95 40.8 58.95C40.14 58.95 39.69 58.8 39.45 58.53 39.21 58.23 39.09 57.72 39.09 57.06L39.09 46.56 43.14 46.56 43.14 45 39.09 45 39.09 39.99ZM45.87 38.67 45.87 60.51 47.7 60.51 47.7 51.54C47.7 50.01 48.12 48.72 49.02 47.7 49.92 46.65 51 46.14 52.29 46.14 53.67 46.14 54.72 46.53 55.5 47.34 56.25 48.18 56.64 49.35 56.64 50.85L56.64 60.51 58.44 60.51 58.44 50.61C58.44 48.69 57.93 47.19 56.94 46.14 55.95 45.09 54.57 44.58 52.8 44.58 51.72 44.58 50.73 44.85 49.86 45.39 48.96 45.96 48.24 46.77 47.7 47.82L47.7 38.67 45.87 38.67ZM75.96 39.99 74.16 40.74 74.16 45 70.86 45 70.86 46.56 74.16 46.56 74.16 57.06C74.16 58.2 74.37 59.04 74.85 59.58 75.36 60.18 76.23 60.51 77.43 60.51L79.62 60.51 79.62 58.95 77.67 58.95C77.01 58.95 76.56 58.8 76.32 58.53 76.08 58.23 75.96 57.72 75.96 57.06L75.96 46.56 80.01 46.56 80.01 45 75.96 45 75.96 39.99ZM89.52 44.58C87.24 44.58 85.41 45.39 84.06 47.04 82.77 48.57 82.14 50.49 82.14 52.77 82.14 55.05 82.77 56.94 84.03 58.47 85.41 60.09 87.24 60.93 89.52 60.93 91.8 60.93 93.63 60.09 95.01 58.47 96.27 56.94 96.9 55.05 96.9 52.77 96.9 50.49 96.27 48.57 95.01 47.04 93.63 45.39 91.8 44.58 89.52 44.58ZM89.52 46.14C91.29 46.14 92.7 46.8 93.72 48.18 94.62 49.38 95.1 50.91 95.1 52.77 95.1 54.57 94.62 56.1 93.72 57.33 92.7 58.68 91.29 59.37 89.52 59.37 87.75 59.37 86.37 58.68 85.35 57.33 84.42 56.13 83.97 54.6 83.97 52.77 83.97 50.91 84.42 49.38 85.35 48.18 86.37 46.8 87.75 46.14 89.52 46.14ZM116.58 44.58C115.44 44.58 114.42 44.94 113.58 45.66 112.86 46.23 112.29 47.01 111.87 47.97L111.87 45 110.07 45 110.07 60.51 111.87 60.51 111.87 52.32C111.87 50.76 112.26 49.41 113.1 48.27 113.94 47.01 115.08 46.41 116.46 46.41 117.24 46.41 118.02 46.5 118.83 46.74L118.83 44.91C118.23 44.67 117.48 44.58 116.58 44.58ZM127.14 44.58C124.95 44.58 123.21 45.39 121.89 47.01 120.6 48.57 119.97 50.46 119.97 52.74 119.97 55.2 120.63 57.21 121.98 58.71 123.27 60.18 125.01 60.93 127.2 60.93 129.18 60.93 130.77 60.36 132.03 59.22 133.05 58.26 133.74 57.03 134.1 55.53L132.27 55.53C131.88 56.73 131.34 57.63 130.62 58.26 129.75 58.98 128.61 59.37 127.2 59.37 125.58 59.37 124.32 58.83 123.36 57.75 122.43 56.67 121.92 55.17 121.83 53.28L134.43 53.28C134.34 50.61 133.74 48.54 132.66 47.07 131.43 45.39 129.6 44.58 127.14 44.58ZM127.17 46.14C130.44 46.14 132.24 48.03 132.54 51.81L121.86 51.81C122.01 50.13 122.55 48.78 123.48 47.73 124.41 46.65 125.64 46.14 127.17 46.14ZM142.59 44.58C140.97 44.58 139.59 44.94 138.51 45.69 137.37 46.47 136.83 47.46 136.83 48.72 136.83 49.98 137.4 50.97 138.6 51.69 139.32 52.14 140.58 52.59 142.38 53.07 144.15 53.52 145.29 53.88 145.83 54.15 146.85 54.66 147.36 55.38 147.36 56.31 147.36 58.35 145.86 59.37 142.86 59.37 141.42 59.37 140.34 59.1 139.62 58.56 138.84 57.96 138.36 56.97 138.18 55.62L136.41 55.62C136.77 59.16 138.93 60.93 142.92 60.93 147.12 60.93 149.22 59.34 149.22 56.22 149.22 54.9 148.59 53.85 147.36 53.1 146.58 52.62 145.23 52.14 143.34 51.66 141.75 51.24 140.67 50.88 140.07 50.58 139.14 50.1 138.69 49.47 138.69 48.69 138.69 47.91 139.05 47.31 139.77 46.83 140.49 46.35 141.42 46.14 142.56 46.14 143.94 46.14 144.99 46.41 145.71 46.98 146.37 47.49 146.79 48.27 147 49.35L148.77 49.35C148.32 46.17 146.25 44.58 142.59 44.58ZM158.88 44.58C156.6 44.58 154.77 45.39 153.42 47.04 152.13 48.57 151.5 50.49 151.5 52.77 151.5 55.05 152.13 56.94 153.39 58.47 154.77 60.09 156.6 60.93 158.88 60.93 161.16 60.93 162.99 60.09 164.37 58.47 165.63 56.94 166.26 55.05 166.26 52.77 166.26 50.49 165.63 48.57 164.37 47.04 162.99 45.39 161.16 44.58 158.88 44.58ZM158.88 46.14C160.65 46.14 162.06 46.8 163.08 48.18 163.98 49.38 164.46 50.91 164.46 52.77 164.46 54.57 163.98 56.1 163.08 57.33 162.06 58.68 160.65 59.37 158.88 59.37 157.11 59.37 155.73 58.68 154.71 57.33 153.78 56.13 153.33 54.6 153.33 52.77 153.33 50.91 153.78 49.38 154.71 48.18 155.73 46.8 157.11 46.14 158.88 46.14ZM169.44 45 169.44 54.57C169.44 58.8 171.33 60.93 175.11 60.93 177.33 60.93 179.07 59.91 180.27 57.9L180.27 60.51 182.07 60.51 182.07 45 180.27 45 180.27 54.42C180.15 55.89 179.64 57.09 178.74 57.99 177.84 58.89 176.79 59.37 175.59 59.37 174.09 59.37 172.98 58.95 172.26 58.11 171.57 57.3 171.24 56.1 171.24 54.48L171.24 45 169.44 45ZM192.36 44.58C191.22 44.58 190.2 44.94 189.36 45.66 188.64 46.23 188.07 47.01 187.65 47.97L187.65 45 185.85 45 185.85 60.51 187.65 60.51 187.65 52.32C187.65 50.76 188.04 49.41 188.88 48.27 189.72 47.01 190.86 46.41 192.24 46.41 193.02 46.41 193.8 46.5 194.61 46.74L194.61 44.91C194.01 44.67 193.26 44.58 192.36 44.58ZM203.19 44.58C200.94 44.58 199.17 45.39 197.88 47.04 196.65 48.57 196.05 50.52 196.05 52.86 196.05 55.23 196.62 57.15 197.82 58.59 199.08 60.15 200.88 60.93 203.16 60.93 205.02 60.93 206.55 60.42 207.69 59.43 208.86 58.41 209.61 56.91 209.91 54.96L208.14 54.96C207.69 57.9 206.04 59.37 203.16 59.37 201.45 59.37 200.13 58.77 199.23 57.6 198.33 56.43 197.88 54.84 197.88 52.86 197.88 50.85 198.33 49.23 199.29 48.03 200.25 46.77 201.57 46.14 203.19 46.14 204.54 46.14 205.65 46.47 206.49 47.13 207.33 47.79 207.84 48.75 208.05 50.07L209.85 50.07C209.61 48.21 208.89 46.83 207.72 45.93 206.55 45.03 205.05 44.58 203.19 44.58ZM219.06 44.58C216.87 44.58 215.13 45.39 213.81 47.01 212.52 48.57 211.89 50.46 211.89 52.74 211.89 55.2 212.55 57.21 213.9 58.71 215.19 60.18 216.93 60.93 219.12 60.93 221.1 60.93 222.69 60.36 223.95 59.22 224.97 58.26 225.66 57.03 226.02 55.53L224.19 55.53C223.8 56.73 223.26 57.63 222.54 58.26 221.67 58.98 220.53 59.37 219.12 59.37 217.5 59.37 216.24 58.83 215.28 57.75 214.35 56.67 213.84 55.17 213.75 53.28L226.35 53.28C226.26 50.61 225.66 48.54 224.58 47.07 223.35 45.39 221.52 44.58 219.06 44.58ZM219.09 46.14C222.36 46.14 224.16 48.03 224.46 51.81L213.78 51.81C213.93 50.13 214.47 48.78 215.4 47.73 216.33 46.65 217.56 46.14 219.09 46.14Z" transform="translate(113.13 106.49)"/></g><mask id="b" fill="#fff"><use xlink:href="#a"/></mask><g fill-rule="nonzero" mask="url(#b)"><g transform="translate(4.253 24.975)"><path fill="#48484A" d="M21.8342285 17.3463135C21.8342285 13.1506348 20.1851807 10.9588623 17.0332031 10.9588623 14.7579346 10.9588623 12.9418945 12.3365479 12.3574219 14.5074463L11.9816895 14.5074463C11.5015869 12.2739258 9.99865723 10.9588623 7.86950684 10.9588623 5.74035645 10.9588623 4.11218262 12.2947998 3.54858398 14.5700684L3.17285156 14.5700684 3.17285156 11.3763428 0 11.3763428 0 34.0246582 3.19372559 34.0246582 3.19372559 18.744873C3.19372559 15.9268799 4.44616699 14.1943359 6.45007324 14.1943359 8.3704834 14.1943359 9.37243652 15.6346436 9.37243652 18.3691406L9.37243652 34.0246582 12.5452881 34.0246582 12.5452881 18.744873C12.5452881 15.9268799 13.7559814 14.1943359 15.7390137 14.1943359 17.6385498 14.1943359 18.6405029 15.6346436 18.6405029 18.3900146L18.6405029 34.0246582 21.8342285 34.0246582 21.8342285 17.3463135ZM37.3436279 18.1186523C39.4101562 18.1186523 41.1218262 16.3652344 41.1218262 14.256958 41.1218262 12.1486816 39.4101562 10.3952637 37.3436279 10.3952637 35.2770996 10.3952637 33.5654297 12.1486816 33.5654297 14.256958 33.5654297 16.3652344 35.2770996 18.1186523 37.3436279 18.1186523ZM37.3436279 34.1499023C39.4101562 34.1499023 41.1218262 32.4173584 41.1218262 30.288208 41.1218262 28.1799316 39.4101562 26.4473877 37.3436279 26.4473877 35.2770996 26.4473877 33.5654297 28.1799316 33.5654297 30.288208 33.5654297 32.4173584 35.2770996 34.1499023 37.3436279 34.1499023ZM63.8745117 34.692627C70.1367188 34.692627 74.4785156 31.1022949 74.4785156 25.9672852 74.4785156 22.1682129 71.9945068 19.0579834 68.3415527 18.2856445L68.3415527 17.9516602C71.4100342 17.0958252 73.2678223 14.5283203 73.2678223 11.2510986 73.2678223 6.55444336 69.3643799 3.23547363 63.8745117 3.23547363 58.3846436 3.23547363 54.4603271 6.55444336 54.4603271 11.2510986 54.4603271 14.5283203 56.3598633 17.1166992 59.3865967 17.9516602L59.3865967 18.2856445C55.6710205 19.1832275 53.2496338 22.230835 53.2496338 25.9672852 53.2496338 31.1022949 57.6123047 34.692627 63.8745117 34.692627ZM63.8745117 16.6992188C60.3885498 16.6992188 58.0715332 14.6535645 58.0715332 11.564209 58.0715332 8.49572754 60.3885498 6.45007324 63.8745117 6.45007324 67.3604736 6.45007324 69.6566162 8.49572754 69.6566162 11.564209 69.6566162 14.6535645 67.3604736 16.6992188 63.8745117 16.6992188ZM63.8745117 31.4989014C59.7832031 31.4989014 56.96521 29.1192627 56.96521 25.6750488 56.96521 22.230835 59.7832031 19.8511963 63.8745117 19.8511963 67.9658203 19.8511963 70.7838135 22.230835 70.7838135 25.6750488 70.7838135 29.1192627 67.9658203 31.4989014 63.8745117 31.4989014ZM90.2175293 34.713501C96.7510986 34.713501 100.383179 29.1192627 100.383179 18.9744873 100.383179 8.82971191 96.7510986 3.23547363 90.2175293 3.23547363 83.6630859 3.23547363 80.0518799 8.82971191 80.0518799 18.9744873 80.0518799 29.1192627 83.6630859 34.713501 90.2175293 34.713501ZM83.704834 18.9744873C83.704834 10.7918701 85.9592285 6.49182129 90.2175293 6.49182129 93.0563965 6.49182129 95.0185547 8.41223145 95.9996338 12.1486816L83.8509521 22.293457C83.7674561 21.2706299 83.704834 20.1643066 83.704834 18.9744873ZM90.2175293 31.4571533C87.3786621 31.4571533 85.4373779 29.5367432 84.4562988 25.842041L96.5632324 15.6137695C96.6676025 16.6574707 96.7093506 17.7637939 96.7093506 18.9744873 96.7093506 27.1362305 94.4758301 31.4571533 90.2175293 31.4571533Z"/><polygon fill="#E5E5EA" points="111.008 36.884 125.703 1.044 122.217 1.044 107.543 36.884"/><path fill="#E5E5EA" d="M144.469116 11.0006104C141.233643 11.0006104 138.874878 12.3365479 137.685059 14.8414307L137.309326 14.8414307 137.309326 11.3763428 133.80249 11.3763428 133.80249 41.6645508 137.413696 41.6645508 137.413696 30.5178223 137.810303 30.5178223C138.791382 33.0018311 141.191895 34.4003906 144.469116 34.4003906 149.708496 34.4003906 153.131836 30.6221924 153.131836 24.8192139L153.131836 20.6026611C153.131836 14.7788086 149.708496 11.0006104 144.469116 11.0006104ZM143.446289 14.256958C147.182739 14.256958 149.562378 16.928833 149.562378 21.1036377L149.562378 24.3599854C149.562378 28.53479 147.182739 31.2275391 143.446289 31.2275391 139.709839 31.2275391 137.3302 28.5556641 137.3302 24.3599854L137.3302 21.1036377C137.3302 16.928833 139.709839 14.256958 143.446289 14.256958ZM167.180054 34.4212646C170.478149 34.4212646 172.941284 33.0644531 174.026733 30.6430664L174.381592 30.6430664 174.381592 34.0455322 177.763184 34.0455322 177.763184 18.5361328C177.763184 13.8186035 174.715576 11.1049805 169.3927 11.1049805 164.758667 11.1049805 161.251831 13.5889893 160.834351 17.2210693L164.320312 17.2210693C164.904785 15.2797852 166.741699 14.1734619 169.350952 14.1734619 172.50293 14.1734619 174.235474 15.7390137 174.235474 18.5778809L174.235474 20.6235352 168.015015 20.9366455C162.859131 21.2080078 159.978516 23.5876465 159.978516 27.595459 159.978516 31.7076416 162.859131 34.4212646 167.180054 34.4212646ZM168.202881 31.3110352C165.34314 31.3110352 163.568848 29.8498535 163.568848 27.4702148 163.568848 25.1114502 165.23877 23.7546387 168.411621 23.6085205L174.235474 23.3371582 174.235474 26.0090332C174.235474 29.0357666 171.626221 31.3110352 168.202881 31.3110352ZM192.041016 5.30200195 192.041016 11.4389648 186.008423 11.4389648 186.008423 14.4656982 192.041016 14.4656982 192.041016 27.2823486C192.041016 31.9998779 194.650269 34.1290283 200.265381 34.1290283 201.35083 34.1290283 204.106201 34.0246582 204.6698 33.9202881L204.6698 30.9144287C204.064453 30.9770508 201.789185 31.0396729 200.515869 31.0396729 197.322144 31.0396729 195.5896 29.7037354 195.5896 27.2406006L195.5896 14.4656982 204.732422 14.4656982 204.732422 11.4389648 195.547852 11.4389648 195.547852 5.30200195 192.041016 5.30200195ZM213.040283 34.0246582 216.588867 34.0246582 216.588867 20.7070312C216.588867 16.8453369 219.114624 14.236084 222.851074 14.236084 226.399658 14.236084 228.06958 16.1773682 228.06958 20.2478027L228.06958 34.0246582 231.618164 34.0246582 231.618164 19.3502197C231.618164 13.9438477 228.946289 10.9797363 224.02002 10.9797363 220.554932 10.9797363 217.945679 12.5661621 216.755859 15.3841553L216.463623 15.3841553 216.463623 2.48400879 213.040283 2.48400879 213.040283 34.0246582Z"/><polygon fill="#E5E5EA" points="243.141 36.884 257.836 1.044 254.35 1.044 239.676 36.884"/><path fill="#E5E5EA" d="M271.320557 5.30200195 271.320557 11.4389648 265.287964 11.4389648 265.287964 14.4656982 271.320557 14.4656982 271.320557 27.2823486C271.320557 31.9998779 273.92981 34.1290283 279.544922 34.1290283 280.630371 34.1290283 283.385742 34.0246582 283.949341 33.9202881L283.949341 30.9144287C283.343994 30.9770508 281.068726 31.0396729 279.79541 31.0396729 276.601685 31.0396729 274.869141 29.7037354 274.869141 27.2406006L274.869141 14.4656982 284.011963 14.4656982 284.011963 11.4389648 274.827393 11.4389648 274.827393 5.30200195 271.320557 5.30200195ZM301.608765 34.4421387C307.599609 34.4421387 311.419556 30.5386963 311.419556 24.4226074L311.419556 20.9992676C311.419556 14.8831787 307.599609 10.9797363 301.608765 10.9797363 295.61792 10.9797363 291.797974 14.8831787 291.797974 20.9992676L291.797974 24.4226074C291.797974 30.5386963 295.61792 34.4421387 301.608765 34.4421387ZM301.608765 14.1108398C305.491333 14.1108398 307.91272 16.8662109 307.91272 21.3123779L307.91272 24.088623C307.91272 28.5556641 305.491333 31.2901611 301.608765 31.2901611 297.726196 31.2901611 295.30481 28.5556641 295.30481 24.088623L295.30481 21.3123779C295.30481 16.8662109 297.726196 14.1108398 301.608765 14.1108398Z"/><polygon fill="#E5E5EA" points="322.42 36.884 337.115 1.044 333.63 1.044 318.955 36.884"/><path fill="#E5E5EA" d="M365.378906 17.3463135C365.378906 13.1506348 363.729858 10.9588623 360.577881 10.9588623 358.302612 10.9588623 356.486572 12.3365479 355.9021 14.5074463L355.526367 14.5074463C355.046265 12.2739258 353.543335 10.9588623 351.414185 10.9588623 349.285034 10.9588623 347.65686 12.2947998 347.093262 14.5700684L346.717529 14.5700684 346.717529 11.3763428 343.544678 11.3763428 343.544678 34.0246582 346.738403 34.0246582 346.738403 18.744873C346.738403 15.9268799 347.990845 14.1943359 349.994751 14.1943359 351.915161 14.1943359 352.917114 15.6346436 352.917114 18.3691406L352.917114 34.0246582 356.089966 34.0246582 356.089966 18.744873C356.089966 15.9268799 357.300659 14.1943359 359.283691 14.1943359 361.183228 14.1943359 362.185181 15.6346436 362.185181 18.3900146L362.185181 34.0246582 365.378906 34.0246582 365.378906 17.3463135ZM374.542603 42.0820312C378.738281 42.0820312 380.637817 40.4329834 382.62085 34.8596191L391.158325 11.3763428 387.380127 11.3763428 381.055298 30.3299561 380.783936 30.3299561 374.438232 11.3763428 370.576538 11.3763428 378.905273 34.1707764 378.508667 35.4023438C377.569336 38.0324707 376.400391 38.9926758 374.27124 38.9926758 373.937256 38.9926758 373.290161 38.9718018 373.018799 38.9091797L373.018799 42.0194092C373.331909 42.0611572 374.020752 42.0820312 374.542603 42.0820312ZM403.974976 34.0246582 407.52356 34.0246582 407.52356 14.4656982 417.480469 14.4656982 417.480469 11.4389648 407.481812 11.4389648 407.481812 9.10107422C407.481812 6.82580566 409.151733 5.65686035 412.303711 5.65686035 413.577026 5.65686035 416.49939 5.74035645 417.480469 5.84472656L417.480469 2.9432373C416.729004 2.83886719 413.577026 2.73449707 412.261963 2.73449707 406.688599 2.73449707 403.974976 4.78015137 403.974976 9.16369629L403.974976 11.4389648 397.900635 11.4389648 397.900635 14.4656982 403.974976 14.4656982 403.974976 34.0246582ZM434.137939 5.82385254C435.807861 5.82385254 437.081177 4.57141113 437.081177 2.90148926 437.081177 1.25244141 435.807861 0 434.137939 0 432.468018 0 431.194702 1.25244141 431.194702 2.90148926 431.194702 4.57141113 432.468018 5.82385254 434.137939 5.82385254ZM443.63562 34.0246582 443.63562 31.0814209 436.141846 31.0814209 436.141846 11.3763428 424.932495 11.3763428 424.932495 14.3195801 432.63501 14.3195801 432.63501 31.0814209 424.869873 31.0814209 424.869873 34.0246582 443.63562 34.0246582Z"/><polygon fill="#E5E5EA" points="470.062 34.025 470.062 31.081 462.589 31.081 462.589 2.484 451.359 2.484 451.359 5.427 459.041 5.427 459.041 31.081 451.296 31.081 451.296 34.025"/><path fill="#E5E5EA" d="M492.710449 28.1799316C492.084229 30.1629639 489.975952 31.3736572 487.116211 31.3736572 483.254517 31.3736572 480.791382 28.7017822 480.791382 24.5478516L480.791382 23.6293945 496.217285 23.6293945 496.217285 21.416748C496.217285 14.8623047 492.752197 10.9588623 486.865723 10.9588623 481.104492 10.9588623 477.284546 14.8831787 477.284546 20.8531494L477.284546 24.2556152C477.284546 30.7056885 480.895752 34.4421387 487.116211 34.4421387 491.875488 34.4421387 495.46582 31.9163818 496.154663 28.1799316L492.710449 28.1799316ZM486.844849 14.0064697C490.497803 14.0064697 492.710449 16.6157227 492.710449 20.9366455L480.791382 20.9366455C480.791382 16.5948486 483.06665 14.0064697 486.844849 14.0064697ZM513.020874 34.1499023C515.087402 34.1499023 516.799072 32.4173584 516.799072 30.288208 516.799072 28.1799316 515.087402 26.4473877 513.020874 26.4473877 510.954346 26.4473877 509.242676 28.1799316 509.242676 30.288208 509.242676 32.4173584 510.954346 34.1499023 513.020874 34.1499023ZM530.158447 34.0246582 533.707031 34.0246582 533.707031 20.7070312C533.707031 16.8453369 536.232788 14.236084 539.969238 14.236084 543.517822 14.236084 545.187744 16.1773682 545.187744 20.2478027L545.187744 34.0246582 548.736328 34.0246582 548.736328 19.3502197C548.736328 13.9438477 546.064453 10.9797363 541.138184 10.9797363 537.673096 10.9797363 535.063843 12.5661621 533.874023 15.3841553L533.581787 15.3841553 533.581787 2.48400879 530.158447 2.48400879 530.158447 34.0246582ZM562.012207 5.30200195 562.012207 11.4389648 555.979614 11.4389648 555.979614 14.4656982 562.012207 14.4656982 562.012207 27.2823486C562.012207 31.9998779 564.62146 34.1290283 570.236572 34.1290283 571.322021 34.1290283 574.077393 34.0246582 574.640991 33.9202881L574.640991 30.9144287C574.035645 30.9770508 571.760376 31.0396729 570.487061 31.0396729 567.293335 31.0396729 565.560791 29.7037354 565.560791 27.2406006L565.560791 14.4656982 574.703613 14.4656982 574.703613 11.4389648 565.519043 11.4389648 565.519043 5.30200195 562.012207 5.30200195ZM603.217529 17.3463135C603.217529 13.1506348 601.568481 10.9588623 598.416504 10.9588623 596.141235 10.9588623 594.325195 12.3365479 593.740723 14.5074463L593.36499 14.5074463C592.884888 12.2739258 591.381958 10.9588623 589.252808 10.9588623 587.123657 10.9588623 585.495483 12.2947998 584.931885 14.5700684L584.556152 14.5700684 584.556152 11.3763428 581.383301 11.3763428 581.383301 34.0246582 584.577026 34.0246582 584.577026 18.744873C584.577026 15.9268799 585.829468 14.1943359 587.833374 14.1943359 589.753784 14.1943359 590.755737 15.6346436 590.755737 18.3691406L590.755737 34.0246582 593.928589 34.0246582 593.928589 18.744873C593.928589 15.9268799 595.139282 14.1943359 597.122314 14.1943359 599.021851 14.1943359 600.023804 15.6346436 600.023804 18.3900146L600.023804 34.0246582 603.217529 34.0246582 603.217529 17.3463135Z"/><polygon fill="#E5E5EA" points="628.621 34.025 628.621 31.081 621.148 31.081 621.148 2.484 609.918 2.484 609.918 5.427 617.6 5.427 617.6 31.081 609.855 31.081 609.855 34.025"/></g></g><rect width="100" height="200" fill="url(#c)" transform="matrix(-1 0 0 1 100 0)"/></g></svg>